<svg width="47" height="46" viewBox="0 0 47 46" fill="none" xmlns="http://www.w3.org/2000/svg">
<circle cx="23.0029" cy="23" r="23" fill="#63E39E"/>
<path d="M15.6094 29H12.7969L12.8145 26.7852H15.6094C16.248 26.7852 16.7871 26.6387 17.2266 26.3457C17.666 26.0469 18 25.6074 18.2285 25.0273C18.457 24.4414 18.5713 23.7295 18.5713 22.8916V22.3027C18.5713 21.6699 18.5068 21.1133 18.3779 20.6328C18.249 20.1465 18.0586 19.7393 17.8066 19.4111C17.5547 19.083 17.2412 18.8369 16.8662 18.6729C16.4971 18.5088 16.0723 18.4268 15.5918 18.4268H12.7441V16.2031H15.5918C16.459 16.2031 17.25 16.3496 17.9648 16.6426C18.6855 16.9355 19.3066 17.3545 19.8281 17.8994C20.3555 18.4443 20.7627 19.0889 21.0498 19.833C21.3369 20.5771 21.4805 21.4062 21.4805 22.3203V22.8916C21.4805 23.7998 21.3369 24.6289 21.0498 25.3789C20.7627 26.123 20.3555 26.7676 19.8281 27.3125C19.3066 27.8516 18.6885 28.2676 17.9736 28.5605C17.2588 28.8535 16.4707 29 15.6094 29ZM14.4229 16.2031V29H11.5576V16.2031H14.4229ZM31.8164 21.3535V23.5684H25.1895V21.3535H31.8164ZM26.0947 16.2031V29H23.2295V16.2031H26.0947ZM33.7939 16.2031V29H30.9375V16.2031H33.7939Z" fill="white"/>
</svg>
