<svg width="46" height="46" viewBox="0 0 46 46" fill="none" xmlns="http://www.w3.org/2000/svg">
<circle cx="23" cy="23" r="23" fill="#D5B74F"/>
<path d="M15.6064 29H12.7939L12.8115 26.7852H15.6064C16.2451 26.7852 16.7842 26.6387 17.2236 26.3457C17.6631 26.0469 17.9971 25.6074 18.2256 25.0273C18.4541 24.4414 18.5684 23.7295 18.5684 22.8916V22.3027C18.5684 21.6699 18.5039 21.1133 18.375 20.6328C18.2461 20.1465 18.0557 19.7393 17.8037 19.4111C17.5518 19.083 17.2383 18.8369 16.8633 18.6729C16.4941 18.5088 16.0693 18.4268 15.5889 18.4268H12.7412V16.2031H15.5889C16.4561 16.2031 17.2471 16.3496 17.9619 16.6426C18.6826 16.9355 19.3037 17.3545 19.8252 17.8994C20.3525 18.4443 20.7598 19.0889 21.0469 19.833C21.334 20.5771 21.4775 21.4062 21.4775 22.3203V22.8916C21.4775 23.7998 21.334 24.6289 21.0469 25.3789C20.7598 26.123 20.3525 26.7676 19.8252 27.3125C19.3037 27.8516 18.6855 28.2676 17.9707 28.5605C17.2559 28.8535 16.4678 29 15.6064 29ZM14.4199 16.2031V29H11.5547V16.2031H14.4199ZM31.8135 21.3535V23.5684H25.1865V21.3535H31.8135ZM26.0918 16.2031V29H23.2266V16.2031H26.0918ZM33.791 16.2031V29H30.9346V16.2031H33.791Z" fill="white"/>
</svg>
