<svg width="47" height="46" viewBox="0 0 47 46" fill="none" xmlns="http://www.w3.org/2000/svg">
<circle cx="23.0059" cy="23" r="23" fill="#DD6CA9"/>
<path d="M15.6123 29H12.7998L12.8174 26.7852H15.6123C16.251 26.7852 16.79 26.6387 17.2295 26.3457C17.6689 26.0469 18.0029 25.6074 18.2314 25.0273C18.46 24.4414 18.5742 23.7295 18.5742 22.8916V22.3027C18.5742 21.6699 18.5098 21.1133 18.3809 20.6328C18.252 20.1465 18.0615 19.7393 17.8096 19.4111C17.5576 19.083 17.2441 18.8369 16.8691 18.6729C16.5 18.5088 16.0752 18.4268 15.5947 18.4268H12.7471V16.2031H15.5947C16.4619 16.2031 17.2529 16.3496 17.9678 16.6426C18.6885 16.9355 19.3096 17.3545 19.8311 17.8994C20.3584 18.4443 20.7656 19.0889 21.0527 19.833C21.3398 20.5771 21.4834 21.4062 21.4834 22.3203V22.8916C21.4834 23.7998 21.3398 24.6289 21.0527 25.3789C20.7656 26.123 20.3584 26.7676 19.8311 27.3125C19.3096 27.8516 18.6914 28.2676 17.9766 28.5605C17.2617 28.8535 16.4736 29 15.6123 29ZM14.4258 16.2031V29H11.5605V16.2031H14.4258ZM31.8193 21.3535V23.5684H25.1924V21.3535H31.8193ZM26.0977 16.2031V29H23.2324V16.2031H26.0977ZM33.7969 16.2031V29H30.9404V16.2031H33.7969Z" fill="white"/>
</svg>
