<svg width="100" height="100" viewBox="0 0 100 100" fill="none" xmlns="http://www.w3.org/2000/svg">
<circle cx="50" cy="50" r="50" fill="#FCF0F0"/>
<path d="M50 100C63.2608 100 75.9785 94.7322 85.3553 85.3553C94.7322 75.9785 100 63.2608 100 50C100 36.7392 94.7322 24.0215 85.3553 14.6447C75.9785 5.26784 63.2608 3.96409e-07 50 -2.18557e-06L50 50L50 100Z" fill="#F9E2E2"/>
<g clip-path="url(#clip0_283_411)">
<path fill-rule="evenodd" clip-rule="evenodd" d="M47.9047 20.1246C45.5453 20.4357 43.052 21.4178 40.8724 22.8944C39.681 23.7015 37.5012 25.9178 36.6758 27.1612C35.8863 28.3505 35.022 30.142 34.6044 31.4545C34.2538 32.5566 33.9127 34.1892 33.9127 34.7646C33.9127 34.9852 33.7536 35.2848 33.4374 35.6599C32.4638 36.815 32.4908 36.634 32.4533 42.2422C32.4161 47.7896 32.4372 47.9874 33.1681 48.9708C33.4484 49.3477 33.7939 49.6243 34.3121 49.8864C35.7264 50.6017 37.3379 50.2952 38.3313 49.122L38.7591 48.617L39.388 49.9287C40.8081 52.891 42.9206 55.1099 45.5233 56.3729L46.2288 56.7153L46.7006 56.1648C47.3204 55.4414 47.9777 54.9878 48.8364 54.6907C49.484 54.4666 49.8003 54.4484 53.0562 54.4484C57.1763 54.4484 57.4514 54.4012 58.3473 53.5405C58.6557 53.2442 59.1323 52.6548 59.4067 52.2307C59.9173 51.4416 60.9755 49.3123 61.0999 48.8241C61.1659 48.5648 61.1938 48.579 61.694 49.1269L62.2189 49.7018L62.1555 50.9438C62.1206 51.6268 62.0107 52.4706 61.9112 52.819C61.3753 54.6953 59.834 56.3155 58.0037 56.9261C57.3082 57.1582 56.9217 57.1851 53.3658 57.2496C49.5369 57.3189 49.4818 57.3233 49.1131 57.5934C47.9957 58.4121 48.0259 60.2082 49.1706 61.0136L49.5842 61.3046H53.6999C58.3294 61.3046 58.5627 61.2734 60.3648 60.4152C62.9514 59.1831 64.8594 56.9751 65.7232 54.214C66.0747 53.0908 66.2014 52.204 66.2014 50.8686V49.676L66.6196 49.2205C66.8496 48.97 67.1449 48.5276 67.2756 48.2373C67.5055 47.7272 67.5135 47.5331 67.5135 42.494C67.5135 36.593 67.546 36.8266 66.5626 35.6599C66.2464 35.2848 66.0873 34.9852 66.0873 34.7646C66.0873 33.5652 65.3377 30.967 64.4894 29.2266C63.6446 27.4929 62.8748 26.4134 61.4123 24.911C59.182 22.62 56.957 21.3031 53.9933 20.5199C52.0722 20.0121 49.8505 19.8678 47.9047 20.1246ZM52.453 24.4327C57.252 25.4554 60.9818 29.344 61.9328 34.3155L62.1254 35.3224L61.6254 35.9187L61.1255 36.5149L60.6975 35.5628C59.207 32.2469 56.3872 29.5259 53.3658 28.4879C51.7559 27.9347 49.518 27.7961 47.8559 28.1466C44.3993 28.8756 41.2447 31.5563 39.4385 35.2996L38.8604 36.498L38.3724 35.916L37.8844 35.3341L38.0144 34.5669C38.8705 29.5171 42.6197 25.5103 47.4899 24.4403C48.8305 24.1458 51.0906 24.1423 52.453 24.4327ZM37.9553 56.8502C32.9189 58.3808 28.9602 61.5783 26.4485 66.1443C24.9153 68.9314 24.1582 71.7929 24.0232 75.31C23.9348 77.6165 24.074 78.2239 24.8814 79.0533C25.8884 80.0877 23.505 79.998 50 79.998C76.495 79.998 74.1116 80.0877 75.1186 79.0533C75.926 78.2239 76.0652 77.6165 75.9768 75.31C75.8756 72.6744 75.4821 70.6715 74.6309 68.4604C73.2178 64.7894 70.6611 61.5786 67.3517 59.3185L66.5148 58.7471L66.1115 59.264C64.5902 61.214 62.3755 62.7683 60.0408 63.5247C58.3746 64.0646 57.2452 64.1746 53.3612 64.1753C49.6346 64.176 49.0591 64.1133 48.0794 63.6C47.3887 63.2381 46.5332 62.3711 46.1582 61.6532C45.813 60.9924 45.8032 60.9849 44.6936 60.5366C42.8136 59.777 40.7364 58.3992 39.5081 57.0971C39.2283 56.8006 38.9716 56.5608 38.9376 56.5642C38.9036 56.5676 38.4615 56.6964 37.9553 56.8502Z" fill="#8D4A20"/>
</g>
<defs>
<clipPath id="clip0_283_411">
<rect width="60" height="60" fill="white" transform="translate(20 20)"/>
</clipPath>
</defs>
</svg>
