<svg width="100" height="100" viewBox="0 0 100 100" fill="none" xmlns="http://www.w3.org/2000/svg">
<circle cx="50" cy="50" r="50" fill="#FCF0F0"/>
<path d="M50 100C63.2608 100 75.9785 94.7322 85.3553 85.3553C94.7322 75.9785 100 63.2608 100 50C100 36.7392 94.7322 24.0215 85.3553 14.6447C75.9785 5.26784 63.2608 3.96409e-07 50 -2.18557e-06L50 50L50 100Z" fill="#F9E2E2"/>
<g clip-path="url(#clip0_283_453)">
<path d="M55.3026 46.1999C54.8338 45.7312 54.1981 45.4679 53.5351 45.4679C52.8722 45.4679 52.2365 45.7312 51.7676 46.1999L50.0001 47.9649C49.5389 48.4425 48.9872 48.8234 48.3772 49.0854C47.7671 49.3475 47.111 49.4854 46.4471 49.4912C45.7833 49.4969 45.1249 49.3704 44.5104 49.119C43.8959 48.8676 43.3376 48.4963 42.8682 48.0269C42.3987 47.5574 42.0274 46.9992 41.776 46.3847C41.5246 45.7702 41.3981 45.1118 41.4039 44.4479C41.4097 43.784 41.5476 43.1279 41.8096 42.5179C42.0717 41.9079 42.4526 41.3561 42.9301 40.8949L57.0051 26.8149C60.3375 26.057 63.8239 26.3689 66.9687 27.7063C70.1136 29.0438 72.7567 31.3387 74.5223 34.2646C76.288 37.1906 77.0862 40.5988 76.8035 44.0045C76.5208 47.4102 75.1715 50.6401 72.9476 53.2349L67.6776 58.5724L55.3026 46.1974V46.1999ZM27.9026 31.1699C30.4895 28.5834 33.8732 26.9449 37.5065 26.5193C41.1399 26.0938 44.8106 26.9061 47.9251 28.8249L39.3926 37.3599C37.5446 39.2042 36.4912 41.6982 36.4575 44.3088C36.4237 46.9195 37.4124 49.4398 39.2121 51.3312C41.0118 53.2227 43.4799 54.3353 46.089 54.4313C48.6981 54.5273 51.2413 53.599 53.1751 51.8449L53.5351 51.5024L64.1426 62.1074L53.5351 72.7149C52.5975 73.6523 51.326 74.1788 50.0001 74.1788C48.6743 74.1788 47.4028 73.6523 46.4651 72.7149L27.9001 54.1499C24.853 51.1025 23.1411 46.9694 23.1411 42.6599C23.1411 38.3504 24.853 34.2173 27.9001 31.1699H27.9026Z" fill="#295889"/>
</g>
<defs>
<clipPath id="clip0_283_453">
<rect width="60" height="60" fill="white" transform="translate(20 20)"/>
</clipPath>
</defs>
</svg>
