<svg width="100" height="100" viewBox="0 0 100 100" fill="none" xmlns="http://www.w3.org/2000/svg">
<circle cx="50" cy="50" r="50" fill="#FCF0F0"/>
<path d="M50 100C63.2608 100 75.9785 94.7322 85.3553 85.3553C94.7322 75.9785 100 63.2608 100 50C100 36.7392 94.7322 24.0215 85.3553 14.6447C75.9785 5.26784 63.2608 3.96409e-07 50 -2.18557e-06L50 50L50 100Z" fill="#F9E2E2"/>
<g clip-path="url(#clip0_283_432)">
<path fill-rule="evenodd" clip-rule="evenodd" d="M30.0969 24.137C28.2912 24.5009 26.8094 25.418 25.5994 26.9207C23.5988 29.4052 23.4607 33.0678 25.2659 35.7616C25.579 36.2288 27.4644 38.1839 30.9976 41.705C35.6842 46.3757 36.3067 46.9603 36.6614 47.0246C37.5185 47.1799 37.4485 47.2394 43.2723 41.405L48.7273 35.9401L49.1972 34.9565C49.8381 33.6149 50.0357 32.6498 49.969 31.1882C49.8878 29.4076 49.4285 28.2167 48.2546 26.7428C47.3491 25.6057 46.0718 24.7679 44.4979 24.2785C43.4849 23.9634 41.498 23.9384 40.4599 24.2274C39.5091 24.4923 38.4125 25.0504 37.6725 25.6462C37.3241 25.9266 37.0008 26.1561 36.954 26.1561C36.9073 26.1561 36.7599 26.0401 36.6265 25.8983C36.2695 25.5186 35.1996 24.8478 34.4945 24.5615C33.1461 24.0142 31.4969 23.8549 30.0969 24.137ZM59.6834 30.6998C57.1927 31.423 55.1848 33.3982 54.4613 35.8366C54.1954 36.7327 53.3101 42.0056 53.3101 42.6931C53.3101 44.719 54.8149 46.613 56.8361 47.1309C58.7411 47.6189 60.7994 46.8472 61.8631 45.246C62.3591 44.4996 62.6497 43.5801 62.6612 42.7216C62.6666 42.3145 62.2884 39.7683 61.7038 36.2766C60.607 29.7241 60.8389 30.3642 59.6834 30.6998ZM63.93 30.7375C64.0185 31.122 65.7199 41.4875 65.7905 42.0719C65.9408 43.3161 65.4555 45.3416 64.7015 46.6176C64.5063 46.9478 63.9737 47.5969 63.5177 48.0599C61.8704 49.7326 59.9403 50.4764 57.5637 50.3544C56.2938 50.2893 55.371 50.0352 54.2696 49.4473L53.5192 49.0469L52.4952 50.3621C50.5169 52.9031 48.2516 56.109 47.1608 57.9112C44.3705 62.5211 43.25 65.7244 42.7904 70.405L42.7203 71.1176L42.0999 71.0528C39.9021 70.8233 37.4295 68.7446 35.3097 65.344C34.5333 64.0984 33.816 63.7864 32.8278 64.2642C32.3633 64.4889 32.0296 64.9234 31.919 65.4478C31.8374 65.8344 32.188 67.9363 32.5377 69.1567C33.55 72.6903 35.612 75.1505 38.4909 76.2596C40.2944 76.9544 39.7461 76.9242 51.2634 76.964L61.7042 77V76.1323C61.7042 75.3723 61.665 75.1862 61.3884 74.6333C61.034 73.9246 60.5422 73.4426 59.8441 73.12C59.4085 72.9187 59.1421 72.8981 56.3622 72.8502C53.6896 72.8043 53.32 72.7775 53.0671 72.6117C52.3771 72.1593 52.159 71.1336 52.6106 70.4649C52.7389 70.275 53.1078 69.9656 53.4305 69.7774C54.7037 69.0346 55.7143 67.8437 56.1727 66.5463C56.3692 65.9904 56.4151 65.6473 56.4169 64.7228C56.4188 63.8484 56.4614 63.5002 56.6006 63.2236C57.1648 62.1014 58.7994 62.1166 59.3554 63.2492C59.5052 63.5547 59.5456 63.8828 59.5464 64.8009C59.5478 66.4645 59.2007 67.8016 58.4397 69.0641C58.2403 69.395 58.0771 69.6834 58.0771 69.7049C58.0771 69.7266 58.3494 69.7442 58.6823 69.7442C59.4783 69.7442 60.7312 70.0712 61.5294 70.4875C62.4299 70.957 63.7296 72.2832 64.1581 73.1696C64.6253 74.1362 64.8131 74.9616 64.8131 76.0488V76.9916H69.1846C73.4044 76.9916 73.5717 76.9842 74.0027 76.7756C74.7496 76.4145 74.917 76.0747 74.917 74.9209C74.917 73.9986 74.8929 73.8869 74.53 73.1275C73.8989 71.8069 72.7915 70.8888 71.39 70.5241C71.0176 70.4272 70.3278 70.3654 69.6187 70.3654H68.4573L68.3465 69.8491C68.1551 68.9572 67.7296 65.8292 67.5578 64.0498C67.2022 60.366 67.2471 55.1282 67.6673 51.315C67.8134 49.9885 68.2849 46.7672 68.4061 46.2677C68.4615 46.0393 68.4921 46.0347 69.984 46.0347C71.7264 46.0347 72.3461 45.9136 73.5103 45.3456C74.4093 44.9069 75.692 43.7077 76.1507 42.8769C76.9596 41.4118 77.2519 39.4136 76.7586 38.7224C76.3179 38.1053 76.0927 38.0626 73.2845 38.0626H70.7504L70.6835 37.2717C70.6052 36.3464 70.1639 34.9918 69.6697 34.1602C68.9137 32.8879 67.367 31.5434 66.0546 31.0174C65.3165 30.7218 64.5239 30.5073 64.1634 30.5058C63.9188 30.5047 63.8843 30.5389 63.93 30.7375Z" fill="#295889"/>
</g>
<defs>
<clipPath id="clip0_283_432">
<rect width="60" height="60" fill="white" transform="translate(20 20)"/>
</clipPath>
</defs>
</svg>
