<svg width="1920" height="1032" viewBox="0 0 1920 1032" fill="none" xmlns="http://www.w3.org/2000/svg">
<rect width="1920" height="1032" transform="matrix(-1 -8.74228e-08 -8.74228e-08 1 1920 0.00012207)" fill="#EEF6FF"/>
<mask id="mask0_316_614" style="mask-type:alpha" maskUnits="userSpaceOnUse" x="0" y="0" width="1920" height="1033">
<rect width="1920" height="1032" transform="matrix(-1 -8.74228e-08 -8.74228e-08 1 1920 0.000244141)" fill="#EEF6FF"/>
</mask>
<g mask="url(#mask0_316_614)">
<g opacity="0.2">
<path d="M65.2691 176.7C65.3212 177.016 65.3068 177.435 65.2961 177.749C65.2136 180.158 64.1892 182.534 62.9531 183.75C61.7169 184.966 60.1327 185.331 58.6329 185.07C57.133 184.809 55.7838 183.819 54.501 182.727C53.281 181.637 52.0018 180.44 51.1873 178.524C50.7208 177.46 50.3871 176.19 50.3045 174.929C50.134 170.73 52.9902 168.102 55.1539 167.337C57.7015 166.376 60.1182 167.402 62.2406 169.677C63.091 170.544 63.8715 171.62 64.4528 173.003C64.9157 174.172 65.1866 175.439 65.2691 176.7Z" fill="#A9733D"/>
<path d="M68.8482 154.805C71.3528 155.101 73.8251 156.339 76.0211 158.301C76.7531 158.955 77.4187 159.712 77.7524 160.981C78.1346 162.672 77.6233 164.751 76.7639 165.98C74.9125 168.643 71.4965 169.26 69.2359 169.182C66.4694 169.192 63.8716 167.95 61.5607 165.669C58.7655 162.848 59.0417 158.453 62.1939 156.36C64.3163 154.965 66.6576 154.52 68.8482 154.805Z" fill="#A9733D"/>
<path d="M64.445 151.194C64.1938 151.185 64.0055 151.179 63.7543 151.17C62.1916 150.907 60.6469 150.12 59.1721 149.126C58.5585 148.686 57.9485 148.141 57.4713 147.39C56.4612 145.678 56.558 142.851 57.6201 141.21C58.7522 139.361 60.4135 138.579 61.9456 137.898C64.3677 136.932 66.9422 137.02 69.2925 138.149C70.7744 138.934 72.242 140.138 73.175 142.266C73.349 142.692 73.523 143.117 73.5715 143.538C73.6163 144.064 73.5392 144.481 73.3957 145C73.0243 146.665 72.165 147.894 71.2572 148.701C70.3494 149.509 69.3267 149.998 68.3077 150.383C66.9747 150.756 65.7637 151.239 64.445 151.194Z" fill="#A9733D"/>
<path d="M47.1683 178.387C47.0482 183.73 44.6136 186.897 40.846 186.768C37.3924 186.649 34.0409 181.712 34.1467 176.788C34.2382 172.282 36.9938 168.917 40.5767 168.935C44.599 168.968 47.2956 172.834 47.1683 178.387Z" fill="#A9733D"/>
<path d="M27.4045 137.201C19.7961 144.305 13.2983 152.922 20.4028 160.53C27.5074 168.138 39.4346 168.547 47.043 161.442C54.6515 154.338 55.06 142.412 47.9554 134.804C40.8509 127.196 35.013 130.097 27.4045 137.201Z" fill="#A9733D"/>
<path d="M56.7663 67.9066C56.7204 68.2365 56.5771 68.6476 56.4696 68.9559C55.6453 71.3199 53.8965 73.3616 52.2955 74.1868C50.6945 75.0119 49.0104 74.8859 47.6029 74.1646C46.1955 73.4434 45.1622 72.0456 44.2263 70.5666C43.3521 69.109 42.4521 67.5272 42.2344 65.3763C42.0997 64.1765 42.16 62.8142 42.4668 61.5379C43.5922 57.3191 47.2358 55.5922 49.6179 55.5005C52.4415 55.3321 54.5225 57.0952 55.9269 60.0057C56.503 61.1287 56.9458 62.4359 57.0962 63.9869C57.1951 65.2894 57.0731 66.6303 56.7663 67.9066Z" fill="#A9733D"/>
<path d="M67.0655 47.2894C69.459 48.3544 71.5299 50.3445 73.1035 52.9681C73.6281 53.8427 74.0551 54.7985 73.9948 56.1608C73.8528 57.9557 72.7046 59.861 71.4734 60.815C68.8159 62.8858 65.237 62.4449 63.0184 61.6714C60.2708 60.8288 58.0766 58.7957 56.4872 55.8208C54.5841 52.16 56.2126 47.8861 59.985 46.7806C62.5206 46.0507 64.9801 46.3318 67.0655 47.2894Z" fill="#A9733D"/>
<path d="M63.8108 42.3499C63.5643 42.264 63.3794 42.1995 63.1328 42.1135C61.6638 41.3708 60.3739 40.1142 59.2173 38.6734C58.7444 38.0474 58.3073 37.3186 58.0651 36.4273C57.5908 34.4175 58.5585 31.6424 60.118 30.3416C61.8108 28.8568 63.6999 28.5932 65.4299 28.3894C68.1302 28.1781 70.657 29.0591 72.6406 30.9034C73.8688 32.1385 74.9537 33.7848 75.223 36.1843C75.2645 36.6599 75.3061 37.1355 75.2244 37.5681C75.1068 38.1035 74.9018 38.4931 74.5994 38.9641C73.7178 40.5012 72.4865 41.4552 71.337 41.9767C70.1875 42.4981 69.0222 42.6682 67.8928 42.7356C66.4552 42.6955 65.105 42.8011 63.8108 42.3499Z" fill="#A9733D"/>
<path d="M38.2896 64.0017C36.5235 69.2651 33.1321 71.6564 29.4343 70.3671C26.0447 69.1854 24.242 63.2541 25.8648 58.4018C27.3442 53.9607 31.1154 51.4713 34.6641 52.5933C38.6443 53.8657 40.1274 58.5327 38.2896 64.0017Z" fill="#A9733D"/>
<path d="M31.3793 17.0521C21.6417 21.7546 12.5396 28.3 17.2424 38.0371C21.9452 47.7741 33.6514 51.8554 43.389 47.1529C53.1266 42.4504 57.2082 30.7449 52.5054 21.0079C47.8026 11.2708 41.117 12.3496 31.3793 17.0521Z" fill="#A9733D"/>
<path d="M143.983 128.757C143.938 129.079 143.799 129.48 143.694 129.78C142.89 132.085 141.185 134.076 139.624 134.88C138.063 135.685 136.421 135.562 135.049 134.859C133.677 134.156 132.669 132.793 131.757 131.351C130.904 129.93 130.027 128.387 129.814 126.29C129.683 125.12 129.742 123.792 130.041 122.548C131.138 118.434 134.691 116.751 137.013 116.661C139.766 116.497 141.795 118.216 143.165 121.054C143.726 122.149 144.158 123.423 144.305 124.936C144.401 126.205 144.282 127.513 143.983 128.757Z" fill="#A9733D"/>
<path d="M154.025 108.655C156.359 109.694 158.378 111.634 159.912 114.192C160.423 115.045 160.84 115.977 160.781 117.305C160.643 119.055 159.523 120.913 158.323 121.843C155.732 123.862 152.242 123.432 150.079 122.678C147.4 121.856 145.261 119.874 143.711 116.973C141.856 113.404 143.443 109.237 147.122 108.159C149.594 107.447 151.992 107.722 154.025 108.655Z" fill="#A9733D"/>
<path d="M150.852 103.84C150.611 103.756 150.431 103.693 150.191 103.609C148.758 102.885 147.501 101.66 146.373 100.255C145.912 99.6449 145.486 98.9343 145.25 98.0652C144.787 96.1056 145.731 93.3999 147.251 92.1317C148.902 90.684 150.744 90.427 152.43 90.2283C155.063 90.0222 157.527 90.8812 159.461 92.6794C160.658 93.8837 161.716 95.4888 161.979 97.8283C162.019 98.292 162.06 98.7557 161.98 99.1775C161.865 99.6995 161.665 100.079 161.371 100.539C160.511 102.037 159.311 102.967 158.19 103.476C157.069 103.984 155.933 104.15 154.832 104.216C153.43 104.177 152.114 104.28 150.852 103.84Z" fill="#A9733D"/>
<path d="M125.968 124.95C124.246 130.082 120.94 132.413 117.334 131.156C114.03 130.004 112.272 124.221 113.854 119.49C115.297 115.16 118.973 112.733 122.434 113.827C126.314 115.067 127.76 119.618 125.968 124.95Z" fill="#A9733D"/>
<path d="M119.231 79.1743C109.737 83.7592 100.862 90.141 105.447 99.6346C110.032 109.128 121.446 113.107 130.94 108.523C140.434 103.938 144.414 92.5247 139.829 83.0311C135.243 73.5375 128.725 74.5894 119.231 79.1743Z" fill="#A9733D"/>
<path d="M129.182 226.335C129.14 226.636 129.009 227.012 128.911 227.293C128.158 229.454 126.56 231.319 125.097 232.073C123.634 232.827 122.095 232.712 120.809 232.053C119.522 231.394 118.578 230.117 117.723 228.765C116.924 227.433 116.102 225.988 115.903 224.022C115.78 222.926 115.835 221.681 116.115 220.515C117.144 216.66 120.473 215.082 122.65 214.998C125.23 214.844 127.132 216.455 128.415 219.115C128.941 220.141 129.346 221.335 129.484 222.753C129.574 223.943 129.462 225.168 129.182 226.335Z" fill="#A9733D"/>
<path d="M138.594 207.494C140.781 208.468 142.673 210.286 144.111 212.684C144.591 213.483 144.981 214.356 144.926 215.601C144.796 217.241 143.747 218.982 142.622 219.854C140.193 221.746 136.923 221.343 134.896 220.637C132.385 219.867 130.38 218.009 128.927 215.29C127.188 211.945 128.676 208.04 132.124 207.029C134.441 206.362 136.688 206.619 138.594 207.494Z" fill="#A9733D"/>
<path d="M135.619 202.981C135.394 202.902 135.225 202.844 134.999 202.765C133.657 202.086 132.478 200.938 131.421 199.621C130.989 199.049 130.59 198.383 130.369 197.569C129.935 195.732 130.819 193.196 132.244 192.008C133.791 190.651 135.518 190.41 137.098 190.224C139.566 190.031 141.875 190.836 143.688 192.521C144.81 193.65 145.801 195.154 146.047 197.347C146.085 197.781 146.123 198.216 146.049 198.611C145.941 199.101 145.754 199.457 145.478 199.887C144.672 201.292 143.547 202.163 142.496 202.64C141.446 203.116 140.381 203.272 139.349 203.333C138.035 203.297 136.802 203.393 135.619 202.981Z" fill="#A9733D"/>
<path d="M112.298 222.767C110.684 227.576 107.585 229.761 104.206 228.583C101.109 227.503 99.4615 222.083 100.944 217.649C102.296 213.591 105.742 211.316 108.985 212.341C112.622 213.504 113.978 217.769 112.298 222.767Z" fill="#A9733D"/>
<path d="M105.983 179.864C97.085 184.162 88.7675 190.143 93.0649 199.04C97.3623 207.938 108.059 211.668 116.958 207.37C125.856 203.073 129.586 192.377 125.288 183.479C120.991 174.581 114.881 175.567 105.983 179.864Z" fill="#A9733D"/>
<path d="M266.568 235.508C266.582 235.768 266.534 236.103 266.498 236.355C266.222 238.287 265.19 240.11 264.09 240.981C262.989 241.851 261.682 242.007 260.498 241.667C259.314 241.326 258.314 240.412 257.377 239.421C256.49 238.437 255.565 237.362 255.076 235.75C254.793 234.853 254.635 233.802 254.679 232.78C254.907 229.386 257.435 227.519 259.243 227.092C261.377 226.541 263.232 227.577 264.742 229.592C265.351 230.365 265.885 231.298 266.233 232.462C266.503 233.443 266.611 234.486 266.568 235.508Z" fill="#A9733D"/>
<path d="M271.355 218.2C273.345 218.656 275.227 219.867 276.823 221.638C277.355 222.228 277.825 222.895 277.983 223.946C278.143 225.339 277.551 226.968 276.752 227.882C275.03 229.864 272.228 230.063 270.415 229.804C268.188 229.571 266.205 228.345 264.544 226.308C262.54 223.794 263.145 220.282 265.865 218.871C267.694 217.933 269.617 217.78 271.355 218.2Z" fill="#A9733D"/>
<path d="M268.126 214.911C267.925 214.883 267.774 214.861 267.572 214.832C266.338 214.484 265.163 213.717 264.063 212.788C263.607 212.38 263.164 211.888 262.845 211.243C262.181 209.777 262.506 207.509 263.503 206.281C264.575 204.892 265.98 204.407 267.273 203.992C269.306 203.426 271.37 203.721 273.164 204.834C274.288 205.595 275.364 206.692 275.929 208.486C276.032 208.844 276.135 209.201 276.138 209.544C276.128 209.971 276.03 210.3 275.869 210.706C275.425 212.013 274.626 212.927 273.825 213.498C273.025 214.069 272.159 214.374 271.305 214.595C270.2 214.78 269.183 215.063 268.126 214.911Z" fill="#A9733D"/>
<path d="M251.854 235.29C251.292 239.579 249.057 241.916 246.036 241.484C243.267 241.088 241 236.822 241.514 232.869C241.98 229.251 244.491 226.783 247.373 227.109C250.607 227.486 252.44 230.832 251.854 235.29Z" fill="#A9733D"/>
<path d="M239.536 200.423C232.794 205.477 226.814 211.846 231.869 218.588C236.924 225.329 246.488 226.696 253.229 221.642C259.971 216.587 261.339 207.024 256.284 200.283C251.229 193.542 246.278 195.368 239.536 200.423Z" fill="#A9733D"/>
<path d="M196.354 262.598C196.368 262.857 196.32 263.193 196.284 263.445C196.008 265.376 194.977 267.199 193.876 268.07C192.775 268.941 191.468 269.097 190.284 268.756C189.1 268.415 188.1 267.501 187.163 266.51C186.276 265.527 185.351 264.452 184.862 262.84C184.579 261.942 184.421 260.892 184.465 259.87C184.693 256.475 187.221 254.609 189.029 254.182C191.163 253.63 193.018 254.666 194.528 256.682C195.137 257.454 195.672 258.387 196.019 259.551C196.29 260.532 196.397 261.576 196.354 262.598Z" fill="#A9733D"/>
<path d="M201.141 245.288C203.131 245.744 205.013 246.956 206.609 248.726C207.141 249.316 207.611 249.983 207.769 251.034C207.929 252.428 207.337 254.057 206.538 254.971C204.816 256.953 202.013 257.152 200.201 256.892C197.973 256.66 195.991 255.434 194.33 253.397C192.326 250.883 192.931 247.37 195.65 245.96C197.48 245.022 199.403 244.868 201.141 245.288Z" fill="#A9733D"/>
<path d="M197.911 242C197.71 241.972 197.559 241.95 197.357 241.921C196.123 241.573 194.948 240.806 193.848 239.877C193.392 239.469 192.949 238.977 192.63 238.332C191.966 236.866 192.291 234.598 193.288 233.37C194.36 231.981 195.766 231.496 197.058 231.081C199.091 230.515 201.156 230.81 202.949 231.923C204.073 232.684 205.149 233.781 205.715 235.575C205.818 235.933 205.921 236.29 205.923 236.633C205.913 237.06 205.815 237.389 205.654 237.795C205.21 239.102 204.412 240.016 203.611 240.587C202.81 241.158 201.944 241.463 201.09 241.684C199.985 241.869 198.968 242.152 197.911 242Z" fill="#A9733D"/>
<path d="M181.64 262.379C181.078 266.668 178.843 269.005 175.822 268.573C173.053 268.177 170.786 263.911 171.3 259.958C171.766 256.34 174.277 253.872 177.158 254.198C180.393 254.575 182.226 257.921 181.64 262.379Z" fill="#A9733D"/>
<path d="M169.321 227.512C162.579 232.567 156.6 238.936 161.655 245.677C166.71 252.419 176.273 253.786 183.015 248.731C189.756 243.677 191.124 234.114 186.069 227.373C181.014 220.631 176.063 222.458 169.321 227.512Z" fill="#A9733D"/>
<path d="M212.404 177.85C212.418 178.11 212.37 178.445 212.334 178.697C212.058 180.629 211.027 182.452 209.926 183.323C208.825 184.193 207.519 184.349 206.334 184.009C205.15 183.668 204.151 182.754 203.213 181.763C202.326 180.779 201.401 179.705 200.912 178.092C200.63 177.195 200.472 176.144 200.515 175.122C200.744 171.728 203.271 169.861 205.079 169.434C207.213 168.883 209.069 169.919 210.579 171.934C211.187 172.707 211.722 173.64 212.069 174.804C212.34 175.785 212.448 176.828 212.404 177.85Z" fill="#A9733D"/>
<path d="M217.191 160.542C219.181 160.998 221.063 162.209 222.659 163.98C223.191 164.57 223.661 165.237 223.819 166.288C223.979 167.682 223.387 169.31 222.588 170.224C220.866 172.206 218.063 172.405 216.251 172.146C214.024 171.913 212.041 170.687 210.38 168.65C208.376 166.136 208.981 162.624 211.701 161.213C213.53 160.275 215.453 160.122 217.191 160.542Z" fill="#A9733D"/>
<path d="M213.962 157.254C213.761 157.225 213.61 157.203 213.408 157.174C212.173 156.826 210.999 156.059 209.899 155.13C209.443 154.722 209 154.23 208.681 153.585C208.017 152.119 208.341 149.851 209.339 148.623C210.411 147.234 211.816 146.749 213.109 146.334C215.142 145.768 217.206 146.063 218.999 147.176C220.124 147.937 221.2 149.034 221.765 150.828C221.868 151.186 221.971 151.543 221.974 151.886C221.964 152.313 221.866 152.642 221.705 153.048C221.261 154.355 220.462 155.269 219.661 155.84C218.86 156.411 217.995 156.716 217.141 156.937C216.036 157.122 215.019 157.405 213.962 157.254Z" fill="#A9733D"/>
<path d="M197.691 177.632C197.129 181.922 194.894 184.258 191.873 183.826C189.104 183.43 186.836 179.165 187.35 175.211C187.816 171.593 190.327 169.125 193.209 169.451C196.443 169.828 198.277 173.175 197.691 177.632Z" fill="#A9733D"/>
<path d="M185.372 142.765C178.63 147.82 172.65 154.188 177.705 160.93C182.76 167.671 192.323 169.039 199.065 163.984C205.807 158.929 207.174 149.367 202.119 142.625C197.064 135.884 192.113 137.71 185.372 142.765Z" fill="#A9733D"/>
<path d="M256.954 314.614C256.967 314.844 256.924 315.142 256.892 315.366C256.647 317.08 255.731 318.699 254.754 319.472C253.777 320.245 252.617 320.383 251.566 320.081C250.514 319.778 249.627 318.967 248.795 318.087C248.008 317.214 247.187 316.26 246.753 314.829C246.502 314.032 246.361 313.099 246.4 312.192C246.603 309.179 248.847 307.522 250.451 307.143C252.346 306.653 253.993 307.573 255.333 309.362C255.874 310.048 256.348 310.876 256.657 311.909C256.897 312.78 256.992 313.707 256.954 314.614Z" fill="#A9733D"/>
<path d="M261.203 299.248C262.97 299.653 264.64 300.729 266.057 302.301C266.529 302.824 266.946 303.417 267.087 304.35C267.229 305.587 266.703 307.033 265.994 307.845C264.465 309.604 261.977 309.781 260.368 309.551C258.391 309.344 256.631 308.256 255.157 306.447C253.378 304.215 253.915 301.097 256.329 299.845C257.953 299.012 259.66 298.875 261.203 299.248Z" fill="#A9733D"/>
<path d="M258.337 296.33C258.158 296.304 258.024 296.285 257.845 296.26C256.749 295.951 255.707 295.269 254.73 294.445C254.326 294.083 253.932 293.646 253.649 293.073C253.06 291.772 253.348 289.759 254.233 288.669C255.185 287.435 256.432 287.005 257.58 286.637C259.385 286.134 261.217 286.396 262.809 287.384C263.807 288.06 264.762 289.033 265.264 290.626C265.356 290.944 265.447 291.261 265.449 291.565C265.441 291.945 265.353 292.236 265.21 292.596C264.816 293.757 264.108 294.569 263.397 295.075C262.686 295.582 261.917 295.853 261.159 296.049C260.178 296.213 259.276 296.464 258.337 296.33Z" fill="#A9733D"/>
<path d="M243.893 314.42C243.394 318.228 241.41 320.302 238.728 319.918C236.27 319.567 234.257 315.78 234.713 312.271C235.127 309.059 237.356 306.868 239.914 307.158C242.785 307.492 244.413 310.463 243.893 314.42Z" fill="#A9733D"/>
<path d="M232.957 283.469C226.972 287.956 221.664 293.609 226.151 299.594C230.639 305.578 239.128 306.792 245.113 302.305C251.098 297.818 252.312 289.329 247.824 283.345C243.337 277.36 238.942 278.982 232.957 283.469Z" fill="#A9733D"/>
<path d="M328.452 309.385C328.465 309.615 328.422 309.913 328.39 310.137C328.145 311.851 327.229 313.47 326.252 314.243C325.275 315.016 324.115 315.154 323.064 314.852C322.012 314.549 321.125 313.738 320.293 312.858C319.506 311.985 318.685 311.031 318.251 309.6C318 308.803 317.86 307.87 317.898 306.963C318.101 303.95 320.345 302.293 321.949 301.914C323.844 301.424 325.491 302.344 326.831 304.133C327.372 304.819 327.846 305.647 328.155 306.68C328.395 307.551 328.49 308.478 328.452 309.385Z" fill="#A9733D"/>
<path d="M332.701 294.02C334.468 294.424 336.138 295.5 337.555 297.072C338.028 297.596 338.445 298.188 338.585 299.121C338.727 300.358 338.201 301.805 337.492 302.616C335.963 304.375 333.475 304.552 331.866 304.322C329.889 304.115 328.129 303.027 326.655 301.219C324.876 298.986 325.413 295.868 327.827 294.616C329.451 293.783 331.158 293.647 332.701 294.02Z" fill="#A9733D"/>
<path d="M329.835 291.101C329.656 291.075 329.522 291.056 329.343 291.03C328.247 290.721 327.205 290.04 326.228 289.216C325.824 288.854 325.43 288.417 325.147 287.844C324.558 286.543 324.846 284.53 325.731 283.439C326.683 282.206 327.93 281.776 329.078 281.407C330.883 280.905 332.715 281.167 334.307 282.155C335.305 282.83 336.26 283.804 336.762 285.397C336.854 285.714 336.945 286.032 336.947 286.336C336.939 286.715 336.851 287.007 336.709 287.367C336.315 288.528 335.606 289.339 334.895 289.846C334.184 290.353 333.415 290.624 332.657 290.82C331.676 290.984 330.774 291.235 329.835 291.101Z" fill="#A9733D"/>
<path d="M315.39 309.191C314.891 312.999 312.907 315.073 310.225 314.69C307.767 314.338 305.755 310.552 306.211 307.042C306.625 303.831 308.854 301.639 311.412 301.929C314.283 302.264 315.91 305.234 315.39 309.191Z" fill="#A9733D"/>
<path d="M304.455 278.239C298.47 282.727 293.162 288.38 297.649 294.365C302.137 300.349 310.626 301.563 316.611 297.076C322.596 292.589 323.81 284.1 319.322 278.116C314.835 272.131 310.44 273.752 304.455 278.239Z" fill="#A9733D"/>
<path d="M314.831 375.853C314.843 376.077 314.802 376.368 314.771 376.586C314.531 378.258 313.639 379.836 312.686 380.59C311.733 381.344 310.601 381.479 309.576 381.184C308.551 380.889 307.686 380.097 306.874 379.24C306.106 378.388 305.305 377.458 304.882 376.062C304.638 375.285 304.501 374.375 304.538 373.491C304.736 370.552 306.924 368.936 308.489 368.566C310.337 368.089 311.943 368.986 313.25 370.731C313.777 371.4 314.24 372.208 314.541 373.215C314.775 374.064 314.868 374.968 314.831 375.853Z" fill="#A9733D"/>
<path d="M318.975 360.868C320.698 361.263 322.327 362.312 323.709 363.845C324.169 364.356 324.576 364.933 324.713 365.843C324.852 367.05 324.339 368.46 323.647 369.251C322.156 370.967 319.73 371.139 318.161 370.915C316.233 370.714 314.516 369.652 313.078 367.889C311.344 365.712 311.867 362.671 314.221 361.449C315.805 360.637 317.47 360.504 318.975 360.868Z" fill="#A9733D"/>
<path d="M316.179 358.022C316.005 357.997 315.874 357.978 315.7 357.953C314.631 357.652 313.614 356.987 312.662 356.183C312.267 355.83 311.883 355.404 311.607 354.846C311.033 353.577 311.313 351.614 312.177 350.55C313.105 349.347 314.322 348.928 315.441 348.569C317.201 348.078 318.988 348.334 320.54 349.298C321.514 349.956 322.445 350.906 322.935 352.459C323.024 352.769 323.113 353.078 323.115 353.375C323.107 353.745 323.022 354.03 322.882 354.381C322.498 355.513 321.807 356.304 321.113 356.798C320.42 357.293 319.671 357.557 318.932 357.748C317.975 357.908 317.095 358.153 316.179 358.022Z" fill="#A9733D"/>
<path d="M302.093 375.664C301.606 379.377 299.671 381.4 297.056 381.026C294.659 380.683 292.696 376.99 293.141 373.568C293.544 370.436 295.718 368.299 298.213 368.581C301.013 368.907 302.6 371.805 302.093 375.664Z" fill="#A9733D"/>
<path d="M291.428 345.479C285.591 349.854 280.415 355.368 284.791 361.204C289.167 367.04 297.446 368.224 303.283 363.848C309.119 359.472 310.303 351.194 305.927 345.358C301.551 339.521 297.265 341.103 291.428 345.479Z" fill="#A9733D"/>
<path d="M383.234 372.372C383.246 372.584 383.206 372.859 383.177 373.065C382.951 374.647 382.106 376.14 381.204 376.853C380.303 377.567 379.233 377.694 378.263 377.415C377.293 377.136 376.474 376.388 375.707 375.576C374.98 374.77 374.222 373.89 373.822 372.57C373.591 371.835 373.461 370.974 373.497 370.137C373.684 367.357 375.754 365.828 377.235 365.479C378.982 365.027 380.502 365.876 381.739 367.526C382.237 368.159 382.675 368.923 382.96 369.876C383.181 370.68 383.269 371.535 383.234 372.372Z" fill="#A9733D"/>
<path d="M387.155 358.195C388.785 358.569 390.326 359.561 391.633 361.011C392.069 361.495 392.454 362.041 392.583 362.902C392.715 364.043 392.229 365.378 391.575 366.126C390.165 367.749 387.869 367.913 386.385 367.7C384.561 367.51 382.937 366.505 381.577 364.837C379.935 362.778 380.431 359.901 382.658 358.745C384.157 357.977 385.731 357.851 387.155 358.195Z" fill="#A9733D"/>
<path d="M384.51 355.503C384.345 355.479 384.222 355.461 384.057 355.438C383.046 355.153 382.084 354.524 381.182 353.764C380.809 353.43 380.446 353.027 380.185 352.498C379.642 351.297 379.907 349.44 380.724 348.434C381.602 347.297 382.753 346.9 383.812 346.56C385.477 346.096 387.168 346.338 388.636 347.249C389.557 347.872 390.438 348.771 390.901 350.24C390.986 350.533 391.07 350.826 391.072 351.107C391.064 351.457 390.984 351.726 390.852 352.058C390.488 353.129 389.834 353.878 389.178 354.345C388.522 354.813 387.813 355.063 387.114 355.243C386.209 355.395 385.376 355.627 384.51 355.503Z" fill="#A9733D"/>
<path d="M371.183 372.193C370.723 375.706 368.892 377.62 366.418 377.266C364.15 376.942 362.293 373.448 362.714 370.21C363.096 367.247 365.153 365.226 367.513 365.493C370.162 365.801 371.663 368.542 371.183 372.193Z" fill="#A9733D"/>
<path d="M361.094 343.637C355.572 347.776 350.675 352.993 354.815 358.514C358.955 364.035 366.787 365.155 372.309 361.015C377.83 356.876 378.95 349.044 374.81 343.522C370.67 338.001 366.615 339.497 361.094 343.637Z" fill="#A9733D"/>
<path d="M364.415 438.316C364.427 438.523 364.388 438.792 364.359 438.993C364.138 440.539 363.313 441.998 362.432 442.694C361.552 443.391 360.506 443.516 359.559 443.243C358.611 442.971 357.811 442.239 357.061 441.446C356.352 440.659 355.611 439.799 355.22 438.509C354.994 437.791 354.868 436.951 354.902 436.133C355.085 433.417 357.107 431.923 358.554 431.582C360.262 431.14 361.746 431.97 362.954 433.582C363.442 434.2 363.869 434.947 364.147 435.878C364.364 436.663 364.45 437.498 364.415 438.316Z" fill="#A9733D"/>
<path d="M368.246 424.466C369.838 424.831 371.344 425.801 372.621 427.218C373.047 427.69 373.423 428.224 373.55 429.064C373.678 430.18 373.204 431.483 372.565 432.215C371.187 433.801 368.944 433.96 367.494 433.753C365.712 433.566 364.125 432.585 362.796 430.955C361.193 428.943 361.677 426.133 363.853 425.004C365.317 424.253 366.855 424.13 368.246 424.466Z" fill="#A9733D"/>
<path d="M365.662 421.835C365.501 421.812 365.38 421.795 365.219 421.772C364.231 421.493 363.291 420.879 362.411 420.136C362.047 419.81 361.692 419.416 361.437 418.9C360.906 417.727 361.165 415.912 361.963 414.93C362.821 413.818 363.945 413.43 364.98 413.098C366.607 412.645 368.258 412.881 369.693 413.772C370.593 414.381 371.454 415.258 371.906 416.694C371.989 416.98 372.071 417.266 372.073 417.541C372.065 417.882 371.986 418.145 371.858 418.47C371.503 419.516 370.864 420.248 370.223 420.705C369.582 421.161 368.889 421.405 368.206 421.582C367.322 421.73 366.508 421.956 365.662 421.835Z" fill="#A9733D"/>
<path d="M352.642 438.141C352.192 441.574 350.404 443.443 347.987 443.098C345.771 442.781 343.957 439.368 344.368 436.204C344.741 433.31 346.75 431.334 349.056 431.596C351.644 431.897 353.111 434.575 352.642 438.141Z" fill="#A9733D"/>
<path d="M342.785 410.242C337.39 414.287 332.606 419.383 336.65 424.777C340.695 430.171 348.347 431.265 353.742 427.221C359.136 423.176 360.23 415.525 356.186 410.131C352.141 404.736 348.179 406.198 342.785 410.242Z" fill="#A9733D"/>
<path d="M423.473 440.597C423.483 440.778 423.45 441.012 423.425 441.188C423.232 442.536 422.512 443.808 421.744 444.416C420.976 445.023 420.064 445.132 419.238 444.894C418.412 444.657 417.714 444.019 417.06 443.327C416.442 442.641 415.796 441.891 415.455 440.766C415.258 440.14 415.148 439.407 415.178 438.693C415.337 436.324 417.101 435.022 418.362 434.724C419.851 434.339 421.146 435.062 422.2 436.469C422.624 437.008 422.997 437.659 423.24 438.471C423.428 439.156 423.504 439.884 423.473 440.597Z" fill="#A9733D"/>
<path d="M426.814 428.519C428.202 428.837 429.515 429.682 430.629 430.918C431 431.33 431.328 431.795 431.438 432.528C431.55 433.501 431.137 434.638 430.579 435.275C429.378 436.658 427.422 436.797 426.158 436.616C424.603 436.454 423.22 435.598 422.061 434.177C420.663 432.423 421.085 429.972 422.983 428.987C424.259 428.333 425.601 428.226 426.814 428.519Z" fill="#A9733D"/>
<path d="M424.561 426.225C424.42 426.205 424.315 426.19 424.174 426.169C423.313 425.927 422.493 425.391 421.726 424.743C421.408 424.458 421.098 424.115 420.876 423.665C420.413 422.642 420.639 421.06 421.335 420.203C422.083 419.234 423.064 418.895 423.965 418.606C425.384 418.211 426.824 418.417 428.076 419.194C428.86 419.724 429.611 420.489 430.005 421.742C430.077 421.991 430.149 422.24 430.151 422.48C430.144 422.778 430.075 423.007 429.963 423.29C429.654 424.202 429.096 424.84 428.537 425.239C427.979 425.637 427.375 425.85 426.779 426.004C426.008 426.133 425.298 426.33 424.561 426.225Z" fill="#A9733D"/>
<path d="M413.206 440.444C412.814 443.437 411.255 445.068 409.147 444.767C407.215 444.49 405.633 441.514 405.991 438.755C406.317 436.23 408.069 434.508 410.079 434.735C412.336 434.998 413.615 437.334 413.206 440.444Z" fill="#A9733D"/>
<path d="M404.61 416.115C399.906 419.642 395.733 424.086 399.26 428.79C402.788 433.494 409.461 434.448 414.165 430.921C418.869 427.394 419.824 420.721 416.296 416.017C412.769 411.313 409.314 412.588 404.61 416.115Z" fill="#A9733D"/>
<path d="M399.278 488.522C399.287 488.695 399.255 488.919 399.231 489.087C399.047 490.375 398.359 491.591 397.626 492.172C396.892 492.753 396.02 492.857 395.23 492.629C394.441 492.402 393.774 491.793 393.149 491.132C392.558 490.476 391.941 489.759 391.615 488.684C391.427 488.086 391.321 487.385 391.35 486.703C391.503 484.439 393.188 483.195 394.394 482.91C395.817 482.542 397.054 483.233 398.061 484.577C398.467 485.092 398.823 485.715 399.055 486.491C399.235 487.145 399.307 487.841 399.278 488.522Z" fill="#A9733D"/>
<path d="M402.47 476.98C403.797 477.284 405.052 478.092 406.116 479.273C406.471 479.667 406.784 480.111 406.89 480.812C406.997 481.742 406.602 482.828 406.069 483.438C404.921 484.759 403.052 484.892 401.843 484.719C400.358 484.564 399.036 483.746 397.928 482.388C396.592 480.711 396.996 478.369 398.809 477.428C400.029 476.803 401.311 476.7 402.47 476.98Z" fill="#A9733D"/>
<path d="M400.318 474.788C400.183 474.769 400.083 474.754 399.948 474.735C399.125 474.503 398.342 473.991 397.608 473.372C397.304 473.1 397.009 472.772 396.796 472.342C396.354 471.364 396.57 469.852 397.235 469.033C397.95 468.107 398.887 467.784 399.749 467.507C401.105 467.129 402.481 467.326 403.677 468.068C404.426 468.576 405.144 469.307 405.521 470.503C405.59 470.742 405.658 470.98 405.66 471.209C405.653 471.494 405.588 471.713 405.481 471.983C405.185 472.855 404.652 473.465 404.118 473.846C403.584 474.226 403.007 474.43 402.438 474.577C401.701 474.7 401.023 474.889 400.318 474.788Z" fill="#A9733D"/>
<path d="M389.466 488.377C389.091 491.238 387.601 492.796 385.586 492.508C383.74 492.244 382.228 489.399 382.571 486.763C382.882 484.35 384.556 482.704 386.478 482.921C388.634 483.172 389.857 485.404 389.466 488.377Z" fill="#A9733D"/>
<path d="M381.251 465.126C376.755 468.497 372.768 472.744 376.139 477.24C379.51 481.735 385.887 482.647 390.383 479.276C394.878 475.906 395.79 469.529 392.419 465.033C389.049 460.538 385.747 461.756 381.251 465.126Z" fill="#A9733D"/>
<path d="M435.601 546.996C435.61 547.158 435.58 547.368 435.558 547.526C435.385 548.734 434.74 549.874 434.052 550.419C433.363 550.963 432.546 551.061 431.806 550.848C431.065 550.635 430.44 550.063 429.854 549.443C429.299 548.828 428.721 548.156 428.415 547.147C428.238 546.586 428.139 545.929 428.167 545.29C428.31 543.167 429.89 541.999 431.021 541.732C432.355 541.387 433.516 542.036 434.46 543.296C434.841 543.779 435.175 544.363 435.392 545.091C435.561 545.704 435.629 546.357 435.601 546.996Z" fill="#A9733D"/>
<path d="M438.595 536.171C439.839 536.456 441.016 537.214 442.014 538.321C442.347 538.69 442.641 539.107 442.74 539.765C442.84 540.636 442.469 541.655 441.97 542.227C440.893 543.466 439.14 543.591 438.007 543.429C436.614 543.283 435.374 542.516 434.336 541.242C433.083 539.67 433.461 537.473 435.161 536.591C436.306 536.004 437.508 535.908 438.595 536.171Z" fill="#A9733D"/>
<path d="M436.575 534.115C436.45 534.097 436.355 534.084 436.229 534.066C435.457 533.848 434.722 533.368 434.034 532.787C433.75 532.532 433.472 532.225 433.273 531.821C432.858 530.904 433.061 529.486 433.685 528.718C434.355 527.849 435.234 527.546 436.042 527.287C437.313 526.933 438.604 527.117 439.726 527.814C440.429 528.289 441.102 528.975 441.455 530.097C441.52 530.321 441.584 530.544 441.586 530.759C441.58 531.026 441.518 531.232 441.418 531.485C441.14 532.303 440.641 532.875 440.14 533.232C439.639 533.589 439.097 533.779 438.564 533.917C437.872 534.033 437.237 534.21 436.575 534.115Z" fill="#A9733D"/>
<path d="M426.4 546.859C426.048 549.542 424.65 551.003 422.761 550.733C421.03 550.486 419.612 547.818 419.933 545.345C420.225 543.083 421.795 541.539 423.597 541.743C425.62 541.978 426.766 544.072 426.4 546.859Z" fill="#A9733D"/>
<path d="M418.695 525.054C414.479 528.215 410.739 532.198 413.9 536.414C417.062 540.63 423.042 541.485 427.259 538.324C431.475 535.163 432.33 529.183 429.169 524.967C426.008 520.751 422.911 521.893 418.695 525.054Z" fill="#A9733D"/>
<path d="M464.186 501.466C464.195 501.628 464.165 501.838 464.142 501.996C463.97 503.204 463.325 504.344 462.636 504.889C461.948 505.433 461.131 505.531 460.39 505.318C459.649 505.105 459.024 504.533 458.438 503.913C457.884 503.298 457.305 502.626 457 501.618C456.823 501.057 456.724 500.399 456.751 499.76C456.894 497.637 458.475 496.47 459.605 496.203C460.94 495.858 462.1 496.506 463.044 497.766C463.425 498.249 463.759 498.833 463.977 499.561C464.146 500.174 464.213 500.827 464.186 501.466Z" fill="#A9733D"/>
<path d="M467.18 490.641C468.425 490.926 469.602 491.684 470.6 492.791C470.933 493.161 471.226 493.578 471.325 494.235C471.425 495.107 471.055 496.125 470.555 496.697C469.479 497.936 467.726 498.061 466.592 497.899C465.2 497.753 463.96 496.987 462.921 495.713C461.668 494.14 462.046 491.944 463.747 491.061C464.891 490.475 466.093 490.379 467.18 490.641Z" fill="#A9733D"/>
<path d="M465.161 488.585C465.035 488.567 464.941 488.553 464.815 488.535C464.042 488.318 463.308 487.838 462.62 487.257C462.335 487.002 462.058 486.694 461.858 486.291C461.443 485.374 461.646 483.956 462.27 483.188C462.94 482.319 463.819 482.016 464.627 481.756C465.899 481.402 467.19 481.587 468.311 482.283C469.014 482.759 469.687 483.445 470.041 484.567C470.105 484.79 470.17 485.014 470.171 485.229C470.165 485.496 470.103 485.701 470.003 485.955C469.725 486.772 469.226 487.344 468.725 487.701C468.224 488.058 467.683 488.249 467.149 488.387C466.458 488.502 465.822 488.679 465.161 488.585Z" fill="#A9733D"/>
<path d="M454.985 501.33C454.634 504.012 453.236 505.474 451.347 505.204C449.615 504.956 448.197 502.288 448.519 499.816C448.81 497.553 450.38 496.009 452.183 496.213C454.205 496.449 455.352 498.542 454.985 501.33Z" fill="#A9733D"/>
<path d="M447.28 479.524C443.064 482.685 439.324 486.668 442.486 490.884C445.647 495.1 451.628 495.956 455.844 492.794C460.061 489.633 460.916 483.653 457.754 479.437C454.593 475.221 451.497 476.363 447.28 479.524Z" fill="#A9733D"/>
<path d="M486.7 569.474C486.708 569.617 486.681 569.801 486.661 569.94C486.509 571.003 485.942 572.007 485.336 572.486C484.73 572.965 484.011 573.051 483.359 572.863C482.708 572.676 482.157 572.173 481.642 571.627C481.154 571.086 480.644 570.495 480.376 569.607C480.22 569.113 480.133 568.535 480.157 567.973C480.283 566.104 481.674 565.077 482.669 564.842C483.843 564.538 484.864 565.109 485.695 566.218C486.03 566.643 486.324 567.157 486.515 567.797C486.664 568.337 486.724 568.911 486.7 569.474Z" fill="#A9733D"/>
<path d="M489.333 559.948C490.428 560.199 491.464 560.865 492.343 561.84C492.635 562.165 492.894 562.532 492.981 563.11C493.069 563.877 492.743 564.774 492.303 565.277C491.356 566.368 489.813 566.477 488.816 566.335C487.59 566.206 486.499 565.532 485.585 564.411C484.482 563.027 484.815 561.094 486.312 560.317C487.319 559.801 488.377 559.717 489.333 559.948Z" fill="#A9733D"/>
<path d="M487.557 558.138C487.446 558.123 487.363 558.111 487.252 558.095C486.573 557.903 485.926 557.481 485.321 556.97C485.07 556.745 484.826 556.475 484.651 556.119C484.286 555.313 484.464 554.065 485.013 553.389C485.603 552.624 486.376 552.358 487.088 552.129C488.207 551.818 489.343 551.98 490.329 552.593C490.948 553.011 491.54 553.615 491.852 554.602C491.908 554.799 491.965 554.996 491.966 555.185C491.961 555.42 491.907 555.601 491.818 555.824C491.574 556.543 491.134 557.047 490.694 557.361C490.253 557.675 489.777 557.843 489.307 557.964C488.698 558.066 488.139 558.222 487.557 558.138Z" fill="#A9733D"/>
<path d="M478.601 569.353C478.292 571.714 477.062 573 475.4 572.763C473.876 572.545 472.628 570.197 472.911 568.021C473.167 566.03 474.549 564.671 476.135 564.851C477.915 565.058 478.924 566.9 478.601 569.353Z" fill="#A9733D"/>
<path d="M471.822 550.164C468.112 552.946 464.821 556.451 467.603 560.162C470.385 563.872 475.648 564.624 479.358 561.843C483.069 559.061 483.821 553.798 481.039 550.088C478.257 546.377 475.533 547.383 471.822 550.164Z" fill="#A9733D"/>
<path d="M498.332 619.481C498.339 619.591 498.318 619.734 498.303 619.841C498.185 620.662 497.747 621.437 497.279 621.807C496.811 622.178 496.256 622.244 495.753 622.099C495.249 621.954 494.824 621.566 494.426 621.144C494.049 620.726 493.656 620.269 493.448 619.584C493.328 619.203 493.261 618.756 493.279 618.322C493.376 616.879 494.451 616.085 495.219 615.904C496.126 615.669 496.915 616.11 497.557 616.966C497.815 617.295 498.043 617.691 498.19 618.186C498.305 618.603 498.351 619.047 498.332 619.481Z" fill="#A9733D"/>
<path d="M500.367 612.124C501.213 612.318 502.013 612.833 502.691 613.585C502.918 613.836 503.117 614.12 503.184 614.566C503.253 615.159 503.001 615.851 502.661 616.24C501.929 617.082 500.738 617.167 499.968 617.057C499.021 616.958 498.178 616.437 497.472 615.571C496.621 614.502 496.878 613.009 498.034 612.409C498.811 612.011 499.629 611.945 500.367 612.124Z" fill="#A9733D"/>
<path d="M498.995 610.726C498.909 610.714 498.845 610.705 498.759 610.693C498.235 610.545 497.735 610.218 497.268 609.824C497.074 609.65 496.886 609.441 496.75 609.167C496.468 608.544 496.606 607.58 497.03 607.058C497.486 606.468 498.083 606.262 498.632 606.085C499.496 605.845 500.374 605.97 501.136 606.443C501.614 606.767 502.071 607.233 502.311 607.995C502.355 608.147 502.399 608.299 502.4 608.445C502.396 608.627 502.354 608.766 502.286 608.939C502.097 609.495 501.758 609.883 501.417 610.126C501.077 610.368 500.709 610.498 500.346 610.592C499.876 610.67 499.444 610.791 498.995 610.726Z" fill="#A9733D"/>
<path d="M492.079 619.388C491.84 621.212 490.89 622.205 489.606 622.022C488.429 621.853 487.465 620.04 487.684 618.359C487.882 616.822 488.949 615.772 490.174 615.911C491.549 616.071 492.328 617.494 492.079 619.388Z" fill="#A9733D"/>
<path d="M486.842 604.568C483.976 606.717 481.435 609.424 483.583 612.289C485.732 615.155 489.797 615.736 492.663 613.588C495.528 611.439 496.11 607.374 493.961 604.509C491.812 601.643 489.708 602.42 486.842 604.568Z" fill="#A9733D"/>
<path d="M462.429 592.994C462.436 593.126 462.411 593.298 462.393 593.426C462.252 594.411 461.726 595.341 461.165 595.785C460.604 596.229 459.937 596.309 459.334 596.135C458.73 595.961 458.22 595.495 457.742 594.99C457.29 594.488 456.818 593.94 456.569 593.118C456.425 592.66 456.344 592.124 456.366 591.603C456.483 589.872 457.772 588.92 458.694 588.703C459.782 588.421 460.728 588.95 461.498 589.977C461.808 590.371 462.081 590.847 462.258 591.441C462.396 591.941 462.451 592.473 462.429 592.994Z" fill="#A9733D"/>
<path d="M464.869 584.168C465.884 584.401 466.843 585.018 467.657 585.921C467.929 586.222 468.168 586.562 468.249 587.098C468.331 587.809 468.028 588.64 467.621 589.106C466.743 590.116 465.314 590.218 464.39 590.086C463.254 589.967 462.243 589.342 461.396 588.303C460.375 587.021 460.683 585.23 462.07 584.511C463.003 584.032 463.983 583.954 464.869 584.168Z" fill="#A9733D"/>
<path d="M463.223 582.492C463.12 582.477 463.043 582.466 462.941 582.451C462.311 582.274 461.712 581.882 461.151 581.409C460.919 581.201 460.693 580.95 460.53 580.621C460.192 579.873 460.357 578.717 460.866 578.091C461.413 577.383 462.129 577.135 462.788 576.924C463.825 576.635 464.877 576.786 465.792 577.353C466.365 577.741 466.914 578.3 467.202 579.215C467.255 579.398 467.307 579.58 467.308 579.755C467.303 579.973 467.253 580.14 467.171 580.347C466.945 581.014 466.538 581.48 466.129 581.771C465.721 582.062 465.28 582.218 464.844 582.33C464.281 582.424 463.762 582.569 463.223 582.492Z" fill="#A9733D"/>
<path d="M454.925 592.883C454.639 595.07 453.499 596.262 451.959 596.042C450.547 595.84 449.391 593.664 449.653 591.648C449.89 589.803 451.171 588.544 452.64 588.711C454.289 588.903 455.224 590.61 454.925 592.883Z" fill="#A9733D"/>
<path d="M448.644 575.104C445.206 577.681 442.156 580.929 444.734 584.367C447.312 587.804 452.188 588.502 455.626 585.924C459.064 583.346 459.761 578.47 457.184 575.032C454.606 571.595 452.081 572.526 448.644 575.104Z" fill="#A9733D"/>
<path d="M478.915 639.388C478.92 639.48 478.903 639.6 478.89 639.69C478.791 640.379 478.423 641.03 478.03 641.341C477.638 641.652 477.171 641.707 476.749 641.586C476.326 641.464 475.969 641.138 475.635 640.784C475.318 640.433 474.988 640.05 474.814 639.474C474.713 639.154 474.656 638.779 474.672 638.414C474.753 637.203 475.655 636.536 476.301 636.384C477.062 636.187 477.724 636.557 478.263 637.276C478.481 637.552 478.671 637.885 478.795 638.3C478.892 638.651 478.93 639.023 478.915 639.388Z" fill="#A9733D"/>
<path d="M480.623 633.21C481.334 633.373 482.005 633.805 482.575 634.437C482.765 634.648 482.932 634.886 482.989 635.261C483.046 635.758 482.835 636.34 482.55 636.666C481.935 637.373 480.935 637.444 480.288 637.352C479.493 637.269 478.785 636.831 478.193 636.104C477.478 635.207 477.694 633.953 478.664 633.45C479.317 633.115 480.003 633.06 480.623 633.21Z" fill="#A9733D"/>
<path d="M479.471 632.037C479.399 632.027 479.345 632.019 479.273 632.009C478.833 631.885 478.413 631.611 478.021 631.279C477.858 631.134 477.7 630.958 477.586 630.728C477.349 630.205 477.465 629.395 477.821 628.957C478.204 628.461 478.705 628.288 479.166 628.14C479.892 627.938 480.629 628.043 481.269 628.441C481.67 628.712 482.054 629.103 482.256 629.744C482.292 629.872 482.329 629.999 482.33 630.122C482.327 630.274 482.292 630.391 482.234 630.536C482.076 631.003 481.791 631.329 481.505 631.533C481.219 631.736 480.91 631.845 480.605 631.924C480.211 631.99 479.848 632.091 479.471 632.037Z" fill="#A9733D"/>
<path d="M473.664 639.31C473.463 640.841 472.665 641.675 471.587 641.521C470.599 641.38 469.79 639.857 469.973 638.446C470.14 637.155 471.036 636.274 472.064 636.39C473.219 636.525 473.873 637.719 473.664 639.31Z" fill="#A9733D"/>
<path d="M469.267 626.866C466.861 628.67 464.726 630.943 466.531 633.349C468.335 635.755 471.748 636.243 474.154 634.439C476.56 632.635 477.048 629.222 475.244 626.816C473.44 624.41 471.673 625.062 469.267 626.866Z" fill="#A9733D"/>
</g>
</g>
</svg>
