<svg width="1920" height="856" viewBox="0 0 1920 856" fill="none" xmlns="http://www.w3.org/2000/svg">
<rect width="1920" height="856" fill="white"/>
<mask id="mask0_147_315" style="mask-type:alpha" maskUnits="userSpaceOnUse" x="0" y="0" width="1920" height="856">
<rect width="1920" height="856" fill="white"/>
</mask>
<g mask="url(#mask0_147_315)">
<g opacity="0.2">
<path d="M1856.69 159.9C1856.54 160.225 1856.44 160.679 1856.36 161.019C1855.75 163.629 1856.17 166.475 1857.15 168.136C1858.12 169.797 1859.72 170.645 1861.4 170.796C1863.09 170.947 1864.82 170.273 1866.51 169.469C1868.14 168.649 1869.86 167.732 1871.28 165.91C1872.09 164.902 1872.81 163.635 1873.26 162.305C1874.65 157.845 1872.34 154.201 1870.24 152.758C1867.78 150.993 1864.89 151.399 1861.96 153.231C1860.8 153.918 1859.65 154.848 1858.63 156.165C1857.79 157.287 1857.14 158.57 1856.69 159.9Z" fill="#A9733D"/>
<path d="M1859.14 135.362C1856.37 134.959 1853.36 135.577 1850.44 137.052C1849.46 137.544 1848.53 138.165 1847.81 139.432C1846.91 141.137 1846.86 143.517 1847.43 145.083C1848.65 148.475 1852.14 150.12 1854.59 150.687C1857.56 151.494 1860.7 150.907 1863.84 149.123C1867.65 146.898 1868.62 142.101 1865.84 138.946C1863.96 136.837 1861.58 135.687 1859.14 135.362Z" fill="#A9733D"/>
<path d="M1864.91 132.753C1865.18 132.816 1865.39 132.863 1865.66 132.926C1867.41 133.093 1869.3 132.693 1871.17 132.049C1871.95 131.753 1872.76 131.343 1873.49 130.675C1875.07 129.127 1875.78 126.064 1875.11 123.996C1874.43 121.686 1872.87 120.369 1871.42 119.196C1869.1 117.463 1866.31 116.817 1863.46 117.353C1861.64 117.769 1859.72 118.639 1858.1 120.656C1857.8 121.063 1857.49 121.469 1857.31 121.907C1857.11 122.459 1857.08 122.929 1857.08 123.527C1857 125.422 1857.57 126.988 1858.31 128.117C1859.05 129.245 1860.01 130.064 1861 130.77C1862.32 131.555 1863.48 132.422 1864.91 132.753Z" fill="#A9733D"/>
<path d="M1875.64 166.919C1874.23 172.69 1875.93 176.79 1880.01 177.736C1883.75 178.602 1888.77 174.265 1890.08 168.948C1891.27 164.084 1889.28 159.678 1885.43 158.666C1881.1 157.545 1877.1 160.92 1875.64 166.919Z" fill="#A9733D"/>
<path d="M1908.7 128.385C1914.83 138.202 1919.33 149.322 1909.51 155.447C1899.69 161.571 1886.77 158.579 1880.64 148.762C1874.52 138.946 1877.51 126.024 1887.33 119.899C1897.14 113.775 1902.58 118.569 1908.7 128.385Z" fill="#A9733D"/>
<path d="M1897.11 45.5399C1897.07 45.9072 1897.1 46.3899 1897.13 46.7519C1897.34 49.5271 1898.63 52.2223 1900.11 53.5688C1901.59 54.9153 1903.43 55.2645 1905.15 54.895C1906.87 54.5256 1908.38 53.3221 1909.81 52.0033C1911.17 50.6899 1912.59 49.2505 1913.44 47.0038C1913.93 45.7544 1914.26 44.2744 1914.3 42.8158C1914.3 37.9625 1910.89 35.0602 1908.36 34.2764C1905.38 33.2834 1902.63 34.5776 1900.29 37.2984C1899.35 38.3385 1898.5 39.6145 1897.89 41.2365C1897.41 42.6066 1897.15 44.0812 1897.11 45.5399Z" fill="#A9733D"/>
<path d="M1891.99 20.441C1889.11 20.8959 1886.31 22.4368 1883.87 24.801C1883.06 25.589 1882.32 26.4924 1881.99 27.9724C1881.63 29.9404 1882.32 32.3163 1883.36 33.6949C1885.62 36.6826 1889.59 37.2389 1892.19 37.0467C1895.39 36.9324 1898.33 35.3809 1900.89 32.644C1903.99 29.2612 1903.47 24.2039 1899.74 21.9316C1897.22 20.4185 1894.5 20.0128 1891.99 20.441Z" fill="#A9733D"/>
<path d="M1896.9 16.074C1897.19 16.0526 1897.41 16.0366 1897.7 16.0152C1899.49 15.6404 1901.24 14.6623 1902.89 13.4482C1903.58 12.9121 1904.26 12.2554 1904.78 11.368C1905.86 9.34664 1905.62 6.08872 1904.32 4.24353C1902.93 2.16235 1900.98 1.33586 1899.18 0.619362C1896.34 -0.384377 1893.38 -0.165457 1890.72 1.24408C1889.04 2.21688 1887.4 3.67234 1886.42 6.17105C1886.24 6.66972 1886.06 7.16839 1886.02 7.65639C1886 8.26505 1886.1 8.74237 1886.29 9.33501C1886.8 11.2389 1887.85 12.6175 1888.93 13.508C1890.01 14.3986 1891.22 14.9165 1892.41 15.3137C1893.96 15.6842 1895.38 16.1861 1896.9 16.074Z" fill="#A9733D"/>
<path d="M1918.08 46.663C1918.46 52.8222 1921.41 56.3652 1925.75 56.0448C1929.73 55.7512 1933.37 49.9016 1933.03 44.2251C1932.72 39.0312 1929.38 35.2735 1925.25 35.4572C1920.61 35.6783 1917.68 40.2625 1918.08 46.663Z" fill="#A9733D"/>
<path d="M1939 -1.75729C1948.1 6.09296 1955.99 15.7391 1948.14 24.8404C1940.29 33.9418 1926.55 34.956 1917.45 27.1057C1908.35 19.2555 1907.33 5.51351 1915.18 -3.58783C1923.03 -12.6892 1929.9 -9.60755 1939 -1.75729Z" fill="#A9733D"/>
<path d="M1785.97 85.7808C1785.92 86.139 1785.96 86.6096 1785.98 86.9625C1786.18 89.6684 1787.44 92.2962 1788.89 93.6091C1790.33 94.9219 1792.13 95.2624 1793.8 94.9021C1795.48 94.5419 1796.95 93.3685 1798.35 92.0827C1799.67 90.8021 1801.06 89.3987 1801.89 87.2081C1802.37 85.99 1802.69 84.547 1802.72 83.1248C1802.73 78.3929 1799.4 75.5631 1796.93 74.799C1794.02 73.8307 1791.35 75.0926 1789.06 77.7454C1788.14 78.7595 1787.31 80.0036 1786.72 81.5851C1786.25 82.9209 1786 84.3587 1785.97 85.7808Z" fill="#A9733D"/>
<path d="M1780.97 61.3093C1778.16 61.7528 1775.44 63.2552 1773.05 65.5602C1772.26 66.3286 1771.55 67.2094 1771.23 68.6524C1770.87 70.5712 1771.54 72.8877 1772.56 74.2318C1774.76 77.1449 1778.63 77.6873 1781.17 77.4999C1784.28 77.3884 1787.15 75.8757 1789.65 73.2072C1792.67 69.9089 1792.16 64.9781 1788.52 62.7626C1786.07 61.2874 1783.42 60.8918 1780.97 61.3093Z" fill="#A9733D"/>
<path d="M1785.76 57.0519C1786.04 57.0311 1786.25 57.0155 1786.54 56.9947C1788.28 56.6292 1789.99 55.6755 1791.6 54.4918C1792.27 53.9691 1792.93 53.3288 1793.44 52.4636C1794.5 50.4928 1794.26 47.3163 1792.99 45.5172C1791.64 43.4881 1789.74 42.6823 1787.98 41.9837C1785.21 41.005 1782.32 41.2185 1779.73 42.5928C1778.1 43.5413 1776.5 44.9603 1775.54 47.3966C1775.37 47.8828 1775.19 48.369 1775.15 48.8448C1775.13 49.4382 1775.23 49.9036 1775.42 50.4814C1775.91 52.3378 1776.93 53.6818 1777.99 54.5501C1779.04 55.4184 1780.22 55.9234 1781.38 56.3107C1782.9 56.6719 1784.28 57.1613 1785.76 57.0519Z" fill="#A9733D"/>
<path d="M1806.4 86.8758C1806.78 92.881 1809.65 96.3355 1813.89 96.0231C1817.77 95.7368 1821.32 90.0335 1820.98 84.4988C1820.68 79.4348 1817.43 75.7711 1813.4 75.9502C1808.87 76.1657 1806.01 80.6353 1806.4 86.8758Z" fill="#A9733D"/>
<path d="M1826.81 39.6668C1835.68 47.3208 1843.37 56.7258 1835.72 65.5996C1828.06 74.4734 1814.67 75.4623 1805.79 67.8083C1796.92 60.1543 1795.93 46.7558 1803.58 37.882C1811.24 29.0082 1817.93 32.0128 1826.81 39.6668Z" fill="#A9733D"/>
<path d="M1773.79 194.804C1773.75 195.14 1773.78 195.581 1773.8 195.912C1773.99 198.448 1775.17 200.911 1776.52 202.141C1777.88 203.371 1779.56 203.691 1781.13 203.353C1782.7 203.015 1784.08 201.916 1785.39 200.711C1786.63 199.51 1787.93 198.195 1788.71 196.142C1789.16 195 1789.46 193.648 1789.49 192.315C1789.5 187.88 1786.37 185.228 1784.06 184.512C1781.34 183.604 1778.83 184.787 1776.69 187.273C1775.83 188.224 1775.05 189.39 1774.49 190.872C1774.05 192.124 1773.82 193.471 1773.79 194.804Z" fill="#A9733D"/>
<path d="M1769.1 171.869C1766.47 172.284 1763.92 173.692 1761.69 175.853C1760.94 176.573 1760.27 177.399 1759.97 178.751C1759.64 180.549 1760.27 182.72 1761.22 183.98C1763.29 186.71 1766.91 187.219 1769.29 187.043C1772.21 186.939 1774.9 185.521 1777.24 183.02C1780.07 179.929 1779.59 175.307 1776.18 173.231C1773.89 171.848 1771.4 171.477 1769.1 171.869Z" fill="#A9733D"/>
<path d="M1773.59 167.878C1773.86 167.859 1774.06 167.844 1774.32 167.825C1775.96 167.482 1777.55 166.588 1779.07 165.479C1779.7 164.989 1780.32 164.389 1780.79 163.578C1781.78 161.731 1781.56 158.754 1780.37 157.068C1779.1 155.166 1777.32 154.411 1775.68 153.756C1773.08 152.839 1770.37 153.039 1767.94 154.327C1766.41 155.216 1764.91 156.546 1764.02 158.829C1763.85 159.285 1763.69 159.741 1763.65 160.186C1763.63 160.743 1763.73 161.179 1763.9 161.72C1764.36 163.46 1765.32 164.72 1766.31 165.534C1767.3 166.347 1768.4 166.821 1769.49 167.184C1770.91 167.522 1772.21 167.981 1773.59 167.878Z" fill="#A9733D"/>
<path d="M1792.94 195.83C1793.29 201.459 1795.99 204.696 1799.96 204.404C1803.59 204.135 1806.92 198.79 1806.6 193.603C1806.32 188.856 1803.27 185.423 1799.5 185.591C1795.26 185.793 1792.58 189.982 1792.94 195.83Z" fill="#A9733D"/>
<path d="M1812.06 151.585C1820.38 158.758 1827.59 167.573 1820.42 175.89C1813.24 184.207 1800.69 185.133 1792.37 177.96C1784.05 170.786 1783.12 158.229 1790.3 149.912C1797.47 141.595 1803.75 144.411 1812.06 151.585Z" fill="#A9733D"/>
<path d="M1623.64 165.129C1623.55 165.403 1623.51 165.777 1623.47 166.058C1623.22 168.211 1623.8 170.465 1624.73 171.717C1625.66 172.968 1627.02 173.512 1628.39 173.487C1629.76 173.461 1631.09 172.768 1632.39 171.973C1633.62 171.172 1634.92 170.285 1635.91 168.694C1636.47 167.812 1636.95 166.73 1637.19 165.62C1637.92 161.909 1635.75 159.178 1633.93 158.2C1631.8 156.994 1629.51 157.573 1627.31 159.302C1626.43 159.956 1625.59 160.804 1624.88 161.954C1624.31 162.929 1623.89 164.019 1623.64 165.129Z" fill="#A9733D"/>
<path d="M1623.48 145.168C1621.22 145.085 1618.85 145.845 1616.62 147.286C1615.88 147.767 1615.19 148.348 1614.71 149.431C1614.14 150.881 1614.31 152.8 1614.9 154.011C1616.18 156.634 1619.13 157.654 1621.15 157.898C1623.61 158.288 1626.09 157.542 1628.46 155.833C1631.34 153.71 1631.7 149.765 1629.18 147.469C1627.49 145.935 1625.47 145.217 1623.48 145.168Z" fill="#A9733D"/>
<path d="M1627.9 142.566C1628.12 142.593 1628.29 142.614 1628.51 142.641C1629.94 142.622 1631.42 142.136 1632.87 141.455C1633.48 141.148 1634.09 140.748 1634.62 140.147C1635.76 138.764 1636.06 136.236 1635.34 134.63C1634.59 132.83 1633.22 131.905 1631.95 131.088C1629.93 129.895 1627.63 129.618 1625.39 130.298C1623.96 130.791 1622.49 131.659 1621.37 133.423C1621.15 133.777 1620.94 134.131 1620.84 134.499C1620.73 134.96 1620.74 135.341 1620.79 135.823C1620.89 137.355 1621.49 138.566 1622.18 139.409C1622.88 140.253 1623.72 140.829 1624.57 141.312C1625.71 141.828 1626.72 142.424 1627.9 142.566Z" fill="#A9733D"/>
<path d="M1639.5 169.127C1638.87 173.894 1640.6 177.046 1643.97 177.451C1647.06 177.823 1650.72 173.895 1651.3 169.502C1651.84 165.484 1649.86 162.111 1646.67 161.633C1643.09 161.107 1640.16 164.173 1639.5 169.127Z" fill="#A9733D"/>
<path d="M1662.76 135.236C1668.54 142.602 1673.13 151.16 1665.76 156.944C1658.4 162.728 1647.74 161.445 1641.95 154.078C1636.17 146.712 1637.45 136.052 1644.82 130.268C1652.18 124.484 1656.97 127.869 1662.76 135.236Z" fill="#A9733D"/>
<path d="M1691.24 214.415C1691.15 214.689 1691.1 215.063 1691.07 215.344C1690.81 217.497 1691.39 219.751 1692.32 221.003C1693.25 222.254 1694.61 222.798 1695.98 222.772C1697.35 222.747 1698.69 222.054 1699.98 221.259C1701.21 220.458 1702.52 219.571 1703.51 217.98C1704.07 217.098 1704.54 216.015 1704.79 214.906C1705.52 211.195 1703.34 208.464 1701.52 207.486C1699.39 206.28 1697.1 206.859 1694.9 208.588C1694.02 209.242 1693.18 210.09 1692.47 211.24C1691.9 212.215 1691.48 213.305 1691.24 214.415Z" fill="#A9733D"/>
<path d="M1691.08 194.453C1688.81 194.37 1686.44 195.13 1684.22 196.571C1683.47 197.052 1682.78 197.633 1682.31 198.716C1681.73 200.166 1681.9 202.085 1682.5 203.296C1683.77 205.919 1686.73 206.939 1688.75 207.182C1691.2 207.573 1693.69 206.827 1696.06 205.118C1698.93 202.995 1699.29 199.05 1696.78 196.754C1695.08 195.22 1693.06 194.502 1691.08 194.453Z" fill="#A9733D"/>
<path d="M1695.49 191.852C1695.71 191.879 1695.88 191.899 1696.11 191.926C1697.53 191.908 1699.01 191.421 1700.46 190.741C1701.07 190.434 1701.69 190.034 1702.21 189.432C1703.35 188.049 1703.65 185.522 1702.94 183.916C1702.18 182.116 1700.82 181.191 1699.55 180.374C1697.53 179.181 1695.23 178.904 1692.98 179.583C1691.55 180.077 1690.08 180.944 1688.96 182.708C1688.75 183.063 1688.53 183.417 1688.43 183.785C1688.32 184.246 1688.33 184.627 1688.39 185.109C1688.49 186.64 1689.08 187.852 1689.78 188.695C1690.47 189.539 1691.31 190.115 1692.17 190.597C1693.3 191.114 1694.31 191.71 1695.49 191.852Z" fill="#A9733D"/>
<path d="M1707.1 218.412C1706.47 223.179 1708.19 226.331 1711.56 226.736C1714.65 227.108 1718.31 223.18 1718.9 218.788C1719.44 214.769 1717.45 211.397 1714.26 210.918C1710.68 210.392 1707.75 213.458 1707.1 218.412Z" fill="#A9733D"/>
<path d="M1730.35 184.521C1736.14 191.887 1740.73 200.446 1733.36 206.229C1725.99 212.013 1715.33 210.73 1709.55 203.364C1703.76 195.997 1705.05 185.337 1712.41 179.553C1719.78 173.769 1724.57 177.154 1730.35 184.521Z" fill="#A9733D"/>
<path d="M1698.38 118.807C1698.29 119.081 1698.25 119.456 1698.22 119.737C1697.96 121.89 1698.54 124.144 1699.47 125.395C1700.4 126.647 1701.76 127.19 1703.13 127.165C1704.5 127.14 1705.83 126.446 1707.13 125.652C1708.36 124.851 1709.66 123.963 1710.65 122.373C1711.21 121.491 1711.69 120.408 1711.93 119.299C1712.66 115.588 1710.49 112.857 1708.67 111.879C1706.54 110.672 1704.25 111.251 1702.05 112.981C1701.17 113.635 1700.33 114.483 1699.62 115.632C1699.05 116.608 1698.63 117.698 1698.38 118.807Z" fill="#A9733D"/>
<path d="M1698.22 98.8464C1695.96 98.7634 1693.59 99.5229 1691.36 100.965C1690.62 101.445 1689.93 102.026 1689.45 103.109C1688.88 104.559 1689.05 106.479 1689.64 107.69C1690.92 110.313 1693.87 111.333 1695.89 111.576C1698.35 111.967 1700.83 111.221 1703.2 109.512C1706.08 107.389 1706.44 103.444 1703.92 101.147C1702.23 99.6136 1700.21 98.8956 1698.22 98.8464Z" fill="#A9733D"/>
<path d="M1702.64 96.2455C1702.86 96.2725 1703.03 96.2928 1703.25 96.3198C1704.68 96.3014 1706.16 95.815 1707.61 95.1345C1708.22 94.8276 1708.83 94.4271 1709.36 93.8258C1710.5 92.4428 1710.8 89.9151 1710.08 88.3092C1709.33 86.5092 1707.96 85.5846 1706.69 84.7672C1704.67 83.5744 1702.37 83.2974 1700.13 83.9769C1698.7 84.4701 1697.23 85.3377 1696.11 87.102C1695.89 87.4562 1695.68 87.8104 1695.58 88.1781C1695.47 88.6395 1695.48 89.0207 1695.53 89.5023C1695.63 91.0339 1696.23 92.2451 1696.92 93.0886C1697.62 93.9322 1698.46 94.5083 1699.31 94.9909C1700.45 95.5072 1701.46 96.1036 1702.64 96.2455Z" fill="#A9733D"/>
<path d="M1714.24 122.805C1713.61 127.573 1715.34 130.724 1718.71 131.13C1721.79 131.501 1725.46 127.574 1726.04 123.181C1726.58 119.163 1724.6 115.79 1721.41 115.311C1717.83 114.785 1714.9 117.851 1714.24 122.805Z" fill="#A9733D"/>
<path d="M1737.5 88.9145C1743.29 96.281 1747.87 104.839 1740.51 110.623C1733.14 116.407 1722.48 115.124 1716.7 107.757C1710.91 100.391 1712.19 89.7303 1719.56 83.9465C1726.93 78.1627 1731.72 81.548 1737.5 88.9145Z" fill="#A9733D"/>
<path d="M1611.21 252.828C1611.13 253.071 1611.09 253.404 1611.06 253.653C1610.83 255.564 1611.34 257.565 1612.17 258.676C1613 259.788 1614.2 260.27 1615.42 260.248C1616.63 260.225 1617.82 259.609 1618.97 258.904C1620.06 258.193 1621.22 257.405 1622.1 255.993C1622.6 255.21 1623.02 254.249 1623.23 253.264C1623.88 249.97 1621.95 247.546 1620.34 246.677C1618.44 245.607 1616.41 246.121 1614.46 247.656C1613.68 248.237 1612.93 248.99 1612.3 250.01C1611.8 250.876 1611.43 251.843 1611.21 252.828Z" fill="#A9733D"/>
<path d="M1611.07 235.108C1609.05 235.035 1606.95 235.709 1604.98 236.989C1604.32 237.416 1603.7 237.932 1603.28 238.893C1602.77 240.181 1602.92 241.885 1603.45 242.96C1604.58 245.288 1607.2 246.194 1609 246.41C1611.18 246.757 1613.38 246.095 1615.49 244.577C1618.04 242.692 1618.36 239.19 1616.13 237.151C1614.62 235.79 1612.83 235.152 1611.07 235.108Z" fill="#A9733D"/>
<path d="M1614.98 232.8C1615.18 232.824 1615.33 232.842 1615.53 232.866C1616.8 232.849 1618.11 232.417 1619.4 231.813C1619.94 231.541 1620.48 231.185 1620.95 230.652C1621.96 229.424 1622.23 227.18 1621.59 225.754C1620.93 224.157 1619.71 223.336 1618.58 222.61C1616.79 221.551 1614.75 221.305 1612.75 221.909C1611.49 222.346 1610.18 223.117 1609.19 224.683C1609 224.997 1608.81 225.312 1608.72 225.638C1608.62 226.048 1608.63 226.386 1608.68 226.814C1608.77 228.173 1609.29 229.248 1609.91 229.997C1610.53 230.746 1611.28 231.258 1612.03 231.686C1613.04 232.144 1613.94 232.674 1614.98 232.8Z" fill="#A9733D"/>
<path d="M1625.29 256.378C1624.73 260.61 1626.26 263.407 1629.25 263.767C1631.99 264.097 1635.24 260.61 1635.76 256.711C1636.24 253.144 1634.48 250.15 1631.65 249.725C1628.47 249.258 1625.87 251.98 1625.29 256.378Z" fill="#A9733D"/>
<path d="M1645.93 226.293C1651.07 232.832 1655.14 240.429 1648.6 245.563C1642.06 250.698 1632.6 249.559 1627.46 243.019C1622.33 236.48 1623.47 227.017 1630 221.882C1636.54 216.748 1640.8 219.753 1645.93 226.293Z" fill="#A9733D"/>
<path d="M1535.95 226.645C1535.87 226.888 1535.83 227.22 1535.8 227.47C1535.57 229.381 1536.08 231.382 1536.91 232.493C1537.74 233.604 1538.94 234.086 1540.16 234.064C1541.37 234.042 1542.56 233.426 1543.71 232.721C1544.8 232.01 1545.96 231.222 1546.84 229.81C1547.34 229.027 1547.75 228.066 1547.97 227.081C1548.62 223.787 1546.69 221.362 1545.08 220.494C1543.18 219.423 1541.15 219.937 1539.2 221.472C1538.42 222.053 1537.67 222.806 1537.04 223.826C1536.53 224.692 1536.17 225.659 1535.95 226.645Z" fill="#A9733D"/>
<path d="M1535.8 208.925C1533.79 208.851 1531.69 209.525 1529.71 210.805C1529.06 211.232 1528.44 211.748 1528.02 212.709C1527.51 213.997 1527.66 215.701 1528.19 216.776C1529.32 219.105 1531.94 220.01 1533.74 220.226C1535.92 220.573 1538.12 219.911 1540.23 218.393C1542.78 216.508 1543.1 213.006 1540.87 210.967C1539.36 209.606 1537.57 208.968 1535.8 208.925Z" fill="#A9733D"/>
<path d="M1539.72 206.615C1539.92 206.639 1540.07 206.657 1540.27 206.681C1541.53 206.665 1542.85 206.233 1544.14 205.629C1544.67 205.357 1545.22 205.001 1545.69 204.467C1546.7 203.24 1546.97 200.996 1546.33 199.57C1545.66 197.972 1544.45 197.152 1543.32 196.426C1541.53 195.367 1539.49 195.121 1537.49 195.724C1536.23 196.162 1534.92 196.932 1533.92 198.499C1533.74 198.813 1533.55 199.127 1533.46 199.454C1533.36 199.863 1533.37 200.202 1533.42 200.629C1533.5 201.989 1534.03 203.064 1534.65 203.813C1535.27 204.562 1536.01 205.073 1536.77 205.502C1537.78 205.96 1538.67 206.489 1539.72 206.615Z" fill="#A9733D"/>
<path d="M1550.03 230.195C1549.47 234.426 1551 237.224 1553.99 237.584C1556.73 237.914 1559.98 234.427 1560.5 230.528C1560.98 226.961 1559.22 223.967 1556.39 223.542C1553.21 223.075 1550.6 225.797 1550.03 230.195Z" fill="#A9733D"/>
<path d="M1570.67 200.108C1575.81 206.648 1579.88 214.245 1573.34 219.379C1566.8 224.513 1557.34 223.374 1552.2 216.835C1547.07 210.296 1548.2 200.832 1554.74 195.698C1561.28 190.564 1565.54 193.569 1570.67 200.108Z" fill="#A9733D"/>
<path d="M1531.45 301.926C1531.37 302.163 1531.33 302.487 1531.3 302.73C1531.08 304.594 1531.58 306.546 1532.39 307.629C1533.2 308.713 1534.37 309.183 1535.56 309.161C1536.74 309.14 1537.9 308.539 1539.02 307.851C1540.09 307.158 1541.22 306.389 1542.07 305.013C1542.56 304.249 1542.97 303.312 1543.18 302.351C1543.81 299.139 1541.93 296.774 1540.35 295.927C1538.51 294.883 1536.53 295.384 1534.62 296.881C1533.86 297.448 1533.13 298.182 1532.52 299.177C1532.02 300.022 1531.66 300.965 1531.45 301.926Z" fill="#A9733D"/>
<path d="M1531.31 284.645C1529.35 284.573 1527.3 285.231 1525.37 286.479C1524.73 286.895 1524.13 287.398 1523.72 288.336C1523.22 289.592 1523.37 291.254 1523.88 292.302C1524.99 294.573 1527.55 295.456 1529.3 295.667C1531.42 296.005 1533.57 295.359 1535.62 293.879C1538.11 292.041 1538.42 288.626 1536.25 286.637C1534.78 285.309 1533.03 284.688 1531.31 284.645Z" fill="#A9733D"/>
<path d="M1535.13 282.394C1535.33 282.417 1535.47 282.435 1535.67 282.458C1536.9 282.442 1538.18 282.021 1539.44 281.432C1539.96 281.166 1540.5 280.819 1540.95 280.299C1541.94 279.102 1542.2 276.913 1541.58 275.523C1540.93 273.965 1539.74 273.164 1538.64 272.457C1536.9 271.424 1534.9 271.184 1532.96 271.772C1531.72 272.199 1530.45 272.951 1529.48 274.478C1529.29 274.785 1529.11 275.091 1529.02 275.41C1528.92 275.809 1528.93 276.139 1528.98 276.556C1529.07 277.882 1529.58 278.93 1530.19 279.661C1530.79 280.391 1531.52 280.89 1532.26 281.307C1533.24 281.754 1534.11 282.271 1535.13 282.394Z" fill="#A9733D"/>
<path d="M1545.18 305.388C1544.63 309.515 1546.13 312.244 1549.05 312.594C1551.72 312.916 1554.89 309.516 1555.39 305.713C1555.86 302.234 1554.14 299.314 1551.38 298.9C1548.28 298.445 1545.75 301.099 1545.18 305.388Z" fill="#A9733D"/>
<path d="M1565.31 276.047C1570.32 282.425 1574.29 289.834 1567.92 294.841C1561.54 299.848 1552.31 298.737 1547.3 292.36C1542.29 285.982 1543.41 276.753 1549.78 271.746C1556.16 266.739 1560.31 269.67 1565.31 276.047Z" fill="#A9733D"/>
<path d="M1459.01 278.512C1458.94 278.736 1458.9 279.043 1458.87 279.273C1458.66 281.036 1459.14 282.882 1459.9 283.907C1460.66 284.932 1461.77 285.377 1462.9 285.357C1464.02 285.336 1465.11 284.768 1466.17 284.118C1467.18 283.462 1468.25 282.734 1469.06 281.432C1469.52 280.71 1469.9 279.823 1470.11 278.914C1470.71 275.875 1468.92 273.638 1467.43 272.837C1465.69 271.849 1463.81 272.323 1462.01 273.739C1461.29 274.275 1460.6 274.97 1460.02 275.911C1459.55 276.71 1459.21 277.603 1459.01 278.512Z" fill="#A9733D"/>
<path d="M1458.88 262.162C1457.02 262.094 1455.08 262.716 1453.26 263.897C1452.65 264.291 1452.08 264.767 1451.7 265.653C1451.23 266.842 1451.36 268.414 1451.85 269.406C1452.9 271.554 1455.32 272.39 1456.97 272.589C1458.98 272.909 1461.02 272.298 1462.96 270.898C1465.31 269.159 1465.61 265.928 1463.55 264.046C1462.16 262.79 1460.51 262.202 1458.88 262.162Z" fill="#A9733D"/>
<path d="M1462.49 260.032C1462.68 260.054 1462.81 260.071 1463 260.093C1464.17 260.078 1465.38 259.68 1466.57 259.122C1467.06 258.871 1467.57 258.543 1468 258.05C1468.93 256.918 1469.18 254.848 1468.59 253.532C1467.98 252.058 1466.85 251.301 1465.82 250.631C1464.16 249.654 1462.28 249.428 1460.44 249.984C1459.27 250.388 1458.06 251.099 1457.14 252.544C1456.97 252.834 1456.79 253.124 1456.71 253.425C1456.62 253.803 1456.63 254.115 1456.67 254.509C1456.76 255.764 1457.24 256.756 1457.81 257.447C1458.38 258.138 1459.07 258.609 1459.77 259.005C1460.7 259.428 1461.53 259.916 1462.49 260.032Z" fill="#A9733D"/>
<path d="M1472 281.786C1471.48 285.69 1472.9 288.272 1475.66 288.603C1478.18 288.908 1481.18 285.691 1481.66 282.093C1482.1 278.802 1480.48 276.04 1477.87 275.648C1474.93 275.217 1472.53 277.728 1472 281.786Z" fill="#A9733D"/>
<path d="M1491.05 254.029C1495.78 260.062 1499.54 267.071 1493.51 271.808C1487.47 276.545 1478.74 275.495 1474.01 269.461C1469.27 263.428 1470.32 254.697 1476.35 249.96C1482.39 245.223 1486.31 247.996 1491.05 254.029Z" fill="#A9733D"/>
<path d="M1460.24 354.727C1460.17 354.946 1460.13 355.246 1460.11 355.47C1459.9 357.193 1460.37 358.997 1461.11 359.998C1461.86 361 1462.94 361.434 1464.04 361.414C1465.13 361.394 1466.2 360.839 1467.24 360.204C1468.23 359.563 1469.27 358.852 1470.06 357.58C1470.51 356.874 1470.89 356.008 1471.08 355.12C1471.67 352.151 1469.93 349.966 1468.47 349.183C1466.77 348.218 1464.93 348.681 1463.17 350.065C1462.47 350.588 1461.8 351.267 1461.23 352.186C1460.77 352.967 1460.44 353.839 1460.24 354.727Z" fill="#A9733D"/>
<path d="M1460.11 338.755C1458.3 338.689 1456.4 339.296 1454.63 340.45C1454.03 340.835 1453.47 341.3 1453.1 342.166C1452.64 343.327 1452.77 344.863 1453.25 345.832C1454.27 347.931 1456.63 348.747 1458.25 348.942C1460.22 349.254 1462.2 348.657 1464.1 347.29C1466.4 345.591 1466.69 342.434 1464.68 340.596C1463.32 339.369 1461.7 338.794 1460.11 338.755Z" fill="#A9733D"/>
<path d="M1463.64 336.673C1463.82 336.695 1463.96 336.711 1464.14 336.733C1465.28 336.718 1466.46 336.329 1467.62 335.784C1468.11 335.539 1468.6 335.218 1469.03 334.737C1469.93 333.631 1470.18 331.608 1469.6 330.323C1469 328.883 1467.91 328.143 1466.89 327.489C1465.27 326.535 1463.43 326.313 1461.64 326.857C1460.49 327.251 1459.32 327.946 1458.42 329.357C1458.25 329.641 1458.08 329.924 1458 330.218C1457.91 330.587 1457.92 330.892 1457.96 331.278C1458.04 332.503 1458.52 333.472 1459.07 334.147C1459.63 334.822 1460.3 335.283 1460.99 335.669C1461.89 336.083 1462.7 336.56 1463.64 336.673Z" fill="#A9733D"/>
<path d="M1472.93 357.927C1472.43 361.741 1473.81 364.263 1476.51 364.587C1478.98 364.884 1481.9 361.742 1482.37 358.227C1482.81 355.012 1481.22 352.313 1478.67 351.93C1475.8 351.509 1473.46 353.962 1472.93 357.927Z" fill="#A9733D"/>
<path d="M1491.54 330.808C1496.17 336.703 1499.84 343.55 1493.95 348.178C1488.05 352.806 1479.52 351.78 1474.89 345.885C1470.27 339.991 1471.29 331.461 1477.19 326.833C1483.08 322.205 1486.91 324.914 1491.54 330.808Z" fill="#A9733D"/>
</g>
<path fill-rule="evenodd" clip-rule="evenodd" d="M171.596 58.7506C183.645 51.139 195.494 49.7395 207.052 57.5072C193.793 57.7232 183.717 73.7645 171.596 58.7506ZM223.538 53.9829C239.557 47.5972 253.851 48.5532 265.882 60.3013C250.161 57.6535 234.598 74.4556 223.538 53.9829ZM194.262 82.4032C205.675 74.2729 217.238 72.2939 228.98 79.2998C216.042 80.2141 207.043 96.4529 194.324 82.4196L194.262 82.4032ZM237.892 85.8636C252.97 79.8421 266.5 80.7494 277.763 91.8124C262.949 89.3388 248.312 105.181 237.954 85.88L237.892 85.8636ZM215.215 101.003C231.235 94.6169 245.529 95.5729 257.538 107.316C241.735 104.646 226.172 121.448 215.215 101.003ZM268.243 110.871C280.634 101.751 293.28 99.3789 306.314 106.858C292.031 107.986 282.434 126.104 268.201 110.86L268.243 110.871ZM259.083 126.804C269.717 140.264 282.58 146.493 298.933 142.232C283.889 136.762 278.925 114.507 259.042 126.793L259.083 126.804ZM225.154 120.215C243.499 124.718 255.565 134.701 258.497 152.672C246.243 140.274 221.54 145.304 225.112 120.204L225.154 120.215ZM278.542 168.732C294.613 174.911 308.989 173.764 320.778 161.878C304.964 164.726 289.196 148.111 278.459 168.71L278.542 168.732ZM307.618 132.789C321.924 137.297 334.332 135.475 343.9 124.579C330.307 127.905 315.731 114.256 307.536 132.767L307.618 132.789ZM260.436 169.724C267.768 180.229 269.372 190.752 262.612 201.274C262.027 189.532 247.056 181.014 260.436 169.724ZM243.593 155.191C246.392 173.653 241.679 188.485 225.98 198.023C232.883 182.149 218.742 161.584 243.576 155.253L243.593 155.191ZM221.771 148.541C219.882 169.071 210.894 183.801 191.529 190.003C203.147 174.742 193.342 148.906 221.771 148.541ZM197.024 125.28C198.275 145.852 191.569 161.733 173.374 170.742C182.637 153.938 169.116 129.857 197.107 125.302L197.024 125.28ZM162.237 91.8489C171.631 103.096 174.571 114.827 168.119 127.402C166.198 114.123 148.373 105.99 162.237 91.8489ZM121.664 99.3614C129.401 111.726 139.76 118.191 153.929 116.091C141.764 110.068 139.711 90.8178 121.726 99.3779L121.664 99.3614ZM147.72 125.97C157.114 137.218 160.053 148.948 153.602 161.524C151.598 148.223 133.756 140.151 147.683 126.026L147.72 125.97ZM129.938 129.612C118.942 139.232 114.245 150.41 118.771 163.896C122.66 151.037 141.526 145.689 129.901 129.667L129.938 129.612ZM112.042 114.953C115.227 130.604 111.849 143.379 98.8213 152.309C104.01 138.502 91.0405 121.467 112.005 115.009L112.042 114.953ZM100.167 97.7263C86.0626 101.223 76.7622 108.927 74.5561 122.779C83.903 113.27 102.94 117.102 100.13 97.7822L100.167 97.7263ZM124.049 33.5093C136.689 26.9083 148.625 26.4958 159.486 35.1963C146.204 34.3546 134.832 49.5275 124.012 33.5651L124.049 33.5093Z" fill="#89A829"/>
<path d="M199.918 110.884C203.938 115.134 207.223 118.976 209.698 122.177C206.986 118.858 203.694 115.037 199.918 110.884C179.795 89.6107 141.244 58.0931 93.501 45.2737C36.2191 29.8931 7.29954 18.6056 0 14.8845V0C12.3448 7.34225 48.3277 24.7327 93.501 35.5563C132.52 44.9054 175.972 84.5534 199.918 110.884Z" fill="#D9D9D9"/>
</g>
<path fill-rule="evenodd" clip-rule="evenodd" d="M1889.99 799.27C1894.56 799.91 1898.97 801.382 1903 803.615C1902.5 802.353 1901.99 801.074 1901.5 799.838C1909.24 805.926 1914.02 813.387 1915.25 822.499L1916.57 812.862C1918.77 824.625 1917.18 834.389 1908.84 840.622L1911.56 840.334C1898.6 858.592 1862.89 859.049 1850.47 836.904C1852.41 841.646 1853.28 848.573 1849.85 851.089L1794.61 853.273L1773.87 852.706H1748.24C1745.39 852.706 1744.26 848.658 1746.91 846.101L1758.42 838.36C1761.49 825.548 1761.41 807.425 1754.4 796.798C1765.01 805.13 1765.25 827.546 1763.29 839.3C1762.21 843.23 1758.38 846.49 1754.45 848.743C1758.68 847.115 1762.4 844.373 1765.2 840.808C1767.55 818.214 1765.2 800.659 1751.49 791.691C1751.58 793.004 1751.67 794.316 1751.77 795.629C1747.82 792.961 1744.43 787.05 1743.19 781.495C1743.4 783.688 1743.6 785.89 1743.81 788.084C1739.91 782.598 1737.55 776.164 1736.97 769.453C1736.65 771.367 1736.33 773.281 1736.02 775.195C1734.38 769.109 1733.72 762.8 1734.06 756.505L1732.74 764.042C1729.86 752.194 1735.11 740.432 1741.03 728.652C1747.89 720.336 1751.17 712.41 1737.45 706.363C1731.18 705.237 1728.75 702.282 1729.13 697.412H1732.51L1729.57 694.025C1728.58 690.993 1728.72 685.235 1730.04 684.887L1748.75 689.122C1754.21 685.618 1760.6 683.815 1767.08 683.939L1763.8 681.771V678.943L1758.62 676.495C1766.11 673.955 1770.59 676.394 1772.82 682.618C1777.02 680.173 1780.09 675.967 1782.03 670C1786.16 676.893 1785.93 693.068 1785.95 708.692C1786.8 709.622 1787.87 710.323 1789.07 710.733C1787.91 710.838 1786.75 710.661 1785.68 710.216C1786.57 713.68 1788.21 716.903 1790.49 719.65L1786.87 718.753C1787.83 723.605 1790.36 728.026 1794.08 732.124L1790.31 730.134C1791.71 734.259 1794.31 737.877 1797.76 740.533C1835.27 763.762 1849.17 789.947 1854.49 817.198C1859.35 832.28 1892.73 838.538 1893.57 818.434C1891.72 815.233 1889.87 812.032 1888.02 808.831L1894.12 810.991C1893.34 806.883 1891.91 802.925 1889.9 799.262" fill="#B3D0E7"/>
<path fill-rule="evenodd" clip-rule="evenodd" d="M1809.73 817.935C1789.9 823.575 1792.41 837.133 1804.28 850.682C1787.85 839.826 1785.6 819.451 1809.73 817.935ZM1829.52 820.661C1831.37 830.629 1829.52 840.596 1825.01 850.563C1842.17 849.369 1846.7 833.864 1829.52 820.661ZM1775.25 853.688C1775.25 848.675 1776.21 847.718 1779.17 843.602C1779.58 832.746 1776.29 823.083 1771.82 813.811C1767.76 805.401 1773.04 791.742 1772.06 781.529C1772.81 781.281 1773.5 780.879 1774.09 780.348C1774.68 779.817 1775.16 779.17 1775.49 778.446C1769.05 779.827 1763.96 778.396 1762.58 769.19C1762.06 767.319 1762.1 766.04 1764 765.27L1768.61 763.965C1769.03 761.814 1770.04 758.8 1772.84 757.513L1775.98 757.038C1775.77 754.759 1775.99 752.46 1776.63 750.264C1778.65 751.272 1780.24 752.972 1781.12 755.057H1782.54C1782.54 752.586 1783.4 750.192 1784.96 748.282C1791.49 756.979 1796.92 767.438 1799.34 782.782L1821.93 805.469C1823.2 802.708 1825.36 800.459 1828.06 799.092C1834.44 796.205 1836.08 803.538 1832.38 804.538C1828.89 806.003 1827.22 809.534 1829.54 811.939C1844.92 821.314 1855.83 842.358 1838.23 853.612L1775.25 853.688Z" fill="white"/>
</svg>
