<svg width="1920" height="1046" viewBox="0 0 1920 1046" fill="none" xmlns="http://www.w3.org/2000/svg">
<rect x="0.000488281" y="-6.10352e-05" width="1920" height="1046" fill="white"/>
<mask id="mask0_132_313" style="mask-type:alpha" maskUnits="userSpaceOnUse" x="0" y="0" width="1921" height="1047">
<rect width="1920" height="1046" transform="matrix(-1 -8.74228e-08 -8.74228e-08 1 1920 0.00012207)" fill="#F7FCFF"/>
</mask>
<g mask="url(#mask0_132_313)">
<g opacity="0.2">
<path d="M1903.91 133.004C1903.75 133.351 1903.64 133.836 1903.56 134.199C1902.92 136.986 1903.38 140.021 1904.43 141.789C1905.48 143.558 1907.18 144.456 1908.98 144.611C1910.78 144.766 1912.63 144.039 1914.43 143.175C1916.16 142.295 1917.99 141.309 1919.5 139.36C1920.36 138.281 1921.13 136.926 1921.6 135.505C1923.07 130.741 1920.59 126.863 1918.34 125.331C1915.71 123.457 1912.63 123.902 1909.51 125.867C1908.27 126.605 1907.05 127.602 1905.96 129.011C1905.08 130.212 1904.38 131.583 1903.91 133.004Z" fill="#A9733D"/>
<path d="M1906.43 106.814C1903.47 106.395 1900.26 107.066 1897.15 108.651C1896.11 109.179 1895.12 109.845 1894.35 111.2C1893.4 113.023 1893.36 115.562 1893.97 117.231C1895.29 120.845 1899.02 122.587 1901.64 123.182C1904.8 124.032 1908.16 123.394 1911.5 121.478C1915.56 119.089 1916.57 113.967 1913.59 110.612C1911.58 108.369 1909.03 107.151 1906.43 106.814Z" fill="#A9733D"/>
<path d="M1912.58 104.007C1912.87 104.073 1913.09 104.123 1913.38 104.189C1915.25 104.361 1917.26 103.926 1919.25 103.233C1920.09 102.914 1920.95 102.473 1921.72 101.758C1923.4 100.1 1924.15 96.8288 1923.43 94.6253C1922.69 92.163 1921.02 90.7634 1919.47 89.5181C1916.98 87.6776 1914 86.999 1910.97 87.5819C1909.03 88.0328 1906.98 88.9685 1905.27 91.127C1904.94 91.562 1904.61 91.9971 1904.43 92.4652C1904.22 93.0545 1904.18 93.5557 1904.19 94.1946C1904.11 96.216 1904.72 97.8851 1905.52 99.0861C1906.32 100.287 1907.34 101.158 1908.39 101.907C1909.81 102.739 1911.05 103.66 1912.58 104.007Z" fill="#A9733D"/>
<path d="M1959.29 99.1788C1965.86 109.629 1970.7 121.477 1960.25 128.049C1949.8 134.621 1936 131.478 1929.43 121.028C1922.85 110.578 1926 96.7791 1936.45 90.2068C1946.9 83.6345 1952.71 88.729 1959.29 99.1788Z" fill="#A9733D"/>
<path d="M1828.17 54.1951C1828.12 54.5774 1828.16 55.0794 1828.19 55.4559C1828.41 58.3421 1829.77 61.141 1831.31 62.5362C1832.86 63.9314 1834.78 64.2877 1836.57 63.8969C1838.35 63.5061 1839.92 62.2485 1841.4 60.8712C1842.81 59.4998 1844.28 57.9971 1845.16 55.6567C1845.67 54.3552 1846 52.8144 1846.04 51.2968C1846.02 46.2481 1842.46 43.2417 1839.82 42.4359C1836.72 41.414 1833.87 42.7707 1831.44 45.6099C1830.46 46.6953 1829.58 48.026 1828.96 49.7156C1828.46 51.1426 1828.2 52.6776 1828.17 54.1951Z" fill="#A9733D"/>
<path d="M1822.74 28.1044C1819.75 28.5884 1816.85 30.2018 1814.31 32.6704C1813.47 33.4932 1812.71 34.4357 1812.37 35.9766C1812 38.0252 1812.72 40.4942 1813.82 41.9243C1816.18 45.0239 1820.31 45.5878 1823.02 45.378C1826.34 45.2472 1829.39 43.6221 1832.05 40.7654C1835.26 37.2347 1834.7 31.9758 1830.81 29.626C1828.19 28.0614 1825.35 27.6495 1822.74 28.1044Z" fill="#A9733D"/>
<path d="M1827.84 23.5438C1828.14 23.5205 1828.36 23.503 1828.67 23.4797C1830.53 23.0831 1832.34 22.059 1834.06 20.7898C1834.77 20.2296 1835.48 19.5438 1836.01 18.6188C1837.13 16.5119 1836.87 13.1237 1835.51 11.2091C1834.06 9.04932 1832.02 8.19688 1830.15 7.45828C1827.19 6.42477 1824.11 6.66364 1821.35 8.13992C1819.61 9.15818 1817.91 10.6784 1816.9 13.2814C1816.71 13.8008 1816.53 14.3203 1816.49 14.8281C1816.46 15.4613 1816.58 15.9575 1816.78 16.5733C1817.31 18.552 1818.4 19.9821 1819.53 20.9045C1820.67 21.8268 1821.92 22.361 1823.16 22.7698C1824.78 23.1494 1826.26 23.6661 1827.84 23.5438Z" fill="#A9733D"/>
<path d="M1849.98 55.2844C1850.4 61.6902 1853.48 65.3648 1858 65.0152C1862.14 64.6948 1865.9 58.596 1865.52 52.6922C1865.18 47.2903 1861.7 43.3938 1857.4 43.6004C1852.57 43.8478 1849.54 48.6276 1849.98 55.2844Z" fill="#A9733D"/>
<path d="M1871.57 4.83642C1881.06 12.9686 1889.31 22.9736 1881.17 32.4709C1873.04 41.9683 1858.75 43.0749 1849.25 34.9427C1839.75 26.8104 1838.65 12.5189 1846.78 3.02155C1854.91 -6.47576 1862.07 -3.29581 1871.57 4.83642Z" fill="#A9733D"/>
<path d="M1815.59 170.563C1815.55 170.921 1815.59 171.392 1815.61 171.745C1815.82 174.45 1817.09 177.073 1818.54 178.381C1819.99 179.688 1821.79 180.022 1823.46 179.656C1825.14 179.29 1826.61 178.111 1828 176.82C1829.31 175.535 1830.7 174.126 1831.52 171.933C1831.99 170.713 1832.31 169.269 1832.34 167.847C1832.33 163.115 1828.99 160.297 1826.51 159.542C1823.6 158.584 1820.93 159.856 1818.66 162.517C1817.74 163.534 1816.92 164.781 1816.33 166.365C1815.87 167.702 1815.62 169.141 1815.59 170.563Z" fill="#A9733D"/>
<path d="M1810.51 146.11C1807.7 146.564 1804.98 148.076 1802.61 150.39C1801.82 151.161 1801.1 152.044 1800.79 153.489C1800.44 155.409 1801.12 157.723 1802.14 159.063C1804.36 161.968 1808.23 162.496 1810.77 162.3C1813.88 162.177 1816.74 160.654 1819.23 157.977C1822.24 154.668 1821.71 149.739 1818.07 147.537C1815.61 146.07 1812.96 145.684 1810.51 146.11Z" fill="#A9733D"/>
<path d="M1815.28 141.836C1815.56 141.814 1815.78 141.798 1816.06 141.776C1817.8 141.404 1819.5 140.444 1821.11 139.255C1821.78 138.73 1822.44 138.087 1822.94 137.22C1823.99 135.245 1823.75 132.07 1822.47 130.275C1821.11 128.251 1819.21 127.452 1817.45 126.76C1814.68 125.791 1811.79 126.015 1809.2 127.399C1807.57 128.353 1805.98 129.778 1805.03 132.218C1804.86 132.704 1804.68 133.191 1804.65 133.667C1804.62 134.261 1804.73 134.726 1804.92 135.303C1805.41 137.157 1806.44 138.498 1807.5 139.362C1808.56 140.227 1809.73 140.727 1810.9 141.11C1812.42 141.466 1813.8 141.95 1815.28 141.836Z" fill="#A9733D"/>
<path d="M1836.03 171.584C1836.43 177.588 1839.32 181.032 1843.55 180.704C1847.43 180.404 1850.96 174.688 1850.6 169.155C1850.28 164.092 1847.02 160.44 1842.99 160.634C1838.47 160.866 1835.62 165.345 1836.03 171.584Z" fill="#A9733D"/>
<path d="M1856.27 124.304C1865.17 131.925 1872.89 141.302 1865.27 150.204C1857.65 159.105 1844.25 160.142 1835.35 152.52C1826.45 144.898 1825.41 131.504 1833.04 122.603C1840.66 113.702 1847.36 116.682 1856.27 124.304Z" fill="#A9733D"/>
<path d="M1655.28 139.48C1655.19 139.773 1655.14 140.173 1655.11 140.472C1654.84 142.771 1655.47 145.173 1656.47 146.505C1657.46 147.837 1658.92 148.411 1660.38 148.379C1661.84 148.347 1663.26 147.602 1664.64 146.75C1665.95 145.89 1667.34 144.938 1668.39 143.237C1668.98 142.294 1669.48 141.137 1669.74 139.952C1670.51 135.991 1668.17 133.085 1666.23 132.048C1663.95 130.769 1661.51 131.396 1659.17 133.249C1658.23 133.951 1657.34 134.859 1656.59 136.088C1655.98 137.131 1655.54 138.295 1655.28 139.48Z" fill="#A9733D"/>
<path d="M1655.03 118.184C1652.61 118.104 1650.09 118.923 1647.72 120.47C1646.93 120.986 1646.19 121.608 1645.69 122.765C1645.09 124.315 1645.27 126.362 1645.91 127.652C1647.29 130.446 1650.44 131.523 1652.6 131.774C1655.22 132.182 1657.87 131.376 1660.39 129.544C1663.45 127.268 1663.82 123.057 1661.13 120.616C1659.31 118.987 1657.15 118.229 1655.03 118.184Z" fill="#A9733D"/>
<path d="M1659.73 115.391C1659.97 115.419 1660.15 115.44 1660.39 115.468C1661.91 115.443 1663.49 114.918 1665.03 114.187C1665.68 113.857 1666.34 113.427 1666.9 112.783C1668.1 111.303 1668.42 108.605 1667.65 106.895C1666.84 104.977 1665.37 103.996 1664.02 103.129C1661.86 101.864 1659.4 101.577 1657.01 102.311C1655.49 102.842 1653.92 103.774 1652.73 105.661C1652.5 106.039 1652.28 106.418 1652.17 106.811C1652.05 107.303 1652.07 107.71 1652.13 108.224C1652.24 109.858 1652.88 111.148 1653.62 112.045C1654.37 112.942 1655.27 113.554 1656.18 114.065C1657.39 114.612 1658.47 115.244 1659.73 115.391Z" fill="#A9733D"/>
<path d="M1672.22 143.685C1671.56 148.774 1673.42 152.13 1677.01 152.549C1680.31 152.934 1684.2 148.729 1684.81 144.04C1685.37 139.751 1683.24 136.16 1679.83 135.662C1676.01 135.114 1672.9 138.397 1672.22 143.685Z" fill="#A9733D"/>
<path d="M1696.9 107.435C1703.1 115.272 1708.03 124.386 1700.19 130.585C1692.35 136.784 1680.97 135.457 1674.77 127.619C1668.57 119.782 1669.9 108.403 1677.74 102.204C1685.58 96.0042 1690.7 99.5977 1696.9 107.435Z" fill="#A9733D"/>
<path d="M1727.59 191.803C1727.49 192.096 1727.45 192.496 1727.41 192.795C1727.14 195.093 1727.78 197.496 1728.77 198.828C1729.77 200.16 1731.22 200.734 1732.68 200.702C1734.15 200.67 1735.57 199.925 1736.94 199.073C1738.26 198.213 1739.64 197.261 1740.69 195.56C1741.29 194.617 1741.79 193.46 1742.05 192.275C1742.81 188.313 1740.48 185.408 1738.54 184.371C1736.26 183.092 1733.82 183.719 1731.47 185.572C1730.54 186.274 1729.65 187.182 1728.9 188.411C1728.29 189.454 1727.85 190.618 1727.59 191.803Z" fill="#A9733D"/>
<path d="M1727.34 170.506C1724.92 170.426 1722.4 171.246 1720.03 172.792C1719.24 173.308 1718.5 173.93 1718 175.088C1717.4 176.637 1717.58 178.684 1718.22 179.974C1719.6 182.768 1722.75 183.845 1724.91 184.096C1727.53 184.504 1730.17 183.699 1732.7 181.866C1735.75 179.59 1736.12 175.379 1733.43 172.939C1731.62 171.309 1729.46 170.551 1727.34 170.506Z" fill="#A9733D"/>
<path d="M1732.04 167.714C1732.28 167.742 1732.46 167.763 1732.7 167.791C1734.22 167.766 1735.8 167.241 1737.34 166.51C1737.99 166.18 1738.65 165.75 1739.21 165.107C1740.41 163.627 1740.73 160.929 1739.95 159.218C1739.15 157.3 1737.68 156.319 1736.33 155.452C1734.17 154.187 1731.71 153.9 1729.32 154.634C1727.8 155.166 1726.23 156.097 1725.04 157.984C1724.81 158.362 1724.59 158.741 1724.48 159.134C1724.36 159.626 1724.37 160.033 1724.44 160.547C1724.55 162.181 1725.19 163.471 1725.93 164.368C1726.68 165.265 1727.58 165.877 1728.49 166.388C1729.7 166.935 1730.78 167.567 1732.04 167.714Z" fill="#A9733D"/>
<path d="M1744.53 196.008C1743.87 201.096 1745.73 204.452 1749.32 204.872C1752.62 205.256 1756.51 201.052 1757.12 196.363C1757.68 192.073 1755.55 188.483 1752.14 187.984C1748.32 187.437 1745.2 190.719 1744.53 196.008Z" fill="#A9733D"/>
<path d="M1769.21 159.759C1775.41 167.596 1780.34 176.71 1772.5 182.909C1764.66 189.108 1753.28 187.78 1747.08 179.943C1740.88 172.105 1742.21 160.726 1750.05 154.527C1757.89 148.328 1763.01 151.921 1769.21 159.759Z" fill="#A9733D"/>
<path d="M1734.85 89.7688C1734.75 90.0616 1734.71 90.4613 1734.67 90.761C1734.4 93.0591 1735.03 95.462 1736.03 96.7938C1737.03 98.1256 1738.48 98.7 1739.94 98.668C1741.4 98.636 1742.83 97.8905 1744.2 97.0382C1745.52 96.1788 1746.9 95.2266 1747.95 93.526C1748.55 92.5828 1749.05 91.4257 1749.31 90.2407C1750.07 86.2791 1747.74 83.3737 1745.79 82.3367C1743.51 81.0579 1741.07 81.6844 1738.73 83.538C1737.8 84.2394 1736.9 85.1477 1736.15 86.3767C1735.55 87.4198 1735.11 88.5838 1734.85 89.7688Z" fill="#A9733D"/>
<path d="M1734.6 68.4721C1732.18 68.3923 1729.65 69.2117 1727.29 70.7585C1726.5 71.2741 1725.76 71.8966 1725.26 73.0536C1724.65 74.6034 1724.84 76.6506 1725.48 77.9405C1726.85 80.734 1730.01 81.8109 1732.16 82.0626C1734.79 82.4701 1737.43 81.6647 1739.95 79.8321C1743.01 77.5559 1743.38 73.3455 1740.69 70.9047C1738.88 69.2752 1736.72 68.517 1734.6 68.4721Z" fill="#A9733D"/>
<path d="M1739.3 65.6798C1739.54 65.7077 1739.72 65.7287 1739.96 65.7567C1741.48 65.7316 1743.06 65.2069 1744.6 64.4753C1745.25 64.1455 1745.9 63.7158 1746.46 63.0722C1747.67 61.5922 1747.98 58.8942 1747.21 57.1835C1746.4 55.266 1744.94 54.2848 1743.58 53.4175C1741.42 52.1526 1738.97 51.8659 1736.57 52.5995C1735.05 53.1312 1733.49 54.0627 1732.3 55.9493C1732.07 56.3281 1731.84 56.7068 1731.74 57.0995C1731.62 57.5922 1731.63 57.9989 1731.69 58.5125C1731.81 60.1463 1732.44 61.4363 1733.19 62.3336C1733.94 63.2309 1734.84 63.8424 1735.75 64.354C1736.96 64.9005 1738.04 65.5329 1739.3 65.6798Z" fill="#A9733D"/>
<path d="M1751.78 93.9737C1751.13 99.0624 1752.98 102.418 1756.58 102.838C1759.87 103.222 1763.77 99.0179 1764.37 94.3288C1764.93 90.0395 1762.8 86.4486 1759.4 85.9502C1755.58 85.4029 1752.46 88.6852 1751.78 93.9737Z" fill="#A9733D"/>
<path d="M1776.47 57.7241C1782.67 65.5615 1787.6 74.6749 1779.76 80.8742C1771.92 87.0736 1760.54 85.7456 1754.34 77.9083C1748.14 70.0709 1749.47 58.6919 1757.31 52.4926C1765.14 46.2933 1770.27 49.8867 1776.47 57.7241Z" fill="#A9733D"/>
<path d="M1642.35 233.097C1642.27 233.357 1642.23 233.712 1642.2 233.978C1641.96 236.018 1642.52 238.151 1643.4 239.333C1644.29 240.516 1645.58 241.026 1646.87 240.997C1648.17 240.969 1649.43 240.307 1650.66 239.55C1651.82 238.788 1653.05 237.942 1653.98 236.433C1654.51 235.595 1654.96 234.568 1655.19 233.516C1655.87 229.999 1653.8 227.42 1652.07 226.5C1650.05 225.365 1647.88 225.921 1645.8 227.566C1644.97 228.189 1644.18 228.995 1643.51 230.086C1642.97 231.012 1642.58 232.045 1642.35 233.097Z" fill="#A9733D"/>
<path d="M1642.13 214.192C1639.98 214.121 1637.74 214.848 1635.64 216.222C1634.94 216.68 1634.28 217.232 1633.84 218.259C1633.3 219.635 1633.47 221.453 1634.04 222.598C1635.26 225.078 1638.06 226.034 1639.97 226.258C1642.3 226.619 1644.65 225.904 1646.89 224.277C1649.6 222.256 1649.93 218.518 1647.54 216.351C1645.93 214.905 1644.01 214.232 1642.13 214.192Z" fill="#A9733D"/>
<path d="M1646.3 211.713C1646.52 211.738 1646.67 211.757 1646.89 211.781C1648.24 211.759 1649.64 211.293 1651.01 210.644C1651.58 210.351 1652.17 209.97 1652.66 209.398C1653.73 208.085 1654.01 205.69 1653.33 204.171C1652.61 202.469 1651.31 201.598 1650.11 200.828C1648.19 199.705 1646.01 199.45 1643.88 200.102C1642.54 200.574 1641.14 201.4 1640.09 203.075C1639.89 203.412 1639.68 203.748 1639.59 204.096C1639.49 204.534 1639.5 204.895 1639.55 205.351C1639.65 206.801 1640.22 207.946 1640.88 208.743C1641.54 209.539 1642.34 210.082 1643.15 210.536C1644.23 211.021 1645.19 211.583 1646.3 211.713Z" fill="#A9733D"/>
<path d="M1657.39 236.83C1656.81 241.347 1658.45 244.326 1661.64 244.699C1664.57 245.04 1668.02 241.308 1668.56 237.145C1669.06 233.337 1667.17 230.15 1664.15 229.707C1660.75 229.221 1657.99 232.135 1657.39 236.83Z" fill="#A9733D"/>
<path d="M1679.3 204.651C1684.8 211.609 1689.18 219.699 1682.22 225.202C1675.26 230.705 1665.16 229.526 1659.66 222.569C1654.15 215.612 1655.33 205.511 1662.29 200.007C1669.25 194.504 1673.8 197.694 1679.3 204.651Z" fill="#A9733D"/>
<path d="M1561.95 205.451C1561.87 205.711 1561.83 206.066 1561.79 206.332C1561.56 208.372 1562.12 210.505 1563 211.687C1563.89 212.869 1565.18 213.379 1566.47 213.351C1567.77 213.322 1569.03 212.661 1570.25 211.904C1571.42 211.141 1572.65 210.296 1573.58 208.786C1574.11 207.949 1574.56 206.922 1574.79 205.87C1575.47 202.353 1573.4 199.774 1571.67 198.853C1569.65 197.718 1567.48 198.274 1565.4 199.92C1564.57 200.542 1563.78 201.349 1563.11 202.44C1562.57 203.366 1562.18 204.399 1561.95 205.451Z" fill="#A9733D"/>
<path d="M1561.73 186.546C1559.58 186.475 1557.34 187.202 1555.24 188.576C1554.54 189.033 1553.88 189.586 1553.44 190.613C1552.9 191.989 1553.07 193.807 1553.64 194.952C1554.86 197.432 1557.65 198.388 1559.57 198.612C1561.9 198.973 1564.25 198.258 1566.48 196.631C1569.2 194.61 1569.53 190.872 1567.14 188.705C1565.53 187.259 1563.61 186.585 1561.73 186.546Z" fill="#A9733D"/>
<path d="M1565.9 184.066C1566.11 184.091 1566.27 184.11 1566.49 184.135C1567.84 184.112 1569.24 183.647 1570.61 182.997C1571.18 182.704 1571.77 182.323 1572.26 181.752C1573.33 180.438 1573.61 178.043 1572.93 176.524C1572.21 174.822 1570.91 173.951 1569.71 173.181C1567.79 172.058 1565.61 171.804 1563.48 172.455C1562.13 172.927 1560.74 173.754 1559.69 175.429C1559.49 175.765 1559.28 176.101 1559.19 176.45C1559.09 176.887 1559.1 177.248 1559.15 177.704C1559.25 179.154 1559.82 180.299 1560.48 181.096C1561.14 181.893 1561.94 182.435 1562.75 182.889C1563.83 183.375 1564.79 183.936 1565.9 184.066Z" fill="#A9733D"/>
<path d="M1576.99 209.184C1576.41 213.701 1578.05 216.68 1581.24 217.053C1584.17 217.394 1587.62 213.662 1588.16 209.499C1588.66 205.692 1586.77 202.504 1583.75 202.061C1580.35 201.576 1577.59 204.489 1576.99 209.184Z" fill="#A9733D"/>
<path d="M1598.9 177.005C1604.4 183.962 1608.78 192.052 1601.82 197.555C1594.86 203.058 1584.76 201.879 1579.26 194.922C1573.75 187.965 1574.93 177.864 1581.89 172.36C1588.85 166.857 1593.39 170.047 1598.9 177.005Z" fill="#A9733D"/>
<path d="M1557.44 285.79C1557.36 286.044 1557.32 286.39 1557.29 286.649C1557.06 288.639 1557.6 290.719 1558.47 291.872C1559.33 293.025 1560.59 293.522 1561.85 293.495C1563.12 293.467 1564.35 292.822 1565.54 292.084C1566.68 291.34 1567.88 290.515 1568.79 289.043C1569.3 288.227 1569.74 287.225 1569.96 286.199C1570.62 282.769 1568.6 280.254 1566.92 279.356C1564.95 278.249 1562.83 278.792 1560.81 280.396C1560 281.003 1559.22 281.79 1558.57 282.854C1558.05 283.757 1557.67 284.765 1557.44 285.79Z" fill="#A9733D"/>
<path d="M1557.23 267.354C1555.13 267.285 1552.95 267.994 1550.9 269.333C1550.22 269.78 1549.58 270.319 1549.14 271.321C1548.62 272.662 1548.78 274.435 1549.33 275.552C1550.52 277.97 1553.25 278.903 1555.12 279.121C1557.39 279.474 1559.68 278.776 1561.86 277.189C1564.51 275.219 1564.83 271.573 1562.5 269.46C1560.93 268.049 1559.06 267.392 1557.23 267.354Z" fill="#A9733D"/>
<path d="M1561.3 264.937C1561.5 264.961 1561.66 264.979 1561.87 265.003C1563.18 264.982 1564.55 264.527 1565.89 263.894C1566.44 263.608 1567.01 263.236 1567.5 262.679C1568.54 261.398 1568.82 259.062 1568.15 257.581C1567.45 255.921 1566.18 255.072 1565.01 254.321C1563.14 253.226 1561.01 252.978 1558.94 253.613C1557.62 254.073 1556.27 254.879 1555.23 256.513C1555.04 256.841 1554.84 257.169 1554.75 257.509C1554.65 257.935 1554.66 258.287 1554.71 258.732C1554.81 260.146 1555.36 261.263 1556.01 262.04C1556.65 262.817 1557.43 263.346 1558.22 263.789C1559.27 264.262 1560.21 264.81 1561.3 264.937Z" fill="#A9733D"/>
<path d="M1572.11 289.431C1571.54 293.837 1573.15 296.742 1576.26 297.105C1579.11 297.438 1582.48 293.798 1583 289.739C1583.49 286.025 1581.65 282.917 1578.7 282.485C1575.39 282.011 1572.69 284.853 1572.11 289.431Z" fill="#A9733D"/>
<path d="M1593.47 258.049C1598.84 264.834 1603.11 272.724 1596.32 278.091C1589.54 283.458 1579.69 282.308 1574.32 275.523C1568.95 268.738 1570.1 258.887 1576.89 253.52C1583.67 248.153 1588.11 251.264 1593.47 258.049Z" fill="#A9733D"/>
<path d="M1480.06 261.085C1479.99 261.325 1479.95 261.653 1479.92 261.898C1479.7 263.78 1480.22 265.748 1481.03 266.839C1481.85 267.93 1483.04 268.4 1484.24 268.374C1485.43 268.348 1486.6 267.737 1487.72 267.039C1488.8 266.335 1489.94 265.555 1490.8 264.163C1491.28 263.39 1491.69 262.442 1491.9 261.472C1492.53 258.227 1490.62 255.848 1489.03 254.998C1487.16 253.951 1485.16 254.464 1483.24 255.982C1482.48 256.557 1481.75 257.301 1481.13 258.307C1480.64 259.162 1480.28 260.115 1480.06 261.085Z" fill="#A9733D"/>
<path d="M1479.86 243.643C1477.88 243.577 1475.81 244.248 1473.87 245.516C1473.23 245.938 1472.62 246.448 1472.21 247.396C1471.71 248.665 1471.87 250.342 1472.39 251.398C1473.52 253.687 1476.1 254.569 1477.86 254.775C1480.01 255.109 1482.18 254.449 1484.25 252.948C1486.75 251.083 1487.05 247.634 1484.85 245.635C1483.36 244.3 1481.6 243.679 1479.86 243.643Z" fill="#A9733D"/>
<path d="M1483.71 241.356C1483.9 241.379 1484.05 241.396 1484.25 241.419C1485.49 241.399 1486.79 240.969 1488.05 240.37C1488.58 240.1 1489.12 239.748 1489.58 239.22C1490.56 238.008 1490.82 235.799 1490.19 234.398C1489.53 232.827 1488.33 232.023 1487.22 231.313C1485.45 230.277 1483.44 230.042 1481.48 230.643C1480.23 231.079 1478.95 231.842 1477.97 233.387C1477.79 233.697 1477.6 234.007 1477.51 234.329C1477.42 234.732 1477.43 235.065 1477.48 235.486C1477.57 236.824 1478.09 237.881 1478.71 238.616C1479.32 239.35 1480.05 239.851 1480.8 240.27C1481.79 240.718 1482.68 241.236 1483.71 241.356Z" fill="#A9733D"/>
<path d="M1493.94 264.53C1493.4 268.697 1494.92 271.446 1497.86 271.789C1500.56 272.104 1503.75 268.661 1504.25 264.82C1504.71 261.307 1502.96 258.366 1500.17 257.958C1497.04 257.51 1494.49 260.198 1493.94 264.53Z" fill="#A9733D"/>
<path d="M1514.15 234.841C1519.23 241.259 1523.27 248.723 1516.85 253.801C1510.43 258.878 1501.11 257.791 1496.03 251.372C1490.95 244.953 1492.04 235.633 1498.46 230.556C1504.88 225.479 1509.07 228.422 1514.15 234.841Z" fill="#A9733D"/>
<path d="M1481.67 342.399C1481.6 342.633 1481.56 342.953 1481.53 343.193C1481.32 345.032 1481.82 346.954 1482.62 348.02C1483.42 349.086 1484.58 349.545 1485.75 349.52C1486.92 349.494 1488.06 348.897 1489.16 348.215C1490.21 347.528 1491.32 346.766 1492.16 345.405C1492.64 344.65 1493.03 343.725 1493.24 342.776C1493.86 339.607 1491.99 337.282 1490.43 336.452C1488.61 335.429 1486.66 335.93 1484.78 337.413C1484.04 337.975 1483.32 338.701 1482.72 339.685C1482.23 340.519 1481.88 341.451 1481.67 342.399Z" fill="#A9733D"/>
<path d="M1481.48 325.358C1479.54 325.295 1477.52 325.95 1475.63 327.188C1474.99 327.601 1474.4 328.099 1474 329.025C1473.52 330.265 1473.67 331.903 1474.18 332.936C1475.28 335.171 1477.8 336.033 1479.53 336.234C1481.63 336.56 1483.74 335.916 1485.76 334.449C1488.21 332.628 1488.5 329.258 1486.35 327.305C1484.9 326.001 1483.17 325.394 1481.48 325.358Z" fill="#A9733D"/>
<path d="M1485.23 323.124C1485.43 323.147 1485.57 323.163 1485.76 323.186C1486.98 323.166 1488.24 322.746 1489.48 322.16C1489.99 321.897 1490.52 321.553 1490.97 321.038C1491.93 319.854 1492.18 317.695 1491.57 316.326C1490.92 314.792 1489.75 314.006 1488.66 313.312C1486.93 312.3 1484.97 312.071 1483.05 312.658C1481.84 313.083 1480.59 313.829 1479.63 315.338C1479.45 315.641 1479.27 315.944 1479.18 316.259C1479.09 316.653 1479.1 316.978 1479.15 317.389C1479.24 318.697 1479.75 319.729 1480.35 320.447C1480.94 321.165 1481.66 321.654 1482.39 322.063C1483.36 322.501 1484.23 323.007 1485.23 323.124Z" fill="#A9733D"/>
<path d="M1495.23 345.764C1494.7 349.836 1496.19 352.521 1499.06 352.857C1501.7 353.165 1504.81 349.8 1505.3 346.048C1505.75 342.616 1504.04 339.743 1501.32 339.344C1498.26 338.906 1495.77 341.533 1495.23 345.764Z" fill="#A9733D"/>
<path d="M1514.98 316.759C1519.94 323.03 1523.88 330.322 1517.61 335.282C1511.34 340.243 1502.23 339.18 1497.27 332.909C1492.31 326.638 1493.37 317.533 1499.64 312.573C1505.92 307.612 1510.02 310.487 1514.98 316.759Z" fill="#A9733D"/>
<path d="M1413.26 327.131C1413.2 327.335 1413.17 327.614 1413.14 327.823C1412.95 329.427 1413.39 331.104 1414.09 332.033C1414.79 332.962 1415.8 333.363 1416.82 333.341C1417.84 333.318 1418.83 332.798 1419.79 332.203C1420.71 331.604 1421.68 330.939 1422.41 329.752C1422.82 329.094 1423.17 328.287 1423.35 327.46C1423.89 324.695 1422.26 322.668 1420.9 321.944C1419.31 321.052 1417.61 321.489 1415.97 322.783C1415.32 323.272 1414.7 323.906 1414.18 324.764C1413.75 325.491 1413.45 326.304 1413.26 327.131Z" fill="#A9733D"/>
<path d="M1413.09 312.27C1411.4 312.214 1409.64 312.786 1407.99 313.865C1407.44 314.225 1406.92 314.659 1406.57 315.467C1406.15 316.548 1406.28 317.977 1406.73 318.877C1407.69 320.826 1409.89 321.578 1411.39 321.753C1413.22 322.038 1415.07 321.476 1416.83 320.197C1418.96 318.608 1419.22 315.67 1417.34 313.967C1416.08 312.83 1414.57 312.301 1413.09 312.27Z" fill="#A9733D"/>
<path d="M1416.37 310.321C1416.54 310.341 1416.66 310.356 1416.83 310.375C1417.89 310.358 1418.99 309.991 1420.07 309.481C1420.52 309.251 1420.98 308.951 1421.37 308.502C1422.21 307.469 1422.43 305.587 1421.89 304.393C1421.33 303.055 1420.3 302.371 1419.36 301.766C1417.85 300.883 1416.14 300.683 1414.47 301.195C1413.41 301.566 1412.31 302.216 1411.48 303.532C1411.33 303.796 1411.17 304.061 1411.09 304.335C1411.01 304.678 1411.02 304.962 1411.06 305.321C1411.14 306.461 1411.59 307.361 1412.11 307.987C1412.63 308.613 1413.26 309.039 1413.89 309.396C1414.74 309.778 1415.49 310.219 1416.37 310.321Z" fill="#A9733D"/>
<path d="M1425.08 330.065C1424.63 333.616 1425.92 335.957 1428.43 336.25C1430.73 336.518 1433.44 333.584 1433.87 330.312C1434.26 327.319 1432.77 324.813 1430.4 324.465C1427.73 324.084 1425.56 326.374 1425.08 330.065Z" fill="#A9733D"/>
<path d="M1442.31 304.771C1446.63 310.239 1450.07 316.599 1444.6 320.924C1439.13 325.25 1431.19 324.324 1426.87 318.855C1422.54 313.386 1423.47 305.446 1428.94 301.12C1434.4 296.794 1437.98 299.302 1442.31 304.771Z" fill="#A9733D"/>
<path d="M1426.49 389.411C1426.43 389.606 1426.4 389.873 1426.38 390.073C1426.2 391.605 1426.62 393.208 1427.28 394.096C1427.95 394.984 1428.92 395.367 1429.89 395.346C1430.87 395.325 1431.81 394.827 1432.73 394.259C1433.61 393.686 1434.53 393.051 1435.23 391.917C1435.63 391.288 1435.96 390.516 1436.14 389.726C1436.65 387.084 1435.09 385.146 1433.79 384.455C1432.27 383.602 1430.65 384.02 1429.08 385.256C1428.46 385.724 1427.87 386.329 1427.37 387.149C1426.96 387.845 1426.67 388.621 1426.49 389.411Z" fill="#A9733D"/>
<path d="M1426.33 375.21C1424.72 375.157 1423.03 375.703 1421.45 376.735C1420.93 377.079 1420.43 377.494 1420.1 378.265C1419.7 379.299 1419.82 380.664 1420.25 381.524C1421.16 383.387 1423.27 384.105 1424.7 384.273C1426.45 384.545 1428.22 384.008 1429.9 382.786C1431.94 381.268 1432.19 378.46 1430.39 376.832C1429.18 375.745 1427.74 375.24 1426.33 375.21Z" fill="#A9733D"/>
<path d="M1429.46 373.348C1429.62 373.366 1429.74 373.38 1429.9 373.399C1430.91 373.382 1431.97 373.032 1433 372.545C1433.43 372.325 1433.87 372.038 1434.24 371.609C1435.04 370.622 1435.25 368.823 1434.74 367.682C1434.2 366.404 1433.22 365.749 1432.32 365.171C1430.88 364.328 1429.24 364.137 1427.64 364.626C1426.63 364.98 1425.59 365.601 1424.79 366.859C1424.64 367.112 1424.49 367.365 1424.42 367.626C1424.34 367.955 1424.35 368.226 1424.39 368.569C1424.47 369.658 1424.89 370.518 1425.39 371.116C1425.89 371.715 1426.49 372.123 1427.09 372.464C1427.9 372.828 1428.62 373.25 1429.46 373.348Z" fill="#A9733D"/>
<path d="M1437.79 392.215C1437.35 395.609 1438.59 397.847 1440.99 398.127C1443.18 398.383 1445.78 395.579 1446.18 392.452C1446.56 389.592 1445.14 387.197 1442.87 386.865C1440.32 386.5 1438.24 388.689 1437.79 392.215Z" fill="#A9733D"/>
<path d="M1454.25 368.043C1458.38 373.269 1461.67 379.346 1456.44 383.48C1451.22 387.614 1443.63 386.729 1439.49 381.503C1435.36 376.276 1436.24 368.688 1441.47 364.554C1446.7 360.42 1450.11 362.816 1454.25 368.043Z" fill="#A9733D"/>
<path d="M1367.14 445.46C1367.08 445.643 1367.05 445.893 1367.03 446.08C1366.86 447.518 1367.25 449.021 1367.88 449.854C1368.5 450.686 1369.41 451.046 1370.32 451.026C1371.24 451.006 1372.13 450.539 1372.99 450.006C1373.81 449.469 1374.68 448.873 1375.33 447.81C1375.7 447.22 1376.02 446.496 1376.18 445.755C1376.66 443.277 1375.2 441.46 1373.98 440.812C1372.56 440.012 1371.03 440.404 1369.57 441.563C1368.98 442.002 1368.42 442.57 1367.95 443.338C1367.57 443.991 1367.3 444.719 1367.14 445.46Z" fill="#A9733D"/>
<path d="M1366.98 432.141C1365.47 432.091 1363.89 432.604 1362.41 433.571C1361.92 433.893 1361.45 434.283 1361.14 435.006C1360.76 435.976 1360.88 437.256 1361.28 438.063C1362.14 439.81 1364.11 440.483 1365.46 440.641C1367.1 440.896 1368.75 440.392 1370.33 439.246C1372.24 437.822 1372.47 435.189 1370.79 433.662C1369.66 432.643 1368.31 432.169 1366.98 432.141Z" fill="#A9733D"/>
<path d="M1369.92 430.395C1370.07 430.413 1370.18 430.426 1370.33 430.443C1371.28 430.428 1372.27 430.099 1373.24 429.642C1373.64 429.436 1374.05 429.167 1374.4 428.765C1375.16 427.839 1375.35 426.152 1374.87 425.082C1374.36 423.883 1373.45 423.269 1372.6 422.727C1371.25 421.936 1369.71 421.757 1368.22 422.215C1367.27 422.548 1366.29 423.13 1365.54 424.31C1365.4 424.547 1365.26 424.784 1365.19 425.03C1365.12 425.338 1365.13 425.592 1365.17 425.913C1365.24 426.935 1365.64 427.742 1366.1 428.303C1366.57 428.864 1367.13 429.246 1367.7 429.566C1368.46 429.908 1369.13 430.303 1369.92 430.395Z" fill="#A9733D"/>
<path d="M1377.73 448.089C1377.32 451.272 1378.48 453.371 1380.73 453.633C1382.79 453.874 1385.22 451.244 1385.6 448.311C1385.95 445.628 1384.62 443.383 1382.49 443.071C1380.1 442.729 1378.15 444.782 1377.73 448.089Z" fill="#A9733D"/>
<path d="M1393.17 425.419C1397.04 430.321 1400.13 436.02 1395.22 439.897C1390.32 443.774 1383.21 442.944 1379.33 438.042C1375.45 433.141 1376.28 426.025 1381.18 422.148C1386.08 418.271 1389.29 420.518 1393.17 425.419Z" fill="#A9733D"/>
<path d="M1348.15 384.598C1348.09 384.781 1348.06 385.031 1348.04 385.218C1347.87 386.656 1348.26 388.158 1348.89 388.991C1349.51 389.824 1350.42 390.184 1351.33 390.164C1352.25 390.144 1353.14 389.677 1354 389.144C1354.82 388.607 1355.69 388.011 1356.34 386.948C1356.71 386.358 1357.03 385.634 1357.19 384.893C1357.67 382.415 1356.21 380.598 1354.99 379.949C1353.57 379.15 1352.04 379.542 1350.58 380.701C1349.99 381.139 1349.43 381.708 1348.96 382.476C1348.58 383.129 1348.31 383.857 1348.15 384.598Z" fill="#A9733D"/>
<path d="M1347.99 371.278C1346.48 371.229 1344.9 371.741 1343.42 372.708C1342.93 373.031 1342.46 373.42 1342.15 374.144C1341.77 375.113 1341.89 376.394 1342.29 377.2C1343.15 378.947 1345.12 379.621 1346.47 379.778C1348.11 380.033 1349.76 379.529 1351.34 378.383C1353.25 376.96 1353.48 374.326 1351.8 372.8C1350.67 371.781 1349.32 371.306 1347.99 371.278Z" fill="#A9733D"/>
<path d="M1350.93 369.532C1351.08 369.55 1351.19 369.563 1351.34 369.58C1352.29 369.565 1353.28 369.236 1354.25 368.779C1354.65 368.573 1355.06 368.304 1355.41 367.901C1356.17 366.976 1356.36 365.289 1355.88 364.219C1355.37 363.02 1354.46 362.406 1353.61 361.864C1352.26 361.073 1350.72 360.894 1349.23 361.352C1348.28 361.685 1347.3 362.267 1346.55 363.447C1346.41 363.684 1346.27 363.921 1346.2 364.166C1346.13 364.474 1346.14 364.729 1346.17 365.05C1346.25 366.072 1346.64 366.878 1347.11 367.44C1347.58 368.001 1348.14 368.383 1348.71 368.703C1349.47 369.045 1350.14 369.44 1350.93 369.532Z" fill="#A9733D"/>
<path d="M1358.74 387.227C1358.33 390.41 1359.49 392.509 1361.74 392.771C1363.8 393.011 1366.23 390.382 1366.61 387.449C1366.96 384.766 1365.63 382.52 1363.5 382.209C1361.11 381.866 1359.16 383.919 1358.74 387.227Z" fill="#A9733D"/>
<path d="M1374.18 364.557C1378.05 369.459 1381.14 375.158 1376.23 379.035C1371.33 382.912 1364.22 382.082 1360.34 377.18C1356.46 372.279 1357.29 365.162 1362.19 361.285C1367.1 357.408 1370.3 359.656 1374.18 364.557Z" fill="#A9733D"/>
<path d="M1301.74 455.761C1301.69 455.922 1301.66 456.142 1301.64 456.307C1301.49 457.572 1301.84 458.894 1302.39 459.627C1302.94 460.36 1303.74 460.676 1304.54 460.659C1305.35 460.641 1306.13 460.231 1306.89 459.762C1307.61 459.289 1308.37 458.765 1308.95 457.829C1309.28 457.309 1309.55 456.673 1309.7 456.02C1310.12 453.84 1308.83 452.241 1307.76 451.67C1306.51 450.966 1305.17 451.311 1303.88 452.331C1303.36 452.717 1302.87 453.217 1302.46 453.894C1302.12 454.468 1301.88 455.109 1301.74 455.761Z" fill="#A9733D"/>
<path d="M1301.6 444.04C1300.27 443.996 1298.88 444.447 1297.58 445.298C1297.15 445.582 1296.74 445.925 1296.46 446.562C1296.13 447.415 1296.23 448.541 1296.59 449.251C1297.34 450.789 1299.08 451.382 1300.26 451.52C1301.71 451.744 1303.16 451.301 1304.55 450.292C1306.23 449.04 1306.44 446.722 1304.96 445.379C1303.96 444.482 1302.77 444.065 1301.6 444.04Z" fill="#A9733D"/>
<path d="M1304.19 442.503C1304.32 442.519 1304.42 442.53 1304.55 442.546C1305.39 442.532 1306.26 442.243 1307.11 441.84C1307.46 441.659 1307.82 441.423 1308.13 441.068C1308.8 440.254 1308.97 438.769 1308.54 437.828C1308.1 436.772 1307.29 436.232 1306.55 435.755C1305.36 435.059 1304.01 434.901 1302.69 435.305C1301.85 435.598 1300.99 436.11 1300.34 437.148C1300.21 437.357 1300.09 437.565 1300.03 437.781C1299.96 438.053 1299.97 438.276 1300 438.559C1300.07 439.458 1300.42 440.168 1300.83 440.662C1301.24 441.156 1301.73 441.492 1302.24 441.774C1302.9 442.074 1303.5 442.423 1304.19 442.503Z" fill="#A9733D"/>
<path d="M1311.06 458.075C1310.7 460.876 1311.72 462.723 1313.7 462.954C1315.51 463.165 1317.66 460.851 1317.99 458.27C1318.3 455.909 1317.13 453.933 1315.25 453.659C1313.15 453.357 1311.44 455.164 1311.06 458.075Z" fill="#A9733D"/>
<path d="M1324.65 438.125C1328.06 442.438 1330.77 447.454 1326.46 450.866C1322.14 454.278 1315.88 453.547 1312.47 449.234C1309.06 444.92 1309.79 438.658 1314.1 435.246C1318.41 431.834 1321.23 433.812 1324.65 438.125Z" fill="#A9733D"/>
<path d="M1273.26 509.579C1273.22 509.704 1273.2 509.873 1273.18 510.001C1273.07 510.978 1273.34 511.999 1273.76 512.565C1274.19 513.131 1274.8 513.376 1275.42 513.362C1276.05 513.348 1276.65 513.031 1277.23 512.669C1277.79 512.304 1278.38 511.899 1278.83 511.176C1279.08 510.775 1279.29 510.283 1279.4 509.78C1279.73 508.096 1278.74 506.86 1277.91 506.42C1276.94 505.876 1275.91 506.142 1274.91 506.93C1274.51 507.229 1274.13 507.615 1273.81 508.137C1273.56 508.581 1273.37 509.075 1273.26 509.579Z" fill="#A9733D"/>
<path d="M1273.15 500.527C1272.12 500.493 1271.05 500.841 1270.05 501.499C1269.71 501.718 1269.4 501.982 1269.18 502.474C1268.93 503.133 1269.01 504.003 1269.28 504.551C1269.86 505.739 1271.2 506.197 1272.12 506.304C1273.23 506.477 1274.36 506.135 1275.43 505.356C1276.73 504.388 1276.89 502.598 1275.74 501.561C1274.97 500.868 1274.05 500.546 1273.15 500.527Z" fill="#A9733D"/>
<path d="M1275.15 499.34C1275.25 499.352 1275.33 499.361 1275.43 499.372C1276.08 499.362 1276.75 499.139 1277.4 498.828C1277.68 498.688 1277.96 498.505 1278.2 498.231C1278.71 497.602 1278.84 496.456 1278.51 495.729C1278.17 494.913 1277.55 494.496 1276.97 494.128C1276.05 493.59 1275.01 493.468 1273.99 493.78C1273.35 494.006 1272.68 494.402 1272.17 495.204C1272.08 495.365 1271.98 495.526 1271.94 495.693C1271.89 495.902 1271.89 496.075 1271.92 496.293C1271.97 496.988 1272.24 497.536 1272.55 497.917C1272.87 498.299 1273.25 498.559 1273.64 498.776C1274.16 499.009 1274.62 499.277 1275.15 499.34Z" fill="#A9733D"/>
<path d="M1280.46 511.367C1280.18 513.53 1280.97 514.956 1282.5 515.135C1283.9 515.298 1285.55 513.511 1285.81 511.518C1286.05 509.694 1285.14 508.168 1283.69 507.956C1282.07 507.723 1280.75 509.119 1280.46 511.367Z" fill="#A9733D"/>
<path d="M1290.95 495.958C1293.59 499.29 1295.68 503.164 1292.35 505.799C1289.02 508.434 1284.18 507.869 1281.54 504.538C1278.91 501.207 1279.47 496.37 1282.81 493.735C1286.14 491.1 1288.31 492.627 1290.95 495.958Z" fill="#A9733D"/>
<path d="M1322.45 490.08C1322.4 490.229 1322.38 490.433 1322.36 490.586C1322.22 491.758 1322.54 492.983 1323.05 493.662C1323.56 494.341 1324.3 494.634 1325.05 494.618C1325.79 494.602 1326.52 494.222 1327.22 493.787C1327.89 493.349 1328.59 492.863 1329.13 491.996C1329.43 491.515 1329.69 490.925 1329.82 490.32C1330.21 488.3 1329.02 486.818 1328.03 486.29C1326.87 485.638 1325.62 485.957 1324.43 486.902C1323.95 487.26 1323.5 487.723 1323.11 488.35C1322.8 488.882 1322.58 489.476 1322.45 490.08Z" fill="#A9733D"/>
<path d="M1322.32 479.22C1321.09 479.179 1319.8 479.597 1318.59 480.386C1318.19 480.649 1317.81 480.967 1317.56 481.557C1317.25 482.347 1317.35 483.391 1317.67 484.049C1318.37 485.473 1319.98 486.022 1321.08 486.151C1322.42 486.359 1323.77 485.948 1325.05 485.013C1326.61 483.852 1326.8 481.705 1325.43 480.461C1324.5 479.63 1323.4 479.243 1322.32 479.22Z" fill="#A9733D"/>
<path d="M1324.72 477.796C1324.84 477.811 1324.93 477.821 1325.05 477.836C1325.83 477.823 1326.63 477.555 1327.42 477.182C1327.75 477.014 1328.09 476.795 1328.37 476.467C1328.99 475.712 1329.15 474.336 1328.75 473.464C1328.34 472.486 1327.59 471.986 1326.9 471.544C1325.8 470.899 1324.55 470.753 1323.33 471.127C1322.55 471.398 1321.75 471.873 1321.15 472.835C1321.03 473.028 1320.92 473.221 1320.86 473.421C1320.8 473.673 1320.81 473.88 1320.84 474.142C1320.9 474.975 1321.22 475.633 1321.6 476.09C1321.98 476.548 1322.44 476.86 1322.91 477.12C1323.53 477.399 1324.08 477.722 1324.72 477.796Z" fill="#A9733D"/>
<path d="M1331.08 492.224C1330.75 494.819 1331.7 496.53 1333.53 496.744C1335.21 496.94 1337.19 494.796 1337.5 492.405C1337.79 490.217 1336.7 488.386 1334.97 488.132C1333.02 487.853 1331.43 489.527 1331.08 492.224Z" fill="#A9733D"/>
<path d="M1343.67 473.74C1346.83 477.736 1349.35 482.384 1345.35 485.545C1341.35 488.706 1335.55 488.029 1332.39 484.033C1329.23 480.036 1329.9 474.233 1333.9 471.072C1337.9 467.911 1340.51 469.743 1343.67 473.74Z" fill="#A9733D"/>
<path d="M1289.5 538.285C1289.46 538.389 1289.45 538.532 1289.43 538.639C1289.34 539.459 1289.56 540.317 1289.92 540.792C1290.27 541.267 1290.79 541.472 1291.31 541.461C1291.84 541.45 1292.34 541.183 1292.83 540.879C1293.3 540.573 1293.8 540.233 1294.17 539.626C1294.38 539.289 1294.56 538.876 1294.66 538.453C1294.93 537.039 1294.1 536.002 1293.4 535.632C1292.59 535.176 1291.72 535.399 1290.88 536.061C1290.55 536.311 1290.23 536.635 1289.96 537.074C1289.75 537.446 1289.59 537.862 1289.5 538.285Z" fill="#A9733D"/>
<path d="M1289.41 530.684C1288.54 530.655 1287.64 530.948 1286.8 531.5C1286.52 531.684 1286.25 531.906 1286.07 532.319C1285.86 532.872 1285.92 533.603 1286.15 534.063C1286.64 535.06 1287.77 535.445 1288.54 535.534C1289.47 535.68 1290.42 535.392 1291.32 534.738C1292.41 533.926 1292.54 532.423 1291.58 531.552C1290.93 530.97 1290.16 530.7 1289.41 530.684Z" fill="#A9733D"/>
<path d="M1291.08 529.687C1291.17 529.697 1291.23 529.705 1291.32 529.715C1291.86 529.706 1292.43 529.519 1292.98 529.257C1293.21 529.14 1293.44 528.986 1293.64 528.757C1294.07 528.229 1294.18 527.266 1293.91 526.655C1293.62 525.971 1293.1 525.621 1292.61 525.311C1291.84 524.86 1290.97 524.757 1290.11 525.019C1289.57 525.209 1289.01 525.541 1288.58 526.215C1288.5 526.35 1288.42 526.485 1288.39 526.625C1288.34 526.801 1288.35 526.946 1288.37 527.129C1288.41 527.713 1288.64 528.173 1288.9 528.493C1289.17 528.813 1289.49 529.032 1289.82 529.214C1290.25 529.409 1290.63 529.635 1291.08 529.687Z" fill="#A9733D"/>
<path d="M1295.54 539.786C1295.31 541.602 1295.97 542.8 1297.25 542.949C1298.43 543.087 1299.82 541.586 1300.03 539.912C1300.23 538.381 1299.47 537.1 1298.26 536.922C1296.89 536.726 1295.78 537.898 1295.54 539.786Z" fill="#A9733D"/>
<path d="M1304.35 526.848C1306.56 529.645 1308.32 532.897 1305.52 535.11C1302.73 537.323 1298.67 536.849 1296.45 534.051C1294.24 531.254 1294.71 527.193 1297.51 524.981C1300.31 522.768 1302.14 524.051 1304.35 526.848Z" fill="#A9733D"/>
</g>
<path fill-rule="evenodd" clip-rule="evenodd" d="M129.803 45.6283C138.952 39.8211 147.95 38.7534 156.727 44.6797C146.659 44.8445 139.007 57.083 129.803 45.6283ZM169.245 41.9908C181.41 37.1189 192.264 37.8483 201.399 46.8114C189.462 44.7913 177.644 57.6104 169.245 41.9908ZM147.015 63.6739C155.681 57.471 164.461 55.9611 173.378 61.3062C163.554 62.0038 156.72 74.393 147.062 63.6865L147.015 63.6739ZM180.145 66.314C191.595 61.7199 201.869 62.4122 210.421 70.8526C199.173 68.9654 188.058 81.0522 180.192 66.3265L180.145 66.314ZM162.925 77.8642C175.09 72.9923 185.944 73.7217 195.064 82.6806C183.064 80.6438 171.246 93.4629 162.925 77.8642ZM203.192 85.3929C212.602 78.4349 222.204 76.6254 232.102 82.3315C221.256 83.1922 213.968 97.0149 203.161 85.3846L203.192 85.3929ZM196.237 97.5491C204.312 107.818 214.079 112.571 226.497 109.32C215.074 105.147 211.304 88.1676 196.205 97.5408L196.237 97.5491ZM170.472 92.5219C184.403 95.9576 193.565 103.574 195.792 117.285C186.487 107.826 167.728 111.664 170.441 92.5136L170.472 92.5219ZM211.013 129.538C223.216 134.252 234.133 133.377 243.085 124.309C231.077 126.481 219.103 113.806 210.95 129.521L211.013 129.538ZM233.092 102.115C243.956 105.555 253.377 104.165 260.643 95.8516C250.321 98.3891 239.253 87.9762 233.029 102.099L233.092 102.115ZM197.264 130.295C202.832 138.31 204.05 146.338 198.916 154.366C198.472 145.407 187.104 138.909 197.264 130.295ZM184.474 119.207C186.6 133.293 183.021 144.609 171.1 151.885C176.342 139.775 165.603 124.085 184.462 119.254L184.474 119.207ZM167.903 114.134C166.47 129.797 159.644 141.035 144.94 145.766C153.762 134.123 146.316 114.412 167.903 114.134ZM149.112 96.3867C150.062 112.082 144.97 124.198 131.153 131.071C138.187 118.251 127.92 99.8784 149.175 96.4034L149.112 96.3867ZM122.697 70.8805C129.83 79.4617 132.062 88.4114 127.163 98.0058C125.704 87.8746 112.168 81.6692 122.697 70.8805ZM91.8871 76.6121C97.7623 86.0455 105.628 90.9777 116.387 89.3755C107.15 84.7808 105.591 70.0938 91.9343 76.6246L91.8871 76.6121ZM111.673 96.9132C118.806 105.494 121.038 114.444 116.139 124.038C114.618 113.891 101.069 107.732 111.645 96.9558L111.673 96.9132ZM98.1703 99.6913C89.8201 107.031 86.2534 115.559 89.6905 125.849C92.6435 116.038 106.97 111.958 98.142 99.7339L98.1703 99.6913ZM84.5806 88.5079C86.999 100.449 84.4339 110.195 74.5414 117.008C78.4816 106.474 68.633 93.4773 84.5523 88.5505L84.5806 88.5079ZM75.5633 75.3646C64.853 78.0327 57.7907 83.91 56.1156 94.4783C63.2131 87.2232 77.6691 90.1469 75.535 75.4072L75.5633 75.3646ZM93.6982 26.3706C103.296 21.3344 112.36 21.0197 120.607 27.6577C110.522 27.0155 101.886 38.5916 93.6698 26.4132L93.6982 26.3706Z" fill="#89A829"/>
<path d="M151.309 85.4032C154.362 88.6459 156.856 91.5766 158.736 94.0192C156.676 91.487 154.177 88.5714 151.309 85.4032C136.029 69.173 106.755 45.1268 70.5013 35.3463C27.0041 23.6117 5.04391 15 -0.499023 12.161V0.804932C8.87505 6.40666 36.1988 19.6746 70.5013 27.9324C100.131 35.0653 133.126 65.3146 151.309 85.4032Z" fill="#D9D9D9"/>
</g>
<path fill-rule="evenodd" clip-rule="evenodd" d="M1878.17 975.545C1883.84 976.339 1889.32 978.168 1894.33 980.941C1893.71 979.374 1893.08 977.786 1892.46 976.25C1902.08 983.812 1908.03 993.078 1909.55 1004.39L1911.19 992.426C1913.92 1007.03 1911.95 1019.16 1901.59 1026.9L1904.96 1026.54C1888.87 1049.22 1844.49 1049.79 1829.06 1022.28C1831.48 1028.17 1832.56 1036.78 1828.3 1039.9L1759.67 1042.61L1733.9 1041.91H1702.06C1698.52 1041.91 1697.11 1036.88 1700.41 1033.71L1714.7 1024.09C1718.51 1008.18 1718.42 985.673 1709.71 972.474C1722.89 982.823 1723.19 1010.66 1720.75 1025.26C1719.42 1030.14 1714.65 1034.19 1709.78 1036.99C1715.03 1034.96 1719.64 1031.56 1723.13 1027.13C1726.05 999.072 1723.13 977.27 1706.09 966.132C1706.2 967.763 1706.32 969.393 1706.45 971.023C1701.53 967.71 1697.32 960.369 1695.78 953.47C1696.04 956.194 1696.29 958.928 1696.55 961.652C1691.7 954.839 1688.77 946.849 1688.05 938.514C1687.65 940.891 1687.26 943.268 1686.88 945.645C1684.83 938.087 1684.01 930.251 1684.44 922.433L1682.8 931.794C1679.22 917.08 1685.74 902.472 1693.1 887.842C1701.61 877.514 1705.7 867.67 1688.65 860.161C1680.86 858.762 1677.84 855.092 1678.31 849.044H1682.51L1678.85 844.837C1677.62 841.072 1677.8 833.92 1679.44 833.489L1702.69 838.748C1709.48 834.397 1717.41 832.157 1725.47 832.311L1721.38 829.619V826.106L1714.95 823.067C1724.26 819.912 1729.83 822.94 1732.59 830.671C1737.81 827.635 1741.62 822.411 1744.04 815C1749.16 823.561 1748.88 843.649 1748.91 863.053C1749.97 864.208 1751.3 865.079 1752.78 865.588C1751.35 865.718 1749.9 865.498 1748.58 864.946C1749.67 869.248 1751.71 873.251 1754.55 876.662L1750.05 875.548C1751.24 881.574 1754.38 887.064 1759.01 892.154L1754.32 889.683C1756.07 894.806 1759.29 899.298 1763.57 902.598C1810.19 931.447 1827.45 963.966 1834.06 997.81C1840.1 1016.54 1881.57 1024.31 1882.61 999.346C1880.31 995.37 1878.02 991.395 1875.72 987.419L1883.3 990.101C1882.33 985 1880.56 980.084 1878.05 975.535" fill="#B3D0E7"/>
<path fill-rule="evenodd" clip-rule="evenodd" d="M1778.45 998.725C1753.82 1005.73 1756.94 1022.57 1771.68 1039.4C1751.27 1025.91 1748.47 1000.61 1778.45 998.725ZM1803.04 1002.11C1805.34 1014.49 1803.04 1026.87 1797.44 1039.25C1818.75 1037.77 1824.39 1018.51 1803.04 1002.11ZM1735.62 1043.13C1735.62 1036.9 1736.81 1035.71 1740.48 1030.6C1740.99 1017.12 1736.91 1005.12 1731.35 993.603C1726.31 983.16 1732.87 966.196 1731.65 953.512C1732.58 953.203 1733.44 952.704 1734.18 952.045C1734.91 951.386 1735.5 950.582 1735.91 949.684C1727.92 951.398 1721.59 949.62 1719.87 938.188C1719.23 935.864 1719.27 934.276 1721.64 933.319L1727.37 931.699C1727.89 929.028 1729.15 925.284 1732.62 923.685L1736.52 923.096C1736.25 920.265 1736.53 917.41 1737.33 914.682C1739.84 915.934 1741.82 918.046 1742.91 920.635H1744.67C1744.67 917.566 1745.74 914.593 1747.68 912.221C1755.79 923.022 1762.54 936.011 1765.54 955.068L1793.62 983.244C1795.18 979.815 1797.87 977.022 1801.23 975.325C1809.15 971.738 1811.19 980.846 1806.6 982.087C1802.26 983.907 1800.18 988.292 1803.07 991.279C1822.18 1002.92 1835.72 1029.06 1813.87 1043.03L1735.62 1043.13Z" fill="white"/>
</svg>
