<svg width="18" height="34" viewBox="0 0 18 34" fill="none" xmlns="http://www.w3.org/2000/svg">
<path d="M12.1464 1.13617L12.1377 1.13647L12.129 1.13738L12.1238 1.13792C12.0863 1.14177 12.0139 1.14919 11.9354 1.18479C11.8809 1.20953 11.8311 1.24385 11.7842 1.2877L11.5756 1.30949C11.3277 1.33541 11.1251 1.39786 10.9449 1.45391C10.504 1.54271 10.1484 1.7051 9.80589 1.94512L9.80581 1.94501L9.79915 1.95001C9.52562 2.15561 9.20592 2.40409 8.95694 2.69998C8.65106 2.39598 8.3432 2.165 8.16476 2.03113C8.11497 1.99377 8.07525 1.96397 8.04847 1.94226L8.03467 1.93107L8.01943 1.92195C7.34319 1.51719 6.54928 1.23401 5.73226 1.23643C4.03756 1.1745 2.33002 2.11326 1.52053 3.64753C1.10298 4.3488 0.924657 5.29218 0.971737 6.12362L0.971799 6.12465C1.02729 7.03764 1.31271 7.86098 1.87288 8.53846C2.30901 9.10646 2.90041 9.65745 3.55795 10.0556C4.15026 10.4143 4.81261 10.6586 5.4729 10.6626C5.72757 11.7655 5.92459 12.6951 6.01204 13.5317L6.01191 13.5317L6.013 13.5397C6.17 14.6836 6.18734 15.9225 6.1628 17.1394C6.11294 18.4546 5.89973 19.6401 5.6689 20.6845C5.43909 21.6177 5.18082 22.5783 4.79224 23.5511C3.5064 23.8028 2.32802 24.594 1.66057 25.6764C0.69077 27.1442 0.648608 29.0764 1.52464 30.5207C2.32516 31.9723 3.94497 32.8442 5.55053 32.8375C6.11123 32.8408 6.79569 32.6652 7.43826 32.3872C7.98931 32.1488 8.52908 31.8268 8.95019 31.4547C9.6551 32.269 10.6392 32.7337 11.9649 32.8861L11.9649 32.8862L11.9677 32.8864C13.5372 33.0492 15.2427 32.1006 16.0922 30.6147C16.1129 30.5845 16.1266 30.5551 16.1339 30.5388C16.1409 30.5235 16.1493 30.5036 16.1558 30.4878C16.1584 30.4817 16.1607 30.4762 16.1626 30.4719C16.1807 30.4293 16.1928 30.4073 16.203 30.3948L16.2209 30.3726L16.2334 30.3471C16.5643 29.6698 16.7275 28.9308 16.7322 28.2087L16.7323 28.2087L16.7322 28.2037C16.7203 27.3226 16.4706 26.4657 16.0332 25.7467L16.0321 25.7449C15.3285 24.6096 14.1808 23.8686 12.8941 23.5521C12.5408 22.5436 12.2641 21.5964 12.0562 20.6438C11.8318 19.5761 11.6738 18.4254 11.608 17.0746L11.6081 17.0746L11.6076 17.0683C11.5169 15.8422 11.5818 14.6728 11.7553 13.4494L11.7553 13.4495L11.7561 13.4429C11.8315 12.787 12.1421 11.9072 12.4744 11.071C12.5543 10.8832 12.6225 10.6889 12.6844 10.5061C12.6992 10.4624 12.7136 10.4196 12.7276 10.3777C12.7539 10.2993 12.7792 10.2241 12.8042 10.1522C13.9962 10.0928 15.1898 9.5235 15.9387 8.51601C17.0451 7.14768 17.2001 5.16021 16.3181 3.63667C15.546 2.06651 13.8735 1.07657 12.1464 1.13617ZM8.51984 4.05928L8.53994 4.08795L8.56713 4.11C8.57193 4.11389 8.5768 4.11785 8.58174 4.12188C8.69789 4.21648 8.8545 4.34404 9.10937 4.3174C9.22386 4.30543 9.33707 4.26518 9.43068 4.20139C9.51732 4.14236 9.60624 4.04917 9.64161 3.92031C9.79668 3.51859 10.1257 3.17729 10.5605 2.88049C10.8103 2.72174 11.0685 2.62464 11.3524 2.5212C11.4901 2.50668 11.646 2.48826 11.8314 2.43303L12.0337 2.41189L12.1467 2.40008L12.2523 2.38904C13.435 2.33858 14.6856 3.09071 15.2626 4.20062C15.8395 5.31022 15.7412 6.77469 14.9305 7.7746L14.9303 7.7744L14.9229 7.78449C14.3435 8.57707 13.3724 8.99531 12.4184 8.92031C12.1016 8.89175 11.8289 9.10408 11.7347 9.35481L11.7345 9.35475L11.7316 9.36353C11.5868 9.79682 11.4435 10.2256 11.2672 10.6948C10.9012 11.5729 10.5672 12.5063 10.4569 13.3503C10.2794 14.603 10.2204 15.8812 10.2796 17.1847L10.2795 17.1847L10.2801 17.1926C10.388 18.5891 10.5148 19.8097 10.7875 20.943C10.9773 22.0096 11.3269 23.1305 11.7982 24.3442L11.7979 24.3444L11.8036 24.357C11.8477 24.4541 11.9188 24.5361 11.9942 24.5972C12.0696 24.6583 12.1645 24.711 12.2686 24.734L12.2808 24.7367L12.2932 24.7382C13.4122 24.8708 14.3681 25.5195 14.8826 26.3846L14.8825 26.3847L14.8867 26.3912C15.2293 26.9283 15.4332 27.5442 15.4291 28.1751L15.4288 28.1751L15.4294 28.1881C15.4561 28.7762 15.276 29.3977 14.9729 29.9322C14.3378 31.0341 13.1687 31.6726 12.1291 31.5785C10.828 31.3839 10.028 30.8986 9.5986 30.0597C9.51354 29.8784 9.30125 29.6967 9.0227 29.7258C8.92658 29.7359 8.82975 29.7581 8.73609 29.8059C8.64136 29.8541 8.56243 29.922 8.49345 30.0071L8.47966 30.0241L8.46904 30.0433C8.28191 30.3805 7.79969 30.7608 7.21048 31.0604C6.62597 31.3575 6.00386 31.5408 5.58493 31.5344L5.58493 31.5343L5.57774 31.5344C4.40635 31.5502 3.20634 30.8901 2.68437 29.8988L2.67952 29.8896L2.67393 29.8808C2.09489 28.9731 2.0907 27.7075 2.5816 26.6922C2.63899 26.6167 2.67555 26.5457 2.70217 26.4923C2.73551 26.4254 2.74511 26.4062 2.75727 26.3912L2.76512 26.3816L2.77197 26.3711C3.32357 25.5321 4.29216 24.8937 5.38291 24.7429C5.49586 24.7304 5.60733 24.6904 5.69971 24.6274C5.78605 24.5686 5.87465 24.4758 5.91026 24.3477C6.36129 23.1942 6.7392 22.0434 6.97474 20.979C7.24468 19.8699 7.42992 18.6932 7.50707 17.2238L7.50715 17.2222C7.56621 15.9452 7.50715 14.6424 7.33788 13.3893C7.2339 12.3974 7.005 11.3094 6.68061 10.0161C6.68037 10.0137 6.68013 10.0113 6.67989 10.0089C6.6671 9.88005 6.6498 9.70584 6.4843 9.57166C6.39921 9.50268 6.30794 9.45256 6.20528 9.42492C6.10377 9.39759 6.00443 9.39583 5.90832 9.40588L5.89945 9.4068L5.89067 9.40836C5.44733 9.48695 4.89001 9.3419 4.33307 9.03074C3.78129 8.72246 3.26388 8.26955 2.90863 7.78673L2.90709 7.78469C2.54177 7.29868 2.33246 6.68199 2.2652 6.03846C2.19982 5.41301 2.34351 4.76326 2.63993 4.24082L2.64005 4.24089L2.6438 4.23375C3.23602 3.10682 4.47522 2.37559 5.71416 2.42238L5.71416 2.42242L5.71855 2.42251C6.28216 2.4339 6.89841 2.61596 7.34598 2.913C7.36936 2.93171 7.39832 2.95409 7.4319 2.98004C7.67373 3.16692 8.15527 3.53904 8.51984 4.05928Z" fill="white" stroke="white" stroke-width="0.5"/>
</svg>
