<svg width="1920" height="1256" viewBox="0 0 1920 1256" fill="none" xmlns="http://www.w3.org/2000/svg">
<rect width="1920" height="1256" transform="matrix(-1 -8.74228e-08 -8.74228e-08 1 1920 -6.10352e-05)" fill="white"/>
<mask id="mask0_20_286" style="mask-type:alpha" maskUnits="userSpaceOnUse" x="0" y="0" width="1921" height="1256">
<rect width="1920" height="1256" transform="matrix(-1 -8.74228e-08 -8.74228e-08 1 1920 0.00012207)" fill="#F7FCFF"/>
</mask>
<g mask="url(#mask0_20_286)">
<g opacity="0.2">
<path d="M1933 171C1928.85 170.205 1924.27 170.934 1919.76 172.963C1918.26 173.639 1916.81 174.513 1915.63 176.375C1914.16 178.886 1913.93 182.472 1914.68 184.873C1916.3 190.07 1921.45 192.786 1925.11 193.806C1929.53 195.223 1934.31 194.55 1939.17 192.07C1945.07 188.97 1946.85 181.8 1942.86 176.855C1940.17 173.549 1936.65 171.653 1933 171Z" fill="#A9733D"/>
<path d="M1825.98 91.2963C1825.88 91.8334 1825.91 92.5455 1825.92 93.0796C1826.04 97.1741 1827.76 101.222 1829.85 103.299C1831.94 105.377 1834.63 106.011 1837.18 105.58C1839.73 105.15 1842.04 103.479 1844.22 101.634C1846.31 99.7916 1848.49 97.7681 1849.89 94.5203C1850.7 92.7152 1851.27 90.5603 1851.43 88.4179C1851.75 81.2815 1846.92 76.7896 1843.25 75.471C1838.93 73.815 1834.81 75.5383 1831.18 79.3854C1829.73 80.853 1828.4 82.6736 1827.4 85.0189C1826.6 87.002 1826.13 89.1538 1825.98 91.2963Z" fill="#A9733D"/>
<path d="M1820.08 54.0514C1815.82 54.5316 1811.61 56.6141 1807.86 59.9302C1806.61 61.0356 1805.47 62.3159 1804.9 64.4708C1804.23 67.3409 1805.08 70.8796 1806.53 72.9755C1809.66 77.5171 1815.46 78.5956 1819.3 78.4838C1824 78.5252 1828.43 76.4365 1832.37 72.5801C1837.15 67.8087 1836.72 60.338 1831.38 56.7517C1827.78 54.3618 1823.81 53.5866 1820.08 54.0514Z" fill="#A9733D"/>
<path d="M1827.6 47.9532C1828.02 47.9408 1828.34 47.9315 1828.77 47.919C1831.43 47.4854 1834.06 46.1616 1836.58 44.4849C1837.62 43.7417 1838.67 42.8206 1839.48 41.5496C1841.22 38.6484 1841.08 33.8419 1839.28 31.0432C1837.38 27.8916 1834.56 26.5482 1831.96 25.3765C1827.85 23.7143 1823.48 23.8416 1819.47 25.7398C1816.95 27.0605 1814.44 29.0933 1812.84 32.7034C1812.54 33.4248 1812.24 34.1462 1812.15 34.8614C1812.07 35.7546 1812.2 36.4636 1812.44 37.3475C1813.06 40.1803 1814.51 42.2762 1816.04 43.6569C1817.58 45.0376 1819.31 45.878 1821.04 46.5404C1823.3 47.1873 1825.36 48.0184 1827.6 47.9532Z" fill="#A9733D"/>
<path d="M1856.72 94.3223C1856.88 103.405 1860.99 108.808 1867.4 108.622C1873.27 108.451 1879.01 100.088 1878.87 91.7182C1878.75 84.0602 1874.1 78.3159 1868.01 78.3149C1861.17 78.3356 1856.56 84.8841 1856.72 94.3223Z" fill="#A9733D"/>
<path d="M1890.67 24.494C1903.54 36.6349 1914.51 51.3372 1902.37 64.2058C1890.23 77.0743 1869.95 77.6641 1857.08 65.5232C1844.22 53.3822 1843.62 33.108 1855.77 20.2394C1867.91 7.37087 1877.8 12.353 1890.67 24.494Z" fill="#A9733D"/>
<path d="M1800.27 254.906C1800.18 255.409 1800.2 256.077 1800.22 256.577C1800.33 260.415 1801.94 264.209 1803.9 266.156C1805.86 268.102 1808.38 268.697 1810.77 268.294C1813.16 267.89 1815.32 266.324 1817.37 264.595C1819.32 262.868 1821.37 260.972 1822.68 257.928C1823.44 256.236 1823.98 254.216 1824.12 252.208C1824.43 245.52 1819.9 241.31 1816.46 240.074C1812.41 238.522 1808.55 240.137 1805.15 243.743C1803.79 245.118 1802.54 246.825 1801.6 249.023C1800.85 250.881 1800.41 252.898 1800.27 254.906Z" fill="#A9733D"/>
<path d="M1794.75 219.999C1790.75 220.45 1786.81 222.401 1783.29 225.509C1782.12 226.545 1781.05 227.745 1780.51 229.765C1779.89 232.455 1780.69 235.771 1782.05 237.736C1784.97 241.992 1790.41 243.003 1794.01 242.898C1798.42 242.937 1802.57 240.979 1806.27 237.365C1810.74 232.893 1810.34 225.891 1805.33 222.53C1801.96 220.29 1798.24 219.564 1794.75 219.999Z" fill="#A9733D"/>
<path d="M1801.79 214.284C1802.19 214.272 1802.49 214.263 1802.89 214.252C1805.38 213.845 1807.85 212.604 1810.21 211.033C1811.19 210.337 1812.16 209.473 1812.93 208.282C1814.55 205.563 1814.42 201.058 1812.74 198.435C1810.95 195.481 1808.31 194.222 1805.88 193.124C1802.03 191.566 1797.93 191.686 1794.17 193.465C1791.81 194.702 1789.46 196.608 1787.96 199.991C1787.68 200.667 1787.39 201.343 1787.31 202.014C1787.24 202.851 1787.36 203.515 1787.58 204.344C1788.16 206.999 1789.52 208.963 1790.96 210.257C1792.4 211.551 1794.02 212.339 1795.64 212.96C1797.76 213.566 1799.69 214.345 1801.79 214.284Z" fill="#A9733D"/>
<path d="M1829.09 257.743C1829.24 266.255 1833.09 271.319 1839.09 271.145C1844.59 270.985 1849.97 263.147 1849.84 255.302C1849.73 248.125 1845.37 242.741 1839.66 242.74C1833.26 242.759 1828.93 248.897 1829.09 257.743Z" fill="#A9733D"/>
<path d="M1860.91 192.857C1872.97 204.236 1883.25 218.015 1871.87 230.076C1860.49 242.137 1841.49 242.689 1829.43 231.31C1817.36 219.932 1816.81 200.93 1828.19 188.869C1839.57 176.808 1848.84 181.478 1860.91 192.857Z" fill="#A9733D"/>
<path d="M1575.82 200.048C1575.66 200.455 1575.57 201.017 1575.5 201.438C1574.96 204.668 1575.69 208.107 1577.01 210.057C1578.33 212.008 1580.34 212.919 1582.41 212.973C1584.48 213.027 1586.54 212.071 1588.54 210.96C1590.46 209.835 1592.48 208.584 1594.08 206.251C1594.99 204.959 1595.77 203.358 1596.22 201.701C1597.57 196.154 1594.47 191.888 1591.79 190.29C1588.66 188.327 1585.17 189.047 1581.73 191.507C1580.37 192.435 1579.04 193.657 1577.89 195.343C1576.96 196.776 1576.26 198.391 1575.82 200.048Z" fill="#A9733D"/>
<path d="M1576.92 169.932C1573.5 169.654 1569.88 170.64 1566.43 172.665C1565.28 173.34 1564.19 174.169 1563.4 175.771C1562.44 177.92 1562.57 180.826 1563.38 182.692C1565.13 186.734 1569.52 188.471 1572.55 188.974C1576.23 189.729 1580.02 188.771 1583.71 186.353C1588.19 183.344 1589 177.418 1585.36 173.785C1582.91 171.359 1579.91 170.14 1576.92 169.932Z" fill="#A9733D"/>
<path d="M1583.75 166.305C1584.08 166.361 1584.34 166.403 1584.67 166.459C1586.82 166.527 1589.09 165.893 1591.32 164.964C1592.26 164.542 1593.22 163.98 1594.05 163.108C1595.86 161.099 1596.49 157.307 1595.51 154.837C1594.5 152.071 1592.5 150.585 1590.64 149.267C1587.67 147.332 1584.22 146.759 1580.79 147.633C1578.6 148.281 1576.33 149.49 1574.51 152.076C1574.17 152.595 1573.82 153.115 1573.65 153.663C1573.44 154.351 1573.44 154.927 1573.49 155.657C1573.54 157.974 1574.35 159.841 1575.34 161.16C1576.34 162.479 1577.57 163.404 1578.82 164.189C1580.5 165.044 1581.98 166.012 1583.75 166.305Z" fill="#A9733D"/>
<path d="M1599.47 207.145C1598.19 214.293 1600.59 219.163 1605.64 220C1610.27 220.768 1616.06 215.091 1617.24 208.505C1618.32 202.481 1615.55 197.261 1610.78 196.325C1605.41 195.29 1600.78 199.717 1599.47 207.145Z" fill="#A9733D"/>
<path d="M1636.82 157.594C1645.05 169.094 1651.39 182.31 1639.89 190.538C1628.4 198.765 1612.4 196.113 1604.17 184.613C1595.95 173.114 1598.6 157.122 1610.1 148.894C1621.6 140.667 1628.59 146.095 1636.82 157.594Z" fill="#A9733D"/>
<path d="M1674.44 278.927C1674.29 279.334 1674.2 279.896 1674.13 280.317C1673.59 283.547 1674.32 286.986 1675.64 288.936C1676.96 290.886 1678.97 291.797 1681.04 291.851C1683.1 291.906 1685.17 290.949 1687.17 289.838C1689.08 288.713 1691.11 287.462 1692.71 285.13C1693.61 283.838 1694.4 282.236 1694.85 280.579C1696.2 275.032 1693.1 270.767 1690.42 269.169C1687.29 267.206 1683.79 267.925 1680.36 270.385C1678.99 271.313 1677.67 272.536 1676.52 274.222C1675.59 275.654 1674.89 277.27 1674.44 278.927Z" fill="#A9733D"/>
<path d="M1675.55 248.81C1672.13 248.532 1668.51 249.518 1665.06 251.543C1663.91 252.218 1662.82 253.047 1662.03 254.648C1661.07 256.797 1661.19 259.703 1662.01 261.57C1663.76 265.612 1668.14 267.349 1671.18 267.852C1674.86 268.606 1678.65 267.648 1682.34 265.23C1686.82 262.222 1687.63 256.296 1683.99 252.663C1681.54 250.236 1678.54 249.018 1675.55 248.81Z" fill="#A9733D"/>
<path d="M1682.38 245.184C1682.71 245.24 1682.97 245.282 1683.3 245.338C1685.45 245.406 1687.72 244.772 1689.95 243.843C1690.89 243.421 1691.85 242.859 1692.68 241.987C1694.49 239.978 1695.12 236.186 1694.14 233.716C1693.13 230.95 1691.13 229.464 1689.27 228.146C1686.3 226.21 1682.85 225.638 1679.42 226.512C1677.23 227.16 1674.96 228.369 1673.14 230.955C1672.8 231.474 1672.45 231.994 1672.27 232.542C1672.07 233.23 1672.07 233.806 1672.12 234.536C1672.17 236.853 1672.98 238.72 1673.97 240.039C1674.97 241.358 1676.2 242.283 1677.45 243.068C1679.13 243.923 1680.61 244.891 1682.38 245.184Z" fill="#A9733D"/>
<path d="M1698.1 286.024C1696.82 293.171 1699.22 298.041 1704.27 298.879C1708.9 299.647 1714.69 293.969 1715.86 287.384C1716.95 281.36 1714.18 276.139 1709.41 275.203C1704.04 274.169 1699.41 278.595 1698.1 286.024Z" fill="#A9733D"/>
<path d="M1735.45 236.474C1743.68 247.974 1750.02 261.19 1738.52 269.417C1727.02 277.645 1711.03 274.992 1702.8 263.493C1694.58 251.993 1697.23 236.002 1708.73 227.774C1720.23 219.547 1727.22 224.975 1735.45 236.474Z" fill="#A9733D"/>
<path d="M1691.66 135.213C1691.5 135.62 1691.41 136.182 1691.34 136.603C1690.8 139.833 1691.53 143.272 1692.85 145.222C1694.17 147.172 1696.18 148.083 1698.25 148.137C1700.32 148.192 1702.38 147.235 1704.38 146.124C1706.3 144.999 1708.32 143.748 1709.92 141.416C1710.83 140.124 1711.61 138.522 1712.06 136.865C1713.41 131.318 1710.31 127.053 1707.64 125.455C1704.5 123.492 1701.01 124.211 1697.57 126.671C1696.21 127.599 1694.88 128.822 1693.73 130.508C1692.81 131.94 1692.1 133.556 1691.66 135.213Z" fill="#A9733D"/>
<path d="M1692.76 105.096C1689.34 104.819 1685.72 105.805 1682.27 107.83C1681.12 108.504 1680.03 109.334 1679.25 110.935C1678.28 113.084 1678.41 115.99 1679.22 117.857C1680.97 121.899 1685.36 123.636 1688.39 124.138C1692.07 124.893 1695.86 123.935 1699.55 121.517C1704.03 118.508 1704.84 112.583 1701.2 108.95C1698.75 106.523 1695.75 105.304 1692.76 105.096Z" fill="#A9733D"/>
<path d="M1699.59 101.47C1699.93 101.526 1700.18 101.568 1700.52 101.624C1702.67 101.692 1704.94 101.058 1707.17 100.129C1708.1 99.7072 1709.06 99.1446 1709.9 98.2733C1711.7 96.2637 1712.33 92.4719 1711.35 90.0015C1710.34 87.2363 1708.34 85.7497 1706.48 84.4315C1703.51 82.4965 1700.06 81.924 1696.63 82.7977C1694.45 83.4456 1692.17 84.6552 1690.36 87.2405C1690.01 87.7604 1689.66 88.2802 1689.49 88.828C1689.29 89.5162 1689.28 90.0919 1689.33 90.822C1689.38 93.1388 1690.19 95.0056 1691.19 96.3246C1692.18 97.6436 1693.41 98.5692 1694.66 99.3544C1696.34 100.209 1697.82 101.177 1699.59 101.47Z" fill="#A9733D"/>
<path d="M1715.31 142.31C1714.04 149.457 1716.43 154.327 1721.48 155.165C1726.11 155.933 1731.9 150.256 1733.08 143.67C1734.16 137.646 1731.4 132.426 1726.62 131.489C1721.25 130.455 1716.63 134.882 1715.31 142.31Z" fill="#A9733D"/>
<path d="M1752.67 92.7598C1760.89 104.259 1767.24 117.475 1755.74 125.703C1744.24 133.93 1728.25 131.278 1720.02 119.778C1711.79 108.279 1714.44 92.2872 1725.94 84.0598C1737.44 75.8323 1744.44 81.2603 1752.67 92.7598Z" fill="#A9733D"/>
</g>
<path fill-rule="evenodd" clip-rule="evenodd" d="M242.527 88.4275C259.556 77.6187 276.303 75.6315 292.639 86.6618C273.9 86.9686 259.658 109.748 242.527 88.4275ZM315.939 81.6572C338.58 72.5893 358.783 73.9468 375.786 90.6296C353.568 86.8697 331.572 110.729 315.939 81.6572ZM274.562 122.015C290.692 110.47 307.035 107.66 323.631 117.608C305.345 118.907 292.627 141.966 274.649 122.038L274.562 122.015ZM336.226 126.929C357.537 118.378 376.66 119.667 392.578 135.377C371.641 131.864 350.954 154.361 336.314 126.952L336.226 126.929ZM304.176 148.427C326.818 139.359 347.02 140.717 363.994 157.392C341.659 153.601 319.663 177.46 304.176 148.427ZM379.123 162.44C396.637 149.489 414.509 146.121 432.931 156.742C412.745 158.344 399.18 184.071 379.065 162.424L379.123 162.44ZM366.177 185.066C381.207 204.179 399.387 213.025 422.499 206.975C401.238 199.207 394.221 167.604 366.119 185.05L366.177 185.066ZM318.223 175.709C344.151 182.104 361.204 196.28 365.348 221.8C348.03 204.194 313.115 211.337 318.164 175.693L318.223 175.709ZM393.68 244.605C416.393 253.38 436.712 251.751 453.374 234.873C431.023 238.916 408.737 215.323 393.563 244.574L393.68 244.605ZM434.775 193.565C454.994 199.966 472.531 197.38 486.053 181.906C466.843 186.629 446.241 167.248 434.658 193.534L434.775 193.565ZM368.09 246.014C378.452 260.932 380.719 275.875 371.165 290.817C370.338 274.142 349.179 262.047 368.09 246.014ZM344.284 225.377C348.24 251.594 341.579 272.656 319.391 286.199C329.147 263.659 309.16 234.455 344.26 225.464L344.284 225.377ZM313.441 215.934C310.773 245.087 298.068 266.004 270.7 274.811C287.12 253.14 273.262 216.452 313.441 215.934ZM278.466 182.902C280.234 212.115 270.756 234.667 245.039 247.459C258.131 223.597 239.022 189.401 278.583 182.933L278.466 182.902ZM229.3 135.428C242.576 151.4 246.731 168.058 237.612 185.916C234.898 167.059 209.704 155.509 229.3 135.428ZM171.955 146.097C182.89 163.655 197.531 172.835 217.556 169.853C200.364 161.301 197.462 133.964 172.043 146.12L171.955 146.097ZM208.782 183.882C222.058 199.854 226.213 216.512 217.094 234.369C214.263 215.482 189.045 204.019 208.729 183.961L208.782 183.882ZM183.65 189.053C168.108 202.714 161.469 218.587 167.866 237.739C173.363 219.478 200.027 211.884 183.597 189.132L183.65 189.053ZM158.356 168.238C162.857 190.462 158.083 208.604 139.67 221.285C147.004 201.677 128.673 177.487 158.303 168.317L158.356 168.238ZM141.572 143.775C121.637 148.741 108.493 159.68 105.375 179.35C118.585 165.847 145.491 171.288 141.519 143.854L141.572 143.775ZM175.326 52.5838C193.19 43.2102 210.06 42.6244 225.411 54.9794C206.639 53.7842 190.566 75.3303 175.273 52.6631L175.326 52.5838Z" fill="#89A829"/>
<path d="M282.555 162.459C288.238 168.494 292.88 173.949 296.379 178.496C292.545 173.783 287.893 168.356 282.555 162.459C254.115 132.25 199.629 87.494 132.151 69.2899C51.1908 47.4487 10.3171 31.4201 0.000244141 26.136V4.99939C17.4479 15.4257 68.3046 40.1208 132.151 55.4907C187.299 68.7669 248.711 125.069 282.555 162.459Z" fill="#D9D9D9"/>
<g opacity="0.2">
<path d="M809.308 1172.92C808.979 1172.94 808.561 1173.05 808.248 1173.13C805.849 1173.75 803.693 1175.32 802.751 1176.83C801.808 1178.35 801.798 1180.02 802.398 1181.47C802.997 1182.91 804.295 1184.04 805.68 1185.09C807.049 1186.07 808.539 1187.08 810.645 1187.47C811.819 1187.7 813.169 1187.75 814.453 1187.55C818.708 1186.77 820.704 1183.31 820.985 1180.97C821.377 1178.19 819.803 1176 817.041 1174.38C815.979 1173.72 814.723 1173.18 813.204 1172.91C811.926 1172.7 810.593 1172.72 809.308 1172.92Z" fill="#A9733D"/>
<path d="M830.486 1164.4C829.626 1161.95 827.826 1159.75 825.362 1157.98C824.54 1157.39 823.631 1156.9 822.281 1156.85C820.498 1156.84 818.525 1157.83 817.485 1158.96C815.228 1161.42 815.377 1164.99 815.964 1167.24C816.576 1170.02 818.408 1172.35 821.218 1174.16C824.68 1176.33 829.03 1175.06 830.423 1171.43C831.346 1168.98 831.265 1166.53 830.486 1164.4Z" fill="#A9733D"/>
<path d="M835.101 1168.01C835.166 1168.26 835.215 1168.44 835.28 1168.69C835.896 1170.2 837.033 1171.58 838.363 1172.83C838.944 1173.35 839.628 1173.84 840.489 1174.15C842.436 1174.78 845.253 1174.05 846.662 1172.61C848.263 1171.06 848.675 1169.21 849.014 1167.52C849.439 1164.87 848.771 1162.31 847.108 1160.2C845.987 1158.89 844.448 1157.69 842.1 1157.23C841.634 1157.15 841.168 1157.07 840.734 1157.12C840.196 1157.19 839.795 1157.36 839.306 1157.63C837.718 1158.37 836.677 1159.51 836.071 1160.61C835.464 1161.7 835.203 1162.84 835.046 1163.95C834.971 1165.37 834.758 1166.69 835.101 1168.01Z" fill="#A9733D"/>
<path d="M811.688 1191.47C806.35 1192.79 803.718 1195.95 804.696 1199.7C805.592 1203.15 811.304 1205.4 816.224 1204.18C820.726 1203.08 823.485 1199.56 822.661 1195.96C821.723 1191.93 817.234 1190.09 811.688 1191.47Z" fill="#A9733D"/>
<path d="M857.487 1202.05C852.067 1211.28 844.878 1219.75 835.64 1214.33C826.403 1208.9 823.309 1197.02 828.729 1187.78C834.15 1178.55 846.032 1175.45 855.27 1180.87C864.507 1186.29 862.908 1192.81 857.487 1202.05Z" fill="#A9733D"/>
<path d="M806.309 1256.95C805.449 1254.51 803.649 1252.3 801.185 1250.54C800.363 1249.95 799.454 1249.45 798.104 1249.4C796.321 1249.4 794.348 1250.38 793.308 1251.52C791.051 1253.98 791.2 1257.55 791.787 1259.8C792.399 1262.58 794.231 1264.91 797.041 1266.72C800.503 1268.89 804.853 1267.62 806.246 1263.98C807.169 1261.54 807.088 1259.09 806.309 1256.95Z" fill="#A9733D"/>
<path d="M810.923 1260.56C810.988 1260.81 811.037 1261 811.102 1261.25C811.718 1262.76 812.856 1264.13 814.186 1265.39C814.767 1265.91 815.451 1266.4 816.312 1266.71C818.258 1267.34 821.076 1266.6 822.485 1265.17C824.086 1263.62 824.498 1261.77 824.837 1260.08C825.261 1257.43 824.594 1254.87 822.931 1252.76C821.81 1251.45 820.271 1250.25 817.923 1249.79C817.457 1249.71 816.991 1249.63 816.557 1249.68C816.019 1249.75 815.618 1249.92 815.129 1250.18C813.541 1250.93 812.5 1252.07 811.893 1253.16C811.287 1254.26 811.026 1255.39 810.869 1256.5C810.793 1257.92 810.581 1259.25 810.923 1260.56Z" fill="#A9733D"/>
<path d="M889.875 1233.09C889.546 1233.11 889.129 1233.22 888.816 1233.3C886.416 1233.92 884.261 1235.49 883.318 1237C882.376 1238.51 882.365 1240.19 882.965 1241.63C883.565 1243.08 884.862 1244.21 886.248 1245.26C887.617 1246.24 889.107 1247.25 891.213 1247.64C892.386 1247.87 893.736 1247.92 895.021 1247.71C899.276 1246.94 901.272 1243.48 901.553 1241.14C901.944 1238.36 900.37 1236.17 897.609 1234.55C896.546 1233.89 895.291 1233.35 893.772 1233.08C892.494 1232.87 891.16 1232.89 889.875 1233.09Z" fill="#A9733D"/>
<path d="M911.053 1224.57C910.193 1222.12 908.394 1219.92 905.929 1218.15C905.108 1217.56 904.198 1217.07 902.848 1217.02C901.065 1217.01 899.092 1218 898.052 1219.13C895.795 1221.59 895.945 1225.16 896.531 1227.41C897.143 1230.19 898.975 1232.52 901.785 1234.33C905.248 1236.5 909.597 1235.23 910.99 1231.6C911.913 1229.15 911.832 1226.7 911.053 1224.57Z" fill="#A9733D"/>
<path d="M915.668 1228.18C915.733 1228.43 915.782 1228.61 915.847 1228.86C916.463 1230.37 917.601 1231.75 918.931 1233C919.511 1233.52 920.196 1234.01 921.056 1234.32C923.003 1234.95 925.82 1234.22 927.229 1232.78C928.831 1231.23 929.242 1229.38 929.581 1227.69C930.006 1225.04 929.338 1222.48 927.675 1220.37C926.554 1219.06 925.015 1217.86 922.668 1217.4C922.201 1217.32 921.735 1217.24 921.301 1217.29C920.763 1217.36 920.362 1217.53 919.873 1217.8C918.285 1218.54 917.244 1219.68 916.638 1220.78C916.031 1221.87 915.77 1223.01 915.613 1224.12C915.538 1225.54 915.326 1226.86 915.668 1228.18Z" fill="#A9733D"/>
<path d="M892.255 1251.64C886.917 1252.96 884.286 1256.12 885.263 1259.87C886.159 1263.32 891.871 1265.57 896.791 1264.35C901.294 1263.25 904.053 1259.72 903.228 1256.13C902.29 1252.1 897.801 1250.26 892.255 1251.64Z" fill="#A9733D"/>
<path d="M938.055 1262.22C932.634 1271.45 925.445 1279.92 916.208 1274.5C906.97 1269.08 903.876 1257.19 909.297 1247.95C914.717 1238.72 926.6 1235.62 935.837 1241.04C945.074 1246.46 943.475 1252.98 938.055 1262.22Z" fill="#A9733D"/>
<path d="M710.768 1196.37C710.476 1196.39 710.105 1196.48 709.828 1196.56C707.697 1197.11 705.784 1198.5 704.947 1199.84C704.11 1201.19 704.101 1202.67 704.634 1203.96C705.166 1205.24 706.318 1206.25 707.548 1207.17C708.763 1208.04 710.086 1208.94 711.955 1209.28C712.997 1209.49 714.195 1209.53 715.336 1209.35C719.113 1208.67 720.885 1205.6 721.134 1203.51C721.482 1201.05 720.084 1199.1 717.633 1197.67C716.69 1197.08 715.576 1196.6 714.227 1196.36C713.092 1196.18 711.909 1196.19 710.768 1196.37Z" fill="#A9733D"/>
<path d="M729.568 1188.81C728.804 1186.63 727.207 1184.68 725.019 1183.11C724.29 1182.59 723.482 1182.15 722.284 1182.1C720.701 1182.1 718.949 1182.97 718.026 1183.98C716.022 1186.17 716.155 1189.33 716.675 1191.33C717.219 1193.8 718.845 1195.87 721.34 1197.47C724.413 1199.4 728.275 1198.28 729.512 1195.05C730.331 1192.88 730.26 1190.7 729.568 1188.81Z" fill="#A9733D"/>
<path d="M733.664 1192.01C733.722 1192.23 733.765 1192.4 733.823 1192.62C734.37 1193.96 735.38 1195.18 736.561 1196.3C737.076 1196.75 737.684 1197.19 738.448 1197.46C740.176 1198.02 742.677 1197.37 743.927 1196.1C745.349 1194.72 745.714 1193.08 746.015 1191.58C746.392 1189.23 745.799 1186.95 744.324 1185.08C743.328 1183.92 741.962 1182.85 739.878 1182.44C739.464 1182.37 739.05 1182.3 738.665 1182.34C738.188 1182.41 737.832 1182.56 737.397 1182.79C735.987 1183.46 735.064 1184.47 734.525 1185.44C733.987 1186.41 733.755 1187.42 733.616 1188.4C733.549 1189.67 733.36 1190.84 733.664 1192.01Z" fill="#A9733D"/>
<path d="M712.88 1212.84C708.142 1214.01 705.806 1216.82 706.674 1220.15C707.469 1223.2 712.539 1225.2 716.907 1224.13C720.904 1223.14 723.353 1220.02 722.622 1216.83C721.789 1213.25 717.804 1211.62 712.88 1212.84Z" fill="#A9733D"/>
<path d="M753.536 1222.23C748.725 1230.43 742.343 1237.94 734.143 1233.13C725.942 1228.32 723.196 1217.77 728.008 1209.57C732.819 1201.37 743.368 1198.62 751.568 1203.43C759.768 1208.24 758.348 1214.03 753.536 1222.23Z" fill="#A9733D"/>
<path d="M707.152 1105.32C706.86 1105.33 706.49 1105.43 706.212 1105.5C704.082 1106.06 702.168 1107.44 701.331 1108.79C700.495 1110.13 700.486 1111.62 701.018 1112.9C701.55 1114.19 702.702 1115.19 703.932 1116.12C705.147 1116.99 706.47 1117.89 708.34 1118.23C709.381 1118.44 710.58 1118.48 711.72 1118.3C715.497 1117.61 717.269 1114.54 717.518 1112.46C717.866 1110 716.469 1108.05 714.017 1106.61C713.074 1106.03 711.96 1105.55 710.611 1105.31C709.477 1105.13 708.293 1105.14 707.152 1105.32Z" fill="#A9733D"/>
<path d="M725.952 1097.75C725.188 1095.58 723.591 1093.62 721.403 1092.06C720.674 1091.54 719.866 1091.09 718.668 1091.05C717.084 1091.05 715.333 1091.92 714.409 1092.93C712.406 1095.11 712.538 1098.28 713.059 1100.28C713.603 1102.75 715.229 1104.81 717.724 1106.42C720.797 1108.35 724.659 1107.22 725.896 1103.99C726.715 1101.82 726.643 1099.65 725.952 1097.75Z" fill="#A9733D"/>
<path d="M730.049 1100.96C730.107 1101.18 730.15 1101.34 730.208 1101.57C730.755 1102.91 731.764 1104.13 732.945 1105.24C733.46 1105.7 734.068 1106.14 734.832 1106.41C736.56 1106.97 739.061 1106.32 740.312 1105.04C741.734 1103.67 742.099 1102.03 742.4 1100.53C742.777 1098.18 742.184 1095.9 740.708 1094.03C739.713 1092.87 738.347 1091.8 736.263 1091.39C735.849 1091.32 735.435 1091.25 735.05 1091.29C734.572 1091.36 734.216 1091.51 733.782 1091.74C732.372 1092.4 731.448 1093.42 730.91 1094.39C730.371 1095.36 730.139 1096.37 730 1097.35C729.933 1098.61 729.745 1099.79 730.049 1100.96Z" fill="#A9733D"/>
<path d="M709.264 1121.79C704.526 1122.96 702.19 1125.76 703.057 1129.1C703.853 1132.15 708.923 1134.15 713.291 1133.07C717.288 1132.09 719.737 1128.96 719.005 1125.77C718.172 1122.19 714.187 1120.56 709.264 1121.79Z" fill="#A9733D"/>
<path d="M749.921 1131.17C745.109 1139.37 738.727 1146.89 730.527 1142.07C722.327 1137.26 719.58 1126.71 724.392 1118.51C729.204 1110.31 739.752 1107.57 747.952 1112.38C756.152 1117.19 754.733 1122.97 749.921 1131.17Z" fill="#A9733D"/>
<path d="M625.147 1132.02C624.862 1132.04 624.501 1132.13 624.23 1132.2C622.152 1132.74 620.286 1134.1 619.47 1135.41C618.654 1136.72 618.645 1138.17 619.165 1139.42C619.684 1140.67 620.807 1141.65 622.006 1142.56C623.192 1143.4 624.481 1144.28 626.305 1144.62C627.321 1144.82 628.489 1144.86 629.601 1144.68C633.285 1144.01 635.013 1141.02 635.256 1138.99C635.595 1136.59 634.232 1134.69 631.842 1133.29C630.922 1132.72 629.835 1132.25 628.52 1132.01C627.414 1131.84 626.259 1131.85 625.147 1132.02Z" fill="#A9733D"/>
<path d="M643.481 1124.65C642.736 1122.53 641.178 1120.62 639.045 1119.09C638.333 1118.58 637.546 1118.15 636.377 1118.11C634.833 1118.11 633.125 1118.96 632.224 1119.94C630.27 1122.07 630.4 1125.16 630.907 1127.11C631.437 1129.52 633.023 1131.53 635.456 1133.1C638.454 1134.98 642.22 1133.88 643.426 1130.73C644.225 1128.62 644.155 1126.49 643.481 1124.65Z" fill="#A9733D"/>
<path d="M647.475 1127.77C647.532 1127.99 647.574 1128.15 647.631 1128.37C648.164 1129.67 649.149 1130.86 650.3 1131.95C650.803 1132.4 651.395 1132.82 652.141 1133.09C653.826 1133.63 656.265 1133 657.485 1131.76C658.871 1130.41 659.227 1128.82 659.521 1127.35C659.888 1125.06 659.31 1122.84 657.871 1121.01C656.9 1119.88 655.568 1118.84 653.535 1118.44C653.132 1118.37 652.728 1118.31 652.353 1118.35C651.887 1118.41 651.54 1118.56 651.116 1118.78C649.741 1119.43 648.841 1120.42 648.315 1121.36C647.79 1122.31 647.564 1123.29 647.428 1124.25C647.363 1125.49 647.179 1126.63 647.475 1127.77Z" fill="#A9733D"/>
<path d="M627.207 1148.08C622.586 1149.23 620.307 1151.96 621.154 1155.21C621.929 1158.19 626.874 1160.14 631.134 1159.09C635.032 1158.13 637.42 1155.08 636.707 1151.97C635.894 1148.48 632.008 1146.89 627.207 1148.08Z" fill="#A9733D"/>
<path d="M666.857 1157.24C662.164 1165.24 655.94 1172.56 647.943 1167.87C639.946 1163.18 637.267 1152.89 641.96 1144.89C646.653 1136.89 656.94 1134.22 664.937 1138.91C672.934 1143.6 671.549 1149.24 666.857 1157.24Z" fill="#A9733D"/>
<path d="M619.766 1045.13C619.496 1045.14 619.154 1045.23 618.898 1045.3C616.932 1045.81 615.167 1047.09 614.395 1048.33C613.623 1049.57 613.615 1050.94 614.106 1052.13C614.597 1053.31 615.66 1054.24 616.794 1055.09C617.916 1055.9 619.136 1056.73 620.861 1057.04C621.822 1057.23 622.927 1057.27 623.98 1057.11C627.464 1056.47 629.099 1053.64 629.329 1051.72C629.65 1049.45 628.361 1047.65 626.099 1046.32C625.229 1045.78 624.201 1045.34 622.957 1045.12C621.91 1044.95 620.818 1044.96 619.766 1045.13Z" fill="#A9733D"/>
<path d="M637.111 1038.15C636.406 1036.14 634.932 1034.34 632.914 1032.89C632.241 1032.41 631.496 1032.01 630.39 1031.96C628.929 1031.96 627.313 1032.77 626.461 1033.7C624.613 1035.71 624.735 1038.64 625.215 1040.48C625.717 1042.76 627.217 1044.66 629.519 1046.14C632.355 1047.92 635.918 1046.88 637.059 1043.91C637.815 1041.9 637.748 1039.9 637.111 1038.15Z" fill="#A9733D"/>
<path d="M640.889 1041.1C640.943 1041.31 640.983 1041.46 641.036 1041.67C641.541 1042.9 642.472 1044.03 643.562 1045.06C644.037 1045.48 644.598 1045.88 645.303 1046.14C646.897 1046.65 649.205 1046.05 650.359 1044.88C651.67 1043.6 652.007 1042.09 652.285 1040.71C652.633 1038.54 652.086 1036.44 650.724 1034.71C649.806 1033.64 648.545 1032.65 646.622 1032.28C646.241 1032.21 645.859 1032.15 645.504 1032.19C645.063 1032.25 644.734 1032.39 644.334 1032.6C643.033 1033.21 642.181 1034.15 641.684 1035.04C641.187 1035.94 640.973 1036.87 640.845 1037.78C640.783 1038.94 640.609 1040.03 640.889 1041.1Z" fill="#A9733D"/>
<path d="M621.714 1060.32C617.342 1061.41 615.187 1063.99 615.987 1067.07C616.721 1069.88 621.399 1071.73 625.429 1070.74C629.117 1069.83 631.376 1066.94 630.701 1064C629.933 1060.7 626.256 1059.19 621.714 1060.32Z" fill="#A9733D"/>
<path d="M659.224 1068.98C654.785 1076.55 648.897 1083.48 641.331 1079.04C633.766 1074.6 631.231 1064.87 635.671 1057.3C640.11 1049.74 649.842 1047.2 657.408 1051.64C664.973 1056.08 663.664 1061.42 659.224 1068.98Z" fill="#A9733D"/>
<path d="M539.165 1078.32C538.901 1078.34 538.567 1078.43 538.317 1078.49C536.397 1078.99 534.672 1080.24 533.918 1081.45C533.164 1082.67 533.156 1084 533.635 1085.16C534.115 1086.32 535.153 1087.23 536.262 1088.06C537.357 1088.84 538.55 1089.66 540.235 1089.96C541.174 1090.15 542.254 1090.19 543.282 1090.03C546.686 1089.41 548.284 1086.64 548.508 1084.76C548.822 1082.54 547.562 1080.79 545.353 1079.49C544.502 1078.96 543.498 1078.53 542.282 1078.31C541.26 1078.15 540.193 1078.16 539.165 1078.32Z" fill="#A9733D"/>
<path d="M556.11 1071.51C555.422 1069.55 553.982 1067.78 552.01 1066.37C551.352 1065.9 550.624 1065.5 549.544 1065.46C548.117 1065.46 546.538 1066.25 545.706 1067.16C543.9 1069.13 544.019 1071.98 544.489 1073.78C544.979 1076.01 546.445 1077.87 548.693 1079.32C551.464 1081.05 554.944 1080.04 556.059 1077.13C556.798 1075.17 556.733 1073.21 556.11 1071.51Z" fill="#A9733D"/>
<path d="M559.802 1074.39C559.854 1074.59 559.893 1074.74 559.946 1074.94C560.438 1076.15 561.349 1077.25 562.413 1078.26C562.877 1078.67 563.425 1079.06 564.114 1079.31C565.671 1079.81 567.926 1079.23 569.053 1078.08C570.335 1076.83 570.664 1075.36 570.935 1074.01C571.275 1071.89 570.74 1069.83 569.41 1068.15C568.513 1067.1 567.282 1066.14 565.403 1065.77C565.03 1065.71 564.657 1065.64 564.31 1065.68C563.879 1065.74 563.559 1065.88 563.167 1066.09C561.896 1066.68 561.064 1067.6 560.578 1068.47C560.093 1069.35 559.884 1070.25 559.759 1071.14C559.698 1072.28 559.528 1073.34 559.802 1074.39Z" fill="#A9733D"/>
<path d="M541.068 1093.17C536.797 1094.23 534.692 1096.75 535.474 1099.76C536.191 1102.51 540.761 1104.31 544.698 1103.34C548.301 1102.46 550.508 1099.64 549.849 1096.76C549.098 1093.54 545.506 1092.07 541.068 1093.17Z" fill="#A9733D"/>
<path d="M577.715 1101.63C573.378 1109.02 567.625 1115.79 560.234 1111.46C552.843 1107.12 550.367 1097.61 554.704 1090.22C559.042 1082.83 568.549 1080.35 575.941 1084.69C583.332 1089.03 582.052 1094.24 577.715 1101.63Z" fill="#A9733D"/>
<path d="M527.841 1004.06C527.612 1004.07 527.32 1004.15 527.102 1004.2C525.427 1004.64 523.923 1005.73 523.265 1006.79C522.608 1007.84 522.601 1009.01 523.019 1010.02C523.437 1011.03 524.343 1011.82 525.309 1012.55C526.265 1013.23 527.305 1013.94 528.774 1014.21C529.593 1014.37 530.535 1014.4 531.432 1014.26C534.401 1013.72 535.794 1011.31 535.99 1009.67C536.263 1007.74 535.165 1006.2 533.238 1005.08C532.496 1004.62 531.62 1004.24 530.56 1004.05C529.668 1003.91 528.738 1003.92 527.841 1004.06Z" fill="#A9733D"/>
<path d="M542.619 998.111C542.019 996.403 540.764 994.865 539.044 993.635C538.471 993.225 537.836 992.877 536.894 992.843C535.65 992.841 534.273 993.525 533.547 994.32C531.972 996.036 532.076 998.525 532.485 1000.1C532.913 1002.04 534.191 1003.66 536.152 1004.92C538.568 1006.44 541.603 1005.55 542.575 1003.02C543.219 1001.31 543.163 999.601 542.619 998.111Z" fill="#A9733D"/>
<path d="M545.839 1000.63C545.884 1000.8 545.919 1000.93 545.964 1001.11C546.394 1002.16 547.188 1003.12 548.116 1004C548.521 1004.36 548.998 1004.7 549.599 1004.92C550.957 1005.36 552.923 1004.84 553.906 1003.84C555.023 1002.76 555.31 1001.47 555.547 1000.29C555.843 998.443 555.377 996.653 554.217 995.184C553.435 994.269 552.361 993.43 550.723 993.11C550.398 993.055 550.072 993 549.77 993.032C549.394 993.084 549.115 993.203 548.773 993.385C547.665 993.907 546.939 994.702 546.516 995.465C546.092 996.227 545.91 997.021 545.801 997.795C545.748 998.787 545.6 999.712 545.839 1000.63Z" fill="#A9733D"/>
<path d="M529.502 1017C525.777 1017.93 523.941 1020.13 524.623 1022.75C525.248 1025.15 529.234 1026.72 532.667 1025.87C535.809 1025.1 537.735 1022.64 537.16 1020.14C536.505 1017.32 533.372 1016.04 529.502 1017Z" fill="#A9733D"/>
<path d="M561.46 1024.38C557.678 1030.83 552.661 1036.73 546.215 1032.95C539.77 1029.17 537.611 1020.88 541.393 1014.43C545.175 1007.98 553.467 1005.82 559.912 1009.61C566.358 1013.39 565.242 1017.94 561.46 1024.38Z" fill="#A9733D"/>
</g>
</g>
</svg>
