<svg width="375" height="1922" viewBox="0 0 375 1922" fill="none" xmlns="http://www.w3.org/2000/svg">
<rect width="375" height="1922" fill="white"/>
<mask id="mask0_379_2020" style="mask-type:alpha" maskUnits="userSpaceOnUse" x="0" y="0" width="375" height="1922">
<rect width="375" height="1922" fill="white"/>
</mask>
<g mask="url(#mask0_379_2020)">
<g opacity="0.2">
<path d="M2.2775 1878.27C2.31354 1878.16 2.33088 1878.01 2.34389 1877.89C2.44362 1877.01 2.19786 1876.09 1.81227 1875.57C1.42668 1875.06 0.868201 1874.85 0.306742 1874.86C-0.254717 1874.87 -0.800462 1875.16 -1.32751 1875.49C-1.83153 1875.82 -2.36291 1876.19 -2.76342 1876.85C-2.99104 1877.21 -3.18127 1877.66 -3.27937 1878.11C-3.56798 1879.64 -2.66727 1880.75 -1.91884 1881.14C-1.04089 1881.63 -0.103585 1881.39 0.793619 1880.67C1.15077 1880.4 1.49355 1880.05 1.78025 1879.58C2.01221 1879.18 2.1794 1878.73 2.2775 1878.27Z" fill="#A9733D"/>
<path d="M2.40352 1886.46C3.3335 1886.48 4.30251 1886.17 5.20974 1885.57C5.51215 1885.37 5.79586 1885.13 5.98609 1884.68C6.2167 1884.09 6.14219 1883.3 5.89479 1882.8C5.36261 1881.73 4.14919 1881.32 3.32001 1881.23C2.31091 1881.08 1.29583 1881.39 0.329531 1882.1C-0.842714 1882.98 -0.978761 1884.6 0.0587889 1885.53C0.758167 1886.15 1.5887 1886.44 2.40352 1886.46Z" fill="#A9733D"/>
<path d="M0.601714 1887.54C0.509583 1887.53 0.440483 1887.52 0.348352 1887.51C-0.23614 1887.52 -0.84231 1887.72 -1.43412 1888.01C-1.68179 1888.14 -1.9338 1888.3 -2.14842 1888.55C-2.60935 1889.12 -2.72642 1890.16 -2.42728 1890.81C-2.11377 1891.55 -1.5496 1891.92 -1.02717 1892.25C-0.195284 1892.74 0.749063 1892.84 1.66767 1892.56C2.25081 1892.35 2.85129 1891.99 3.30654 1891.27C3.39298 1891.12 3.47942 1890.97 3.5198 1890.82C3.56451 1890.63 3.55882 1890.48 3.53444 1890.28C3.48865 1889.65 3.24126 1889.16 2.95349 1888.81C2.66571 1888.47 2.31887 1888.24 1.96769 1888.04C1.50134 1887.83 1.0854 1887.59 0.601714 1887.54Z" fill="#A9733D"/>
<path d="M51.9483 1898.18C51.997 1898.09 52.0367 1897.97 52.0664 1897.87C52.2947 1897.15 52.2403 1896.34 52.0013 1895.85C51.7623 1895.36 51.3308 1895.08 50.8586 1895C50.3864 1894.92 49.8824 1895.08 49.3873 1895.27C48.9111 1895.46 48.4061 1895.68 47.9635 1896.16C47.7135 1896.43 47.4813 1896.77 47.3244 1897.14C46.8332 1898.36 47.4044 1899.44 47.9658 1899.9C48.6205 1900.45 49.4449 1900.4 50.3131 1899.95C50.6564 1899.78 51.0007 1899.54 51.3182 1899.19C51.5782 1898.9 51.7915 1898.55 51.9483 1898.18Z" fill="#A9733D"/>
<path d="M50.7121 1905.05C51.4859 1905.23 52.349 1905.12 53.2062 1904.77C53.4919 1904.65 53.7687 1904.5 54.001 1904.15C54.2917 1903.69 54.3583 1903.02 54.2324 1902.57C53.9627 1901.58 53.0144 1901.04 52.3358 1900.83C51.5164 1900.54 50.6156 1900.63 49.6909 1901.07C48.5658 1901.61 48.1866 1902.94 48.9017 1903.89C49.3848 1904.53 50.0325 1904.91 50.7121 1905.05Z" fill="#A9733D"/>
<path d="M49.0275 1905.66C48.9521 1905.64 48.8956 1905.62 48.8202 1905.59C48.3291 1905.51 47.7884 1905.58 47.2467 1905.72C47.0185 1905.79 46.7804 1905.88 46.5601 1906.06C46.0808 1906.46 45.8128 1907.31 45.9555 1907.91C46.0973 1908.57 46.5079 1908.98 46.8908 1909.34C47.5077 1909.88 48.2805 1910.13 49.096 1910.04C49.6179 1909.96 50.1795 1909.76 50.6796 1909.22C50.7758 1909.12 50.8721 1909.01 50.9307 1908.89C50.9991 1908.74 51.02 1908.61 51.0319 1908.44C51.0965 1907.9 50.9706 1907.45 50.7862 1907.11C50.6017 1906.78 50.3498 1906.53 50.0879 1906.31C49.7318 1906.06 49.4233 1905.79 49.0275 1905.66Z" fill="#A9733D"/>
<path d="M46.7574 1895.78C47.2825 1894.19 46.8928 1892.99 45.7619 1892.63C44.7252 1892.31 43.2131 1893.42 42.7277 1894.89C42.2821 1896.24 42.7461 1897.52 43.8106 1897.89C45.0069 1898.31 46.2125 1897.44 46.7574 1895.78Z" fill="#A9733D"/>
<path d="M36.5738 1905.92C35.0629 1903.02 34.0401 1899.78 36.9455 1898.27C39.8509 1896.76 43.4311 1897.89 44.942 1900.8C46.4529 1903.7 45.3224 1907.28 42.417 1908.79C39.5116 1910.3 38.0847 1908.83 36.5738 1905.92Z" fill="#A9733D"/>
<path d="M31.9112 1876.88C31.9599 1876.79 31.9996 1876.66 32.0293 1876.57C32.2576 1875.84 32.2032 1875.03 31.9642 1874.54C31.7252 1874.05 31.2937 1873.78 30.8215 1873.7C30.3493 1873.62 29.8453 1873.77 29.3502 1873.96C28.874 1874.15 28.3689 1874.37 27.9264 1874.86C27.6764 1875.12 27.4441 1875.47 27.2873 1875.83C26.796 1877.06 27.3673 1878.14 27.9287 1878.59C28.5834 1879.14 29.4078 1879.09 30.276 1878.64C30.6193 1878.47 30.9636 1878.24 31.2811 1877.89C31.5411 1877.59 31.7544 1877.24 31.9112 1876.88Z" fill="#A9733D"/>
<path d="M30.6745 1883.74C31.4483 1883.92 32.3114 1883.81 33.1686 1883.46C33.4543 1883.34 33.7312 1883.19 33.9634 1882.85C34.2541 1882.39 34.3207 1881.72 34.1948 1881.26C33.9251 1880.28 32.9768 1879.74 32.2982 1879.52C31.4788 1879.23 30.578 1879.32 29.6533 1879.76C28.5282 1880.3 28.149 1881.63 28.8641 1882.59C29.3472 1883.22 29.9949 1883.6 30.6745 1883.74Z" fill="#A9733D"/>
<path d="M28.9899 1884.35C28.9145 1884.33 28.858 1884.31 28.7826 1884.29C28.2915 1884.2 27.7508 1884.27 27.2091 1884.41C26.9809 1884.48 26.7428 1884.58 26.5225 1884.75C26.0432 1885.15 25.7752 1886 25.9179 1886.6C26.0597 1887.27 26.4703 1887.67 26.8532 1888.03C27.4701 1888.58 28.2429 1888.82 29.0584 1888.73C29.5803 1888.65 30.1419 1888.45 30.642 1887.92C30.7382 1887.81 30.8345 1887.7 30.8931 1887.58C30.9615 1887.43 30.9824 1887.3 30.9943 1887.13C31.0589 1886.6 30.933 1886.14 30.7486 1885.81C30.5641 1885.47 30.3122 1885.22 30.0503 1885C29.6942 1884.75 29.3857 1884.48 28.9899 1884.35Z" fill="#A9733D"/>
<path d="M26.7198 1874.48C27.2449 1872.88 26.8552 1871.68 25.7243 1871.33C24.6876 1871 23.1755 1872.11 22.6901 1873.58C22.2445 1874.93 22.7085 1876.22 23.773 1876.59C24.9693 1877 26.1749 1876.14 26.7198 1874.48Z" fill="#A9733D"/>
<path d="M16.5362 1884.62C15.0253 1881.71 14.0025 1878.47 16.9079 1876.96C19.8133 1875.45 23.3935 1876.58 24.9044 1879.49C26.4153 1882.39 25.2848 1885.97 22.3794 1887.48C19.474 1888.99 18.0471 1887.52 16.5362 1884.62Z" fill="#A9733D"/>
<path d="M23.2701 1909.26C23.3187 1909.18 23.3584 1909.05 23.3882 1908.96C23.6165 1908.23 23.5621 1907.42 23.3231 1906.93C23.0841 1906.44 22.6526 1906.17 22.1804 1906.09C21.7081 1906.01 21.2041 1906.16 20.7091 1906.35C20.2328 1906.54 19.7278 1906.76 19.2853 1907.25C19.0352 1907.51 18.803 1907.85 18.6462 1908.22C18.1549 1909.45 18.7262 1910.53 19.2876 1910.98C19.9423 1911.53 20.7667 1911.48 21.6349 1911.03C21.9782 1910.86 22.3224 1910.62 22.64 1910.27C22.8999 1909.98 23.1133 1909.63 23.2701 1909.26Z" fill="#A9733D"/>
<path d="M22.0334 1916.13C22.8071 1916.31 23.6703 1916.2 24.5275 1915.85C24.8132 1915.73 25.09 1915.58 25.3222 1915.24C25.613 1914.77 25.6796 1914.1 25.5537 1913.65C25.284 1912.67 24.3357 1912.12 23.6571 1911.91C22.8377 1911.62 21.9369 1911.71 21.0122 1912.15C19.8871 1912.69 19.5079 1914.02 20.223 1914.97C20.706 1915.61 21.3538 1915.99 22.0334 1916.13Z" fill="#A9733D"/>
<path d="M20.3488 1916.74C20.2734 1916.72 20.2168 1916.7 20.1415 1916.68C19.6504 1916.59 19.1097 1916.66 18.568 1916.8C18.3398 1916.87 18.1017 1916.97 17.8814 1917.14C17.4021 1917.54 17.1341 1918.39 17.2768 1918.99C17.4185 1919.65 17.8292 1920.06 18.2121 1920.42C18.829 1920.96 19.6018 1921.21 20.4173 1921.12C20.9392 1921.04 21.5008 1920.84 22.0009 1920.31C22.0971 1920.2 22.1934 1920.09 22.2519 1919.97C22.3204 1919.82 22.3413 1919.69 22.3532 1919.52C22.4178 1918.99 22.2919 1918.53 22.1075 1918.2C21.923 1917.86 21.6711 1917.61 21.4092 1917.39C21.0531 1917.14 20.7446 1916.87 20.3488 1916.74Z" fill="#A9733D"/>
<path d="M18.0792 1906.86C18.6043 1905.27 18.2146 1904.07 17.0837 1903.72C16.047 1903.39 14.5349 1904.5 14.0495 1905.97C13.6038 1907.32 14.0679 1908.6 15.1323 1908.98C16.3287 1909.39 17.5342 1908.52 18.0792 1906.86Z" fill="#A9733D"/>
<path d="M7.8951 1917C6.38418 1914.1 5.36139 1910.86 8.26679 1909.35C11.1722 1907.84 14.7523 1908.97 16.2633 1911.88C17.7742 1914.78 16.6437 1918.36 13.7383 1919.87C10.8329 1921.38 9.40602 1919.91 7.8951 1917Z" fill="#A9733D"/>
<path d="M61.8945 1868.85C61.9376 1868.78 61.9729 1868.66 61.9993 1868.58C62.202 1867.94 62.1537 1867.22 61.9415 1866.78C61.7293 1866.35 61.3463 1866.1 60.9271 1866.03C60.5079 1865.96 60.0605 1866.1 59.621 1866.26C59.1983 1866.44 58.75 1866.63 58.3571 1867.06C58.1351 1867.3 57.929 1867.6 57.7898 1867.93C57.3537 1869.02 57.8608 1869.97 58.3592 1870.38C58.9403 1870.87 59.6722 1870.82 60.4429 1870.42C60.7476 1870.27 61.0532 1870.06 61.3351 1869.75C61.5659 1869.49 61.7553 1869.18 61.8945 1868.85Z" fill="#A9733D"/>
<path d="M60.7968 1874.95C61.4837 1875.11 62.2499 1875.01 63.0109 1874.7C63.2645 1874.6 63.5103 1874.46 63.7164 1874.16C63.9745 1873.75 64.0337 1873.15 63.9219 1872.75C63.6825 1871.87 62.8407 1871.39 62.2383 1871.2C61.5109 1870.94 60.7113 1871.03 59.8904 1871.41C58.8916 1871.89 58.5549 1873.08 59.1897 1873.92C59.6185 1874.49 60.1935 1874.82 60.7968 1874.95Z" fill="#A9733D"/>
<path d="M59.3017 1875.49C59.2348 1875.47 59.1846 1875.45 59.1177 1875.43C58.6817 1875.36 58.2017 1875.42 57.7209 1875.55C57.5183 1875.6 57.3069 1875.69 57.1114 1875.84C56.6859 1876.2 56.448 1876.95 56.5747 1877.48C56.7005 1878.08 57.065 1878.44 57.4049 1878.76C57.9526 1879.24 58.6386 1879.46 59.3626 1879.38C59.8258 1879.31 60.3243 1879.13 60.7683 1878.66C60.8537 1878.56 60.9392 1878.46 60.9912 1878.36C61.052 1878.22 61.0705 1878.11 61.0811 1877.96C61.1384 1877.48 61.0266 1877.08 60.8629 1876.78C60.6992 1876.49 60.4755 1876.26 60.243 1876.07C59.9269 1875.84 59.6531 1875.6 59.3017 1875.49Z" fill="#A9733D"/>
<path d="M57.2864 1866.72C57.7525 1865.31 57.4066 1864.25 56.4027 1863.93C55.4824 1863.64 54.1401 1864.63 53.7092 1865.93C53.3136 1867.13 53.7256 1868.27 54.6705 1868.6C55.7325 1868.96 56.8027 1868.2 57.2864 1866.72Z" fill="#A9733D"/>
<path d="M48.2465 1875.73C46.9052 1873.15 45.9973 1870.27 48.5764 1868.93C51.1556 1867.59 54.3337 1868.59 55.675 1871.17C57.0162 1873.75 56.0127 1876.93 53.4335 1878.27C50.8544 1879.61 49.5877 1878.3 48.2465 1875.73Z" fill="#A9733D"/>
<path d="M86.06 1882.72C86.1032 1882.64 86.1384 1882.53 86.1648 1882.45C86.3675 1881.8 86.3192 1881.08 86.107 1880.65C85.8949 1880.21 85.5118 1879.97 85.0926 1879.9C84.6734 1879.83 84.226 1879.96 83.7865 1880.13C83.3638 1880.3 82.9155 1880.5 82.5226 1880.93C82.3007 1881.16 82.0945 1881.47 81.9553 1881.79C81.5192 1882.88 82.0263 1883.84 82.5247 1884.24C83.1059 1884.73 83.8377 1884.69 84.6084 1884.29C84.9131 1884.14 85.2188 1883.93 85.5006 1883.62C85.7314 1883.35 85.9208 1883.04 86.06 1882.72Z" fill="#A9733D"/>
<path d="M84.9628 1888.82C85.6497 1888.97 86.4159 1888.88 87.1769 1888.56C87.4305 1888.46 87.6763 1888.32 87.8824 1888.02C88.1405 1887.61 88.1997 1887.02 88.0879 1886.61C87.8485 1885.74 87.0067 1885.26 86.4043 1885.07C85.677 1884.81 84.8773 1884.89 84.0564 1885.28C83.0576 1885.76 82.7209 1886.94 83.3557 1887.79C83.7845 1888.35 84.3595 1888.69 84.9628 1888.82Z" fill="#A9733D"/>
<path d="M83.4672 1889.36C83.4003 1889.34 83.3501 1889.32 83.2832 1889.3C82.8473 1889.22 82.3673 1889.29 81.8864 1889.41C81.6838 1889.47 81.4724 1889.56 81.2769 1889.71C80.8515 1890.07 80.6135 1890.82 80.7402 1891.35C80.866 1891.94 81.2306 1892.3 81.5704 1892.63C82.1181 1893.11 82.8041 1893.32 83.5281 1893.24C83.9913 1893.18 84.4898 1892.99 84.9338 1892.52C85.0193 1892.43 85.1047 1892.33 85.1567 1892.22C85.2175 1892.09 85.236 1891.97 85.2466 1891.82C85.3039 1891.35 85.1922 1890.95 85.0284 1890.65C84.8647 1890.35 84.641 1890.13 84.4086 1889.93C84.0925 1889.71 83.8186 1889.47 83.4672 1889.36Z" fill="#A9733D"/>
<path d="M81.4519 1880.59C81.918 1879.17 81.5721 1878.11 80.5682 1877.79C79.648 1877.5 78.3056 1878.49 77.8748 1879.8C77.4791 1880.99 77.8911 1882.13 78.836 1882.46C79.898 1882.83 80.9682 1882.06 81.4519 1880.59Z" fill="#A9733D"/>
<path d="M72.412 1889.59C71.0707 1887.01 70.1628 1884.14 72.7419 1882.8C75.3211 1881.46 78.4992 1882.46 79.8405 1885.04C81.1817 1887.62 80.1782 1890.8 77.5991 1892.14C75.0199 1893.48 73.7532 1892.17 72.412 1889.59Z" fill="#A9733D"/>
<path d="M92.4758 1857.14C92.5179 1857.07 92.5523 1856.96 92.5781 1856.88C92.7757 1856.25 92.7286 1855.55 92.5217 1855.12C92.3148 1854.7 91.9412 1854.46 91.5324 1854.39C91.1236 1854.32 90.6873 1854.45 90.2587 1854.62C89.8464 1854.79 89.4092 1854.98 89.0261 1855.4C88.8096 1855.63 88.6086 1855.92 88.4728 1856.24C88.0475 1857.3 88.542 1858.24 89.0281 1858.63C89.5948 1859.11 90.3086 1859.06 91.0601 1858.67C91.3573 1858.53 91.6554 1858.32 91.9303 1858.02C92.1553 1857.76 92.3401 1857.46 92.4758 1857.14Z" fill="#A9733D"/>
<path d="M91.4053 1863.09C92.0752 1863.24 92.8224 1863.15 93.5646 1862.84C93.8119 1862.74 94.0516 1862.61 94.2526 1862.31C94.5044 1861.91 94.562 1861.33 94.453 1860.94C94.2196 1860.09 93.3986 1859.62 92.8112 1859.43C92.1018 1859.18 91.3219 1859.26 90.5214 1859.64C89.5473 1860.11 89.219 1861.26 89.8381 1862.09C90.2562 1862.64 90.817 1862.96 91.4053 1863.09Z" fill="#A9733D"/>
<path d="M89.947 1863.62C89.8817 1863.6 89.8327 1863.58 89.7675 1863.56C89.3423 1863.49 88.8743 1863.55 88.4053 1863.67C88.2077 1863.73 88.0016 1863.81 87.8109 1863.96C87.396 1864.31 87.1639 1865.04 87.2875 1865.56C87.4102 1866.14 87.7657 1866.49 88.0972 1866.8C88.6313 1867.27 89.3003 1867.48 90.0063 1867.41C90.4581 1867.34 90.9443 1867.16 91.3772 1866.7C91.4606 1866.61 91.5439 1866.52 91.5946 1866.41C91.6539 1866.28 91.6719 1866.17 91.6823 1866.02C91.7382 1865.56 91.6292 1865.17 91.4695 1864.88C91.3098 1864.59 91.0917 1864.37 90.865 1864.18C90.5567 1863.96 90.2896 1863.72 89.947 1863.62Z" fill="#A9733D"/>
<path d="M87.9823 1855.07C88.4368 1853.68 88.0995 1852.65 87.1204 1852.34C86.223 1852.06 84.9139 1853.02 84.4937 1854.29C84.1079 1855.46 84.5096 1856.57 85.4311 1856.89C86.4668 1857.25 87.5105 1856.5 87.9823 1855.07Z" fill="#A9733D"/>
<path d="M79.1659 1863.84C77.8578 1861.33 76.9724 1858.53 79.4877 1857.22C82.0029 1855.91 85.1024 1856.89 86.4104 1859.4C87.7184 1861.92 86.7398 1865.02 84.2245 1866.33C81.7092 1867.63 80.4739 1866.36 79.1659 1863.84Z" fill="#A9733D"/>
<path d="M115.852 1869.88C115.892 1869.8 115.925 1869.7 115.949 1869.62C116.136 1869.03 116.091 1868.37 115.896 1867.96C115.7 1867.56 115.346 1867.34 114.96 1867.27C114.573 1867.21 114.16 1867.33 113.755 1867.49C113.365 1867.65 112.951 1867.83 112.589 1868.22C112.384 1868.44 112.194 1868.72 112.065 1869.02C111.663 1870.02 112.131 1870.91 112.59 1871.28C113.127 1871.73 113.802 1871.69 114.513 1871.32C114.794 1871.18 115.076 1870.99 115.336 1870.7C115.549 1870.46 115.724 1870.17 115.852 1869.88Z" fill="#A9733D"/>
<path d="M114.84 1875.5C115.473 1875.64 116.18 1875.56 116.882 1875.27C117.116 1875.17 117.343 1875.05 117.533 1874.77C117.771 1874.39 117.826 1873.84 117.723 1873.47C117.502 1872.66 116.725 1872.22 116.17 1872.04C115.499 1871.8 114.761 1871.88 114.003 1872.24C113.082 1872.68 112.771 1873.77 113.357 1874.55C113.753 1875.07 114.283 1875.38 114.84 1875.5Z" fill="#A9733D"/>
<path d="M113.46 1876C113.399 1875.98 113.352 1875.97 113.29 1875.95C112.888 1875.88 112.445 1875.93 112.002 1876.05C111.815 1876.1 111.62 1876.18 111.439 1876.32C111.047 1876.65 110.827 1877.35 110.944 1877.84C111.06 1878.38 111.397 1878.72 111.71 1879.01C112.216 1879.46 112.848 1879.66 113.516 1879.59C113.944 1879.52 114.404 1879.36 114.813 1878.92C114.892 1878.83 114.971 1878.74 115.019 1878.64C115.075 1878.52 115.092 1878.41 115.102 1878.27C115.155 1877.84 115.052 1877.46 114.901 1877.19C114.75 1876.92 114.543 1876.71 114.329 1876.53C114.037 1876.32 113.784 1876.1 113.46 1876Z" fill="#A9733D"/>
<path d="M111.601 1867.91C112.031 1866.6 111.711 1865.62 110.785 1865.33C109.936 1865.06 108.698 1865.97 108.3 1867.18C107.935 1868.28 108.315 1869.34 109.187 1869.64C110.167 1869.98 111.154 1869.27 111.601 1867.91Z" fill="#A9733D"/>
<path d="M103.26 1876.21C102.023 1873.84 101.185 1871.18 103.565 1869.95C105.944 1868.71 108.876 1869.64 110.114 1872.01C111.351 1874.39 110.425 1877.33 108.046 1878.56C105.666 1879.8 104.498 1878.59 103.26 1876.21Z" fill="#A9733D"/>
<path d="M120.359 1843.61C120.398 1843.54 120.43 1843.44 120.454 1843.36C120.636 1842.78 120.593 1842.13 120.401 1841.74C120.21 1841.35 119.865 1841.13 119.487 1841.06C119.109 1841 118.706 1841.12 118.31 1841.27C117.929 1841.43 117.525 1841.61 117.171 1841.99C116.971 1842.21 116.785 1842.48 116.659 1842.77C116.266 1843.75 116.723 1844.62 117.173 1844.98C117.696 1845.42 118.356 1845.38 119.051 1845.02C119.325 1844.89 119.601 1844.7 119.855 1844.42C120.063 1844.18 120.234 1843.9 120.359 1843.61Z" fill="#A9733D"/>
<path d="M119.37 1849.1C119.989 1849.24 120.679 1849.16 121.365 1848.88C121.594 1848.78 121.816 1848.66 122.001 1848.39C122.234 1848.02 122.287 1847.48 122.187 1847.12C121.971 1846.33 121.212 1845.9 120.669 1845.72C120.013 1845.49 119.293 1845.57 118.553 1845.91C117.652 1846.35 117.349 1847.41 117.921 1848.18C118.308 1848.69 118.826 1848.99 119.37 1849.1Z" fill="#A9733D"/>
<path d="M118.022 1849.59C117.962 1849.57 117.916 1849.56 117.856 1849.54C117.463 1849.47 117.03 1849.53 116.597 1849.64C116.414 1849.69 116.224 1849.77 116.048 1849.91C115.664 1850.23 115.45 1850.91 115.564 1851.39C115.677 1851.92 116.006 1852.25 116.312 1852.54C116.806 1852.97 117.424 1853.16 118.077 1853.09C118.494 1853.03 118.944 1852.87 119.344 1852.44C119.421 1852.36 119.498 1852.27 119.545 1852.17C119.599 1852.05 119.616 1851.95 119.626 1851.81C119.677 1851.39 119.577 1851.02 119.429 1850.75C119.281 1850.49 119.08 1850.28 118.87 1850.11C118.585 1849.91 118.339 1849.69 118.022 1849.59Z" fill="#A9733D"/>
<path d="M116.205 1841.69C116.626 1840.41 116.314 1839.45 115.409 1839.17C114.579 1838.91 113.37 1839.8 112.981 1840.97C112.625 1842.05 112.996 1843.08 113.848 1843.38C114.805 1843.71 115.769 1843.02 116.205 1841.69Z" fill="#A9733D"/>
<path d="M108.057 1849.8C106.848 1847.48 106.029 1844.89 108.354 1843.68C110.679 1842.47 113.543 1843.37 114.752 1845.7C115.961 1848.02 115.057 1850.89 112.732 1852.1C110.407 1853.3 109.266 1852.13 108.057 1849.8Z" fill="#A9733D"/>
<path d="M141.431 1852.75C141.464 1852.69 141.492 1852.6 141.513 1852.53C141.672 1852.03 141.634 1851.46 141.468 1851.12C141.301 1850.78 141 1850.59 140.67 1850.53C140.341 1850.48 139.989 1850.58 139.644 1850.71C139.311 1850.85 138.959 1851 138.65 1851.34C138.476 1851.53 138.314 1851.76 138.204 1852.02C137.861 1852.88 138.26 1853.63 138.652 1853.95C139.108 1854.33 139.684 1854.3 140.289 1853.98C140.529 1853.86 140.769 1853.7 140.991 1853.45C141.172 1853.25 141.321 1853 141.431 1852.75Z" fill="#A9733D"/>
<path d="M140.568 1857.54C141.108 1857.66 141.71 1857.59 142.308 1857.34C142.508 1857.26 142.701 1857.15 142.863 1856.92C143.066 1856.59 143.112 1856.13 143.024 1855.81C142.836 1855.12 142.175 1854.74 141.701 1854.6C141.129 1854.39 140.501 1854.46 139.856 1854.76C139.071 1855.14 138.806 1856.07 139.305 1856.73C139.642 1857.18 140.094 1857.44 140.568 1857.54Z" fill="#A9733D"/>
<path d="M139.393 1857.97C139.34 1857.95 139.301 1857.94 139.248 1857.92C138.905 1857.86 138.528 1857.91 138.15 1858.01C137.991 1858.05 137.825 1858.12 137.671 1858.24C137.337 1858.52 137.15 1859.12 137.249 1859.53C137.348 1860 137.635 1860.28 137.902 1860.54C138.332 1860.91 138.871 1861.08 139.441 1861.02C139.805 1860.97 140.196 1860.83 140.545 1860.45C140.613 1860.38 140.68 1860.3 140.721 1860.22C140.768 1860.11 140.783 1860.02 140.791 1859.9C140.836 1859.53 140.748 1859.22 140.62 1858.98C140.491 1858.75 140.315 1858.57 140.133 1858.42C139.884 1858.24 139.669 1858.05 139.393 1857.97Z" fill="#A9733D"/>
<path d="M137.808 1851.07C138.175 1849.96 137.903 1849.13 137.114 1848.88C136.39 1848.65 135.335 1849.43 134.997 1850.45C134.686 1851.39 135.009 1852.29 135.752 1852.55C136.587 1852.84 137.428 1852.23 137.808 1851.07Z" fill="#A9733D"/>
<path d="M130.702 1858.15C129.648 1856.12 128.934 1853.86 130.961 1852.81C132.989 1851.76 135.487 1852.54 136.541 1854.57C137.596 1856.6 136.807 1859.1 134.779 1860.15C132.752 1861.21 131.756 1860.18 130.702 1858.15Z" fill="#A9733D"/>
</g>
<g opacity="0.2">
<path d="M153.532 431.049C153.39 431.042 153.207 431.069 153.069 431.089C152.014 431.245 151.02 431.814 150.547 432.418C150.074 433.023 149.992 433.737 150.181 434.384C150.371 435.031 150.873 435.575 151.417 436.085C151.958 436.567 152.548 437.07 153.431 437.333C153.922 437.485 154.497 437.569 155.056 437.542C156.911 437.408 157.925 436.021 158.153 435.031C158.449 433.863 157.878 432.851 156.772 432.031C156.348 431.7 155.836 431.411 155.199 431.224C154.662 431.078 154.091 431.022 153.532 431.049Z" fill="#A9733D"/>
<path d="M162.984 428.385C162.729 427.298 162.062 426.273 161.089 425.404C160.765 425.115 160.399 424.86 159.824 424.776C159.062 424.692 158.172 425.021 157.675 425.46C156.596 426.407 156.495 427.94 156.641 428.93C156.775 430.147 157.45 431.228 158.568 432.131C159.948 433.22 161.867 432.879 162.631 431.389C163.139 430.386 163.218 429.334 162.984 428.385Z" fill="#A9733D"/>
<path d="M164.791 430.141C164.807 430.251 164.819 430.333 164.836 430.443C165.029 431.118 165.452 431.758 165.963 432.357C166.187 432.605 166.457 432.846 166.811 433.019C167.614 433.378 168.853 433.194 169.522 432.645C170.278 432.056 170.54 431.286 170.763 430.578C171.067 429.465 170.9 428.337 170.287 427.36C169.868 426.747 169.265 426.161 168.283 425.857C168.087 425.802 167.891 425.746 167.704 425.746C167.47 425.752 167.291 425.807 167.07 425.896C166.356 426.142 165.858 426.581 165.548 427.021C165.238 427.46 165.074 427.934 164.956 428.402C164.858 429.007 164.705 429.563 164.791 430.141Z" fill="#A9733D"/>
<path d="M153.692 439.093C151.348 439.412 150.076 440.64 150.32 442.291C150.544 443.804 152.883 445.032 155.043 444.74C157.02 444.476 158.363 443.097 158.177 441.522C157.962 439.754 156.127 438.761 153.692 439.093Z" fill="#A9733D"/>
<path d="M172.788 445.735C170.043 449.435 166.576 452.721 162.877 449.975C159.177 447.23 158.404 442.004 161.15 438.305C163.895 434.605 169.12 433.832 172.82 436.577C176.519 439.323 175.534 442.035 172.788 445.735Z" fill="#A9733D"/>
<path d="M201.803 429.372C201.66 429.409 201.486 429.492 201.356 429.555C200.358 430.035 199.547 430.906 199.263 431.651C198.98 432.396 199.12 433.13 199.507 433.713C199.894 434.297 200.56 434.681 201.257 435.019C201.942 435.331 202.682 435.648 203.639 435.637C204.173 435.637 204.77 435.542 205.316 435.344C207.115 434.639 207.693 432.951 207.615 431.898C207.548 430.648 206.669 429.821 205.32 429.348C204.797 429.15 204.2 429.021 203.51 429.032C202.933 429.053 202.349 429.173 201.803 429.372Z" fill="#A9733D"/>
<path d="M210.357 423.816C209.77 422.816 208.792 422.004 207.559 421.443C207.149 421.256 206.707 421.115 206.111 421.21C205.329 421.362 204.548 421.961 204.189 422.55C203.411 423.822 203.783 425.374 204.234 426.311C204.741 427.478 205.744 428.342 207.132 428.893C208.837 429.547 210.635 428.618 210.934 426.904C211.128 425.753 210.882 424.685 210.357 423.816Z" fill="#A9733D"/>
<path d="M212.692 425.001C212.742 425.105 212.779 425.184 212.829 425.288C213.229 425.897 213.846 426.402 214.537 426.839C214.836 427.015 215.178 427.171 215.583 427.233C216.49 427.342 217.662 426.778 218.157 426.028C218.726 425.209 218.747 424.365 218.751 423.594C218.709 422.396 218.196 421.329 217.286 420.548C216.682 420.07 215.904 419.674 214.835 419.675C214.624 419.681 214.413 419.686 214.227 419.744C213.997 419.822 213.836 419.932 213.644 420.088C213.012 420.552 212.653 421.141 212.481 421.673C212.309 422.204 212.292 422.725 212.319 423.225C212.408 423.856 212.429 424.455 212.692 425.001Z" fill="#A9733D"/>
<path d="M204.44 437.303C202.213 438.342 201.33 439.952 202.081 441.514C202.769 442.946 205.468 443.444 207.521 442.489C209.4 441.617 210.307 439.835 209.637 438.33C208.88 436.643 206.753 436.223 204.44 437.303Z" fill="#A9733D"/>
<path d="M225.432 438.005C223.848 442.522 221.423 446.851 216.906 445.267C212.39 443.683 210.012 438.738 211.596 434.222C213.179 429.705 218.124 427.327 222.641 428.911C227.157 430.494 227.015 433.489 225.432 438.005Z" fill="#A9733D"/>
<path d="M170.7 394.043C170.561 394.079 170.391 394.16 170.264 394.221C169.29 394.69 168.5 395.539 168.224 396.265C167.948 396.992 168.083 397.708 168.461 398.276C168.839 398.845 169.488 399.22 170.168 399.55C170.835 399.854 171.557 400.163 172.49 400.152C173.011 400.151 173.592 400.059 174.125 399.866C175.879 399.179 176.443 397.532 176.366 396.506C176.302 395.288 175.445 394.481 174.128 394.02C173.619 393.827 173.037 393.701 172.364 393.712C171.801 393.732 171.232 393.85 170.7 394.043Z" fill="#A9733D"/>
<path d="M179.04 388.627C178.468 387.652 177.514 386.861 176.312 386.313C175.912 386.131 175.481 385.994 174.9 386.086C174.137 386.234 173.376 386.819 173.027 387.393C172.268 388.633 172.63 390.146 173.07 391.06C173.564 392.197 174.543 393.039 175.895 393.577C177.558 394.215 179.311 393.309 179.602 391.638C179.792 390.515 179.552 389.474 179.04 388.627Z" fill="#A9733D"/>
<path d="M181.316 389.781C181.365 389.883 181.401 389.959 181.45 390.06C181.84 390.654 182.442 391.146 183.115 391.572C183.407 391.745 183.741 391.897 184.135 391.958C185.019 392.063 186.162 391.514 186.644 390.782C187.199 389.984 187.22 389.161 187.224 388.409C187.183 387.241 186.683 386.201 185.796 385.439C185.207 384.973 184.448 384.587 183.406 384.588C183.2 384.594 182.994 384.599 182.813 384.655C182.589 384.731 182.432 384.838 182.244 384.991C181.628 385.443 181.279 386.018 181.111 386.536C180.943 387.054 180.927 387.562 180.953 388.05C181.04 388.664 181.06 389.248 181.316 389.781Z" fill="#A9733D"/>
<path d="M173.271 401.776C171.099 402.789 170.239 404.359 170.971 405.882C171.642 407.278 174.273 407.763 176.275 406.832C178.107 405.982 178.992 404.244 178.339 402.777C177.6 401.132 175.527 400.723 173.271 401.776Z" fill="#A9733D"/>
<path d="M193.738 402.461C192.194 406.865 189.829 411.085 185.425 409.541C181.022 407.997 178.704 403.176 180.248 398.772C181.791 394.368 186.613 392.05 191.016 393.594C195.42 395.138 195.282 398.057 193.738 402.461Z" fill="#A9733D"/>
<path d="M128.521 405.409C128.391 405.442 128.232 405.519 128.113 405.576C127.201 406.015 126.46 406.81 126.201 407.491C125.942 408.172 126.069 408.843 126.423 409.376C126.777 409.909 127.386 410.261 128.023 410.57C128.648 410.855 129.325 411.144 130.199 411.134C130.688 411.134 131.232 411.047 131.731 410.866C133.376 410.222 133.904 408.679 133.832 407.718C133.772 406.575 132.968 405.819 131.735 405.387C131.257 405.206 130.712 405.088 130.082 405.098C129.554 405.118 129.02 405.228 128.521 405.409Z" fill="#A9733D"/>
<path d="M136.339 400.333C135.802 399.419 134.908 398.677 133.782 398.164C133.407 397.993 133.003 397.865 132.458 397.951C131.743 398.09 131.03 398.638 130.702 399.176C129.991 400.338 130.331 401.757 130.743 402.613C131.206 403.679 132.123 404.468 133.391 404.972C134.949 405.57 136.593 404.721 136.865 403.155C137.043 402.103 136.818 401.127 136.339 400.333Z" fill="#A9733D"/>
<path d="M138.472 401.416C138.518 401.512 138.552 401.583 138.598 401.678C138.963 402.235 139.527 402.696 140.158 403.095C140.431 403.257 140.744 403.399 141.113 403.456C141.943 403.555 143.014 403.04 143.466 402.354C143.985 401.606 144.005 400.835 144.009 400.131C143.971 399.036 143.502 398.06 142.67 397.347C142.118 396.91 141.407 396.549 140.431 396.55C140.238 396.554 140.045 396.559 139.874 396.612C139.665 396.684 139.517 396.784 139.342 396.927C138.764 397.351 138.437 397.889 138.279 398.375C138.122 398.86 138.107 399.336 138.131 399.793C138.213 400.369 138.232 400.917 138.472 401.416Z" fill="#A9733D"/>
<path d="M130.931 412.657C128.896 413.607 128.089 415.078 128.776 416.506C129.405 417.814 131.87 418.269 133.747 417.396C135.464 416.6 136.293 414.971 135.681 413.596C134.988 412.054 133.045 411.67 130.931 412.657Z" fill="#A9733D"/>
<path d="M150.114 413.299C148.667 417.426 146.45 421.382 142.323 419.935C138.196 418.488 136.023 413.969 137.47 409.842C138.917 405.714 143.436 403.542 147.563 404.989C151.69 406.436 151.561 409.172 150.114 413.299Z" fill="#A9733D"/>
<path d="M117.649 345.444C117.534 345.451 117.389 345.488 117.28 345.517C116.444 345.734 115.694 346.279 115.365 346.806C115.037 347.334 115.034 347.916 115.242 348.42C115.451 348.924 115.903 349.318 116.385 349.681C116.862 350.022 117.381 350.375 118.114 350.51C118.523 350.59 118.993 350.607 119.44 350.537C120.922 350.267 121.617 349.063 121.715 348.247C121.851 347.281 121.303 346.516 120.341 345.952C119.971 345.723 119.534 345.534 119.005 345.44C118.56 345.369 118.096 345.374 117.649 345.444Z" fill="#A9733D"/>
<path d="M125.023 342.477C124.723 341.625 124.097 340.858 123.238 340.244C122.952 340.039 122.636 339.866 122.166 339.848C121.545 339.847 120.858 340.189 120.496 340.586C119.71 341.442 119.762 342.684 119.966 343.468C120.179 344.436 120.817 345.247 121.796 345.876C123.001 346.632 124.516 346.192 125.001 344.925C125.322 344.074 125.294 343.221 125.023 342.477Z" fill="#A9733D"/>
<path d="M126.63 343.734C126.652 343.821 126.669 343.887 126.692 343.974C126.907 344.499 127.303 344.978 127.766 345.415C127.968 345.595 128.206 345.766 128.506 345.874C129.184 346.093 130.165 345.838 130.655 345.338C131.213 344.797 131.356 344.155 131.474 343.566C131.622 342.643 131.39 341.75 130.811 341.017C130.42 340.56 129.884 340.142 129.067 339.982C128.905 339.955 128.742 339.927 128.591 339.943C128.404 339.969 128.264 340.029 128.094 340.12C127.541 340.38 127.179 340.777 126.967 341.157C126.756 341.538 126.665 341.934 126.611 342.32C126.584 342.815 126.511 343.277 126.63 343.734Z" fill="#A9733D"/>
<path d="M118.477 351.904C116.619 352.365 115.702 353.464 116.043 354.771C116.355 355.969 118.344 356.754 120.057 356.331C121.625 355.946 122.585 354.719 122.298 353.468C121.972 352.064 120.408 351.424 118.477 351.904Z" fill="#A9733D"/>
<path d="M134.425 355.586C132.537 358.802 130.034 361.749 126.818 359.862C123.601 357.974 122.524 353.836 124.411 350.62C126.299 347.403 130.436 346.326 133.653 348.213C136.869 350.101 136.312 352.369 134.425 355.586Z" fill="#A9733D"/>
<path d="M109.23 377.672C109.115 377.678 108.97 377.716 108.861 377.745C108.025 377.962 107.275 378.507 106.946 379.034C106.618 379.561 106.615 380.144 106.823 380.648C107.032 381.152 107.484 381.546 107.966 381.909C108.443 382.25 108.962 382.603 109.695 382.738C110.104 382.817 110.574 382.835 111.021 382.765C112.503 382.495 113.198 381.291 113.296 380.474C113.432 379.508 112.884 378.744 111.922 378.18C111.552 377.951 111.115 377.762 110.586 377.667C110.141 377.597 109.677 377.602 109.23 377.672Z" fill="#A9733D"/>
<path d="M116.604 374.705C116.305 373.853 115.678 373.085 114.82 372.471C114.534 372.267 114.217 372.093 113.747 372.076C113.126 372.075 112.439 372.417 112.077 372.813C111.291 373.669 111.343 374.912 111.548 375.696C111.761 376.664 112.399 377.475 113.377 378.104C114.583 378.86 116.097 378.419 116.582 377.153C116.904 376.302 116.875 375.449 116.604 374.705Z" fill="#A9733D"/>
<path d="M118.211 375.962C118.233 376.049 118.25 376.114 118.273 376.202C118.488 376.727 118.884 377.206 119.347 377.643C119.549 377.823 119.787 377.994 120.087 378.102C120.765 378.321 121.746 378.065 122.236 377.565C122.794 377.025 122.937 376.383 123.055 375.794C123.203 374.871 122.971 373.978 122.392 373.245C122.001 372.788 121.466 372.37 120.648 372.21C120.486 372.183 120.323 372.155 120.172 372.171C119.985 372.197 119.845 372.256 119.675 372.347C119.122 372.608 118.76 373.004 118.548 373.385C118.337 373.766 118.246 374.162 118.192 374.548C118.165 375.043 118.092 375.504 118.211 375.962Z" fill="#A9733D"/>
<path d="M110.059 384.132C108.2 384.592 107.284 385.692 107.624 386.999C107.936 388.197 109.925 388.982 111.638 388.559C113.206 388.174 114.167 386.947 113.88 385.696C113.553 384.292 111.99 383.652 110.059 384.132Z" fill="#A9733D"/>
<path d="M126.006 387.814C124.118 391.031 121.615 393.978 118.399 392.09C115.182 390.203 114.105 386.065 115.992 382.848C117.88 379.632 122.017 378.554 125.234 380.442C128.45 382.33 127.893 384.598 126.006 387.814Z" fill="#A9733D"/>
<path d="M145.702 366.395C145.588 366.402 145.442 366.439 145.333 366.468C144.498 366.685 143.747 367.23 143.419 367.757C143.091 368.285 143.087 368.867 143.296 369.371C143.505 369.875 143.957 370.269 144.439 370.632C144.916 370.973 145.435 371.326 146.168 371.461C146.577 371.541 147.047 371.558 147.494 371.488C148.976 371.218 149.671 370.014 149.768 369.198C149.905 368.232 149.357 367.467 148.395 366.903C148.025 366.674 147.588 366.486 147.059 366.391C146.614 366.32 146.15 366.325 145.702 366.395Z" fill="#A9733D"/>
<path d="M153.076 363.428C152.777 362.576 152.15 361.809 151.292 361.195C151.006 360.99 150.689 360.817 150.219 360.799C149.598 360.798 148.911 361.14 148.549 361.537C147.763 362.393 147.815 363.635 148.02 364.419C148.233 365.387 148.871 366.198 149.849 366.827C151.055 367.584 152.569 367.143 153.054 365.877C153.376 365.025 153.348 364.172 153.076 363.428Z" fill="#A9733D"/>
<path d="M154.683 364.685C154.706 364.772 154.723 364.838 154.746 364.925C154.96 365.45 155.356 365.929 155.82 366.367C156.022 366.547 156.26 366.717 156.56 366.825C157.237 367.044 158.219 366.789 158.709 366.289C159.267 365.748 159.41 365.106 159.528 364.517C159.676 363.594 159.443 362.701 158.864 361.968C158.474 361.512 157.938 361.093 157.121 360.933C156.958 360.906 156.796 360.878 156.645 360.895C156.458 360.92 156.318 360.98 156.148 361.071C155.595 361.331 155.232 361.728 155.021 362.108C154.81 362.489 154.719 362.885 154.664 363.271C154.638 363.767 154.564 364.228 154.683 364.685Z" fill="#A9733D"/>
<path d="M146.531 372.855C144.672 373.316 143.756 374.415 144.096 375.722C144.408 376.92 146.397 377.705 148.11 377.282C149.678 376.897 150.639 375.67 150.352 374.419C150.025 373.015 148.462 372.375 146.531 372.855Z" fill="#A9733D"/>
<path d="M162.478 376.538C160.591 379.754 158.088 382.701 154.871 380.814C151.655 378.926 150.577 374.788 152.465 371.572C154.352 368.355 158.49 367.278 161.706 369.165C164.923 371.053 164.366 373.321 162.478 376.538Z" fill="#A9733D"/>
<path d="M83.337 353.61C83.2353 353.616 83.1063 353.649 83.0095 353.674C82.2677 353.868 81.6015 354.351 81.3102 354.819C81.0188 355.287 81.0157 355.804 81.201 356.252C81.3864 356.699 81.7874 357.049 82.2157 357.371C82.6389 357.674 83.0994 357.987 83.7504 358.107C84.1132 358.178 84.5304 358.193 84.9275 358.131C86.2427 357.892 86.8597 356.822 86.9465 356.098C87.0676 355.24 86.5809 354.562 85.7274 354.061C85.3989 353.858 85.011 353.69 84.5414 353.606C84.1463 353.544 83.7341 353.548 83.337 353.61Z" fill="#A9733D"/>
<path d="M89.8831 350.976C89.6172 350.219 89.061 349.538 88.2991 348.993C88.0452 348.812 87.764 348.658 87.3467 348.642C86.7954 348.641 86.1856 348.945 85.864 349.297C85.1663 350.057 85.2125 351.16 85.3937 351.856C85.583 352.715 86.1493 353.435 87.018 353.994C88.0882 354.665 89.4329 354.273 89.8635 353.149C90.1489 352.394 90.1239 351.636 89.8831 350.976Z" fill="#A9733D"/>
<path d="M91.3092 352.091C91.3293 352.169 91.3444 352.227 91.3646 352.304C91.555 352.771 91.9066 353.195 92.3178 353.584C92.4971 353.744 92.7088 353.895 92.9748 353.991C93.5765 354.185 94.4474 353.958 94.8829 353.515C95.3779 353.035 95.505 352.465 95.6099 351.942C95.7412 351.123 95.5347 350.33 95.0208 349.679C94.6742 349.274 94.1985 348.902 93.4729 348.761C93.3288 348.736 93.1846 348.712 93.0506 348.726C92.8843 348.749 92.7603 348.802 92.6091 348.883C92.1182 349.114 91.7966 349.466 91.609 349.804C91.4215 350.142 91.3408 350.493 91.2923 350.836C91.2691 351.276 91.2035 351.685 91.3092 352.091Z" fill="#A9733D"/>
<path d="M84.0724 359.345C82.4225 359.754 81.6091 360.73 81.9112 361.89C82.1881 362.953 83.9536 363.65 85.4744 363.275C86.8663 362.933 87.7191 361.844 87.4643 360.733C87.1743 359.487 85.7867 358.919 84.0724 359.345Z" fill="#A9733D"/>
<path d="M98.229 362.614C96.5535 365.469 94.3313 368.085 91.476 366.41C88.6207 364.734 87.6643 361.061 89.3398 358.206C91.0153 355.35 94.6882 354.394 97.5435 356.069C100.399 357.745 99.9045 359.759 98.229 362.614Z" fill="#A9733D"/>
<path d="M82.0783 321.905C81.9765 321.911 81.8475 321.944 81.7507 321.97C81.0089 322.163 80.3427 322.646 80.0514 323.114C79.76 323.582 79.7569 324.099 79.9423 324.547C80.1276 324.994 80.5286 325.344 80.9569 325.666C81.3801 325.969 81.8406 326.283 82.4916 326.402C82.8544 326.473 83.2716 326.488 83.6687 326.426C84.9839 326.187 85.6009 325.118 85.6877 324.393C85.8088 323.535 85.3221 322.857 84.4686 322.356C84.1401 322.153 83.7522 321.985 83.2826 321.901C82.8875 321.839 82.4753 321.843 82.0783 321.905Z" fill="#A9733D"/>
<path d="M88.6243 319.27C88.3584 318.514 87.8022 317.833 87.0403 317.288C86.7864 317.106 86.5052 316.952 86.088 316.937C85.5366 316.936 84.9268 317.239 84.6052 317.591C83.9076 318.351 83.9537 319.454 84.1349 320.15C84.3242 321.01 84.8905 321.729 85.7592 322.288C86.8295 322.959 88.1741 322.568 88.6047 321.444C88.8901 320.688 88.8651 319.93 88.6243 319.27Z" fill="#A9733D"/>
<path d="M90.0509 320.386C90.071 320.464 90.0861 320.522 90.1063 320.599C90.2967 321.066 90.6483 321.49 91.0595 321.879C91.2388 322.039 91.4505 322.19 91.7165 322.286C92.3182 322.48 93.1891 322.254 93.6246 321.81C94.1196 321.33 94.2467 320.76 94.3516 320.237C94.4829 319.418 94.2764 318.625 93.7625 317.974C93.4159 317.569 92.9402 317.197 92.2146 317.056C92.0705 317.032 91.9263 317.007 91.7923 317.021C91.626 317.044 91.502 317.097 91.3508 317.178C90.8599 317.409 90.5383 317.761 90.3507 318.099C90.1632 318.437 90.0825 318.788 90.034 319.131C90.0108 319.571 89.9452 319.98 90.0509 320.386Z" fill="#A9733D"/>
<path d="M82.8136 327.64C81.1637 328.049 80.3503 329.025 80.6524 330.185C80.9293 331.249 82.6948 331.945 84.2157 331.57C85.6075 331.228 86.4603 330.139 86.2055 329.028C85.9155 327.782 84.5279 327.214 82.8136 327.64Z" fill="#A9733D"/>
<path d="M96.9702 330.908C95.2947 333.764 93.0725 336.38 90.2172 334.704C87.3619 333.028 86.4055 329.355 88.081 326.5C89.7565 323.644 93.4294 322.688 96.2847 324.364C99.14 326.039 98.6457 328.053 96.9702 330.908Z" fill="#A9733D"/>
<path d="M53.5238 331.203C53.4245 331.209 53.2987 331.242 53.2044 331.266C52.481 331.454 51.8312 331.926 51.5471 332.382C51.263 332.839 51.26 333.343 51.4407 333.779C51.6215 334.216 52.0126 334.557 52.4302 334.871C52.8429 335.166 53.292 335.472 53.9269 335.589C54.2807 335.658 54.6876 335.673 55.0749 335.612C56.3575 335.379 56.9592 334.336 57.0438 333.629C57.1619 332.793 56.6874 332.131 55.855 331.643C55.5346 331.445 55.1563 331.281 54.6983 331.199C54.313 331.139 53.9111 331.143 53.5238 331.203Z" fill="#A9733D"/>
<path d="M59.9077 328.635C59.6483 327.897 59.1059 327.233 58.3629 326.701C58.1152 326.524 57.841 326.374 57.4341 326.359C56.8964 326.358 56.3017 326.654 55.9881 326.998C55.3077 327.739 55.3527 328.814 55.5295 329.493C55.7141 330.331 56.2663 331.033 57.1135 331.578C58.1572 332.233 59.4686 331.851 59.8885 330.755C60.1669 330.018 60.1424 329.279 59.9077 328.635Z" fill="#A9733D"/>
<path d="M61.2982 329.723C61.3179 329.798 61.3326 329.855 61.3523 329.93C61.5379 330.385 61.8809 330.8 62.2818 331.178C62.4568 331.334 62.6632 331.482 62.9226 331.575C63.5094 331.765 64.3587 331.544 64.7834 331.111C65.2662 330.643 65.3901 330.087 65.4925 329.577C65.6204 328.779 65.4191 328.005 64.9179 327.371C64.5799 326.975 64.116 326.613 63.4083 326.475C63.2678 326.451 63.1272 326.427 62.9965 326.441C62.8343 326.463 62.7134 326.515 62.5659 326.594C62.0872 326.819 61.7736 327.162 61.5907 327.492C61.4078 327.822 61.3291 328.164 61.2818 328.499C61.2591 328.928 61.1951 329.327 61.2982 329.723Z" fill="#A9733D"/>
<path d="M54.2409 336.797C52.6319 337.195 51.8386 338.147 52.1332 339.279C52.4033 340.316 54.1251 340.995 55.6082 340.629C56.9656 340.296 57.7973 339.234 57.5488 338.15C57.266 336.935 55.9127 336.381 54.2409 336.797Z" fill="#A9733D"/>
<path d="M68.0469 339.984C66.4129 342.769 64.2457 345.32 61.4611 343.686C58.6765 342.052 57.7438 338.47 59.3778 335.685C61.0118 332.9 64.5938 331.968 67.3783 333.602C70.1629 335.236 69.6809 337.2 68.0469 339.984Z" fill="#A9733D"/>
<path d="M51.6503 300.947C51.5564 300.952 51.4373 300.983 51.3481 301.007C50.6637 301.185 50.049 301.631 49.7802 302.063C49.5114 302.494 49.5086 302.972 49.6796 303.384C49.8506 303.797 50.2206 304.12 50.6157 304.417C51.0061 304.696 51.431 304.986 52.0316 305.096C52.3663 305.161 52.7513 305.175 53.1176 305.118C54.3311 304.897 54.9003 303.911 54.9804 303.242C55.0921 302.451 54.6431 301.825 53.8557 301.363C53.5526 301.175 53.1947 301.021 52.7614 300.943C52.3969 300.886 52.0166 300.89 51.6503 300.947Z" fill="#A9733D"/>
<path d="M57.69 298.517C57.4446 297.818 56.9315 297.19 56.2286 296.687C55.9943 296.52 55.7348 296.378 55.3499 296.363C54.8412 296.363 54.2786 296.642 53.9818 296.967C53.3382 297.668 53.3808 298.686 53.548 299.328C53.7226 300.121 54.2451 300.785 55.0466 301.301C56.034 301.92 57.2746 301.559 57.6719 300.522C57.9352 299.824 57.9121 299.126 57.69 298.517Z" fill="#A9733D"/>
<path d="M59.0054 299.546C59.024 299.618 59.0379 299.671 59.0565 299.743C59.2322 300.173 59.5566 300.565 59.936 300.923C60.1014 301.071 60.2967 301.21 60.5422 301.299C61.0973 301.478 61.9008 301.269 62.3026 300.86C62.7593 300.417 62.8765 299.891 62.9734 299.408C63.0944 298.653 62.9039 297.922 62.4298 297.321C62.11 296.947 61.6712 296.604 61.0017 296.474C60.8687 296.451 60.7357 296.429 60.6121 296.442C60.4586 296.463 60.3442 296.511 60.2047 296.586C59.7518 296.799 59.4551 297.124 59.2821 297.436C59.109 297.748 59.0346 298.072 58.9899 298.388C58.9684 298.794 58.9079 299.172 59.0054 299.546Z" fill="#A9733D"/>
<path d="M52.3287 306.238C50.8065 306.615 50.056 307.516 50.3347 308.586C50.5902 309.567 52.2191 310.21 53.6222 309.864C54.9064 309.548 55.6932 308.543 55.4581 307.519C55.1905 306.369 53.9103 305.845 52.3287 306.238Z" fill="#A9733D"/>
<path d="M65.3896 309.254C63.8438 311.888 61.7935 314.302 59.1592 312.756C56.5249 311.21 55.6425 307.821 57.1883 305.187C58.7342 302.552 62.1229 301.67 64.7572 303.216C67.3915 304.762 66.9355 306.619 65.3896 309.254Z" fill="#A9733D"/>
<path d="M23.5843 312.506C23.4925 312.511 23.3763 312.541 23.2891 312.564C22.6205 312.738 22.0199 313.174 21.7573 313.596C21.4947 314.018 21.4919 314.484 21.659 314.887C21.826 315.29 22.1875 315.606 22.5735 315.896C22.955 316.169 23.3701 316.452 23.9569 316.56C24.2839 316.623 24.6599 316.637 25.0179 316.581C26.2033 316.365 26.7595 315.402 26.8377 314.748C26.9469 313.976 26.5082 313.364 25.7389 312.913C25.4428 312.729 25.0931 312.578 24.6698 312.502C24.3137 312.446 23.9422 312.45 23.5843 312.506Z" fill="#A9733D"/>
<path d="M29.4849 310.132C29.2452 309.45 28.7438 308.836 28.0571 308.345C27.8282 308.181 27.5748 308.042 27.1987 308.028C26.7017 308.028 26.152 308.301 25.8621 308.618C25.2333 309.303 25.2749 310.298 25.4383 310.925C25.6089 311.7 26.1193 312.348 26.9023 312.852C27.867 313.457 29.079 313.104 29.4672 312.091C29.7244 311.41 29.7019 310.727 29.4849 310.132Z" fill="#A9733D"/>
<path d="M30.7701 311.137C30.7882 311.206 30.8018 311.259 30.82 311.328C30.9916 311.749 31.3086 312.132 31.6792 312.482C31.8408 312.626 32.0316 312.762 32.2714 312.849C32.8137 313.024 33.5987 312.82 33.9913 312.42C34.4374 311.987 34.552 311.473 34.6466 311.002C34.7649 310.264 34.5788 309.549 34.1156 308.963C33.8032 308.597 33.3744 308.262 32.7203 308.135C32.5904 308.113 32.4605 308.091 32.3397 308.104C32.1898 308.124 32.078 308.172 31.9417 308.244C31.4993 308.453 31.2094 308.77 31.0403 309.075C30.8713 309.379 30.7985 309.696 30.7549 310.005C30.7339 310.402 30.6747 310.771 30.7701 311.137Z" fill="#A9733D"/>
<path d="M24.2472 317.674C22.7601 318.043 22.0268 318.923 22.2991 319.968C22.5488 320.927 24.1401 321.555 25.511 321.217C26.7655 320.909 27.5342 319.927 27.3045 318.926C27.0431 317.802 25.7924 317.291 24.2472 317.674Z" fill="#A9733D"/>
<path d="M37.0074 320.621C35.4972 323.195 33.4941 325.553 30.9205 324.043C28.3468 322.532 27.4847 319.221 28.995 316.648C30.5052 314.074 33.8159 313.212 36.3895 314.722C38.9632 316.232 38.5176 318.047 37.0074 320.621Z" fill="#A9733D"/>
<path d="M19.6412 286.646C19.5612 286.65 19.4598 286.677 19.3838 286.697C18.8007 286.848 18.2769 287.228 18.0479 287.596C17.8189 287.964 17.8164 288.371 17.9621 288.722C18.1078 289.074 18.423 289.349 18.7597 289.602C19.0923 289.84 19.4543 290.087 19.9661 290.181C20.2513 290.236 20.5792 290.248 20.8914 290.199C21.9253 290.011 22.4103 289.171 22.4785 288.601C22.5737 287.927 22.1912 287.394 21.5203 287.001C21.2621 286.841 20.9571 286.709 20.5879 286.643C20.2774 286.594 19.9534 286.597 19.6412 286.646Z" fill="#A9733D"/>
<path d="M24.7874 284.575C24.5784 283.98 24.1412 283.445 23.5424 283.017C23.3428 282.874 23.1218 282.753 22.7938 282.741C22.3604 282.74 21.8811 282.978 21.6283 283.255C21.08 283.853 21.1162 284.72 21.2587 285.267C21.4075 285.942 21.8526 286.508 22.5354 286.947C23.3766 287.474 24.4335 287.167 24.772 286.283C24.9963 285.689 24.9766 285.094 24.7874 284.575Z" fill="#A9733D"/>
<path d="M25.9083 285.452C25.9241 285.513 25.936 285.558 25.9518 285.619C26.1015 285.986 26.3779 286.32 26.701 286.625C26.842 286.751 27.0084 286.87 27.2175 286.945C27.6904 287.098 28.3749 286.919 28.7172 286.571C29.1063 286.193 29.2062 285.745 29.2887 285.334C29.3918 284.691 29.2296 284.068 28.8256 283.556C28.5532 283.237 28.1793 282.945 27.609 282.834C27.4957 282.815 27.3824 282.796 27.277 282.807C27.1463 282.825 27.0489 282.866 26.93 282.93C26.5442 283.111 26.2914 283.388 26.144 283.654C25.9966 283.919 25.9331 284.196 25.895 284.465C25.8767 284.811 25.8252 285.133 25.9083 285.452Z" fill="#A9733D"/>
<path d="M20.2196 291.154C18.9227 291.475 18.2832 292.242 18.5207 293.154C18.7383 293.99 20.1262 294.538 21.3217 294.243C22.4158 293.974 23.0862 293.118 22.886 292.245C22.658 291.265 21.5673 290.819 20.2196 291.154Z" fill="#A9733D"/>
<path d="M31.3473 293.723C30.0303 295.968 28.2835 298.024 26.0391 296.707C23.7947 295.39 23.0429 292.502 24.3599 290.258C25.677 288.013 28.5641 287.262 30.8085 288.579C33.0529 289.896 32.6643 291.479 31.3473 293.723Z" fill="#A9733D"/>
</g>
<g opacity="0.2">
<path d="M364.687 40.3615C364.666 40.4685 364.666 40.6111 364.666 40.7181C364.665 41.5382 364.985 42.3586 365.391 42.7868C365.797 43.215 366.332 43.358 366.845 43.287C367.358 43.2161 367.829 42.8954 368.278 42.5391C368.706 42.1828 369.155 41.7909 369.455 41.1492C369.626 40.7927 369.755 40.3649 369.798 39.937C369.906 38.5107 368.966 37.5829 368.239 37.2972C367.384 36.94 366.55 37.2604 365.801 38.0087C365.501 38.2938 365.223 38.6502 365.009 39.1136C364.838 39.5058 364.73 39.9336 364.687 40.3615Z" fill="#A9733D"/>
<path d="M363.73 32.8723C362.875 32.9431 362.019 33.3348 361.249 33.9761C360.992 34.1899 360.757 34.4393 360.628 34.8672C360.478 35.4376 360.628 36.1509 360.905 36.579C361.503 37.5066 362.658 37.757 363.428 37.7575C364.368 37.7938 365.267 37.4021 366.08 36.6538C367.064 35.7273 367.022 34.2296 365.975 33.4801C365.27 32.9803 364.479 32.8015 363.73 32.8723Z" fill="#A9733D"/>
<path d="M365.271 31.6964C365.356 31.6965 365.42 31.6965 365.506 31.6966C366.04 31.6256 366.575 31.3764 367.089 31.0558C367.302 30.9133 367.516 30.7351 367.688 30.4856C368.051 29.9153 368.052 28.9525 367.71 28.3818C367.347 27.7396 366.792 27.454 366.279 27.204C365.466 26.8469 364.59 26.8463 363.777 27.2023C363.264 27.4516 362.75 27.8435 362.408 28.5565C362.343 28.6991 362.279 28.8417 362.258 28.9843C362.236 29.1626 362.257 29.3052 362.3 29.4835C362.407 30.0542 362.684 30.4823 362.983 30.7677C363.283 31.0532 363.625 31.2318 363.967 31.3746C364.415 31.5176 364.822 31.6961 365.271 31.6964Z" fill="#A9733D"/>
<path d="M370.824 41.1503C370.801 42.9689 371.591 44.0748 372.874 44.0757C374.05 44.0765 375.249 42.437 375.271 40.761C375.294 39.2277 374.396 38.0503 373.178 38.0138C371.809 37.9772 370.846 39.2603 370.824 41.1503Z" fill="#A9733D"/>
<path d="M378.035 27.3775C380.538 29.884 382.646 32.8918 380.139 35.3949C377.632 37.8981 373.571 37.8953 371.068 35.3888C368.564 32.8823 368.567 28.8212 371.074 26.318C373.581 23.8149 375.532 24.871 378.035 27.3775Z" fill="#A9733D"/>
<path d="M368.872 3.46132C368.883 3.57405 368.927 3.71558 368.96 3.82172C369.212 4.63552 369.783 5.35068 370.318 5.65033C370.852 5.94998 371.427 5.92712 371.914 5.69853C372.401 5.46995 372.769 5.00684 373.105 4.51492C373.42 4.02957 373.744 3.50227 373.844 2.77332C373.904 2.36689 373.9 1.90284 373.811 1.4651C373.478 0.0169192 372.259 -0.613688 371.45 -0.67317C370.492 -0.763962 369.763 -0.18906 369.251 0.784129C369.042 1.15925 368.876 1.59856 368.806 2.12429C368.757 2.56611 368.782 3.02358 368.872 3.46132Z" fill="#A9733D"/>
<path d="M365.614 -3.67297C364.787 -3.33918 364.059 -2.68693 363.493 -1.81332C363.304 -1.52211 363.147 -1.2021 363.151 -0.738053C363.178 -0.125901 363.546 0.535721 363.954 0.874826C364.833 1.61065 366.055 1.50323 366.819 1.2665C367.764 1.01254 368.534 0.347151 369.11 -0.645766C369.801 -1.8682 369.298 -3.34112 368.028 -3.76194C367.174 -4.04029 366.334 -3.97389 365.614 -3.67297Z" fill="#A9733D"/>
<path d="M375.202 2.3527C375.74 4.16378 376.865 5.01734 378.138 4.62279C379.305 4.26112 379.989 2.26527 379.494 0.595713C379.044 -0.932313 377.791 -1.82375 376.571 -1.48431C375.202 -1.09884 374.642 0.470846 375.202 2.3527Z" fill="#A9733D"/>
<path d="M338.486 23.1206C338.497 23.2305 338.54 23.3685 338.572 23.472C338.818 24.2655 339.375 24.9628 339.896 25.2549C340.417 25.5471 340.977 25.5248 341.452 25.3019C341.927 25.079 342.286 24.6275 342.614 24.1479C342.92 23.6747 343.237 23.1606 343.334 22.4498C343.393 22.0536 343.389 21.6011 343.302 21.1743C342.977 19.7623 341.789 19.1475 341 19.0895C340.066 19.001 339.355 19.5615 338.856 20.5104C338.652 20.8761 338.49 21.3044 338.422 21.817C338.374 22.2478 338.399 22.6938 338.486 23.1206Z" fill="#A9733D"/>
<path d="M335.31 16.1646C334.503 16.49 333.794 17.126 333.242 17.9777C333.057 18.2617 332.905 18.5737 332.909 19.0261C332.935 19.623 333.294 20.268 333.691 20.5987C334.548 21.3161 335.74 21.2114 336.485 20.9806C337.406 20.7329 338.157 20.0842 338.718 19.1161C339.392 17.9242 338.901 16.4881 337.663 16.0778C336.831 15.8064 336.012 15.8712 335.31 16.1646Z" fill="#A9733D"/>
<path d="M336.446 14.5646C336.529 14.539 336.591 14.5198 336.673 14.4941C337.169 14.2648 337.611 13.8631 338.012 13.3987C338.176 13.1966 338.329 12.96 338.42 12.6672C338.6 12.0063 338.312 11.0748 337.809 10.6254C337.265 10.1135 336.642 10.0042 336.071 9.91656C335.178 9.81521 334.33 10.0781 333.65 10.6667C333.229 11.0621 332.85 11.5954 332.733 12.388C332.714 12.5452 332.694 12.7024 332.716 12.8468C332.749 13.0257 332.813 13.1573 332.908 13.317C333.182 13.8369 333.579 14.1675 333.954 14.3537C334.33 14.5399 334.714 14.6099 335.088 14.6453C335.565 14.6486 336.011 14.6993 336.446 14.5646Z" fill="#A9733D"/>
<path d="M344.658 22.0397C345.183 23.8055 346.279 24.6377 347.521 24.2531C348.658 23.9004 349.325 21.9545 348.843 20.3267C348.404 18.8368 347.182 17.9677 345.992 18.2986C344.658 18.6745 344.112 20.2049 344.658 22.0397Z" fill="#A9733D"/>
<path d="M347.493 6.55122C350.668 8.22334 353.61 10.4992 351.938 13.6736C350.266 16.848 346.337 18.0658 343.162 16.3937C339.988 14.7215 338.77 10.7927 340.442 7.61833C342.114 4.44396 344.319 4.8791 347.493 6.55122Z" fill="#A9733D"/>
<path d="M342.361 56.4835C342.372 56.5865 342.412 56.7158 342.442 56.8128C342.672 57.5565 343.194 58.21 343.682 58.4838C344.171 58.7576 344.696 58.7367 345.141 58.5278C345.586 58.319 345.922 57.8958 346.229 57.4463C346.517 57.0027 346.814 56.5209 346.905 55.8548C346.96 55.4834 346.956 55.0593 346.874 54.6593C346.57 53.336 345.457 52.7597 344.717 52.7054C343.842 52.6224 343.176 53.1478 342.708 54.0371C342.516 54.3799 342.365 54.7813 342.301 55.2617C342.256 55.6654 342.279 56.0835 342.361 56.4835Z" fill="#A9733D"/>
<path d="M339.384 49.9642C338.628 50.2693 337.963 50.8653 337.446 51.6636C337.273 51.9297 337.13 52.2221 337.134 52.6462C337.159 53.2056 337.495 53.8101 337.867 54.12C338.671 54.7924 339.788 54.6943 340.486 54.4779C341.349 54.2459 342.053 53.6378 342.579 52.7305C343.21 51.6134 342.75 50.2675 341.59 49.883C340.81 49.6286 340.042 49.6893 339.384 49.9642Z" fill="#A9733D"/>
<path d="M340.449 48.4645C340.527 48.4404 340.585 48.4224 340.663 48.3984C341.127 48.1835 341.542 47.8069 341.917 47.3717C342.071 47.1823 342.214 46.9605 342.299 46.6861C342.469 46.0667 342.198 45.1937 341.727 44.7725C341.217 44.2927 340.633 44.1902 340.098 44.1081C339.261 44.0132 338.466 44.2595 337.829 44.8112C337.434 45.1817 337.079 45.6816 336.97 46.4244C336.951 46.5718 336.933 46.7191 336.954 46.8545C336.985 47.0221 337.044 47.1454 337.133 47.2951C337.39 47.7824 337.763 48.0922 338.114 48.2668C338.466 48.4413 338.826 48.5068 339.177 48.54C339.624 48.5432 340.042 48.5907 340.449 48.4645Z" fill="#A9733D"/>
<path d="M348.146 55.4704C348.638 57.1254 349.666 57.9054 350.829 57.5448C351.895 57.2144 352.52 55.3906 352.068 53.8649C351.656 52.4686 350.511 51.654 349.396 51.9642C348.146 52.3164 347.634 53.7508 348.146 55.4704Z" fill="#A9733D"/>
<path d="M350.834 41.0634C353.809 42.6306 356.567 44.7636 354.999 47.7387C353.432 50.7138 349.75 51.8552 346.774 50.288C343.799 48.7209 342.658 45.0386 344.225 42.0635C345.792 39.0884 347.858 39.4962 350.834 41.0634Z" fill="#A9733D"/>
<path d="M295.526 57.9715C295.518 58.0595 295.53 58.1743 295.54 58.2604C295.611 58.9205 295.94 59.5528 296.304 59.8621C296.668 60.1713 297.11 60.2399 297.517 60.138C297.924 60.0362 298.275 59.7372 298.605 59.4114C298.919 59.0874 299.246 58.7328 299.432 58.1903C299.538 57.8885 299.605 57.533 299.602 57.1849C299.565 56.0276 298.727 55.3629 298.117 55.1962C297.398 54.9832 296.755 55.3137 296.217 55.9811C296.001 56.2366 295.808 56.5477 295.676 56.9393C295.572 57.2698 295.523 57.6234 295.526 57.9715Z" fill="#A9733D"/>
<path d="M294.104 52.0277C293.422 52.1592 292.767 52.5489 292.203 53.1321C292.015 53.3265 291.848 53.5478 291.781 53.9033C291.71 54.3754 291.893 54.9365 292.153 55.2568C292.715 55.9512 293.666 56.0522 294.286 55.9856C295.046 55.9328 295.735 55.5394 296.324 54.8664C297.035 54.0351 296.871 52.8334 295.963 52.3213C295.352 51.9806 294.7 51.9056 294.104 52.0277Z" fill="#A9733D"/>
<path d="M295.241 50.9478C295.31 50.9404 295.361 50.9349 295.43 50.9275C295.854 50.8238 296.263 50.5766 296.648 50.2739C296.808 50.1406 296.965 49.9785 297.081 49.7628C297.324 49.2721 297.24 48.4971 296.916 48.0675C296.568 47.5823 296.095 47.4007 295.661 47.2442C294.976 47.0275 294.27 47.1034 293.647 47.4607C293.256 47.7061 292.877 48.0662 292.663 48.6699C292.624 48.7903 292.585 48.9106 292.58 49.0273C292.578 49.1727 292.608 49.2856 292.658 49.4254C292.793 49.8754 293.054 50.1958 293.319 50.3996C293.585 50.6033 293.876 50.7172 294.163 50.8024C294.537 50.8783 294.88 50.9867 295.241 50.9478Z" fill="#A9733D"/>
<path d="M300.533 58.072C300.673 59.5375 301.405 60.3588 302.438 60.2477C303.384 60.1459 304.206 58.7221 304.078 57.3714C303.963 56.1354 303.138 55.266 302.154 55.3428C301.05 55.4326 300.386 56.549 300.533 58.072Z" fill="#A9733D"/>
<path d="M305.137 46.3597C307.37 48.1588 309.328 50.3959 307.529 52.6287C305.729 54.8614 302.46 55.2129 300.228 53.4137C297.995 51.6146 297.643 48.346 299.442 46.1133C301.242 43.8805 302.904 44.5605 305.137 46.3597Z" fill="#A9733D"/>
<path d="M319.085 68.0191C319.077 68.107 319.089 68.2218 319.098 68.3079C319.169 68.968 319.498 69.6004 319.862 69.9096C320.226 70.2189 320.669 70.2874 321.076 70.1856C321.483 70.0838 321.834 69.7848 322.164 69.4589C322.477 69.1349 322.805 68.7803 322.99 68.2378C323.097 67.936 323.163 67.5805 323.161 67.2324C323.123 66.0752 322.286 65.4104 321.676 65.2437C320.957 65.0307 320.313 65.3612 319.776 66.0287C319.56 66.2842 319.367 66.5952 319.235 66.9868C319.131 67.3173 319.082 67.671 319.085 68.0191Z" fill="#A9733D"/>
<path d="M317.662 62.0751C316.98 62.2065 316.325 62.5962 315.761 63.1794C315.573 63.3738 315.406 63.5951 315.34 63.9506C315.268 64.4227 315.451 64.9838 315.711 65.3041C316.273 65.9985 317.224 66.0995 317.844 66.0329C318.604 65.9802 319.293 65.5867 319.882 64.9137C320.593 64.0824 320.429 62.8807 319.521 62.3687C318.91 62.0279 318.258 61.9529 317.662 62.0751Z" fill="#A9733D"/>
<path d="M318.8 60.9953C318.868 60.9879 318.92 60.9824 318.989 60.975C319.413 60.8713 319.822 60.6241 320.207 60.3214C320.367 60.1881 320.523 60.026 320.639 59.8103C320.882 59.3196 320.799 58.5446 320.474 58.115C320.126 57.6297 319.654 57.4482 319.219 57.2917C318.535 57.075 317.829 57.1509 317.206 57.5082C316.815 57.7536 316.436 58.1137 316.222 58.7174C316.183 58.8378 316.143 58.9581 316.139 59.0748C316.137 59.2201 316.166 59.3331 316.216 59.4729C316.352 59.9229 316.612 60.2433 316.878 60.447C317.144 60.6508 317.434 60.7647 317.722 60.8499C318.096 60.9258 318.438 61.0342 318.8 60.9953Z" fill="#A9733D"/>
<path d="M324.092 68.1193C324.232 69.5848 324.964 70.4061 325.997 70.295C326.943 70.1932 327.765 68.7694 327.637 67.4187C327.522 66.1827 326.697 65.3133 325.713 65.3901C324.609 65.4799 323.945 66.5963 324.092 68.1193Z" fill="#A9733D"/>
<path d="M328.695 56.4074C330.928 58.2065 332.886 60.4436 331.087 62.6764C329.288 64.9091 326.019 65.2606 323.786 63.4614C321.553 61.6623 321.202 58.3937 323.001 56.161C324.8 53.9282 326.462 54.6082 328.695 56.4074Z" fill="#A9733D"/>
<path d="M314.633 39.0055C314.625 39.0935 314.637 39.2083 314.646 39.2944C314.717 39.9545 315.046 40.5868 315.41 40.896C315.774 41.2053 316.217 41.2738 316.624 41.172C317.031 41.0702 317.381 40.7712 317.712 40.4453C318.025 40.1213 318.353 39.7668 318.538 39.2243C318.645 38.9225 318.711 38.5669 318.708 38.2188C318.671 37.0616 317.834 36.3968 317.224 36.2301C316.505 36.0172 315.861 36.3476 315.324 37.0151C315.107 37.2706 314.915 37.5817 314.783 37.9733C314.679 38.3038 314.63 38.6574 314.633 39.0055Z" fill="#A9733D"/>
<path d="M313.21 33.0619C312.528 33.1933 311.874 33.583 311.31 34.1662C311.122 34.3607 310.954 34.5819 310.888 34.9374C310.817 35.4096 310.999 35.9706 311.26 36.291C311.822 36.9853 312.773 37.0863 313.392 37.0197C314.153 36.967 314.841 36.5736 315.43 35.9005C316.142 35.0692 315.978 33.8675 315.07 33.3555C314.459 33.0148 313.806 32.9397 313.21 33.0619Z" fill="#A9733D"/>
<path d="M314.347 31.982C314.416 31.9746 314.468 31.969 314.537 31.9616C314.961 31.8579 315.369 31.6108 315.755 31.308C315.914 31.1747 316.071 31.0127 316.187 30.7969C316.43 30.3062 316.347 29.5312 316.022 29.1016C315.674 28.6164 315.202 28.4349 314.767 28.2784C314.082 28.0616 313.377 28.1375 312.754 28.4949C312.362 28.7402 311.983 29.1003 311.77 29.704C311.731 29.8244 311.691 29.9447 311.686 30.0614C311.685 30.2068 311.714 30.3197 311.764 30.4596C311.899 30.9096 312.16 31.23 312.426 31.4337C312.691 31.6374 312.982 31.7513 313.27 31.8365C313.644 31.9125 313.986 32.0208 314.347 31.982Z" fill="#A9733D"/>
<path d="M319.639 39.1059C319.779 40.5715 320.512 41.3927 321.544 41.2817C322.491 41.1799 323.313 39.7561 323.185 38.4053C323.069 37.1694 322.245 36.3 321.261 36.3768C320.156 36.4665 319.493 37.583 319.639 39.1059Z" fill="#A9733D"/>
<path d="M324.243 27.3938C326.476 29.193 328.434 31.43 326.635 33.6628C324.836 35.8956 321.567 36.247 319.334 34.4479C317.101 32.6487 316.75 29.3801 318.549 27.1474C320.348 24.9146 322.01 25.5946 324.243 27.3938Z" fill="#A9733D"/>
</g>
<path fill-rule="evenodd" clip-rule="evenodd" d="M50.098 17.2333C53.6156 15.0005 57.075 14.59 60.4493 16.8685C56.5785 16.9319 53.6366 21.6373 50.098 17.2333ZM65.2623 15.8348C69.9393 13.9616 74.1124 14.2421 77.6247 17.6881C73.0352 16.9115 68.4915 21.8401 65.2623 15.8348ZM56.7152 24.1713C60.0472 21.7864 63.423 21.2059 66.8512 23.261C63.074 23.5292 60.4468 28.2925 56.7334 24.1761L56.7152 24.1713ZM69.453 25.1864C73.8551 23.4201 77.8053 23.6862 81.0934 26.9313C76.7686 26.2058 72.4953 30.8528 69.4712 25.1912L69.453 25.1864ZM62.8325 29.6271C67.5095 27.754 71.6826 28.0344 75.1889 31.4789C70.5752 30.6958 66.0315 35.6244 62.8325 29.6271ZM78.3141 32.5217C81.9318 29.8465 85.6236 29.1508 89.4289 31.3447C85.2591 31.6756 82.4571 36.99 78.302 32.5185L78.3141 32.5217ZM75.6398 37.1954C78.7446 41.1436 82.4999 42.9708 87.274 41.721C82.8821 40.1166 81.4328 33.5885 75.6277 37.1922L75.6398 37.1954ZM65.7341 35.2626C71.09 36.5835 74.6126 39.5119 75.4687 44.7835C71.8912 41.1466 64.6791 42.6222 65.7221 35.2594L65.7341 35.2626ZM81.3209 49.4942C86.0128 51.3069 90.21 50.9704 93.6517 47.4838C89.0348 48.3191 84.4313 43.4456 81.2967 49.4877L81.3209 49.4942ZM89.8098 38.951C93.9864 40.2733 97.6088 39.7391 100.402 36.5428C96.4339 37.5184 92.1783 33.5149 89.7856 38.9446L89.8098 38.951ZM76.0349 49.7853C78.1755 52.8668 78.6437 55.9534 76.6701 59.04C76.4994 55.5955 72.1287 53.0971 76.0349 49.7853ZM71.1175 45.5224C71.9346 50.9379 70.5588 55.2885 65.9754 58.0861C67.9908 53.43 63.8621 47.3976 71.1126 45.5404L71.1175 45.5224ZM64.7465 43.5718C64.1952 49.5938 61.5709 53.9145 55.9175 55.7337C59.3093 51.2572 56.4467 43.6787 64.7465 43.5718ZM57.5218 36.7485C57.8868 42.7828 55.9291 47.4414 50.6169 50.0838C53.3213 45.1546 49.374 38.091 57.5459 36.755L57.5218 36.7485ZM47.3656 26.9421C50.1081 30.2413 50.9663 33.6822 49.0827 37.371C48.522 33.4758 43.3178 31.09 47.3656 26.9421ZM35.5202 29.1457C37.779 32.7726 40.8032 34.6689 44.9399 34.0529C41.3884 32.2863 40.7891 26.6396 35.5383 29.1505L35.5202 29.1457ZM43.1274 36.9509C45.8698 40.2502 46.728 43.6911 44.8444 47.3799C44.2596 43.4783 39.0505 41.1104 43.1165 36.9673L43.1274 36.9509ZM37.9359 38.019C34.7255 40.841 33.3542 44.1198 34.6757 48.0758C35.811 44.3038 41.319 42.7352 37.925 38.0354L37.9359 38.019ZM32.711 33.7193C33.6409 38.3102 32.6546 42.0576 28.8512 44.677C30.3662 40.6268 26.5796 35.6299 32.7001 33.7357L32.711 33.7193ZM29.2441 28.6661C25.1263 29.6919 22.411 31.9516 21.767 36.0148C24.4958 33.2254 30.0538 34.3495 29.2332 28.6825L29.2441 28.6661ZM36.2165 9.82919C39.9066 7.89292 43.3915 7.77192 46.5624 10.324C42.6847 10.0772 39.3647 14.5278 36.2056 9.84558L36.2165 9.82919Z" fill="#89A829"/>
<path d="M58.3662 32.5257C59.54 33.7725 60.499 34.8993 61.2217 35.8384C60.4298 34.8648 59.4688 33.7439 58.3662 32.5257C52.4915 26.2857 41.2364 17.0406 27.2977 13.2802C10.5742 8.76858 2.13111 5.45762 0 4.3661V0C3.60408 2.15371 14.1093 7.25487 27.2977 10.4298C38.6895 13.1722 51.3752 24.8022 58.3662 32.5257Z" fill="#D9D9D9"/>
</g>
</svg>
