<svg width="206" height="258" viewBox="0 0 206 258" fill="none" xmlns="http://www.w3.org/2000/svg">
<path fill-rule="evenodd" clip-rule="evenodd" d="M226.847 181.544C233.262 182.439 239.459 184.502 245.129 187.629C244.428 185.861 243.715 184.07 243.014 182.339C253.895 190.867 260.619 201.316 262.341 214.078L264.194 200.581C267.283 217.056 265.05 230.731 253.337 239.461L257.15 239.058C238.952 264.63 188.764 265.27 171.314 234.254C174.046 240.896 175.269 250.598 170.447 254.121L92.8303 257.181L63.6915 256.386H27.6749C23.6717 256.386 22.0799 250.717 25.8099 247.135L41.977 236.294C46.289 218.348 46.1821 192.966 36.3345 178.081C51.2425 189.752 51.5751 221.148 48.8192 237.61C47.3106 243.114 41.9176 247.68 36.4058 250.835C42.3484 248.555 47.5644 244.715 51.5038 239.722C54.8061 208.077 51.5038 183.489 32.2363 170.928C32.367 172.767 32.4977 174.605 32.6402 176.444C27.0809 172.708 22.3175 164.429 20.5832 156.648C20.8683 159.72 21.1534 162.804 21.4504 165.876C15.9675 158.192 12.6489 149.181 11.8404 139.782C11.389 142.462 10.9455 145.143 10.5099 147.823C8.19952 139.3 7.2692 130.463 7.75409 121.646L5.901 132.202C1.85031 115.609 9.22705 99.1342 17.5422 82.6356C27.176 70.9882 31.7968 59.8863 12.5175 51.4176C3.7034 49.8401 0.294189 45.7007 0.816864 38.8806H5.56839L1.43454 34.1363C0.0447083 29.8901 0.246674 21.8246 2.09976 21.3383L28.3876 27.2688C36.0696 22.3617 45.0349 19.8359 54.1528 20.0099L49.5319 16.9735V13.012L42.2621 9.58415C52.7867 6.02587 59.0825 9.44181 62.2066 18.1596C68.1065 14.7357 72.4224 8.84482 75.1546 0.486816C80.9514 10.1416 80.6307 32.796 80.6663 54.6794C81.862 55.9813 83.3647 56.9639 85.0378 57.5379C83.4186 57.685 81.7879 57.4367 80.2862 56.8144C81.527 61.6658 83.8361 66.1799 87.0453 70.0274L81.9492 68.7702C83.3034 75.5665 86.8552 81.7579 92.0819 87.4986L86.7839 84.7113C88.7612 90.4887 92.4016 95.5552 97.2492 99.2765C149.967 131.811 169.484 168.485 176.968 206.653C183.798 227.778 230.696 236.543 231.872 208.385C229.274 203.902 226.677 199.418 224.079 194.935L232.656 197.959C231.551 192.206 229.547 186.663 226.717 181.532" fill="#B3D0E7"/>
<path fill-rule="evenodd" clip-rule="evenodd" d="M114.07 207.685C86.2143 215.584 89.7423 234.574 106.42 253.551C83.3278 238.346 80.168 209.808 114.07 207.685ZM141.879 211.504C144.48 225.465 141.879 239.425 135.547 253.385C159.649 251.713 166.028 229.995 141.879 211.504ZM65.6283 257.762C65.6283 250.74 66.9825 249.4 71.1282 243.636C71.7103 228.43 67.0894 214.896 60.8055 201.909C55.1037 190.131 62.5279 170.999 61.1381 156.695C62.1972 156.347 63.1725 155.784 64.0026 155.041C64.8327 154.298 65.4995 153.391 65.9609 152.378C56.9211 154.311 49.7701 152.306 47.8219 139.414C47.0973 136.792 47.1449 135.001 49.8176 133.922L56.3034 132.095C56.8855 129.083 58.311 124.86 62.2428 123.057L66.6499 122.393C66.3513 119.201 66.6617 115.981 67.5646 112.904C70.4038 114.317 72.6417 116.698 73.8722 119.618H75.8679C75.8733 116.157 77.0778 112.804 79.2771 110.129C88.4475 122.31 96.0737 136.958 99.4711 158.45L131.223 190.226C132.995 186.359 136.032 183.209 139.835 181.294C148.792 177.25 151.096 187.521 145.905 188.921C140.999 190.973 138.647 195.919 141.914 199.287C163.522 212.418 178.845 241.892 154.126 257.655L65.6283 257.762Z" fill="white"/>
</svg>
