<svg width="23" height="18" viewBox="0 0 23 18" fill="none" xmlns="http://www.w3.org/2000/svg">
<path d="M20.1089 15.4655H17.9422V5.98633L11.4422 10.0488L4.94222 5.98633V15.4655H2.77555V2.46549H4.07555L11.4422 7.06966L18.8089 2.46549H20.1089M20.1089 0.298828H2.77555C1.57305 0.298828 0.608887 1.26299 0.608887 2.46549V15.4655C0.608887 16.0401 0.83716 16.5912 1.24349 16.9976C1.64982 17.4039 2.20092 17.6322 2.77555 17.6322H20.1089C20.6835 17.6322 21.2346 17.4039 21.6409 16.9976C22.0473 16.5912 22.2756 16.0401 22.2756 15.4655V2.46549C22.2756 1.89086 22.0473 1.33976 21.6409 0.93343C21.2346 0.527101 20.6835 0.298828 20.1089 0.298828Z" fill="url(#paint0_linear_95_308)"/>
<defs>
<linearGradient id="paint0_linear_95_308" x1="0.608887" y1="8.96549" x2="22.2756" y2="8.96549" gradientUnits="userSpaceOnUse">
<stop stop-color="#449ADE"/>
<stop offset="1" stop-color="#0062AF"/>
</linearGradient>
</defs>
</svg>
