<svg width="1920" height="745" viewBox="0 0 1920 745" fill="none" xmlns="http://www.w3.org/2000/svg">
<mask id="mask0_201_316" style="mask-type:alpha" maskUnits="userSpaceOnUse" x="0" y="0" width="1920" height="745">
<rect width="1920" height="745" fill="#EEF6FF"/>
</mask>
<g mask="url(#mask0_201_316)">
<g opacity="0.2">
<path d="M65.2689 240.994C65.3209 241.311 65.3066 241.73 65.2958 242.044C65.2133 244.452 64.1889 246.829 62.9528 248.045C61.7167 249.26 60.1325 249.626 58.6326 249.365C57.1328 249.103 55.7836 248.114 54.5008 247.021C53.2808 245.931 52.0016 244.734 51.187 242.819C50.7206 241.754 50.3868 240.485 50.3043 239.224C50.1338 235.024 52.99 232.396 55.1536 231.631C57.7012 230.67 60.1179 231.696 62.2404 233.971C63.0908 234.839 63.8712 235.914 64.4525 237.297C64.9154 238.466 65.1863 239.733 65.2689 240.994Z" fill="#A9733D"/>
<path d="M68.8477 219.099C71.3523 219.395 73.8246 220.633 76.0206 222.595C76.7526 223.249 77.4182 224.006 77.7519 225.276C78.1341 226.966 77.6228 229.046 76.7634 230.275C74.912 232.937 71.496 233.554 69.2354 233.477C66.4689 233.487 63.8711 232.244 61.5602 229.964C58.765 227.142 59.0412 222.748 62.1934 220.654C64.3158 219.259 66.6571 218.815 68.8477 219.099Z" fill="#A9733D"/>
<path d="M64.4448 215.488C64.1936 215.48 64.0052 215.473 63.754 215.465C62.1914 215.201 60.6466 214.415 59.1719 213.42C58.5583 212.98 57.9483 212.435 57.4711 211.685C56.461 209.973 56.5578 207.145 57.6199 205.504C58.7519 203.655 60.4132 202.874 61.9454 202.192C64.3674 201.227 66.942 201.315 69.2922 202.444C70.7742 203.228 72.2418 204.432 73.1747 206.561C73.3488 206.986 73.5228 207.411 73.5712 207.833C73.6161 208.358 73.539 208.775 73.3954 209.294C73.0241 210.959 72.1647 212.188 71.2569 212.996C70.3491 213.803 69.3265 214.292 68.3074 214.677C66.9744 215.051 65.7634 215.533 64.4448 215.488Z" fill="#A9733D"/>
<path d="M47.1681 242.681C47.0479 248.024 44.6134 251.191 40.8458 251.062C37.3921 250.944 34.0407 246.006 34.1465 241.082C34.2379 236.576 36.9936 233.211 40.5764 233.229C44.5988 233.262 47.2954 237.128 47.1681 242.681Z" fill="#A9733D"/>
<path d="M27.4043 201.495C19.7958 208.6 13.298 217.216 20.4026 224.824C27.5071 232.432 39.4344 232.841 47.0428 225.737C54.6512 218.633 55.0597 206.706 47.9552 199.098C40.8506 191.49 35.0127 194.391 27.4043 201.495Z" fill="#A9733D"/>
<path d="M56.7666 132.201C56.7207 132.531 56.5773 132.942 56.4698 133.25C55.6455 135.614 53.8968 137.656 52.2958 138.481C50.6947 139.306 49.0106 139.18 47.6032 138.459C46.1957 137.738 45.1624 136.34 44.2266 134.861C43.3524 133.403 42.4524 131.821 42.2346 129.67C42.1 128.471 42.1603 127.108 42.4671 125.832C43.5925 121.613 47.236 119.886 49.6181 119.795C52.4417 119.626 54.5227 121.389 55.9272 124.3C56.5033 125.423 56.9461 126.73 57.0965 128.281C57.1953 129.584 57.0734 130.924 56.7666 132.201Z" fill="#A9733D"/>
<path d="M67.0657 111.583C69.4592 112.648 71.5302 114.639 73.1038 117.262C73.6283 118.137 74.0554 119.093 73.9951 120.455C73.8531 122.25 72.7049 124.155 71.4736 125.109C68.8162 127.18 65.2373 126.739 63.0186 125.965C60.271 125.123 58.0768 123.09 56.4875 120.115C54.5843 116.454 56.2128 112.18 59.9853 111.075C62.5208 110.345 64.9803 110.626 67.0657 111.583Z" fill="#A9733D"/>
<path d="M63.8108 106.644C63.5643 106.558 63.3794 106.494 63.1328 106.408C61.6638 105.665 60.3739 104.408 59.2173 102.968C58.7444 102.342 58.3073 101.613 58.0651 100.721C57.5908 98.7115 58.5585 95.9364 60.118 94.6357C61.8108 93.1509 63.6999 92.8873 65.4299 92.6835C68.1302 92.4722 70.657 93.3531 72.6406 95.1975C73.8688 96.4326 74.9537 98.0789 75.223 100.478C75.2645 100.954 75.3061 101.43 75.2244 101.862C75.1068 102.398 74.9018 102.787 74.5994 103.258C73.7178 104.795 72.4865 105.749 71.337 106.271C70.1875 106.792 69.0222 106.962 67.8928 107.03C66.4552 106.99 65.105 107.095 63.8108 106.644Z" fill="#A9733D"/>
<path d="M38.2899 128.296C36.5237 133.559 33.1324 135.951 29.4346 134.661C26.0449 133.48 24.2422 127.548 25.865 122.696C27.3445 118.255 31.1156 115.766 34.6644 116.887C38.6445 118.16 40.1277 122.827 38.2899 128.296Z" fill="#A9733D"/>
<path d="M31.3796 81.3462C21.642 86.0487 12.5399 92.5941 17.2426 102.331C21.9454 112.068 33.6516 116.149 43.3892 111.447C53.1269 106.744 57.2084 95.039 52.5056 85.3019C47.8029 75.5649 41.1172 76.6437 31.3796 81.3462Z" fill="#A9733D"/>
<path d="M143.983 193.051C143.938 193.373 143.799 193.774 143.694 194.075C142.89 196.379 141.185 198.37 139.624 199.175C138.063 199.979 136.421 199.856 135.049 199.153C133.677 198.45 132.669 197.087 131.757 195.645C130.904 194.224 130.027 192.681 129.814 190.584C129.683 189.415 129.742 188.086 130.041 186.842C131.138 182.729 134.691 181.045 137.013 180.955C139.766 180.791 141.795 182.51 143.165 185.348C143.726 186.443 144.158 187.717 144.305 189.23C144.401 190.5 144.282 191.807 143.983 193.051Z" fill="#A9733D"/>
<path d="M154.025 172.95C156.359 173.988 158.378 175.928 159.912 178.486C160.424 179.339 160.84 180.271 160.781 181.599C160.643 183.349 159.523 185.207 158.323 186.137C155.732 188.156 152.242 187.726 150.079 186.972C147.4 186.15 145.261 184.168 143.711 181.268C141.856 177.698 143.444 173.531 147.122 172.453C149.594 171.742 151.992 172.016 154.025 172.95Z" fill="#A9733D"/>
<path d="M150.852 168.134C150.611 168.05 150.431 167.987 150.191 167.904C148.758 167.179 147.501 165.954 146.373 164.549C145.912 163.939 145.486 163.228 145.25 162.359C144.787 160.4 145.731 157.694 147.251 156.426C148.902 154.978 150.744 154.721 152.43 154.522C155.063 154.316 157.527 155.175 159.461 156.974C160.658 158.178 161.716 159.783 161.979 162.122C162.019 162.586 162.06 163.05 161.98 163.472C161.865 163.994 161.665 164.374 161.371 164.833C160.511 166.331 159.311 167.262 158.19 167.77C157.069 168.278 155.933 168.444 154.832 168.51C153.43 168.471 152.114 168.574 150.852 168.134Z" fill="#A9733D"/>
<path d="M125.969 189.244C124.247 194.376 120.94 196.707 117.335 195.45C114.03 194.298 112.272 188.515 113.855 183.784C115.297 179.454 118.974 177.027 122.434 178.121C126.315 179.361 127.761 183.912 125.969 189.244Z" fill="#A9733D"/>
<path d="M119.231 143.468C109.737 148.053 100.862 154.435 105.447 163.929C110.032 173.422 121.446 177.402 130.94 172.817C140.434 168.232 144.414 156.819 139.829 147.325C135.243 137.832 128.725 138.883 119.231 143.468Z" fill="#A9733D"/>
<path d="M129.182 290.629C129.14 290.93 129.009 291.306 128.911 291.588C128.158 293.748 126.56 295.613 125.097 296.367C123.634 297.122 122.095 297.006 120.809 296.347C119.522 295.688 118.578 294.411 117.723 293.059C116.924 291.727 116.102 290.282 115.903 288.316C115.78 287.22 115.835 285.975 116.115 284.809C117.144 280.954 120.473 279.376 122.65 279.292C125.23 279.138 127.132 280.749 128.415 283.409C128.941 284.435 129.346 285.63 129.484 287.047C129.574 288.237 129.462 289.462 129.182 290.629Z" fill="#A9733D"/>
<path d="M138.594 271.789C140.781 272.762 142.674 274.58 144.112 276.978C144.591 277.777 144.981 278.65 144.926 279.895C144.796 281.536 143.747 283.277 142.622 284.148C140.194 286.041 136.923 285.638 134.896 284.931C132.385 284.161 130.38 282.303 128.928 279.585C127.189 276.239 128.677 272.334 132.124 271.324C134.441 270.657 136.688 270.914 138.594 271.789Z" fill="#A9733D"/>
<path d="M135.619 267.275C135.394 267.197 135.225 267.138 135 267.059C133.657 266.38 132.479 265.232 131.422 263.916C130.99 263.344 130.59 262.678 130.369 261.863C129.935 260.026 130.82 257.491 132.245 256.302C133.792 254.945 135.518 254.704 137.099 254.518C139.566 254.325 141.875 255.13 143.688 256.815C144.81 257.944 145.802 259.448 146.048 261.641C146.086 262.076 146.124 262.51 146.049 262.906C145.941 263.395 145.754 263.751 145.478 264.181C144.672 265.586 143.547 266.458 142.497 266.934C141.446 267.411 140.381 267.566 139.349 267.628C138.036 267.591 136.802 267.687 135.619 267.275Z" fill="#A9733D"/>
<path d="M112.298 287.061C110.684 291.87 107.585 294.055 104.206 292.877C101.109 291.798 99.4615 286.378 100.944 281.944C102.296 277.885 105.742 275.61 108.985 276.636C112.622 277.798 113.978 282.063 112.298 287.061Z" fill="#A9733D"/>
<path d="M105.983 244.159C97.0848 248.456 88.7673 254.437 93.0647 263.335C97.3621 272.232 108.059 275.962 116.957 271.665C125.856 267.368 129.585 256.671 125.288 247.773C120.991 238.876 114.881 239.861 105.983 244.159Z" fill="#A9733D"/>
<path d="M266.568 299.803C266.582 300.062 266.534 300.398 266.498 300.649C266.222 302.581 265.191 304.404 264.09 305.275C262.989 306.146 261.683 306.301 260.498 305.961C259.314 305.62 258.314 304.706 257.377 303.715C256.49 302.731 255.565 301.657 255.076 300.045C254.794 299.147 254.636 298.096 254.679 297.074C254.908 293.68 257.435 291.813 259.243 291.387C261.377 290.835 263.232 291.871 264.742 293.887C265.351 294.659 265.886 295.592 266.233 296.756C266.504 297.737 266.611 298.781 266.568 299.803Z" fill="#A9733D"/>
<path d="M271.355 282.494C273.345 282.95 275.227 284.161 276.823 285.932C277.355 286.522 277.825 287.189 277.983 288.24C278.143 289.634 277.551 291.263 276.752 292.177C275.03 294.158 272.228 294.357 270.415 294.098C268.188 293.865 266.205 292.639 264.544 290.602C262.54 288.088 263.145 284.576 265.865 283.165C267.694 282.228 269.617 282.074 271.355 282.494Z" fill="#A9733D"/>
<path d="M268.126 279.206C267.925 279.177 267.774 279.155 267.572 279.126C266.338 278.779 265.163 278.011 264.063 277.082C263.607 276.674 263.164 276.182 262.845 275.537C262.181 274.071 262.506 271.804 263.503 270.575C264.575 269.186 265.98 268.701 267.273 268.286C269.306 267.72 271.37 268.015 273.164 269.129C274.288 269.889 275.364 270.986 275.929 272.78C276.032 273.138 276.135 273.495 276.138 273.839C276.128 274.266 276.03 274.594 275.869 275C275.425 276.307 274.626 277.222 273.825 277.793C273.025 278.364 272.159 278.668 271.305 278.889C270.2 279.074 269.183 279.357 268.126 279.206Z" fill="#A9733D"/>
<path d="M251.854 299.584C251.292 303.874 249.057 306.21 246.036 305.778C243.267 305.382 241 301.117 241.514 297.163C241.98 293.545 244.491 291.077 247.373 291.403C250.607 291.78 252.441 295.127 251.854 299.584Z" fill="#A9733D"/>
<path d="M239.536 264.717C232.794 269.772 226.815 276.14 231.87 282.882C236.925 289.623 246.488 290.991 253.23 285.936C259.971 280.881 261.339 271.319 256.284 264.577C251.229 257.836 246.278 259.662 239.536 264.717Z" fill="#A9733D"/>
<path d="M196.354 326.892C196.368 327.151 196.32 327.487 196.284 327.739C196.008 329.67 194.977 331.493 193.876 332.364C192.775 333.235 191.469 333.391 190.284 333.05C189.1 332.709 188.1 331.795 187.163 330.804C186.276 329.821 185.351 328.746 184.862 327.134C184.58 326.236 184.422 325.186 184.465 324.164C184.694 320.769 187.221 318.903 189.029 318.476C191.163 317.924 193.019 318.96 194.529 320.976C195.137 321.748 195.672 322.681 196.019 323.845C196.29 324.826 196.397 325.87 196.354 326.892Z" fill="#A9733D"/>
<path d="M201.141 309.582C203.131 310.038 205.013 311.25 206.609 313.02C207.142 313.611 207.611 314.278 207.769 315.328C207.93 316.722 207.337 318.351 206.538 319.265C204.816 321.247 202.014 321.446 200.201 321.186C197.974 320.954 195.991 319.728 194.33 317.691C192.327 315.177 192.932 311.664 195.651 310.254C197.48 309.316 199.403 309.162 201.141 309.582Z" fill="#A9733D"/>
<path d="M197.912 306.295C197.71 306.266 197.559 306.244 197.358 306.215C196.123 305.867 194.949 305.1 193.848 304.171C193.393 303.763 192.949 303.271 192.631 302.626C191.967 301.16 192.291 298.892 193.289 297.664C194.361 296.275 195.766 295.79 197.058 295.375C199.092 294.809 201.156 295.104 202.949 296.217C204.073 296.978 205.15 298.075 205.715 299.869C205.818 300.227 205.921 300.584 205.923 300.927C205.914 301.354 205.815 301.683 205.655 302.089C205.211 303.396 204.412 304.31 203.611 304.881C202.81 305.452 201.945 305.757 201.091 305.978C199.986 306.163 198.969 306.446 197.912 306.295Z" fill="#A9733D"/>
<path d="M181.64 326.673C181.078 330.962 178.843 333.299 175.822 332.867C173.053 332.471 170.786 328.206 171.3 324.252C171.766 320.634 174.277 318.166 177.158 318.492C180.393 318.869 182.226 322.216 181.64 326.673Z" fill="#A9733D"/>
<path d="M169.321 291.806C162.58 296.861 156.6 303.23 161.655 309.971C166.71 316.713 176.273 318.08 183.015 313.026C189.757 307.971 191.124 298.408 186.069 291.667C181.014 284.925 176.063 286.752 169.321 291.806Z" fill="#A9733D"/>
<path d="M212.404 242.145C212.419 242.404 212.371 242.74 212.335 242.992C212.058 244.923 211.027 246.746 209.926 247.617C208.826 248.488 207.519 248.644 206.335 248.303C205.15 247.962 204.151 247.048 203.214 246.057C202.327 245.074 201.401 243.999 200.913 242.387C200.63 241.489 200.472 240.438 200.515 239.417C200.744 236.022 203.271 234.156 205.079 233.729C207.213 233.177 209.069 234.213 210.579 236.229C211.188 237.001 211.722 237.934 212.069 239.098C212.34 240.079 212.448 241.123 212.404 242.145Z" fill="#A9733D"/>
<path d="M217.191 224.836C219.181 225.292 221.063 226.503 222.659 228.274C223.192 228.864 223.661 229.531 223.819 230.582C223.98 231.976 223.387 233.605 222.588 234.519C220.867 236.5 218.064 236.699 216.251 236.44C214.024 236.207 212.041 234.981 210.38 232.944C208.377 230.43 208.982 226.918 211.701 225.507C213.53 224.569 215.453 224.416 217.191 224.836Z" fill="#A9733D"/>
<path d="M213.962 221.548C213.761 221.519 213.61 221.497 213.408 221.469C212.173 221.121 210.999 220.353 209.899 219.424C209.443 219.016 209 218.524 208.681 217.879C208.017 216.413 208.341 214.146 209.339 212.917C210.411 211.528 211.816 211.043 213.109 210.628C215.142 210.062 217.206 210.357 218.999 211.471C220.124 212.231 221.2 213.328 221.765 215.122C221.868 215.48 221.971 215.837 221.974 216.181C221.964 216.608 221.866 216.936 221.705 217.342C221.261 218.649 220.462 219.564 219.661 220.135C218.86 220.706 217.995 221.01 217.141 221.231C216.036 221.416 215.019 221.699 213.962 221.548Z" fill="#A9733D"/>
<path d="M197.691 241.926C197.129 246.216 194.894 248.552 191.873 248.12C189.104 247.724 186.836 243.459 187.35 239.505C187.816 235.887 190.327 233.419 193.209 233.745C196.443 234.122 198.277 237.469 197.691 241.926Z" fill="#A9733D"/>
<path d="M185.372 207.059C178.63 212.114 172.65 218.483 177.705 225.224C182.76 231.965 192.323 233.333 199.065 228.278C205.807 223.224 207.174 213.661 202.119 206.92C197.064 200.178 192.114 202.005 185.372 207.059Z" fill="#A9733D"/>
<path d="M256.954 378.908C256.966 379.138 256.924 379.436 256.892 379.66C256.647 381.374 255.731 382.993 254.754 383.766C253.777 384.539 252.617 384.677 251.566 384.375C250.514 384.072 249.627 383.261 248.795 382.381C248.008 381.508 247.186 380.554 246.752 379.123C246.501 378.326 246.361 377.394 246.4 376.486C246.603 373.473 248.846 371.816 250.451 371.437C252.346 370.947 253.993 371.867 255.333 373.656C255.874 374.342 256.348 375.171 256.656 376.203C256.897 377.075 256.992 378.001 256.954 378.908Z" fill="#A9733D"/>
<path d="M261.203 363.542C262.97 363.947 264.64 365.023 266.057 366.595C266.529 367.119 266.946 367.711 267.087 368.644C267.229 369.881 266.703 371.327 265.994 372.139C264.465 373.898 261.977 374.075 260.368 373.845C258.391 373.638 256.631 372.55 255.157 370.741C253.378 368.509 253.915 365.391 256.329 364.139C257.953 363.306 259.66 363.17 261.203 363.542Z" fill="#A9733D"/>
<path d="M258.337 360.624C258.158 360.599 258.024 360.579 257.845 360.554C256.749 360.245 255.706 359.563 254.73 358.739C254.325 358.377 253.932 357.94 253.649 357.367C253.06 356.066 253.347 354.053 254.233 352.963C255.185 351.73 256.432 351.299 257.579 350.931C259.384 350.428 261.217 350.69 262.809 351.679C263.807 352.354 264.762 353.327 265.264 354.92C265.355 355.238 265.447 355.555 265.449 355.86C265.44 356.239 265.353 356.531 265.21 356.891C264.816 358.051 264.107 358.863 263.396 359.37C262.685 359.877 261.917 360.147 261.159 360.343C260.178 360.507 259.275 360.758 258.337 360.624Z" fill="#A9733D"/>
<path d="M243.892 378.714C243.393 382.522 241.409 384.596 238.728 384.213C236.269 383.861 234.257 380.075 234.713 376.565C235.127 373.353 237.356 371.162 239.914 371.452C242.785 371.786 244.413 374.757 243.892 378.714Z" fill="#A9733D"/>
<path d="M232.957 347.763C226.972 352.25 221.664 357.903 226.151 363.888C230.638 369.872 239.128 371.086 245.112 366.599C251.097 362.112 252.311 353.623 247.824 347.639C243.336 341.654 238.941 343.276 232.957 347.763Z" fill="#A9733D"/>
<path d="M328.451 373.679C328.464 373.909 328.422 374.207 328.39 374.431C328.144 376.145 327.229 377.764 326.252 378.537C325.275 379.31 324.115 379.448 323.063 379.146C322.012 378.843 321.125 378.032 320.293 377.152C319.505 376.279 318.684 375.325 318.25 373.894C317.999 373.097 317.859 372.164 317.898 371.257C318.1 368.244 320.344 366.587 321.949 366.208C323.843 365.718 325.49 366.638 326.831 368.427C327.371 369.113 327.846 369.941 328.154 370.974C328.394 371.845 328.49 372.772 328.451 373.679Z" fill="#A9733D"/>
<path d="M332.701 358.314C334.468 358.718 336.138 359.794 337.555 361.366C338.028 361.89 338.445 362.482 338.585 363.415C338.727 364.652 338.201 366.099 337.492 366.91C335.963 368.669 333.475 368.846 331.866 368.616C329.889 368.409 328.129 367.321 326.655 365.513C324.876 363.28 325.413 360.162 327.827 358.91C329.451 358.077 331.158 357.941 332.701 358.314Z" fill="#A9733D"/>
<path d="M329.835 355.395C329.656 355.369 329.522 355.35 329.343 355.324C328.247 355.015 327.204 354.334 326.228 353.51C325.823 353.147 325.43 352.711 325.147 352.138C324.557 350.836 324.845 348.824 325.731 347.733C326.683 346.5 327.93 346.07 329.077 345.701C330.882 345.199 332.715 345.461 334.306 346.449C335.304 347.124 336.26 348.098 336.762 349.691C336.853 350.008 336.945 350.326 336.947 350.63C336.938 351.009 336.851 351.301 336.708 351.661C336.314 352.822 335.605 353.633 334.894 354.14C334.183 354.647 333.415 354.918 332.657 355.114C331.676 355.277 330.773 355.529 329.835 355.395Z" fill="#A9733D"/>
<path d="M315.39 373.485C314.891 377.293 312.907 379.367 310.225 378.984C307.767 378.632 305.755 374.846 306.211 371.336C306.625 368.125 308.854 365.933 311.412 366.223C314.283 366.558 315.91 369.529 315.39 373.485Z" fill="#A9733D"/>
<path d="M304.455 342.534C298.47 347.021 293.162 352.674 297.649 358.659C302.136 364.643 310.626 365.857 316.611 361.37C322.595 356.883 323.809 348.394 319.322 342.41C314.835 336.425 310.44 338.047 304.455 342.534Z" fill="#A9733D"/>
<path d="M314.831 440.147C314.843 440.371 314.802 440.662 314.771 440.88C314.531 442.552 313.639 444.13 312.686 444.884C311.733 445.638 310.601 445.773 309.576 445.478C308.551 445.183 307.686 444.392 306.874 443.534C306.106 442.682 305.305 441.752 304.882 440.356C304.638 439.579 304.501 438.67 304.538 437.785C304.736 434.846 306.924 433.23 308.489 432.861C310.337 432.383 311.943 433.28 313.25 435.025C313.777 435.694 314.24 436.502 314.541 437.509C314.775 438.358 314.868 439.262 314.831 440.147Z" fill="#A9733D"/>
<path d="M318.975 425.162C320.698 425.557 322.327 426.606 323.709 428.139C324.169 428.65 324.576 429.227 324.713 430.137C324.852 431.344 324.339 432.754 323.647 433.546C322.156 435.261 319.73 435.434 318.161 435.209C316.233 435.008 314.516 433.946 313.078 432.183C311.344 430.006 311.867 426.965 314.221 425.744C315.805 424.931 317.47 424.799 318.975 425.162Z" fill="#A9733D"/>
<path d="M316.18 422.316C316.005 422.291 315.874 422.272 315.7 422.247C314.631 421.946 313.614 421.281 312.662 420.478C312.267 420.124 311.884 419.699 311.608 419.14C311.033 417.871 311.314 415.908 312.177 414.844C313.106 413.642 314.322 413.222 315.441 412.863C317.201 412.373 318.988 412.628 320.541 413.592C321.514 414.25 322.446 415.2 322.935 416.753C323.024 417.063 323.113 417.372 323.115 417.669C323.107 418.039 323.022 418.324 322.883 418.675C322.498 419.807 321.807 420.598 321.114 421.093C320.42 421.587 319.671 421.851 318.932 422.042C317.975 422.202 317.095 422.447 316.18 422.316Z" fill="#A9733D"/>
<path d="M302.093 439.958C301.606 443.671 299.671 445.694 297.056 445.32C294.659 444.977 292.696 441.285 293.141 437.862C293.544 434.73 295.718 432.593 298.213 432.875C301.013 433.201 302.6 436.099 302.093 439.958Z" fill="#A9733D"/>
<path d="M291.428 409.773C285.591 414.149 280.415 419.662 284.791 425.498C289.167 431.335 297.446 432.518 303.283 428.143C309.119 423.767 310.303 415.488 305.927 409.652C301.551 403.816 297.265 405.397 291.428 409.773Z" fill="#A9733D"/>
<path d="M383.234 436.666C383.245 436.878 383.206 437.153 383.177 437.359C382.95 438.941 382.106 440.434 381.204 441.147C380.303 441.861 379.233 441.988 378.263 441.709C377.293 441.43 376.474 440.682 375.706 439.87C374.98 439.064 374.222 438.184 373.822 436.864C373.59 436.129 373.461 435.268 373.496 434.431C373.684 431.651 375.754 430.122 377.234 429.773C378.982 429.321 380.502 430.17 381.739 431.82C382.237 432.453 382.675 433.217 382.959 434.17C383.181 434.974 383.269 435.829 383.234 436.666Z" fill="#A9733D"/>
<path d="M387.155 422.489C388.785 422.863 390.326 423.855 391.633 425.305C392.069 425.789 392.454 426.335 392.583 427.196C392.715 428.337 392.229 429.672 391.575 430.42C390.165 432.044 387.869 432.207 386.385 431.994C384.561 431.804 382.937 430.799 381.577 429.131C379.935 427.072 380.431 424.195 382.658 423.039C384.157 422.271 385.731 422.145 387.155 422.489Z" fill="#A9733D"/>
<path d="M384.51 419.797C384.345 419.773 384.222 419.756 384.057 419.732C383.046 419.447 382.084 418.818 381.182 418.058C380.809 417.724 380.446 417.321 380.185 416.792C379.642 415.591 379.907 413.734 380.724 412.728C381.602 411.591 382.753 411.194 383.812 410.854C385.477 410.39 387.168 410.632 388.636 411.544C389.557 412.167 390.438 413.065 390.901 414.534C390.986 414.827 391.07 415.12 391.072 415.401C391.064 415.751 390.984 416.02 390.852 416.352C390.488 417.423 389.834 418.172 389.178 418.639C388.522 419.107 387.813 419.357 387.114 419.537C386.209 419.689 385.376 419.921 384.51 419.797Z" fill="#A9733D"/>
<path d="M371.183 436.487C370.723 440 368.892 441.914 366.418 441.56C364.15 441.236 362.293 437.742 362.714 434.504C363.096 431.541 365.153 429.52 367.513 429.787C370.162 430.095 371.663 432.836 371.183 436.487Z" fill="#A9733D"/>
<path d="M361.094 407.931C355.572 412.071 350.675 417.287 354.815 422.808C358.955 428.329 366.787 429.449 372.309 425.31C377.831 421.17 378.951 413.338 374.811 407.816C370.671 402.295 366.616 403.791 361.094 407.931Z" fill="#A9733D"/>
<path d="M364.415 502.61C364.427 502.817 364.388 503.086 364.36 503.287C364.139 504.833 363.313 506.292 362.433 506.988C361.552 507.685 360.506 507.81 359.559 507.537C358.611 507.265 357.811 506.533 357.061 505.74C356.352 504.953 355.611 504.093 355.22 502.803C354.994 502.085 354.868 501.245 354.902 500.427C355.085 497.711 357.108 496.217 358.554 495.876C360.262 495.434 361.746 496.264 362.955 497.876C363.442 498.494 363.869 499.241 364.147 500.172C364.364 500.957 364.45 501.792 364.415 502.61Z" fill="#A9733D"/>
<path d="M368.246 488.76C369.838 489.125 371.344 490.095 372.621 491.512C373.047 491.984 373.423 492.518 373.549 493.358C373.678 494.474 373.203 495.777 372.564 496.509C371.186 498.095 368.944 498.254 367.494 498.047C365.711 497.86 364.125 496.879 362.796 495.249C361.193 493.237 361.677 490.427 363.853 489.298C365.317 488.547 366.855 488.424 368.246 488.76Z" fill="#A9733D"/>
<path d="M365.662 486.13C365.501 486.107 365.38 486.089 365.219 486.066C364.231 485.788 363.291 485.173 362.411 484.43C362.047 484.104 361.692 483.71 361.437 483.194C360.906 482.021 361.165 480.207 361.963 479.224C362.821 478.112 363.945 477.725 364.98 477.392C366.607 476.939 368.258 477.176 369.693 478.066C370.593 478.675 371.454 479.552 371.906 480.988C371.989 481.274 372.071 481.561 372.073 481.835C372.065 482.177 371.986 482.44 371.858 482.764C371.503 483.811 370.864 484.542 370.223 484.999C369.582 485.456 368.889 485.7 368.206 485.876C367.322 486.024 366.508 486.251 365.662 486.13Z" fill="#A9733D"/>
<path d="M352.642 502.436C352.192 505.868 350.404 507.738 347.987 507.392C345.771 507.075 343.957 503.662 344.368 500.498C344.741 497.604 346.75 495.629 349.056 495.89C351.644 496.191 353.111 498.869 352.642 502.436Z" fill="#A9733D"/>
<path d="M342.785 474.537C337.391 478.581 332.606 483.677 336.651 489.071C340.695 494.465 348.347 495.56 353.742 491.515C359.136 487.471 360.231 479.819 356.186 474.425C352.141 469.031 348.18 470.492 342.785 474.537Z" fill="#A9733D"/>
<path d="M423.473 504.891C423.483 505.072 423.449 505.306 423.424 505.482C423.232 506.83 422.512 508.102 421.744 508.71C420.976 509.317 420.064 509.426 419.238 509.188C418.411 508.951 417.714 508.313 417.06 507.621C416.441 506.935 415.796 506.185 415.455 505.06C415.257 504.434 415.147 503.701 415.178 502.987C415.337 500.619 417.101 499.316 418.362 499.018C419.851 498.633 421.146 499.356 422.199 500.763C422.624 501.302 422.997 501.953 423.239 502.765C423.428 503.45 423.503 504.178 423.473 504.891Z" fill="#A9733D"/>
<path d="M426.813 492.813C428.202 493.131 429.515 493.976 430.629 495.212C431 495.624 431.328 496.089 431.438 496.822C431.55 497.795 431.136 498.932 430.579 499.57C429.378 500.952 427.422 501.091 426.157 500.91C424.603 500.748 423.22 499.893 422.061 498.471C420.663 496.717 421.085 494.266 422.982 493.281C424.259 492.627 425.601 492.52 426.813 492.813Z" fill="#A9733D"/>
<path d="M424.561 490.519C424.42 490.499 424.315 490.484 424.174 490.464C423.313 490.221 422.493 489.685 421.725 489.037C421.408 488.753 421.098 488.409 420.876 487.959C420.413 486.936 420.639 485.354 421.335 484.497C422.083 483.528 423.063 483.189 423.965 482.9C425.384 482.505 426.824 482.711 428.075 483.488C428.86 484.018 429.611 484.783 430.005 486.036C430.077 486.285 430.149 486.535 430.151 486.774C430.144 487.072 430.075 487.301 429.963 487.584C429.653 488.497 429.096 489.134 428.537 489.533C427.978 489.931 427.374 490.144 426.779 490.298C426.008 490.427 425.298 490.624 424.561 490.519Z" fill="#A9733D"/>
<path d="M413.206 504.738C412.814 507.732 411.255 509.362 409.147 509.061C407.215 508.784 405.633 505.808 405.991 503.049C406.317 500.524 408.069 498.802 410.079 499.029C412.336 499.292 413.615 501.628 413.206 504.738Z" fill="#A9733D"/>
<path d="M404.61 480.409C399.906 483.936 395.733 488.38 399.26 493.084C402.788 497.788 409.461 498.742 414.165 495.215C418.869 491.688 419.824 485.015 416.296 480.311C412.769 475.607 409.314 476.882 404.61 480.409Z" fill="#A9733D"/>
<path d="M399.278 552.817C399.288 552.99 399.256 553.214 399.232 553.382C399.047 554.67 398.36 555.885 397.626 556.466C396.892 557.047 396.02 557.151 395.231 556.924C394.441 556.697 393.774 556.087 393.15 555.426C392.558 554.77 391.941 554.053 391.615 552.978C391.427 552.38 391.322 551.679 391.35 550.998C391.503 548.734 393.188 547.489 394.394 547.204C395.817 546.836 397.054 547.528 398.061 548.872C398.467 549.387 398.823 550.009 399.055 550.785C399.235 551.439 399.307 552.135 399.278 552.817Z" fill="#A9733D"/>
<path d="M402.47 541.275C403.797 541.579 405.052 542.387 406.116 543.567C406.471 543.961 406.784 544.406 406.89 545.107C406.997 546.036 406.602 547.122 406.069 547.732C404.921 549.053 403.052 549.186 401.843 549.013C400.358 548.858 399.036 548.041 397.928 546.682C396.592 545.006 396.996 542.663 398.809 541.723C400.029 541.097 401.311 540.995 402.47 541.275Z" fill="#A9733D"/>
<path d="M400.318 539.082C400.183 539.063 400.083 539.049 399.948 539.029C399.125 538.797 398.342 538.285 397.608 537.666C397.304 537.394 397.009 537.066 396.796 536.636C396.354 535.658 396.57 534.146 397.235 533.327C397.95 532.401 398.887 532.078 399.749 531.801C401.105 531.424 402.481 531.62 403.677 532.363C404.426 532.87 405.144 533.601 405.521 534.798C405.59 535.036 405.658 535.275 405.66 535.503C405.653 535.788 405.588 536.007 405.481 536.278C405.185 537.15 404.652 537.759 404.118 538.14C403.584 538.521 403.007 538.724 402.438 538.871C401.701 538.994 401.023 539.183 400.318 539.082Z" fill="#A9733D"/>
<path d="M389.466 552.671C389.091 555.532 387.601 557.09 385.587 556.802C383.74 556.538 382.229 553.693 382.571 551.057C382.882 548.644 384.556 546.998 386.478 547.216C388.635 547.467 389.857 549.699 389.466 552.671Z" fill="#A9733D"/>
<path d="M381.251 529.421C376.756 532.791 372.768 537.038 376.139 541.534C379.51 546.029 385.887 546.941 390.383 543.57C394.879 540.2 395.791 533.823 392.42 529.327C389.049 524.832 385.747 526.05 381.251 529.421Z" fill="#A9733D"/>
<path d="M435.601 611.291C435.61 611.453 435.58 611.663 435.558 611.82C435.385 613.028 434.74 614.168 434.052 614.713C433.363 615.258 432.546 615.355 431.806 615.142C431.065 614.929 430.44 614.357 429.854 613.738C429.299 613.122 428.721 612.45 428.415 611.442C428.238 610.881 428.139 610.224 428.167 609.584C428.31 607.461 429.89 606.294 431.021 606.027C432.355 605.682 433.516 606.33 434.46 607.59C434.841 608.074 435.175 608.657 435.392 609.385C435.561 609.999 435.629 610.651 435.601 611.291Z" fill="#A9733D"/>
<path d="M438.595 600.465C439.84 600.75 441.016 601.508 442.015 602.616C442.347 602.985 442.641 603.402 442.74 604.059C442.84 604.931 442.47 605.95 441.97 606.521C440.893 607.761 439.141 607.885 438.007 607.723C436.614 607.577 435.375 606.811 434.336 605.537C433.083 603.964 433.461 601.768 435.162 600.885C436.306 600.299 437.508 600.203 438.595 600.465Z" fill="#A9733D"/>
<path d="M436.576 598.41C436.45 598.392 436.355 598.378 436.229 598.36C435.457 598.142 434.723 597.662 434.035 597.082C433.75 596.826 433.473 596.519 433.273 596.115C432.858 595.198 433.061 593.781 433.685 593.012C434.355 592.144 435.234 591.841 436.042 591.581C437.314 591.227 438.605 591.412 439.726 592.108C440.429 592.583 441.102 593.269 441.456 594.391C441.52 594.615 441.584 594.839 441.586 595.053C441.58 595.32 441.518 595.526 441.418 595.779C441.14 596.597 440.641 597.169 440.14 597.526C439.639 597.883 439.098 598.073 438.564 598.211C437.873 598.327 437.237 598.504 436.576 598.41Z" fill="#A9733D"/>
<path d="M426.4 611.154C426.048 613.836 424.65 615.298 422.761 615.028C421.03 614.78 419.612 612.112 419.933 609.64C420.225 607.377 421.795 605.833 423.597 606.037C425.62 606.273 426.766 608.366 426.4 611.154Z" fill="#A9733D"/>
<path d="M418.696 589.348C414.479 592.509 410.739 596.492 413.901 600.708C417.062 604.925 423.043 605.78 427.259 602.619C431.476 599.457 432.331 593.477 429.169 589.261C426.008 585.045 422.912 586.187 418.696 589.348Z" fill="#A9733D"/>
<path d="M464.186 565.76C464.195 565.923 464.165 566.133 464.143 566.29C463.97 567.498 463.325 568.638 462.636 569.183C461.948 569.728 461.131 569.825 460.39 569.612C459.65 569.399 459.025 568.827 458.439 568.208C457.884 567.592 457.305 566.92 457 565.912C456.823 565.351 456.724 564.694 456.751 564.054C456.894 561.931 458.475 560.764 459.605 560.497C460.94 560.152 462.1 560.8 463.045 562.06C463.425 562.544 463.76 563.127 463.977 563.855C464.146 564.469 464.213 565.121 464.186 565.76Z" fill="#A9733D"/>
<path d="M467.18 554.935C468.425 555.22 469.602 555.978 470.6 557.086C470.933 557.455 471.226 557.872 471.325 558.529C471.425 559.401 471.055 560.42 470.555 560.991C469.479 562.231 467.726 562.355 466.592 562.193C465.2 562.047 463.96 561.281 462.921 560.007C461.668 558.434 462.046 556.238 463.747 555.355C464.891 554.769 466.093 554.673 467.18 554.935Z" fill="#A9733D"/>
<path d="M465.161 552.879C465.035 552.861 464.941 552.848 464.815 552.83C464.043 552.612 463.308 552.132 462.62 551.551C462.335 551.296 462.058 550.989 461.859 550.585C461.444 549.668 461.646 548.25 462.27 547.482C462.941 546.613 463.819 546.31 464.628 546.051C465.899 545.697 467.19 545.881 468.311 546.577C469.014 547.053 469.687 547.739 470.041 548.861C470.105 549.085 470.17 549.308 470.171 549.523C470.165 549.79 470.104 549.996 470.003 550.249C469.726 551.067 469.226 551.638 468.725 551.996C468.224 552.353 467.683 552.543 467.149 552.681C466.458 552.797 465.822 552.974 465.161 552.879Z" fill="#A9733D"/>
<path d="M454.985 565.624C454.634 568.307 453.236 569.768 451.347 569.498C449.615 569.25 448.197 566.582 448.519 564.11C448.81 561.847 450.38 560.303 452.183 560.507C454.205 560.743 455.352 562.836 454.985 565.624Z" fill="#A9733D"/>
<path d="M447.28 543.818C443.064 546.979 439.324 550.962 442.486 555.178C445.647 559.394 451.628 560.25 455.844 557.089C460.061 553.927 460.916 547.947 457.754 543.731C454.593 539.515 451.497 540.657 447.28 543.818Z" fill="#A9733D"/>
<path d="M486.699 633.768C486.707 633.911 486.681 634.096 486.661 634.234C486.509 635.297 485.941 636.301 485.336 636.78C484.73 637.259 484.011 637.345 483.359 637.158C482.707 636.97 482.157 636.467 481.641 635.922C481.153 635.38 480.644 634.789 480.375 633.901C480.22 633.408 480.133 632.829 480.157 632.267C480.282 630.398 481.673 629.371 482.668 629.136C483.843 628.832 484.864 629.403 485.695 630.512C486.03 630.937 486.324 631.451 486.515 632.091C486.664 632.631 486.723 633.206 486.699 633.768Z" fill="#A9733D"/>
<path d="M489.333 624.242C490.428 624.493 491.464 625.16 492.343 626.134C492.635 626.459 492.894 626.826 492.981 627.404C493.069 628.171 492.743 629.068 492.303 629.571C491.356 630.662 489.813 630.771 488.816 630.629C487.59 630.501 486.499 629.826 485.585 628.705C484.482 627.321 484.815 625.388 486.312 624.611C487.319 624.095 488.377 624.011 489.333 624.242Z" fill="#A9733D"/>
<path d="M487.557 622.433C487.447 622.417 487.363 622.405 487.253 622.389C486.573 622.198 485.927 621.775 485.321 621.264C485.071 621.04 484.827 620.769 484.651 620.414C484.286 619.607 484.464 618.359 485.013 617.683C485.603 616.919 486.377 616.652 487.088 616.424C488.207 616.112 489.343 616.274 490.33 616.887C490.948 617.306 491.541 617.909 491.852 618.897C491.908 619.093 491.965 619.29 491.966 619.479C491.961 619.714 491.907 619.895 491.818 620.118C491.574 620.838 491.135 621.341 490.694 621.655C490.253 621.969 489.777 622.137 489.307 622.258C488.699 622.36 488.139 622.516 487.557 622.433Z" fill="#A9733D"/>
<path d="M478.601 633.648C478.292 636.008 477.062 637.295 475.399 637.057C473.875 636.839 472.628 634.491 472.911 632.315C473.167 630.324 474.549 628.965 476.135 629.145C477.915 629.352 478.924 631.194 478.601 633.648Z" fill="#A9733D"/>
<path d="M471.822 614.459C468.111 617.241 464.82 620.746 467.602 624.456C470.384 628.166 475.648 628.919 479.358 626.137C483.069 623.355 483.821 618.092 481.039 614.382C478.257 610.672 475.532 611.677 471.822 614.459Z" fill="#A9733D"/>
<path d="M498.332 683.776C498.338 683.886 498.318 684.028 498.302 684.136C498.185 684.957 497.747 685.732 497.279 686.102C496.811 686.472 496.255 686.538 495.752 686.393C495.249 686.249 494.824 685.86 494.426 685.439C494.049 685.021 493.655 684.564 493.448 683.878C493.327 683.497 493.26 683.05 493.279 682.616C493.376 681.173 494.45 680.38 495.219 680.198C496.126 679.963 496.914 680.404 497.556 681.261C497.815 681.589 498.042 681.986 498.19 682.48C498.305 682.898 498.35 683.341 498.332 683.776Z" fill="#A9733D"/>
<path d="M500.367 676.418C501.213 676.612 502.013 677.127 502.691 677.88C502.917 678.131 503.117 678.414 503.184 678.861C503.252 679.453 503 680.146 502.661 680.534C501.929 681.377 500.738 681.461 499.967 681.351C499.021 681.252 498.178 680.731 497.472 679.865C496.62 678.796 496.878 677.303 498.033 676.704C498.811 676.305 499.628 676.24 500.367 676.418Z" fill="#A9733D"/>
<path d="M498.994 675.021C498.909 675.008 498.845 674.999 498.759 674.987C498.234 674.839 497.735 674.513 497.267 674.118C497.074 673.945 496.885 673.736 496.75 673.461C496.468 672.838 496.606 671.874 497.03 671.352C497.485 670.762 498.083 670.556 498.632 670.379C499.496 670.139 500.373 670.264 501.136 670.737C501.613 671.061 502.071 671.527 502.311 672.29C502.355 672.442 502.399 672.593 502.4 672.739C502.396 672.921 502.354 673.061 502.286 673.233C502.097 673.789 501.757 674.177 501.417 674.42C501.077 674.663 500.709 674.792 500.346 674.886C499.876 674.964 499.444 675.085 498.994 675.021Z" fill="#A9733D"/>
<path d="M492.078 683.683C491.839 685.506 490.889 686.499 489.605 686.316C488.428 686.148 487.465 684.334 487.683 682.654C487.881 681.116 488.949 680.066 490.174 680.205C491.548 680.365 492.328 681.788 492.078 683.683Z" fill="#A9733D"/>
<path d="M486.842 668.862C483.976 671.011 481.434 673.718 483.583 676.584C485.732 679.449 489.797 680.03 492.662 677.882C495.528 675.733 496.109 671.668 493.961 668.803C491.812 665.937 489.707 666.714 486.842 668.862Z" fill="#A9733D"/>
<path d="M462.428 657.288C462.436 657.421 462.411 657.592 462.393 657.72C462.252 658.705 461.726 659.635 461.165 660.079C460.603 660.523 459.937 660.603 459.333 660.429C458.729 660.255 458.22 659.789 457.742 659.284C457.29 658.782 456.818 658.234 456.569 657.412C456.425 656.954 456.344 656.418 456.366 655.897C456.483 654.166 457.771 653.214 458.693 652.997C459.781 652.715 460.728 653.244 461.497 654.271C461.808 654.665 462.08 655.141 462.258 655.735C462.396 656.235 462.45 656.767 462.428 657.288Z" fill="#A9733D"/>
<path d="M464.869 648.462C465.884 648.695 466.843 649.312 467.657 650.215C467.929 650.516 468.168 650.856 468.249 651.392C468.33 652.103 468.028 652.934 467.621 653.4C466.743 654.41 465.314 654.512 464.39 654.38C463.254 654.261 462.243 653.636 461.396 652.597C460.374 651.315 460.683 649.524 462.069 648.805C463.002 648.326 463.983 648.248 464.869 648.462Z" fill="#A9733D"/>
<path d="M463.223 646.786C463.12 646.771 463.043 646.76 462.94 646.745C462.311 646.568 461.712 646.176 461.151 645.703C460.919 645.495 460.692 645.244 460.53 644.915C460.191 644.167 460.357 643.011 460.866 642.385C461.412 641.677 462.129 641.43 462.788 641.218C463.824 640.929 464.877 641.08 465.791 641.647C466.365 642.035 466.913 642.594 467.202 643.509C467.254 643.692 467.307 643.874 467.308 644.049C467.303 644.267 467.253 644.434 467.171 644.641C466.944 645.308 466.537 645.774 466.129 646.065C465.72 646.356 465.279 646.512 464.844 646.624C464.28 646.718 463.762 646.863 463.223 646.786Z" fill="#A9733D"/>
<path d="M454.925 657.177C454.639 659.364 453.499 660.556 451.959 660.336C450.547 660.134 449.391 657.959 449.653 655.942C449.89 654.097 451.171 652.839 452.64 653.005C454.289 653.197 455.224 654.904 454.925 657.177Z" fill="#A9733D"/>
<path d="M448.643 639.398C445.205 641.975 442.156 645.223 444.734 648.661C447.312 652.098 452.188 652.796 455.626 650.218C459.064 647.641 459.761 642.764 457.184 639.327C454.606 635.889 452.081 636.82 448.643 639.398Z" fill="#A9733D"/>
<path d="M478.915 703.682C478.92 703.775 478.903 703.894 478.89 703.984C478.791 704.674 478.423 705.324 478.03 705.635C477.637 705.946 477.171 706.002 476.748 705.88C476.326 705.758 475.969 705.432 475.635 705.079C475.318 704.727 474.988 704.344 474.813 703.768C474.713 703.448 474.656 703.073 474.672 702.708C474.753 701.497 475.655 700.831 476.3 700.678C477.062 700.481 477.724 700.851 478.263 701.57C478.48 701.846 478.671 702.179 478.795 702.595C478.892 702.945 478.93 703.317 478.915 703.682Z" fill="#A9733D"/>
<path d="M480.623 697.504C481.334 697.667 482.005 698.099 482.575 698.731C482.765 698.942 482.932 699.18 482.989 699.555C483.046 700.053 482.835 700.634 482.55 700.96C481.935 701.668 480.935 701.739 480.288 701.646C479.493 701.563 478.785 701.125 478.193 700.398C477.478 699.501 477.694 698.247 478.664 697.744C479.317 697.409 480.003 697.354 480.623 697.504Z" fill="#A9733D"/>
<path d="M479.471 696.331C479.399 696.321 479.345 696.313 479.273 696.303C478.833 696.179 478.413 695.905 478.021 695.573C477.858 695.428 477.7 695.252 477.586 695.022C477.349 694.499 477.465 693.69 477.821 693.251C478.204 692.755 478.705 692.582 479.166 692.434C479.892 692.232 480.629 692.338 481.269 692.735C481.67 693.006 482.054 693.398 482.256 694.038C482.292 694.166 482.329 694.293 482.33 694.416C482.327 694.568 482.292 694.685 482.234 694.83C482.076 695.297 481.791 695.623 481.505 695.827C481.219 696.031 480.91 696.139 480.605 696.218C480.211 696.284 479.848 696.385 479.471 696.331Z" fill="#A9733D"/>
<path d="M473.663 703.604C473.463 705.135 472.665 705.969 471.587 705.815C470.599 705.674 469.79 704.151 469.973 702.74C470.14 701.449 471.036 700.568 472.064 700.684C473.218 700.819 473.873 702.013 473.663 703.604Z" fill="#A9733D"/>
<path d="M469.266 691.16C466.86 692.964 464.726 695.237 466.53 697.643C468.334 700.049 471.747 700.537 474.154 698.733C476.56 696.929 477.048 693.516 475.244 691.11C473.44 688.704 471.673 689.356 469.266 691.16Z" fill="#A9733D"/>
</g>
<g opacity="0.3">
<path fill-rule="evenodd" clip-rule="evenodd" d="M1844.34 732.389L1638.69 745H2050L1844.34 732.389Z" fill="#0062AF"/>
<path fill-rule="evenodd" clip-rule="evenodd" d="M1925.35 666.776C1931.67 667.657 1937.78 669.688 1943.36 672.766C1942.67 671.026 1941.97 669.263 1941.28 667.558C1952 675.954 1958.63 686.241 1960.33 698.806L1962.15 685.517C1965.2 701.737 1963 715.201 1951.45 723.795L1955.21 723.398C1937.28 748.574 1887.81 749.204 1870.61 718.669C1873.3 725.208 1874.51 734.76 1869.76 738.228L1793.26 741.24L1764.54 740.458H1729.04C1725.09 740.458 1723.52 734.876 1727.2 731.35L1743.13 720.677C1747.38 703.01 1747.28 678.021 1737.57 663.366C1752.27 674.856 1752.59 705.765 1749.88 721.973C1748.39 727.391 1743.08 731.887 1737.64 734.993C1743.5 732.748 1748.64 728.968 1752.52 724.052C1755.78 692.897 1752.52 668.691 1733.53 656.325C1733.66 658.134 1733.79 659.944 1733.93 661.754C1728.45 658.076 1723.76 649.925 1722.05 642.265C1722.33 645.29 1722.61 648.326 1722.9 651.35C1717.5 643.786 1714.23 634.914 1713.43 625.66C1712.99 628.299 1712.55 630.938 1712.12 633.578C1709.84 625.186 1708.93 616.486 1709.4 607.806L1707.58 618.199C1703.59 601.862 1710.86 585.643 1719.05 569.4C1728.55 557.933 1733.1 547.003 1714.1 538.666C1705.41 537.113 1702.05 533.038 1702.57 526.323H1707.25L1703.18 521.652C1701.81 517.472 1702 509.532 1703.83 509.053L1729.74 514.891C1737.31 510.06 1746.15 507.574 1755.14 507.745L1750.58 504.756V500.855L1743.42 497.481C1753.79 493.978 1759.99 497.341 1763.07 505.923C1768.89 502.553 1773.14 496.753 1775.83 488.524C1781.55 498.03 1781.23 520.333 1781.27 541.877C1782.45 543.159 1783.93 544.126 1785.58 544.691C1783.98 544.836 1782.37 544.592 1780.89 543.979C1782.12 548.755 1784.39 553.199 1787.55 556.987L1782.53 555.75C1783.87 562.441 1787.37 568.536 1792.52 574.188L1787.3 571.444C1789.25 577.131 1792.83 582.119 1797.61 585.783C1849.57 617.813 1868.81 653.919 1876.18 691.496C1882.92 712.293 1929.14 720.922 1930.3 693.201C1927.74 688.787 1925.18 684.373 1922.62 679.959L1931.07 682.937C1929.98 677.273 1928.01 671.815 1925.22 666.764" fill="#0062AF"/>
<path fill-rule="evenodd" clip-rule="evenodd" d="M1814.19 692.512C1786.74 700.289 1790.21 718.984 1806.65 737.667C1783.89 722.697 1780.78 694.602 1814.19 692.512ZM1841.6 696.272C1844.16 710.016 1841.6 723.76 1835.36 737.504C1859.11 735.857 1865.4 714.476 1841.6 696.272ZM1766.45 741.813C1766.45 734.9 1767.78 733.58 1771.87 727.905C1772.44 712.935 1767.89 699.611 1761.69 686.825C1756.07 675.23 1763.39 656.394 1762.02 642.312C1763.06 641.97 1764.03 641.415 1764.84 640.683C1765.66 639.952 1766.32 639.059 1766.77 638.061C1757.86 639.965 1750.82 637.991 1748.9 625.298C1748.18 622.718 1748.23 620.954 1750.86 619.892L1757.25 618.094C1757.83 615.128 1759.23 610.97 1763.11 609.196L1767.45 608.542C1767.16 605.399 1767.46 602.229 1768.35 599.2C1771.15 600.59 1773.36 602.935 1774.57 605.809H1776.54C1776.54 602.402 1777.73 599.101 1779.9 596.468C1788.94 608.46 1796.45 622.881 1799.8 644.04L1831.1 675.323C1832.84 671.516 1835.84 668.415 1839.59 666.53C1848.41 662.548 1850.68 672.661 1845.57 674.039C1840.73 676.059 1838.41 680.928 1841.63 684.244C1862.93 697.171 1878.03 726.189 1853.67 741.707L1766.45 741.813Z" fill="white"/>
</g>
</g>
</svg>
