<svg width="1920" height="1095" viewBox="0 0 1920 1095" fill="none" xmlns="http://www.w3.org/2000/svg">
<rect width="1920" height="1095" fill="white"/>
<mask id="mask0_151_496" style="mask-type:alpha" maskUnits="userSpaceOnUse" x="0" y="0" width="1920" height="1095">
<rect width="1920" height="1095" fill="#D9D9D9"/>
</mask>
<g mask="url(#mask0_151_496)">
<g opacity="0.2">
<path d="M1770.08 1054.86C1769.71 1054.8 1769.22 1054.81 1768.85 1054.83C1766.04 1054.92 1763.27 1056.12 1761.85 1057.56C1760.43 1059 1760.01 1060.85 1760.31 1062.6C1760.62 1064.35 1761.77 1065.92 1763.05 1067.42C1764.32 1068.84 1765.72 1070.34 1767.95 1071.29C1769.19 1071.83 1770.67 1072.22 1772.14 1072.32C1777.04 1072.51 1780.11 1069.18 1781 1066.66C1782.12 1063.69 1780.92 1060.87 1778.27 1058.39C1777.26 1057.4 1776 1056.49 1774.39 1055.81C1773.03 1055.27 1771.55 1054.95 1770.08 1054.86Z" fill="#A9733D"/>
<path d="M1795.62 1050.68C1795.28 1047.76 1793.83 1044.88 1791.54 1042.32C1790.78 1041.46 1789.9 1040.68 1788.42 1040.3C1786.44 1039.85 1784.02 1040.45 1782.58 1041.45C1779.48 1043.61 1778.76 1047.59 1778.85 1050.23C1778.84 1053.46 1780.29 1056.49 1782.95 1059.18C1786.24 1062.45 1791.36 1062.12 1793.81 1058.45C1795.43 1055.97 1795.95 1053.24 1795.62 1050.68Z" fill="#A9733D"/>
<path d="M1799.83 1055.82C1799.84 1056.11 1799.85 1056.33 1799.86 1056.63C1800.17 1058.45 1801.09 1060.25 1802.25 1061.97C1802.76 1062.69 1803.4 1063.4 1804.27 1063.95C1806.27 1065.13 1809.57 1065.02 1811.48 1063.78C1813.64 1062.46 1814.55 1060.52 1815.34 1058.74C1816.47 1055.91 1816.37 1052.91 1815.05 1050.16C1814.14 1048.44 1812.73 1046.72 1810.25 1045.64C1809.75 1045.43 1809.26 1045.23 1808.76 1045.17C1808.15 1045.12 1807.66 1045.21 1807.06 1045.38C1805.12 1045.81 1803.68 1046.81 1802.74 1047.87C1801.8 1048.93 1801.23 1050.12 1800.78 1051.31C1800.34 1052.87 1799.78 1054.28 1799.83 1055.82Z" fill="#A9733D"/>
<path d="M1768.11 1075.97C1761.88 1076.11 1758.18 1078.95 1758.33 1083.35C1758.47 1087.38 1764.23 1091.29 1769.98 1091.17C1775.23 1091.06 1779.16 1087.84 1779.14 1083.66C1779.1 1078.97 1774.59 1075.83 1768.11 1075.97Z" fill="#A9733D"/>
<path d="M1816.16 1099.03C1807.87 1107.91 1797.82 1115.49 1788.94 1107.2C1780.07 1098.91 1779.59 1085 1787.88 1076.12C1796.17 1067.24 1810.08 1066.77 1818.95 1075.06C1827.83 1083.34 1824.44 1090.15 1816.16 1099.03Z" fill="#A9733D"/>
<path d="M1897 1064.78C1896.61 1064.83 1896.13 1065 1895.77 1065.12C1893.01 1066.08 1890.63 1068.12 1889.67 1069.99C1888.71 1071.86 1888.85 1073.82 1889.7 1075.47C1890.54 1077.11 1892.17 1078.31 1893.89 1079.41C1895.59 1080.43 1897.44 1081.48 1899.95 1081.73C1901.35 1081.89 1902.94 1081.82 1904.43 1081.46C1909.35 1080.15 1911.36 1075.9 1911.47 1073.12C1911.66 1069.82 1909.61 1067.39 1906.21 1065.76C1904.9 1065.08 1903.38 1064.57 1901.57 1064.39C1900.05 1064.28 1898.48 1064.42 1897 1064.78Z" fill="#A9733D"/>
<path d="M1921.05 1052.76C1919.8 1049.97 1917.48 1047.55 1914.42 1045.72C1913.4 1045.11 1912.29 1044.61 1910.7 1044.68C1908.6 1044.84 1906.38 1046.18 1905.27 1047.62C1902.85 1050.72 1903.37 1054.9 1904.27 1057.48C1905.25 1060.69 1907.62 1063.25 1911.09 1065.1C1915.37 1067.32 1920.35 1065.42 1921.64 1061.02C1922.49 1058.06 1922.16 1055.19 1921.05 1052.76Z" fill="#A9733D"/>
<path d="M1901.55 1086.33C1895.41 1088.39 1892.62 1092.35 1894.13 1096.66C1895.5 1100.62 1902.42 1102.72 1908.08 1100.83C1913.26 1099.1 1916.17 1094.7 1914.86 1090.56C1913.38 1085.92 1907.93 1084.19 1901.55 1086.33Z" fill="#A9733D"/>
<path d="M1956.32 1094.39C1950.84 1105.75 1943.2 1116.37 1931.84 1110.89C1920.48 1105.4 1915.72 1091.74 1921.21 1080.38C1926.69 1069.02 1940.35 1064.26 1951.71 1069.75C1963.07 1075.23 1961.81 1083.03 1956.32 1094.39Z" fill="#A9733D"/>
<path d="M1826.01 963.031C1825.63 963.083 1825.17 963.246 1824.81 963.369C1822.13 964.306 1819.8 966.295 1818.86 968.116C1817.93 969.937 1818.07 971.853 1818.89 973.454C1819.71 975.055 1821.3 976.23 1822.98 977.294C1824.64 978.289 1826.44 979.313 1828.89 979.56C1830.25 979.713 1831.8 979.645 1833.25 979.296C1838.05 978.016 1840.01 973.871 1840.12 971.162C1840.31 967.95 1838.31 965.583 1834.99 963.986C1833.72 963.331 1832.23 962.827 1830.47 962.656C1828.98 962.544 1827.46 962.682 1826.01 963.031Z" fill="#A9733D"/>
<path d="M1849.46 951.316C1848.25 948.594 1845.98 946.238 1843 944.448C1842 943.852 1840.92 943.366 1839.37 943.434C1837.33 943.596 1835.16 944.902 1834.07 946.302C1831.72 949.325 1832.22 953.396 1833.1 955.919C1834.06 959.044 1836.37 961.54 1839.75 963.348C1843.92 965.513 1848.78 963.66 1850.04 959.369C1850.87 956.486 1850.55 953.688 1849.46 951.316Z" fill="#A9733D"/>
<path d="M1855.08 955.018C1855.17 955.299 1855.25 955.509 1855.35 955.789C1856.19 957.46 1857.62 958.927 1859.26 960.243C1859.97 960.781 1860.8 961.278 1861.81 961.553C1864.1 962.093 1867.26 960.992 1868.73 959.218C1870.42 957.293 1870.72 955.144 1870.96 953.177C1871.2 950.105 1870.19 947.231 1868.1 944.975C1866.69 943.578 1864.82 942.344 1862.09 942.038C1861.55 941.99 1861.01 941.943 1860.52 942.036C1859.91 942.17 1859.46 942.403 1858.93 942.747C1857.18 943.75 1856.09 945.15 1855.5 946.458C1854.91 947.765 1854.71 949.091 1854.64 950.375C1854.68 952.01 1854.56 953.546 1855.08 955.018Z" fill="#A9733D"/>
<path d="M1830.45 984.046C1824.46 986.055 1821.74 989.913 1823.21 994.119C1824.55 997.974 1831.3 1000.02 1836.82 998.179C1841.87 996.496 1844.7 992.207 1843.43 988.17C1841.98 983.643 1836.67 981.956 1830.45 984.046Z" fill="#A9733D"/>
<path d="M1883.85 991.907C1878.5 1002.98 1871.06 1013.34 1859.98 1007.99C1848.91 1002.64 1844.26 989.322 1849.61 978.247C1854.96 967.171 1868.28 962.528 1879.35 967.877C1890.43 973.226 1889.2 980.831 1883.85 991.907Z" fill="#A9733D"/>
<path d="M1712.18 980.298C1711.82 980.347 1711.39 980.499 1711.06 980.614C1708.54 981.493 1706.36 983.357 1705.48 985.064C1704.6 986.77 1704.74 988.566 1705.5 990.066C1706.27 991.566 1707.76 992.668 1709.34 993.666C1710.89 994.598 1712.58 995.557 1714.87 995.789C1716.15 995.933 1717.6 995.868 1718.96 995.541C1723.46 994.342 1725.3 990.458 1725.4 987.918C1725.58 984.908 1723.7 982.69 1720.6 981.192C1719.4 980.578 1718.01 980.106 1716.35 979.946C1714.97 979.841 1713.54 979.971 1712.18 980.298Z" fill="#A9733D"/>
<path d="M1734.15 969.318C1733.02 966.766 1730.9 964.559 1728.1 962.881C1727.17 962.322 1726.15 961.867 1724.7 961.931C1722.78 962.082 1720.75 963.306 1719.74 964.619C1717.53 967.452 1718 971.267 1718.82 973.632C1719.72 976.561 1721.89 978.9 1725.06 980.595C1728.96 982.624 1733.52 980.888 1734.7 976.866C1735.47 974.163 1735.17 971.541 1734.15 969.318Z" fill="#A9733D"/>
<path d="M1739.42 972.788C1739.51 973.051 1739.58 973.248 1739.67 973.511C1740.46 975.077 1741.8 976.452 1743.34 977.685C1744.01 978.189 1744.78 978.655 1745.73 978.913C1747.88 979.419 1750.83 978.387 1752.22 976.725C1753.8 974.92 1754.08 972.907 1754.3 971.062C1754.53 968.184 1753.59 965.49 1751.62 963.376C1750.3 962.066 1748.55 960.91 1745.99 960.623C1745.49 960.578 1744.98 960.534 1744.52 960.621C1743.95 960.746 1743.53 960.965 1743.03 961.287C1741.39 962.227 1740.37 963.54 1739.82 964.765C1739.26 965.991 1739.08 967.233 1739.01 968.437C1739.05 969.969 1738.94 971.409 1739.42 972.788Z" fill="#A9733D"/>
<path d="M1716.34 999.994C1710.73 1001.88 1708.18 1005.49 1709.55 1009.43C1710.81 1013.05 1717.13 1014.97 1722.31 1013.24C1727.04 1011.66 1729.7 1007.64 1728.5 1003.86C1727.14 999.616 1722.17 998.035 1716.34 999.994Z" fill="#A9733D"/>
<path d="M1766.39 1007.36C1761.37 1017.74 1754.4 1027.45 1744.02 1022.43C1733.64 1017.42 1729.29 1004.94 1734.3 994.559C1739.31 984.178 1751.79 979.827 1762.17 984.841C1772.55 989.854 1771.4 996.981 1766.39 1007.36Z" fill="#A9733D"/>
<path d="M1701.47 820.025C1701.17 820.008 1700.78 820.064 1700.49 820.106C1698.23 820.429 1696.11 821.632 1695.09 822.916C1694.07 824.2 1693.89 825.724 1694.29 827.106C1694.69 828.488 1695.75 829.654 1696.91 830.747C1698.06 831.782 1699.31 832.861 1701.19 833.431C1702.24 833.761 1703.46 833.945 1704.66 833.895C1708.62 833.628 1710.79 830.679 1711.29 828.57C1711.93 826.081 1710.73 823.916 1708.37 822.155C1707.47 821.445 1706.38 820.821 1705.03 820.416C1703.88 820.1 1702.67 819.974 1701.47 820.025Z" fill="#A9733D"/>
<path d="M1721.67 814.44C1721.13 812.119 1719.72 809.924 1717.65 808.061C1716.97 807.44 1716.19 806.892 1714.96 806.708C1713.34 806.521 1711.44 807.212 1710.37 808.144C1708.06 810.153 1707.83 813.423 1708.13 815.537C1708.4 818.135 1709.83 820.448 1712.21 822.386C1715.14 824.723 1719.24 824.018 1720.88 820.845C1721.98 818.711 1722.16 816.468 1721.67 814.44Z" fill="#A9733D"/>
<path d="M1725.5 818.207C1725.53 818.442 1725.56 818.618 1725.59 818.853C1726 820.294 1726.9 821.664 1727.98 822.947C1728.45 823.479 1729.03 823.996 1729.78 824.368C1731.49 825.142 1734.14 824.764 1735.57 823.6C1737.19 822.349 1737.76 820.71 1738.24 819.202C1738.9 816.83 1738.56 814.422 1737.26 812.33C1736.37 811.019 1735.09 809.763 1733 809.104C1732.58 808.984 1732.16 808.863 1731.76 808.861C1731.26 808.872 1730.88 808.987 1730.41 809.174C1728.88 809.692 1727.82 810.624 1727.15 811.558C1726.48 812.493 1726.13 813.502 1725.87 814.498C1725.66 815.788 1725.32 816.974 1725.5 818.207Z" fill="#A9733D"/>
<path d="M1701.73 837.189C1696.72 837.845 1694 840.453 1694.5 843.977C1694.96 847.207 1699.94 849.852 1704.55 849.252C1708.77 848.709 1711.65 845.779 1711.27 842.418C1710.83 838.645 1706.93 836.506 1701.73 837.189Z" fill="#A9733D"/>
<path d="M1742.4 851.56C1736.51 859.425 1729.08 866.401 1721.21 860.504C1713.35 854.607 1711.75 843.45 1717.65 835.585C1723.55 827.721 1734.7 826.125 1742.57 832.022C1750.43 837.919 1748.3 843.695 1742.4 851.56Z" fill="#A9733D"/>
<path d="M1669.87 901.936C1669.57 901.919 1669.18 901.975 1668.88 902.017C1666.63 902.339 1664.5 903.542 1663.49 904.826C1662.47 906.111 1662.29 907.635 1662.69 909.017C1663.08 910.398 1664.15 911.564 1665.31 912.658C1666.45 913.692 1667.71 914.772 1669.59 915.342C1670.64 915.672 1671.86 915.856 1673.05 915.805C1677.01 915.539 1679.19 912.59 1679.69 910.481C1680.33 907.992 1679.12 905.827 1676.77 904.065C1675.87 903.355 1674.78 902.732 1673.43 902.326C1672.28 902.011 1671.06 901.885 1669.87 901.936Z" fill="#A9733D"/>
<path d="M1690.06 896.351C1689.53 894.03 1688.12 891.834 1686.05 889.972C1685.36 889.351 1684.59 888.803 1683.36 888.619C1681.74 888.432 1679.83 889.123 1678.77 890.055C1676.46 892.064 1676.22 895.333 1676.53 897.448C1676.8 900.046 1678.23 902.359 1680.6 904.297C1683.54 906.634 1687.64 905.929 1689.28 902.756C1690.38 900.622 1690.55 898.379 1690.06 896.351Z" fill="#A9733D"/>
<path d="M1693.9 900.119C1693.93 900.354 1693.96 900.53 1693.99 900.765C1694.4 902.205 1695.29 903.576 1696.38 904.859C1696.85 905.391 1697.43 905.908 1698.18 906.28C1699.89 907.054 1702.53 906.676 1703.97 905.512C1705.59 904.261 1706.15 902.622 1706.64 901.114C1707.3 898.742 1706.95 896.334 1705.66 894.242C1704.77 892.931 1703.49 891.675 1701.4 891.016C1700.98 890.895 1700.56 890.775 1700.16 890.773C1699.66 890.784 1699.28 890.899 1698.81 891.086C1697.28 891.604 1696.21 892.536 1695.55 893.47C1694.88 894.404 1694.53 895.414 1694.27 896.41C1694.05 897.7 1693.72 898.886 1693.9 900.119Z" fill="#A9733D"/>
<path d="M1670.13 919.101C1665.12 919.757 1662.4 922.364 1662.9 925.888C1663.36 929.119 1668.34 931.763 1672.95 931.164C1677.17 930.62 1680.05 927.691 1679.67 924.329C1679.23 920.556 1675.33 918.417 1670.13 919.101Z" fill="#A9733D"/>
<path d="M1710.8 933.472C1704.9 941.336 1697.47 948.312 1689.61 942.415C1681.75 936.518 1680.15 925.362 1686.05 917.497C1691.94 909.632 1703.1 908.037 1710.96 913.934C1718.83 919.831 1716.7 925.607 1710.8 933.472Z" fill="#A9733D"/>
<path d="M1768.74 883.212C1768.43 883.195 1768.04 883.251 1767.75 883.293C1765.5 883.615 1763.37 884.818 1762.35 886.102C1761.34 887.386 1761.15 888.911 1761.55 890.292C1761.95 891.674 1763.02 892.84 1764.17 893.934C1765.32 894.968 1766.57 896.047 1768.45 896.618C1769.5 896.947 1770.73 897.132 1771.92 897.081C1775.88 896.814 1778.06 893.866 1778.55 891.757C1779.2 889.267 1777.99 887.103 1775.64 885.341C1774.74 884.631 1773.65 884.008 1772.29 883.602C1771.15 883.287 1769.93 883.161 1768.74 883.212Z" fill="#A9733D"/>
<path d="M1788.93 877.627C1788.4 875.306 1786.98 873.11 1784.92 871.248C1784.23 870.627 1783.45 870.079 1782.23 869.895C1780.6 869.708 1778.7 870.399 1777.63 871.331C1775.32 873.34 1775.09 876.609 1775.39 878.724C1775.66 881.322 1777.09 883.635 1779.47 885.573C1782.4 887.91 1786.5 887.204 1788.14 884.032C1789.24 881.898 1789.42 879.655 1788.93 877.627Z" fill="#A9733D"/>
<path d="M1792.76 881.394C1792.8 881.629 1792.82 881.805 1792.86 882.04C1793.26 883.481 1794.16 884.851 1795.24 886.135C1795.72 886.666 1796.29 887.183 1797.04 887.555C1798.75 888.329 1801.4 887.951 1802.83 886.787C1804.45 885.537 1805.02 883.897 1805.5 882.39C1806.16 880.018 1805.82 877.61 1804.52 875.518C1803.63 874.206 1802.35 872.951 1800.26 872.291C1799.84 872.171 1799.43 872.051 1799.03 872.048C1798.53 872.059 1798.14 872.174 1797.67 872.362C1796.15 872.879 1795.08 873.811 1794.41 874.745C1793.75 875.68 1793.39 876.69 1793.13 877.685C1792.92 878.975 1792.59 880.161 1792.76 881.394Z" fill="#A9733D"/>
<path d="M1768.99 900.376C1763.99 901.032 1761.26 903.64 1761.76 907.164C1762.23 910.394 1767.2 913.039 1771.82 912.439C1776.04 911.896 1778.92 908.966 1778.53 905.605C1778.1 901.832 1774.19 899.693 1768.99 900.376Z" fill="#A9733D"/>
<path d="M1809.67 914.747C1803.77 922.612 1796.34 929.588 1788.48 923.691C1780.61 917.794 1779.02 906.638 1784.91 898.773C1790.81 890.908 1801.96 889.313 1809.83 895.21C1817.69 901.107 1815.56 906.882 1809.67 914.747Z" fill="#A9733D"/>
<path d="M1609.19 831.241C1608.92 831.226 1608.57 831.275 1608.31 831.313C1606.31 831.599 1604.42 832.667 1603.52 833.807C1602.62 834.947 1602.46 836.3 1602.81 837.526C1603.16 838.753 1604.11 839.788 1605.14 840.759C1606.16 841.677 1607.27 842.635 1608.94 843.141C1609.87 843.434 1610.96 843.598 1612.01 843.553C1615.53 843.316 1617.46 840.699 1617.9 838.826C1618.48 836.616 1617.4 834.695 1615.32 833.131C1614.52 832.501 1613.55 831.947 1612.34 831.587C1611.33 831.307 1610.25 831.196 1609.19 831.241Z" fill="#A9733D"/>
<path d="M1627.11 826.283C1626.64 824.223 1625.39 822.274 1623.55 820.621C1622.94 820.07 1622.25 819.583 1621.16 819.42C1619.72 819.254 1618.03 819.867 1617.09 820.694C1615.03 822.478 1614.83 825.38 1615.1 827.257C1615.34 829.564 1616.61 831.617 1618.72 833.337C1621.32 835.412 1624.96 834.786 1626.42 831.97C1627.39 830.075 1627.55 828.083 1627.11 826.283Z" fill="#A9733D"/>
<path d="M1630.52 829.627C1630.55 829.836 1630.57 829.992 1630.6 830.201C1630.96 831.479 1631.76 832.696 1632.72 833.835C1633.14 834.307 1633.65 834.766 1634.32 835.096C1635.84 835.783 1638.19 835.448 1639.46 834.414C1640.9 833.304 1641.4 831.849 1641.83 830.511C1642.41 828.405 1642.11 826.267 1640.96 824.41C1640.17 823.246 1639.03 822.131 1637.17 821.546C1636.8 821.439 1636.43 821.333 1636.08 821.33C1635.64 821.34 1635.3 821.442 1634.88 821.609C1633.52 822.068 1632.57 822.895 1631.98 823.725C1631.39 824.554 1631.08 825.451 1630.85 826.335C1630.66 827.479 1630.36 828.532 1630.52 829.627Z" fill="#A9733D"/>
<path d="M1609.42 846.478C1604.97 847.06 1602.55 849.375 1603 852.503C1603.41 855.371 1607.83 857.718 1611.92 857.186C1615.67 856.704 1618.23 854.103 1617.89 851.119C1617.5 847.77 1614.03 845.871 1609.42 846.478Z" fill="#A9733D"/>
<path d="M1645.52 859.235C1640.29 866.217 1633.69 872.41 1626.71 867.175C1619.73 861.94 1618.31 852.037 1623.55 845.055C1628.78 838.073 1638.69 836.657 1645.67 841.892C1652.65 847.126 1650.76 852.254 1645.52 859.235Z" fill="#A9733D"/>
<path d="M1615.29 747.832C1615.02 747.818 1614.67 747.867 1614.41 747.905C1612.41 748.191 1610.52 749.259 1609.62 750.399C1608.72 751.538 1608.56 752.892 1608.91 754.118C1609.27 755.345 1610.21 756.38 1611.24 757.35C1612.26 758.269 1613.37 759.227 1615.04 759.733C1615.97 760.026 1617.06 760.189 1618.11 760.144C1621.63 759.908 1623.56 757.29 1624.01 755.418C1624.58 753.208 1623.5 751.287 1621.42 749.723C1620.62 749.092 1619.65 748.539 1618.44 748.179C1617.43 747.899 1616.35 747.787 1615.29 747.832Z" fill="#A9733D"/>
<path d="M1633.21 742.875C1632.74 740.814 1631.49 738.865 1629.65 737.212C1629.04 736.661 1628.35 736.175 1627.26 736.011C1625.82 735.845 1624.13 736.459 1623.19 737.286C1621.13 739.069 1620.93 741.972 1621.2 743.849C1621.44 746.155 1622.71 748.208 1624.82 749.928C1627.42 752.003 1631.06 751.377 1632.52 748.561C1633.49 746.666 1633.65 744.675 1633.21 742.875Z" fill="#A9733D"/>
<path d="M1636.62 746.219C1636.65 746.427 1636.67 746.584 1636.7 746.792C1637.06 748.071 1637.86 749.287 1638.82 750.427C1639.24 750.898 1639.75 751.357 1640.42 751.688C1641.94 752.375 1644.29 752.039 1645.56 751.006C1647 749.896 1647.5 748.441 1647.93 747.102C1648.51 744.997 1648.21 742.859 1647.06 741.002C1646.27 739.838 1645.13 738.723 1643.27 738.138C1642.9 738.031 1642.53 737.924 1642.18 737.922C1641.74 737.932 1641.4 738.034 1640.98 738.2C1639.62 738.66 1638.67 739.487 1638.08 740.316C1637.49 741.146 1637.18 742.042 1636.95 742.926C1636.76 744.071 1636.46 745.124 1636.62 746.219Z" fill="#A9733D"/>
<path d="M1615.52 763.069C1611.07 763.651 1608.65 765.966 1609.1 769.094C1609.51 771.962 1613.93 774.31 1618.02 773.778C1621.77 773.295 1624.33 770.695 1623.99 767.71C1623.6 764.361 1620.13 762.463 1615.52 763.069Z" fill="#A9733D"/>
<path d="M1651.62 775.826C1646.39 782.808 1639.79 789.001 1632.81 783.766C1625.83 778.531 1624.41 768.628 1629.65 761.646C1634.88 754.664 1644.79 753.248 1651.77 758.483C1658.75 763.718 1656.86 768.845 1651.62 775.826Z" fill="#A9733D"/>
<path d="M1537.75 763.722C1537.49 763.707 1537.15 763.756 1536.89 763.792C1534.94 764.071 1533.1 765.113 1532.22 766.225C1531.34 767.336 1531.19 768.656 1531.53 769.852C1531.87 771.048 1532.8 772.058 1533.8 773.004C1534.79 773.9 1535.88 774.834 1537.5 775.328C1538.41 775.613 1539.47 775.773 1540.5 775.729C1543.93 775.498 1545.82 772.946 1546.25 771.12C1546.81 768.965 1545.76 767.091 1543.72 765.566C1542.94 764.951 1542 764.411 1540.83 764.06C1539.84 763.787 1538.78 763.678 1537.75 763.722Z" fill="#A9733D"/>
<path d="M1555.23 758.888C1554.77 756.878 1553.55 754.977 1551.76 753.365C1551.16 752.828 1550.49 752.353 1549.43 752.194C1548.02 752.032 1546.37 752.63 1545.45 753.437C1543.45 755.176 1543.25 758.007 1543.51 759.837C1543.74 762.087 1544.98 764.089 1547.04 765.767C1549.58 767.79 1553.13 767.179 1554.55 764.433C1555.5 762.585 1555.65 760.643 1555.23 758.888Z" fill="#A9733D"/>
<path d="M1558.55 762.149C1558.58 762.352 1558.6 762.505 1558.63 762.708C1558.98 763.955 1559.76 765.141 1560.69 766.252C1561.11 766.712 1561.6 767.16 1562.26 767.482C1563.74 768.152 1566.03 767.825 1567.27 766.817C1568.67 765.735 1569.16 764.316 1569.58 763.01C1570.15 760.957 1569.85 758.872 1568.73 757.061C1567.96 755.926 1566.85 754.839 1565.04 754.268C1564.68 754.164 1564.32 754.06 1563.97 754.057C1563.54 754.067 1563.21 754.166 1562.8 754.329C1561.48 754.777 1560.55 755.584 1559.98 756.393C1559.4 757.201 1559.09 758.076 1558.87 758.938C1558.68 760.054 1558.4 761.081 1558.55 762.149Z" fill="#A9733D"/>
<path d="M1537.97 778.582C1533.64 779.15 1531.28 781.407 1531.71 784.458C1532.11 787.255 1536.42 789.544 1540.41 789.025C1544.07 788.555 1546.56 786.019 1546.23 783.108C1545.85 779.842 1542.47 777.99 1537.97 778.582Z" fill="#A9733D"/>
<path d="M1573.18 791.023C1568.08 797.832 1561.65 803.872 1554.84 798.766C1548.03 793.661 1546.65 784.003 1551.75 777.194C1556.86 770.385 1566.52 769.004 1573.32 774.109C1580.13 779.214 1578.29 784.215 1573.18 791.023Z" fill="#A9733D"/>
<path d="M1541.81 683.924C1541.56 683.91 1541.24 683.956 1541 683.991C1539.16 684.254 1537.41 685.24 1536.58 686.292C1535.75 687.343 1535.6 688.592 1535.93 689.723C1536.25 690.855 1537.12 691.81 1538.07 692.705C1539.01 693.553 1540.04 694.437 1541.58 694.904C1542.44 695.174 1543.44 695.325 1544.42 695.283C1547.66 695.065 1549.44 692.65 1549.85 690.923C1550.38 688.884 1549.39 687.111 1547.46 685.668C1546.72 685.087 1545.83 684.576 1544.72 684.244C1543.78 683.985 1542.79 683.883 1541.81 683.924Z" fill="#A9733D"/>
<path d="M1558.35 679.349C1557.91 677.448 1556.75 675.65 1555.06 674.125C1554.5 673.617 1553.86 673.168 1552.86 673.017C1551.53 672.864 1549.97 673.43 1549.1 674.193C1547.2 675.838 1547.01 678.516 1547.26 680.248C1547.48 682.376 1548.65 684.27 1550.6 685.857C1553 687.772 1556.36 687.194 1557.71 684.596C1558.6 682.847 1558.75 681.01 1558.35 679.349Z" fill="#A9733D"/>
<path d="M1561.49 682.434C1561.52 682.627 1561.54 682.771 1561.56 682.964C1561.9 684.143 1562.63 685.266 1563.52 686.317C1563.91 686.752 1564.38 687.176 1564.99 687.48C1566.4 688.114 1568.56 687.805 1569.74 686.851C1571.06 685.827 1571.53 684.485 1571.92 683.25C1572.46 681.307 1572.18 679.335 1571.12 677.621C1570.39 676.547 1569.34 675.519 1567.63 674.979C1567.29 674.88 1566.95 674.782 1566.62 674.78C1566.21 674.789 1565.9 674.883 1565.51 675.037C1564.26 675.461 1563.38 676.224 1562.84 676.989C1562.29 677.754 1562 678.581 1561.79 679.397C1561.62 680.453 1561.34 681.424 1561.49 682.434Z" fill="#A9733D"/>
<path d="M1542.02 697.982C1537.92 698.519 1535.69 700.655 1536.1 703.541C1536.48 706.187 1540.55 708.353 1544.33 707.862C1547.79 707.416 1550.15 705.017 1549.83 702.264C1549.47 699.174 1546.28 697.422 1542.02 697.982Z" fill="#A9733D"/>
<path d="M1575.33 709.752C1570.5 716.193 1564.42 721.907 1557.98 717.077C1551.54 712.247 1550.23 703.11 1555.06 696.668C1559.89 690.227 1569.02 688.92 1575.47 693.75C1581.91 698.58 1580.16 703.31 1575.33 709.752Z" fill="#A9733D"/>
<path d="M1464.88 705.877C1464.64 705.864 1464.32 705.909 1464.09 705.942C1462.29 706.2 1460.58 707.163 1459.77 708.19C1458.96 709.218 1458.81 710.438 1459.13 711.543C1459.45 712.649 1460.3 713.582 1461.23 714.456C1462.15 715.284 1463.15 716.148 1464.65 716.604C1465.49 716.868 1466.47 717.016 1467.43 716.975C1470.6 716.762 1472.34 714.402 1472.74 712.715C1473.25 710.723 1472.28 708.991 1470.4 707.581C1469.68 707.013 1468.81 706.514 1467.72 706.19C1466.81 705.937 1465.83 705.837 1464.88 705.877Z" fill="#A9733D"/>
<path d="M1481.04 701.408C1480.61 699.551 1479.48 697.794 1477.83 696.304C1477.28 695.808 1476.65 695.369 1475.67 695.222C1474.37 695.072 1472.85 695.625 1472 696.371C1470.15 697.978 1469.96 700.594 1470.2 702.286C1470.42 704.365 1471.57 706.216 1473.47 707.766C1475.81 709.637 1479.09 709.072 1480.41 706.534C1481.29 704.826 1481.43 703.031 1481.04 701.408Z" fill="#A9733D"/>
<path d="M1484.11 704.422C1484.13 704.61 1484.15 704.751 1484.18 704.939C1484.5 706.092 1485.22 707.188 1486.09 708.215C1486.47 708.641 1486.93 709.054 1487.53 709.352C1488.9 709.972 1491.02 709.669 1492.16 708.738C1493.46 707.737 1493.91 706.425 1494.3 705.219C1494.83 703.321 1494.55 701.394 1493.51 699.72C1492.8 698.671 1491.78 697.666 1490.1 697.138C1489.77 697.042 1489.44 696.946 1489.12 696.944C1488.72 696.953 1488.41 697.045 1488.03 697.195C1486.81 697.609 1485.96 698.355 1485.42 699.102C1484.89 699.85 1484.61 700.658 1484.4 701.455C1484.23 702.487 1483.96 703.436 1484.11 704.422Z" fill="#A9733D"/>
<path d="M1465.08 719.612C1461.08 720.137 1458.9 722.223 1459.3 725.043C1459.67 727.628 1463.65 729.744 1467.34 729.264C1470.72 728.829 1473.02 726.485 1472.72 723.795C1472.37 720.776 1469.24 719.065 1465.08 719.612Z" fill="#A9733D"/>
<path d="M1497.63 731.111C1492.91 737.404 1486.97 742.986 1480.67 738.267C1474.38 733.549 1473.11 724.622 1477.82 718.329C1482.54 712.036 1491.47 710.759 1497.76 715.478C1504.05 720.196 1502.35 724.818 1497.63 731.111Z" fill="#A9733D"/>
<path d="M1462.22 636.981C1462.01 636.97 1461.73 637.009 1461.53 637.038C1459.96 637.263 1458.47 638.102 1457.76 638.998C1457.06 639.894 1456.93 640.958 1457.21 641.922C1457.48 642.886 1458.23 643.7 1459.03 644.463C1459.83 645.184 1460.71 645.937 1462.02 646.335C1462.75 646.565 1463.61 646.694 1464.44 646.659C1467.2 646.473 1468.72 644.415 1469.07 642.944C1469.52 641.207 1468.68 639.696 1467.04 638.467C1466.41 637.972 1465.65 637.537 1464.7 637.254C1463.9 637.034 1463.05 636.946 1462.22 636.981Z" fill="#A9733D"/>
<path d="M1476.31 633.084C1475.94 631.465 1474.95 629.933 1473.51 628.634C1473.03 628.2 1472.49 627.818 1471.63 627.689C1470.5 627.559 1469.17 628.041 1468.43 628.691C1466.81 630.093 1466.65 632.374 1466.86 633.85C1467.05 635.663 1468.05 637.277 1469.71 638.629C1471.76 640.26 1474.61 639.767 1475.76 637.554C1476.53 636.064 1476.65 634.499 1476.31 633.084Z" fill="#A9733D"/>
<path d="M1478.99 635.713C1479.01 635.877 1479.03 636 1479.05 636.163C1479.33 637.168 1479.96 638.125 1480.71 639.02C1481.05 639.391 1481.45 639.752 1481.97 640.011C1483.16 640.552 1485.01 640.288 1486.01 639.476C1487.14 638.603 1487.54 637.459 1487.87 636.407C1488.33 634.752 1488.09 633.072 1487.19 631.612C1486.57 630.697 1485.68 629.821 1484.22 629.361C1483.92 629.277 1483.63 629.193 1483.35 629.191C1483.01 629.199 1482.74 629.279 1482.41 629.41C1481.34 629.771 1480.6 630.422 1480.14 631.073C1479.67 631.725 1479.42 632.43 1479.24 633.125C1479.09 634.025 1478.86 634.852 1478.99 635.713Z" fill="#A9733D"/>
<path d="M1462.4 648.959C1458.91 649.416 1457 651.235 1457.35 653.694C1457.68 655.948 1461.15 657.794 1464.37 657.375C1467.31 656.996 1469.32 654.952 1469.06 652.606C1468.75 649.974 1466.03 648.481 1462.4 648.959Z" fill="#A9733D"/>
<path d="M1490.78 658.987C1486.67 664.475 1481.48 669.342 1475.99 665.227C1470.51 661.113 1469.39 653.328 1473.51 647.84C1477.62 642.352 1485.41 641.239 1490.89 645.353C1496.38 649.468 1494.89 653.499 1490.78 658.987Z" fill="#A9733D"/>
<path d="M1406.31 665.207C1406.11 665.196 1405.85 665.233 1405.65 665.261C1404.15 665.476 1402.73 666.278 1402.05 667.135C1401.37 667.991 1401.25 669.007 1401.52 669.929C1401.78 670.85 1402.49 671.628 1403.27 672.357C1404.03 673.046 1404.87 673.766 1406.12 674.146C1406.82 674.366 1407.64 674.489 1408.43 674.455C1411.07 674.278 1412.52 672.311 1412.86 670.905C1413.29 669.245 1412.48 667.802 1410.91 666.627C1410.31 666.153 1409.58 665.738 1408.68 665.468C1407.92 665.257 1407.1 665.173 1406.31 665.207Z" fill="#A9733D"/>
<path d="M1419.77 661.483C1419.42 659.935 1418.48 658.471 1417.1 657.229C1416.64 656.815 1416.12 656.45 1415.3 656.327C1414.22 656.202 1412.95 656.663 1412.24 657.285C1410.7 658.624 1410.54 660.804 1410.75 662.214C1410.93 663.947 1411.88 665.489 1413.47 666.781C1415.42 668.34 1418.15 667.869 1419.25 665.754C1419.98 664.331 1420.1 662.835 1419.77 661.483Z" fill="#A9733D"/>
<path d="M1422.33 663.994C1422.35 664.151 1422.37 664.268 1422.39 664.425C1422.66 665.385 1423.26 666.299 1423.98 667.155C1424.3 667.509 1424.68 667.854 1425.19 668.102C1426.33 668.618 1428.09 668.366 1429.05 667.59C1430.13 666.756 1430.5 665.663 1430.83 664.658C1431.27 663.076 1431.04 661.47 1430.17 660.076C1429.58 659.201 1428.73 658.364 1427.33 657.924C1427.05 657.844 1426.77 657.764 1426.51 657.762C1426.17 657.769 1425.92 657.846 1425.6 657.971C1424.59 658.316 1423.88 658.938 1423.43 659.561C1422.99 660.184 1422.75 660.857 1422.58 661.521C1422.43 662.381 1422.21 663.172 1422.33 663.994Z" fill="#A9733D"/>
<path d="M1406.48 676.653C1403.14 677.091 1401.32 678.829 1401.66 681.179C1401.97 683.333 1405.29 685.097 1408.36 684.697C1411.18 684.334 1413.1 682.381 1412.84 680.139C1412.55 677.623 1409.95 676.197 1406.48 676.653Z" fill="#A9733D"/>
<path d="M1433.6 686.237C1429.67 691.481 1424.72 696.133 1419.47 692.201C1414.23 688.268 1413.16 680.829 1417.1 675.584C1421.03 670.339 1428.47 669.276 1433.71 673.208C1438.96 677.14 1437.54 680.992 1433.6 686.237Z" fill="#A9733D"/>
<path d="M1338.09 622.833C1337.91 622.822 1337.66 622.857 1337.48 622.883C1336.07 623.085 1334.74 623.837 1334.1 624.64C1333.47 625.443 1333.35 626.397 1333.6 627.261C1333.85 628.125 1334.52 628.854 1335.24 629.538C1335.96 630.185 1336.74 630.86 1337.92 631.216C1338.57 631.422 1339.34 631.538 1340.09 631.506C1342.56 631.339 1343.92 629.495 1344.24 628.176C1344.64 626.619 1343.88 625.266 1342.41 624.164C1341.85 623.72 1341.17 623.33 1340.32 623.077C1339.6 622.879 1338.84 622.801 1338.09 622.833Z" fill="#A9733D"/>
<path d="M1350.72 619.34C1350.39 617.889 1349.51 616.516 1348.21 615.351C1347.78 614.963 1347.3 614.62 1346.53 614.505C1345.51 614.388 1344.33 614.82 1343.66 615.403C1342.21 616.659 1342.07 618.704 1342.26 620.026C1342.43 621.651 1343.32 623.098 1344.81 624.309C1346.64 625.771 1349.2 625.33 1350.23 623.346C1350.92 622.011 1351.03 620.608 1350.72 619.34Z" fill="#A9733D"/>
<path d="M1353.12 621.696C1353.14 621.843 1353.16 621.953 1353.18 622.1C1353.43 623.001 1353.99 623.858 1354.67 624.66C1354.97 624.993 1355.33 625.316 1355.8 625.549C1356.87 626.033 1358.52 625.796 1359.42 625.068C1360.43 624.286 1360.78 623.261 1361.09 622.318C1361.5 620.835 1361.29 619.329 1360.47 618.021C1359.92 617.201 1359.12 616.416 1357.81 616.003C1357.55 615.928 1357.29 615.853 1357.04 615.851C1356.73 615.858 1356.49 615.93 1356.19 616.047C1355.24 616.371 1354.57 616.954 1354.15 617.538C1353.74 618.122 1353.51 618.754 1353.35 619.377C1353.22 620.183 1353.01 620.925 1353.12 621.696Z" fill="#A9733D"/>
<path d="M1338.25 633.567C1335.12 633.977 1333.42 635.608 1333.74 637.812C1334.02 639.832 1337.14 641.486 1340.02 641.111C1342.66 640.771 1344.46 638.939 1344.22 636.836C1343.95 634.477 1341.51 633.14 1338.25 633.567Z" fill="#A9733D"/>
<path d="M1363.69 642.555C1360 647.474 1355.36 651.837 1350.44 648.149C1345.52 644.461 1344.52 637.484 1348.21 632.565C1351.9 627.646 1358.88 626.648 1363.79 630.336C1368.71 634.024 1367.38 637.636 1363.69 642.555Z" fill="#A9733D"/>
<path d="M1391.21 589.486C1391.02 589.475 1390.78 589.51 1390.59 589.537C1389.18 589.738 1387.85 590.491 1387.22 591.294C1386.58 592.097 1386.47 593.05 1386.72 593.914C1386.97 594.778 1387.63 595.507 1388.35 596.191C1389.07 596.838 1389.86 597.513 1391.03 597.869C1391.69 598.076 1392.45 598.191 1393.2 598.159C1395.68 597.992 1397.04 596.149 1397.35 594.83C1397.75 593.273 1397 591.919 1395.53 590.818C1394.96 590.373 1394.28 589.984 1393.43 589.73C1392.72 589.533 1391.96 589.454 1391.21 589.486Z" fill="#A9733D"/>
<path d="M1403.84 585.993C1403.51 584.541 1402.62 583.168 1401.33 582.004C1400.9 581.615 1400.41 581.273 1399.65 581.157C1398.63 581.04 1397.44 581.473 1396.77 582.055C1395.33 583.312 1395.18 585.356 1395.37 586.679C1395.54 588.304 1396.44 589.75 1397.92 590.962C1399.76 592.424 1402.32 591.982 1403.35 589.998C1404.03 588.664 1404.14 587.261 1403.84 585.993Z" fill="#A9733D"/>
<path d="M1406.24 588.349C1406.26 588.496 1406.27 588.606 1406.29 588.753C1406.55 589.654 1407.11 590.51 1407.79 591.313C1408.08 591.645 1408.44 591.969 1408.91 592.201C1409.98 592.686 1411.64 592.449 1412.53 591.721C1413.55 590.939 1413.9 589.914 1414.2 588.971C1414.62 587.488 1414.4 585.982 1413.59 584.674C1413.03 583.854 1412.23 583.068 1410.92 582.656C1410.66 582.581 1410.4 582.506 1410.15 582.504C1409.84 582.511 1409.6 582.583 1409.31 582.7C1408.35 583.024 1407.68 583.607 1407.27 584.191C1406.85 584.775 1406.63 585.407 1406.47 586.029C1406.33 586.836 1406.13 587.577 1406.24 588.349Z" fill="#A9733D"/>
<path d="M1391.37 600.22C1388.24 600.63 1386.53 602.26 1386.85 604.464C1387.14 606.484 1390.25 608.138 1393.14 607.763C1395.77 607.423 1397.58 605.591 1397.34 603.489C1397.06 601.13 1394.62 599.792 1391.37 600.22Z" fill="#A9733D"/>
<path d="M1416.81 609.208C1413.12 614.127 1408.47 618.489 1403.55 614.801C1398.64 611.113 1397.64 604.136 1401.33 599.218C1405.01 594.299 1411.99 593.301 1416.91 596.989C1421.83 600.677 1420.49 604.289 1416.81 609.208Z" fill="#A9733D"/>
<path d="M1311.87 563.222C1311.71 563.213 1311.49 563.243 1311.33 563.267C1310.09 563.444 1308.92 564.106 1308.36 564.813C1307.8 565.519 1307.7 566.358 1307.92 567.119C1308.14 567.879 1308.72 568.521 1309.36 569.122C1309.99 569.692 1310.68 570.286 1311.72 570.599C1312.29 570.781 1312.97 570.882 1313.62 570.855C1315.8 570.708 1317 569.085 1317.28 567.924C1317.63 566.554 1316.97 565.363 1315.67 564.394C1315.18 564.003 1314.58 563.66 1313.83 563.437C1313.2 563.263 1312.53 563.194 1311.87 563.222Z" fill="#A9733D"/>
<path d="M1322.99 560.149C1322.69 558.872 1321.92 557.663 1320.78 556.639C1320.4 556.297 1319.97 555.995 1319.3 555.894C1318.4 555.791 1317.36 556.172 1316.77 556.684C1315.5 557.79 1315.37 559.589 1315.54 560.753C1315.68 562.183 1316.47 563.456 1317.78 564.522C1319.39 565.808 1321.65 565.42 1322.55 563.674C1323.16 562.5 1323.26 561.265 1322.99 560.149Z" fill="#A9733D"/>
<path d="M1325.1 562.221C1325.12 562.351 1325.13 562.447 1325.15 562.577C1325.37 563.369 1325.86 564.124 1326.46 564.83C1326.72 565.122 1327.04 565.407 1327.45 565.612C1328.39 566.038 1329.85 565.83 1330.64 565.189C1331.53 564.501 1331.84 563.599 1332.11 562.769C1332.47 561.464 1332.28 560.138 1331.57 558.987C1331.08 558.265 1330.37 557.574 1329.22 557.211C1328.99 557.145 1328.76 557.079 1328.54 557.078C1328.27 557.084 1328.06 557.147 1327.8 557.25C1326.96 557.535 1326.37 558.048 1326 558.562C1325.64 559.076 1325.44 559.632 1325.3 560.18C1325.18 560.89 1325 561.542 1325.1 562.221Z" fill="#A9733D"/>
<path d="M1312.01 572.669C1309.26 573.03 1307.76 574.465 1308.04 576.404C1308.29 578.182 1311.03 579.638 1313.57 579.308C1315.89 579.008 1317.48 577.396 1317.27 575.546C1317.02 573.47 1314.88 572.293 1312.01 572.669Z" fill="#A9733D"/>
<path d="M1334.4 580.578C1331.15 584.907 1327.06 588.746 1322.74 585.5C1318.41 582.255 1317.53 576.115 1320.77 571.786C1324.02 567.458 1330.16 566.58 1334.49 569.825C1338.82 573.071 1337.64 576.249 1334.4 580.578Z" fill="#A9733D"/>
<path d="M1253.53 549.651C1253.41 549.644 1253.24 549.668 1253.11 549.686C1252.16 549.823 1251.25 550.334 1250.82 550.88C1250.39 551.426 1250.31 552.074 1250.48 552.661C1250.65 553.248 1251.1 553.744 1251.59 554.209C1252.08 554.648 1252.62 555.107 1253.41 555.35C1253.86 555.49 1254.38 555.568 1254.89 555.547C1256.57 555.433 1257.5 554.18 1257.71 553.283C1257.98 552.225 1257.47 551.305 1256.47 550.557C1256.09 550.255 1255.62 549.99 1255.05 549.817C1254.56 549.683 1254.04 549.63 1253.53 549.651Z" fill="#A9733D"/>
<path d="M1262.12 547.277C1261.89 546.29 1261.29 545.357 1260.41 544.566C1260.12 544.302 1259.79 544.069 1259.27 543.991C1258.58 543.911 1257.77 544.205 1257.32 544.601C1256.33 545.455 1256.23 546.845 1256.36 547.743C1256.48 548.848 1257.09 549.831 1258.1 550.654C1259.34 551.648 1261.08 551.348 1261.78 550C1262.25 549.092 1262.33 548.139 1262.12 547.277Z" fill="#A9733D"/>
<path d="M1263.75 548.879C1263.76 548.978 1263.77 549.053 1263.79 549.153C1263.96 549.765 1264.34 550.348 1264.8 550.893C1265 551.119 1265.25 551.339 1265.57 551.497C1266.29 551.826 1267.42 551.665 1268.03 551.171C1268.72 550.639 1268.96 549.942 1269.16 549.302C1269.44 548.293 1269.3 547.27 1268.74 546.381C1268.37 545.823 1267.82 545.29 1266.93 545.009C1266.76 544.958 1266.58 544.907 1266.41 544.906C1266.2 544.911 1266.03 544.96 1265.83 545.039C1265.18 545.259 1264.73 545.655 1264.45 546.052C1264.17 546.45 1264.01 546.879 1263.9 547.302C1263.81 547.85 1263.67 548.354 1263.75 548.879Z" fill="#A9733D"/>
<path d="M1253.64 556.947C1251.52 557.225 1250.36 558.334 1250.57 559.832C1250.77 561.205 1252.88 562.329 1254.84 562.074C1256.64 561.843 1257.86 560.598 1257.7 559.169C1257.51 557.565 1255.85 556.656 1253.64 556.947Z" fill="#A9733D"/>
<path d="M1270.93 563.056C1268.43 566.399 1265.27 569.364 1261.92 566.857C1258.58 564.351 1257.9 559.609 1260.41 556.265C1262.92 552.922 1267.66 552.244 1271 554.751C1274.34 557.257 1273.44 559.712 1270.93 563.056Z" fill="#A9733D"/>
<path d="M1284.43 591.536C1284.28 591.528 1284.08 591.556 1283.93 591.578C1282.78 591.742 1281.7 592.356 1281.18 593.01C1280.66 593.665 1280.57 594.442 1280.77 595.147C1280.97 595.851 1281.52 596.446 1282.11 597.003C1282.69 597.531 1283.33 598.081 1284.29 598.372C1284.82 598.54 1285.45 598.634 1286.06 598.608C1288.08 598.472 1289.19 596.969 1289.44 595.893C1289.77 594.624 1289.15 593.52 1287.95 592.622C1287.49 592.26 1286.94 591.942 1286.25 591.735C1285.66 591.574 1285.04 591.51 1284.43 591.536Z" fill="#A9733D"/>
<path d="M1294.73 588.689C1294.46 587.506 1293.74 586.386 1292.69 585.437C1292.33 585.12 1291.94 584.841 1291.31 584.747C1290.48 584.651 1289.51 585.004 1288.97 585.479C1287.79 586.503 1287.67 588.17 1287.83 589.249C1287.97 590.574 1288.7 591.753 1289.91 592.741C1291.4 593.933 1293.49 593.573 1294.33 591.955C1294.89 590.867 1294.98 589.723 1294.73 588.689Z" fill="#A9733D"/>
<path d="M1296.69 590.61C1296.7 590.729 1296.72 590.819 1296.73 590.939C1296.94 591.673 1297.4 592.372 1297.95 593.027C1298.19 593.298 1298.48 593.561 1298.87 593.751C1299.74 594.146 1301.09 593.953 1301.82 593.359C1302.65 592.722 1302.93 591.886 1303.18 591.117C1303.52 589.908 1303.34 588.68 1302.68 587.613C1302.23 586.944 1301.58 586.304 1300.51 585.968C1300.3 585.906 1300.08 585.845 1299.88 585.844C1299.63 585.85 1299.43 585.908 1299.19 586.004C1298.41 586.268 1297.87 586.743 1297.53 587.219C1297.19 587.696 1297.01 588.211 1296.87 588.718C1296.76 589.376 1296.6 589.981 1296.69 590.61Z" fill="#A9733D"/>
<path d="M1284.56 600.289C1282.01 600.624 1280.62 601.953 1280.88 603.75C1281.11 605.398 1283.65 606.746 1286 606.44C1288.16 606.163 1289.63 604.669 1289.43 602.955C1289.21 601.031 1287.22 599.941 1284.56 600.289Z" fill="#A9733D"/>
<path d="M1305.31 607.618C1302.3 611.629 1298.51 615.186 1294.5 612.179C1290.49 609.172 1289.68 603.483 1292.68 599.472C1295.69 595.461 1301.38 594.648 1305.39 597.655C1309.4 600.662 1308.31 603.607 1305.31 607.618Z" fill="#A9733D"/>
<path d="M1230.31 572.304C1230.2 572.298 1230.06 572.318 1229.96 572.333C1229.16 572.448 1228.4 572.877 1228.03 573.336C1227.67 573.794 1227.61 574.338 1227.75 574.831C1227.89 575.324 1228.27 575.74 1228.68 576.13C1229.09 576.5 1229.54 576.885 1230.21 577.088C1230.58 577.206 1231.02 577.272 1231.45 577.254C1232.86 577.158 1233.64 576.106 1233.82 575.353C1234.05 574.465 1233.61 573.692 1232.78 573.064C1232.45 572.81 1232.07 572.588 1231.58 572.443C1231.17 572.331 1230.74 572.286 1230.31 572.304Z" fill="#A9733D"/>
<path d="M1237.52 570.31C1237.33 569.482 1236.82 568.698 1236.09 568.034C1235.84 567.812 1235.56 567.617 1235.13 567.551C1234.55 567.484 1233.87 567.731 1233.49 568.063C1232.66 568.78 1232.58 569.947 1232.69 570.702C1232.78 571.629 1233.29 572.455 1234.14 573.146C1235.19 573.98 1236.65 573.728 1237.24 572.596C1237.63 571.835 1237.69 571.034 1237.52 570.31Z" fill="#A9733D"/>
<path d="M1238.89 571.655C1238.9 571.739 1238.91 571.802 1238.92 571.885C1239.07 572.399 1239.38 572.889 1239.77 573.347C1239.94 573.536 1240.15 573.721 1240.41 573.854C1241.03 574.13 1241.97 573.995 1242.48 573.579C1243.06 573.133 1243.26 572.548 1243.43 572.01C1243.67 571.164 1243.55 570.304 1243.08 569.558C1242.77 569.09 1242.31 568.641 1241.56 568.406C1241.41 568.363 1241.26 568.32 1241.12 568.319C1240.94 568.323 1240.81 568.364 1240.64 568.431C1240.09 568.616 1239.71 568.949 1239.48 569.282C1239.24 569.615 1239.11 569.976 1239.02 570.331C1238.94 570.791 1238.82 571.215 1238.89 571.655Z" fill="#A9733D"/>
<path d="M1230.4 578.43C1228.62 578.664 1227.64 579.595 1227.82 580.852C1227.99 582.005 1229.76 582.949 1231.41 582.735C1232.92 582.541 1233.94 581.496 1233.81 580.296C1233.65 578.949 1232.26 578.186 1230.4 578.43Z" fill="#A9733D"/>
<path d="M1244.92 583.559C1242.82 586.366 1240.16 588.856 1237.36 586.751C1234.55 584.647 1233.98 580.665 1236.09 577.858C1238.19 575.051 1242.17 574.482 1244.98 576.586C1247.79 578.691 1247.02 580.752 1244.92 583.559Z" fill="#A9733D"/>
</g>
<g opacity="0.2">
<path d="M39.0683 1093.27C39.2677 1093.24 39.5318 1093.25 39.7298 1093.26C41.2481 1093.31 42.746 1093.95 43.5124 1094.73C44.2788 1095.51 44.5089 1096.51 44.3444 1097.46C44.1798 1098.4 43.5559 1099.25 42.8673 1100.06C42.1801 1100.83 41.4255 1101.64 40.2183 1102.15C39.5473 1102.44 38.7471 1102.65 37.9522 1102.71C35.3049 1102.81 33.6483 1101.01 33.1663 1099.65C32.5604 1098.04 33.2073 1096.52 34.641 1095.18C35.1881 1094.65 35.8659 1094.15 36.7376 1093.79C37.4745 1093.5 38.2735 1093.33 39.0683 1093.27Z" fill="#A9733D"/>
<path d="M25.2669 1091.02C25.4532 1089.44 26.2335 1087.88 27.4705 1086.5C27.8829 1086.03 28.3599 1085.62 29.1601 1085.4C30.2258 1085.16 31.5366 1085.49 32.3111 1086.03C33.9894 1087.2 34.3783 1089.35 34.3295 1090.77C34.3359 1092.52 33.5528 1094.15 32.1151 1095.61C30.3364 1097.37 27.5666 1097.2 26.2468 1095.21C25.3673 1093.87 25.0874 1092.4 25.2669 1091.02Z" fill="#A9733D"/>
<path d="M22.9905 1093.79C22.9851 1093.95 22.9811 1094.07 22.9756 1094.23C22.8097 1095.21 22.3138 1096.19 21.6871 1097.12C21.4095 1097.5 21.0659 1097.89 20.593 1098.19C19.5137 1098.83 17.7314 1098.76 16.6969 1098.1C15.5317 1097.38 15.0389 1096.33 14.6093 1095.37C14.0007 1093.84 14.0563 1092.22 14.7679 1090.74C15.2625 1089.8 16.0212 1088.88 17.3631 1088.29C17.6313 1088.18 17.8994 1088.07 18.1648 1088.04C18.4962 1088.01 18.7589 1088.06 19.0862 1088.15C20.1356 1088.39 20.9102 1088.93 21.4193 1089.5C21.9284 1090.07 22.2368 1090.72 22.4791 1091.36C22.7147 1092.2 23.019 1092.96 22.9905 1093.79Z" fill="#A9733D"/>
<path d="M8.84776 1043.66C9.05047 1043.68 9.30315 1043.77 9.49266 1043.84C10.9455 1044.35 12.2004 1045.42 12.7075 1046.4C13.2146 1047.39 13.1371 1048.42 12.6939 1049.29C12.2506 1050.15 11.3915 1050.79 10.4825 1051.36C9.58673 1051.9 8.61455 1052.45 7.29263 1052.59C6.55529 1052.67 5.71802 1052.63 4.93358 1052.44C2.34079 1051.75 1.27944 1049.51 1.22308 1048.05C1.11962 1046.31 2.20316 1045.04 3.99191 1044.17C4.68214 1043.82 5.4855 1043.55 6.43876 1043.45C7.23926 1043.39 8.06332 1043.47 8.84776 1043.66Z" fill="#A9733D"/>
<path d="M-3.82356 1037.33C-3.16899 1035.86 -1.94591 1034.58 -0.333464 1033.62C0.204019 1033.29 0.791465 1033.03 1.62873 1033.07C2.73187 1033.15 3.90282 1033.86 4.48918 1034.62C5.76182 1036.25 5.49089 1038.45 5.01549 1039.81C4.49761 1041.5 3.24812 1042.85 1.41975 1043.83C-0.830105 1045 -3.4568 1044 -4.13628 1041.68C-4.58486 1040.12 -4.41209 1038.61 -3.82356 1037.33Z" fill="#A9733D"/>
<path d="M6.44779 1055.01C9.68262 1056.1 11.1523 1058.18 10.3599 1060.45C9.63361 1062.54 5.98832 1063.65 3.00616 1062.65C0.276683 1061.74 -1.25326 1059.42 -0.563709 1057.24C0.218283 1054.79 3.08662 1053.88 6.44779 1055.01Z" fill="#A9733D"/>
<path d="M-22.4068 1059.26C-19.5167 1065.24 -15.4939 1070.84 -9.50965 1067.95C-3.52538 1065.06 -1.01705 1057.86 -3.90715 1051.88C-6.79725 1045.89 -13.9914 1043.38 -19.9756 1046.28C-25.9599 1049.17 -25.2969 1053.27 -22.4068 1059.26Z" fill="#A9733D"/>
<path d="M70.3551 1052.99C70.5451 1053.01 70.7819 1053.09 70.9595 1053.16C72.3212 1053.63 73.4973 1054.64 73.9726 1055.56C74.4478 1056.48 74.3752 1057.45 73.9598 1058.26C73.5443 1059.07 72.7392 1059.67 71.8873 1060.21C71.0477 1060.71 70.1365 1061.23 68.8976 1061.36C68.2065 1061.43 67.4218 1061.4 66.6866 1061.22C64.2566 1060.57 63.2619 1058.48 63.209 1057.1C63.1121 1055.48 64.1276 1054.28 65.8041 1053.47C66.451 1053.14 67.2039 1052.88 68.0973 1052.8C68.8476 1052.74 69.6199 1052.81 70.3551 1052.99Z" fill="#A9733D"/>
<path d="M58.4794 1047.05C59.0929 1045.67 60.2392 1044.48 61.7504 1043.58C62.2542 1043.27 62.8048 1043.03 63.5895 1043.06C64.6234 1043.14 65.7208 1043.81 66.2704 1044.51C67.4631 1046.05 67.2092 1048.11 66.7636 1049.38C66.2783 1050.97 65.1072 1052.23 63.3936 1053.15C61.285 1054.24 58.8232 1053.3 58.1863 1051.13C57.7659 1049.67 57.9278 1048.25 58.4794 1047.05Z" fill="#A9733D"/>
<path d="M55.6345 1048.93C55.585 1049.07 55.5479 1049.18 55.4984 1049.32C55.0706 1050.17 54.3467 1050.91 53.5168 1051.57C53.1563 1051.85 52.7365 1052.1 52.223 1052.24C51.0654 1052.51 49.4669 1051.95 48.7176 1051.06C47.8624 1050.08 47.7105 1048.99 47.5931 1048C47.4714 1046.44 47.9789 1044.98 49.0412 1043.84C49.7527 1043.13 50.701 1042.51 52.0831 1042.35C52.357 1042.33 52.631 1042.31 52.8801 1042.35C53.1885 1042.42 53.413 1042.54 53.6843 1042.71C54.5696 1043.22 55.1192 1043.93 55.4195 1044.59C55.7199 1045.26 55.8179 1045.93 55.8567 1046.58C55.8336 1047.41 55.8944 1048.18 55.6345 1048.93Z" fill="#A9733D"/>
<path d="M68.106 1063.63C71.1378 1064.65 72.5152 1066.6 71.7726 1068.73C71.0919 1070.68 67.6754 1071.72 64.8804 1070.79C62.3223 1069.93 60.8884 1067.76 61.5346 1065.72C62.2676 1063.42 64.9558 1062.57 68.106 1063.63Z" fill="#A9733D"/>
<path d="M41.0629 1067.61C43.7716 1073.22 47.5419 1078.46 53.1505 1075.75C58.7591 1073.04 61.11 1066.3 58.4013 1060.69C55.6927 1055.08 48.9501 1052.73 43.3415 1055.44C37.7328 1058.15 38.3542 1062 41.0629 1067.61Z" fill="#A9733D"/>
<path d="M76.1383 966.385C76.3016 966.376 76.5133 966.406 76.6721 966.429C77.8895 966.603 79.0387 967.253 79.5876 967.947C80.1366 968.641 80.2348 969.465 80.0201 970.211C79.8053 970.958 79.2291 971.588 78.6045 972.179C77.9845 972.738 77.307 973.321 76.2908 973.629C75.7252 973.807 75.0628 973.907 74.4186 973.879C72.2788 973.735 71.1023 972.142 70.8332 971.003C70.4854 969.657 71.1388 968.488 72.4091 967.536C72.896 967.152 73.4843 966.815 74.2177 966.596C74.8363 966.426 75.4941 966.358 76.1383 966.385Z" fill="#A9733D"/>
<path d="M65.2275 963.368C65.5149 962.113 66.2786 960.927 67.3947 959.921C67.7667 959.585 68.1871 959.289 68.8495 959.19C69.7281 959.089 70.7549 959.462 71.331 959.966C72.5801 961.051 72.7055 962.818 72.5422 963.96C72.3954 965.364 71.6226 966.614 70.3387 967.661C68.7538 968.924 66.5399 968.543 65.6508 966.829C65.0596 965.675 64.9628 964.463 65.2275 963.368Z" fill="#A9733D"/>
<path d="M63.1548 965.403C63.1367 965.53 63.123 965.625 63.1049 965.752C62.8856 966.53 62.4016 967.271 61.8163 967.964C61.5592 968.251 61.2491 968.531 60.8423 968.732C59.9182 969.15 58.4889 968.946 57.7146 968.317C56.8389 967.641 56.5334 966.755 56.2718 965.941C55.9149 964.659 56.1009 963.358 56.8027 962.228C57.2822 961.519 57.9734 960.84 59.1047 960.484C59.33 960.419 59.5554 960.354 59.7716 960.353C60.0409 960.359 60.2481 960.421 60.5036 960.522C61.3279 960.802 61.9041 961.305 62.2641 961.81C62.624 962.315 62.8161 962.861 62.9552 963.399C63.0717 964.096 63.2501 964.736 63.1548 965.403Z" fill="#A9733D"/>
<path d="M76.0004 975.66C78.7043 976.014 80.1771 977.423 79.9049 979.327C79.6553 981.073 76.9665 982.502 74.4743 982.178C72.1939 981.884 70.6378 980.301 70.8436 978.485C71.0811 976.446 73.1907 975.29 76.0004 975.66Z" fill="#A9733D"/>
<path d="M54.0219 983.425C57.2081 987.674 61.2226 991.444 65.4721 988.257C69.7215 985.071 70.5835 979.043 67.3973 974.793C64.2111 970.543 58.1833 969.681 53.9339 972.868C49.6844 976.054 50.8357 979.175 54.0219 983.425Z" fill="#A9733D"/>
<path d="M93.2137 1010.64C93.3771 1010.64 93.5888 1010.67 93.7476 1010.69C94.9649 1010.86 96.1142 1011.51 96.6631 1012.21C97.212 1012.9 97.3103 1013.72 97.0955 1014.47C96.8807 1015.22 96.3045 1015.85 95.68 1016.44C95.0599 1017 94.3824 1017.58 93.3662 1017.89C92.8006 1018.07 92.1382 1018.17 91.494 1018.14C89.3542 1017.99 88.1778 1016.4 87.9086 1015.26C87.5609 1013.92 88.2142 1012.75 89.4845 1011.79C89.9715 1011.41 90.5597 1011.07 91.2932 1010.86C91.9117 1010.68 92.5695 1010.62 93.2137 1010.64Z" fill="#A9733D"/>
<path d="M82.3027 1007.63C82.5901 1006.37 83.3538 1005.19 84.4699 1004.18C84.8419 1003.84 85.2623 1003.55 85.9247 1003.45C86.8033 1003.35 87.8301 1003.72 88.4062 1004.22C89.6553 1005.31 89.7807 1007.08 89.6174 1008.22C89.4706 1009.62 88.6978 1010.87 87.4139 1011.92C85.829 1013.18 83.6151 1012.8 82.726 1011.09C82.1348 1009.93 82.038 1008.72 82.3027 1007.63Z" fill="#A9733D"/>
<path d="M80.2302 1009.66C80.2121 1009.79 80.1985 1009.88 80.1803 1010.01C79.961 1010.79 79.477 1011.53 78.8917 1012.22C78.6346 1012.51 78.3245 1012.79 77.9177 1012.99C76.9936 1013.41 75.5644 1013.21 74.79 1012.58C73.9144 1011.9 73.6089 1011.02 73.3472 1010.2C72.9903 1008.92 73.1764 1007.62 73.8782 1006.49C74.3576 1005.78 75.0488 1005.1 76.1801 1004.74C76.4055 1004.68 76.6308 1004.61 76.8471 1004.61C77.1163 1004.62 77.3235 1004.68 77.5791 1004.78C78.4033 1005.06 78.9796 1005.57 79.3395 1006.07C79.6995 1006.57 79.8915 1007.12 80.0306 1007.66C80.1471 1008.36 80.3255 1009 80.2302 1009.66Z" fill="#A9733D"/>
<path d="M93.0756 1019.92C95.7795 1020.27 97.2523 1021.68 96.9801 1023.59C96.7305 1025.33 94.0417 1026.76 91.5495 1026.44C89.2691 1026.14 87.713 1024.56 87.9188 1022.74C88.1563 1020.71 90.2659 1019.55 93.0756 1019.92Z" fill="#A9733D"/>
<path d="M71.0976 1027.68C74.2838 1031.93 78.2983 1035.7 82.5477 1032.52C86.7972 1029.33 87.6591 1023.3 84.473 1019.05C81.2868 1014.8 75.259 1013.94 71.0095 1017.13C66.7601 1020.31 67.9114 1023.43 71.0976 1027.68Z" fill="#A9733D"/>
<path d="M39.7936 1000.53C39.9569 1000.52 40.1686 1000.55 40.3274 1000.57C41.5447 1000.75 42.694 1001.4 43.2429 1002.09C43.7918 1002.78 43.8901 1003.61 43.6753 1004.35C43.4606 1005.1 42.8844 1005.73 42.2598 1006.32C41.6398 1006.88 40.9623 1007.46 39.946 1007.77C39.3804 1007.95 38.7181 1008.05 38.0739 1008.02C35.9341 1007.88 34.7576 1006.28 34.4885 1005.14C34.1407 1003.8 34.794 1002.63 36.0644 1001.68C36.5513 1001.29 37.1396 1000.96 37.873 1000.74C38.4915 1000.57 39.1494 1000.5 39.7936 1000.53Z" fill="#A9733D"/>
<path d="M28.883 997.51C29.1704 996.255 29.9341 995.069 31.0502 994.063C31.4222 993.727 31.8426 993.431 32.505 993.332C33.3836 993.231 34.4104 993.604 34.9865 994.108C36.2356 995.193 36.3611 996.96 36.1977 998.102C36.0509 999.506 35.2782 1000.76 33.9942 1001.8C32.4094 1003.07 30.1955 1002.68 29.3063 1000.97C28.7151 999.817 28.6183 998.605 28.883 997.51Z" fill="#A9733D"/>
<path d="M26.8103 999.545C26.7922 999.672 26.7786 999.767 26.7604 999.894C26.5411 1000.67 26.0571 1001.41 25.4718 1002.11C25.2147 1002.39 24.9046 1002.67 24.4978 1002.87C23.5737 1003.29 22.1445 1003.09 21.3701 1002.46C20.4944 1001.78 20.1889 1000.9 19.9273 1000.08C19.5704 998.801 19.7565 997.5 20.4582 996.37C20.9377 995.661 21.6289 994.983 22.7602 994.626C22.9855 994.561 23.2109 994.496 23.4272 994.495C23.6964 994.501 23.9036 994.563 24.1592 994.664C24.9834 994.944 25.5596 995.448 25.9196 995.953C26.2795 996.457 26.4716 997.003 26.6107 997.541C26.7272 998.238 26.9056 998.879 26.8103 999.545Z" fill="#A9733D"/>
<path d="M39.6559 1009.8C42.3598 1010.16 43.8326 1011.56 43.5604 1013.47C43.3108 1015.21 40.622 1016.64 38.1298 1016.32C35.8494 1016.03 34.2934 1014.44 34.4991 1012.63C34.7366 1010.59 36.8462 1009.43 39.6559 1009.8Z" fill="#A9733D"/>
<path d="M17.6774 1017.57C20.8636 1021.82 24.8781 1025.59 29.1276 1022.4C33.377 1019.21 34.239 1013.19 31.0528 1008.94C27.8666 1004.69 21.8388 1003.82 17.5894 1007.01C13.3399 1010.2 14.4912 1013.32 17.6774 1017.57Z" fill="#A9733D"/>
<path d="M126.002 972.445C126.147 972.437 126.335 972.464 126.476 972.484C127.557 972.639 128.577 973.216 129.064 973.832C129.552 974.448 129.639 975.179 129.448 975.842C129.258 976.505 128.746 977.064 128.192 977.588C127.641 978.085 127.04 978.602 126.138 978.876C125.636 979.034 125.048 979.122 124.476 979.098C122.576 978.97 121.532 977.556 121.293 976.544C120.984 975.35 121.564 974.312 122.692 973.467C123.124 973.126 123.646 972.827 124.298 972.633C124.847 972.481 125.431 972.421 126.002 972.445Z" fill="#A9733D"/>
<path d="M116.317 969.767C116.572 968.653 117.25 967.6 118.241 966.707C118.571 966.409 118.944 966.147 119.532 966.058C120.312 965.968 121.224 966.3 121.735 966.747C122.844 967.71 122.956 969.279 122.811 970.293C122.68 971.539 121.994 972.649 120.854 973.578C119.447 974.699 117.482 974.361 116.692 972.839C116.168 971.815 116.082 970.739 116.317 969.767Z" fill="#A9733D"/>
<path d="M114.477 971.574C114.461 971.686 114.449 971.771 114.433 971.884C114.238 972.574 113.808 973.232 113.289 973.847C113.06 974.102 112.785 974.35 112.424 974.529C111.604 974.9 110.335 974.719 109.647 974.16C108.87 973.561 108.599 972.774 108.367 972.051C108.05 970.913 108.215 969.758 108.838 968.755C109.264 968.126 109.877 967.524 110.881 967.207C111.082 967.15 111.282 967.092 111.474 967.091C111.713 967.096 111.896 967.151 112.123 967.241C112.855 967.489 113.367 967.936 113.686 968.384C114.006 968.833 114.176 969.317 114.3 969.795C114.403 970.413 114.561 970.982 114.477 971.574Z" fill="#A9733D"/>
<path d="M125.88 980.679C128.28 980.993 129.588 982.244 129.346 983.934C129.125 985.484 126.738 986.752 124.525 986.465C122.501 986.204 121.12 984.799 121.302 983.186C121.513 981.376 123.386 980.351 125.88 980.679Z" fill="#A9733D"/>
<path d="M106.37 987.572C109.198 991.344 112.762 994.69 116.534 991.862C120.307 989.033 121.072 983.682 118.243 979.91C115.415 976.137 110.064 975.372 106.292 978.2C102.519 981.029 103.541 983.799 106.37 987.572Z" fill="#A9733D"/>
<path d="M122.706 927.377C122.851 927.369 123.039 927.396 123.18 927.416C124.261 927.57 125.281 928.148 125.768 928.763C126.255 929.379 126.343 930.111 126.152 930.773C125.961 931.436 125.45 931.995 124.895 932.52C124.345 933.016 123.743 933.534 122.841 933.807C122.339 933.965 121.751 934.054 121.179 934.03C119.28 933.902 118.236 932.487 117.997 931.476C117.688 930.282 118.268 929.243 119.396 928.398C119.828 928.058 120.35 927.759 121.001 927.564C121.55 927.413 122.134 927.353 122.706 927.377Z" fill="#A9733D"/>
<path d="M113.021 924.698C113.276 923.585 113.954 922.532 114.945 921.639C115.275 921.341 115.648 921.078 116.236 920.99C117.016 920.9 117.928 921.231 118.439 921.678C119.548 922.642 119.66 924.21 119.515 925.224C119.385 926.471 118.698 927.58 117.559 928.51C116.152 929.631 114.186 929.292 113.397 927.771C112.872 926.747 112.786 925.671 113.021 924.698Z" fill="#A9733D"/>
<path d="M111.18 926.505C111.164 926.618 111.152 926.702 111.136 926.815C110.941 927.506 110.512 928.163 109.992 928.779C109.764 929.034 109.489 929.282 109.128 929.46C108.307 929.832 107.038 929.65 106.351 929.092C105.574 928.492 105.303 927.706 105.07 926.982C104.753 925.845 104.919 924.69 105.542 923.686C105.967 923.057 106.581 922.455 107.585 922.139C107.785 922.081 107.985 922.023 108.177 922.022C108.416 922.027 108.6 922.082 108.827 922.172C109.559 922.421 110.07 922.868 110.39 923.316C110.709 923.764 110.88 924.248 111.003 924.726C111.107 925.345 111.265 925.913 111.18 926.505Z" fill="#A9733D"/>
<path d="M122.584 935.61C124.984 935.925 126.292 937.175 126.05 938.866C125.828 940.415 123.441 941.684 121.229 941.396C119.205 941.135 117.824 939.73 118.006 938.118C118.217 936.308 120.09 935.282 122.584 935.61Z" fill="#A9733D"/>
<path d="M103.074 942.503C105.902 946.276 109.466 949.622 113.238 946.793C117.01 943.965 117.775 938.613 114.947 934.841C112.119 931.068 106.768 930.303 102.995 933.132C99.2231 935.96 100.245 938.731 103.074 942.503Z" fill="#A9733D"/>
<path d="M164.604 935.962C164.745 935.955 164.929 935.981 165.066 936.001C166.12 936.151 167.115 936.714 167.59 937.315C168.065 937.915 168.15 938.628 167.964 939.275C167.779 939.921 167.28 940.467 166.739 940.978C166.202 941.462 165.616 941.967 164.736 942.234C164.246 942.388 163.673 942.474 163.115 942.45C161.263 942.326 160.244 940.946 160.011 939.96C159.71 938.795 160.276 937.783 161.375 936.959C161.797 936.626 162.306 936.335 162.941 936.145C163.477 935.998 164.046 935.939 164.604 935.962Z" fill="#A9733D"/>
<path d="M155.159 933.351C155.407 932.265 156.069 931.238 157.035 930.367C157.357 930.076 157.721 929.82 158.294 929.734C159.055 929.646 159.944 929.97 160.443 930.405C161.525 931.345 161.633 932.875 161.492 933.864C161.365 935.079 160.696 936.161 159.584 937.067C158.212 938.161 156.295 937.831 155.525 936.347C155.013 935.348 154.929 934.299 155.159 933.351Z" fill="#A9733D"/>
<path d="M153.364 935.112C153.349 935.222 153.337 935.305 153.321 935.415C153.131 936.088 152.712 936.729 152.206 937.33C151.983 937.578 151.714 937.82 151.362 937.994C150.562 938.357 149.325 938.18 148.655 937.635C147.897 937.05 147.632 936.283 147.406 935.578C147.097 934.468 147.258 933.342 147.865 932.363C148.28 931.75 148.879 931.163 149.858 930.854C150.053 930.798 150.248 930.742 150.435 930.74C150.668 930.746 150.848 930.799 151.069 930.887C151.783 931.129 152.282 931.565 152.593 932.002C152.905 932.439 153.071 932.912 153.192 933.377C153.292 933.981 153.447 934.535 153.364 935.112Z" fill="#A9733D"/>
<path d="M164.485 943.992C166.826 944.299 168.101 945.519 167.865 947.167C167.649 948.678 165.321 949.915 163.164 949.635C161.19 949.381 159.842 948.01 160.021 946.438C160.226 944.673 162.052 943.672 164.485 943.992Z" fill="#A9733D"/>
<path d="M145.458 950.715C148.216 954.394 151.692 957.657 155.37 954.898C159.049 952.14 159.796 946.921 157.037 943.242C154.279 939.563 149.06 938.817 145.382 941.575C141.703 944.334 142.699 947.036 145.458 950.715Z" fill="#A9733D"/>
<path d="M162.41 892.845C162.543 892.838 162.717 892.862 162.847 892.881C163.844 893.024 164.785 893.556 165.235 894.124C165.684 894.693 165.765 895.367 165.589 895.979C165.413 896.59 164.941 897.106 164.429 897.59C163.922 898.048 163.367 898.526 162.534 898.778C162.071 898.924 161.529 899.005 161.001 898.983C159.249 898.865 158.285 897.56 158.065 896.627C157.78 895.525 158.315 894.567 159.355 893.788C159.754 893.473 160.236 893.197 160.837 893.018C161.343 892.878 161.882 892.823 162.41 892.845Z" fill="#A9733D"/>
<path d="M153.474 890.373C153.709 889.346 154.334 888.374 155.249 887.55C155.553 887.276 155.898 887.033 156.44 886.951C157.16 886.869 158.001 887.175 158.473 887.587C159.496 888.476 159.599 889.923 159.465 890.859C159.345 892.009 158.712 893.032 157.66 893.89C156.362 894.924 154.549 894.612 153.82 893.208C153.336 892.263 153.257 891.271 153.474 890.373Z" fill="#A9733D"/>
<path d="M151.776 892.04C151.761 892.144 151.75 892.222 151.735 892.326C151.556 892.964 151.159 893.57 150.68 894.138C150.469 894.373 150.216 894.602 149.882 894.767C149.125 895.109 147.955 894.942 147.321 894.427C146.604 893.874 146.353 893.148 146.139 892.481C145.847 891.431 145.999 890.365 146.574 889.44C146.967 888.859 147.533 888.304 148.459 888.012C148.644 887.959 148.828 887.905 149.005 887.904C149.226 887.909 149.396 887.96 149.605 888.043C150.28 888.272 150.752 888.684 151.047 889.098C151.342 889.511 151.499 889.958 151.613 890.399C151.708 890.97 151.854 891.495 151.776 892.04Z" fill="#A9733D"/>
<path d="M162.297 900.441C164.511 900.731 165.718 901.885 165.495 903.445C165.29 904.874 163.088 906.045 161.047 905.779C159.179 905.539 157.905 904.243 158.073 902.755C158.268 901.085 159.996 900.139 162.297 900.441Z" fill="#A9733D"/>
<path d="M144.296 906.801C146.906 910.281 150.194 913.369 153.674 910.759C157.155 908.149 157.861 903.212 155.251 899.732C152.642 896.251 147.705 895.545 144.224 898.155C140.744 900.764 141.687 903.32 144.296 906.801Z" fill="#A9733D"/>
<path d="M203.978 904.707C204.108 904.7 204.278 904.724 204.405 904.742C205.379 904.881 206.298 905.402 206.738 905.957C207.177 906.512 207.255 907.171 207.084 907.768C206.912 908.366 206.451 908.87 205.951 909.343C205.455 909.79 204.913 910.257 204.1 910.503C203.647 910.646 203.117 910.725 202.602 910.703C200.889 910.588 199.948 909.313 199.733 908.402C199.454 907.325 199.977 906.389 200.994 905.628C201.383 905.321 201.854 905.051 202.441 904.876C202.936 904.739 203.462 904.685 203.978 904.707Z" fill="#A9733D"/>
<path d="M195.247 902.293C195.477 901.289 196.089 900.34 196.982 899.535C197.279 899.266 197.616 899.029 198.146 898.95C198.849 898.869 199.671 899.168 200.132 899.571C201.131 900.439 201.232 901.853 201.101 902.767C200.984 903.89 200.365 904.89 199.338 905.728C198.069 906.739 196.298 906.433 195.586 905.062C195.113 904.139 195.036 903.169 195.247 902.293Z" fill="#A9733D"/>
<path d="M193.589 903.921C193.575 904.023 193.564 904.099 193.549 904.2C193.374 904.823 192.987 905.416 192.518 905.971C192.313 906.2 192.064 906.424 191.739 906.585C191 906.92 189.856 906.756 189.236 906.253C188.536 905.712 188.291 905.003 188.082 904.351C187.796 903.326 187.945 902.285 188.507 901.38C188.89 900.813 189.443 900.27 190.349 899.985C190.529 899.933 190.709 899.881 190.882 899.88C191.098 899.885 191.263 899.935 191.468 900.016C192.128 900.24 192.589 900.643 192.877 901.047C193.165 901.45 193.318 901.887 193.43 902.318C193.523 902.875 193.666 903.388 193.589 903.921Z" fill="#A9733D"/>
<path d="M203.868 912.128C206.031 912.412 207.21 913.539 206.992 915.063C206.792 916.459 204.641 917.603 202.647 917.344C200.822 917.109 199.577 915.842 199.742 914.389C199.932 912.757 201.62 911.833 203.868 912.128Z" fill="#A9733D"/>
<path d="M186.281 918.342C188.831 921.742 192.043 924.758 195.443 922.209C198.844 919.659 199.533 914.836 196.984 911.435C194.434 908.035 189.611 907.345 186.211 909.895C182.811 912.444 183.732 914.941 186.281 918.342Z" fill="#A9733D"/>
<path d="M205.416 867.48C205.53 867.474 205.677 867.495 205.788 867.511C206.638 867.633 207.44 868.086 207.823 868.57C208.206 869.054 208.274 869.629 208.124 870.15C207.975 870.671 207.572 871.111 207.137 871.523C206.704 871.913 206.231 872.32 205.522 872.535C205.127 872.659 204.665 872.729 204.216 872.709C202.722 872.609 201.901 871.497 201.714 870.702C201.471 869.764 201.927 868.947 202.813 868.283C203.153 868.016 203.564 867.78 204.075 867.628C204.507 867.509 204.966 867.461 205.416 867.48Z" fill="#A9733D"/>
<path d="M197.802 865.375C198.002 864.499 198.535 863.672 199.314 862.97C199.574 862.736 199.867 862.529 200.329 862.459C200.943 862.389 201.659 862.65 202.061 863.001C202.933 863.758 203.02 864.991 202.906 865.788C202.804 866.768 202.265 867.64 201.369 868.37C200.263 869.252 198.718 868.985 198.097 867.789C197.685 866.985 197.617 866.139 197.802 865.375Z" fill="#A9733D"/>
<path d="M196.356 866.795C196.343 866.883 196.334 866.95 196.321 867.038C196.168 867.581 195.83 868.098 195.422 868.582C195.243 868.782 195.026 868.977 194.742 869.117C194.098 869.409 193.1 869.267 192.56 868.828C191.949 868.356 191.736 867.738 191.553 867.17C191.304 866.276 191.434 865.368 191.924 864.579C192.258 864.085 192.741 863.611 193.53 863.363C193.687 863.317 193.844 863.272 193.995 863.271C194.183 863.275 194.328 863.318 194.506 863.389C195.081 863.584 195.483 863.936 195.734 864.288C195.986 864.64 196.12 865.021 196.217 865.396C196.298 865.882 196.422 866.33 196.356 866.795Z" fill="#A9733D"/>
<path d="M205.319 873.952C207.206 874.199 208.234 875.182 208.044 876.511C207.87 877.729 205.993 878.726 204.254 878.5C202.663 878.295 201.577 877.19 201.721 875.923C201.886 874.5 203.358 873.694 205.319 873.952Z" fill="#A9733D"/>
<path d="M189.983 879.37C192.206 882.336 195.008 884.966 197.973 882.742C200.938 880.519 201.54 876.313 199.316 873.347C197.093 870.382 192.887 869.78 189.922 872.004C186.957 874.227 187.76 876.405 189.983 879.37Z" fill="#A9733D"/>
<path d="M235.625 882.732C235.734 882.726 235.875 882.746 235.981 882.761C236.793 882.877 237.56 883.311 237.926 883.773C238.292 884.236 238.357 884.785 238.214 885.283C238.071 885.781 237.687 886.201 237.27 886.595C236.857 886.968 236.405 887.357 235.727 887.562C235.35 887.681 234.908 887.747 234.479 887.729C233.052 887.633 232.267 886.57 232.087 885.811C231.856 884.914 232.291 884.134 233.138 883.499C233.463 883.243 233.855 883.018 234.345 882.872C234.757 882.759 235.196 882.713 235.625 882.732Z" fill="#A9733D"/>
<path d="M228.35 880.719C228.541 879.883 229.051 879.092 229.795 878.421C230.043 878.197 230.323 878 230.765 877.933C231.351 877.866 232.036 878.115 232.42 878.451C233.253 879.175 233.337 880.353 233.228 881.115C233.13 882.051 232.615 882.884 231.758 883.582C230.701 884.424 229.225 884.17 228.632 883.027C228.238 882.258 228.173 881.45 228.35 880.719Z" fill="#A9733D"/>
<path d="M226.968 882.076C226.956 882.161 226.947 882.224 226.935 882.309C226.788 882.828 226.466 883.322 226.075 883.784C225.904 883.976 225.697 884.162 225.426 884.296C224.81 884.575 223.857 884.439 223.34 884.019C222.756 883.569 222.553 882.978 222.378 882.435C222.14 881.58 222.264 880.712 222.732 879.959C223.052 879.486 223.513 879.034 224.267 878.796C224.417 878.753 224.568 878.71 224.712 878.709C224.891 878.713 225.03 878.754 225.2 878.822C225.75 879.008 226.134 879.344 226.374 879.681C226.614 880.017 226.742 880.381 226.835 880.74C226.912 881.204 227.031 881.632 226.968 882.076Z" fill="#A9733D"/>
<path d="M235.534 888.916C237.337 889.153 238.319 890.092 238.138 891.362C237.971 892.526 236.178 893.479 234.516 893.263C232.995 893.067 231.957 892.011 232.095 890.8C232.253 889.441 233.66 888.67 235.534 888.916Z" fill="#A9733D"/>
<path d="M220.878 894.095C223.002 896.929 225.679 899.442 228.513 897.317C231.347 895.193 231.922 891.173 229.797 888.339C227.672 885.505 223.653 884.93 220.819 887.055C217.985 889.18 218.753 891.261 220.878 894.095Z" fill="#A9733D"/>
<path d="M272.484 859.835C272.586 859.829 272.718 859.848 272.818 859.863C273.579 859.971 274.298 860.378 274.641 860.812C274.985 861.246 275.046 861.761 274.912 862.228C274.777 862.695 274.417 863.089 274.026 863.458C273.639 863.808 273.215 864.172 272.579 864.365C272.226 864.476 271.811 864.539 271.408 864.522C270.07 864.431 269.334 863.435 269.166 862.722C268.948 861.881 269.357 861.15 270.152 860.555C270.456 860.315 270.824 860.104 271.283 859.967C271.67 859.86 272.081 859.818 272.484 859.835Z" fill="#A9733D"/>
<path d="M265.66 857.948C265.84 857.164 266.318 856.422 267.016 855.793C267.248 855.583 267.511 855.398 267.926 855.335C268.475 855.272 269.117 855.506 269.478 855.821C270.259 856.499 270.337 857.604 270.235 858.319C270.143 859.197 269.66 859.978 268.857 860.633C267.866 861.423 266.481 861.184 265.925 860.112C265.555 859.391 265.495 858.633 265.66 857.948Z" fill="#A9733D"/>
<path d="M264.365 859.221C264.353 859.3 264.345 859.36 264.333 859.439C264.196 859.926 263.894 860.389 263.528 860.823C263.367 861.002 263.173 861.177 262.918 861.303C262.341 861.564 261.447 861.436 260.963 861.043C260.415 860.621 260.224 860.067 260.06 859.557C259.837 858.756 259.953 857.942 260.392 857.235C260.692 856.792 261.124 856.368 261.832 856.145C261.973 856.104 262.114 856.064 262.249 856.063C262.417 856.067 262.547 856.105 262.707 856.169C263.222 856.344 263.582 856.658 263.808 856.974C264.033 857.29 264.153 857.631 264.24 857.968C264.313 858.403 264.424 858.804 264.365 859.221Z" fill="#A9733D"/>
<path d="M272.398 865.635C274.089 865.857 275.01 866.738 274.84 867.929C274.684 869.02 273.002 869.914 271.443 869.711C270.017 869.528 269.044 868.538 269.172 867.402C269.321 866.127 270.64 865.404 272.398 865.635Z" fill="#A9733D"/>
<path d="M258.653 870.492C260.645 873.15 263.156 875.507 265.814 873.514C268.471 871.521 269.01 867.752 267.018 865.094C265.025 862.436 261.255 861.897 258.598 863.89C255.94 865.882 256.66 867.834 258.653 870.492Z" fill="#A9733D"/>
<path d="M243.784 841.817C243.886 841.811 244.019 841.83 244.118 841.844C244.879 841.953 245.598 842.36 245.942 842.794C246.285 843.227 246.346 843.743 246.212 844.209C246.078 844.676 245.717 845.07 245.327 845.44C244.939 845.789 244.515 846.154 243.88 846.347C243.526 846.458 243.112 846.52 242.709 846.503C241.37 846.413 240.635 845.417 240.466 844.704C240.249 843.863 240.657 843.132 241.452 842.536C241.756 842.296 242.124 842.086 242.583 841.949C242.97 841.842 243.381 841.8 243.784 841.817Z" fill="#A9733D"/>
<path d="M236.961 839.929C237.141 839.145 237.618 838.403 238.316 837.774C238.549 837.564 238.812 837.379 239.226 837.317C239.776 837.253 240.418 837.487 240.778 837.802C241.559 838.481 241.638 839.585 241.536 840.3C241.444 841.178 240.961 841.959 240.158 842.614C239.166 843.404 237.782 843.166 237.226 842.094C236.856 841.372 236.795 840.614 236.961 839.929Z" fill="#A9733D"/>
<path d="M235.665 841.202C235.653 841.282 235.645 841.341 235.633 841.421C235.496 841.907 235.194 842.37 234.828 842.804C234.667 842.984 234.473 843.158 234.218 843.284C233.641 843.546 232.747 843.418 232.263 843.025C231.715 842.602 231.524 842.048 231.36 841.539C231.137 840.737 231.253 839.923 231.692 839.217C231.992 838.773 232.424 838.349 233.132 838.126C233.273 838.086 233.414 838.045 233.549 838.044C233.717 838.048 233.847 838.087 234.007 838.15C234.522 838.325 234.883 838.64 235.108 838.956C235.333 839.271 235.453 839.613 235.54 839.949C235.613 840.385 235.724 840.786 235.665 841.202Z" fill="#A9733D"/>
<path d="M243.698 847.617C245.389 847.838 246.31 848.719 246.14 849.91C245.984 851.002 244.302 851.895 242.744 851.693C241.317 851.509 240.344 850.519 240.473 849.383C240.621 848.108 241.941 847.386 243.698 847.617Z" fill="#A9733D"/>
<path d="M229.953 852.473C231.946 855.131 234.456 857.488 237.114 855.496C239.771 853.503 240.311 849.733 238.318 847.075C236.325 844.417 232.556 843.878 229.898 845.871C227.24 847.864 227.96 849.816 229.953 852.473Z" fill="#A9733D"/>
<path d="M286.653 827.625C286.743 827.62 286.859 827.637 286.947 827.65C287.617 827.745 288.249 828.103 288.551 828.485C288.853 828.867 288.908 829.32 288.789 829.731C288.671 830.142 288.354 830.489 288.01 830.814C287.669 831.121 287.296 831.442 286.737 831.612C286.425 831.71 286.061 831.765 285.706 831.75C284.529 831.67 283.881 830.794 283.733 830.166C283.542 829.426 283.901 828.782 284.6 828.259C284.868 828.047 285.192 827.862 285.596 827.742C285.936 827.648 286.298 827.61 286.653 827.625Z" fill="#A9733D"/>
<path d="M280.648 825.965C280.806 825.275 281.226 824.622 281.841 824.068C282.045 823.884 282.277 823.721 282.641 823.666C283.125 823.61 283.69 823.816 284.007 824.093C284.695 824.69 284.764 825.663 284.674 826.291C284.593 827.064 284.168 827.752 283.461 828.328C282.589 829.023 281.37 828.813 280.881 827.87C280.556 827.235 280.502 826.568 280.648 825.965Z" fill="#A9733D"/>
<path d="M279.508 827.085C279.498 827.155 279.49 827.207 279.48 827.277C279.359 827.705 279.093 828.113 278.771 828.494C278.629 828.652 278.459 828.806 278.235 828.917C277.726 829.147 276.94 829.034 276.514 828.688C276.032 828.316 275.864 827.829 275.72 827.381C275.523 826.675 275.626 825.959 276.012 825.337C276.276 824.947 276.656 824.574 277.279 824.378C277.403 824.342 277.527 824.306 277.646 824.305C277.794 824.309 277.908 824.343 278.049 824.399C278.502 824.553 278.819 824.83 279.017 825.108C279.215 825.385 279.321 825.686 279.398 825.982C279.462 826.365 279.56 826.718 279.508 827.085Z" fill="#A9733D"/>
<path d="M286.577 832.73C288.065 832.925 288.876 833.701 288.726 834.748C288.588 835.709 287.109 836.495 285.737 836.317C284.482 836.155 283.625 835.284 283.739 834.285C283.869 833.163 285.03 832.527 286.577 832.73Z" fill="#A9733D"/>
<path d="M274.481 837.004C276.235 839.343 278.444 841.417 280.783 839.663C283.121 837.91 283.596 834.592 281.842 832.253C280.089 829.914 276.771 829.44 274.433 831.194C272.094 832.947 272.727 834.665 274.481 837.004Z" fill="#A9733D"/>
<path d="M318.175 820.293C318.244 820.289 318.334 820.302 318.402 820.312C318.919 820.386 319.408 820.662 319.641 820.957C319.874 821.252 319.916 821.602 319.825 821.919C319.734 822.236 319.489 822.504 319.223 822.755C318.96 822.993 318.672 823.241 318.24 823.372C317.999 823.447 317.718 823.49 317.444 823.478C316.534 823.417 316.034 822.74 315.92 822.255C315.772 821.684 316.05 821.186 316.59 820.782C316.797 820.619 317.047 820.476 317.358 820.383C317.621 820.31 317.901 820.281 318.175 820.293Z" fill="#A9733D"/>
<path d="M313.537 819.01C313.659 818.477 313.984 817.973 314.458 817.545C314.616 817.402 314.795 817.277 315.077 817.234C315.45 817.191 315.887 817.35 316.132 817.564C316.663 818.025 316.716 818.776 316.647 819.262C316.584 819.859 316.256 820.39 315.71 820.835C315.036 821.372 314.095 821.21 313.717 820.481C313.466 819.991 313.425 819.476 313.537 819.01Z" fill="#A9733D"/>
<path d="M312.656 819.875C312.649 819.929 312.643 819.97 312.635 820.024C312.542 820.355 312.336 820.669 312.087 820.964C311.978 821.086 311.846 821.205 311.673 821.29C311.281 821.468 310.673 821.381 310.344 821.114C309.972 820.827 309.842 820.45 309.731 820.104C309.579 819.559 309.658 819.006 309.956 818.526C310.16 818.224 310.454 817.936 310.935 817.785C311.031 817.757 311.126 817.729 311.218 817.729C311.333 817.731 311.421 817.758 311.529 817.801C311.88 817.92 312.125 818.134 312.278 818.348C312.431 818.563 312.512 818.795 312.572 819.024C312.621 819.32 312.697 819.592 312.656 819.875Z" fill="#A9733D"/>
<path d="M318.116 824.235C319.266 824.385 319.892 824.984 319.776 825.794C319.67 826.535 318.527 827.143 317.468 827.005C316.498 826.88 315.837 826.208 315.924 825.435C316.025 824.569 316.922 824.078 318.116 824.235Z" fill="#A9733D"/>
<path d="M308.774 827.536C310.129 829.342 311.835 830.944 313.641 829.59C315.448 828.235 315.814 825.673 314.46 823.867C313.105 822.06 310.543 821.694 308.737 823.048C306.931 824.403 307.42 825.729 308.774 827.536Z" fill="#A9733D"/>
<path d="M301.479 842.925C301.562 842.92 301.67 842.936 301.751 842.947C302.372 843.036 302.958 843.367 303.238 843.721C303.518 844.075 303.568 844.495 303.458 844.876C303.349 845.256 303.055 845.578 302.737 845.879C302.42 846.164 302.075 846.461 301.557 846.618C301.268 846.709 300.93 846.76 300.602 846.746C299.511 846.673 298.911 845.86 298.773 845.279C298.596 844.593 298.929 843.997 299.577 843.511C299.825 843.316 300.125 843.144 300.499 843.032C300.815 842.945 301.15 842.911 301.479 842.925Z" fill="#A9733D"/>
<path d="M295.915 841.386C296.062 840.747 296.451 840.142 297.02 839.629C297.21 839.458 297.424 839.307 297.762 839.256C298.21 839.205 298.734 839.395 299.027 839.652C299.664 840.205 299.728 841.106 299.645 841.689C299.57 842.405 299.176 843.042 298.522 843.576C297.713 844.22 296.584 844.025 296.131 843.151C295.829 842.563 295.78 841.945 295.915 841.386Z" fill="#A9733D"/>
<path d="M294.858 842.424C294.849 842.489 294.842 842.537 294.833 842.602C294.721 842.999 294.474 843.376 294.176 843.73C294.045 843.876 293.887 844.019 293.679 844.121C293.208 844.335 292.479 844.231 292.084 843.91C291.638 843.565 291.482 843.114 291.349 842.698C291.167 842.045 291.262 841.381 291.62 840.805C291.864 840.444 292.216 840.098 292.793 839.916C292.908 839.883 293.023 839.85 293.133 839.849C293.271 839.852 293.376 839.884 293.507 839.935C293.927 840.078 294.221 840.335 294.404 840.592C294.588 840.85 294.686 841.128 294.757 841.402C294.816 841.757 294.907 842.084 294.858 842.424Z" fill="#A9733D"/>
<path d="M301.408 847.654C302.787 847.835 303.538 848.553 303.4 849.524C303.272 850.414 301.901 851.143 300.63 850.978C299.467 850.828 298.674 850.021 298.779 849.095C298.9 848.055 299.976 847.466 301.408 847.654Z" fill="#A9733D"/>
<path d="M290.201 851.614C291.826 853.781 293.873 855.703 296.04 854.078C298.207 852.454 298.647 849.38 297.022 847.213C295.397 845.046 292.323 844.606 290.156 846.231C287.99 847.856 288.577 849.447 290.201 851.614Z" fill="#A9733D"/>
<path d="M330.723 832.533C330.781 832.53 330.857 832.54 330.914 832.548C331.348 832.611 331.758 832.843 331.954 833.09C332.15 833.338 332.185 833.632 332.109 833.898C332.032 834.165 331.826 834.389 331.603 834.6C331.382 834.8 331.14 835.008 330.778 835.118C330.576 835.181 330.339 835.217 330.109 835.207C329.346 835.156 328.926 834.587 328.83 834.181C328.705 833.7 328.939 833.283 329.392 832.943C329.566 832.806 329.776 832.686 330.038 832.608C330.258 832.547 330.493 832.523 330.723 832.533Z" fill="#A9733D"/>
<path d="M326.829 831.456C326.932 831.008 327.204 830.585 327.602 830.226C327.735 830.106 327.885 830 328.122 829.965C328.435 829.929 328.802 830.062 329.007 830.242C329.453 830.629 329.498 831.26 329.44 831.667C329.387 832.168 329.112 832.614 328.653 832.988C328.088 833.439 327.297 833.303 326.98 832.691C326.769 832.279 326.735 831.847 326.829 831.456Z" fill="#A9733D"/>
<path d="M326.089 832.182C326.083 832.228 326.078 832.262 326.072 832.307C325.993 832.585 325.821 832.849 325.612 833.096C325.52 833.199 325.409 833.299 325.264 833.37C324.934 833.52 324.424 833.447 324.148 833.222C323.835 832.981 323.726 832.665 323.633 832.374C323.506 831.917 323.572 831.452 323.822 831.049C323.994 830.796 324.24 830.554 324.644 830.427C324.724 830.404 324.805 830.38 324.882 830.38C324.978 830.382 325.052 830.404 325.143 830.44C325.437 830.54 325.643 830.72 325.771 830.9C325.9 831.08 325.968 831.275 326.018 831.467C326.06 831.716 326.123 831.944 326.089 832.182Z" fill="#A9733D"/>
<path d="M330.674 835.843C331.639 835.969 332.165 836.472 332.068 837.152C331.979 837.775 331.019 838.285 330.129 838.169C329.315 838.064 328.76 837.499 328.833 836.851C328.918 836.124 329.671 835.711 330.674 835.843Z" fill="#A9733D"/>
<path d="M322.83 838.614C323.967 840.131 325.4 841.476 326.916 840.339C328.433 839.202 328.741 837.051 327.603 835.534C326.466 834.017 324.315 833.709 322.798 834.847C321.282 835.984 321.693 837.098 322.83 838.614Z" fill="#A9733D"/>
</g>
</g>
<path fill-rule="evenodd" clip-rule="evenodd" d="M250.152 86.1053C267.716 74.9496 284.99 72.8986 301.839 84.283C282.511 84.5996 267.821 108.11 250.152 86.1053ZM325.872 79.1177C349.225 69.7588 370.062 71.1599 387.601 88.378C364.684 84.4975 341.996 109.123 325.872 79.1177ZM283.194 120.771C299.831 108.855 316.687 105.955 333.805 116.223C314.945 117.562 301.826 141.362 283.284 120.795L283.194 120.771ZM346.797 125.842C368.778 117.017 388.502 118.347 404.921 134.561C383.326 130.936 361.988 154.154 346.888 125.866L346.797 125.842ZM313.739 148.03C337.093 138.671 357.93 140.072 375.438 157.283C352.4 153.37 329.712 177.995 313.739 148.03ZM391.043 162.493C409.107 149.126 427.541 145.651 446.542 156.612C425.721 158.265 411.73 184.819 390.982 162.477L391.043 162.493ZM377.689 185.845C393.192 205.572 411.944 214.701 435.782 208.457C413.852 200.44 406.615 167.823 377.629 185.829L377.689 185.845ZM328.228 176.188C354.971 182.788 372.56 197.419 376.835 223.758C358.972 205.587 322.959 212.959 328.167 176.172L328.228 176.188ZM406.057 247.295C429.485 256.352 450.442 254.671 467.628 237.25C444.574 241.423 421.587 217.073 405.936 247.262L406.057 247.295ZM448.444 194.616C469.299 201.223 487.387 198.554 501.335 182.584C481.52 187.458 460.271 167.455 448.323 194.584L448.444 194.616ZM379.662 248.749C390.351 264.146 392.689 279.568 382.834 294.99C381.981 277.779 360.157 265.296 379.662 248.749ZM355.108 227.45C359.188 254.508 352.318 276.246 329.432 290.224C339.495 266.96 318.88 236.819 355.084 227.54L355.108 227.45ZM323.296 217.704C320.543 247.792 307.439 269.381 279.21 278.47C296.146 256.103 281.853 218.238 323.296 217.704ZM287.221 183.612C289.044 213.762 279.268 237.038 252.743 250.241C266.247 225.612 246.537 190.319 287.342 183.644L287.221 183.612ZM236.509 134.615C250.202 151.099 254.488 168.291 245.082 186.722C242.283 167.26 216.297 155.34 236.509 134.615ZM177.361 145.625C188.64 163.747 203.741 173.221 224.396 170.143C206.663 161.317 203.67 133.103 177.451 145.649L177.361 145.625ZM215.346 184.623C229.039 201.108 233.325 218.3 223.919 236.731C220.999 217.237 194.989 205.406 215.291 184.705L215.346 184.623ZM189.423 189.96C173.393 204.06 166.545 220.442 173.144 240.208C178.813 221.361 206.316 213.524 189.369 190.042L189.423 189.96ZM163.334 168.477C167.977 191.415 163.052 210.138 144.061 223.226C151.625 202.989 132.718 178.023 163.28 168.559L163.334 168.477ZM146.023 143.229C125.461 148.354 111.903 159.644 108.687 179.946C122.313 166.009 150.065 171.625 145.968 143.31L146.023 143.229ZM180.838 49.1113C199.264 39.4369 216.664 38.8324 232.498 51.5838C213.135 50.3503 196.557 72.5878 180.783 49.1932L180.838 49.1113Z" fill="#89A829"/>
<path d="M291.439 162.513C297.3 168.742 302.088 174.372 305.697 179.064C301.743 174.2 296.944 168.599 291.439 162.513C262.104 131.334 205.905 85.1419 136.305 66.3537C52.8 43.8116 10.6412 27.2686 0 21.8149V0C17.9962 10.7609 70.4518 36.2485 136.305 52.1117C193.187 65.8139 256.531 123.922 291.439 162.513Z" fill="#D9D9D9"/>
</svg>
