<svg width="375" height="962" viewBox="0 0 375 962" fill="none" xmlns="http://www.w3.org/2000/svg">
<mask id="mask0_379_3502" style="mask-type:alpha" maskUnits="userSpaceOnUse" x="0" y="0" width="375" height="962">
<rect width="375" height="962" fill="white"/>
</mask>
<g mask="url(#mask0_379_3502)">
<g opacity="0.2">
<path d="M7.3806 961.712C7.48614 961.251 7.76662 960.815 8.17652 960.446C8.31315 960.323 8.46755 960.214 8.71082 960.177C9.03351 960.14 9.41062 960.278 9.62223 960.462C10.081 960.861 10.1271 961.51 10.0671 961.929C10.0132 962.445 9.72937 962.904 9.25782 963.288C8.67575 963.752 7.86265 963.612 7.53609 962.983C7.31893 962.559 7.2834 962.114 7.3806 961.712Z" fill="#A9733D"/>
<path d="M6.61933 962.459C6.61266 962.506 6.60766 962.541 6.601 962.587C6.52046 962.873 6.34272 963.145 6.12778 963.4C6.03336 963.505 5.9195 963.608 5.77009 963.682C5.43074 963.835 4.90589 963.76 4.62153 963.529C4.29995 963.281 4.18777 962.956 4.09169 962.657C3.96063 962.186 4.02895 961.708 4.28667 961.293C4.46273 961.033 4.71656 960.784 5.132 960.653C5.21476 960.629 5.29751 960.605 5.37693 960.605C5.47579 960.607 5.55188 960.63 5.64575 960.667C5.94844 960.77 6.16004 960.955 6.29222 961.14C6.42441 961.325 6.49494 961.526 6.54603 961.723C6.58879 961.979 6.65432 962.214 6.61933 962.459Z" fill="#A9733D"/>
<path d="M10.4563 944.528C10.513 944.524 10.5865 944.535 10.6417 944.543C11.0646 944.603 11.4639 944.829 11.6546 945.07C11.8453 945.311 11.8794 945.597 11.8048 945.857C11.7302 946.116 11.53 946.335 11.3131 946.54C11.0976 946.735 10.8623 946.937 10.5092 947.044C10.3127 947.106 10.0826 947.141 9.8588 947.131C9.1154 947.081 8.70669 946.528 8.61319 946.132C8.49237 945.664 8.71934 945.258 9.16067 944.927C9.32984 944.794 9.53422 944.677 9.78903 944.601C10.0039 944.542 10.2324 944.518 10.4563 944.528Z" fill="#A9733D"/>
<path d="M6.66562 943.48C6.76547 943.045 7.03082 942.633 7.4186 942.283C7.54786 942.166 7.69393 942.064 7.92407 942.029C8.22935 941.994 8.58612 942.124 8.7863 942.298C9.22031 942.676 9.2639 943.289 9.20715 943.686C9.15617 944.174 8.88766 944.608 8.44156 944.972C7.8909 945.411 7.12166 945.278 6.81272 944.683C6.60728 944.282 6.57367 943.861 6.66562 943.48Z" fill="#A9733D"/>
<path d="M5.94602 944.186C5.93971 944.23 5.93498 944.263 5.92868 944.307C5.85248 944.578 5.68434 944.835 5.48099 945.076C5.39166 945.176 5.28395 945.273 5.1426 945.343C4.82156 945.488 4.32503 945.417 4.05601 945.198C3.75179 944.964 3.64565 944.656 3.55476 944.373C3.43077 943.928 3.49541 943.476 3.73922 943.083C3.90578 942.837 4.14591 942.601 4.53894 942.477C4.61723 942.455 4.69552 942.432 4.77066 942.432C4.86419 942.434 4.93617 942.455 5.02497 942.49C5.31133 942.588 5.51151 942.763 5.63656 942.938C5.76161 943.113 5.82834 943.303 5.87668 943.49C5.91713 943.732 5.97913 943.955 5.94602 944.186Z" fill="#A9733D"/>
<path d="M10.4089 947.751C11.3482 947.874 11.8599 948.363 11.7653 949.025C11.6786 949.631 10.7445 950.128 9.87867 950.015C9.08642 949.913 8.54583 949.363 8.6173 948.732C8.69981 948.024 9.43272 947.623 10.4089 947.751Z" fill="#A9733D"/>
<path d="M2.77299 950.449C3.87992 951.925 5.27463 953.235 6.75095 952.128C8.22727 951.021 8.52672 948.926 7.41979 947.45C6.31287 945.973 4.21873 945.674 2.74241 946.781C1.26609 947.888 1.66607 948.972 2.77299 950.449Z" fill="#A9733D"/>
<path d="M28.0891 949.562C28.1445 949.559 28.2164 949.569 28.2703 949.577C28.6835 949.636 29.0735 949.857 29.2599 950.092C29.4462 950.328 29.4795 950.607 29.4066 950.861C29.3337 951.114 29.1382 951.328 28.9262 951.528C28.7157 951.718 28.4858 951.916 28.1408 952.021C27.9489 952.081 27.7241 952.115 27.5054 952.106C26.7791 952.057 26.3798 951.516 26.2885 951.129C26.1704 950.673 26.3922 950.276 26.8234 949.953C26.9886 949.822 27.1883 949.708 27.4372 949.634C27.6472 949.576 27.8704 949.553 28.0891 949.562Z" fill="#A9733D"/>
<path d="M24.3858 948.537C24.4834 948.111 24.7426 947.708 25.1215 947.367C25.2477 947.253 25.3905 947.153 25.6153 947.119C25.9135 947.084 26.2621 947.211 26.4577 947.382C26.8817 947.75 26.9243 948.35 26.8688 948.738C26.819 949.214 26.5567 949.639 26.1209 949.994C25.5829 950.423 24.8314 950.293 24.5295 949.711C24.3288 949.32 24.296 948.909 24.3858 948.537Z" fill="#A9733D"/>
<path d="M23.6823 949.228C23.6761 949.271 23.6715 949.303 23.6653 949.346C23.5909 949.61 23.4266 949.862 23.228 950.097C23.1407 950.195 23.0354 950.289 22.8974 950.358C22.5837 950.5 22.0986 950.43 21.8358 950.217C21.5386 949.987 21.4349 949.687 21.3461 949.41C21.2249 948.975 21.2881 948.534 21.5263 948.15C21.689 947.909 21.9236 947.679 22.3076 947.558C22.3841 947.536 22.4606 947.514 22.534 947.514C22.6254 947.516 22.6957 947.537 22.7824 947.571C23.0622 947.666 23.2578 947.837 23.3799 948.008C23.5021 948.18 23.5673 948.365 23.6145 948.548C23.654 948.784 23.7146 949.002 23.6823 949.228Z" fill="#A9733D"/>
<path d="M28.0423 952.71C28.96 952.83 29.4599 953.308 29.3675 953.955C29.2828 954.547 28.3702 955.032 27.5243 954.922C26.7503 954.822 26.2221 954.285 26.292 953.669C26.3726 952.977 27.0886 952.584 28.0423 952.71Z" fill="#A9733D"/>
<path d="M20.5824 955.346C21.6638 956.788 23.0264 958.067 24.4687 956.986C25.911 955.904 26.2036 953.858 25.1222 952.416C24.0407 950.974 21.9948 950.681 20.5525 951.762C19.1102 952.844 19.501 953.903 20.5824 955.346Z" fill="#A9733D"/>
<path d="M28.6992 933.771C28.7476 933.768 28.8102 933.777 28.8572 933.784C29.2176 933.835 29.5578 934.028 29.7203 934.233C29.8827 934.438 29.9118 934.682 29.8483 934.903C29.7847 935.124 29.6141 935.31 29.4293 935.485C29.2457 935.651 29.0452 935.823 28.7444 935.915C28.577 935.967 28.3809 935.997 28.1902 935.989C27.5568 935.946 27.2086 935.474 27.1289 935.137C27.0259 934.739 27.2193 934.393 27.5953 934.111C27.7395 933.998 27.9136 933.898 28.1307 933.833C28.3138 933.783 28.5085 933.762 28.6992 933.771Z" fill="#A9733D"/>
<path d="M25.4694 932.877C25.5545 932.506 25.7806 932.155 26.1109 931.857C26.221 931.758 26.3455 931.67 26.5415 931.641C26.8016 931.611 27.1056 931.721 27.2761 931.87C27.6458 932.191 27.683 932.714 27.6346 933.052C27.5912 933.468 27.3625 933.838 26.9824 934.148C26.5133 934.522 25.8579 934.409 25.5947 933.901C25.4197 933.56 25.3911 933.201 25.4694 932.877Z" fill="#A9733D"/>
<path d="M24.8563 933.48C24.851 933.517 24.8469 933.545 24.8416 933.583C24.7766 933.813 24.6334 934.032 24.4602 934.238C24.3841 934.323 24.2923 934.405 24.1719 934.465C23.8984 934.589 23.4754 934.528 23.2462 934.342C22.987 934.142 22.8966 933.88 22.8191 933.639C22.7135 933.259 22.7686 932.874 22.9763 932.54C23.1182 932.33 23.3228 932.129 23.6576 932.024C23.7243 932.004 23.791 931.985 23.855 931.985C23.9347 931.987 23.996 932.005 24.0717 932.035C24.3156 932.118 24.4862 932.267 24.5927 932.416C24.6992 932.566 24.7561 932.727 24.7973 932.886C24.8317 933.093 24.8845 933.282 24.8563 933.48Z" fill="#A9733D"/>
<path d="M28.6584 936.516C29.4588 936.621 29.8948 937.038 29.8142 937.601C29.7403 938.118 28.9444 938.541 28.2067 938.445C27.5317 938.358 27.0711 937.889 27.132 937.352C27.2023 936.748 27.8267 936.406 28.6584 936.516Z" fill="#A9733D"/>
<path d="M22.1529 938.813C23.096 940.071 24.2843 941.186 25.5421 940.243C26.7999 939.3 27.055 937.516 26.1119 936.258C25.1688 935 23.3846 934.745 22.1268 935.688C20.8691 936.631 21.2098 937.555 22.1529 938.813Z" fill="#A9733D"/>
<path d="M41.5135 940.24C41.5597 940.237 41.6196 940.246 41.6645 940.252C42.0089 940.301 42.334 940.485 42.4893 940.682C42.6446 940.878 42.6724 941.111 42.6116 941.322C42.5509 941.533 42.3879 941.711 42.2112 941.878C42.0358 942.037 41.8441 942.202 41.5567 942.289C41.3967 942.339 41.2093 942.367 41.0271 942.359C40.4217 942.319 40.0889 941.868 40.0128 941.546C39.9144 941.165 40.0992 940.834 40.4586 940.565C40.5963 940.457 40.7627 940.361 40.9702 940.299C41.1452 940.251 41.3313 940.232 41.5135 940.24Z" fill="#A9733D"/>
<path d="M38.4269 939.386C38.5082 939.031 38.7242 938.696 39.04 938.411C39.1452 938.316 39.2641 938.232 39.4515 938.204C39.7 938.176 39.9905 938.281 40.1535 938.424C40.5068 938.731 40.5423 939.23 40.4961 939.554C40.4546 939.951 40.236 940.304 39.8728 940.6C39.4245 940.958 38.7982 940.85 38.5467 940.365C38.3794 940.039 38.352 939.696 38.4269 939.386Z" fill="#A9733D"/>
<path d="M37.8411 939.962C37.8359 939.998 37.8321 940.025 37.827 940.061C37.7649 940.281 37.628 940.491 37.4625 940.687C37.3897 940.768 37.302 940.847 37.187 940.904C36.9256 941.022 36.5213 940.964 36.3023 940.786C36.0546 940.595 35.9682 940.345 35.8942 940.114C35.7933 939.752 35.8459 939.384 36.0444 939.064C36.18 938.864 36.3755 938.672 36.6955 938.571C36.7592 938.553 36.823 938.534 36.8841 938.534C36.9603 938.536 37.0189 938.553 37.0912 938.582C37.3243 938.661 37.4873 938.803 37.5891 938.946C37.6909 939.089 37.7453 939.243 37.7846 939.395C37.8176 939.592 37.868 939.774 37.8411 939.962Z" fill="#A9733D"/>
<path d="M41.4745 942.863C42.2394 942.964 42.6561 943.362 42.5791 943.901C42.5085 944.394 41.7479 944.799 41.0429 944.707C40.3978 944.624 39.9576 944.176 40.0158 943.662C40.0829 943.086 40.6797 942.759 41.4745 942.863Z" fill="#A9733D"/>
<path d="M35.2576 945.06C36.1589 946.262 37.2945 947.328 38.4965 946.427C39.6985 945.526 39.9423 943.821 39.0411 942.619C38.1398 941.416 36.4347 941.173 35.2327 942.074C34.0307 942.975 34.3563 943.858 35.2576 945.06Z" fill="#A9733D"/>
<path d="M57.1483 930.526C57.1917 930.523 57.2478 930.531 57.29 930.537C57.6129 930.583 57.9178 930.756 58.0635 930.94C58.2091 931.124 58.2352 931.343 58.1782 931.541C58.1212 931.739 57.9684 931.906 57.8027 932.062C57.6382 932.211 57.4584 932.365 57.1888 932.447C57.0388 932.494 56.8631 932.521 56.6921 932.514C56.1245 932.475 55.8123 932.053 55.7409 931.75C55.6487 931.394 55.822 931.083 56.159 930.831C56.2882 930.729 56.4442 930.64 56.6388 930.582C56.8029 930.536 56.9774 930.518 57.1483 930.526Z" fill="#A9733D"/>
<path d="M54.254 929.726C54.3302 929.394 54.5328 929.079 54.8289 928.812C54.9276 928.723 55.0391 928.645 55.2149 928.618C55.448 928.591 55.7204 928.69 55.8732 928.824C56.2046 929.112 56.2379 929.581 56.1945 929.884C56.1556 930.256 55.9506 930.588 55.61 930.865C55.1895 931.2 54.6022 931.099 54.3663 930.645C54.2094 930.339 54.1838 930.017 54.254 929.726Z" fill="#A9733D"/>
<path d="M53.7043 930.267C53.6995 930.3 53.6959 930.326 53.6911 930.359C53.6329 930.566 53.5045 930.762 53.3493 930.946C53.2811 931.022 53.1988 931.096 53.0909 931.15C52.8458 931.261 52.4666 931.207 52.2612 931.04C52.0289 930.86 51.9479 930.625 51.8785 930.409C51.7838 930.069 51.8332 929.724 52.0193 929.424C52.1465 929.236 52.3299 929.056 52.63 928.962C52.6897 928.945 52.7495 928.927 52.8069 928.927C52.8783 928.929 52.9333 928.945 53.0011 928.972C53.2197 929.046 53.3726 929.18 53.468 929.314C53.5635 929.448 53.6145 929.592 53.6514 929.735C53.6823 929.92 53.7296 930.09 53.7043 930.267Z" fill="#A9733D"/>
<path d="M57.1119 932.987C57.8292 933.081 58.2199 933.455 58.1477 933.96C58.0815 934.423 57.3682 934.802 56.707 934.716C56.102 934.638 55.6892 934.218 55.7438 933.736C55.8068 933.195 56.3664 932.889 57.1119 932.987Z" fill="#A9733D"/>
<path d="M51.2815 935.046C52.1267 936.173 53.1917 937.173 54.319 936.328C55.4464 935.483 55.675 933.884 54.8298 932.756C53.9845 931.629 52.3854 931.4 51.2581 932.245C50.1308 933.091 50.4362 933.919 51.2815 935.046Z" fill="#A9733D"/>
<path d="M44.9745 922.882C45.0178 922.879 45.074 922.887 45.1161 922.894C45.4391 922.94 45.744 923.112 45.8896 923.296C46.0353 923.48 46.0613 923.699 46.0044 923.897C45.9474 924.095 45.7945 924.262 45.6288 924.419C45.4643 924.567 45.2846 924.722 45.015 924.803C44.8649 924.851 44.6892 924.877 44.5183 924.87C43.9506 924.832 43.6385 924.409 43.5671 924.107C43.4748 923.75 43.6482 923.44 43.9852 923.187C44.1143 923.085 44.2704 922.996 44.465 922.938C44.6291 922.893 44.8036 922.875 44.9745 922.882Z" fill="#A9733D"/>
<path d="M42.0801 922.083C42.1564 921.75 42.359 921.435 42.6551 921.169C42.7538 921.08 42.8653 921.001 43.041 920.975C43.2741 920.948 43.5465 921.047 43.6994 921.18C44.0308 921.468 44.0641 921.937 44.0207 922.24C43.9818 922.613 43.7768 922.944 43.4362 923.222C43.0157 923.557 42.4283 923.456 42.1925 923.001C42.0356 922.695 42.0099 922.374 42.0801 922.083Z" fill="#A9733D"/>
<path d="M41.53 922.623C41.5252 922.657 41.5216 922.682 41.5168 922.716C41.4586 922.922 41.3302 923.118 41.1749 923.302C41.1067 923.378 41.0245 923.453 40.9166 923.506C40.6714 923.617 40.2923 923.563 40.0869 923.396C39.8546 923.217 39.7736 922.982 39.7042 922.766C39.6095 922.426 39.6588 922.08 39.845 921.781C39.9722 921.593 40.1555 921.413 40.4556 921.318C40.5154 921.301 40.5752 921.284 40.6326 921.283C40.704 921.285 40.7589 921.301 40.8267 921.328C41.0454 921.402 41.1982 921.536 41.2937 921.67C41.3892 921.804 41.4402 921.949 41.4771 922.091C41.508 922.276 41.5553 922.446 41.53 922.623Z" fill="#A9733D"/>
<path d="M44.938 925.343C45.6554 925.437 46.0461 925.811 45.9739 926.316C45.9077 926.779 45.1944 927.158 44.5332 927.072C43.9282 926.994 43.5154 926.574 43.5699 926.093C43.6329 925.552 44.1926 925.245 44.938 925.343Z" fill="#A9733D"/>
<path d="M39.1072 927.403C39.9524 928.531 41.0174 929.531 42.1447 928.685C43.272 927.84 43.5007 926.241 42.6555 925.114C41.8102 923.986 40.2111 923.758 39.0838 924.603C37.9565 925.448 38.2619 926.276 39.1072 927.403Z" fill="#A9733D"/>
<path d="M63.1593 916.864C63.1974 916.862 63.2468 916.869 63.2839 916.874C63.5681 916.915 63.8364 917.066 63.9646 917.228C64.0927 917.39 64.1157 917.583 64.0655 917.757C64.0154 917.931 63.8809 918.078 63.7351 918.216C63.5903 918.347 63.4321 918.483 63.1949 918.555C63.0628 918.596 62.9082 918.62 62.7578 918.613C62.2582 918.579 61.9835 918.208 61.9207 917.942C61.8395 917.628 61.992 917.354 62.2886 917.132C62.4023 917.043 62.5396 916.964 62.7109 916.913C62.8553 916.873 63.0089 916.857 63.1593 916.864Z" fill="#A9733D"/>
<path d="M60.612 916.158C60.6791 915.865 60.8574 915.589 61.1179 915.354C61.2048 915.275 61.3029 915.206 61.4576 915.183C61.6627 915.159 61.9024 915.247 62.0369 915.364C62.3286 915.618 62.3579 916.03 62.3197 916.297C62.2855 916.624 62.105 916.916 61.8053 917.161C61.4353 917.455 60.9184 917.366 60.7108 916.966C60.5728 916.697 60.5502 916.414 60.612 916.158Z" fill="#A9733D"/>
<path d="M60.1277 916.635C60.1235 916.664 60.1203 916.686 60.1161 916.716C60.0649 916.898 59.9519 917.071 59.8153 917.233C59.7552 917.3 59.6829 917.365 59.5879 917.412C59.3722 917.509 59.0385 917.462 58.8578 917.315C58.6534 917.157 58.582 916.95 58.521 916.76C58.4376 916.461 58.4811 916.157 58.6449 915.893C58.7568 915.728 58.9182 915.57 59.1823 915.486C59.2349 915.471 59.2875 915.456 59.338 915.456C59.4008 915.457 59.4492 915.472 59.5088 915.495C59.7013 915.561 59.8358 915.678 59.9198 915.796C60.0038 915.914 60.0487 916.041 60.0811 916.167C60.1083 916.329 60.15 916.479 60.1277 916.635Z" fill="#A9733D"/>
<path d="M63.1269 919.029C63.7581 919.112 64.102 919.441 64.0385 919.885C63.9802 920.293 63.3524 920.626 62.7706 920.551C62.2382 920.482 61.8749 920.112 61.9229 919.688C61.9784 919.212 62.4709 918.943 63.1269 919.029Z" fill="#A9733D"/>
<path d="M57.9958 920.841C58.7396 921.834 59.6768 922.714 60.6689 921.97C61.6609 921.226 61.8621 919.819 61.1183 918.826C60.3745 917.834 58.9673 917.633 57.9752 918.377C56.9832 919.121 57.2519 919.849 57.9958 920.841Z" fill="#A9733D"/>
<path d="M76.5302 913.753C76.5597 913.751 76.5979 913.757 76.6265 913.761C76.846 913.792 77.0532 913.909 77.1522 914.034C77.2512 914.159 77.2689 914.308 77.2302 914.443C77.1915 914.577 77.0876 914.691 76.9749 914.797C76.8631 914.898 76.741 915.003 76.5577 915.059C76.4558 915.091 76.3363 915.109 76.2202 915.104C75.8343 915.078 75.6222 914.791 75.5736 914.585C75.5109 914.343 75.6287 914.132 75.8578 913.96C75.9456 913.891 76.0517 913.83 76.1839 913.791C76.2954 913.76 76.4141 913.748 76.5302 913.753Z" fill="#A9733D"/>
<path d="M74.5626 913.209C74.6144 912.983 74.7521 912.769 74.9533 912.588C75.0204 912.528 75.0962 912.474 75.2157 912.456C75.3741 912.438 75.5592 912.505 75.6631 912.596C75.8884 912.792 75.911 913.11 75.8815 913.316C75.8551 913.569 75.7157 913.795 75.4842 913.984C75.1985 914.211 74.7992 914.142 74.6389 913.833C74.5323 913.625 74.5149 913.407 74.5626 913.209Z" fill="#A9733D"/>
<path d="M74.1891 913.576C74.1858 913.599 74.1834 913.616 74.1801 913.639C74.1406 913.779 74.0533 913.913 73.9478 914.038C73.9014 914.09 73.8455 914.14 73.7722 914.176C73.6055 914.252 73.3479 914.215 73.2083 914.102C73.0504 913.98 72.9953 913.82 72.9481 913.673C72.8838 913.442 72.9173 913.207 73.0439 913.004C73.1303 912.876 73.2549 912.754 73.4589 912.689C73.4995 912.678 73.5401 912.666 73.5791 912.666C73.6277 912.667 73.665 912.678 73.7111 912.696C73.8597 912.747 73.9636 912.837 74.0285 912.928C74.0934 913.019 74.128 913.118 74.1531 913.215C74.1741 913.34 74.2063 913.456 74.1891 913.576Z" fill="#A9733D"/>
<path d="M76.5054 915.425C76.9929 915.489 77.2585 915.743 77.2094 916.086C77.1644 916.401 76.6796 916.659 76.2302 916.6C75.819 916.547 75.5384 916.262 75.5755 915.934C75.6183 915.567 75.9987 915.358 76.5054 915.425Z" fill="#A9733D"/>
<path d="M72.5421 916.826C73.1166 917.592 73.8404 918.271 74.6067 917.697C75.3729 917.122 75.5283 916.036 74.9538 915.269C74.3793 914.503 73.2924 914.348 72.5262 914.922C71.76 915.497 71.9676 916.059 72.5421 916.826Z" fill="#A9733D"/>
<path d="M69.448 923.353C69.4834 923.351 69.5292 923.358 69.5635 923.363C69.8268 923.401 70.0754 923.541 70.1942 923.691C70.3129 923.841 70.3342 924.019 70.2877 924.181C70.2413 924.342 70.1166 924.479 69.9815 924.606C69.8474 924.727 69.7009 924.853 69.481 924.92C69.3587 924.959 69.2154 924.98 69.076 924.974C68.6132 924.943 68.3587 924.599 68.3004 924.352C68.2252 924.061 68.3665 923.808 68.6413 923.602C68.7467 923.519 68.8739 923.446 69.0326 923.399C69.1664 923.362 69.3087 923.347 69.448 923.353Z" fill="#A9733D"/>
<path d="M67.0878 922.701C67.1499 922.429 67.3151 922.173 67.5565 921.955C67.637 921.882 67.728 921.818 67.8712 921.797C68.0613 921.775 68.2834 921.856 68.408 921.965C68.6782 922.199 68.7054 922.582 68.6701 922.829C68.6383 923.132 68.4711 923.403 68.1934 923.629C67.8506 923.902 67.3717 923.82 67.1793 923.449C67.0514 923.2 67.0305 922.937 67.0878 922.701Z" fill="#A9733D"/>
<path d="M66.6398 923.14C66.6359 923.168 66.633 923.188 66.629 923.216C66.5816 923.384 66.4769 923.544 66.3503 923.694C66.2947 923.756 66.2276 923.817 66.1396 923.86C65.9398 923.951 65.6306 923.906 65.4631 923.77C65.2737 923.624 65.2077 923.433 65.1511 923.256C65.0739 922.979 65.1141 922.698 65.2659 922.453C65.3696 922.3 65.5191 922.153 65.7638 922.076C65.8126 922.062 65.8613 922.048 65.9081 922.048C65.9663 922.049 66.0111 922.063 66.0664 922.084C66.2447 922.145 66.3693 922.254 66.4472 922.363C66.525 922.472 66.5666 922.59 66.5967 922.707C66.6218 922.857 66.6604 922.996 66.6398 923.14Z" fill="#A9733D"/>
<path d="M69.418 925.359C70.0029 925.436 70.3215 925.74 70.2626 926.152C70.2086 926.53 69.627 926.839 69.0879 926.769C68.5946 926.705 68.258 926.363 68.3025 925.97C68.3539 925.529 68.8102 925.279 69.418 925.359Z" fill="#A9733D"/>
<path d="M64.6643 927.039C65.3535 927.958 66.2218 928.774 67.141 928.084C68.0602 927.395 68.2467 926.091 67.5575 925.172C66.8683 924.253 65.5644 924.066 64.6452 924.756C63.7261 925.445 63.9751 926.12 64.6643 927.039Z" fill="#A9733D"/>
<path d="M81.8522 918.945C81.8769 918.944 81.9089 918.948 81.933 918.952C82.1173 918.978 82.2913 919.076 82.3744 919.182C82.4575 919.287 82.4724 919.411 82.4399 919.524C82.4074 919.637 82.3201 919.733 82.2256 919.822C82.1317 919.907 82.0291 919.995 81.8753 920.042C81.7896 920.069 81.6893 920.084 81.5918 920.08C81.2678 920.058 81.0897 919.817 81.049 919.644C80.9963 919.44 81.0952 919.263 81.2876 919.119C81.3613 919.061 81.4503 919.01 81.5614 918.977C81.655 918.951 81.7546 918.941 81.8522 918.945Z" fill="#A9733D"/>
<path d="M80.2004 918.488C80.2439 918.298 80.3595 918.118 80.5285 917.966C80.5848 917.915 80.6485 917.871 80.7487 917.855C80.8818 917.84 81.0372 917.897 81.1244 917.973C81.3136 918.137 81.3326 918.405 81.3078 918.578C81.2856 918.79 81.1686 918.979 80.9742 919.138C80.7343 919.329 80.3991 919.271 80.2645 919.012C80.175 918.837 80.1603 918.654 80.2004 918.488Z" fill="#A9733D"/>
<path d="M79.8867 918.797C79.884 918.816 79.8819 918.83 79.8792 918.85C79.846 918.967 79.7727 919.08 79.6841 919.184C79.6452 919.228 79.5982 919.27 79.5366 919.301C79.3968 919.364 79.1804 919.333 79.0632 919.238C78.9306 919.136 78.8844 919.001 78.8448 918.878C78.7907 918.684 78.8189 918.487 78.9251 918.316C78.9977 918.209 79.1023 918.106 79.2736 918.052C79.3077 918.042 79.3418 918.032 79.3746 918.032C79.4153 918.033 79.4467 918.043 79.4854 918.058C79.6102 918.1 79.6974 918.176 79.7519 918.253C79.8064 918.329 79.8355 918.412 79.8565 918.493C79.8741 918.599 79.9012 918.696 79.8867 918.797Z" fill="#A9733D"/>
<path d="M81.8316 920.35C82.241 920.403 82.464 920.617 82.4228 920.905C82.385 921.169 81.9779 921.386 81.6006 921.336C81.2553 921.292 81.0198 921.052 81.0509 920.777C81.0868 920.469 81.4062 920.294 81.8316 920.35Z" fill="#A9733D"/>
<path d="M78.5042 921.525C78.9866 922.169 79.5944 922.739 80.2377 922.257C80.881 921.774 81.0115 920.862 80.5292 920.218C80.0468 919.575 79.1342 919.445 78.4909 919.927C77.8476 920.409 78.0219 920.882 78.5042 921.525Z" fill="#A9733D"/>
</g>
<g opacity="0.2">
<path d="M355.912 425.815C355.757 425.79 355.551 425.797 355.397 425.802C354.215 425.843 353.048 426.345 352.451 426.952C351.855 427.559 351.675 428.337 351.803 429.073C351.932 429.809 352.417 430.472 352.954 431.101C353.489 431.7 354.077 432.328 355.017 432.728C355.539 432.957 356.163 433.121 356.782 433.162C358.843 433.245 360.134 431.843 360.509 430.781C360.981 429.53 360.477 428.344 359.36 427.302C358.934 426.885 358.406 426.501 357.728 426.216C357.154 425.989 356.531 425.856 355.912 425.815Z" fill="#A9733D"/>
<path d="M366.661 424.058C366.516 422.829 365.908 421.615 364.945 420.537C364.624 420.178 364.252 419.851 363.629 419.687C362.799 419.499 361.778 419.75 361.175 420.172C359.868 421.081 359.565 422.758 359.603 423.868C359.598 425.226 360.208 426.501 361.328 427.636C362.713 429.008 364.87 428.872 365.898 427.325C366.583 426.283 366.801 425.134 366.661 424.058Z" fill="#A9733D"/>
<path d="M368.434 426.22C368.438 426.344 368.441 426.436 368.445 426.56C368.574 427.327 368.961 428.085 369.449 428.809C369.665 429.11 369.933 429.41 370.301 429.644C371.141 430.14 372.529 430.092 373.335 429.571C374.242 429.015 374.626 428.2 374.961 427.447C375.435 426.258 375.392 424.995 374.837 423.841C374.452 423.113 373.861 422.393 372.816 421.935C372.607 421.849 372.399 421.764 372.192 421.74C371.934 421.718 371.729 421.756 371.474 421.826C370.657 422.009 370.054 422.431 369.657 422.876C369.261 423.322 369.021 423.824 368.832 424.324C368.648 424.979 368.411 425.573 368.434 426.22Z" fill="#A9733D"/>
<path d="M355.084 434.7C352.461 434.759 350.907 435.955 350.97 437.804C351.028 439.5 353.452 441.145 355.869 441.093C358.081 441.048 359.733 439.695 359.725 437.936C359.708 435.962 357.81 434.638 355.084 434.7Z" fill="#A9733D"/>
<path d="M375.303 444.404C371.815 448.139 367.585 451.329 363.85 447.841C360.116 444.354 359.915 438.499 363.403 434.763C366.89 431.028 372.745 430.828 376.48 434.316C380.215 437.803 378.79 440.669 375.303 444.404Z" fill="#A9733D"/>
<path d="M331.546 394.441C331.398 394.461 331.214 394.526 331.076 394.574C330.015 394.944 329.099 395.728 328.729 396.446C328.359 397.165 328.415 397.92 328.739 398.551C329.062 399.183 329.689 399.646 330.353 400.066C331.007 400.458 331.716 400.862 332.681 400.96C333.22 401.02 333.831 400.993 334.403 400.855C336.296 400.351 337.07 398.716 337.112 397.647C337.187 396.381 336.396 395.447 335.091 394.817C334.587 394.559 334 394.36 333.305 394.293C332.72 394.248 332.119 394.303 331.546 394.441Z" fill="#A9733D"/>
<path d="M340.795 389.82C340.318 388.746 339.425 387.817 338.248 387.111C337.856 386.876 337.427 386.684 336.816 386.711C336.01 386.775 335.156 387.29 334.728 387.843C333.799 389.035 333.997 390.64 334.344 391.635C334.722 392.868 335.634 393.852 336.968 394.565C338.61 395.419 340.528 394.689 341.024 392.996C341.351 391.859 341.225 390.755 340.795 389.82Z" fill="#A9733D"/>
<path d="M343.011 391.281C343.049 391.392 343.078 391.475 343.117 391.586C343.45 392.245 344.014 392.823 344.66 393.342C344.941 393.554 345.268 393.75 345.668 393.859C346.569 394.072 347.814 393.638 348.398 392.938C349.064 392.179 349.182 391.331 349.273 390.555C349.368 389.344 348.973 388.21 348.146 387.32C347.591 386.769 346.853 386.283 345.777 386.162C345.563 386.143 345.35 386.125 345.156 386.161C344.916 386.214 344.741 386.306 344.53 386.442C343.84 386.837 343.412 387.389 343.178 387.905C342.944 388.421 342.868 388.944 342.838 389.45C342.856 390.095 342.808 390.701 343.011 391.281Z" fill="#A9733D"/>
<path d="M333.298 402.729C330.937 403.521 329.864 405.043 330.442 406.701C330.972 408.222 333.633 409.031 335.81 408.303C337.802 407.639 338.919 405.947 338.416 404.355C337.845 402.57 335.751 401.905 333.298 402.729Z" fill="#A9733D"/>
<path d="M354.359 405.83C352.249 410.198 349.313 414.281 344.945 412.172C340.577 410.062 338.746 404.811 340.856 400.442C342.965 396.074 348.216 394.243 352.584 396.353C356.952 398.462 356.468 401.462 354.359 405.83Z" fill="#A9733D"/>
<path d="M327.042 326.997C326.915 326.99 326.75 327.013 326.626 327.031C325.678 327.167 324.783 327.673 324.356 328.213C323.928 328.754 323.852 329.395 324.019 329.976C324.186 330.558 324.635 331.049 325.122 331.509C325.604 331.944 326.132 332.398 326.923 332.638C327.364 332.777 327.88 332.854 328.382 332.833C330.048 332.721 330.964 331.48 331.174 330.593C331.445 329.545 330.936 328.634 329.947 327.893C329.567 327.594 329.109 327.332 328.538 327.161C328.056 327.028 327.544 326.975 327.042 326.997Z" fill="#A9733D"/>
<path d="M335.54 324.647C335.316 323.671 334.721 322.747 333.852 321.963C333.562 321.702 333.235 321.471 332.719 321.394C332.035 321.315 331.235 321.606 330.786 321.998C329.813 322.843 329.716 324.219 329.843 325.109C329.957 326.202 330.559 327.176 331.559 327.991C332.793 328.975 334.517 328.678 335.21 327.343C335.67 326.445 335.746 325.501 335.54 324.647Z" fill="#A9733D"/>
<path d="M337.154 326.232C337.168 326.331 337.179 326.405 337.193 326.504C337.364 327.11 337.741 327.687 338.197 328.227C338.397 328.451 338.638 328.668 338.955 328.825C339.675 329.151 340.788 328.991 341.391 328.502C342.073 327.975 342.311 327.286 342.515 326.651C342.793 325.653 342.648 324.64 342.101 323.759C341.728 323.207 341.189 322.679 340.308 322.401C340.133 322.351 339.957 322.3 339.789 322.299C339.579 322.304 339.418 322.352 339.219 322.431C338.577 322.649 338.128 323.041 337.848 323.434C337.568 323.827 337.418 324.252 337.31 324.671C337.219 325.214 337.08 325.713 337.154 326.232Z" fill="#A9733D"/>
<path d="M327.15 334.219C325.044 334.495 323.897 335.593 324.109 337.076C324.303 338.435 326.397 339.548 328.338 339.296C330.114 339.067 331.326 337.834 331.166 336.42C330.981 334.832 329.338 333.932 327.15 334.219Z" fill="#A9733D"/>
<path d="M344.267 340.267C341.785 343.577 338.659 346.513 335.349 344.031C332.04 341.549 331.368 336.855 333.85 333.545C336.331 330.235 341.026 329.564 344.335 332.046C347.645 334.527 346.748 336.958 344.267 340.267Z" fill="#A9733D"/>
<path d="M313.745 361.467C313.618 361.46 313.453 361.484 313.329 361.501C312.381 361.637 311.486 362.143 311.059 362.683C310.631 363.224 310.554 363.865 310.722 364.447C310.889 365.028 311.338 365.519 311.824 365.979C312.307 366.414 312.835 366.868 313.626 367.108C314.067 367.247 314.582 367.325 315.084 367.303C316.751 367.191 317.667 365.95 317.876 365.063C318.147 364.015 317.638 363.104 316.649 362.363C316.27 362.064 315.812 361.802 315.241 361.631C314.759 361.499 314.247 361.446 313.745 361.467Z" fill="#A9733D"/>
<path d="M322.242 359.118C322.018 358.141 321.424 357.217 320.554 356.433C320.265 356.172 319.937 355.941 319.421 355.864C318.737 355.785 317.938 356.076 317.489 356.468C316.516 357.313 316.418 358.689 316.546 359.579C316.66 360.673 317.262 361.646 318.262 362.461C319.496 363.445 321.22 363.148 321.913 361.813C322.373 360.915 322.448 359.971 322.242 359.118Z" fill="#A9733D"/>
<path d="M323.856 360.702C323.87 360.801 323.881 360.875 323.895 360.974C324.066 361.58 324.443 362.157 324.899 362.697C325.099 362.921 325.34 363.138 325.657 363.295C326.377 363.621 327.49 363.462 328.093 362.972C328.775 362.446 329.013 361.756 329.217 361.121C329.495 360.123 329.35 359.11 328.803 358.229C328.43 357.678 327.892 357.149 327.011 356.872C326.835 356.821 326.66 356.771 326.491 356.769C326.281 356.774 326.12 356.822 325.921 356.901C325.279 357.119 324.83 357.511 324.55 357.905C324.27 358.298 324.12 358.723 324.012 359.142C323.921 359.684 323.782 360.183 323.856 360.702Z" fill="#A9733D"/>
<path d="M313.852 368.69C311.746 368.966 310.599 370.063 310.811 371.546C311.006 372.905 313.1 374.018 315.04 373.766C316.816 373.537 318.028 372.304 317.868 370.89C317.683 369.302 316.04 368.402 313.852 368.69Z" fill="#A9733D"/>
<path d="M330.969 374.738C328.487 378.047 325.361 380.983 322.051 378.501C318.742 376.02 318.071 371.325 320.552 368.015C323.033 364.706 327.728 364.034 331.037 366.516C334.347 368.997 333.45 371.428 330.969 374.738Z" fill="#A9733D"/>
<path d="M355.347 353.586C355.22 353.579 355.055 353.603 354.931 353.621C353.983 353.756 353.088 354.262 352.661 354.803C352.233 355.343 352.157 355.985 352.324 356.566C352.491 357.147 352.94 357.638 353.426 358.098C353.909 358.534 354.437 358.988 355.228 359.228C355.669 359.367 356.184 359.444 356.686 359.423C358.353 359.311 359.269 358.07 359.478 357.182C359.749 356.135 359.241 355.224 358.251 354.483C357.872 354.184 357.414 353.921 356.843 353.751C356.361 353.618 355.849 353.565 355.347 353.586Z" fill="#A9733D"/>
<path d="M363.844 351.237C363.62 350.26 363.026 349.336 362.156 348.553C361.867 348.291 361.539 348.061 361.023 347.983C360.339 347.905 359.54 348.195 359.091 348.587C358.118 349.433 358.02 350.809 358.148 351.699C358.262 352.792 358.864 353.765 359.864 354.581C361.098 355.564 362.822 355.267 363.515 353.932C363.975 353.034 364.05 352.09 363.844 351.237Z" fill="#A9733D"/>
<path d="M365.458 352.822C365.472 352.921 365.483 352.995 365.497 353.094C365.668 353.7 366.045 354.276 366.501 354.817C366.701 355.04 366.942 355.258 367.259 355.414C367.979 355.74 369.092 355.581 369.695 355.091C370.377 354.565 370.615 353.875 370.819 353.241C371.097 352.242 370.952 351.229 370.405 350.349C370.032 349.797 369.494 349.269 368.613 348.991C368.437 348.94 368.262 348.89 368.093 348.889C367.883 348.894 367.722 348.942 367.523 349.021C366.881 349.239 366.432 349.631 366.152 350.024C365.872 350.417 365.722 350.842 365.614 351.261C365.523 351.804 365.384 352.303 365.458 352.822Z" fill="#A9733D"/>
<path d="M355.455 360.81C353.349 361.086 352.202 362.183 352.414 363.666C352.608 365.026 354.702 366.139 356.643 365.886C358.419 365.657 359.631 364.425 359.471 363.01C359.286 361.422 357.643 360.522 355.455 360.81Z" fill="#A9733D"/>
<path d="M372.571 366.857C370.09 370.167 366.963 373.102 363.654 370.621C360.344 368.139 359.673 363.444 362.155 360.135C364.636 356.825 369.33 356.154 372.64 358.635C375.949 361.117 375.053 363.547 372.571 366.857Z" fill="#A9733D"/>
<path d="M288.209 331.718C288.096 331.712 287.95 331.732 287.84 331.748C286.998 331.868 286.204 332.318 285.824 332.798C285.445 333.277 285.377 333.847 285.525 334.363C285.674 334.879 286.072 335.315 286.504 335.723C286.933 336.109 287.401 336.513 288.104 336.726C288.495 336.849 288.953 336.918 289.398 336.899C290.877 336.799 291.691 335.698 291.877 334.91C292.117 333.98 291.665 333.171 290.787 332.513C290.45 332.248 290.044 332.015 289.537 331.864C289.109 331.746 288.654 331.699 288.209 331.718Z" fill="#A9733D"/>
<path d="M295.752 329.631C295.553 328.764 295.025 327.944 294.254 327.248C293.997 327.016 293.706 326.812 293.248 326.743C292.64 326.673 291.93 326.931 291.532 327.279C290.668 328.03 290.582 329.251 290.695 330.041C290.796 331.012 291.33 331.876 292.218 332.599C293.314 333.473 294.845 333.209 295.459 332.024C295.868 331.227 295.935 330.389 295.752 329.631Z" fill="#A9733D"/>
<path d="M297.185 331.038C297.197 331.125 297.207 331.191 297.219 331.279C297.371 331.817 297.706 332.329 298.11 332.808C298.288 333.007 298.502 333.2 298.784 333.339C299.423 333.628 300.411 333.487 300.946 333.052C301.551 332.585 301.763 331.973 301.943 331.409C302.19 330.523 302.062 329.624 301.576 328.842C301.245 328.352 300.767 327.883 299.985 327.637C299.829 327.592 299.673 327.547 299.524 327.546C299.338 327.55 299.194 327.593 299.018 327.663C298.448 327.857 298.05 328.205 297.801 328.554C297.552 328.903 297.419 329.28 297.323 329.652C297.242 330.134 297.119 330.577 297.185 331.038Z" fill="#A9733D"/>
<path d="M288.304 338.128C286.435 338.373 285.416 339.347 285.605 340.664C285.777 341.871 287.636 342.859 289.359 342.635C290.935 342.432 292.011 341.337 291.869 340.081C291.705 338.672 290.246 337.873 288.304 338.128Z" fill="#A9733D"/>
<path d="M303.498 343.498C301.296 346.436 298.52 349.041 295.582 346.839C292.644 344.636 292.049 340.468 294.251 337.53C296.454 334.592 300.621 333.996 303.559 336.199C306.497 338.402 305.701 340.56 303.498 343.498Z" fill="#A9733D"/>
<path d="M290.776 296.617C290.663 296.611 290.517 296.632 290.407 296.648C289.565 296.768 288.771 297.217 288.391 297.697C288.012 298.177 287.944 298.746 288.092 299.262C288.241 299.778 288.639 300.214 289.071 300.622C289.5 301.009 289.968 301.412 290.67 301.625C291.061 301.748 291.519 301.817 291.965 301.798C293.444 301.699 294.257 300.597 294.444 299.809C294.684 298.879 294.232 298.071 293.354 297.413C293.017 297.147 292.611 296.915 292.104 296.763C291.676 296.645 291.221 296.598 290.776 296.617Z" fill="#A9733D"/>
<path d="M298.319 294.531C298.12 293.663 297.592 292.843 296.821 292.148C296.563 291.916 296.273 291.711 295.815 291.642C295.207 291.572 294.497 291.831 294.099 292.179C293.235 292.929 293.149 294.15 293.261 294.94C293.363 295.911 293.897 296.775 294.785 297.499C295.881 298.372 297.412 298.108 298.026 296.923C298.435 296.126 298.502 295.288 298.319 294.531Z" fill="#A9733D"/>
<path d="M299.752 295.937C299.764 296.025 299.774 296.091 299.786 296.179C299.938 296.717 300.273 297.229 300.677 297.708C300.855 297.907 301.069 298.1 301.351 298.239C301.989 298.528 302.977 298.387 303.513 297.952C304.118 297.485 304.329 296.872 304.51 296.309C304.757 295.423 304.628 294.523 304.143 293.742C303.812 293.252 303.334 292.783 302.552 292.537C302.396 292.492 302.24 292.447 302.091 292.446C301.905 292.45 301.761 292.493 301.585 292.563C301.015 292.756 300.616 293.105 300.368 293.454C300.119 293.803 299.986 294.18 299.89 294.552C299.809 295.033 299.686 295.477 299.752 295.937Z" fill="#A9733D"/>
<path d="M290.871 303.03C289.002 303.275 287.984 304.249 288.172 305.565C288.344 306.772 290.203 307.76 291.926 307.536C293.503 307.333 294.579 306.239 294.436 304.983C294.272 303.573 292.814 302.774 290.871 303.03Z" fill="#A9733D"/>
<path d="M306.066 308.397C303.863 311.335 301.088 313.941 298.15 311.738C295.212 309.535 294.616 305.368 296.819 302.43C299.021 299.492 303.189 298.896 306.127 301.099C309.064 303.301 308.268 305.459 306.066 308.397Z" fill="#A9733D"/>
<path d="M258.146 303.305C258.036 303.299 257.893 303.319 257.786 303.335C256.965 303.452 256.191 303.89 255.821 304.358C255.45 304.826 255.384 305.381 255.529 305.885C255.674 306.388 256.062 306.813 256.483 307.211C256.901 307.588 257.358 307.981 258.043 308.189C258.425 308.309 258.871 308.376 259.306 308.358C260.748 308.261 261.541 307.186 261.723 306.418C261.957 305.511 261.517 304.723 260.66 304.081C260.332 303.822 259.936 303.595 259.441 303.447C259.024 303.332 258.58 303.286 258.146 303.305Z" fill="#A9733D"/>
<path d="M265.502 301.271C265.309 300.425 264.794 299.625 264.041 298.947C263.79 298.721 263.507 298.521 263.06 298.454C262.468 298.386 261.775 298.638 261.387 298.977C260.545 299.709 260.46 300.9 260.57 301.671C260.669 302.617 261.19 303.46 262.056 304.166C263.125 305.017 264.617 304.76 265.217 303.604C265.616 302.827 265.681 302.01 265.502 301.271Z" fill="#A9733D"/>
<path d="M266.9 302.643C266.912 302.728 266.921 302.792 266.933 302.878C267.081 303.403 267.407 303.902 267.802 304.37C267.975 304.563 268.185 304.752 268.459 304.887C269.082 305.169 270.045 305.031 270.568 304.607C271.158 304.152 271.364 303.555 271.54 303.005C271.781 302.141 271.656 301.264 271.182 300.502C270.859 300.024 270.393 299.567 269.63 299.326C269.478 299.283 269.326 299.239 269.181 299.238C268.999 299.242 268.859 299.284 268.687 299.352C268.131 299.541 267.743 299.88 267.5 300.22C267.258 300.561 267.128 300.929 267.034 301.291C266.956 301.761 266.835 302.193 266.9 302.643Z" fill="#A9733D"/>
<path d="M258.239 309.557C256.416 309.796 255.423 310.746 255.606 312.03C255.774 313.207 257.587 314.17 259.268 313.952C260.805 313.754 261.854 312.687 261.715 311.462C261.555 310.088 260.133 309.308 258.239 309.557Z" fill="#A9733D"/>
<path d="M273.057 314.793C270.909 317.658 268.202 320.199 265.337 318.051C262.472 315.903 261.891 311.838 264.039 308.973C266.187 306.108 270.251 305.527 273.116 307.675C275.981 309.823 275.205 311.927 273.057 314.793Z" fill="#A9733D"/>
<path d="M259.855 269.725C259.751 269.719 259.615 269.739 259.514 269.753C258.738 269.864 258.005 270.279 257.655 270.721C257.304 271.164 257.242 271.689 257.379 272.166C257.516 272.642 257.883 273.044 258.282 273.42C258.677 273.777 259.109 274.149 259.757 274.346C260.118 274.459 260.541 274.523 260.952 274.505C262.316 274.413 263.067 273.397 263.239 272.67C263.46 271.812 263.044 271.066 262.233 270.459C261.923 270.214 261.548 270 261.08 269.86C260.685 269.751 260.266 269.708 259.855 269.725Z" fill="#A9733D"/>
<path d="M266.814 267.799C266.631 266.999 266.144 266.243 265.432 265.601C265.195 265.387 264.927 265.198 264.504 265.135C263.944 265.07 263.288 265.308 262.921 265.629C262.124 266.322 262.044 267.449 262.148 268.177C262.242 269.073 262.735 269.87 263.554 270.538C264.565 271.344 265.977 271.1 266.544 270.007C266.922 269.271 266.983 268.498 266.814 267.799Z" fill="#A9733D"/>
<path d="M268.136 269.098C268.148 269.179 268.156 269.24 268.168 269.321C268.308 269.817 268.616 270.289 268.99 270.732C269.154 270.915 269.352 271.093 269.611 271.221C270.2 271.488 271.112 271.358 271.606 270.957C272.165 270.526 272.359 269.961 272.526 269.441C272.754 268.623 272.635 267.793 272.188 267.073C271.882 266.621 271.441 266.188 270.719 265.96C270.576 265.919 270.432 265.878 270.294 265.877C270.122 265.881 269.99 265.92 269.827 265.985C269.301 266.163 268.934 266.484 268.704 266.806C268.475 267.128 268.352 267.476 268.263 267.82C268.189 268.264 268.075 268.673 268.136 269.098Z" fill="#A9733D"/>
<path d="M259.942 275.64C258.218 275.866 257.278 276.764 257.452 277.979C257.611 279.092 259.326 280.004 260.916 279.797C262.37 279.61 263.363 278.6 263.232 277.442C263.08 276.141 261.735 275.404 259.942 275.64Z" fill="#A9733D"/>
<path d="M273.961 280.592C271.929 283.303 269.368 285.707 266.658 283.675C263.947 281.642 263.397 277.797 265.43 275.087C267.462 272.376 271.307 271.826 274.017 273.858C276.728 275.891 275.993 277.881 273.961 280.592Z" fill="#A9733D"/>
<path d="M227.482 278.962C227.38 278.956 227.248 278.975 227.149 278.989C226.39 279.098 225.674 279.503 225.332 279.935C224.99 280.368 224.929 280.881 225.063 281.346C225.197 281.811 225.556 282.204 225.945 282.572C226.331 282.921 226.753 283.284 227.387 283.476C227.739 283.587 228.152 283.649 228.553 283.632C229.887 283.542 230.62 282.549 230.788 281.839C231.004 281.001 230.597 280.272 229.806 279.679C229.502 279.44 229.136 279.23 228.679 279.094C228.293 278.987 227.883 278.945 227.482 278.962Z" fill="#A9733D"/>
<path d="M234.281 277.082C234.102 276.3 233.626 275.561 232.931 274.934C232.699 274.725 232.437 274.54 232.024 274.478C231.477 274.415 230.837 274.648 230.478 274.962C229.699 275.638 229.621 276.739 229.723 277.451C229.814 278.326 230.296 279.105 231.096 279.757C232.084 280.544 233.463 280.306 234.018 279.238C234.386 278.52 234.446 277.764 234.281 277.082Z" fill="#A9733D"/>
<path d="M235.572 278.35C235.584 278.429 235.592 278.488 235.604 278.568C235.74 279.053 236.042 279.514 236.407 279.946C236.567 280.125 236.76 280.299 237.013 280.424C237.589 280.685 238.48 280.558 238.962 280.166C239.508 279.745 239.699 279.193 239.862 278.685C240.084 277.886 239.968 277.076 239.531 276.371C239.232 275.93 238.801 275.507 238.096 275.285C237.956 275.244 237.815 275.204 237.681 275.203C237.513 275.207 237.384 275.245 237.224 275.309C236.711 275.483 236.352 275.797 236.127 276.111C235.903 276.426 235.783 276.766 235.697 277.101C235.624 277.535 235.513 277.935 235.572 278.35Z" fill="#A9733D"/>
<path d="M227.568 284.741C225.883 284.962 224.965 285.84 225.135 287.027C225.29 288.114 226.966 289.005 228.519 288.803C229.94 288.62 230.909 287.634 230.781 286.502C230.633 285.231 229.319 284.511 227.568 284.741Z" fill="#A9733D"/>
<path d="M241.264 289.58C239.278 292.228 236.777 294.577 234.129 292.591C231.481 290.606 230.943 286.849 232.929 284.201C234.914 281.553 238.671 281.016 241.319 283.001C243.967 284.987 243.249 286.932 241.264 289.58Z" fill="#A9733D"/>
<path d="M226.363 249.969C226.274 249.964 226.159 249.98 226.073 249.993C225.411 250.087 224.787 250.44 224.488 250.818C224.19 251.195 224.137 251.642 224.253 252.048C224.37 252.453 224.683 252.796 225.023 253.117C225.359 253.421 225.728 253.738 226.28 253.905C226.587 254.002 226.947 254.056 227.297 254.041C228.46 253.963 229.1 253.097 229.246 252.478C229.435 251.747 229.08 251.111 228.39 250.594C228.125 250.385 227.805 250.202 227.407 250.083C227.07 249.991 226.713 249.954 226.363 249.969Z" fill="#A9733D"/>
<path d="M232.292 248.33C232.136 247.648 231.721 247.004 231.114 246.457C230.912 246.275 230.684 246.114 230.324 246.06C229.846 246.005 229.288 246.208 228.975 246.481C228.296 247.071 228.228 248.031 228.317 248.652C228.396 249.415 228.816 250.094 229.514 250.663C230.376 251.349 231.579 251.142 232.062 250.211C232.383 249.584 232.436 248.925 232.292 248.33Z" fill="#A9733D"/>
<path d="M233.418 249.435C233.428 249.504 233.435 249.556 233.445 249.625C233.564 250.048 233.827 250.45 234.145 250.827C234.285 250.983 234.453 251.135 234.675 251.244C235.177 251.471 235.953 251.36 236.374 251.018C236.85 250.651 237.016 250.17 237.158 249.727C237.352 249.031 237.251 248.324 236.87 247.709C236.609 247.324 236.233 246.956 235.619 246.762C235.496 246.727 235.374 246.691 235.256 246.691C235.11 246.694 234.997 246.728 234.859 246.783C234.411 246.935 234.098 247.208 233.902 247.483C233.706 247.757 233.602 248.054 233.526 248.346C233.463 248.725 233.366 249.073 233.418 249.435Z" fill="#A9733D"/>
<path d="M226.437 255.01C224.968 255.202 224.167 255.968 224.315 257.003C224.451 257.951 225.912 258.728 227.266 258.552C228.506 258.392 229.351 257.532 229.24 256.545C229.111 255.437 227.964 254.809 226.437 255.01Z" fill="#A9733D"/>
<path d="M238.381 259.228C236.65 261.538 234.468 263.586 232.159 261.855C229.849 260.123 229.381 256.847 231.112 254.538C232.844 252.228 236.12 251.76 238.429 253.492C240.738 255.223 240.113 256.919 238.381 259.228Z" fill="#A9733D"/>
<path d="M202.834 261.849C202.749 261.844 202.639 261.86 202.557 261.871C201.924 261.962 201.328 262.3 201.042 262.66C200.757 263.02 200.706 263.448 200.818 263.836C200.929 264.223 201.229 264.55 201.553 264.857C201.875 265.148 202.227 265.45 202.755 265.61C203.048 265.703 203.393 265.755 203.727 265.74C204.838 265.666 205.449 264.838 205.589 264.246C205.77 263.548 205.431 262.941 204.771 262.446C204.518 262.247 204.212 262.072 203.831 261.958C203.51 261.87 203.169 261.834 202.834 261.849Z" fill="#A9733D"/>
<path d="M208.501 260.281C208.351 259.63 207.955 259.014 207.375 258.491C207.182 258.317 206.963 258.164 206.619 258.112C206.163 258.059 205.63 258.253 205.331 258.515C204.682 259.078 204.617 259.996 204.702 260.589C204.778 261.318 205.179 261.967 205.846 262.511C206.669 263.167 207.819 262.969 208.281 262.079C208.588 261.48 208.638 260.85 208.501 260.281Z" fill="#A9733D"/>
<path d="M209.577 261.337C209.586 261.403 209.594 261.453 209.603 261.518C209.717 261.923 209.968 262.307 210.272 262.667C210.406 262.816 210.567 262.962 210.778 263.066C211.258 263.283 212 263.177 212.402 262.85C212.857 262.499 213.016 262.04 213.151 261.616C213.337 260.951 213.24 260.275 212.876 259.688C212.627 259.32 212.268 258.968 211.68 258.783C211.563 258.749 211.446 258.715 211.334 258.715C211.194 258.718 211.087 258.75 210.954 258.803C210.526 258.948 210.226 259.209 210.04 259.471C209.853 259.734 209.753 260.017 209.681 260.296C209.62 260.658 209.528 260.991 209.577 261.337Z" fill="#A9733D"/>
<path d="M202.906 266.665C201.501 266.849 200.736 267.581 200.878 268.57C201.007 269.476 202.404 270.218 203.698 270.05C204.883 269.897 205.691 269.076 205.584 268.132C205.461 267.073 204.365 266.473 202.906 266.665Z" fill="#A9733D"/>
<path d="M214.32 270.698C212.665 272.905 210.58 274.863 208.373 273.208C206.166 271.553 205.719 268.423 207.374 266.216C209.028 264.009 212.159 263.561 214.366 265.216C216.572 266.871 215.975 268.491 214.32 270.698Z" fill="#A9733D"/>
<path d="M174.129 244.016C174.049 244.012 173.946 244.027 173.869 244.038C173.276 244.123 172.716 244.439 172.449 244.777C172.181 245.115 172.134 245.516 172.238 245.88C172.343 246.243 172.623 246.55 172.928 246.838C173.23 247.11 173.56 247.394 174.055 247.544C174.33 247.631 174.653 247.68 174.967 247.666C176.009 247.596 176.582 246.82 176.713 246.265C176.882 245.61 176.564 245.04 175.945 244.577C175.708 244.39 175.422 244.226 175.064 244.119C174.763 244.036 174.443 244.003 174.129 244.016Z" fill="#A9733D"/>
<path d="M179.443 242.547C179.303 241.936 178.931 241.359 178.387 240.868C178.206 240.705 178.001 240.561 177.679 240.512C177.251 240.463 176.75 240.645 176.47 240.89C175.861 241.419 175.8 242.279 175.88 242.836C175.951 243.52 176.328 244.128 176.953 244.638C177.725 245.253 178.803 245.068 179.236 244.233C179.524 243.671 179.572 243.081 179.443 242.547Z" fill="#A9733D"/>
<path d="M180.452 243.539C180.461 243.601 180.467 243.647 180.476 243.709C180.583 244.088 180.819 244.449 181.104 244.786C181.229 244.926 181.38 245.062 181.578 245.16C182.028 245.364 182.724 245.264 183.102 244.958C183.528 244.629 183.677 244.198 183.804 243.801C183.978 243.177 183.887 242.543 183.546 241.992C183.312 241.647 182.975 241.317 182.425 241.143C182.315 241.112 182.205 241.08 182.1 241.079C181.969 241.082 181.868 241.113 181.743 241.162C181.342 241.298 181.061 241.543 180.886 241.789C180.711 242.035 180.617 242.301 180.549 242.563C180.492 242.902 180.406 243.214 180.452 243.539Z" fill="#A9733D"/>
<path d="M174.196 248.534C172.879 248.706 172.162 249.393 172.295 250.32C172.416 251.17 173.726 251.866 174.94 251.708C176.05 251.565 176.808 250.794 176.708 249.91C176.592 248.917 175.565 248.354 174.196 248.534Z" fill="#A9733D"/>
<path d="M184.9 252.316C183.349 254.386 181.393 256.222 179.324 254.67C177.254 253.118 176.834 250.182 178.386 248.112C179.938 246.042 182.874 245.622 184.943 247.174C187.013 248.726 186.452 250.246 184.9 252.316Z" fill="#A9733D"/>
<path d="M196.481 229.982C196.401 229.978 196.298 229.993 196.221 230.004C195.628 230.089 195.068 230.405 194.8 230.743C194.533 231.081 194.485 231.482 194.59 231.846C194.694 232.209 194.975 232.516 195.279 232.804C195.581 233.076 195.911 233.36 196.406 233.51C196.682 233.597 197.004 233.646 197.318 233.632C198.36 233.562 198.933 232.786 199.065 232.231C199.234 231.576 198.916 231.006 198.297 230.543C198.06 230.356 197.773 230.192 197.416 230.085C197.115 230.002 196.794 229.969 196.481 229.982Z" fill="#A9733D"/>
<path d="M201.794 228.513C201.654 227.902 201.282 227.324 200.739 226.834C200.557 226.671 200.353 226.527 200.03 226.478C199.602 226.429 199.102 226.611 198.821 226.856C198.213 227.385 198.152 228.245 198.231 228.802C198.303 229.485 198.679 230.094 199.305 230.604C200.077 231.219 201.155 231.033 201.588 230.199C201.876 229.637 201.923 229.047 201.794 228.513Z" fill="#A9733D"/>
<path d="M202.804 229.505C202.813 229.567 202.82 229.613 202.828 229.675C202.935 230.054 203.171 230.414 203.456 230.752C203.581 230.892 203.732 231.028 203.93 231.126C204.38 231.33 205.076 231.23 205.454 230.924C205.88 230.595 206.029 230.163 206.156 229.767C206.33 229.143 206.239 228.509 205.898 227.958C205.664 227.613 205.328 227.283 204.777 227.109C204.667 227.078 204.557 227.046 204.452 227.045C204.321 227.048 204.22 227.078 204.095 227.128C203.694 227.264 203.413 227.509 203.238 227.755C203.063 228.001 202.969 228.267 202.901 228.529C202.845 228.868 202.758 229.18 202.804 229.505Z" fill="#A9733D"/>
<path d="M196.548 234.5C195.231 234.672 194.513 235.358 194.646 236.286C194.768 237.136 196.077 237.832 197.291 237.674C198.402 237.531 199.16 236.76 199.06 235.875C198.944 234.883 197.916 234.32 196.548 234.5Z" fill="#A9733D"/>
<path d="M207.252 238.282C205.7 240.351 203.745 242.187 201.675 240.635C199.605 239.083 199.186 236.147 200.737 234.078C202.289 232.008 205.225 231.588 207.295 233.14C209.365 234.692 208.804 236.212 207.252 238.282Z" fill="#A9733D"/>
<path d="M163.095 218.931C163.025 218.927 162.934 218.94 162.866 218.95C162.344 219.025 161.851 219.303 161.616 219.601C161.381 219.898 161.339 220.251 161.431 220.571C161.523 220.891 161.77 221.161 162.037 221.414C162.303 221.654 162.594 221.904 163.029 222.036C163.272 222.112 163.556 222.155 163.832 222.143C164.749 222.082 165.253 221.399 165.369 220.91C165.518 220.334 165.238 219.832 164.693 219.425C164.484 219.26 164.232 219.116 163.918 219.022C163.653 218.949 163.371 218.92 163.095 218.931Z" fill="#A9733D"/>
<path d="M167.771 217.638C167.648 217.101 167.321 216.592 166.842 216.161C166.683 216.017 166.502 215.89 166.219 215.848C165.842 215.804 165.402 215.965 165.155 216.18C164.619 216.646 164.566 217.403 164.636 217.892C164.699 218.494 165.03 219.03 165.58 219.479C166.259 220.02 167.208 219.856 167.59 219.122C167.843 218.627 167.884 218.108 167.771 217.638Z" fill="#A9733D"/>
<path d="M168.66 218.511C168.667 218.565 168.673 218.606 168.681 218.66C168.775 218.994 168.982 219.311 169.233 219.608C169.343 219.732 169.476 219.851 169.651 219.937C170.047 220.117 170.659 220.029 170.991 219.76C171.366 219.47 171.497 219.09 171.61 218.741C171.763 218.192 171.683 217.634 171.382 217.15C171.176 216.846 170.88 216.555 170.395 216.403C170.299 216.375 170.202 216.347 170.11 216.346C169.994 216.349 169.905 216.375 169.796 216.419C169.443 216.539 169.196 216.755 169.041 216.971C168.887 217.187 168.805 217.421 168.745 217.652C168.695 217.95 168.619 218.225 168.66 218.511Z" fill="#A9733D"/>
<path d="M163.154 222.906C161.995 223.058 161.364 223.662 161.481 224.478C161.587 225.226 162.74 225.839 163.808 225.7C164.786 225.574 165.453 224.896 165.365 224.117C165.263 223.243 164.359 222.748 163.154 222.906Z" fill="#A9733D"/>
<path d="M172.574 226.235C171.208 228.057 169.488 229.672 167.666 228.306C165.845 226.941 165.476 224.357 166.841 222.535C168.207 220.714 170.79 220.344 172.612 221.71C174.433 223.076 173.94 224.414 172.574 226.235Z" fill="#A9733D"/>
<path d="M138.546 213.22C138.492 213.217 138.422 213.227 138.369 213.234C137.966 213.292 137.586 213.507 137.404 213.737C137.222 213.966 137.19 214.239 137.261 214.486C137.332 214.733 137.523 214.942 137.729 215.137C137.935 215.322 138.159 215.515 138.495 215.617C138.683 215.676 138.902 215.709 139.115 215.7C139.823 215.653 140.213 215.125 140.302 214.748C140.417 214.303 140.201 213.916 139.78 213.601C139.619 213.474 139.424 213.362 139.182 213.29C138.977 213.233 138.759 213.211 138.546 213.22Z" fill="#A9733D"/>
<path d="M142.157 212.221C142.062 211.806 141.809 211.413 141.44 211.08C141.317 210.969 141.178 210.871 140.958 210.838C140.667 210.805 140.328 210.928 140.137 211.095C139.723 211.454 139.682 212.039 139.736 212.417C139.784 212.882 140.04 213.296 140.465 213.642C140.99 214.06 141.723 213.934 142.017 213.367C142.213 212.985 142.245 212.584 142.157 212.221Z" fill="#A9733D"/>
<path d="M142.843 212.895C142.849 212.937 142.854 212.969 142.86 213.011C142.932 213.268 143.093 213.513 143.286 213.743C143.371 213.838 143.474 213.931 143.609 213.997C143.915 214.136 144.388 214.068 144.644 213.86C144.934 213.636 145.035 213.343 145.122 213.073C145.24 212.649 145.178 212.218 144.946 211.844C144.787 211.609 144.558 211.385 144.184 211.267C144.109 211.245 144.035 211.224 143.963 211.223C143.874 211.226 143.805 211.246 143.721 211.28C143.448 211.372 143.257 211.539 143.138 211.706C143.019 211.873 142.955 212.054 142.909 212.232C142.871 212.462 142.812 212.675 142.843 212.895Z" fill="#A9733D"/>
<path d="M138.591 216.29C137.696 216.407 137.208 216.873 137.298 217.504C137.381 218.081 138.271 218.554 139.096 218.447C139.851 218.35 140.366 217.826 140.298 217.225C140.22 216.55 139.521 216.167 138.591 216.29Z" fill="#A9733D"/>
<path d="M145.867 218.86C144.812 220.267 143.483 221.515 142.076 220.46C140.669 219.405 140.384 217.41 141.439 216.003C142.494 214.596 144.489 214.311 145.896 215.365C147.302 216.42 146.921 217.453 145.867 218.86Z" fill="#A9733D"/>
<path d="M151.549 230.845C151.484 230.842 151.4 230.854 151.337 230.863C150.853 230.932 150.397 231.19 150.179 231.466C149.961 231.741 149.922 232.068 150.007 232.365C150.093 232.661 150.321 232.911 150.569 233.146C150.816 233.368 151.085 233.6 151.488 233.722C151.713 233.793 151.976 233.832 152.232 233.821C153.082 233.764 153.549 233.131 153.656 232.679C153.794 232.145 153.535 231.68 153.03 231.302C152.837 231.15 152.603 231.016 152.312 230.929C152.066 230.861 151.805 230.834 151.549 230.845Z" fill="#A9733D"/>
<path d="M155.882 229.648C155.767 229.149 155.464 228.678 155.021 228.279C154.873 228.146 154.706 228.028 154.443 227.988C154.094 227.948 153.686 228.097 153.458 228.297C152.961 228.728 152.912 229.429 152.976 229.883C153.035 230.44 153.342 230.937 153.852 231.353C154.481 231.854 155.36 231.703 155.713 231.022C155.948 230.564 155.987 230.083 155.882 229.648Z" fill="#A9733D"/>
<path d="M156.705 230.456C156.712 230.506 156.717 230.544 156.725 230.594C156.812 230.903 157.004 231.197 157.236 231.473C157.338 231.587 157.461 231.698 157.623 231.777C157.99 231.944 158.558 231.862 158.865 231.613C159.213 231.344 159.334 230.993 159.438 230.669C159.58 230.16 159.506 229.643 159.227 229.195C159.037 228.913 158.762 228.644 158.313 228.502C158.224 228.476 158.134 228.451 158.048 228.45C157.941 228.452 157.859 228.477 157.757 228.517C157.43 228.628 157.201 228.828 157.058 229.029C156.915 229.229 156.839 229.446 156.784 229.66C156.738 229.936 156.667 230.191 156.705 230.456Z" fill="#A9733D"/>
<path d="M151.604 234.53C150.53 234.671 149.945 235.23 150.053 235.987C150.152 236.68 151.22 237.247 152.21 237.119C153.115 237.002 153.733 236.373 153.652 235.652C153.557 234.842 152.719 234.383 151.604 234.53Z" fill="#A9733D"/>
<path d="M160.331 237.614C159.066 239.302 157.472 240.798 155.784 239.533C154.096 238.268 153.754 235.874 155.019 234.186C156.285 232.498 158.679 232.156 160.366 233.421C162.054 234.687 161.597 235.926 160.331 237.614Z" fill="#A9733D"/>
<path d="M128.773 222.753C128.728 222.75 128.669 222.759 128.625 222.765C128.286 222.814 127.967 222.994 127.814 223.187C127.662 223.38 127.634 223.609 127.694 223.816C127.754 224.024 127.914 224.199 128.088 224.363C128.26 224.519 128.448 224.681 128.731 224.766C128.888 224.816 129.072 224.843 129.251 224.836C129.846 224.796 130.173 224.353 130.248 224.036C130.344 223.662 130.163 223.337 129.81 223.073C129.674 222.966 129.511 222.873 129.307 222.812C129.135 222.764 128.952 222.745 128.773 222.753Z" fill="#A9733D"/>
<path d="M131.806 221.914C131.726 221.566 131.514 221.236 131.203 220.956C131.1 220.863 130.983 220.781 130.799 220.753C130.555 220.725 130.269 220.829 130.109 220.969C129.762 221.27 129.727 221.761 129.773 222.079C129.813 222.469 130.028 222.817 130.385 223.108C130.826 223.459 131.441 223.353 131.688 222.876C131.853 222.556 131.879 222.219 131.806 221.914Z" fill="#A9733D"/>
<path d="M132.382 222.479C132.387 222.514 132.391 222.541 132.396 222.576C132.457 222.792 132.591 222.998 132.754 223.191C132.826 223.271 132.912 223.349 133.025 223.404C133.282 223.521 133.679 223.464 133.894 223.289C134.137 223.101 134.222 222.855 134.295 222.629C134.394 222.272 134.343 221.911 134.147 221.597C134.014 221.4 133.822 221.211 133.508 221.112C133.445 221.094 133.382 221.076 133.322 221.076C133.248 221.077 133.19 221.094 133.119 221.123C132.89 221.2 132.73 221.34 132.63 221.481C132.53 221.621 132.476 221.773 132.437 221.922C132.405 222.116 132.356 222.294 132.382 222.479Z" fill="#A9733D"/>
<path d="M128.812 225.331C128.06 225.429 127.651 225.821 127.726 226.35C127.796 226.835 128.543 227.232 129.236 227.142C129.87 227.061 130.302 226.621 130.245 226.116C130.179 225.549 129.593 225.228 128.812 225.331Z" fill="#A9733D"/>
<path d="M134.921 227.489C134.035 228.67 132.919 229.718 131.738 228.832C130.557 227.946 130.317 226.271 131.203 225.089C132.089 223.908 133.764 223.669 134.945 224.554C136.126 225.44 135.806 226.307 134.921 227.489Z" fill="#A9733D"/>
</g>
<path fill-rule="evenodd" clip-rule="evenodd" d="M50.0975 17.1066C53.6151 14.8903 57.0745 14.4828 60.4488 16.7445C56.578 16.8075 53.6361 21.4783 50.0975 17.1066ZM65.2618 15.7184C69.9388 13.859 74.1119 14.1374 77.6242 17.5581C73.0347 16.7872 68.491 21.6795 65.2618 15.7184ZM56.7147 23.9937C60.0467 21.6263 63.4225 21.0501 66.8507 23.09C63.0736 23.3562 60.4463 28.0846 56.7329 23.9984L56.7147 23.9937ZM69.4526 25.0012C73.8546 23.2479 77.8048 23.5121 81.093 26.7334C76.7681 26.0131 72.4948 30.626 69.4707 25.006L69.4526 25.0012ZM62.8321 29.4093C67.509 27.55 71.6821 27.8284 75.1884 31.2475C70.5747 30.4702 66.031 35.3625 62.8321 29.4093ZM78.3136 32.2827C81.9313 29.6271 85.6231 28.9366 89.4284 31.1143C85.2586 31.4427 82.4566 36.7181 78.3015 32.2795L78.3136 32.2827ZM75.6393 36.922C78.7441 40.8412 82.4994 42.6549 87.2736 41.4144C82.8816 39.8217 81.4323 33.3416 75.6273 36.9188L75.6393 36.922ZM65.7337 35.0034C71.0895 36.3146 74.6121 39.2215 75.4682 44.4543C71.8908 40.8442 64.6786 42.3089 65.7216 35.0002L65.7337 35.0034ZM81.3204 49.1304C86.0123 50.9297 90.2095 50.5958 93.6512 47.1348C89.0343 47.9639 84.4308 43.1263 81.2962 49.124L81.3204 49.1304ZM89.8093 38.6647C93.986 39.9773 97.6083 39.447 100.402 36.2742C96.4334 37.2426 92.1778 33.2685 89.7851 38.6583L89.8093 38.6647ZM76.0344 49.4194C78.175 52.4782 78.6432 55.5421 76.6696 58.606C76.4989 55.1868 72.1282 52.7068 76.0344 49.4194ZM71.117 45.1878C71.9342 50.5635 70.5583 54.8822 65.9749 57.6592C67.9903 53.0373 63.8616 47.0493 71.1121 45.2056L71.117 45.1878ZM64.746 43.2515C64.1947 49.2292 61.5704 53.5182 55.917 55.3241C59.3088 50.8804 56.4462 43.3576 64.746 43.2515ZM57.5213 36.4784C57.8864 42.4683 55.9286 47.0927 50.6164 49.7157C53.3208 44.8227 49.3735 37.811 57.5454 36.4848L57.5213 36.4784ZM47.3652 26.744C50.1076 30.019 50.9658 33.4347 49.0822 37.0963C48.5215 33.2298 43.3173 30.8615 47.3652 26.744ZM35.5197 28.9315C37.7785 32.5317 40.8027 34.4141 44.9394 33.8026C41.3879 32.049 40.7887 26.4438 35.5378 28.9363L35.5197 28.9315ZM43.1269 36.6793C45.8693 39.9543 46.7276 43.37 44.8439 47.0316C44.2591 43.1587 39.05 40.8083 43.116 36.6956L43.1269 36.6793ZM37.9354 37.7396C34.725 40.5408 33.3537 43.7955 34.6752 47.7225C35.8105 43.9782 41.3185 42.421 37.9245 37.7558L37.9354 37.7396ZM32.7106 33.4715C33.6404 38.0286 32.6542 41.7484 28.8508 44.3486C30.3657 40.3281 26.5791 35.368 32.6997 33.4877L32.7106 33.4715ZM29.2437 28.4554C25.1258 29.4736 22.4106 31.7167 21.7665 35.7501C24.4953 32.9812 30.0533 34.097 29.2328 28.4716L29.2437 28.4554ZM36.216 9.75694C39.9062 7.8349 43.391 7.71479 46.5619 10.2482C42.6842 10.0031 39.3642 14.421 36.2051 9.77321L36.216 9.75694Z" fill="#89A829"/>
<path d="M58.3662 32.2867C59.54 33.5242 60.499 34.6428 61.2217 35.575C60.4298 34.6085 59.4688 33.4958 58.3662 32.2867C52.4915 26.0924 41.2364 16.9153 27.2977 13.1826C10.5742 8.70413 2.13111 5.41751 0 4.334V0C3.60408 2.13788 14.1093 7.20154 27.2977 10.3531C38.6895 13.0754 51.3752 24.6199 58.3662 32.2867Z" fill="#D9D9D9"/>
</g>
</svg>
