<svg width="375" height="426" viewBox="0 0 375 426" fill="none" xmlns="http://www.w3.org/2000/svg">
<mask id="mask0_379_4810" style="mask-type:alpha" maskUnits="userSpaceOnUse" x="0" y="0" width="375" height="426">
<rect width="375" height="426" fill="white"/>
</mask>
<g mask="url(#mask0_379_4810)">
<g opacity="0.2">
<path d="M374.389 33.7185C374.402 33.8151 374.444 33.9354 374.476 34.0257C374.717 34.7177 375.229 35.3153 375.698 35.5569C376.166 35.7984 376.659 35.7615 377.071 35.5504C377.483 35.3393 377.786 34.9301 378.06 34.4972C378.316 34.0705 378.579 33.6074 378.643 32.9778C378.682 32.6266 378.665 32.2279 378.575 31.8542C378.245 30.6193 377.179 30.1138 376.482 30.087C375.655 30.0377 375.046 30.5538 374.635 31.4057C374.466 31.7345 374.336 32.1171 374.292 32.5711C374.264 32.9524 374.299 33.3449 374.389 33.7185Z" fill="#A9733D"/>
<path d="M371.374 27.6833C370.674 27.995 370.067 28.5776 369.607 29.3456C369.453 29.6016 369.328 29.8814 369.346 30.2801C369.387 30.8056 369.723 31.3633 370.084 31.6425C370.862 32.2487 371.909 32.1196 372.559 31.8932C373.363 31.6466 374.005 31.0514 374.471 30.1806C375.028 29.109 374.551 27.8579 373.447 27.5343C372.705 27.3207 371.985 27.4029 371.374 27.6833Z" fill="#A9733D"/>
<path d="M372.327 26.237C372.399 26.2119 372.453 26.193 372.525 26.1679C372.955 25.9504 373.333 25.5826 373.671 25.1609C373.81 24.9776 373.938 24.7643 374.009 24.5034C374.148 23.915 373.864 23.1027 373.408 22.7219C372.912 22.2873 372.359 22.2101 371.853 22.1505C371.062 22.0886 370.323 22.3465 369.742 22.8864C369.383 23.2479 369.065 23.7298 368.986 24.4322C368.974 24.5714 368.962 24.7107 368.986 24.8373C369.02 24.994 369.08 25.1081 369.169 25.2459C369.427 25.6959 369.787 25.9751 370.124 26.1278C370.46 26.2804 370.801 26.3302 371.132 26.3499C371.553 26.3382 371.948 26.3691 372.327 26.237Z" fill="#A9733D"/>
<path d="M381.821 18.8326C384.671 20.2091 387.336 22.1251 385.959 24.9754C384.582 27.8256 381.156 29.0203 378.305 27.6438C375.455 26.2673 374.26 22.8408 375.637 19.9905C377.013 17.1403 378.97 17.4561 381.821 18.8326Z" fill="#A9733D"/>
<path d="M376.007 57.3574C375.351 57.6496 374.782 58.1956 374.351 58.9153C374.207 59.1553 374.09 59.4175 374.106 59.7913C374.145 60.2837 374.46 60.8064 374.798 61.0681C375.527 61.6362 376.509 61.5153 377.118 61.3031C377.871 61.0719 378.473 60.5141 378.909 59.698C379.431 58.6936 378.985 57.5211 377.95 57.2178C377.254 57.0175 376.579 57.0947 376.007 57.3574Z" fill="#A9733D"/>
<path d="M376.901 56.0021C376.968 55.9785 377.019 55.9609 377.087 55.9373C377.49 55.7335 377.843 55.3887 378.161 54.9935C378.291 54.8217 378.41 54.6218 378.477 54.3773C378.607 53.8259 378.342 53.0645 377.914 52.7077C377.449 52.3003 376.931 52.228 376.456 52.1721C375.716 52.1141 375.022 52.3558 374.478 52.8618C374.141 53.2006 373.844 53.6523 373.77 54.3106C373.758 54.4411 373.747 54.5715 373.769 54.6902C373.802 54.8371 373.858 54.944 373.941 55.0732C374.183 55.4949 374.52 55.7567 374.836 55.8997C375.151 56.0428 375.471 56.0894 375.781 56.1079C376.175 56.0969 376.545 56.1259 376.901 56.0021Z" fill="#A9733D"/>
<path d="M337.586 65.7703C337.582 65.8481 337.596 65.9489 337.607 66.0246C337.69 66.6044 338 67.1518 338.33 67.4132C338.66 67.6746 339.053 67.7214 339.408 67.6192C339.764 67.5169 340.064 67.2424 340.345 66.945C340.612 66.6496 340.889 66.3269 341.036 65.8429C341.121 65.5735 341.169 65.2581 341.155 64.9512C341.087 63.9321 340.328 63.3717 339.785 63.2435C339.145 63.0779 338.587 63.3891 338.134 63.9941C337.951 64.2261 337.791 64.5062 337.687 64.8556C337.605 65.1502 337.573 65.4635 337.586 65.7703Z" fill="#A9733D"/>
<path d="M336.149 60.5726C335.551 60.7094 334.986 61.0732 334.507 61.6048C334.347 61.7819 334.206 61.9822 334.159 62.2977C334.111 62.7161 334.289 63.2052 334.529 63.4796C335.045 64.0745 335.887 64.1343 336.431 64.0565C337.1 63.9866 337.695 63.6185 338.194 63.007C338.795 62.2521 338.614 61.1976 337.797 60.7742C337.248 60.4926 336.671 60.4465 336.149 60.5726Z" fill="#A9733D"/>
<path d="M337.118 59.5856C337.179 59.577 337.224 59.5705 337.284 59.5619C337.655 59.4574 338.008 59.2269 338.338 58.9481C338.475 58.8256 338.608 58.678 338.704 58.4842C338.903 58.0441 338.806 57.3633 338.506 56.9945C338.184 56.5774 337.762 56.4319 337.374 56.3073C336.764 56.1373 336.144 56.226 335.606 56.5602C335.268 56.7886 334.945 57.1178 334.775 57.6566C334.744 57.7639 334.713 57.8713 334.713 57.9743C334.716 58.1025 334.745 58.2012 334.794 58.3229C334.927 58.7155 335.167 58.99 335.407 59.1614C335.647 59.3328 335.907 59.4243 336.164 59.4906C336.495 59.546 336.801 59.631 337.118 59.5856Z" fill="#A9733D"/>
<path d="M342.004 65.7037C342.172 66.9915 342.843 67.693 343.75 67.5633C344.582 67.4444 345.262 66.1638 345.108 64.9768C344.968 63.8907 344.214 63.1495 343.349 63.2475C342.378 63.3606 341.828 64.3654 342.004 65.7037Z" fill="#A9733D"/>
<path d="M345.702 55.2361C347.726 56.7536 349.521 58.6657 348.004 60.6897C346.486 62.7137 343.615 63.1242 341.591 61.6067C339.567 60.0891 339.156 57.2181 340.674 55.1942C342.191 53.1702 343.678 53.7185 345.702 55.2361Z" fill="#A9733D"/>
<path d="M358.666 73.9021C358.662 73.9799 358.676 74.0808 358.687 74.1564C358.77 74.7362 359.08 75.2836 359.41 75.545C359.741 75.8065 360.133 75.8533 360.488 75.751C360.844 75.6487 361.144 75.3743 361.425 75.0768C361.692 74.7815 361.97 74.4588 362.116 73.9748C362.201 73.7054 362.249 73.3899 362.236 73.0831C362.167 72.0639 361.408 71.5036 360.865 71.3754C360.225 71.2097 359.668 71.5209 359.214 72.126C359.031 72.3579 358.871 72.6381 358.767 72.9874C358.685 73.282 358.653 73.5953 358.666 73.9021Z" fill="#A9733D"/>
<path d="M357.229 68.7044C356.632 68.8413 356.067 69.205 355.587 69.7366C355.428 69.9138 355.286 70.114 355.239 70.4295C355.191 70.848 355.369 71.337 355.609 71.6114C356.126 72.2064 356.967 72.2661 357.511 72.1883C358.18 72.1184 358.775 71.7503 359.274 71.1388C359.875 70.3839 359.694 69.3295 358.877 68.906C358.328 68.6244 357.751 68.5783 357.229 68.7044Z" fill="#A9733D"/>
<path d="M358.198 67.7175C358.259 67.7088 358.304 67.7023 358.364 67.6937C358.735 67.5892 359.088 67.3587 359.418 67.0799C359.555 66.9575 359.688 66.8098 359.784 66.616C359.983 66.1759 359.886 65.4952 359.586 65.1264C359.264 64.7093 358.842 64.5638 358.454 64.4392C357.844 64.2692 357.224 64.3578 356.686 64.692C356.348 64.9204 356.025 65.2496 355.855 65.7884C355.824 65.8958 355.794 66.0031 355.793 66.1061C355.796 66.2343 355.825 66.333 355.874 66.4548C356.007 66.8473 356.247 67.1218 356.487 67.2932C356.728 67.4647 356.987 67.5561 357.244 67.6224C357.576 67.6779 357.881 67.7629 358.198 67.7175Z" fill="#A9733D"/>
<path d="M363.084 73.8355C363.252 75.1233 363.923 75.8248 364.83 75.6952C365.662 75.5763 366.342 74.2956 366.188 73.1086C366.048 72.0225 365.294 71.2814 364.429 71.3794C363.458 71.4925 362.908 72.4973 363.084 73.8355Z" fill="#A9733D"/>
<path d="M366.782 63.3679C368.806 64.8855 370.601 66.7976 369.084 68.8215C367.566 70.8455 364.695 71.256 362.671 69.7385C360.647 68.2209 360.236 65.35 361.754 63.326C363.271 61.302 364.758 61.8504 366.782 63.3679Z" fill="#A9733D"/>
<path d="M353.847 48.4573C353.843 48.5351 353.857 48.6359 353.868 48.7116C353.951 49.2914 354.261 49.8388 354.591 50.1002C354.922 50.3617 355.314 50.4085 355.67 50.3062C356.025 50.2039 356.325 49.9294 356.607 49.632C356.873 49.3366 357.151 49.014 357.297 48.5299C357.382 48.2606 357.43 47.9451 357.417 47.6382C357.348 46.6191 356.589 46.0587 356.046 45.9306C355.406 45.7649 354.849 46.0761 354.395 46.6811C354.213 46.9131 354.052 47.1933 353.948 47.5426C353.867 47.8372 353.834 48.1505 353.847 48.4573Z" fill="#A9733D"/>
<path d="M352.41 43.2601C351.813 43.3969 351.248 43.7607 350.768 44.2923C350.609 44.4694 350.468 44.6697 350.42 44.9852C350.372 45.4036 350.55 45.8927 350.79 46.1671C351.307 46.762 352.148 46.8218 352.692 46.744C353.361 46.6741 353.956 46.306 354.455 45.6945C355.057 44.9396 354.875 43.8851 354.059 43.4617C353.509 43.1801 352.932 43.134 352.41 43.2601Z" fill="#A9733D"/>
<path d="M353.38 42.2736C353.44 42.265 353.486 42.2585 353.546 42.2499C353.917 42.1454 354.269 41.9149 354.6 41.6361C354.737 41.5136 354.87 41.366 354.965 41.1722C355.165 40.732 355.067 40.0513 354.768 39.6825C354.446 39.2654 354.024 39.1199 353.636 38.9953C353.026 38.8253 352.406 38.9139 351.867 39.2482C351.53 39.4766 351.207 39.8058 351.037 40.3446C351.006 40.4519 350.975 40.5593 350.975 40.6623C350.977 40.7905 351.007 40.8892 351.055 41.0109C351.188 41.4035 351.428 41.6779 351.669 41.8494C351.909 42.0208 352.169 42.1123 352.425 42.1786C352.757 42.234 353.062 42.319 353.38 42.2736Z" fill="#A9733D"/>
<path d="M358.265 48.3912C358.434 49.679 359.105 50.3805 360.011 50.2508C360.843 50.1319 361.524 48.8513 361.369 47.6643C361.229 46.5782 360.475 45.837 359.61 45.935C358.639 46.0481 358.089 47.0529 358.265 48.3912Z" fill="#A9733D"/>
<path d="M361.963 37.9231C363.987 39.4406 365.782 41.3527 364.265 43.3767C362.747 45.4007 359.876 45.8112 357.852 44.2937C355.828 42.7761 355.417 39.9051 356.935 37.8812C358.453 35.8572 359.939 36.4055 361.963 37.9231Z" fill="#A9733D"/>
<path d="M340.472 89.5173C340.468 89.5863 340.481 89.6758 340.491 89.743C340.564 90.2577 340.839 90.7436 341.132 90.9757C341.426 91.2078 341.774 91.2493 342.09 91.1585C342.405 91.0677 342.672 90.8241 342.922 90.56C343.158 90.2978 343.404 90.0114 343.535 89.5817C343.61 89.3426 343.652 89.0625 343.641 88.7902C343.58 87.8854 342.906 87.388 342.424 87.2742C341.856 87.1272 341.361 87.4034 340.959 87.9405C340.796 88.1464 340.654 88.3951 340.561 88.7052C340.489 88.9667 340.46 89.2449 340.472 89.5173Z" fill="#A9733D"/>
<path d="M339.196 84.9038C338.666 85.0253 338.165 85.3482 337.739 85.8202C337.597 85.9775 337.472 86.1553 337.43 86.4353C337.387 86.8069 337.545 87.2411 337.758 87.4847C338.217 88.0129 338.964 88.0659 339.447 87.9969C340.041 87.9348 340.569 87.608 341.012 87.0651C341.546 86.395 341.384 85.4588 340.66 85.0828C340.172 84.8328 339.66 84.7919 339.196 84.9038Z" fill="#A9733D"/>
<path d="M340.057 84.0277C340.11 84.0201 340.15 84.0143 340.204 84.0066C340.533 83.9139 340.846 83.7093 341.14 83.4618C341.261 83.3531 341.379 83.222 341.464 83.05C341.641 82.6592 341.555 82.055 341.289 81.7276C341.003 81.3573 340.628 81.2282 340.284 81.1175C339.742 80.9666 339.192 81.0453 338.714 81.342C338.414 81.5447 338.128 81.837 337.977 82.3153C337.949 82.4106 337.922 82.5059 337.921 82.5973C337.924 82.7111 337.95 82.7987 337.993 82.9068C338.111 83.2553 338.324 83.4989 338.538 83.6511C338.751 83.8033 338.982 83.8845 339.209 83.9433C339.504 83.9926 339.775 84.068 340.057 84.0277Z" fill="#A9733D"/>
<path d="M344.393 89.4582C344.543 90.6014 345.139 91.2242 345.944 91.1091C346.682 91.0035 347.286 89.8667 347.149 88.813C347.025 87.8488 346.356 87.1909 345.588 87.2779C344.726 87.3783 344.237 88.2702 344.393 89.4582Z" fill="#A9733D"/>
<path d="M347.677 80.1673C349.474 81.5144 351.067 83.2118 349.72 85.0085C348.373 86.8052 345.824 87.1697 344.027 85.8225C342.231 84.4754 341.866 81.9268 343.213 80.1301C344.561 78.3334 345.88 78.8202 347.677 80.1673Z" fill="#A9733D"/>
<path d="M319.01 87.9489C319.006 88.018 319.019 88.1075 319.029 88.1746C319.102 88.6893 319.377 89.1752 319.671 89.4073C319.964 89.6394 320.312 89.6809 320.628 89.5901C320.943 89.4993 321.21 89.2557 321.46 88.9916C321.696 88.7295 321.943 88.443 322.073 88.0134C322.148 87.7742 322.19 87.4942 322.179 87.2218C322.118 86.3171 321.444 85.8197 320.962 85.7059C320.394 85.5588 319.899 85.8351 319.497 86.3722C319.334 86.578 319.192 86.8268 319.099 87.1369C319.027 87.3984 318.999 87.6765 319.01 87.9489Z" fill="#A9733D"/>
<path d="M317.734 83.3354C317.204 83.4569 316.703 83.7799 316.277 84.2518C316.135 84.4091 316.01 84.5869 315.968 84.867C315.925 85.2385 316.083 85.6727 316.296 85.9163C316.755 86.4445 317.502 86.4976 317.985 86.4285C318.579 86.3665 319.107 86.0397 319.55 85.4968C320.084 84.8266 319.923 83.8904 319.198 83.5145C318.71 83.2644 318.198 83.2235 317.734 83.3354Z" fill="#A9733D"/>
<path d="M318.595 82.4589C318.648 82.4512 318.689 82.4454 318.742 82.4378C319.071 82.345 319.384 82.1404 319.678 81.8929C319.799 81.7842 319.917 81.6531 320.002 81.4811C320.179 81.0904 320.093 80.4861 319.827 80.1587C319.541 79.7885 319.166 79.6593 318.822 79.5487C318.28 79.3978 317.73 79.4765 317.252 79.7732C316.952 79.9759 316.666 80.2681 316.515 80.7464C316.487 80.8417 316.46 80.937 316.459 81.0285C316.462 81.1423 316.488 81.2299 316.531 81.338C316.649 81.6865 316.862 81.9301 317.076 82.0823C317.289 82.2345 317.52 82.3157 317.747 82.3745C318.042 82.4237 318.313 82.4992 318.595 82.4589Z" fill="#A9733D"/>
<path d="M322.931 87.8899C323.081 89.0331 323.677 89.6558 324.482 89.5407C325.22 89.4352 325.824 88.2983 325.687 87.2446C325.563 86.2804 324.894 85.6225 324.126 85.7095C323.264 85.8099 322.775 86.7019 322.931 87.8899Z" fill="#A9733D"/>
<path d="M326.215 78.598C328.012 79.9451 329.605 81.6425 328.258 83.4392C326.911 85.2359 324.362 85.6003 322.565 84.2532C320.769 82.906 320.404 80.3575 321.751 78.5608C323.099 76.7641 324.418 77.2508 326.215 78.598Z" fill="#A9733D"/>
<path d="M323.096 107.904C323.092 107.971 323.104 108.058 323.114 108.124C323.186 108.626 323.454 109.1 323.74 109.326C324.026 109.552 324.366 109.593 324.673 109.504C324.981 109.416 325.241 109.178 325.485 108.921C325.715 108.665 325.956 108.386 326.083 107.967C326.156 107.733 326.197 107.46 326.186 107.195C326.126 106.312 325.47 105.827 325 105.716C324.445 105.573 323.963 105.842 323.57 106.366C323.412 106.567 323.273 106.809 323.183 107.112C323.112 107.367 323.084 107.638 323.096 107.904Z" fill="#A9733D"/>
<path d="M321.852 103.405C321.335 103.524 320.846 103.838 320.431 104.299C320.292 104.452 320.17 104.626 320.129 104.899C320.088 105.261 320.242 105.684 320.449 105.922C320.897 106.437 321.625 106.489 322.096 106.422C322.675 106.361 323.19 106.042 323.622 105.513C324.143 104.859 323.986 103.946 323.279 103.58C322.803 103.336 322.304 103.296 321.852 103.405Z" fill="#A9733D"/>
<path d="M322.691 102.55C322.743 102.543 322.782 102.537 322.835 102.53C323.156 102.439 323.461 102.24 323.747 101.998C323.865 101.892 323.981 101.764 324.063 101.597C324.236 101.216 324.152 100.626 323.892 100.307C323.614 99.946 323.249 99.8201 322.913 99.7122C322.384 99.565 321.848 99.6417 321.382 99.9311C321.089 100.129 320.81 100.414 320.663 100.88C320.636 100.973 320.609 101.066 320.608 101.155C320.611 101.266 320.637 101.352 320.678 101.457C320.794 101.797 321.001 102.035 321.209 102.183C321.418 102.331 321.643 102.411 321.864 102.468C322.152 102.516 322.416 102.59 322.691 102.55Z" fill="#A9733D"/>
<path d="M326.92 107.848C327.066 108.963 327.647 109.57 328.432 109.458C329.152 109.355 329.741 108.246 329.607 107.219C329.486 106.278 328.834 105.637 328.085 105.721C327.244 105.819 326.767 106.689 326.92 107.848Z" fill="#A9733D"/>
<path d="M330.122 98.7846C331.874 100.098 333.429 101.754 332.115 103.506C330.801 105.258 328.315 105.613 326.563 104.3C324.811 102.986 324.455 100.5 325.769 98.7483C327.083 96.9961 328.37 97.4708 330.122 98.7846Z" fill="#A9733D"/>
<path d="M302.563 106.858C302.559 106.922 302.571 107.005 302.58 107.067C302.648 107.542 302.901 107.99 303.172 108.204C303.443 108.418 303.764 108.456 304.055 108.373C304.346 108.289 304.592 108.064 304.823 107.82C305.041 107.579 305.268 107.314 305.388 106.918C305.458 106.697 305.497 106.439 305.486 106.188C305.43 105.353 304.808 104.894 304.364 104.789C303.839 104.653 303.383 104.908 303.011 105.404C302.862 105.594 302.73 105.823 302.645 106.109C302.578 106.351 302.552 106.607 302.563 106.858Z" fill="#A9733D"/>
<path d="M301.385 102.602C300.896 102.714 300.433 103.012 300.041 103.447C299.91 103.593 299.795 103.757 299.756 104.015C299.716 104.358 299.862 104.758 300.058 104.983C300.482 105.471 301.171 105.519 301.617 105.456C302.164 105.398 302.652 105.097 303.06 104.596C303.553 103.978 303.404 103.114 302.736 102.767C302.286 102.537 301.813 102.499 301.385 102.602Z" fill="#A9733D"/>
<path d="M302.18 101.793C302.229 101.786 302.266 101.781 302.316 101.774C302.619 101.688 302.908 101.5 303.179 101.271C303.291 101.171 303.4 101.05 303.478 100.891C303.641 100.531 303.562 99.9733 303.316 99.6713C303.053 99.3297 302.707 99.2105 302.389 99.1085C301.889 98.9692 301.382 99.0418 300.941 99.3156C300.664 99.5026 300.4 99.7722 300.261 100.214C300.235 100.301 300.21 100.389 300.21 100.474C300.212 100.579 300.236 100.66 300.276 100.759C300.385 101.081 300.581 101.306 300.778 101.446C300.975 101.586 301.188 101.661 301.398 101.716C301.67 101.761 301.92 101.831 302.18 101.793Z" fill="#A9733D"/>
<path d="M306.181 106.805C306.319 107.859 306.869 108.434 307.611 108.328C308.292 108.23 308.85 107.182 308.723 106.209C308.609 105.32 307.991 104.713 307.283 104.793C306.487 104.886 306.037 105.709 306.181 106.805Z" fill="#A9733D"/>
<path d="M309.21 98.2316C310.867 99.4745 312.338 101.041 311.095 102.698C309.852 104.356 307.5 104.692 305.842 103.449C304.185 102.206 303.848 99.8549 305.091 98.1973C306.334 96.5396 307.552 96.9887 309.21 98.2316Z" fill="#A9733D"/>
<path d="M308.213 126.657C308.209 126.719 308.221 126.8 308.229 126.86C308.296 127.324 308.543 127.762 308.808 127.971C309.072 128.181 309.386 128.218 309.671 128.136C309.955 128.054 310.195 127.835 310.42 127.597C310.634 127.361 310.856 127.102 310.973 126.715C311.041 126.499 311.079 126.247 311.069 126.002C311.014 125.186 310.407 124.738 309.972 124.635C309.46 124.503 309.014 124.752 308.651 125.236C308.505 125.421 308.377 125.645 308.293 125.925C308.228 126.161 308.202 126.411 308.213 126.657Z" fill="#A9733D"/>
<path d="M307.063 122.499C306.584 122.608 306.132 122.899 305.749 123.325C305.621 123.467 305.508 123.627 305.47 123.879C305.432 124.214 305.574 124.606 305.766 124.825C306.18 125.301 306.853 125.349 307.288 125.287C307.823 125.231 308.3 124.936 308.699 124.447C309.18 123.843 309.035 122.999 308.382 122.66C307.942 122.435 307.48 122.398 307.063 122.499Z" fill="#A9733D"/>
<path d="M307.838 121.709C307.886 121.702 307.922 121.697 307.971 121.69C308.267 121.606 308.55 121.422 308.814 121.199C308.923 121.101 309.03 120.982 309.106 120.827C309.266 120.475 309.188 119.931 308.948 119.635C308.691 119.302 308.353 119.185 308.043 119.086C307.554 118.95 307.058 119.02 306.628 119.288C306.358 119.471 306.099 119.734 305.963 120.165C305.938 120.251 305.914 120.337 305.913 120.419C305.915 120.522 305.939 120.601 305.978 120.698C306.084 121.012 306.276 121.232 306.469 121.369C306.661 121.506 306.869 121.58 307.074 121.633C307.34 121.677 307.584 121.745 307.838 121.709Z" fill="#A9733D"/>
<path d="M311.747 126.604C311.882 127.635 312.419 128.196 313.145 128.092C313.81 127.997 314.355 126.973 314.231 126.023C314.119 125.154 313.516 124.561 312.824 124.639C312.047 124.73 311.606 125.534 311.747 126.604Z" fill="#A9733D"/>
<path d="M314.706 118.229C316.326 119.443 317.763 120.973 316.548 122.592C315.334 124.212 313.036 124.54 311.417 123.326C309.797 122.112 309.469 119.815 310.683 118.195C311.897 116.576 313.087 117.014 314.706 118.229Z" fill="#A9733D"/>
<path d="M290.482 127.34C290.479 127.395 290.489 127.465 290.496 127.518C290.554 127.922 290.77 128.304 291.001 128.487C291.231 128.669 291.505 128.702 291.753 128.63C292.001 128.559 292.211 128.368 292.407 128.16C292.593 127.954 292.787 127.729 292.889 127.391C292.948 127.203 292.981 126.983 292.972 126.769C292.924 126.058 292.395 125.667 292.016 125.577C291.569 125.461 291.18 125.679 290.864 126.101C290.736 126.263 290.624 126.458 290.552 126.702C290.495 126.908 290.472 127.126 290.482 127.34Z" fill="#A9733D"/>
<path d="M289.479 123.715C289.062 123.81 288.668 124.064 288.333 124.435C288.222 124.558 288.123 124.698 288.09 124.918C288.057 125.21 288.181 125.552 288.348 125.743C288.709 126.158 289.296 126.2 289.676 126.146C290.142 126.097 290.558 125.84 290.906 125.413C291.325 124.887 291.199 124.151 290.629 123.855C290.246 123.659 289.843 123.627 289.479 123.715Z" fill="#A9733D"/>
<path d="M290.155 123.026C290.197 123.02 290.229 123.015 290.271 123.009C290.53 122.936 290.776 122.775 291.006 122.581C291.102 122.495 291.195 122.392 291.261 122.257C291.401 121.95 291.333 121.475 291.124 121.218C290.899 120.927 290.605 120.825 290.334 120.738C289.908 120.62 289.476 120.681 289.1 120.915C288.864 121.074 288.639 121.304 288.521 121.68C288.499 121.755 288.477 121.829 288.477 121.901C288.479 121.991 288.5 122.06 288.533 122.145C288.626 122.418 288.793 122.61 288.961 122.73C289.129 122.849 289.31 122.913 289.489 122.959C289.721 122.998 289.934 123.057 290.155 123.026Z" fill="#A9733D"/>
<path d="M293.564 127.295C293.682 128.193 294.15 128.683 294.783 128.592C295.363 128.51 295.838 127.616 295.73 126.788C295.633 126.03 295.107 125.512 294.503 125.581C293.825 125.66 293.441 126.361 293.564 127.295Z" fill="#A9733D"/>
<path d="M296.145 119.991C297.557 121.05 298.81 122.384 297.751 123.796C296.692 125.208 294.688 125.495 293.276 124.436C291.864 123.377 291.577 121.374 292.636 119.961C293.695 118.549 294.732 118.932 296.145 119.991Z" fill="#A9733D"/>
<path d="M297.746 141.731C297.743 141.782 297.753 141.85 297.76 141.9C297.815 142.287 298.022 142.652 298.242 142.826C298.463 143.001 298.724 143.032 298.961 142.964C299.198 142.895 299.398 142.712 299.586 142.514C299.764 142.317 299.949 142.102 300.047 141.779C300.103 141.599 300.135 141.389 300.126 141.184C300.08 140.505 299.574 140.131 299.212 140.046C298.785 139.935 298.414 140.143 298.112 140.546C297.99 140.701 297.883 140.888 297.813 141.121C297.759 141.317 297.737 141.526 297.746 141.731Z" fill="#A9733D"/>
<path d="M296.787 138.265C296.389 138.356 296.012 138.599 295.693 138.954C295.586 139.072 295.492 139.205 295.461 139.416C295.428 139.695 295.547 140.021 295.707 140.204C296.052 140.601 296.613 140.64 296.976 140.589C297.422 140.542 297.818 140.297 298.151 139.889C298.552 139.385 298.431 138.682 297.887 138.4C297.52 138.212 297.135 138.181 296.787 138.265Z" fill="#A9733D"/>
<path d="M297.434 137.607C297.474 137.601 297.504 137.597 297.544 137.591C297.792 137.521 298.027 137.368 298.247 137.182C298.338 137.1 298.427 137.002 298.491 136.872C298.624 136.579 298.559 136.125 298.359 135.879C298.144 135.601 297.863 135.504 297.604 135.421C297.197 135.308 296.784 135.367 296.425 135.59C296.2 135.742 295.985 135.961 295.871 136.321C295.851 136.392 295.83 136.464 295.83 136.532C295.832 136.618 295.851 136.684 295.883 136.765C295.972 137.027 296.132 137.21 296.293 137.324C296.453 137.438 296.626 137.499 296.797 137.544C297.018 137.581 297.222 137.637 297.434 137.607Z" fill="#A9733D"/>
<path d="M300.692 141.686C300.804 142.545 301.252 143.013 301.856 142.927C302.411 142.847 302.865 141.993 302.762 141.202C302.668 140.477 302.166 139.983 301.589 140.048C300.941 140.124 300.574 140.794 300.692 141.686Z" fill="#A9733D"/>
<path d="M303.158 134.706C304.508 135.718 305.705 136.993 304.693 138.343C303.681 139.693 301.766 139.966 300.417 138.954C299.067 137.942 298.793 136.028 299.805 134.678C300.817 133.329 301.808 133.694 303.158 134.706Z" fill="#A9733D"/>
<path d="M286.841 159.286C286.838 159.335 286.847 159.398 286.854 159.445C286.906 159.808 287.099 160.15 287.306 160.313C287.513 160.477 287.758 160.506 287.98 160.442C288.203 160.378 288.39 160.207 288.566 160.021C288.733 159.836 288.906 159.634 288.998 159.331C289.051 159.163 289.081 158.966 289.073 158.774C289.03 158.136 288.555 157.786 288.216 157.706C287.815 157.602 287.467 157.797 287.183 158.175C287.069 158.32 286.969 158.495 286.903 158.714C286.853 158.898 286.832 159.094 286.841 159.286Z" fill="#A9733D"/>
<path d="M285.941 156.036C285.567 156.121 285.214 156.349 284.914 156.681C284.814 156.792 284.726 156.917 284.697 157.115C284.667 157.376 284.778 157.682 284.928 157.854C285.251 158.226 285.777 158.263 286.118 158.215C286.536 158.171 286.908 157.941 287.22 157.558C287.596 157.086 287.482 156.427 286.972 156.162C286.628 155.986 286.267 155.957 285.941 156.036Z" fill="#A9733D"/>
<path d="M286.548 155.419C286.585 155.413 286.614 155.409 286.652 155.404C286.883 155.338 287.104 155.194 287.311 155.02C287.396 154.943 287.479 154.851 287.539 154.73C287.664 154.454 287.603 154.029 287.416 153.798C287.214 153.537 286.95 153.446 286.708 153.368C286.326 153.262 285.939 153.318 285.602 153.527C285.391 153.669 285.189 153.875 285.083 154.212C285.063 154.279 285.044 154.346 285.043 154.411C285.045 154.491 285.064 154.553 285.094 154.629C285.177 154.874 285.327 155.046 285.478 155.153C285.628 155.26 285.79 155.318 285.951 155.359C286.158 155.394 286.349 155.447 286.548 155.419Z" fill="#A9733D"/>
<path d="M289.603 159.245C289.708 160.05 290.128 160.489 290.695 160.408C291.215 160.333 291.641 159.532 291.544 158.79C291.457 158.111 290.985 157.647 290.444 157.708C289.837 157.779 289.493 158.408 289.603 159.245Z" fill="#A9733D"/>
<path d="M291.916 152.699C293.182 153.648 294.304 154.844 293.355 156.109C292.406 157.375 290.611 157.632 289.345 156.683C288.079 155.734 287.822 153.938 288.771 152.672C289.72 151.407 290.65 151.75 291.916 152.699Z" fill="#A9733D"/>
<path d="M278.259 145.616C278.256 145.665 278.265 145.728 278.272 145.775C278.324 146.138 278.517 146.48 278.724 146.644C278.93 146.808 279.176 146.837 279.398 146.773C279.621 146.709 279.808 146.537 279.984 146.351C280.151 146.166 280.324 145.965 280.416 145.662C280.469 145.493 280.499 145.296 280.491 145.104C280.448 144.467 279.973 144.116 279.634 144.036C279.233 143.933 278.885 144.127 278.601 144.506C278.487 144.651 278.387 144.826 278.321 145.044C278.271 145.229 278.25 145.425 278.259 145.616Z" fill="#A9733D"/>
<path d="M277.359 142.366C276.986 142.451 276.633 142.679 276.333 143.011C276.233 143.122 276.145 143.247 276.115 143.445C276.085 143.706 276.196 144.012 276.346 144.184C276.67 144.556 277.196 144.593 277.536 144.545C277.954 144.501 278.326 144.271 278.638 143.888C279.014 143.416 278.901 142.757 278.39 142.492C278.047 142.316 277.686 142.287 277.359 142.366Z" fill="#A9733D"/>
<path d="M277.966 141.749C278.004 141.743 278.032 141.739 278.07 141.734C278.302 141.668 278.522 141.524 278.729 141.35C278.814 141.273 278.898 141.181 278.958 141.06C279.082 140.785 279.021 140.359 278.834 140.128C278.633 139.867 278.369 139.776 278.126 139.698C277.745 139.592 277.357 139.648 277.02 139.857C276.809 139.999 276.607 140.205 276.501 140.542C276.482 140.609 276.462 140.677 276.462 140.741C276.464 140.821 276.482 140.883 276.512 140.959C276.596 141.204 276.746 141.376 276.896 141.483C277.046 141.591 277.209 141.648 277.369 141.689C277.577 141.724 277.768 141.777 277.966 141.749Z" fill="#A9733D"/>
<path d="M281.021 145.575C281.126 146.38 281.546 146.819 282.113 146.738C282.633 146.663 283.059 145.863 282.962 145.12C282.875 144.441 282.403 143.977 281.862 144.039C281.255 144.109 280.911 144.738 281.021 145.575Z" fill="#A9733D"/>
<path d="M283.334 139.029C284.6 139.978 285.723 141.174 284.774 142.439C283.825 143.705 282.029 143.962 280.763 143.013C279.497 142.064 279.241 140.268 280.19 139.003C281.139 137.737 282.068 138.08 283.334 139.029Z" fill="#A9733D"/>
<path d="M271.499 166.034C271.497 166.077 271.505 166.132 271.511 166.174C271.557 166.493 271.727 166.794 271.909 166.938C272.091 167.082 272.307 167.108 272.502 167.051C272.698 166.995 272.863 166.844 273.018 166.68C273.164 166.518 273.317 166.34 273.398 166.074C273.445 165.925 273.471 165.752 273.464 165.583C273.426 165.022 273.008 164.714 272.71 164.643C272.357 164.552 272.05 164.723 271.801 165.056C271.7 165.184 271.612 165.338 271.555 165.53C271.51 165.692 271.492 165.865 271.499 166.034Z" fill="#A9733D"/>
<path d="M270.709 163.174C270.38 163.25 270.069 163.45 269.805 163.742C269.717 163.84 269.64 163.95 269.614 164.124C269.587 164.354 269.685 164.623 269.817 164.774C270.102 165.102 270.565 165.135 270.864 165.092C271.232 165.053 271.56 164.851 271.834 164.514C272.165 164.099 272.065 163.518 271.616 163.285C271.314 163.13 270.996 163.105 270.709 163.174Z" fill="#A9733D"/>
<path d="M271.242 162.631C271.275 162.626 271.3 162.623 271.333 162.618C271.537 162.56 271.731 162.434 271.913 162.28C271.988 162.213 272.062 162.131 272.114 162.025C272.224 161.783 272.17 161.408 272.005 161.205C271.828 160.975 271.596 160.895 271.383 160.827C271.047 160.733 270.706 160.782 270.409 160.966C270.224 161.092 270.046 161.273 269.952 161.569C269.935 161.628 269.918 161.687 269.918 161.744C269.92 161.815 269.936 161.869 269.962 161.936C270.036 162.152 270.168 162.303 270.3 162.397C270.432 162.492 270.575 162.542 270.716 162.579C270.899 162.609 271.067 162.656 271.242 162.631Z" fill="#A9733D"/>
<path d="M273.931 165.998C274.023 166.707 274.393 167.093 274.892 167.022C275.349 166.957 275.724 166.252 275.639 165.598C275.562 165.001 275.147 164.593 274.671 164.647C274.137 164.709 273.834 165.262 273.931 165.998Z" fill="#A9733D"/>
<path d="M275.966 160.237C277.08 161.072 278.068 162.124 277.233 163.238C276.398 164.352 274.818 164.578 273.704 163.743C272.59 162.908 272.364 161.327 273.199 160.214C274.034 159.1 274.852 159.401 275.966 160.237Z" fill="#A9733D"/>
<path d="M268.007 181.047C268.005 181.08 268.011 181.123 268.016 181.155C268.051 181.402 268.183 181.634 268.323 181.745C268.463 181.857 268.63 181.877 268.781 181.833C268.932 181.79 269.06 181.673 269.18 181.546C269.293 181.421 269.411 181.284 269.473 181.078C269.509 180.963 269.529 180.829 269.524 180.699C269.495 180.266 269.172 180.028 268.941 179.973C268.669 179.903 268.432 180.035 268.24 180.292C268.162 180.391 268.094 180.51 268.049 180.658C268.015 180.783 268.001 180.917 268.007 181.047Z" fill="#A9733D"/>
<path d="M267.396 178.838C267.142 178.896 266.902 179.051 266.698 179.277C266.63 179.352 266.57 179.437 266.55 179.572C266.529 179.749 266.605 179.957 266.707 180.074C266.927 180.327 267.284 180.352 267.516 180.319C267.8 180.289 268.053 180.133 268.265 179.873C268.521 179.552 268.443 179.104 268.096 178.924C267.863 178.804 267.618 178.785 267.396 178.838Z" fill="#A9733D"/>
<path d="M267.808 178.419C267.834 178.415 267.853 178.412 267.879 178.409C268.036 178.364 268.186 178.266 268.326 178.148C268.385 178.096 268.441 178.033 268.482 177.951C268.567 177.764 268.525 177.474 268.398 177.317C268.261 177.14 268.082 177.078 267.917 177.025C267.657 176.953 267.394 176.991 267.165 177.133C267.022 177.23 266.884 177.37 266.812 177.599C266.799 177.645 266.786 177.69 266.786 177.734C266.787 177.788 266.799 177.83 266.82 177.882C266.877 178.049 266.978 178.166 267.081 178.238C267.183 178.311 267.293 178.35 267.402 178.378C267.543 178.402 267.673 178.438 267.808 178.419Z" fill="#A9733D"/>
<path d="M269.884 181.02C269.956 181.568 270.241 181.866 270.627 181.811C270.98 181.76 271.269 181.216 271.204 180.711C271.144 180.249 270.824 179.934 270.456 179.976C270.044 180.024 269.81 180.451 269.884 181.02Z" fill="#A9733D"/>
<path d="M271.457 176.57C272.317 177.215 273.08 178.028 272.435 178.888C271.79 179.748 270.57 179.923 269.709 179.278C268.849 178.633 268.674 177.412 269.319 176.552C269.965 175.692 270.596 175.925 271.457 176.57Z" fill="#A9733D"/>
<path d="M278.786 173.097C278.784 173.136 278.791 173.188 278.797 173.226C278.839 173.522 278.997 173.801 279.166 173.935C279.334 174.068 279.534 174.092 279.716 174.04C279.897 173.987 280.05 173.847 280.193 173.696C280.329 173.545 280.471 173.381 280.546 173.134C280.589 172.996 280.613 172.836 280.606 172.679C280.571 172.159 280.184 171.874 279.908 171.808C279.581 171.724 279.297 171.882 279.066 172.191C278.973 172.309 278.891 172.452 278.838 172.63C278.796 172.78 278.78 172.94 278.786 173.097Z" fill="#A9733D"/>
<path d="M278.054 170.446C277.749 170.516 277.461 170.701 277.216 170.972C277.135 171.063 277.063 171.165 277.039 171.326C277.014 171.539 277.105 171.788 277.227 171.928C277.491 172.232 277.92 172.262 278.197 172.223C278.538 172.187 278.842 171.999 279.096 171.687C279.403 171.302 279.31 170.765 278.894 170.549C278.614 170.405 278.32 170.382 278.054 170.446Z" fill="#A9733D"/>
<path d="M278.548 169.943C278.579 169.939 278.602 169.936 278.633 169.931C278.822 169.878 279.002 169.76 279.17 169.618C279.24 169.556 279.308 169.481 279.357 169.382C279.458 169.157 279.409 168.81 279.256 168.622C279.092 168.409 278.877 168.335 278.679 168.272C278.368 168.185 278.051 168.23 277.777 168.401C277.605 168.517 277.44 168.685 277.354 168.96C277.338 169.014 277.322 169.069 277.322 169.122C277.323 169.187 277.338 169.237 277.363 169.299C277.431 169.5 277.553 169.64 277.676 169.727C277.798 169.814 277.931 169.861 278.061 169.895C278.231 169.923 278.386 169.966 278.548 169.943Z" fill="#A9733D"/>
<path d="M281.039 173.062C281.125 173.719 281.467 174.077 281.93 174.011C282.354 173.95 282.701 173.297 282.622 172.692C282.551 172.138 282.166 171.76 281.725 171.81C281.23 171.868 280.949 172.38 281.039 173.062Z" fill="#A9733D"/>
<path d="M282.925 167.725C283.957 168.499 284.873 169.474 284.099 170.506C283.325 171.538 281.861 171.747 280.829 170.973C279.797 170.2 279.587 168.736 280.361 167.704C281.135 166.671 281.893 166.951 282.925 167.725Z" fill="#A9733D"/>
<path d="M273.837 187.025C273.835 187.053 273.84 187.089 273.844 187.116C273.874 187.323 273.984 187.518 274.102 187.611C274.22 187.705 274.36 187.721 274.487 187.685C274.614 187.648 274.721 187.55 274.821 187.444C274.917 187.339 275.016 187.224 275.068 187.051C275.098 186.955 275.115 186.842 275.111 186.733C275.086 186.369 274.815 186.169 274.622 186.123C274.393 186.064 274.194 186.175 274.032 186.391C273.967 186.474 273.91 186.574 273.873 186.699C273.844 186.804 273.832 186.915 273.837 187.025Z" fill="#A9733D"/>
<path d="M273.324 185.17C273.111 185.219 272.909 185.349 272.738 185.539C272.681 185.602 272.631 185.674 272.614 185.786C272.597 185.935 272.66 186.11 272.746 186.208C272.93 186.42 273.23 186.442 273.425 186.414C273.663 186.389 273.876 186.258 274.054 186.039C274.268 185.77 274.204 185.394 273.912 185.242C273.716 185.142 273.51 185.125 273.324 185.17Z" fill="#A9733D"/>
<path d="M273.669 184.818C273.691 184.815 273.707 184.812 273.729 184.809C273.861 184.772 273.987 184.69 274.105 184.59C274.154 184.547 274.201 184.494 274.235 184.425C274.306 184.268 274.272 184.025 274.165 183.893C274.05 183.744 273.899 183.692 273.761 183.648C273.543 183.587 273.322 183.619 273.13 183.738C273.009 183.82 272.894 183.937 272.833 184.129C272.822 184.168 272.811 184.206 272.811 184.243C272.812 184.289 272.823 184.324 272.84 184.367C272.887 184.507 272.973 184.605 273.059 184.666C273.145 184.728 273.237 184.76 273.329 184.784C273.447 184.804 273.556 184.834 273.669 184.818Z" fill="#A9733D"/>
<path d="M275.413 187.001C275.474 187.461 275.713 187.711 276.037 187.665C276.334 187.623 276.576 187.166 276.521 186.742C276.471 186.354 276.202 186.09 275.894 186.125C275.547 186.165 275.351 186.524 275.413 187.001Z" fill="#A9733D"/>
<path d="M276.734 183.266C277.456 183.808 278.097 184.49 277.555 185.212C277.014 185.935 275.989 186.081 275.267 185.54C274.544 184.998 274.398 183.973 274.939 183.251C275.481 182.529 276.011 182.724 276.734 183.266Z" fill="#A9733D"/>
</g>
<g opacity="0.2">
<path d="M26.9221 406.142C26.9564 406.072 26.9824 405.973 27.0019 405.9C27.1514 405.333 27.0795 404.708 26.877 404.339C26.6745 403.969 26.3314 403.773 25.964 403.729C25.5967 403.685 25.2134 403.821 24.8384 403.985C24.4781 404.153 24.0966 404.342 23.7729 404.731C23.5897 404.946 23.4231 405.218 23.3156 405.506C22.9818 406.471 23.4624 407.283 23.9123 407.612C24.4378 408.014 25.0721 407.945 25.7254 407.564C25.9841 407.422 26.241 407.226 26.4731 406.945C26.6628 406.705 26.8146 406.43 26.9221 406.142Z" fill="#A9733D"/>
<path d="M26.221 411.488C26.8245 411.595 27.4866 411.48 28.1351 411.177C28.3512 411.076 28.5591 410.947 28.7257 410.675C28.9331 410.308 28.9598 409.788 28.8458 409.442C28.6015 408.693 27.8497 408.31 27.3183 408.169C26.6752 407.973 25.9836 408.08 25.2861 408.449C24.4379 408.91 24.1944 409.952 24.7813 410.66C25.1775 411.134 25.6913 411.401 26.221 411.488Z" fill="#A9733D"/>
<path d="M24.9436 412.02C24.8846 412.005 24.8403 411.993 24.7812 411.977C24.3991 411.929 23.9845 412.004 23.5717 412.132C23.3981 412.192 23.2179 412.276 23.0543 412.417C22.6993 412.745 22.5238 413.41 22.6559 413.866C22.7899 414.375 23.1217 414.674 23.4306 414.94C23.9266 415.334 24.5319 415.494 25.1579 415.396C25.5577 415.317 25.9836 415.14 26.3498 414.709C26.4201 414.623 26.4904 414.536 26.5312 414.441C26.5785 414.322 26.5897 414.22 26.5927 414.089C26.6229 413.675 26.509 413.329 26.3543 413.078C26.1996 412.826 25.9959 412.64 25.7857 412.48C25.5017 412.299 25.2537 412.102 24.9436 412.02Z" fill="#A9733D"/>
<path d="M22.8273 404.482C23.1736 403.23 22.8289 402.323 21.9431 402.089C21.1311 401.874 20.0053 402.789 19.685 403.942C19.3907 404.997 19.7963 405.973 20.6313 406.22C21.5697 406.494 22.468 405.783 22.8273 404.482Z" fill="#A9733D"/>
<path d="M15.3434 412.682C14.0704 410.496 13.1619 408.035 15.3481 406.762C17.5343 405.489 20.3386 406.23 21.6116 408.416C22.8845 410.602 22.1442 413.406 19.958 414.679C17.7718 415.952 16.6164 414.868 15.3434 412.682Z" fill="#A9733D"/>
<path d="M10.6755 390.441C10.7098 390.371 10.7358 390.272 10.7553 390.198C10.9048 389.632 10.8329 389.007 10.6304 388.638C10.4279 388.268 10.0848 388.072 9.71746 388.028C9.35013 387.984 8.96683 388.12 8.59179 388.284C8.23151 388.452 7.84997 388.641 7.52627 389.03C7.34316 389.245 7.17657 389.517 7.06903 389.805C6.73519 390.77 7.21577 391.582 7.66573 391.911C8.19127 392.313 8.82555 392.244 9.47879 391.863C9.73748 391.721 9.99441 391.525 10.2266 391.244C10.4162 391.004 10.568 390.728 10.6755 390.441Z" fill="#A9733D"/>
<path d="M9.97441 395.787C10.578 395.894 11.24 395.779 11.8885 395.476C12.1047 395.375 12.3126 395.245 12.4792 394.973C12.6865 394.607 12.7132 394.087 12.5993 393.741C12.3549 392.992 11.6032 392.609 11.0717 392.468C10.4286 392.272 9.737 392.379 9.03948 392.748C8.19134 393.209 7.94784 394.251 8.53474 394.959C8.93093 395.432 9.44468 395.7 9.97441 395.787Z" fill="#A9733D"/>
<path d="M8.69705 396.319C8.63799 396.303 8.5937 396.292 8.53465 396.276C8.15255 396.228 7.73795 396.303 7.32512 396.431C7.15147 396.49 6.97133 396.575 6.80771 396.716C6.45271 397.043 6.27717 397.708 6.40937 398.165C6.54332 398.674 6.87517 398.973 7.18398 399.239C7.67999 399.633 8.2853 399.793 8.91133 399.695C9.31116 399.616 9.737 399.438 10.1032 399.008C10.1735 398.922 10.2438 398.835 10.2846 398.74C10.3319 398.621 10.3431 398.518 10.3461 398.388C10.3763 397.974 10.2624 397.628 10.1077 397.376C9.95304 397.125 9.74932 396.939 9.53911 396.778C9.25508 396.598 9.00708 396.401 8.69705 396.319Z" fill="#A9733D"/>
<path d="M6.58125 388.781C6.92754 387.529 6.58281 386.622 5.69699 386.388C4.885 386.173 3.75921 387.088 3.43892 388.241C3.14463 389.296 3.55019 390.272 4.38521 390.519C5.32357 390.793 6.22196 390.082 6.58125 388.781Z" fill="#A9733D"/>
<path d="M-0.903154 396.981C-2.17614 394.794 -3.0847 392.334 -0.898478 391.061C1.28775 389.788 4.09199 390.529 5.36498 392.715C6.63796 394.901 5.89764 397.705 3.71141 398.978C1.52518 400.251 0.369832 399.167 -0.903154 396.981Z" fill="#A9733D"/>
<path d="M5.20141 415.752C5.23568 415.682 5.26168 415.583 5.28118 415.509C5.43069 414.943 5.35875 414.318 5.15625 413.949C4.95375 413.579 4.61066 413.383 4.24334 413.339C3.87601 413.295 3.49271 413.431 3.11767 413.595C2.75739 413.763 2.37585 413.952 2.05215 414.341C1.86904 414.556 1.70245 414.828 1.59491 415.116C1.26107 416.081 1.74165 416.893 2.19161 417.222C2.71715 417.624 3.35143 417.555 4.00467 417.174C4.26336 417.032 4.52029 416.836 4.75244 416.555C4.94205 416.315 5.09388 416.039 5.20141 415.752Z" fill="#A9733D"/>
<path d="M4.50029 421.098C5.10383 421.205 5.76588 421.09 6.41438 420.787C6.63054 420.686 6.83845 420.557 7.00503 420.285C7.21239 419.918 7.23905 419.398 7.12514 419.052C6.88077 418.303 6.12904 417.92 5.59755 417.78C4.95446 417.584 4.26288 417.691 3.56536 418.06C2.71722 418.521 2.47372 419.563 3.06062 420.271C3.45681 420.744 3.97056 421.011 4.50029 421.098Z" fill="#A9733D"/>
<path d="M3.22292 421.629C3.16387 421.613 3.11958 421.602 3.06052 421.586C2.67843 421.538 2.26383 421.613 1.85099 421.741C1.67735 421.8 1.49721 421.885 1.33359 422.026C0.978589 422.354 0.803051 423.018 0.935247 423.475C1.0692 423.984 1.40105 424.283 1.70986 424.549C2.20586 424.943 2.81117 425.103 3.4372 425.005C3.83704 424.926 4.26288 424.749 4.62913 424.318C4.69942 424.232 4.76972 424.145 4.81049 424.05C4.85776 423.931 4.869 423.829 4.87198 423.698C4.90218 423.284 4.78827 422.938 4.63359 422.686C4.47891 422.435 4.2752 422.249 4.06499 422.088C3.78096 421.908 3.53296 421.711 3.22292 421.629Z" fill="#A9733D"/>
<path d="M1.10713 414.092C1.45342 412.84 1.10869 411.933 0.222874 411.699C-0.589122 411.484 -1.71491 412.399 -2.0352 413.552C-2.32949 414.607 -1.92394 415.583 -1.08891 415.83C-0.150546 416.104 0.747834 415.393 1.10713 414.092Z" fill="#A9733D"/>
<path d="M-6.37727 422.292C-7.65026 420.106 -8.55883 417.645 -6.3726 416.373C-4.18637 415.1 -1.38213 415.84 -0.109143 418.026C1.16384 420.213 0.423514 423.017 -1.76271 424.29C-3.94894 425.562 -5.10429 424.478 -6.37727 422.292Z" fill="#A9733D"/>
<path d="M33.5152 383.146C33.5456 383.084 33.5687 382.997 33.586 382.931C33.7187 382.429 33.6548 381.874 33.4751 381.546C33.2953 381.218 32.9907 381.044 32.6647 381.005C32.3386 380.965 31.9983 381.086 31.6654 381.232C31.3456 381.381 31.0069 381.549 30.7195 381.894C30.557 382.085 30.4091 382.326 30.3136 382.582C30.0173 383.439 30.4439 384.159 30.8433 384.452C31.3099 384.809 31.8729 384.747 32.4528 384.409C32.6824 384.283 32.9105 384.109 33.1166 383.86C33.2849 383.647 33.4197 383.402 33.5152 383.146Z" fill="#A9733D"/>
<path d="M32.893 387.892C33.4288 387.987 34.0165 387.885 34.5922 387.616C34.7841 387.527 34.9686 387.412 35.1165 387.17C35.3006 386.845 35.3243 386.383 35.2232 386.076C35.0063 385.411 34.339 385.071 33.8672 384.946C33.2963 384.772 32.6823 384.867 32.0631 385.195C31.3102 385.604 31.094 386.529 31.615 387.157C31.9667 387.578 32.4228 387.815 32.893 387.892Z" fill="#A9733D"/>
<path d="M31.7591 388.364C31.7066 388.351 31.6673 388.34 31.6149 388.326C31.2757 388.284 30.9077 388.35 30.5412 388.464C30.387 388.517 30.2271 388.591 30.0819 388.717C29.7667 389.008 29.6109 389.598 29.7283 390.003C29.8472 390.455 30.1418 390.72 30.4159 390.956C30.8562 391.306 31.3936 391.448 31.9493 391.361C32.3042 391.291 32.6822 391.134 33.0074 390.752C33.0698 390.675 33.1322 390.598 33.1684 390.514C33.2103 390.408 33.2203 390.317 33.2229 390.201C33.2498 389.834 33.1486 389.526 33.0113 389.303C32.874 389.08 32.6932 388.915 32.5066 388.772C32.2544 388.612 32.0343 388.437 31.7591 388.364Z" fill="#A9733D"/>
<path d="M29.8811 381.673C30.1885 380.562 29.8825 379.756 29.0962 379.548C28.3754 379.358 27.376 380.17 27.0917 381.194C26.8304 382.13 27.1904 382.997 27.9317 383.216C28.7647 383.459 29.5622 382.828 29.8811 381.673Z" fill="#A9733D"/>
<path d="M23.2373 388.951C22.1072 387.01 21.3007 384.826 23.2414 383.696C25.1821 382.566 27.6715 383.224 28.8015 385.164C29.9316 387.105 29.2744 389.594 27.3336 390.724C25.3929 391.854 24.3673 390.892 23.2373 388.951Z" fill="#A9733D"/>
<path d="M52.6704 392.952C52.7008 392.89 52.7239 392.803 52.7412 392.737C52.874 392.234 52.8101 391.68 52.6303 391.352C52.4506 391.024 52.146 390.85 51.8199 390.81C51.4939 390.771 51.1536 390.892 50.8207 391.038C50.5008 391.187 50.1622 391.355 49.8748 391.7C49.7122 391.891 49.5644 392.132 49.4689 392.387C49.1726 393.244 49.5992 393.965 49.9986 394.257C50.4651 394.614 51.0282 394.553 51.6081 394.215C51.8377 394.088 52.0658 393.915 52.2719 393.665C52.4402 393.453 52.575 393.208 52.6704 392.952Z" fill="#A9733D"/>
<path d="M52.0488 397.698C52.5845 397.793 53.1722 397.691 53.7479 397.422C53.9398 397.332 54.1244 397.217 54.2723 396.976C54.4564 396.65 54.4801 396.189 54.3789 395.881C54.162 395.216 53.4947 394.876 53.0229 394.752C52.452 394.578 51.8381 394.673 51.2189 395C50.466 395.41 50.2498 396.335 50.7708 396.963C51.1225 397.383 51.5785 397.621 52.0488 397.698Z" fill="#A9733D"/>
<path d="M50.9148 398.17C50.8624 398.156 50.8231 398.146 50.7707 398.132C50.4315 398.089 50.0634 398.156 49.697 398.269C49.5428 398.322 49.3829 398.397 49.2376 398.522C48.9225 398.813 48.7667 399.403 48.884 399.809C49.003 400.261 49.2975 400.526 49.5717 400.762C50.012 401.112 50.5493 401.254 51.105 401.167C51.46 401.097 51.838 400.939 52.1631 400.557C52.2255 400.48 52.2879 400.403 52.3241 400.319C52.3661 400.214 52.3761 400.123 52.3787 400.006C52.4055 399.639 52.3044 399.332 52.1671 399.109C52.0298 398.885 51.8489 398.721 51.6623 398.578C51.4102 398.418 51.19 398.243 50.9148 398.17Z" fill="#A9733D"/>
<path d="M49.0364 391.479C49.3438 390.368 49.0378 389.562 48.2514 389.355C47.5306 389.164 46.5313 389.976 46.2469 391C45.9857 391.936 46.3457 392.803 47.087 393.022C47.92 393.265 48.7175 392.634 49.0364 391.479Z" fill="#A9733D"/>
<path d="M42.3925 398.758C41.2625 396.817 40.4559 394.633 42.3967 393.503C44.3374 392.373 46.8268 393.03 47.9568 394.971C49.0869 396.912 48.4297 399.401 46.4889 400.531C44.5482 401.661 43.5226 400.698 42.3925 398.758Z" fill="#A9733D"/>
<path d="M56.6814 372.982C56.7111 372.922 56.7336 372.837 56.7505 372.773C56.8799 372.282 56.8176 371.741 56.6423 371.422C56.467 371.102 56.17 370.932 55.852 370.894C55.534 370.855 55.2021 370.973 54.8775 371.115C54.5656 371.261 54.2353 371.424 53.955 371.761C53.7965 371.947 53.6523 372.183 53.5592 372.432C53.2702 373.267 53.6862 373.97 54.0758 374.255C54.5307 374.603 55.0798 374.543 55.6454 374.214C55.8693 374.09 56.0918 373.921 56.2927 373.678C56.4569 373.47 56.5883 373.231 56.6814 372.982Z" fill="#A9733D"/>
<path d="M56.0745 377.61C56.597 377.702 57.1702 377.603 57.7316 377.34C57.9187 377.253 58.0987 377.141 58.243 376.905C58.4225 376.588 58.4456 376.138 58.347 375.838C58.1354 375.189 57.4846 374.858 57.0245 374.737C56.4678 374.567 55.8691 374.659 55.2652 374.979C54.5309 375.378 54.3201 376.28 54.8282 376.893C55.1711 377.303 55.6159 377.534 56.0745 377.61Z" fill="#A9733D"/>
<path d="M54.9691 378.071C54.918 378.057 54.8797 378.047 54.8286 378.033C54.4978 377.992 54.1388 378.057 53.7814 378.167C53.6311 378.219 53.4752 378.292 53.3335 378.414C53.0262 378.698 52.8742 379.273 52.9886 379.668C53.1046 380.109 53.3919 380.368 53.6593 380.598C54.0887 380.939 54.6127 381.078 55.1547 380.993C55.5008 380.925 55.8695 380.771 56.1865 380.399C56.2474 380.324 56.3082 380.248 56.3435 380.167C56.3845 380.063 56.3942 379.975 56.3968 379.861C56.4229 379.503 56.3243 379.204 56.1904 378.986C56.0565 378.768 55.8801 378.607 55.6981 378.468C55.4523 378.312 55.2376 378.141 54.9691 378.071Z" fill="#A9733D"/>
<path d="M53.1375 371.544C53.4372 370.46 53.1388 369.675 52.3719 369.472C51.669 369.287 50.6944 370.078 50.4171 371.077C50.1623 371.99 50.5134 372.835 51.2363 373.049C52.0487 373.286 52.8264 372.67 53.1375 371.544Z" fill="#A9733D"/>
<path d="M46.6577 378.644C45.5556 376.751 44.7691 374.621 46.6617 373.519C48.5544 372.417 50.9821 373.058 52.0841 374.951C53.1862 376.844 52.5453 379.271 50.6526 380.373C48.7599 381.475 47.7597 380.537 46.6577 378.644Z" fill="#A9733D"/>
<path d="M75.1853 381.944C75.2133 381.887 75.2346 381.806 75.2506 381.746C75.373 381.282 75.3141 380.77 75.1483 380.468C74.9824 380.165 74.7014 380.004 74.4006 379.968C74.0997 379.932 73.7858 380.043 73.4786 380.178C73.1836 380.316 72.8711 380.47 72.606 380.789C72.456 380.965 72.3196 381.188 72.2315 381.423C71.9581 382.214 72.3517 382.879 72.7202 383.149C73.1506 383.478 73.6701 383.421 74.2051 383.109C74.417 382.993 74.6274 382.832 74.8175 382.602C74.9728 382.406 75.0972 382.18 75.1853 381.944Z" fill="#A9733D"/>
<path d="M74.6114 386.323C75.1057 386.41 75.6479 386.316 76.1791 386.068C76.3561 385.986 76.5264 385.879 76.6628 385.657C76.8327 385.356 76.8545 384.931 76.7612 384.647C76.5611 384.033 75.9454 383.72 75.5101 383.605C74.9834 383.444 74.417 383.532 73.8457 383.834C73.1511 384.212 72.9516 385.065 73.4323 385.645C73.7568 386.033 74.1775 386.252 74.6114 386.323Z" fill="#A9733D"/>
<path d="M73.5649 386.758C73.5166 386.745 73.4803 386.735 73.4319 386.723C73.119 386.683 72.7794 386.745 72.4413 386.849C72.2991 386.898 72.1516 386.967 72.0176 387.083C71.7268 387.351 71.583 387.896 71.6913 388.269C71.801 388.687 72.0728 388.931 72.3257 389.149C72.732 389.472 73.2277 389.603 73.7404 389.522C74.0679 389.458 74.4167 389.313 74.7166 388.96C74.7742 388.889 74.8318 388.818 74.8652 388.741C74.9039 388.643 74.9131 388.559 74.9155 388.452C74.9403 388.113 74.847 387.83 74.7203 387.624C74.5936 387.418 74.4268 387.266 74.2546 387.134C74.022 386.986 73.8189 386.825 73.5649 386.758Z" fill="#A9733D"/>
<path d="M71.8325 380.584C72.1161 379.559 71.8338 378.815 71.1083 378.624C70.4433 378.448 69.5212 379.197 69.2589 380.142C69.0179 381.006 69.35 381.805 70.0339 382.007C70.8025 382.232 71.5382 381.65 71.8325 380.584Z" fill="#A9733D"/>
<path d="M65.7027 387.3C64.6601 385.509 63.9159 383.494 65.7065 382.452C67.497 381.409 69.7937 382.016 70.8363 383.806C71.8789 385.597 71.2726 387.893 69.482 388.936C67.6915 389.978 66.7452 389.09 65.7027 387.3Z" fill="#A9733D"/>
<path d="M77.695 361.509C77.7224 361.453 77.7432 361.374 77.7588 361.315C77.8784 360.861 77.8209 360.362 77.6588 360.066C77.4968 359.77 77.2223 359.613 76.9284 359.578C76.6344 359.543 76.3277 359.651 76.0276 359.783C75.7394 359.917 75.4341 360.069 75.1751 360.38C75.0286 360.552 74.8953 360.769 74.8092 360.999C74.5421 361.772 74.9266 362.421 75.2867 362.685C75.7072 363.007 76.2147 362.951 76.7374 362.647C76.9444 362.533 77.15 362.376 77.3357 362.151C77.4874 361.96 77.6089 361.739 77.695 361.509Z" fill="#A9733D"/>
<path d="M77.134 365.786C77.6169 365.872 78.1466 365.78 78.6655 365.537C78.8385 365.457 79.0049 365.353 79.1382 365.135C79.3041 364.842 79.3254 364.426 79.2343 364.149C79.0388 363.549 78.4373 363.243 78.012 363.131C77.4974 362.974 76.9441 363.059 76.3859 363.355C75.7073 363.724 75.5124 364.557 75.982 365.124C76.299 365.503 76.7101 365.717 77.134 365.786Z" fill="#A9733D"/>
<path d="M76.1122 366.212C76.0649 366.199 76.0295 366.19 75.9822 366.178C75.6765 366.139 75.3447 366.199 75.0144 366.301C74.8755 366.349 74.7313 366.416 74.6004 366.529C74.3163 366.792 74.1759 367.324 74.2817 367.689C74.3888 368.096 74.6544 368.335 74.9015 368.548C75.2983 368.864 75.7827 368.991 76.2836 368.913C76.6035 368.85 76.9443 368.708 77.2373 368.364C77.2936 368.294 77.3498 368.225 77.3824 368.149C77.4203 368.054 77.4293 367.972 77.4316 367.867C77.4558 367.536 77.3647 367.259 77.2409 367.058C77.1171 366.857 76.9541 366.708 76.7859 366.579C76.5587 366.435 76.3602 366.277 76.1122 366.212Z" fill="#A9733D"/>
<path d="M74.4191 360.18C74.6962 359.178 74.4203 358.452 73.7115 358.265C73.0618 358.093 72.161 358.825 71.9047 359.748C71.6693 360.592 71.9938 361.373 72.6619 361.57C73.4127 361.79 74.1316 361.221 74.4191 360.18Z" fill="#A9733D"/>
<path d="M68.4303 366.741C67.4117 364.992 66.6847 363.023 68.434 362.004C70.1833 360.986 72.4272 361.578 73.4457 363.328C74.4643 365.077 73.8719 367.321 72.1226 368.339C70.3733 369.358 69.4489 368.49 68.4303 366.741Z" fill="#A9733D"/>
<path d="M94.2917 367.786C94.3156 367.738 94.3337 367.669 94.3473 367.617C94.4517 367.222 94.4015 366.786 94.2602 366.528C94.1189 366.27 93.8795 366.134 93.6232 366.103C93.3669 366.072 93.0995 366.167 92.8378 366.281C92.5864 366.399 92.3202 366.531 92.0943 366.802C91.9665 366.952 91.8503 367.142 91.7752 367.343C91.5423 368.016 91.8776 368.583 92.1915 368.813C92.5582 369.093 93.0008 369.045 93.4566 368.779C93.6371 368.68 93.8164 368.543 93.9784 368.347C94.1107 368.18 94.2166 367.987 94.2917 367.786Z" fill="#A9733D"/>
<path d="M93.8025 371.516C94.2236 371.591 94.6855 371.511 95.138 371.299C95.2889 371.229 95.4339 371.138 95.5502 370.949C95.6949 370.693 95.7135 370.33 95.634 370.089C95.4635 369.566 94.939 369.299 94.5681 369.201C94.1194 369.064 93.6369 369.139 93.1502 369.396C92.5584 369.718 92.3885 370.445 92.7979 370.939C93.0744 371.269 93.4328 371.456 93.8025 371.516Z" fill="#A9733D"/>
<path d="M92.9111 371.887C92.8699 371.877 92.839 371.868 92.7978 371.858C92.5312 371.824 92.2419 371.876 91.9538 371.966C91.8327 372.007 91.707 372.066 91.5928 372.164C91.3451 372.393 91.2226 372.857 91.3149 373.175C91.4083 373.531 91.6399 373.739 91.8553 373.925C92.2014 374.2 92.6238 374.311 93.0606 374.243C93.3396 374.188 93.6367 374.064 93.8922 373.764C93.9413 373.703 93.9903 373.643 94.0188 373.577C94.0518 373.494 94.0596 373.422 94.0617 373.331C94.0828 373.042 94.0033 372.801 93.8954 372.625C93.7874 372.45 93.6453 372.32 93.4986 372.208C93.3004 372.082 93.1274 371.945 92.9111 371.887Z" fill="#A9733D"/>
<path d="M91.4347 366.628C91.6763 365.754 91.4358 365.121 90.8178 364.958C90.2512 364.808 89.4657 365.446 89.2421 366.251C89.0368 366.987 89.3197 367.668 89.9024 367.84C90.5571 368.032 91.184 367.536 91.4347 366.628Z" fill="#A9733D"/>
<path d="M86.2127 372.349C85.3244 370.824 84.6904 369.107 86.2159 368.219C87.7414 367.33 89.6982 367.847 90.5865 369.373C91.4747 370.898 90.9581 372.855 89.4326 373.743C87.9071 374.631 87.1009 373.875 86.2127 372.349Z" fill="#A9733D"/>
<path d="M93.2067 351.703C93.2295 351.656 93.2469 351.591 93.2599 351.541C93.3596 351.164 93.3116 350.747 93.1766 350.501C93.0416 350.254 92.8128 350.124 92.5679 350.094C92.3229 350.065 92.0673 350.155 91.8173 350.265C91.577 350.377 91.3226 350.503 91.1067 350.762C90.9846 350.906 90.8735 351.087 90.8018 351.279C90.5792 351.923 90.8996 352.464 91.1997 352.684C91.5501 352.952 91.9731 352.906 92.4087 352.652C92.5812 352.557 92.7525 352.426 92.9073 352.239C93.0337 352.079 93.135 351.895 93.2067 351.703Z" fill="#A9733D"/>
<path d="M92.7394 355.268C93.1419 355.339 93.5833 355.263 94.0158 355.061C94.1599 354.993 94.2986 354.907 94.4097 354.725C94.5479 354.481 94.5657 354.134 94.4898 353.903C94.3268 353.404 93.8256 353.148 93.4712 353.055C93.0423 352.924 92.5812 352.996 92.1161 353.242C91.5505 353.549 91.3881 354.244 91.7795 354.716C92.0436 355.032 92.3862 355.21 92.7394 355.268Z" fill="#A9733D"/>
<path d="M91.8873 355.623C91.8479 355.613 91.8184 355.605 91.779 355.594C91.5242 355.562 91.2478 355.612 90.9725 355.698C90.8567 355.737 90.7366 355.793 90.6275 355.887C90.3907 356.106 90.2737 356.549 90.3618 356.854C90.4512 357.193 90.6724 357.392 90.8784 357.57C91.2091 357.833 91.6127 357.939 92.0302 357.874C92.2968 357.821 92.5807 357.703 92.825 357.416C92.8718 357.358 92.9187 357.3 92.9459 357.237C92.9774 357.158 92.9849 357.09 92.9869 357.002C93.007 356.727 92.9311 356.496 92.8279 356.328C92.7248 356.16 92.589 356.037 92.4488 355.929C92.2594 355.809 92.094 355.677 91.8873 355.623Z" fill="#A9733D"/>
<path d="M90.4763 350.596C90.7072 349.761 90.4774 349.156 89.8867 349C89.3453 348.857 88.5945 349.467 88.3809 350.236C88.1847 350.939 88.4551 351.59 89.0119 351.755C89.6376 351.938 90.2367 351.464 90.4763 350.596Z" fill="#A9733D"/>
<path d="M85.4857 356.064C84.6368 354.606 84.0309 352.966 85.4888 352.117C86.9467 351.268 88.8167 351.762 89.6656 353.22C90.5145 354.678 90.0208 356.547 88.5629 357.396C87.105 358.245 86.3346 357.522 85.4857 356.064Z" fill="#A9733D"/>
<path d="M110.09 339.783C110.112 339.739 110.128 339.678 110.14 339.632C110.234 339.277 110.189 338.887 110.062 338.656C109.935 338.425 109.721 338.302 109.491 338.274C109.261 338.247 109.022 338.332 108.787 338.434C108.562 338.54 108.323 338.658 108.121 338.901C108.006 339.035 107.902 339.205 107.835 339.385C107.626 339.989 107.926 340.497 108.208 340.703C108.537 340.954 108.933 340.911 109.342 340.673C109.503 340.584 109.664 340.461 109.809 340.286C109.928 340.136 110.023 339.963 110.09 339.783Z" fill="#A9733D"/>
<path d="M109.652 343.127C110.029 343.194 110.443 343.122 110.849 342.933C110.984 342.869 111.114 342.788 111.218 342.618C111.348 342.389 111.364 342.064 111.293 341.847C111.14 341.379 110.67 341.139 110.338 341.052C109.936 340.929 109.503 340.996 109.067 341.227C108.537 341.515 108.384 342.167 108.751 342.609C108.999 342.905 109.32 343.073 109.652 343.127Z" fill="#A9733D"/>
<path d="M108.853 343.459C108.816 343.449 108.788 343.442 108.751 343.432C108.512 343.402 108.253 343.449 107.995 343.529C107.886 343.566 107.774 343.619 107.671 343.707C107.449 343.912 107.34 344.328 107.422 344.613C107.506 344.932 107.714 345.118 107.907 345.285C108.217 345.531 108.595 345.631 108.987 345.57C109.237 345.521 109.503 345.41 109.732 345.141C109.776 345.087 109.82 345.032 109.846 344.973C109.875 344.899 109.882 344.835 109.884 344.753C109.903 344.494 109.832 344.278 109.735 344.12C109.638 343.963 109.511 343.847 109.379 343.746C109.202 343.634 109.047 343.51 108.853 343.459Z" fill="#A9733D"/>
<path d="M107.53 338.745C107.746 337.962 107.531 337.395 106.977 337.249C106.469 337.115 105.765 337.686 105.565 338.408C105.381 339.067 105.634 339.678 106.156 339.832C106.743 340.004 107.305 339.559 107.53 338.745Z" fill="#A9733D"/>
<path d="M102.849 343.873C102.053 342.506 101.485 340.967 102.852 340.171C104.22 339.375 105.973 339.838 106.769 341.205C107.566 342.572 107.103 344.326 105.735 345.122C104.368 345.918 103.645 345.24 102.849 343.873Z" fill="#A9733D"/>
<path d="M112.668 355.716C112.69 355.673 112.706 355.611 112.718 355.565C112.812 355.211 112.767 354.82 112.64 354.589C112.513 354.358 112.299 354.235 112.069 354.207C111.839 354.18 111.6 354.265 111.365 354.367C111.14 354.473 110.901 354.591 110.699 354.834C110.584 354.968 110.48 355.139 110.413 355.319C110.204 355.922 110.505 356.43 110.786 356.636C111.115 356.888 111.511 356.844 111.92 356.606C112.082 356.517 112.242 356.395 112.387 356.219C112.506 356.069 112.601 355.896 112.668 355.716Z" fill="#A9733D"/>
<path d="M112.23 359.06C112.608 359.127 113.022 359.055 113.427 358.866C113.563 358.803 113.693 358.722 113.797 358.551C113.926 358.322 113.943 357.997 113.872 357.781C113.719 357.312 113.249 357.072 112.917 356.985C112.514 356.862 112.082 356.929 111.646 357.16C111.115 357.448 110.963 358.1 111.33 358.543C111.578 358.839 111.899 359.006 112.23 359.06Z" fill="#A9733D"/>
<path d="M111.432 359.392C111.395 359.382 111.367 359.375 111.33 359.365C111.091 359.335 110.832 359.382 110.574 359.462C110.465 359.499 110.352 359.552 110.25 359.64C110.028 359.845 109.918 360.261 110.001 360.546C110.085 360.865 110.292 361.052 110.485 361.218C110.795 361.465 111.174 361.564 111.566 361.503C111.816 361.454 112.082 361.343 112.311 361.074C112.355 361.02 112.399 360.965 112.424 360.906C112.454 360.832 112.461 360.768 112.463 360.686C112.482 360.427 112.41 360.211 112.314 360.053C112.217 359.896 112.09 359.78 111.958 359.679C111.78 359.567 111.625 359.443 111.432 359.392Z" fill="#A9733D"/>
<path d="M110.108 354.678C110.325 353.896 110.109 353.328 109.556 353.182C109.048 353.048 108.344 353.62 108.143 354.341C107.959 355.001 108.213 355.611 108.735 355.765C109.322 355.937 109.884 355.492 110.108 354.678Z" fill="#A9733D"/>
<path d="M105.427 359.806C104.631 358.439 104.063 356.9 105.43 356.104C106.798 355.308 108.551 355.771 109.348 357.138C110.144 358.505 109.681 360.259 108.313 361.055C106.946 361.851 106.224 361.173 105.427 359.806Z" fill="#A9733D"/>
<path d="M126.848 339.546C126.867 339.507 126.881 339.453 126.892 339.412C126.974 339.101 126.934 338.757 126.823 338.553C126.712 338.35 126.523 338.242 126.321 338.218C126.119 338.193 125.908 338.268 125.701 338.359C125.503 338.451 125.293 338.555 125.115 338.769C125.014 338.888 124.922 339.037 124.863 339.196C124.679 339.727 124.944 340.174 125.191 340.355C125.481 340.576 125.83 340.538 126.189 340.329C126.332 340.25 126.473 340.143 126.601 339.988C126.705 339.856 126.789 339.704 126.848 339.546Z" fill="#A9733D"/>
<path d="M126.462 342.487C126.794 342.546 127.159 342.482 127.516 342.316C127.634 342.26 127.749 342.189 127.841 342.039C127.955 341.837 127.969 341.551 127.907 341.361C127.772 340.948 127.359 340.738 127.066 340.66C126.712 340.552 126.332 340.611 125.948 340.814C125.481 341.068 125.347 341.642 125.67 342.031C125.888 342.292 126.171 342.439 126.462 342.487Z" fill="#A9733D"/>
<path d="M125.76 342.78C125.727 342.771 125.703 342.765 125.67 342.756C125.46 342.73 125.232 342.771 125.005 342.841C124.909 342.874 124.81 342.92 124.72 342.998C124.525 343.178 124.428 343.544 124.501 343.795C124.574 344.076 124.757 344.24 124.927 344.386C125.2 344.603 125.533 344.691 125.878 344.637C126.098 344.594 126.332 344.496 126.534 344.26C126.572 344.212 126.611 344.164 126.633 344.112C126.659 344.047 126.666 343.99 126.667 343.918C126.684 343.691 126.621 343.5 126.536 343.362C126.451 343.223 126.339 343.121 126.223 343.033C126.067 342.933 125.93 342.825 125.76 342.78Z" fill="#A9733D"/>
<path d="M124.595 338.631C124.785 337.942 124.596 337.442 124.108 337.314C123.661 337.196 123.042 337.699 122.866 338.334C122.704 338.914 122.927 339.452 123.386 339.587C123.903 339.738 124.397 339.347 124.595 338.631Z" fill="#A9733D"/>
<path d="M120.476 343.145C119.775 341.941 119.275 340.587 120.478 339.887C121.681 339.186 123.225 339.594 123.925 340.797C124.626 342 124.218 343.543 123.015 344.244C121.812 344.945 121.176 344.348 120.476 343.145Z" fill="#A9733D"/>
<path d="M135.913 327.078C135.928 327.049 135.939 327.007 135.947 326.975C136.011 326.735 135.98 326.469 135.894 326.312C135.808 326.155 135.662 326.072 135.506 326.053C135.35 326.034 135.187 326.092 135.028 326.161C134.874 326.233 134.712 326.313 134.575 326.479C134.497 326.57 134.426 326.686 134.38 326.808C134.238 327.218 134.443 327.563 134.634 327.703C134.857 327.874 135.127 327.845 135.405 327.683C135.515 327.622 135.624 327.539 135.722 327.42C135.803 327.318 135.868 327.201 135.913 327.078Z" fill="#A9733D"/>
<path d="M135.615 329.35C135.872 329.396 136.153 329.347 136.429 329.218C136.521 329.175 136.609 329.12 136.68 329.005C136.768 328.849 136.78 328.628 136.731 328.481C136.627 328.162 136.308 327.999 136.082 327.94C135.809 327.856 135.515 327.902 135.218 328.059C134.858 328.255 134.754 328.698 135.004 328.999C135.172 329.2 135.39 329.313 135.615 329.35Z" fill="#A9733D"/>
<path d="M135.072 329.576C135.047 329.57 135.028 329.565 135.003 329.558C134.841 329.538 134.665 329.57 134.489 329.624C134.415 329.649 134.339 329.685 134.269 329.745C134.118 329.884 134.044 330.167 134.1 330.361C134.157 330.577 134.298 330.704 134.429 330.817C134.64 330.985 134.897 331.053 135.163 331.011C135.333 330.978 135.514 330.902 135.67 330.719C135.7 330.683 135.73 330.646 135.747 330.605C135.767 330.555 135.772 330.511 135.773 330.456C135.786 330.28 135.738 330.133 135.672 330.026C135.606 329.919 135.52 329.84 135.43 329.772C135.31 329.695 135.204 329.611 135.072 329.576Z" fill="#A9733D"/>
<path d="M134.173 326.372C134.32 325.84 134.174 325.454 133.797 325.355C133.452 325.264 132.974 325.652 132.837 326.143C132.712 326.591 132.885 327.006 133.24 327.111C133.638 327.227 134.02 326.925 134.173 326.372Z" fill="#A9733D"/>
<path d="M130.992 329.858C130.451 328.928 130.064 327.883 130.994 327.341C131.923 326.8 133.115 327.115 133.656 328.044C134.197 328.974 133.882 330.166 132.953 330.707C132.024 331.248 131.533 330.787 130.992 329.858Z" fill="#A9733D"/>
<path d="M122.888 330.202C122.905 330.166 122.919 330.116 122.929 330.078C123.005 329.789 122.968 329.471 122.865 329.282C122.762 329.094 122.587 328.994 122.399 328.971C122.212 328.949 122.017 329.018 121.825 329.102C121.642 329.188 121.447 329.284 121.282 329.482C121.189 329.592 121.104 329.731 121.049 329.877C120.879 330.37 121.124 330.783 121.353 330.952C121.621 331.157 121.945 331.121 122.278 330.927C122.41 330.854 122.541 330.755 122.659 330.611C122.756 330.489 122.833 330.348 122.888 330.202Z" fill="#A9733D"/>
<path d="M122.53 332.928C122.838 332.983 123.176 332.924 123.506 332.77C123.617 332.718 123.723 332.652 123.808 332.513C123.913 332.326 123.927 332.061 123.869 331.885C123.744 331.503 123.361 331.307 123.09 331.236C122.762 331.136 122.409 331.19 122.054 331.379C121.621 331.614 121.497 332.145 121.796 332.506C121.998 332.747 122.26 332.884 122.53 332.928Z" fill="#A9733D"/>
<path d="M121.879 333.198C121.849 333.191 121.827 333.185 121.797 333.177C121.602 333.152 121.39 333.19 121.18 333.256C121.091 333.286 120.999 333.329 120.916 333.401C120.735 333.568 120.646 333.907 120.713 334.14C120.781 334.399 120.95 334.552 121.108 334.687C121.361 334.888 121.669 334.97 121.989 334.92C122.193 334.879 122.41 334.789 122.596 334.57C122.632 334.525 122.668 334.481 122.689 334.433C122.713 334.372 122.719 334.32 122.72 334.253C122.736 334.042 122.678 333.866 122.599 333.738C122.52 333.609 122.416 333.515 122.309 333.433C122.164 333.341 122.038 333.24 121.879 333.198Z" fill="#A9733D"/>
<path d="M120.8 329.355C120.977 328.717 120.801 328.254 120.349 328.135C119.935 328.025 119.361 328.492 119.198 329.08C119.048 329.618 119.255 330.116 119.68 330.241C120.159 330.381 120.617 330.019 120.8 329.355Z" fill="#A9733D"/>
<path d="M116.984 333.537C116.335 332.422 115.871 331.167 116.986 330.518C118.101 329.869 119.531 330.247 120.18 331.361C120.829 332.476 120.452 333.906 119.337 334.555C118.222 335.204 117.633 334.651 116.984 333.537Z" fill="#A9733D"/>
<path d="M132.873 319.302C132.885 319.277 132.894 319.241 132.901 319.215C132.955 319.013 132.929 318.79 132.857 318.658C132.784 318.526 132.662 318.456 132.531 318.44C132.4 318.425 132.263 318.473 132.129 318.532C132 318.592 131.864 318.659 131.749 318.798C131.683 318.875 131.624 318.972 131.586 319.075C131.466 319.419 131.638 319.709 131.799 319.826C131.986 319.97 132.212 319.945 132.446 319.809C132.538 319.758 132.63 319.689 132.712 319.588C132.78 319.503 132.834 319.404 132.873 319.302Z" fill="#A9733D"/>
<path d="M132.623 321.21C132.838 321.248 133.074 321.207 133.306 321.099C133.383 321.063 133.457 321.016 133.516 320.919C133.59 320.788 133.6 320.603 133.559 320.479C133.472 320.212 133.204 320.075 133.014 320.025C132.785 319.955 132.538 319.993 132.289 320.125C131.986 320.29 131.899 320.661 132.109 320.914C132.25 321.083 132.433 321.179 132.623 321.21Z" fill="#A9733D"/>
<path d="M132.167 321.399C132.146 321.394 132.13 321.39 132.109 321.384C131.973 321.367 131.825 321.394 131.677 321.439C131.615 321.461 131.551 321.491 131.493 321.541C131.366 321.658 131.303 321.895 131.35 322.058C131.398 322.24 131.517 322.346 131.627 322.441C131.804 322.582 132.02 322.639 132.243 322.604C132.386 322.576 132.538 322.513 132.669 322.359C132.694 322.328 132.719 322.297 132.733 322.263C132.75 322.221 132.754 322.184 132.755 322.138C132.766 321.99 132.725 321.866 132.67 321.777C132.615 321.687 132.542 321.621 132.467 321.563C132.366 321.499 132.277 321.429 132.167 321.399Z" fill="#A9733D"/>
<path d="M131.412 318.709C131.535 318.262 131.412 317.939 131.096 317.855C130.806 317.779 130.404 318.105 130.29 318.517C130.185 318.893 130.33 319.241 130.628 319.33C130.963 319.427 131.283 319.174 131.412 318.709Z" fill="#A9733D"/>
<path d="M128.74 321.635C128.286 320.855 127.961 319.977 128.742 319.522C129.522 319.068 130.523 319.332 130.977 320.113C131.431 320.893 131.167 321.894 130.387 322.348C129.607 322.802 129.194 322.415 128.74 321.635Z" fill="#A9733D"/>
</g>
<path fill-rule="evenodd" clip-rule="evenodd" d="M38.1711 16.4484C41.5534 14.3174 44.8797 13.9256 48.1243 16.1003C44.4023 16.1608 41.5736 20.652 38.1711 16.4484ZM52.7522 15.1136C57.2493 13.3258 61.2618 13.5934 64.6391 16.8826C60.2261 16.1413 55.8572 20.8455 52.7522 15.1136ZM44.5338 23.0706C47.7377 20.7943 50.9836 20.2403 54.28 22.2018C50.6481 22.4577 48.1219 27.0042 44.5512 23.0752L44.5338 23.0706ZM56.7817 24.0395C61.0144 22.3536 64.8127 22.6076 67.9744 25.705C63.8159 25.0124 59.7069 29.4479 56.7991 24.0441L56.7817 24.0395ZM50.4158 28.278C54.9129 26.4902 58.9255 26.7578 62.297 30.0455C57.8607 29.298 53.4918 34.0022 50.4158 28.278ZM65.3019 31.0408C68.7805 28.4874 72.3304 27.8234 75.9892 29.9174C71.9798 30.2332 69.2856 35.3057 65.2903 31.0378L65.3019 31.0408ZM62.7305 35.5018C65.7159 39.2702 69.3267 41.0141 73.9173 39.8213C69.6943 38.2899 68.3007 32.059 62.7189 35.4987L62.7305 35.5018ZM53.2059 33.6569C58.3557 34.9177 61.7428 37.7127 62.566 42.7444C59.1261 39.2731 52.1914 40.6814 53.1942 33.6539L53.2059 33.6569ZM68.1931 47.2405C72.7045 48.9707 76.7403 48.6496 80.0497 45.3217C75.6103 46.119 71.1838 41.4674 68.1699 47.2344L68.1931 47.2405ZM76.3555 37.1774C80.3715 38.4395 83.8545 37.9296 86.5405 34.8788C82.7249 35.81 78.6329 31.9888 76.3323 37.1713L76.3555 37.1774ZM63.1104 47.5185C65.1687 50.4596 65.6189 53.4057 63.7212 56.3517C63.557 53.064 59.3544 50.6794 63.1104 47.5185ZM58.3821 43.4496C59.1679 48.6185 57.8449 52.7711 53.4378 55.4413C55.3757 50.9972 51.4058 45.2395 58.3774 43.4668L58.3821 43.4496ZM52.2562 41.5878C51.726 47.3356 49.2027 51.4597 43.7668 53.196C47.0281 48.9233 44.2756 41.6898 52.2562 41.5878ZM45.3093 35.0752C45.6604 40.8347 43.7779 45.2812 38.67 47.8033C41.2704 43.0986 37.4749 36.3565 45.3326 35.0813L45.3093 35.0752ZM35.5438 25.7152C38.1808 28.8642 39.006 32.1485 37.1949 35.6693C36.6557 31.9515 31.6517 29.6743 35.5438 25.7152ZM24.154 27.8185C26.3259 31.2803 29.2338 33.0902 33.2114 32.5023C29.7965 30.8162 29.2203 25.4265 24.1714 27.8231L24.154 27.8185ZM31.4686 35.2684C34.1055 38.4174 34.9308 41.7017 33.1196 45.2225C32.5572 41.4986 27.5485 39.2385 31.4581 35.284L31.4686 35.2684ZM26.4768 36.2879C23.3898 38.9814 22.0713 42.1109 23.3419 45.8868C24.4336 42.2865 29.7298 40.7893 26.4663 36.3035L26.4768 36.2879ZM21.4529 32.1839C22.3469 36.5658 21.3986 40.1425 17.7415 42.6427C19.1982 38.7769 15.5573 34.0075 21.4424 32.1996L21.4529 32.1839ZM18.1193 27.3607C14.1599 28.3398 11.549 30.4966 10.9297 34.3749C13.5536 31.7125 18.8978 32.7854 18.1088 27.3764L18.1193 27.3607ZM24.8235 9.38148C28.3717 7.53337 31.7225 7.41788 34.7715 9.8538C31.0429 9.61815 27.8506 13.8662 24.813 9.39712L24.8235 9.38148Z" fill="#89A829"/>
<path d="M46.1213 31.0448C47.25 32.2348 48.1721 33.3103 48.867 34.2067C48.1055 33.2774 47.1815 32.2075 46.1213 31.0448C40.4725 25.0888 29.6503 16.2647 16.2478 12.6756C0.167506 8.36935 -7.95086 5.20914 -10 4.16731V0C-6.53454 2.05566 3.56667 6.92456 16.2478 9.95492C27.2014 12.5725 39.3992 23.6729 46.1213 31.0448Z" fill="#D9D9D9"/>
</g>
</svg>
