<svg width="1920" height="587" viewBox="0 0 1920 587" fill="none" xmlns="http://www.w3.org/2000/svg">
<mask id="mask0_201_313" style="mask-type:alpha" maskUnits="userSpaceOnUse" x="0" y="0" width="1920" height="587">
<rect width="1920" height="587" fill="#D9D9D9"/>
</mask>
<g mask="url(#mask0_201_313)">
<g opacity="0.2">
<path d="M1864.87 16.8414C1864.83 17.1852 1864.87 17.637 1864.89 17.9759C1865.08 20.5737 1866.29 23.0966 1867.68 24.357C1869.06 25.6175 1870.79 25.9443 1872.4 25.5985C1874.01 25.2526 1875.42 24.1261 1876.76 22.8916C1878.03 21.6622 1879.36 20.3148 1880.16 18.2117C1880.62 17.0422 1880.93 15.6568 1880.96 14.2914C1880.97 9.74841 1877.77 7.03164 1875.4 6.29797C1872.61 5.3684 1870.04 6.57988 1867.85 9.12676C1866.96 10.1003 1866.17 11.2948 1865.6 12.8131C1865.15 14.0956 1864.91 15.476 1864.87 16.8414Z" fill="#A9733D"/>
<path d="M1860.08 -6.65313C1857.38 -6.22731 1854.77 -4.78493 1852.48 -2.5719C1851.71 -1.83422 1851.03 -0.988588 1850.72 0.396801C1850.38 2.23899 1851.02 4.46301 1852 5.75343C1854.12 8.55018 1857.83 9.07093 1860.27 8.89099C1863.26 8.78403 1866.01 7.33166 1868.41 4.76977C1871.31 1.60316 1870.82 -3.13075 1867.33 -5.25779C1864.98 -6.67415 1862.43 -7.05397 1860.08 -6.65313Z" fill="#A9733D"/>
<path d="M1884.49 17.8927C1884.85 23.6582 1887.62 26.9747 1891.68 26.6748C1895.41 26.3999 1898.81 20.9243 1898.49 15.6107C1898.2 10.7488 1895.08 7.23139 1891.21 7.40333C1886.87 7.61027 1884.12 11.9014 1884.49 17.8927Z" fill="#A9733D"/>
<path d="M1904.08 -27.4316C1912.6 -20.0832 1919.99 -11.0538 1912.64 -2.53426C1905.29 5.98523 1892.43 6.9346 1883.91 -0.413793C1875.39 -7.76219 1874.44 -20.6257 1881.79 -29.1452C1889.13 -37.6646 1895.56 -34.78 1904.08 -27.4316Z" fill="#A9733D"/>
<path d="M1853.18 121.511C1853.14 121.834 1853.17 122.257 1853.2 122.575C1853.37 125.009 1854.51 127.374 1855.81 128.555C1857.11 129.737 1858.72 130.043 1860.23 129.719C1861.74 129.395 1863.07 128.339 1864.32 127.182C1865.51 126.03 1866.76 124.767 1867.51 122.796C1867.94 121.7 1868.22 120.401 1868.26 119.121C1868.26 114.864 1865.27 112.317 1863.05 111.63C1860.43 110.759 1858.02 111.894 1855.97 114.281C1855.14 115.193 1854.39 116.313 1853.86 117.736C1853.44 118.938 1853.21 120.232 1853.18 121.511Z" fill="#A9733D"/>
<path d="M1848.68 99.4913C1846.16 99.8904 1843.71 101.242 1841.56 103.316C1840.85 104.008 1840.2 104.8 1839.92 106.099C1839.6 107.825 1840.2 109.91 1841.12 111.119C1843.1 113.74 1846.58 114.228 1848.86 114.06C1851.67 113.959 1854.25 112.598 1856.49 110.197C1859.21 107.229 1858.75 102.793 1855.48 100.799C1853.28 99.4716 1850.89 99.1157 1848.68 99.4913Z" fill="#A9733D"/>
<path d="M1853 95.6605C1853.25 95.6417 1853.44 95.6277 1853.69 95.6089C1855.27 95.2801 1856.8 94.422 1858.25 93.3568C1858.85 92.8865 1859.45 92.3104 1859.9 91.5319C1860.86 89.7585 1860.65 86.9003 1859.5 85.2815C1858.28 83.4556 1856.57 82.7305 1854.99 82.1019C1852.5 81.2213 1849.9 81.4134 1847.57 82.65C1846.1 83.5034 1844.66 84.7803 1843.8 86.9725C1843.64 87.41 1843.48 87.8475 1843.45 88.2756C1843.43 88.8096 1843.52 89.2283 1843.69 89.7483C1844.13 91.4186 1845.05 92.628 1846 93.4093C1846.95 94.1906 1848.01 94.645 1849.05 94.9935C1850.42 95.3185 1851.66 95.7588 1853 95.6605Z" fill="#A9733D"/>
<path d="M1871.57 122.497C1871.9 127.9 1874.5 131.009 1878.3 130.728C1881.79 130.47 1884.99 125.338 1884.69 120.358C1884.41 115.801 1881.49 112.505 1877.86 112.666C1873.79 112.86 1871.22 116.882 1871.57 122.497Z" fill="#A9733D"/>
<path d="M1889.93 80.0175C1897.91 86.9046 1904.84 95.3673 1897.95 103.352C1891.06 111.337 1879 112.227 1871.02 105.339C1863.03 98.4523 1862.14 86.3962 1869.03 78.4115C1875.92 70.4268 1881.94 73.1303 1889.93 80.0175Z" fill="#A9733D"/>
<path d="M1709.03 93.0213C1708.94 93.2844 1708.9 93.6439 1708.87 93.9135C1708.62 95.9805 1709.18 98.1447 1710.07 99.3464C1710.97 100.548 1712.27 101.07 1713.59 101.046C1714.9 101.021 1716.18 100.355 1717.42 99.5928C1718.61 98.8238 1719.86 97.9715 1720.81 96.4446C1721.35 95.5978 1721.8 94.5583 1722.04 93.4929C1722.74 89.9306 1720.65 87.3086 1718.91 86.3692C1716.86 85.2111 1714.66 85.767 1712.55 87.4272C1711.7 88.0554 1710.9 88.8698 1710.22 89.9732C1709.67 90.9099 1709.27 91.9559 1709.03 93.0213Z" fill="#A9733D"/>
<path d="M1708.88 73.8575C1706.7 73.7779 1704.42 74.507 1702.29 75.8912C1701.58 76.3526 1700.91 76.9103 1700.46 77.9498C1699.91 79.3423 1700.07 81.1851 1700.64 82.3478C1701.87 84.8659 1704.7 85.8452 1706.64 86.0787C1709 86.4539 1711.38 85.7377 1713.66 84.0969C1716.42 82.0587 1716.76 78.2713 1714.35 76.0662C1712.72 74.5941 1710.78 73.9048 1708.88 73.8575Z" fill="#A9733D"/>
<path d="M1713.11 71.3598C1713.33 71.3857 1713.49 71.4052 1713.71 71.4311C1715.07 71.4135 1716.5 70.9464 1717.89 70.2932C1718.47 69.9985 1719.06 69.614 1719.57 69.0367C1720.66 67.7089 1720.95 65.2822 1720.26 63.7403C1719.54 62.0122 1718.23 61.1246 1717.01 60.3398C1715.07 59.1946 1712.86 58.9287 1710.7 59.581C1709.33 60.0545 1707.92 60.8876 1706.84 62.5814C1706.64 62.9214 1706.43 63.2615 1706.34 63.6145C1706.23 64.0574 1706.24 64.4234 1706.29 64.8858C1706.39 66.3563 1706.96 67.5191 1707.63 68.329C1708.3 69.1388 1709.1 69.692 1709.92 70.1552C1711.01 70.6509 1711.98 71.2236 1713.11 71.3598Z" fill="#A9733D"/>
<path d="M1724.26 96.86C1723.65 101.437 1725.31 104.463 1728.54 104.852C1731.51 105.208 1735.02 101.438 1735.58 97.2204C1736.1 93.3625 1734.2 90.1245 1731.14 89.665C1727.7 89.1601 1724.88 92.1035 1724.26 96.86Z" fill="#A9733D"/>
<path d="M1746.59 64.3218C1752.14 71.3942 1756.54 79.6106 1749.47 85.1635C1742.4 90.7163 1732.16 89.4845 1726.61 82.4121C1721.06 75.3397 1722.29 65.105 1729.36 59.5521C1736.43 53.9993 1741.03 57.2494 1746.59 64.3218Z" fill="#A9733D"/>
<path d="M1773.92 140.339C1773.84 140.602 1773.8 140.961 1773.76 141.231C1773.51 143.298 1774.07 145.462 1774.97 146.664C1775.86 147.865 1777.17 148.387 1778.48 148.363C1779.8 148.339 1781.08 147.673 1782.32 146.91C1783.5 146.141 1784.75 145.289 1785.7 143.762C1786.24 142.915 1786.7 141.876 1786.93 140.81C1787.64 137.248 1785.55 134.626 1783.8 133.687C1781.75 132.528 1779.55 133.084 1777.44 134.745C1776.6 135.373 1775.79 136.187 1775.11 137.291C1774.56 138.227 1774.16 139.273 1773.92 140.339Z" fill="#A9733D"/>
<path d="M1773.77 121.174C1771.59 121.094 1769.32 121.823 1767.19 123.208C1766.47 123.669 1765.81 124.227 1765.35 125.266C1764.8 126.659 1764.96 128.501 1765.53 129.664C1766.76 132.182 1769.6 133.162 1771.54 133.395C1773.9 133.77 1776.28 133.054 1778.55 131.413C1781.31 129.375 1781.66 125.588 1779.25 123.383C1777.62 121.91 1775.68 121.221 1773.77 121.174Z" fill="#A9733D"/>
<path d="M1778.01 118.677C1778.22 118.703 1778.39 118.722 1778.6 118.748C1779.97 118.73 1781.39 118.263 1782.78 117.61C1783.37 117.315 1783.96 116.931 1784.47 116.354C1785.55 115.026 1785.85 112.599 1785.16 111.057C1784.44 109.329 1783.12 108.441 1781.9 107.657C1779.96 106.511 1777.75 106.246 1775.6 106.898C1774.23 107.371 1772.82 108.204 1771.74 109.898C1771.53 110.238 1771.33 110.578 1771.23 110.931C1771.12 111.374 1771.13 111.74 1771.19 112.203C1771.28 113.673 1771.86 114.836 1772.52 115.646C1773.19 116.456 1774 117.009 1774.82 117.472C1775.91 117.968 1776.88 118.54 1778.01 118.677Z" fill="#A9733D"/>
<path d="M1789.15 144.176C1788.55 148.753 1790.21 151.779 1793.44 152.168C1796.4 152.525 1799.92 148.754 1800.48 144.537C1801 140.679 1799.09 137.441 1796.03 136.981C1792.59 136.476 1789.78 139.42 1789.15 144.176Z" fill="#A9733D"/>
<path d="M1811.48 111.639C1817.03 118.712 1821.44 126.928 1814.37 132.481C1807.29 138.034 1797.06 136.802 1791.5 129.729C1785.95 122.657 1787.18 112.422 1794.26 106.87C1801.33 101.317 1805.93 104.567 1811.48 111.639Z" fill="#A9733D"/>
<path d="M1780.79 48.5487C1780.7 48.8118 1780.66 49.1713 1780.62 49.4409C1780.38 51.5078 1780.94 53.6721 1781.83 54.8737C1782.72 56.0753 1784.03 56.597 1785.34 56.5729C1786.66 56.5488 1787.94 55.8826 1789.18 55.1201C1790.37 54.3512 1791.62 53.4988 1792.57 51.972C1793.1 51.1252 1793.56 50.0857 1793.8 49.0202C1794.5 45.4579 1792.41 42.836 1790.66 41.8965C1788.61 40.7385 1786.42 41.2943 1784.3 42.9546C1783.46 43.5827 1782.65 44.3971 1781.97 45.5006C1781.42 46.4372 1781.02 47.4832 1780.79 48.5487Z" fill="#A9733D"/>
<path d="M1780.63 29.3849C1778.46 29.3052 1776.18 30.0344 1774.05 31.4185C1773.34 31.8799 1772.67 32.4376 1772.21 33.4771C1771.66 34.8696 1771.82 36.7124 1772.4 37.8751C1773.62 40.3933 1776.46 41.3726 1778.4 41.606C1780.76 41.9813 1783.14 41.2651 1785.41 39.6243C1788.17 37.586 1788.52 33.7986 1786.11 31.5936C1784.48 30.1214 1782.54 29.4321 1780.63 29.3849Z" fill="#A9733D"/>
<path d="M1784.87 26.8876C1785.09 26.9135 1785.25 26.933 1785.46 26.9589C1786.83 26.9413 1788.25 26.4743 1789.64 25.821C1790.23 25.5263 1790.82 25.1418 1791.33 24.5645C1792.42 23.2367 1792.71 20.81 1792.02 19.2682C1791.3 17.5401 1789.98 16.6524 1788.76 15.8676C1786.83 14.7224 1784.62 14.4565 1782.46 15.1089C1781.09 15.5824 1779.68 16.4154 1778.6 18.1092C1778.4 18.4493 1778.19 18.7893 1778.09 19.1424C1777.99 19.5853 1778 19.9513 1778.05 20.4136C1778.15 21.8841 1778.72 23.047 1779.38 23.8568C1780.05 24.6666 1780.86 25.2198 1781.68 25.6831C1782.77 26.1788 1783.74 26.7514 1784.87 26.8876Z" fill="#A9733D"/>
<path d="M1796.01 52.3874C1795.41 56.9641 1797.07 59.99 1800.3 60.3791C1803.26 60.7358 1806.78 56.9651 1807.34 52.7477C1807.86 48.8899 1805.95 45.6519 1802.89 45.1923C1799.45 44.6874 1796.64 47.6308 1796.01 52.3874Z" fill="#A9733D"/>
<path d="M1818.34 19.8496C1823.9 26.922 1828.3 35.1385 1821.23 40.6913C1814.16 46.2442 1803.92 45.0123 1798.37 37.9399C1792.81 30.8676 1794.04 20.6328 1801.12 15.08C1808.19 9.52713 1812.79 12.7772 1818.34 19.8496Z" fill="#A9733D"/>
<path d="M1697.09 177.219C1697.01 177.452 1696.98 177.771 1696.95 178.011C1696.73 179.846 1697.22 181.767 1698.02 182.833C1698.81 183.9 1699.97 184.363 1701.14 184.342C1702.3 184.32 1703.44 183.729 1704.54 183.052C1705.59 182.37 1706.7 181.613 1707.55 180.258C1708.03 179.506 1708.43 178.583 1708.64 177.637C1709.26 174.475 1707.41 172.148 1705.86 171.314C1704.04 170.286 1702.09 170.779 1700.21 172.253C1699.47 172.81 1698.75 173.533 1698.14 174.513C1697.66 175.344 1697.3 176.273 1697.09 177.219Z" fill="#A9733D"/>
<path d="M1696.95 160.207C1695.02 160.136 1693 160.783 1691.11 162.012C1690.48 162.422 1689.88 162.917 1689.48 163.84C1688.99 165.076 1689.14 166.712 1689.64 167.744C1690.73 169.98 1693.25 170.849 1694.97 171.057C1697.06 171.39 1699.18 170.754 1701.2 169.297C1703.65 167.488 1703.96 164.125 1701.81 162.167C1700.37 160.86 1698.65 160.248 1696.95 160.207Z" fill="#A9733D"/>
<path d="M1700.72 157.989C1700.91 158.012 1701.05 158.03 1701.24 158.053C1702.46 158.037 1703.72 157.622 1704.95 157.043C1705.47 156.781 1706 156.44 1706.45 155.927C1707.41 154.748 1707.67 152.594 1707.06 151.225C1706.42 149.691 1705.25 148.903 1704.17 148.207C1702.45 147.19 1700.49 146.954 1698.58 147.533C1697.36 147.954 1696.11 148.693 1695.15 150.197C1694.97 150.499 1694.79 150.8 1694.7 151.114C1694.6 151.507 1694.61 151.832 1694.66 152.242C1694.75 153.548 1695.25 154.58 1695.85 155.299C1696.44 156.018 1697.16 156.509 1697.88 156.92C1698.85 157.36 1699.71 157.868 1700.72 157.989Z" fill="#A9733D"/>
<path d="M1710.61 180.626C1710.07 184.689 1711.54 187.375 1714.41 187.721C1717.04 188.037 1720.16 184.69 1720.66 180.946C1721.12 177.521 1719.43 174.647 1716.71 174.239C1713.66 173.791 1711.16 176.404 1710.61 180.626Z" fill="#A9733D"/>
<path d="M1730.43 151.742C1735.36 158.021 1739.27 165.314 1732.99 170.244C1726.71 175.173 1717.63 174.08 1712.7 167.801C1707.77 161.523 1708.86 152.438 1715.14 147.508C1721.42 142.579 1725.5 145.464 1730.43 151.742Z" fill="#A9733D"/>
<path d="M1624.84 152.081C1624.76 152.314 1624.72 152.633 1624.69 152.873C1624.47 154.707 1624.97 156.629 1625.76 157.695C1626.55 158.762 1627.71 159.225 1628.88 159.204C1630.05 159.182 1631.19 158.591 1632.29 157.914C1633.34 157.231 1634.45 156.475 1635.29 155.119C1635.77 154.368 1636.17 153.445 1636.38 152.499C1637.01 149.337 1635.15 147.009 1633.6 146.175C1631.78 145.147 1629.83 145.641 1627.96 147.115C1627.21 147.672 1626.49 148.395 1625.89 149.375C1625.4 150.206 1625.05 151.135 1624.84 152.081Z" fill="#A9733D"/>
<path d="M1624.7 135.068C1622.77 134.998 1620.75 135.645 1618.85 136.874C1618.22 137.284 1617.63 137.779 1617.23 138.702C1616.74 139.938 1616.88 141.574 1617.39 142.606C1618.48 144.842 1620.99 145.711 1622.71 145.919C1624.81 146.252 1626.92 145.616 1628.94 144.159C1631.39 142.349 1631.7 138.987 1629.56 137.029C1628.11 135.722 1626.39 135.11 1624.7 135.068Z" fill="#A9733D"/>
<path d="M1628.46 132.851C1628.65 132.874 1628.79 132.891 1628.99 132.914C1630.2 132.899 1631.46 132.484 1632.7 131.904C1633.22 131.643 1633.74 131.301 1634.19 130.789C1635.16 129.61 1635.42 127.456 1634.81 126.087C1634.17 124.553 1633 123.765 1631.92 123.069C1630.2 122.052 1628.24 121.816 1626.32 122.395C1625.11 122.815 1623.85 123.555 1622.89 125.058C1622.71 125.36 1622.53 125.662 1622.44 125.976C1622.35 126.369 1622.36 126.694 1622.41 127.104C1622.49 128.41 1623 129.442 1623.59 130.161C1624.18 130.88 1624.9 131.371 1625.63 131.782C1626.59 132.222 1627.46 132.73 1628.46 132.851Z" fill="#A9733D"/>
<path d="M1638.35 155.489C1637.82 159.552 1639.29 162.238 1642.16 162.583C1644.79 162.9 1647.91 159.553 1648.41 155.809C1648.87 152.384 1647.18 149.51 1644.46 149.102C1641.41 148.654 1638.91 151.267 1638.35 155.489Z" fill="#A9733D"/>
<path d="M1658.17 126.604C1663.1 132.882 1667.01 140.176 1660.74 145.105C1654.46 150.034 1645.37 148.941 1640.44 142.663C1635.51 136.384 1636.6 127.299 1642.88 122.37C1649.16 117.44 1653.24 120.325 1658.17 126.604Z" fill="#A9733D"/>
<path d="M1620.52 224.357C1620.44 224.585 1620.41 224.896 1620.38 225.129C1620.16 226.919 1620.65 228.793 1621.42 229.833C1622.2 230.873 1623.32 231.325 1624.46 231.304C1625.6 231.283 1626.71 230.706 1627.78 230.046C1628.81 229.38 1629.89 228.643 1630.72 227.321C1631.18 226.588 1631.57 225.688 1631.78 224.765C1632.39 221.681 1630.58 219.411 1629.07 218.598C1627.3 217.596 1625.39 218.077 1623.56 219.514C1622.83 220.058 1622.13 220.763 1621.55 221.718C1621.07 222.529 1620.72 223.435 1620.52 224.357Z" fill="#A9733D"/>
<path d="M1620.39 207.767C1618.5 207.698 1616.53 208.329 1614.68 209.528C1614.07 209.927 1613.49 210.41 1613.1 211.31C1612.62 212.516 1612.76 214.111 1613.25 215.118C1614.32 217.298 1616.77 218.146 1618.45 218.348C1620.49 218.673 1622.56 218.053 1624.52 216.632C1626.91 214.867 1627.21 211.588 1625.12 209.679C1623.72 208.404 1622.04 207.808 1620.39 207.767Z" fill="#A9733D"/>
<path d="M1624.05 205.605C1624.24 205.627 1624.38 205.644 1624.57 205.667C1625.75 205.651 1626.98 205.247 1628.19 204.681C1628.69 204.426 1629.2 204.093 1629.64 203.594C1630.59 202.444 1630.84 200.343 1630.24 199.008C1629.62 197.512 1628.48 196.744 1627.43 196.065C1625.75 195.073 1623.83 194.843 1621.97 195.408C1620.78 195.818 1619.56 196.539 1618.63 198.005C1618.45 198.3 1618.27 198.594 1618.19 198.9C1618.09 199.283 1618.1 199.6 1618.15 200C1618.23 201.273 1618.73 202.28 1619.3 202.981C1619.88 203.682 1620.58 204.161 1621.29 204.562C1622.23 204.991 1623.07 205.487 1624.05 205.605Z" fill="#A9733D"/>
<path d="M1633.7 227.681C1633.18 231.643 1634.61 234.262 1637.41 234.599C1639.98 234.908 1643.02 231.644 1643.51 227.993C1643.96 224.653 1642.31 221.85 1639.66 221.452C1636.68 221.015 1634.24 223.563 1633.7 227.681Z" fill="#A9733D"/>
<path d="M1653.03 199.511C1657.84 205.634 1661.65 212.747 1655.53 217.555C1649.41 222.362 1640.55 221.295 1635.74 215.173C1630.93 209.05 1632 200.189 1638.12 195.382C1644.24 190.575 1648.22 193.389 1653.03 199.511Z" fill="#A9733D"/>
<path d="M1550.97 201.877C1550.9 202.092 1550.86 202.387 1550.84 202.607C1550.63 204.3 1551.09 206.073 1551.82 207.057C1552.56 208.041 1553.62 208.468 1554.7 208.449C1555.78 208.429 1556.83 207.883 1557.84 207.259C1558.82 206.629 1559.84 205.931 1560.62 204.68C1561.06 203.987 1561.43 203.135 1561.62 202.263C1562.2 199.345 1560.49 197.198 1559.06 196.428C1557.38 195.48 1555.58 195.935 1553.85 197.295C1553.16 197.809 1552.5 198.476 1551.94 199.38C1551.49 200.147 1551.17 201.004 1550.97 201.877Z" fill="#A9733D"/>
<path d="M1550.84 186.18C1549.06 186.115 1547.2 186.712 1545.45 187.846C1544.87 188.224 1544.32 188.681 1543.95 189.532C1543.5 190.673 1543.63 192.182 1544.1 193.135C1545.1 195.198 1547.42 196 1549.01 196.191C1550.95 196.498 1552.9 195.912 1554.76 194.567C1557.02 192.898 1557.3 189.796 1555.33 187.989C1554 186.784 1552.41 186.219 1550.84 186.18Z" fill="#A9733D"/>
<path d="M1554.31 184.135C1554.49 184.156 1554.62 184.172 1554.8 184.194C1555.92 184.179 1557.09 183.797 1558.22 183.262C1558.7 183.02 1559.19 182.705 1559.6 182.233C1560.49 181.145 1560.73 179.158 1560.17 177.895C1559.58 176.479 1558.5 175.752 1557.5 175.11C1555.92 174.172 1554.11 173.954 1552.34 174.488C1551.22 174.876 1550.06 175.558 1549.18 176.946C1549.01 177.224 1548.84 177.503 1548.76 177.792C1548.68 178.154 1548.68 178.454 1548.73 178.833C1548.81 180.037 1549.27 180.99 1549.82 181.653C1550.37 182.316 1551.03 182.769 1551.7 183.149C1552.59 183.555 1553.39 184.024 1554.31 184.135Z" fill="#A9733D"/>
<path d="M1563.44 205.02C1562.95 208.769 1564.3 211.247 1566.95 211.566C1569.38 211.858 1572.26 208.769 1572.72 205.315C1573.14 202.156 1571.58 199.504 1569.08 199.127C1566.26 198.714 1563.95 201.125 1563.44 205.02Z" fill="#A9733D"/>
<path d="M1581.73 178.372C1586.28 184.164 1589.88 190.893 1584.09 195.441C1578.3 199.989 1569.92 198.98 1565.37 193.188C1560.82 187.395 1561.83 179.013 1567.62 174.465C1573.41 169.917 1577.18 172.579 1581.73 178.372Z" fill="#A9733D"/>
<path d="M1552.15 275.049C1552.08 275.26 1552.05 275.547 1552.02 275.763C1551.83 277.417 1552.27 279.149 1552.99 280.11C1553.7 281.072 1554.75 281.489 1555.8 281.47C1556.85 281.45 1557.88 280.917 1558.87 280.307C1559.82 279.692 1560.82 279.01 1561.58 277.788C1562.01 277.111 1562.37 276.279 1562.56 275.426C1563.12 272.576 1561.45 270.478 1560.06 269.726C1558.42 268.8 1556.66 269.245 1554.97 270.573C1554.29 271.076 1553.65 271.727 1553.1 272.61C1552.66 273.36 1552.34 274.197 1552.15 275.049Z" fill="#A9733D"/>
<path d="M1552.03 259.715C1550.29 259.651 1548.47 260.235 1546.76 261.343C1546.19 261.712 1545.66 262.158 1545.29 262.99C1544.85 264.104 1544.98 265.579 1545.44 266.51C1546.42 268.525 1548.69 269.308 1550.24 269.495C1552.13 269.795 1554.04 269.222 1555.86 267.909C1558.06 266.278 1558.34 263.247 1556.41 261.483C1555.11 260.305 1553.56 259.753 1552.03 259.715Z" fill="#A9733D"/>
<path d="M1555.42 257.716C1555.59 257.737 1555.72 257.753 1555.89 257.773C1556.99 257.759 1558.13 257.386 1559.24 256.863C1559.71 256.627 1560.18 256.319 1560.59 255.857C1561.46 254.795 1561.69 252.853 1561.14 251.62C1560.56 250.237 1559.51 249.527 1558.54 248.899C1556.99 247.982 1555.22 247.77 1553.49 248.291C1552.4 248.67 1551.27 249.337 1550.4 250.692C1550.24 250.964 1550.08 251.236 1550 251.519C1549.91 251.873 1549.92 252.166 1549.96 252.536C1550.04 253.713 1550.5 254.643 1551.03 255.291C1551.57 255.939 1552.21 256.382 1552.87 256.752C1553.74 257.149 1554.51 257.607 1555.42 257.716Z" fill="#A9733D"/>
<path d="M1564.34 278.121C1563.85 281.783 1565.18 284.204 1567.77 284.516C1570.14 284.801 1572.95 281.784 1573.4 278.409C1573.82 275.323 1572.29 272.732 1569.84 272.364C1567.09 271.96 1564.84 274.315 1564.34 278.121Z" fill="#A9733D"/>
<path d="M1582.2 252.085C1586.65 257.744 1590.17 264.319 1584.51 268.762C1578.85 273.205 1570.66 272.219 1566.22 266.56C1561.78 260.901 1562.76 252.712 1568.42 248.269C1574.08 243.826 1577.76 246.426 1582.2 252.085Z" fill="#A9733D"/>
<path d="M1490.65 261.089C1490.59 261.273 1490.56 261.524 1490.53 261.712C1490.36 263.154 1490.75 264.664 1491.38 265.503C1492 266.341 1492.91 266.705 1493.83 266.689C1494.74 266.672 1495.64 266.207 1496.5 265.675C1497.33 265.138 1498.2 264.543 1498.87 263.478C1499.24 262.887 1499.56 262.162 1499.72 261.418C1500.21 258.932 1498.76 257.103 1497.54 256.447C1496.11 255.639 1494.58 256.027 1493.1 257.185C1492.51 257.624 1491.95 258.192 1491.48 258.962C1491.09 259.616 1490.81 260.346 1490.65 261.089Z" fill="#A9733D"/>
<path d="M1490.54 247.716C1489.02 247.66 1487.43 248.169 1485.95 249.135C1485.45 249.457 1484.98 249.846 1484.67 250.571C1484.28 251.543 1484.39 252.829 1484.79 253.64C1485.65 255.398 1487.63 256.081 1488.98 256.244C1490.63 256.506 1492.29 256.006 1493.88 254.861C1495.8 253.438 1496.04 250.795 1494.36 249.257C1493.23 248.23 1491.87 247.749 1490.54 247.716Z" fill="#A9733D"/>
<path d="M1493.5 245.974C1493.65 245.992 1493.76 246.006 1493.91 246.024C1494.87 246.011 1495.86 245.686 1496.83 245.23C1497.23 245.024 1497.65 244.756 1498 244.353C1498.76 243.427 1498.97 241.733 1498.48 240.657C1497.98 239.452 1497.06 238.832 1496.21 238.285C1494.86 237.486 1493.32 237.3 1491.82 237.755C1490.86 238.086 1489.88 238.667 1489.12 239.849C1488.98 240.086 1488.84 240.323 1488.77 240.57C1488.69 240.879 1488.7 241.134 1488.74 241.457C1488.81 242.483 1489.2 243.294 1489.67 243.859C1490.14 244.424 1490.7 244.81 1491.27 245.133C1492.03 245.479 1492.71 245.879 1493.5 245.974Z" fill="#A9733D"/>
<path d="M1501.27 263.767C1500.85 266.96 1502.01 269.072 1504.26 269.344C1506.33 269.592 1508.78 266.961 1509.18 264.018C1509.54 261.326 1508.21 259.066 1506.07 258.746C1503.67 258.393 1501.71 260.447 1501.27 263.767Z" fill="#A9733D"/>
<path d="M1516.85 241.063C1520.73 245.998 1523.8 251.731 1518.87 255.606C1513.93 259.481 1506.79 258.621 1502.92 253.686C1499.04 248.751 1499.9 241.609 1504.83 237.735C1509.77 233.86 1512.98 236.128 1516.85 241.063Z" fill="#A9733D"/>
<path d="M1502.35 317.173C1502.29 317.348 1502.26 317.588 1502.24 317.768C1502.08 319.146 1502.45 320.59 1503.05 321.391C1503.64 322.192 1504.51 322.54 1505.39 322.524C1506.27 322.508 1507.12 322.064 1507.95 321.555C1508.74 321.042 1509.57 320.474 1510.21 319.456C1510.56 318.891 1510.87 318.198 1511.03 317.487C1511.49 315.112 1510.1 313.363 1508.94 312.737C1507.57 311.964 1506.1 312.335 1504.7 313.442C1504.13 313.861 1503.6 314.404 1503.14 315.14C1502.78 315.765 1502.51 316.462 1502.35 317.173Z" fill="#A9733D"/>
<path d="M1502.25 304.394C1500.8 304.34 1499.28 304.827 1497.86 305.75C1497.38 306.057 1496.94 306.429 1496.63 307.123C1496.27 308.051 1496.38 309.28 1496.76 310.056C1497.57 311.735 1499.46 312.388 1500.76 312.544C1502.33 312.794 1503.92 312.316 1505.44 311.222C1507.28 309.863 1507.51 307.337 1505.9 305.866C1504.81 304.885 1503.52 304.425 1502.25 304.394Z" fill="#A9733D"/>
<path d="M1505.07 302.728C1505.22 302.745 1505.33 302.758 1505.47 302.776C1506.38 302.764 1507.33 302.452 1508.26 302.017C1508.65 301.82 1509.04 301.564 1509.38 301.179C1510.11 300.294 1510.3 298.675 1509.84 297.647C1509.36 296.495 1508.48 295.903 1507.67 295.38C1506.38 294.616 1504.9 294.439 1503.47 294.874C1502.55 295.19 1501.61 295.745 1500.89 296.875C1500.76 297.101 1500.62 297.328 1500.56 297.563C1500.48 297.859 1500.49 298.103 1500.53 298.411C1500.59 299.392 1500.97 300.167 1501.42 300.707C1501.86 301.247 1502.4 301.616 1502.95 301.925C1503.67 302.255 1504.32 302.637 1505.07 302.728Z" fill="#A9733D"/>
<path d="M1512.51 319.733C1512.1 322.785 1513.21 324.803 1515.36 325.063C1517.34 325.301 1519.68 322.786 1520.06 319.973C1520.4 317.401 1519.13 315.241 1517.09 314.935C1514.8 314.598 1512.92 316.561 1512.51 319.733Z" fill="#A9733D"/>
<path d="M1527.4 298.035C1531.1 302.751 1534.04 308.23 1529.32 311.933C1524.6 315.636 1517.78 314.815 1514.07 310.099C1510.37 305.382 1511.19 298.557 1515.91 294.854C1520.63 291.151 1523.69 293.319 1527.4 298.035Z" fill="#A9733D"/>
<path d="M1448.76 367.414C1448.7 367.579 1448.68 367.804 1448.66 367.972C1448.5 369.265 1448.85 370.619 1449.41 371.37C1449.97 372.122 1450.79 372.448 1451.61 372.433C1452.43 372.418 1453.23 372.001 1454.01 371.524C1454.75 371.043 1455.53 370.51 1456.12 369.555C1456.46 369.026 1456.75 368.375 1456.89 367.709C1457.33 365.481 1456.03 363.841 1454.93 363.254C1453.65 362.529 1452.28 362.877 1450.96 363.916C1450.43 364.308 1449.93 364.818 1449.5 365.508C1449.16 366.094 1448.91 366.748 1448.76 367.414Z" fill="#A9733D"/>
<path d="M1448.66 355.429C1447.3 355.379 1445.88 355.835 1444.54 356.701C1444.1 356.989 1443.68 357.338 1443.4 357.988C1443.05 358.859 1443.15 360.012 1443.51 360.739C1444.28 362.314 1446.05 362.926 1447.26 363.072C1448.74 363.307 1450.23 362.859 1451.65 361.833C1453.38 360.558 1453.6 358.189 1452.09 356.81C1451.07 355.89 1449.86 355.458 1448.66 355.429Z" fill="#A9733D"/>
<path d="M1451.31 353.868C1451.45 353.884 1451.55 353.896 1451.68 353.912C1452.54 353.901 1453.43 353.609 1454.3 353.201C1454.66 353.016 1455.03 352.776 1455.35 352.415C1456.03 351.584 1456.21 350.067 1455.78 349.103C1455.33 348.022 1454.51 347.467 1453.75 346.976C1452.54 346.26 1451.15 346.094 1449.81 346.502C1448.95 346.798 1448.07 347.319 1447.39 348.378C1447.26 348.591 1447.14 348.803 1447.08 349.024C1447.01 349.301 1447.01 349.53 1447.05 349.819C1447.11 350.739 1447.46 351.466 1447.88 351.972C1448.3 352.479 1448.81 352.825 1449.32 353.114C1450 353.424 1450.6 353.782 1451.31 353.868Z" fill="#A9733D"/>
<path d="M1458.28 369.815C1457.9 372.678 1458.94 374.57 1460.96 374.813C1462.82 375.036 1465.01 372.678 1465.37 370.04C1465.69 367.628 1464.5 365.602 1462.58 365.315C1460.43 364.999 1458.67 366.84 1458.28 369.815Z" fill="#A9733D"/>
<path d="M1472.25 349.466C1475.72 353.889 1478.47 359.027 1474.05 362.5C1469.63 365.973 1463.23 365.202 1459.75 360.779C1456.28 356.356 1457.05 349.955 1461.47 346.483C1465.9 343.01 1468.77 345.042 1472.25 349.466Z" fill="#A9733D"/>
<path d="M1431.87 312.587C1431.81 312.752 1431.79 312.977 1431.77 313.145C1431.61 314.438 1431.96 315.791 1432.52 316.543C1433.08 317.295 1433.9 317.621 1434.72 317.606C1435.54 317.591 1436.34 317.174 1437.12 316.697C1437.86 316.216 1438.64 315.683 1439.23 314.728C1439.57 314.198 1439.86 313.548 1440 312.882C1440.44 310.654 1439.14 309.014 1438.04 308.427C1436.76 307.702 1435.39 308.05 1434.07 309.088C1433.54 309.481 1433.04 309.991 1432.61 310.681C1432.27 311.267 1432.02 311.921 1431.87 312.587Z" fill="#A9733D"/>
<path d="M1431.77 300.602C1430.41 300.552 1428.99 301.008 1427.65 301.874C1427.21 302.162 1426.79 302.511 1426.51 303.161C1426.16 304.032 1426.26 305.185 1426.62 305.912C1427.39 307.487 1429.16 308.099 1430.37 308.245C1431.85 308.48 1433.34 308.032 1434.76 307.006C1436.49 305.731 1436.7 303.362 1435.2 301.983C1434.18 301.062 1432.97 300.631 1431.77 300.602Z" fill="#A9733D"/>
<path d="M1434.42 299.04C1434.56 299.056 1434.66 299.068 1434.79 299.085C1435.65 299.074 1436.54 298.781 1437.41 298.373C1437.77 298.189 1438.14 297.948 1438.46 297.587C1439.14 296.757 1439.32 295.239 1438.89 294.275C1438.44 293.194 1437.62 292.639 1436.86 292.149C1435.64 291.432 1434.26 291.266 1432.91 291.674C1432.06 291.97 1431.18 292.491 1430.5 293.55C1430.37 293.763 1430.24 293.976 1430.18 294.196C1430.12 294.473 1430.12 294.702 1430.16 294.991C1430.22 295.911 1430.57 296.638 1430.99 297.145C1431.41 297.651 1431.91 297.997 1432.43 298.287C1433.11 298.597 1433.71 298.955 1434.42 299.04Z" fill="#A9733D"/>
<path d="M1441.39 314.987C1441.01 317.85 1442.05 319.742 1444.07 319.986C1445.92 320.209 1448.12 317.85 1448.47 315.213C1448.8 312.8 1447.61 310.775 1445.69 310.487C1443.54 310.172 1441.78 312.013 1441.39 314.987Z" fill="#A9733D"/>
<path d="M1455.36 294.639C1458.83 299.062 1461.58 304.2 1457.16 307.673C1452.74 311.146 1446.34 310.376 1442.86 305.952C1439.39 301.529 1440.16 295.129 1444.58 291.656C1449.01 288.183 1451.88 290.216 1455.36 294.639Z" fill="#A9733D"/>
<path d="M1389.88 376.471C1389.83 376.615 1389.81 376.813 1389.79 376.962C1389.65 378.099 1389.96 379.291 1390.45 379.952C1390.94 380.613 1391.66 380.9 1392.39 380.887C1393.11 380.874 1393.82 380.507 1394.5 380.087C1395.15 379.664 1395.84 379.195 1396.36 378.355C1396.66 377.889 1396.91 377.316 1397.04 376.73C1397.42 374.769 1396.27 373.326 1395.31 372.809C1394.19 372.172 1392.98 372.478 1391.81 373.392C1391.35 373.737 1390.91 374.186 1390.53 374.793C1390.23 375.308 1390.01 375.884 1389.88 376.471Z" fill="#A9733D"/>
<path d="M1389.79 365.923C1388.6 365.879 1387.34 366.281 1386.17 367.042C1385.78 367.296 1385.41 367.603 1385.16 368.175C1384.86 368.942 1384.95 369.956 1385.26 370.596C1385.94 371.982 1387.5 372.521 1388.56 372.649C1389.86 372.856 1391.17 372.462 1392.43 371.559C1393.94 370.437 1394.14 368.352 1392.81 367.139C1391.91 366.328 1390.84 365.949 1389.79 365.923Z" fill="#A9733D"/>
<path d="M1392.12 364.55C1392.24 364.564 1392.33 364.575 1392.45 364.589C1393.2 364.579 1393.99 364.322 1394.75 363.963C1395.07 363.8 1395.4 363.589 1395.68 363.271C1396.28 362.54 1396.44 361.205 1396.06 360.356C1395.66 359.405 1394.94 358.917 1394.27 358.485C1393.2 357.855 1391.99 357.708 1390.8 358.067C1390.05 358.328 1389.27 358.786 1388.67 359.719C1388.56 359.906 1388.45 360.093 1388.4 360.287C1388.34 360.531 1388.34 360.732 1388.37 360.987C1388.42 361.796 1388.74 362.436 1389.11 362.882C1389.47 363.327 1389.92 363.632 1390.37 363.887C1390.97 364.159 1391.5 364.475 1392.12 364.55Z" fill="#A9733D"/>
<path d="M1398.26 378.583C1397.93 381.102 1398.84 382.767 1400.62 382.982C1402.25 383.178 1404.18 381.102 1404.49 378.781C1404.78 376.658 1403.73 374.876 1402.05 374.623C1400.15 374.345 1398.6 375.965 1398.26 378.583Z" fill="#A9733D"/>
<path d="M1410.55 360.676C1413.6 364.568 1416.03 369.09 1412.14 372.146C1408.24 375.203 1402.61 374.525 1399.55 370.632C1396.5 366.74 1397.18 361.107 1401.07 358.051C1404.96 354.995 1407.49 356.784 1410.55 360.676Z" fill="#A9733D"/>
<path d="M1364.08 424.805C1364.04 424.917 1364.02 425.07 1364.01 425.184C1363.9 426.063 1364.14 426.983 1364.52 427.494C1364.9 428.005 1365.45 428.226 1366.01 428.216C1366.57 428.206 1367.12 427.923 1367.64 427.598C1368.15 427.272 1368.68 426.909 1369.08 426.26C1369.31 425.9 1369.5 425.458 1369.6 425.005C1369.9 423.491 1369.01 422.377 1368.27 421.977C1367.4 421.485 1366.47 421.721 1365.57 422.427C1365.21 422.694 1364.87 423.04 1364.58 423.509C1364.35 423.907 1364.18 424.352 1364.08 424.805Z" fill="#A9733D"/>
<path d="M1364.01 416.659C1363.08 416.625 1362.12 416.935 1361.21 417.524C1360.91 417.72 1360.62 417.957 1360.43 418.399C1360.2 418.991 1360.27 419.774 1360.51 420.268C1361.03 421.339 1362.24 421.755 1363.06 421.854C1364.06 422.014 1365.08 421.709 1366.04 421.012C1367.22 420.145 1367.36 418.535 1366.34 417.598C1365.65 416.972 1364.82 416.679 1364.01 416.659Z" fill="#A9733D"/>
<path d="M1365.81 415.598C1365.9 415.609 1365.97 415.617 1366.06 415.628C1366.64 415.621 1367.25 415.422 1367.84 415.144C1368.09 415.019 1368.34 414.856 1368.56 414.61C1369.02 414.046 1369.14 413.015 1368.85 412.359C1368.54 411.625 1367.98 411.247 1367.47 410.914C1366.64 410.427 1365.7 410.314 1364.79 410.591C1364.2 410.793 1363.6 411.147 1363.15 411.867C1363.06 412.011 1362.97 412.156 1362.93 412.306C1362.88 412.494 1362.89 412.65 1362.91 412.846C1362.95 413.471 1363.2 413.965 1363.48 414.31C1363.76 414.654 1364.11 414.889 1364.46 415.086C1364.92 415.296 1365.33 415.54 1365.81 415.598Z" fill="#A9733D"/>
<path d="M1370.55 426.437C1370.29 428.382 1371 429.668 1372.37 429.834C1373.63 429.985 1375.12 428.382 1375.36 426.59C1375.58 424.95 1374.77 423.573 1373.47 423.378C1372.01 423.163 1370.81 424.415 1370.55 426.437Z" fill="#A9733D"/>
<path d="M1380.04 412.606C1382.4 415.612 1384.27 419.105 1381.27 421.465C1378.26 423.826 1373.91 423.302 1371.55 420.296C1369.19 417.29 1369.71 412.939 1372.72 410.579C1375.72 408.218 1377.68 409.6 1380.04 412.606Z" fill="#A9733D"/>
<path d="M1408.4 407.419C1408.36 407.554 1408.34 407.737 1408.32 407.874C1408.19 408.929 1408.48 410.032 1408.93 410.645C1409.39 411.258 1410.05 411.524 1410.72 411.511C1411.4 411.499 1412.05 411.159 1412.68 410.771C1413.29 410.378 1413.92 409.944 1414.41 409.165C1414.68 408.733 1414.91 408.203 1415.03 407.66C1415.39 405.843 1414.33 404.506 1413.44 404.027C1412.39 403.436 1411.27 403.72 1410.19 404.567C1409.77 404.887 1409.35 405.302 1409.01 405.865C1408.73 406.343 1408.52 406.876 1408.4 407.419Z" fill="#A9733D"/>
<path d="M1408.32 397.647C1407.21 397.606 1406.05 397.978 1404.97 398.684C1404.6 398.919 1404.26 399.204 1404.03 399.734C1403.75 400.444 1403.83 401.384 1404.12 401.977C1404.75 403.261 1406.19 403.76 1407.18 403.879C1408.39 404.071 1409.6 403.705 1410.76 402.869C1412.17 401.829 1412.35 399.898 1411.11 398.773C1410.29 398.023 1409.3 397.671 1408.32 397.647Z" fill="#A9733D"/>
<path d="M1410.48 396.374C1410.59 396.387 1410.68 396.397 1410.79 396.41C1411.48 396.401 1412.21 396.163 1412.92 395.83C1413.21 395.68 1413.52 395.484 1413.78 395.189C1414.33 394.512 1414.48 393.275 1414.13 392.489C1413.76 391.608 1413.09 391.155 1412.47 390.755C1411.48 390.171 1410.35 390.035 1409.25 390.368C1408.56 390.609 1407.84 391.034 1407.29 391.898C1407.18 392.071 1407.08 392.245 1407.03 392.425C1406.97 392.65 1406.98 392.837 1407.01 393.073C1407.05 393.823 1407.35 394.416 1407.69 394.828C1408.03 395.241 1408.44 395.523 1408.86 395.76C1409.41 396.012 1409.91 396.304 1410.48 396.374Z" fill="#A9733D"/>
<path d="M1416.17 409.377C1415.86 411.711 1416.7 413.254 1418.35 413.452C1419.86 413.634 1421.66 411.711 1421.94 409.561C1422.21 407.593 1421.23 405.942 1419.67 405.708C1417.92 405.45 1416.49 406.951 1416.17 409.377Z" fill="#A9733D"/>
<path d="M1427.55 392.785C1430.38 396.392 1432.63 400.581 1429.02 403.413C1425.42 406.245 1420.2 405.616 1417.37 402.01C1414.53 398.404 1415.16 393.185 1418.77 390.353C1422.38 387.521 1424.72 389.179 1427.55 392.785Z" fill="#A9733D"/>
<path d="M1378.59 450.688C1378.56 450.782 1378.55 450.91 1378.54 451.006C1378.45 451.744 1378.65 452.517 1378.97 452.946C1379.28 453.374 1379.75 453.561 1380.22 453.552C1380.69 453.543 1381.15 453.306 1381.59 453.034C1382.01 452.759 1382.46 452.455 1382.8 451.91C1382.99 451.608 1383.15 451.237 1383.24 450.856C1383.49 449.585 1382.74 448.649 1382.12 448.314C1381.39 447.9 1380.6 448.099 1379.85 448.691C1379.55 448.916 1379.26 449.206 1379.02 449.6C1378.82 449.934 1378.68 450.308 1378.59 450.688Z" fill="#A9733D"/>
<path d="M1378.54 443.848C1377.76 443.819 1376.95 444.08 1376.19 444.574C1375.93 444.738 1375.7 444.937 1375.53 445.308C1375.34 445.805 1375.4 446.463 1375.6 446.878C1376.04 447.777 1377.05 448.126 1377.74 448.21C1378.58 448.344 1379.43 448.088 1380.24 447.502C1381.23 446.775 1381.35 445.423 1380.49 444.636C1379.91 444.111 1379.22 443.865 1378.54 443.848Z" fill="#A9733D"/>
<path d="M1380.05 442.957C1380.13 442.966 1380.18 442.973 1380.26 442.982C1380.75 442.976 1381.26 442.809 1381.75 442.576C1381.96 442.471 1382.17 442.334 1382.35 442.128C1382.74 441.654 1382.85 440.788 1382.6 440.237C1382.34 439.621 1381.87 439.304 1381.44 439.024C1380.75 438.615 1379.96 438.52 1379.19 438.753C1378.7 438.922 1378.2 439.219 1377.81 439.824C1377.74 439.945 1377.67 440.067 1377.63 440.193C1377.59 440.351 1377.6 440.481 1377.62 440.646C1377.65 441.171 1377.85 441.586 1378.09 441.875C1378.33 442.164 1378.62 442.361 1378.91 442.527C1379.3 442.704 1379.65 442.908 1380.05 442.957Z" fill="#A9733D"/>
<path d="M1384.03 452.058C1383.81 453.691 1384.4 454.771 1385.56 454.91C1386.62 455.037 1387.87 453.692 1388.07 452.186C1388.26 450.809 1387.58 449.654 1386.48 449.49C1385.26 449.309 1384.25 450.36 1384.03 452.058Z" fill="#A9733D"/>
<path d="M1392 440.445C1393.98 442.969 1395.55 445.902 1393.03 447.883C1390.5 449.865 1386.85 449.426 1384.87 446.901C1382.89 444.377 1383.33 440.724 1385.85 438.743C1388.37 436.761 1390.02 437.921 1392 440.445Z" fill="#A9733D"/>
</g>
<g opacity="0.2">
<path d="M11.6824 457.387C11.8992 457.123 12.1095 456.728 12.2672 456.432C13.4761 454.162 13.7974 451.419 13.3037 449.636C12.81 447.853 11.5408 446.67 10.0153 446.111C8.48988 445.552 6.71485 445.747 4.94644 446.072C3.23721 446.428 1.41623 446.852 -0.358422 448.188C-1.35749 448.922 -2.34333 449.918 -3.09245 451.039C-5.49087 454.829 -4.25358 458.782 -2.66196 460.643C-0.820384 462.891 1.96071 463.232 5.13584 462.262C6.38486 461.914 7.67983 461.337 8.95495 460.369C10.0066 459.535 10.9332 458.509 11.6824 457.387Z" fill="#A9733D"/>
<path d="M3.3075 479.532C5.77983 480.596 8.72522 480.771 11.8018 480.129C12.8274 479.915 13.8463 479.571 14.8321 478.575C16.0874 477.217 16.7244 475.022 16.5858 473.428C16.2954 469.98 13.4676 467.587 11.3371 466.452C8.78578 464.967 5.72203 464.728 2.36936 465.603C-1.71956 466.72 -3.80885 470.928 -2.01284 474.545C-0.795781 476.967 1.13107 478.627 3.3075 479.532Z" fill="#A9733D"/>
<path d="M-2.68816 480.52C-2.92488 480.394 -3.10243 480.299 -3.33915 480.173C-4.92377 479.583 -6.77121 479.486 -8.6646 479.617C-9.46665 479.697 -10.3213 479.875 -11.1627 480.314C-13.0097 481.357 -14.4289 484.022 -14.3231 486.106C-14.2631 488.418 -13.1449 490.027 -12.0926 491.474C-10.3694 493.659 -7.94296 494.951 -5.16849 495.162C-3.38023 495.227 -1.38171 494.898 0.616428 493.429C1.00422 493.128 1.39201 492.828 1.66144 492.465C1.98344 492.003 2.13451 491.577 2.27897 491.02C2.82407 489.283 2.68549 487.689 2.27747 486.458C1.86945 485.228 1.18538 484.23 0.448752 483.331C-0.583778 482.274 -1.44538 481.182 -2.68816 480.52Z" fill="#A9733D"/>
<path d="M-4.14566 446.171C-1.40577 441.169 -1.96598 436.943 -5.51678 435.052C-8.77169 433.318 -14.5037 436.093 -17.0333 440.701C-19.3527 444.913 -18.6017 449.494 -15.281 451.389C-11.546 453.505 -6.99067 451.37 -4.14566 446.171Z" fill="#A9733D"/>
<path d="M58.8473 543.695C58.9775 543.374 59.0622 542.929 59.1257 542.595C59.6128 540.036 59.0992 537.287 58.0859 535.711C57.0725 534.134 55.4894 533.372 53.8459 533.289C52.2025 533.207 50.5442 533.929 48.9315 534.775C47.3855 535.633 45.7516 536.59 44.4364 538.415C43.691 539.426 43.0365 540.685 42.649 541.995C41.4683 546.382 43.853 549.833 45.9518 551.155C48.4085 552.776 51.2009 552.27 53.9805 550.378C55.0839 549.666 56.1629 548.718 57.1054 547.399C57.872 546.277 58.4597 545.005 58.8473 543.695Z" fill="#A9733D"/>
<path d="M57.4021 567.632C60.1129 567.917 63.0144 567.201 65.7972 565.656C66.7248 565.141 67.6069 564.502 68.2613 563.243C69.0671 561.552 69.0237 559.237 68.4106 557.737C67.0933 554.489 63.6391 553.024 61.2374 552.567C58.3233 551.897 55.2884 552.587 52.3087 554.441C48.6893 556.75 47.9332 561.448 50.7574 564.407C52.6624 566.383 55.0248 567.41 57.4021 567.632Z" fill="#A9733D"/>
<path d="M51.8998 570.389C51.633 570.338 51.4328 570.3 51.166 570.249C49.4558 570.154 47.6398 570.615 45.8481 571.312C45.0963 571.63 44.3233 572.059 43.6414 572.736C42.1684 574.301 41.5966 577.305 42.3251 579.288C43.078 581.506 44.6431 582.727 46.096 583.81C48.4192 585.406 51.1544 585.926 53.9012 585.296C55.6506 584.822 57.4846 583.903 58.9756 581.881C59.2604 581.474 59.5453 581.068 59.6967 580.635C59.8693 580.092 59.8873 579.634 59.8597 579.052C59.865 577.209 59.2519 575.708 58.4874 574.64C57.7228 573.572 56.7613 572.813 55.7786 572.165C54.4624 571.453 53.3008 570.655 51.8998 570.389Z" fill="#A9733D"/>
<path d="M40.1673 537.602C41.3141 531.941 39.5023 528.022 35.4996 527.26C31.8304 526.561 27.1204 530.968 26.0583 536.184C25.081 540.956 27.184 545.161 30.9654 545.996C35.2138 546.92 38.9782 543.486 40.1673 537.602Z" fill="#A9733D"/>
<path d="M9.5156 576.312C3.18766 567.009 -1.60887 556.376 7.69426 550.048C16.9974 543.721 29.6689 546.134 35.9968 555.437C42.3248 564.74 39.9129 577.411 30.6098 583.738C21.3066 590.066 15.8435 585.615 9.5156 576.312Z" fill="#A9733D"/>
<path d="M97.2333 445.619C97.3554 445.318 97.4348 444.901 97.4944 444.588C97.9509 442.19 97.4695 439.613 96.5197 438.135C95.57 436.658 94.0862 435.943 92.546 435.866C91.0057 435.789 89.4515 436.466 87.94 437.258C86.4911 438.063 84.9597 438.96 83.7271 440.67C83.0284 441.618 82.4151 442.798 82.0519 444.025C80.9453 448.137 83.1803 451.372 85.1473 452.611C87.4498 454.13 90.0669 453.655 92.6721 451.882C93.7062 451.215 94.7175 450.327 95.6008 449.09C96.3193 448.038 96.8701 446.846 97.2333 445.619Z" fill="#A9733D"/>
<path d="M95.8789 468.053C98.4196 468.32 101.139 467.649 103.747 466.201C104.616 465.718 105.443 465.119 106.056 463.939C106.812 462.354 106.771 460.185 106.196 458.779C104.962 455.735 101.724 454.362 99.4735 453.934C96.7423 453.306 93.8979 453.953 91.1052 455.69C87.713 457.854 87.0044 462.257 89.6513 465.03C91.4367 466.883 93.6509 467.845 95.8789 468.053Z" fill="#A9733D"/>
<path d="M90.7211 470.637C90.471 470.589 90.2835 470.553 90.0334 470.506C88.4306 470.417 86.7285 470.849 85.0493 471.502C84.3447 471.8 83.6202 472.202 82.981 472.837C81.6005 474.303 81.0646 477.118 81.7474 478.977C82.4531 481.057 83.9199 482.2 85.2816 483.216C87.459 484.711 90.0225 485.199 92.5969 484.609C94.2364 484.164 95.9554 483.303 97.3527 481.408C97.6197 481.027 97.8866 480.645 98.0286 480.24C98.1903 479.731 98.2072 479.302 98.1814 478.756C98.1864 477.028 97.6117 475.622 96.8952 474.622C96.1786 473.621 95.2775 472.909 94.3565 472.301C93.1229 471.634 92.0341 470.887 90.7211 470.637Z" fill="#A9733D"/>
<path d="M79.7259 439.908C80.8007 434.601 79.1026 430.928 75.3511 430.214C71.9123 429.56 67.4979 433.69 66.5025 438.579C65.5865 443.051 67.5575 446.992 71.1015 447.775C75.0832 448.641 78.6114 445.422 79.7259 439.908Z" fill="#A9733D"/>
<path d="M50.9974 476.188C45.0666 467.468 40.5712 457.503 49.2904 451.572C58.0095 445.642 69.8856 447.903 75.8164 456.623C81.7471 465.342 79.4866 477.217 70.7675 483.148C62.0483 489.078 56.9281 484.907 50.9974 476.188Z" fill="#A9733D"/>
<path d="M229.098 510.447C229.25 510.215 229.385 509.879 229.486 509.627C230.261 507.695 230.281 505.459 229.728 504.067C229.175 502.675 228.051 501.834 226.775 501.517C225.498 501.2 224.087 501.511 222.692 501.927C221.347 502.363 219.919 502.862 218.607 504.092C217.867 504.77 217.16 505.657 216.655 506.624C215.055 509.884 216.395 512.957 217.838 514.316C219.516 515.965 221.784 515.997 224.254 514.94C225.229 514.551 226.221 513.974 227.163 513.084C227.937 512.321 228.593 511.414 229.098 510.447Z" fill="#A9733D"/>
<path d="M224.287 528.998C226.369 529.638 228.755 529.523 231.175 528.738C231.981 528.477 232.771 528.111 233.478 527.224C234.37 526.021 234.691 524.2 234.441 522.929C233.907 520.179 231.423 518.499 229.609 517.772C227.427 516.798 224.94 516.874 222.319 517.87C219.125 519.124 217.81 522.693 219.571 525.448C220.761 527.291 222.456 528.458 224.287 528.998Z" fill="#A9733D"/>
<path d="M219.548 530.314C219.346 530.233 219.195 530.172 218.994 530.091C217.667 529.754 216.172 529.837 214.66 530.108C214.021 530.242 213.349 530.46 212.71 530.886C211.314 531.887 210.404 534.156 210.671 535.823C210.92 537.679 211.96 538.877 212.933 539.95C214.51 541.558 216.575 542.387 218.827 542.315C220.271 542.212 221.851 541.772 223.331 540.415C223.617 540.14 223.903 539.865 224.088 539.549C224.307 539.149 224.392 538.793 224.46 538.332C224.747 536.887 224.497 535.616 224.061 534.661C223.626 533.706 222.988 532.962 222.317 532.303C221.394 531.542 220.606 530.738 219.548 530.314Z" fill="#A9733D"/>
<path d="M215.383 502.798C217.152 498.534 216.334 495.182 213.311 493.969C210.541 492.857 206.17 495.59 204.535 499.518C203.035 503.11 204.039 506.731 206.876 507.967C210.066 509.345 213.546 507.23 215.383 502.798Z" fill="#A9733D"/>
<path d="M185.395 528.449C181.861 520.18 179.733 511.103 188.002 507.57C196.271 504.037 205.838 507.876 209.372 516.145C212.906 524.414 209.067 533.981 200.798 537.514C192.53 541.047 188.929 536.717 185.395 528.449Z" fill="#A9733D"/>
<path d="M178.661 447.946C178.813 447.714 178.948 447.378 179.049 447.126C179.824 445.194 179.844 442.958 179.291 441.566C178.738 440.174 177.614 439.333 176.338 439.016C175.061 438.699 173.65 439.01 172.255 439.426C170.91 439.862 169.482 440.361 168.17 441.591C167.43 442.269 166.723 443.156 166.218 444.123C164.618 447.383 165.958 450.456 167.401 451.815C169.079 453.464 171.347 453.496 173.817 452.439C174.792 452.05 175.784 451.473 176.726 450.583C177.5 449.821 178.156 448.913 178.661 447.946Z" fill="#A9733D"/>
<path d="M173.85 466.497C175.932 467.137 178.318 467.022 180.738 466.237C181.544 465.976 182.334 465.61 183.041 464.723C183.933 463.52 184.254 461.699 184.004 460.428C183.47 457.678 180.986 455.998 179.172 455.271C176.99 454.298 174.503 454.373 171.882 455.369C168.688 456.623 167.373 460.192 169.134 462.947C170.324 464.79 172.019 465.957 173.85 466.497Z" fill="#A9733D"/>
<path d="M169.11 467.813C168.909 467.732 168.758 467.671 168.556 467.59C167.23 467.253 165.734 467.336 164.222 467.607C163.583 467.741 162.911 467.959 162.272 468.385C160.877 469.386 159.966 471.655 160.233 473.322C160.483 475.178 161.523 476.376 162.496 477.449C164.073 479.057 166.138 479.886 168.389 479.814C169.834 479.711 171.414 479.271 172.894 477.914C173.18 477.639 173.466 477.364 173.651 477.048C173.87 476.648 173.954 476.292 174.022 475.831C174.31 474.386 174.059 473.115 173.624 472.16C173.188 471.205 172.551 470.461 171.88 469.802C170.957 469.041 170.168 468.237 169.11 467.813Z" fill="#A9733D"/>
<path d="M164.946 440.297C166.715 436.033 165.896 432.681 162.874 431.468C160.104 430.357 155.732 433.089 154.098 437.017C152.598 440.61 153.601 444.231 156.439 445.467C159.629 446.844 163.109 444.729 164.946 440.297Z" fill="#A9733D"/>
<path d="M134.958 465.947C131.424 457.679 129.296 448.602 137.565 445.069C145.833 441.536 155.401 445.375 158.935 453.643C162.468 461.912 158.63 471.479 150.361 475.013C142.092 478.546 138.491 474.216 134.958 465.947Z" fill="#A9733D"/>
<path d="M148.276 534.832C148.428 534.6 148.563 534.264 148.664 534.012C149.439 532.08 149.459 529.845 148.906 528.453C148.353 527.061 147.229 526.219 145.953 525.902C144.676 525.585 143.265 525.897 141.87 526.312C140.525 526.748 139.097 527.248 137.785 528.477C137.045 529.155 136.338 530.042 135.833 531.01C134.233 534.269 135.573 537.342 137.016 538.702C138.694 540.35 140.962 540.382 143.432 539.326C144.407 538.936 145.399 538.359 146.341 537.469C147.115 536.707 147.771 535.8 148.276 534.832Z" fill="#A9733D"/>
<path d="M143.465 553.383C145.547 554.023 147.933 553.908 150.353 553.123C151.16 552.862 151.95 552.496 152.656 551.609C153.548 550.407 153.87 548.585 153.619 547.314C153.085 544.564 150.601 542.885 148.788 542.157C146.605 541.184 144.119 541.259 141.497 542.255C138.303 543.51 136.988 547.078 138.749 549.833C139.939 551.676 141.634 552.844 143.465 553.383Z" fill="#A9733D"/>
<path d="M138.726 554.698C138.525 554.618 138.374 554.557 138.172 554.476C136.846 554.139 135.35 554.222 133.838 554.493C133.199 554.627 132.527 554.845 131.888 555.271C130.493 556.272 129.582 558.54 129.849 560.208C130.099 562.064 131.139 563.261 132.112 564.335C133.689 565.943 135.754 566.772 138.005 566.699C139.45 566.596 141.03 566.157 142.51 564.8C142.796 564.525 143.082 564.249 143.267 563.933C143.486 563.534 143.57 563.177 143.638 562.717C143.926 561.271 143.675 560.001 143.24 559.045C142.804 558.09 142.167 557.347 141.496 556.687C140.573 555.927 139.784 555.123 138.726 554.698Z" fill="#A9733D"/>
<path d="M134.562 527.183C136.331 522.919 135.512 519.567 132.49 518.354C129.72 517.243 125.348 519.975 123.714 523.903C122.214 527.495 123.217 531.116 126.055 532.352C129.245 533.73 132.725 531.615 134.562 527.183Z" fill="#A9733D"/>
<path d="M104.573 552.833C101.039 544.565 98.9108 535.488 107.18 531.955C115.448 528.422 125.016 532.261 128.55 540.53C132.083 548.798 128.245 558.366 119.976 561.899C111.707 565.432 108.106 561.102 104.573 552.833Z" fill="#A9733D"/>
<path d="M262.422 432.209C262.557 432.003 262.676 431.705 262.766 431.481C263.454 429.766 263.472 427.782 262.981 426.546C262.491 425.31 261.493 424.563 260.36 424.282C259.227 424 257.973 424.277 256.735 424.646C255.542 425.033 254.274 425.476 253.109 426.567C252.452 427.169 251.825 427.957 251.376 428.816C249.956 431.709 251.145 434.437 252.426 435.644C253.916 437.107 255.929 437.136 258.122 436.198C258.988 435.852 259.868 435.34 260.704 434.55C261.391 433.873 261.974 433.068 262.422 432.209Z" fill="#A9733D"/>
<path d="M258.151 448.676C259.999 449.245 262.117 449.142 264.265 448.446C264.981 448.213 265.683 447.889 266.31 447.101C267.102 446.034 267.387 444.416 267.165 443.288C266.691 440.847 264.486 439.356 262.876 438.71C260.939 437.846 258.731 437.913 256.404 438.797C253.569 439.911 252.401 443.079 253.964 445.525C255.021 447.161 256.526 448.198 258.151 448.676Z" fill="#A9733D"/>
<path d="M253.944 449.845C253.765 449.773 253.631 449.719 253.452 449.647C252.275 449.348 250.947 449.421 249.605 449.662C249.038 449.781 248.441 449.974 247.874 450.353C246.635 451.241 245.827 453.255 246.064 454.735C246.285 456.383 247.209 457.446 248.072 458.399C249.472 459.826 251.306 460.562 253.304 460.498C254.587 460.406 255.989 460.017 257.303 458.812C257.557 458.568 257.811 458.323 257.975 458.043C258.169 457.688 258.244 457.371 258.304 456.963C258.56 455.68 258.337 454.551 257.951 453.703C257.564 452.856 256.998 452.196 256.403 451.61C255.583 450.935 254.883 450.221 253.944 449.845Z" fill="#A9733D"/>
<path d="M250.248 425.419C251.818 421.634 251.091 418.658 248.408 417.582C245.949 416.595 242.069 419.021 240.618 422.508C239.286 425.696 240.177 428.911 242.696 430.008C245.528 431.231 248.617 429.354 250.248 425.419Z" fill="#A9733D"/>
<path d="M223.626 448.188C220.489 440.848 218.6 432.791 225.94 429.654C233.281 426.518 241.774 429.926 244.911 437.266C248.048 444.606 244.64 453.099 237.3 456.236C229.96 459.372 226.763 455.528 223.626 448.188Z" fill="#A9733D"/>
<path d="M325.709 475.191C325.844 474.986 325.964 474.687 326.053 474.463C326.741 472.748 326.759 470.764 326.268 469.528C325.778 468.292 324.78 467.546 323.647 467.264C322.514 466.983 321.261 467.259 320.022 467.628C318.829 468.015 317.561 468.459 316.396 469.55C315.739 470.152 315.112 470.939 314.663 471.798C313.243 474.691 314.433 477.42 315.713 478.626C317.203 480.09 319.216 480.118 321.409 479.18C322.275 478.835 323.155 478.322 323.991 477.532C324.678 476.855 325.261 476.05 325.709 475.191Z" fill="#A9733D"/>
<path d="M321.438 491.659C323.286 492.227 325.404 492.125 327.553 491.428C328.269 491.196 328.97 490.871 329.597 490.084C330.389 489.016 330.675 487.399 330.452 486.27C329.978 483.829 327.773 482.338 326.164 481.692C324.226 480.828 322.019 480.895 319.691 481.779C316.856 482.893 315.689 486.062 317.251 488.507C318.308 490.143 319.813 491.18 321.438 491.659Z" fill="#A9733D"/>
<path d="M317.231 492.828C317.053 492.756 316.918 492.702 316.74 492.63C315.562 492.331 314.235 492.404 312.892 492.645C312.325 492.764 311.728 492.957 311.161 493.336C309.922 494.224 309.114 496.238 309.351 497.718C309.572 499.366 310.496 500.429 311.359 501.382C312.759 502.809 314.593 503.545 316.591 503.481C317.874 503.389 319.276 503 320.59 501.795C320.844 501.55 321.098 501.306 321.262 501.026C321.456 500.671 321.531 500.354 321.592 499.946C321.847 498.662 321.625 497.534 321.238 496.686C320.851 495.839 320.286 495.179 319.69 494.593C318.87 493.918 318.17 493.204 317.231 492.828Z" fill="#A9733D"/>
<path d="M313.535 468.401C315.106 464.615 314.379 461.64 311.696 460.563C309.236 459.576 305.356 462.002 303.905 465.489C302.574 468.678 303.464 471.892 305.983 472.989C308.815 474.212 311.905 472.335 313.535 468.401Z" fill="#A9733D"/>
<path d="M286.914 491.171C283.777 483.831 281.888 475.774 289.228 472.637C296.568 469.501 305.062 472.909 308.198 480.249C311.335 487.589 307.928 496.082 300.587 499.218C293.247 502.355 290.051 498.511 286.914 491.171Z" fill="#A9733D"/>
<path d="M348.586 406.495C348.717 406.295 348.834 406.004 348.921 405.786C349.592 404.113 349.609 402.178 349.131 400.973C348.653 399.767 347.679 399.039 346.574 398.765C345.469 398.49 344.247 398.76 343.04 399.12C341.876 399.497 340.639 399.929 339.503 400.994C338.863 401.581 338.251 402.349 337.813 403.186C336.428 406.008 337.588 408.669 338.837 409.845C340.29 411.273 342.253 411.3 344.392 410.386C345.236 410.049 346.095 409.549 346.91 408.778C347.58 408.118 348.148 407.333 348.586 406.495Z" fill="#A9733D"/>
<path d="M344.42 422.555C346.223 423.109 348.288 423.009 350.383 422.33C351.082 422.103 351.766 421.787 352.378 421.019C353.15 419.978 353.428 418.4 353.211 417.3C352.749 414.919 350.599 413.465 349.029 412.835C347.139 411.992 344.987 412.058 342.717 412.92C339.952 414.007 338.813 417.096 340.337 419.481C341.368 421.077 342.835 422.088 344.42 422.555Z" fill="#A9733D"/>
<path d="M340.318 423.694C340.144 423.624 340.013 423.571 339.839 423.501C338.69 423.21 337.396 423.281 336.086 423.516C335.534 423.632 334.952 423.821 334.398 424.19C333.19 425.056 332.402 427.02 332.633 428.464C332.849 430.07 333.749 431.107 334.592 432.036C335.957 433.429 337.745 434.146 339.694 434.083C340.945 433.994 342.312 433.614 343.594 432.439C343.841 432.201 344.089 431.962 344.249 431.689C344.439 431.343 344.512 431.034 344.57 430.636C344.819 429.384 344.603 428.284 344.226 427.457C343.849 426.63 343.297 425.987 342.716 425.416C341.917 424.758 341.234 424.061 340.318 423.694Z" fill="#A9733D"/>
<path d="M336.713 399.873C338.245 396.181 337.536 393.28 334.919 392.23C332.521 391.267 328.737 393.633 327.322 397.034C326.023 400.143 326.892 403.278 329.348 404.348C332.11 405.541 335.123 403.71 336.713 399.873Z" fill="#A9733D"/>
<path d="M310.75 422.079C307.691 414.921 305.849 407.063 313.007 404.004C320.166 400.945 328.449 404.269 331.508 411.427C334.567 418.586 331.244 426.868 324.086 429.927C316.927 432.986 313.81 429.237 310.75 422.079Z" fill="#A9733D"/>
<path d="M409.946 446.21C410.07 446.02 410.181 445.745 410.263 445.538C410.898 443.956 410.914 442.125 410.462 440.985C410.009 439.845 409.088 439.156 408.043 438.896C406.998 438.636 405.842 438.892 404.699 439.232C403.598 439.589 402.428 439.998 401.354 441.005C400.747 441.56 400.169 442.287 399.755 443.079C398.444 445.749 399.542 448.266 400.724 449.379C402.098 450.729 403.955 450.756 405.979 449.89C406.777 449.571 407.59 449.099 408.361 448.37C408.995 447.745 409.532 447.002 409.946 446.21Z" fill="#A9733D"/>
<path d="M406.006 461.404C407.711 461.928 409.665 461.834 411.647 461.191C412.308 460.977 412.955 460.677 413.534 459.951C414.264 458.966 414.528 457.473 414.323 456.432C413.885 454.18 411.851 452.804 410.366 452.208C408.578 451.411 406.542 451.473 404.394 452.289C401.779 453.317 400.702 456.24 402.143 458.496C403.118 460.006 404.507 460.962 406.006 461.404Z" fill="#A9733D"/>
<path d="M402.125 462.481C401.96 462.415 401.836 462.365 401.671 462.299C400.584 462.023 399.36 462.091 398.121 462.313C397.598 462.423 397.047 462.601 396.524 462.95C395.381 463.77 394.636 465.628 394.854 466.994C395.058 468.514 395.91 469.495 396.707 470.374C397.999 471.691 399.69 472.369 401.534 472.31C402.717 472.226 404.011 471.866 405.223 470.755C405.458 470.529 405.692 470.304 405.843 470.045C406.023 469.717 406.092 469.426 406.147 469.049C406.383 467.865 406.178 466.824 405.821 466.042C405.464 465.259 404.942 464.65 404.393 464.11C403.637 463.488 402.991 462.829 402.125 462.481Z" fill="#A9733D"/>
<path d="M398.714 439.945C400.163 436.453 399.492 433.708 397.017 432.714C394.748 431.804 391.168 434.042 389.829 437.259C388.601 440.201 389.422 443.167 391.746 444.179C394.359 445.307 397.209 443.575 398.714 439.945Z" fill="#A9733D"/>
<path d="M374.153 460.953C371.259 454.181 369.516 446.747 376.288 443.853C383.06 440.96 390.896 444.104 393.79 450.876C396.684 457.648 393.541 465.484 386.768 468.378C379.996 471.271 377.047 467.725 374.153 460.953Z" fill="#A9733D"/>
<path d="M427.741 375.225C427.862 375.039 427.97 374.77 428.051 374.569C428.671 373.023 428.687 371.234 428.245 370.12C427.803 369.006 426.903 368.333 425.882 368.079C424.86 367.826 423.731 368.075 422.615 368.408C421.539 368.756 420.396 369.156 419.346 370.14C418.754 370.682 418.189 371.392 417.785 372.166C416.504 374.774 417.576 377.233 418.731 378.321C420.074 379.64 421.888 379.666 423.865 378.82C424.645 378.509 425.439 378.047 426.193 377.335C426.812 376.725 427.337 375.999 427.741 375.225Z" fill="#A9733D"/>
<path d="M423.891 390.068C425.557 390.581 427.466 390.488 429.403 389.86C430.048 389.651 430.68 389.358 431.246 388.648C431.96 387.686 432.217 386.228 432.017 385.211C431.589 383.011 429.602 381.667 428.151 381.085C426.404 380.306 424.415 380.366 422.317 381.163C419.761 382.167 418.709 385.023 420.118 387.227C421.07 388.702 422.427 389.637 423.891 390.068Z" fill="#A9733D"/>
<path d="M420.1 391.121C419.939 391.056 419.818 391.008 419.657 390.943C418.595 390.673 417.399 390.74 416.188 390.956C415.678 391.064 415.14 391.238 414.628 391.579C413.512 392.38 412.783 394.195 412.997 395.529C413.196 397.014 414.028 397.973 414.807 398.831C416.069 400.118 417.721 400.781 419.523 400.724C420.679 400.641 421.943 400.29 423.127 399.204C423.356 398.984 423.585 398.763 423.733 398.51C423.908 398.19 423.976 397.905 424.03 397.537C424.26 396.38 424.06 395.364 423.711 394.599C423.363 393.835 422.853 393.24 422.316 392.713C421.577 392.104 420.946 391.461 420.1 391.121Z" fill="#A9733D"/>
<path d="M416.767 369.104C418.183 365.692 417.528 363.01 415.109 362.039C412.892 361.15 409.395 363.336 408.087 366.479C406.887 369.354 407.69 372.251 409.96 373.24C412.513 374.342 415.297 372.65 416.767 369.104Z" fill="#A9733D"/>
<path d="M392.771 389.628C389.943 383.012 388.24 375.75 394.857 372.923C401.473 370.095 409.129 373.167 411.956 379.783C414.784 386.4 411.712 394.055 405.096 396.882C398.48 399.709 395.598 396.245 392.771 389.628Z" fill="#A9733D"/>
<path d="M483.538 404.628C483.644 404.466 483.738 404.231 483.809 404.055C484.35 402.707 484.364 401.147 483.978 400.176C483.592 399.205 482.808 398.617 481.917 398.396C481.027 398.175 480.042 398.392 479.069 398.682C478.13 398.987 477.134 399.335 476.218 400.193C475.702 400.667 475.209 401.285 474.856 401.961C473.74 404.235 474.675 406.38 475.681 407.328C476.852 408.479 478.434 408.501 480.158 407.763C480.839 407.492 481.531 407.089 482.188 406.468C482.728 405.936 483.186 405.303 483.538 404.628Z" fill="#A9733D"/>
<path d="M480.181 417.573C481.634 418.02 483.298 417.939 484.987 417.391C485.55 417.209 486.101 416.954 486.594 416.335C487.216 415.496 487.441 414.224 487.266 413.338C486.894 411.419 485.16 410.247 483.895 409.739C482.372 409.06 480.637 409.112 478.808 409.808C476.579 410.683 475.662 413.173 476.89 415.096C477.721 416.382 478.903 417.197 480.181 417.573Z" fill="#A9733D"/>
<path d="M476.874 418.49C476.734 418.434 476.628 418.391 476.488 418.335C475.562 418.1 474.519 418.157 473.464 418.347C473.018 418.44 472.549 418.592 472.103 418.89C471.129 419.588 470.494 421.171 470.68 422.334C470.854 423.629 471.58 424.465 472.259 425.214C473.359 426.336 474.8 426.914 476.371 426.864C477.379 426.792 478.482 426.485 479.514 425.539C479.714 425.346 479.913 425.154 480.043 424.934C480.195 424.655 480.254 424.406 480.302 424.085C480.502 423.076 480.327 422.19 480.024 421.523C479.72 420.857 479.275 420.338 478.807 419.878C478.163 419.347 477.613 418.786 476.874 418.49Z" fill="#A9733D"/>
<path d="M473.968 399.291C475.203 396.315 474.632 393.976 472.523 393.13C470.59 392.355 467.54 394.262 466.399 397.003C465.353 399.509 466.053 402.036 468.032 402.899C470.258 403.86 472.687 402.384 473.968 399.291Z" fill="#A9733D"/>
<path d="M453.042 417.189C450.577 411.419 449.092 405.085 454.861 402.62C460.631 400.155 467.307 402.833 469.773 408.603C472.239 414.373 469.56 421.049 463.791 423.514C458.021 425.98 455.508 422.958 453.042 417.189Z" fill="#A9733D"/>
<path d="M486.749 347.425C486.85 347.27 486.94 347.046 487.008 346.878C487.525 345.59 487.538 344.099 487.17 343.171C486.801 342.242 486.051 341.681 485.2 341.47C484.349 341.258 483.408 341.466 482.478 341.743C481.581 342.034 480.629 342.367 479.754 343.187C479.26 343.64 478.789 344.231 478.452 344.876C477.385 347.05 478.279 349.099 479.241 350.006C480.359 351.105 481.872 351.127 483.519 350.422C484.169 350.162 484.831 349.777 485.459 349.184C485.975 348.675 486.413 348.07 486.749 347.425Z" fill="#A9733D"/>
<path d="M483.541 359.796C484.929 360.223 486.52 360.146 488.134 359.623C488.672 359.448 489.199 359.204 489.67 358.613C490.265 357.811 490.479 356.596 490.312 355.748C489.956 353.915 488.3 352.795 487.091 352.309C485.635 351.66 483.977 351.711 482.229 352.375C480.099 353.212 479.222 355.592 480.396 357.429C481.19 358.658 482.32 359.436 483.541 359.796Z" fill="#A9733D"/>
<path d="M480.381 360.673C480.247 360.619 480.146 360.579 480.012 360.525C479.127 360.3 478.13 360.355 477.122 360.536C476.696 360.625 476.247 360.77 475.821 361.055C474.891 361.722 474.284 363.235 474.462 364.347C474.628 365.584 475.322 366.383 475.97 367.098C477.022 368.171 478.399 368.723 479.9 368.675C480.864 368.607 481.917 368.314 482.904 367.409C483.095 367.225 483.285 367.042 483.409 366.831C483.555 366.564 483.611 366.327 483.656 366.02C483.848 365.056 483.681 364.208 483.391 363.572C483.1 362.935 482.675 362.439 482.228 361.999C481.612 361.492 481.086 360.956 480.381 360.673Z" fill="#A9733D"/>
<path d="M477.603 342.324C478.783 339.481 478.237 337.245 476.222 336.437C474.375 335.695 471.46 337.518 470.37 340.137C469.37 342.533 470.039 344.948 471.931 345.772C474.058 346.691 476.378 345.28 477.603 342.324Z" fill="#A9733D"/>
<path d="M457.606 359.429C455.249 353.915 453.83 347.863 459.344 345.507C464.858 343.151 471.238 345.711 473.595 351.225C475.951 356.739 473.391 363.118 467.877 365.475C462.363 367.831 459.962 364.943 457.606 359.429Z" fill="#A9733D"/>
<path d="M551.519 312.767C551.613 312.622 551.698 312.412 551.761 312.254C552.246 311.046 552.258 309.648 551.912 308.777C551.567 307.907 550.864 307.381 550.066 307.182C549.267 306.984 548.385 307.179 547.512 307.439C546.672 307.711 545.778 308.024 544.958 308.793C544.495 309.217 544.053 309.772 543.737 310.377C542.736 312.415 543.574 314.338 544.477 315.188C545.526 316.219 546.944 316.239 548.489 315.578C549.099 315.334 549.719 314.973 550.308 314.416C550.792 313.94 551.203 313.372 551.519 312.767Z" fill="#A9733D"/>
<path d="M548.509 324.369C549.812 324.769 551.303 324.697 552.817 324.206C553.321 324.043 553.815 323.814 554.257 323.259C554.815 322.507 555.016 321.368 554.86 320.573C554.526 318.853 552.972 317.803 551.838 317.348C550.473 316.739 548.919 316.786 547.279 317.409C545.282 318.194 544.459 320.426 545.56 322.149C546.305 323.301 547.365 324.032 548.509 324.369Z" fill="#A9733D"/>
<path d="M545.546 325.191C545.42 325.14 545.326 325.103 545.2 325.052C544.37 324.841 543.435 324.893 542.489 325.062C542.09 325.146 541.669 325.283 541.27 325.549C540.397 326.175 539.828 327.594 539.995 328.636C540.151 329.797 540.801 330.546 541.409 331.217C542.396 332.223 543.687 332.741 545.095 332.696C545.998 332.631 546.986 332.357 547.912 331.508C548.091 331.336 548.27 331.164 548.385 330.966C548.522 330.716 548.575 330.493 548.618 330.205C548.797 329.302 548.641 328.507 548.368 327.909C548.096 327.312 547.697 326.847 547.278 326.435C546.701 325.959 546.208 325.456 545.546 325.191Z" fill="#A9733D"/>
<path d="M542.942 307.984C544.048 305.317 543.536 303.22 541.646 302.462C539.914 301.767 537.18 303.476 536.158 305.933C535.22 308.179 535.847 310.444 537.621 311.217C539.616 312.078 541.793 310.756 542.942 307.984Z" fill="#A9733D"/>
<path d="M524.186 324.025C521.977 318.854 520.646 313.178 525.817 310.968C530.988 308.758 536.972 311.159 539.182 316.331C541.392 321.502 538.991 327.485 533.82 329.695C528.648 331.904 526.396 329.197 524.186 324.025Z" fill="#A9733D"/>
<path d="M553.643 370.098C553.738 369.953 553.822 369.743 553.885 369.585C554.37 368.377 554.383 366.978 554.037 366.108C553.691 365.237 552.988 364.711 552.19 364.513C551.392 364.315 550.509 364.509 549.637 364.769C548.796 365.042 547.903 365.355 547.082 366.123C546.619 366.548 546.177 367.102 545.862 367.707C544.861 369.746 545.699 371.668 546.601 372.518C547.65 373.549 549.069 373.569 550.614 372.908C551.223 372.665 551.844 372.304 552.433 371.747C552.917 371.27 553.327 370.703 553.643 370.098Z" fill="#A9733D"/>
<path d="M550.634 381.699C551.937 382.1 553.428 382.028 554.942 381.537C555.446 381.373 555.94 381.145 556.382 380.59C556.94 379.838 557.141 378.698 556.985 377.904C556.651 376.184 555.097 375.133 553.963 374.678C552.598 374.07 551.044 374.117 549.404 374.74C547.407 375.525 546.584 377.756 547.685 379.479C548.43 380.632 549.49 381.362 550.634 381.699Z" fill="#A9733D"/>
<path d="M547.671 382.523C547.545 382.472 547.451 382.434 547.325 382.384C546.495 382.173 545.56 382.224 544.614 382.394C544.215 382.478 543.794 382.614 543.395 382.881C542.522 383.507 541.953 384.925 542.12 385.968C542.276 387.129 542.926 387.878 543.534 388.549C544.521 389.554 545.812 390.073 547.22 390.027C548.123 389.963 549.111 389.688 550.037 388.84C550.216 388.668 550.395 388.495 550.51 388.298C550.647 388.048 550.7 387.825 550.743 387.537C550.922 386.633 550.766 385.838 550.493 385.241C550.221 384.644 549.822 384.179 549.403 383.766C548.826 383.291 548.333 382.788 547.671 382.523Z" fill="#A9733D"/>
<path d="M545.067 365.315C546.174 362.648 545.662 360.551 543.772 359.793C542.039 359.098 539.305 360.807 538.283 363.264C537.345 365.51 537.973 367.775 539.747 368.548C541.742 369.409 543.918 368.087 545.067 365.315Z" fill="#A9733D"/>
<path d="M526.311 381.355C524.101 376.184 522.77 370.508 527.941 368.298C533.113 366.089 539.096 368.489 541.306 373.661C543.516 378.832 541.115 384.815 535.944 387.025C530.773 389.234 528.521 386.527 526.311 381.355Z" fill="#A9733D"/>
<path d="M610.737 319.259C610.82 319.131 610.895 318.946 610.95 318.807C611.377 317.744 611.388 316.514 611.084 315.747C610.78 314.981 610.161 314.518 609.458 314.344C608.756 314.169 607.979 314.341 607.212 314.57C606.472 314.809 605.685 315.085 604.963 315.761C604.556 316.134 604.167 316.623 603.889 317.155C603.008 318.949 603.746 320.641 604.54 321.389C605.463 322.296 606.711 322.314 608.071 321.732C608.608 321.518 609.154 321.2 609.672 320.71C610.098 320.29 610.459 319.791 610.737 319.259Z" fill="#A9733D"/>
<path d="M608.088 329.468C609.234 329.82 610.547 329.757 611.879 329.325C612.323 329.181 612.758 328.98 613.147 328.491C613.638 327.83 613.815 326.827 613.677 326.127C613.383 324.614 612.016 323.69 611.018 323.289C609.817 322.754 608.448 322.795 607.005 323.343C605.248 324.034 604.524 325.998 605.493 327.514C606.148 328.528 607.081 329.171 608.088 329.468Z" fill="#A9733D"/>
<path d="M605.482 330.192C605.371 330.147 605.288 330.114 605.177 330.069C604.447 329.884 603.624 329.929 602.792 330.079C602.44 330.152 602.07 330.272 601.719 330.507C600.951 331.058 600.45 332.306 600.596 333.224C600.734 334.245 601.306 334.904 601.842 335.495C602.709 336.38 603.846 336.836 605.085 336.796C605.88 336.74 606.749 336.498 607.564 335.751C607.721 335.6 607.879 335.448 607.981 335.274C608.101 335.054 608.148 334.858 608.185 334.605C608.343 333.809 608.205 333.11 607.966 332.584C607.726 332.059 607.375 331.649 607.006 331.286C606.498 330.868 606.064 330.425 605.482 330.192Z" fill="#A9733D"/>
<path d="M603.189 315.049C604.162 312.702 603.712 310.857 602.049 310.19C600.524 309.578 598.118 311.082 597.219 313.244C596.393 315.221 596.945 317.214 598.507 317.894C600.262 318.653 602.178 317.489 603.189 315.049Z" fill="#A9733D"/>
<path d="M586.684 329.165C584.74 324.614 583.568 319.619 588.119 317.674C592.67 315.73 597.936 317.843 599.881 322.393C601.825 326.944 599.713 332.21 595.162 334.154C590.611 336.099 588.629 333.716 586.684 329.165Z" fill="#A9733D"/>
<path d="M648.17 279.249C648.235 279.151 648.292 279.008 648.335 278.901C648.665 278.079 648.673 277.129 648.438 276.537C648.203 275.946 647.725 275.588 647.183 275.453C646.64 275.319 646.04 275.451 645.448 275.628C644.876 275.813 644.269 276.025 643.711 276.548C643.397 276.836 643.096 277.213 642.882 277.625C642.201 279.01 642.771 280.316 643.384 280.894C644.097 281.595 645.061 281.609 646.111 281.159C646.526 280.994 646.947 280.749 647.348 280.37C647.677 280.046 647.956 279.661 648.17 279.249Z" fill="#A9733D"/>
<path d="M646.126 287.135C647.011 287.407 648.025 287.358 649.053 287.024C649.396 286.913 649.732 286.758 650.032 286.381C650.411 285.869 650.548 285.095 650.442 284.555C650.215 283.386 649.159 282.672 648.388 282.363C647.461 281.949 646.404 281.981 645.289 282.404C643.932 282.938 643.373 284.455 644.121 285.626C644.627 286.409 645.348 286.906 646.126 287.135Z" fill="#A9733D"/>
<path d="M644.111 287.694C644.026 287.66 643.962 287.634 643.876 287.599C643.312 287.456 642.676 287.491 642.034 287.606C641.762 287.663 641.477 287.756 641.205 287.937C640.612 288.363 640.225 289.327 640.338 290.036C640.444 290.824 640.886 291.334 641.3 291.79C641.97 292.473 642.848 292.825 643.805 292.795C644.419 292.751 645.09 292.564 645.72 291.988C645.841 291.87 645.963 291.753 646.041 291.619C646.134 291.449 646.17 291.298 646.199 291.102C646.321 290.488 646.215 289.947 646.03 289.542C645.845 289.136 645.574 288.82 645.289 288.539C644.896 288.216 644.561 287.874 644.111 287.694Z" fill="#A9733D"/>
<path d="M642.341 275.998C643.094 274.186 642.746 272.761 641.461 272.245C640.283 271.773 638.425 272.934 637.731 274.604C637.093 276.131 637.52 277.67 638.726 278.196C640.081 278.781 641.561 277.882 642.341 275.998Z" fill="#A9733D"/>
<path d="M629.594 286.901C628.092 283.386 627.187 279.528 630.702 278.026C634.217 276.524 638.284 278.156 639.786 281.671C641.288 285.185 639.656 289.252 636.141 290.754C632.627 292.256 631.096 290.415 629.594 286.901Z" fill="#A9733D"/>
<path d="M600.855 284.57C600.933 284.452 601.001 284.281 601.053 284.152C601.448 283.167 601.458 282.027 601.176 281.317C600.895 280.607 600.321 280.178 599.671 280.016C599.02 279.855 598.3 280.014 597.589 280.226C596.903 280.448 596.175 280.703 595.506 281.33C595.128 281.675 594.768 282.128 594.51 282.621C593.694 284.283 594.378 285.851 595.113 286.544C595.969 287.384 597.125 287.401 598.385 286.862C598.882 286.663 599.388 286.369 599.868 285.915C600.263 285.526 600.598 285.064 600.855 284.57Z" fill="#A9733D"/>
<path d="M598.402 294.03C599.463 294.356 600.68 294.297 601.914 293.897C602.325 293.764 602.728 293.577 603.088 293.125C603.543 292.512 603.707 291.583 603.58 290.935C603.307 289.532 602.041 288.676 601.116 288.305C600.003 287.808 598.735 287.847 597.398 288.355C595.77 288.995 595.099 290.815 595.997 292.219C596.604 293.159 597.468 293.755 598.402 294.03Z" fill="#A9733D"/>
<path d="M595.986 294.701C595.883 294.659 595.806 294.628 595.703 294.587C595.027 294.415 594.265 294.458 593.493 294.596C593.168 294.664 592.825 294.775 592.499 294.993C591.788 295.503 591.324 296.66 591.459 297.51C591.587 298.456 592.117 299.067 592.613 299.614C593.417 300.434 594.47 300.857 595.618 300.82C596.355 300.767 597.16 300.543 597.915 299.852C598.061 299.711 598.207 299.571 598.301 299.41C598.413 299.206 598.456 299.024 598.49 298.789C598.637 298.052 598.509 297.404 598.287 296.917C598.065 296.43 597.74 296.051 597.398 295.715C596.927 295.327 596.525 294.917 595.986 294.701Z" fill="#A9733D"/>
<path d="M593.862 280.67C594.764 278.495 594.347 276.786 592.806 276.168C591.393 275.601 589.164 276.994 588.33 278.997C587.566 280.829 588.077 282.676 589.524 283.306C591.151 284.009 592.925 282.93 593.862 280.67Z" fill="#A9733D"/>
<path d="M578.57 293.749C576.768 289.532 575.683 284.904 579.899 283.102C584.116 281.301 588.995 283.258 590.797 287.475C592.599 291.691 590.641 296.57 586.425 298.372C582.208 300.173 580.372 297.965 578.57 293.749Z" fill="#A9733D"/>
</g>
</g>
<path fill-rule="evenodd" clip-rule="evenodd" d="M171.596 58.7503C183.645 51.1387 195.494 49.7393 207.052 57.5069C193.793 57.723 183.717 73.7642 171.596 58.7503ZM223.538 53.9827C239.557 47.597 253.851 48.553 265.882 60.3011C250.161 57.6533 234.598 74.4554 223.538 53.9827ZM194.262 82.403C205.675 74.2727 217.238 72.2936 228.98 79.2996C216.042 80.2139 207.043 96.4526 194.324 82.4194L194.262 82.403ZM237.892 85.8633C252.97 79.8418 266.5 80.7492 277.763 91.8121C262.949 89.3385 248.312 105.181 237.954 85.8798L237.892 85.8633ZM215.215 101.002C231.235 94.6167 245.529 95.5727 257.538 107.315C241.735 104.646 226.172 121.448 215.215 101.002ZM268.243 110.87C280.634 101.75 293.28 99.3787 306.314 106.858C292.031 107.986 282.434 126.103 268.201 110.859L268.243 110.87ZM259.083 126.804C269.717 140.263 282.58 146.492 298.933 142.232C283.889 136.762 278.925 114.507 259.042 126.793L259.083 126.804ZM225.154 120.214C243.499 124.718 255.565 134.701 258.497 152.672C246.243 140.274 221.54 145.304 225.112 120.203L225.154 120.214ZM278.542 168.731C294.613 174.911 308.989 173.764 320.778 161.878C304.964 164.725 289.196 148.111 278.459 168.709L278.542 168.731ZM307.618 132.789C321.924 137.296 334.332 135.475 343.9 124.579C330.307 127.905 315.731 114.256 307.536 132.767L307.618 132.789ZM260.436 169.724C267.768 180.229 269.372 190.752 262.612 201.274C262.027 189.531 247.056 181.014 260.436 169.724ZM243.593 155.191C246.392 173.653 241.679 188.485 225.98 198.022C232.883 182.149 218.742 161.584 243.576 155.252L243.593 155.191ZM221.771 148.541C219.882 169.071 210.894 183.801 191.529 190.003C203.147 174.742 193.342 148.906 221.771 148.541ZM197.024 125.28C198.275 145.852 191.569 161.733 173.374 170.741C182.637 153.937 169.116 129.857 197.107 125.302L197.024 125.28ZM162.237 91.8487C171.631 103.096 174.571 114.827 168.119 127.402C166.198 114.123 148.373 105.99 162.237 91.8487ZM121.664 99.3612C129.401 111.726 139.76 118.19 153.929 116.09C141.764 110.068 139.711 90.8176 121.726 99.3776L121.664 99.3612ZM147.72 125.97C157.114 137.218 160.053 148.948 153.602 161.523C151.598 148.223 133.756 140.15 147.683 126.026L147.72 125.97ZM129.938 129.611C118.942 139.232 114.245 150.41 118.771 163.896C122.66 151.037 141.526 145.689 129.901 129.667L129.938 129.611ZM112.042 114.953C115.227 130.604 111.849 143.379 98.8213 152.309C104.01 138.501 91.0405 121.467 112.005 115.009L112.042 114.953ZM100.167 97.7261C86.0626 101.223 76.7622 108.927 74.5561 122.779C83.903 113.269 102.94 117.101 100.13 97.7819L100.167 97.7261ZM124.049 33.509C136.689 26.9081 148.625 26.4956 159.486 35.196C146.204 34.3544 134.832 49.5272 124.012 33.5649L124.049 33.509Z" fill="#89A829"/>
<path d="M199.918 110.884C203.938 115.134 207.223 118.976 209.698 122.177C206.986 118.858 203.694 115.037 199.918 110.884C179.795 89.6107 141.244 58.0931 93.501 45.2737C36.2191 29.8931 7.29954 18.6056 0 14.8845V0C12.3448 7.34225 48.3277 24.7327 93.501 35.5563C132.52 44.9054 175.972 84.5534 199.918 110.884Z" fill="#D9D9D9"/>
</svg>
