<svg width="1920" height="1576" viewBox="0 0 1920 1576" fill="none" xmlns="http://www.w3.org/2000/svg">
<rect x="1920" y="1576" width="1920" height="1576" transform="rotate(-180 1920 1576)" fill="url(#paint0_linear_157_314)"/>
<mask id="mask0_157_314" style="mask-type:alpha" maskUnits="userSpaceOnUse" x="0" y="0" width="1920" height="1576">
<rect x="1920" y="1576" width="1920" height="1576" transform="rotate(-180 1920 1576)" fill="url(#paint1_linear_157_314)"/>
</mask>
<g mask="url(#mask0_157_314)">
<g opacity="0.2">
<path d="M53.2617 144.269C53.3041 144.527 53.2924 144.869 53.2836 145.125C53.2163 147.091 52.3804 149.03 51.3717 150.022C50.363 151.014 49.0703 151.312 47.8464 151.099C46.6224 150.886 45.5215 150.078 44.4747 149.187C43.4792 148.297 42.4353 147.32 41.7706 145.757C41.39 144.889 41.1176 143.853 41.0503 142.824C40.9111 139.397 43.2418 137.252 45.0074 136.628C47.0863 135.844 49.0584 136.681 50.7903 138.537C51.4843 139.246 52.1211 140.123 52.5955 141.251C52.9732 142.206 53.1943 143.24 53.2617 144.269Z" fill="#A9733D"/>
<path d="M56.1817 126.402C58.2255 126.643 60.2429 127.653 62.0349 129.255C62.6322 129.789 63.1754 130.406 63.4477 131.442C63.7596 132.822 63.3423 134.518 62.6411 135.521C61.1303 137.694 58.3428 138.197 56.4981 138.134C54.2406 138.142 52.1207 137.129 50.235 135.267C47.954 132.965 48.1795 129.379 50.7517 127.671C52.4836 126.532 54.3942 126.17 56.1817 126.402Z" fill="#A9733D"/>
<path d="M52.5886 123.455C52.3837 123.448 52.2299 123.443 52.025 123.436C50.7498 123.221 49.4893 122.579 48.2859 121.768C47.7852 121.409 47.2874 120.964 46.8979 120.351C46.0737 118.954 46.1527 116.647 47.0194 115.308C47.9432 113.799 49.2988 113.161 50.5491 112.605C52.5255 111.818 54.6264 111.889 56.5442 112.811C57.7535 113.451 58.9511 114.433 59.7124 116.17C59.8544 116.517 59.9964 116.864 60.036 117.208C60.0726 117.637 60.0096 117.977 59.8925 118.401C59.5895 119.759 58.8882 120.762 58.1475 121.421C57.4067 122.08 56.5722 122.479 55.7406 122.793C54.6529 123.098 53.6647 123.492 52.5886 123.455Z" fill="#A9733D"/>
<path d="M38.4902 145.645C38.3922 150.005 36.4055 152.589 33.3311 152.484C30.5129 152.388 27.778 148.358 27.8643 144.34C27.939 140.664 30.1876 137.918 33.1113 137.932C36.3936 137.959 38.5941 141.114 38.4902 145.645Z" fill="#A9733D"/>
<path d="M22.3628 112.037C16.1542 117.834 10.8519 124.866 16.6493 131.074C22.4467 137.282 32.1796 137.615 38.3882 131.818C44.5968 126.021 44.9301 116.289 39.1327 110.081C33.3353 103.873 28.5714 106.24 22.3628 112.037Z" fill="#A9733D"/>
<path d="M46.3237 55.4914C46.2862 55.7605 46.1692 56.096 46.0815 56.3476C45.4089 58.2767 43.9819 59.9427 42.6754 60.6161C41.3689 61.2894 39.9946 61.1865 38.8461 60.598C37.6976 60.0094 36.8544 58.8688 36.0908 57.6619C35.3774 56.4725 34.643 55.1817 34.4653 53.4265C34.3554 52.4475 34.4046 51.3359 34.655 50.2943C35.5733 46.8518 38.5465 45.4426 40.4904 45.3677C42.7945 45.2304 44.4926 46.669 45.6387 49.044C46.1088 49.9605 46.4701 51.0271 46.5929 52.2928C46.6735 53.3557 46.574 54.4498 46.3237 55.4914Z" fill="#A9733D"/>
<path d="M54.728 38.6673C56.6812 39.5364 58.3711 41.1603 59.6552 43.3012C60.0832 44.0149 60.4317 44.7949 60.3825 45.9065C60.2666 47.3712 59.3297 48.9259 58.325 49.7045C56.1565 51.3942 53.236 51.0345 51.4255 50.4033C49.1835 49.7157 47.3929 48.0567 46.096 45.6291C44.543 42.6418 45.8719 39.1542 48.9503 38.2521C51.0193 37.6565 53.0263 37.8859 54.728 38.6673Z" fill="#A9733D"/>
<path d="M52.0728 34.6366C51.8717 34.5665 51.7208 34.5139 51.5196 34.4437C50.3208 33.8377 49.2683 32.8122 48.3245 31.6366C47.9385 31.1257 47.5819 30.531 47.3842 29.8036C46.9972 28.1636 47.7868 25.8991 49.0594 24.8376C50.4408 23.626 51.9823 23.4109 53.394 23.2446C55.5975 23.0722 57.6595 23.791 59.2781 25.296C60.2804 26.304 61.1656 27.6474 61.3854 29.6054C61.4193 29.9935 61.4532 30.3815 61.3865 30.7346C61.2906 31.1715 61.1233 31.4894 60.8765 31.8737C60.1571 33.128 59.1524 33.9065 58.2143 34.332C57.2763 34.7575 56.3254 34.8964 55.4038 34.9513C54.2307 34.9186 53.1289 35.0048 52.0728 34.6366Z" fill="#A9733D"/>
<path d="M31.2467 52.3048C29.8055 56.5998 27.0381 58.5511 24.0206 57.4991C21.2546 56.5348 19.7836 51.6947 21.1078 47.7352C22.315 44.1112 25.3924 42.0798 28.2882 42.9953C31.5361 44.0336 32.7464 47.842 31.2467 52.3048Z" fill="#A9733D"/>
<path d="M25.6072 13.9932C17.6611 17.8305 10.2337 23.1717 14.0712 31.1173C17.9087 39.0629 27.4612 42.3933 35.4073 38.556C43.3534 34.7187 46.684 25.1667 42.8464 17.2212C39.0089 9.27557 33.5533 10.1559 25.6072 13.9932Z" fill="#A9733D"/>
<path d="M117.494 105.147C117.457 105.409 117.343 105.736 117.258 105.981C116.602 107.862 115.211 109.487 113.937 110.143C112.663 110.8 111.323 110.699 110.203 110.125C109.083 109.552 108.261 108.44 107.517 107.263C106.821 106.103 106.105 104.845 105.932 103.133C105.825 102.179 105.873 101.095 106.117 100.079C107.012 96.7229 109.911 95.3489 111.806 95.276C114.053 95.142 115.709 96.5447 116.826 98.8604C117.284 99.7539 117.637 100.794 117.756 102.028C117.835 103.064 117.738 104.131 117.494 105.147Z" fill="#A9733D"/>
<path d="M125.688 88.7429C127.592 89.5903 129.24 91.1736 130.492 93.261C130.909 93.9568 131.249 94.7173 131.201 95.8012C131.088 97.2293 130.175 98.7451 129.195 99.5042C127.081 101.152 124.233 100.801 122.468 100.186C120.282 99.5151 118.536 97.8976 117.272 95.5307C115.758 92.6181 117.053 89.2177 120.055 88.3381C122.072 87.7574 124.029 87.981 125.688 88.7429Z" fill="#A9733D"/>
<path d="M123.098 84.8134C122.902 84.745 122.755 84.6937 122.559 84.6253C121.39 84.0344 120.364 83.0346 119.443 81.8883C119.067 81.3902 118.719 80.8104 118.527 80.1012C118.149 78.5022 118.919 76.2942 120.16 75.2594C121.507 74.078 123.01 73.8683 124.386 73.7061C126.535 73.538 128.545 74.2389 130.123 75.7063C131.1 76.689 131.964 77.9988 132.178 79.9079C132.211 80.2863 132.244 80.6647 132.179 81.0089C132.085 81.4348 131.922 81.7448 131.682 82.1195C130.98 83.3425 130.001 84.1015 129.086 84.5164C128.171 84.9313 127.244 85.0666 126.346 85.1202C125.202 85.0883 124.128 85.1724 123.098 84.8134Z" fill="#A9733D"/>
<path d="M102.794 102.04C101.388 106.227 98.6903 108.13 95.7482 107.104C93.0514 106.164 91.6171 101.445 92.9082 97.5842C94.0853 94.0508 97.0857 92.0702 99.9091 92.9628C103.076 93.9752 104.256 97.6884 102.794 102.04Z" fill="#A9733D"/>
<path d="M97.2949 64.6859C89.5475 68.4273 82.3057 73.6349 86.0473 81.3819C89.7889 89.1288 99.1026 92.376 106.85 88.6346C114.597 84.8932 117.845 75.5801 114.103 67.8331C110.362 60.0862 105.042 60.9445 97.2949 64.6859Z" fill="#A9733D"/>
<path d="M105.417 184.771C105.383 185.017 105.276 185.324 105.196 185.554C104.581 187.317 103.277 188.839 102.083 189.454C100.89 190.07 99.6338 189.976 98.5843 189.438C97.5348 188.9 96.7643 187.858 96.0665 186.755C95.4146 185.668 94.7435 184.488 94.5811 182.885C94.4807 181.99 94.5257 180.974 94.7544 180.022C95.5936 176.877 98.3105 175.589 100.087 175.52C102.192 175.395 103.744 176.71 104.791 178.88C105.221 179.717 105.551 180.692 105.663 181.849C105.737 182.82 105.646 183.82 105.417 184.771Z" fill="#A9733D"/>
<path d="M113.097 169.397C114.881 170.192 116.426 171.676 117.599 173.632C117.99 174.284 118.309 174.997 118.264 176.013C118.158 177.351 117.302 178.772 116.384 179.483C114.402 181.027 111.733 180.699 110.079 180.122C108.03 179.493 106.394 177.977 105.209 175.759C103.79 173.029 105.004 169.842 107.817 169.018C109.708 168.474 111.542 168.683 113.097 169.397Z" fill="#A9733D"/>
<path d="M110.669 165.714C110.486 165.65 110.348 165.602 110.164 165.538C109.068 164.984 108.107 164.047 107.244 162.973C106.891 162.506 106.565 161.963 106.385 161.298C106.031 159.799 106.753 157.73 107.916 156.76C109.178 155.653 110.587 155.456 111.877 155.304C113.89 155.147 115.774 155.804 117.253 157.179C118.169 158.1 118.978 159.328 119.179 161.117C119.21 161.472 119.241 161.826 119.18 162.149C119.092 162.548 118.94 162.839 118.714 163.19C118.057 164.336 117.139 165.047 116.281 165.436C115.424 165.825 114.555 165.952 113.713 166.002C112.641 165.972 111.634 166.051 110.669 165.714Z" fill="#A9733D"/>
<path d="M91.64 181.86C90.323 185.785 87.7942 187.568 85.0369 186.606C82.5093 185.725 81.165 181.302 82.3751 177.684C83.4783 174.372 86.2904 172.516 88.9366 173.353C91.9045 174.302 93.0104 177.782 91.64 181.86Z" fill="#A9733D"/>
<path d="M86.4862 146.851C79.225 150.357 72.4378 155.238 75.9446 162.499C79.4513 169.76 88.1804 172.803 95.4415 169.296C102.703 165.79 105.746 157.061 102.239 149.801C98.7326 142.54 93.7473 143.344 86.4862 146.851Z" fill="#A9733D"/>
<path d="M217.525 192.257C217.536 192.469 217.497 192.743 217.468 192.948C217.243 194.524 216.401 196.012 215.503 196.723C214.605 197.433 213.538 197.561 212.572 197.282C211.605 197.004 210.79 196.259 210.025 195.45C209.301 194.647 208.546 193.77 208.147 192.455C207.917 191.723 207.788 190.865 207.823 190.031C208.01 187.261 210.072 185.738 211.547 185.39C213.289 184.939 214.803 185.785 216.035 187.43C216.532 188.06 216.968 188.822 217.251 189.771C217.472 190.572 217.56 191.423 217.525 192.257Z" fill="#A9733D"/>
<path d="M221.431 178.133C223.055 178.505 224.59 179.494 225.893 180.939C226.327 181.42 226.71 181.964 226.839 182.822C226.97 183.959 226.487 185.289 225.835 186.034C224.43 187.651 222.143 187.814 220.664 187.602C218.846 187.412 217.228 186.412 215.873 184.75C214.238 182.698 214.731 179.832 216.95 178.681C218.443 177.916 220.012 177.79 221.431 178.133Z" fill="#A9733D"/>
<path d="M218.797 175.45C218.633 175.426 218.509 175.409 218.345 175.385C217.338 175.101 216.379 174.475 215.481 173.717C215.11 173.384 214.748 172.983 214.488 172.456C213.946 171.26 214.211 169.41 215.025 168.407C215.9 167.274 217.046 166.878 218.101 166.539C219.76 166.077 221.444 166.318 222.908 167.227C223.825 167.847 224.703 168.742 225.165 170.207C225.249 170.498 225.333 170.79 225.335 171.07C225.327 171.419 225.246 171.687 225.115 172.018C224.753 173.085 224.101 173.831 223.448 174.297C222.794 174.763 222.088 175.011 221.391 175.191C220.489 175.342 219.66 175.573 218.797 175.45Z" fill="#A9733D"/>
<path d="M205.519 192.079C205.06 195.579 203.236 197.486 200.771 197.134C198.512 196.81 196.662 193.33 197.081 190.103C197.461 187.151 199.51 185.137 201.862 185.403C204.501 185.711 205.997 188.442 205.519 192.079Z" fill="#A9733D"/>
<path d="M195.466 163.627C189.965 167.751 185.085 172.948 189.21 178.45C193.335 183.951 201.139 185.067 206.64 180.942C212.142 176.817 213.258 169.014 209.133 163.513C205.008 158.012 200.968 159.502 195.466 163.627Z" fill="#A9733D"/>
<path d="M160.23 214.363C160.242 214.574 160.202 214.848 160.173 215.054C159.948 216.63 159.106 218.117 158.208 218.828C157.31 219.539 156.243 219.666 155.277 219.388C154.31 219.11 153.495 218.364 152.73 217.555C152.006 216.753 151.251 215.876 150.853 214.56C150.622 213.828 150.493 212.97 150.528 212.136C150.715 209.366 152.777 207.843 154.253 207.495C155.994 207.045 157.508 207.891 158.74 209.535C159.237 210.165 159.673 210.927 159.957 211.876C160.177 212.677 160.265 213.529 160.23 214.363Z" fill="#A9733D"/>
<path d="M164.137 200.238C165.761 200.61 167.296 201.599 168.599 203.043C169.033 203.525 169.416 204.069 169.545 204.927C169.676 206.064 169.193 207.393 168.541 208.139C167.136 209.756 164.849 209.919 163.37 209.707C161.552 209.517 159.934 208.517 158.579 206.855C156.944 204.803 157.438 201.937 159.656 200.786C161.149 200.021 162.718 199.895 164.137 200.238Z" fill="#A9733D"/>
<path d="M161.501 197.555C161.337 197.532 161.213 197.514 161.049 197.49C160.042 197.207 159.083 196.58 158.185 195.822C157.814 195.489 157.452 195.088 157.192 194.561C156.65 193.365 156.915 191.515 157.729 190.512C158.604 189.379 159.75 188.983 160.805 188.645C162.464 188.183 164.149 188.424 165.612 189.332C166.529 189.953 167.407 190.847 167.869 192.312C167.953 192.604 168.037 192.895 168.039 193.175C168.031 193.524 167.951 193.792 167.819 194.123C167.457 195.19 166.805 195.936 166.152 196.402C165.498 196.868 164.792 197.117 164.095 197.297C163.193 197.447 162.364 197.678 161.501 197.555Z" fill="#A9733D"/>
<path d="M148.223 214.184C147.764 217.684 145.94 219.591 143.475 219.239C141.216 218.916 139.366 215.435 139.785 212.209C140.165 209.256 142.214 207.242 144.566 207.508C147.205 207.816 148.701 210.547 148.223 214.184Z" fill="#A9733D"/>
<path d="M138.171 185.733C132.67 189.857 127.79 195.054 131.915 200.555C136.04 206.056 143.844 207.172 149.345 203.048C154.847 198.923 155.963 191.12 151.838 185.619C147.713 180.117 143.673 181.608 138.171 185.733Z" fill="#A9733D"/>
<path d="M173.327 145.207C173.338 145.419 173.299 145.693 173.27 145.898C173.044 147.474 172.203 148.962 171.304 149.673C170.406 150.383 169.34 150.511 168.374 150.233C167.407 149.955 166.591 149.209 165.827 148.4C165.103 147.597 164.348 146.72 163.949 145.405C163.718 144.673 163.59 143.815 163.625 142.981C163.811 140.211 165.874 138.688 167.349 138.34C169.091 137.89 170.605 138.735 171.837 140.38C172.334 141.01 172.77 141.772 173.053 142.721C173.274 143.522 173.362 144.373 173.327 145.207Z" fill="#A9733D"/>
<path d="M177.234 131.083C178.857 131.455 180.393 132.444 181.696 133.889C182.13 134.37 182.513 134.915 182.642 135.772C182.773 136.909 182.289 138.239 181.638 138.984C180.233 140.601 177.945 140.764 176.466 140.552C174.649 140.362 173.031 139.362 171.676 137.7C170.04 135.648 170.534 132.782 172.753 131.631C174.246 130.866 175.815 130.741 177.234 131.083Z" fill="#A9733D"/>
<path d="M174.598 128.4C174.433 128.376 174.31 128.359 174.146 128.335C173.138 128.051 172.18 127.425 171.282 126.667C170.91 126.334 170.548 125.933 170.288 125.406C169.747 124.21 170.011 122.36 170.825 121.357C171.7 120.224 172.847 119.828 173.902 119.49C175.561 119.027 177.245 119.268 178.708 120.177C179.626 120.798 180.504 121.692 180.965 123.157C181.049 123.449 181.134 123.74 181.135 124.02C181.128 124.369 181.047 124.637 180.916 124.968C180.554 126.035 179.902 126.781 179.249 127.247C178.595 127.713 177.889 127.961 177.192 128.142C176.29 128.292 175.461 128.523 174.598 128.4Z" fill="#A9733D"/>
<path d="M161.321 145.029C160.862 148.53 159.038 150.436 156.573 150.084C154.313 149.761 152.463 146.28 152.883 143.054C153.263 140.101 155.312 138.087 157.664 138.353C160.303 138.661 161.799 141.392 161.321 145.029Z" fill="#A9733D"/>
<path d="M151.267 116.577C145.766 120.702 140.886 125.899 145.011 131.4C149.136 136.901 156.94 138.017 162.441 133.892C167.943 129.768 169.058 121.964 164.934 116.463C160.809 110.962 156.769 112.452 151.267 116.577Z" fill="#A9733D"/>
<path d="M209.68 256.809C209.69 256.997 209.655 257.24 209.629 257.422C209.429 258.821 208.682 260.142 207.885 260.773C207.087 261.404 206.141 261.517 205.283 261.27C204.425 261.023 203.701 260.361 203.022 259.643C202.38 258.931 201.709 258.152 201.355 256.984C201.151 256.334 201.036 255.573 201.067 254.833C201.233 252.374 203.064 251.022 204.374 250.713C205.919 250.313 207.263 251.064 208.357 252.523C208.798 253.083 209.185 253.759 209.437 254.602C209.633 255.313 209.711 256.069 209.68 256.809Z" fill="#A9733D"/>
<path d="M213.147 244.27C214.588 244.601 215.951 245.478 217.108 246.761C217.493 247.189 217.833 247.672 217.948 248.433C218.064 249.443 217.635 250.623 217.056 251.285C215.809 252.721 213.778 252.865 212.466 252.677C210.852 252.509 209.416 251.62 208.213 250.145C206.761 248.323 207.2 245.779 209.169 244.757C210.495 244.077 211.888 243.966 213.147 244.27Z" fill="#A9733D"/>
<path d="M210.807 241.889C210.662 241.868 210.552 241.852 210.406 241.832C209.512 241.579 208.661 241.023 207.864 240.351C207.534 240.055 207.213 239.699 206.982 239.231C206.501 238.169 206.736 236.527 207.459 235.637C208.235 234.631 209.253 234.28 210.189 233.979C211.662 233.569 213.158 233.783 214.457 234.589C215.271 235.14 216.051 235.934 216.46 237.235C216.535 237.493 216.609 237.752 216.611 238.001C216.604 238.31 216.533 238.548 216.416 238.842C216.095 239.789 215.516 240.452 214.936 240.865C214.356 241.279 213.729 241.5 213.111 241.66C212.31 241.793 211.573 241.998 210.807 241.889Z" fill="#A9733D"/>
<path d="M199.021 256.651C198.614 259.758 196.995 261.45 194.807 261.138C192.801 260.851 191.159 257.761 191.531 254.897C191.868 252.276 193.687 250.488 195.775 250.724C198.118 250.997 199.446 253.422 199.021 256.651Z" fill="#A9733D"/>
<path d="M190.097 231.394C185.214 235.055 180.882 239.669 184.544 244.552C188.206 249.436 195.133 250.426 200.017 246.765C204.9 243.103 205.891 236.176 202.229 231.293C198.567 226.409 194.981 227.732 190.097 231.394Z" fill="#A9733D"/>
<path d="M268.022 252.542C268.033 252.73 267.998 252.973 267.972 253.155C267.772 254.554 267.025 255.875 266.227 256.506C265.43 257.137 264.484 257.25 263.626 257.003C262.768 256.756 262.044 256.094 261.365 255.376C260.722 254.664 260.052 253.885 259.698 252.717C259.493 252.067 259.379 251.306 259.41 250.566C259.576 248.107 261.407 246.755 262.716 246.445C264.262 246.046 265.606 246.797 266.7 248.256C267.141 248.816 267.528 249.492 267.78 250.335C267.976 251.046 268.054 251.802 268.022 252.542Z" fill="#A9733D"/>
<path d="M271.49 240.004C272.932 240.334 274.295 241.212 275.451 242.494C275.837 242.922 276.177 243.405 276.292 244.166C276.408 245.176 275.978 246.356 275.4 247.018C274.153 248.454 272.122 248.598 270.809 248.41C269.196 248.242 267.76 247.354 266.557 245.878C265.105 244.057 265.543 241.512 267.513 240.49C268.838 239.811 270.231 239.699 271.49 240.004Z" fill="#A9733D"/>
<path d="M269.151 237.622C269.005 237.601 268.896 237.585 268.75 237.564C267.856 237.312 267.005 236.756 266.208 236.083C265.878 235.788 265.557 235.432 265.326 234.964C264.845 233.902 265.08 232.26 265.803 231.37C266.579 230.364 267.597 230.012 268.533 229.712C270.006 229.302 271.501 229.515 272.8 230.322C273.615 230.873 274.394 231.667 274.804 232.967C274.879 233.226 274.953 233.485 274.955 233.734C274.948 234.043 274.877 234.281 274.76 234.575C274.439 235.522 273.86 236.184 273.28 236.598C272.7 237.012 272.073 237.232 271.454 237.392C270.654 237.526 269.917 237.731 269.151 237.622Z" fill="#A9733D"/>
<path d="M257.365 252.384C256.958 255.491 255.339 257.184 253.15 256.871C251.145 256.584 249.502 253.494 249.875 250.63C250.212 248.01 252.031 246.221 254.119 246.458C256.461 246.731 257.789 249.155 257.365 252.384Z" fill="#A9733D"/>
<path d="M248.441 227.127C243.557 230.788 239.226 235.402 242.888 240.285C246.549 245.168 253.477 246.159 258.36 242.497C263.244 238.836 264.235 231.909 260.573 227.025C256.911 222.142 253.325 223.465 248.441 227.127Z" fill="#A9733D"/>
<path d="M256.909 306.781C256.919 306.964 256.885 307.201 256.859 307.379C256.664 308.743 255.936 310.031 255.158 310.646C254.38 311.262 253.457 311.372 252.621 311.131C251.784 310.89 251.078 310.245 250.416 309.545C249.789 308.85 249.136 308.091 248.79 306.952C248.591 306.318 248.479 305.575 248.51 304.853C248.671 302.455 250.457 301.137 251.734 300.835C253.241 300.445 254.552 301.178 255.619 302.601C256.049 303.147 256.427 303.806 256.672 304.628C256.863 305.321 256.939 306.059 256.909 306.781Z" fill="#A9733D"/>
<path d="M260.29 294.553C261.696 294.875 263.025 295.731 264.153 296.982C264.529 297.399 264.861 297.87 264.972 298.613C265.085 299.597 264.667 300.748 264.103 301.394C262.886 302.794 260.906 302.935 259.626 302.752C258.052 302.587 256.652 301.721 255.478 300.282C254.063 298.506 254.49 296.024 256.411 295.027C257.704 294.365 259.062 294.256 260.29 294.553Z" fill="#A9733D"/>
<path d="M258.01 292.23C257.867 292.21 257.761 292.195 257.618 292.175C256.746 291.929 255.916 291.386 255.139 290.73C254.817 290.442 254.504 290.095 254.279 289.639C253.81 288.603 254.039 287.001 254.744 286.133C255.501 285.152 256.494 284.81 257.407 284.516C258.843 284.117 260.302 284.325 261.568 285.112C262.363 285.649 263.123 286.423 263.522 287.691C263.595 287.944 263.668 288.196 263.669 288.439C263.663 288.741 263.593 288.973 263.48 289.259C263.166 290.183 262.602 290.829 262.036 291.232C261.47 291.636 260.859 291.851 260.256 292.007C259.475 292.137 258.757 292.337 258.01 292.23Z" fill="#A9733D"/>
<path d="M246.514 306.627C246.117 309.657 244.538 311.308 242.404 311.002C240.448 310.723 238.846 307.709 239.21 304.916C239.539 302.361 241.313 300.617 243.348 300.847C245.633 301.113 246.928 303.478 246.514 306.627Z" fill="#A9733D"/>
<path d="M237.812 281.995C233.049 285.566 228.825 290.065 232.396 294.827C235.967 299.59 242.723 300.556 247.486 296.985C252.248 293.414 253.214 286.659 249.643 281.896C246.072 277.134 242.575 278.424 237.812 281.995Z" fill="#A9733D"/>
<path d="M312.727 303.94C312.736 304.113 312.704 304.338 312.68 304.506C312.496 305.797 311.806 307.015 311.071 307.597C310.335 308.179 309.462 308.284 308.67 308.056C307.879 307.828 307.211 307.217 306.584 306.555C305.992 305.898 305.373 305.179 305.047 304.102C304.858 303.502 304.752 302.8 304.781 302.117C304.934 299.848 306.623 298.601 307.831 298.315C309.257 297.947 310.498 298.639 311.507 299.986C311.914 300.503 312.271 301.126 312.503 301.904C312.684 302.56 312.756 303.257 312.727 303.94Z" fill="#A9733D"/>
<path d="M315.927 292.372C317.256 292.677 318.514 293.486 319.581 294.67C319.937 295.064 320.251 295.51 320.356 296.212C320.463 297.144 320.067 298.233 319.533 298.844C318.383 300.168 316.509 300.301 315.298 300.128C313.809 299.973 312.485 299.153 311.374 297.792C310.035 296.111 310.44 293.764 312.257 292.821C313.48 292.194 314.765 292.091 315.927 292.372Z" fill="#A9733D"/>
<path d="M313.768 290.175C313.633 290.156 313.532 290.141 313.398 290.122C312.572 289.889 311.787 289.376 311.052 288.756C310.748 288.483 310.451 288.154 310.238 287.723C309.795 286.743 310.011 285.228 310.678 284.407C311.395 283.478 312.334 283.154 313.197 282.877C314.556 282.499 315.936 282.696 317.134 283.44C317.886 283.948 318.605 284.681 318.983 285.881C319.052 286.12 319.121 286.359 319.122 286.588C319.116 286.873 319.05 287.093 318.942 287.364C318.646 288.238 318.112 288.849 317.577 289.23C317.041 289.612 316.463 289.816 315.892 289.963C315.154 290.087 314.474 290.276 313.768 290.175Z" fill="#A9733D"/>
<path d="M302.893 303.795C302.517 306.661 301.023 308.223 299.004 307.934C297.154 307.67 295.639 304.819 295.982 302.176C296.294 299.759 297.972 298.109 299.898 298.327C302.059 298.579 303.284 300.816 302.893 303.795Z" fill="#A9733D"/>
<path d="M294.661 280.492C290.155 283.87 286.158 288.127 289.537 292.632C292.915 297.138 299.307 298.051 303.812 294.673C308.318 291.295 309.232 284.904 305.854 280.399C302.475 275.893 299.166 277.114 294.661 280.492Z" fill="#A9733D"/>
<path d="M297.37 357.752C297.38 357.921 297.348 358.14 297.325 358.305C297.145 359.566 296.471 360.756 295.752 361.325C295.034 361.893 294.181 361.995 293.407 361.773C292.634 361.55 291.981 360.953 291.369 360.306C290.79 359.664 290.186 358.962 289.867 357.91C289.683 357.324 289.579 356.638 289.608 355.97C289.757 353.754 291.407 352.535 292.588 352.257C293.981 351.896 295.193 352.573 296.178 353.889C296.576 354.393 296.925 355.003 297.152 355.762C297.328 356.403 297.399 357.084 297.37 357.752Z" fill="#A9733D"/>
<path d="M300.496 346.45C301.796 346.748 303.024 347.539 304.067 348.695C304.414 349.081 304.721 349.516 304.824 350.202C304.929 351.113 304.542 352.176 304.02 352.773C302.896 354.067 301.066 354.197 299.882 354.028C298.428 353.876 297.134 353.075 296.049 351.745C294.741 350.104 295.136 347.81 296.911 346.889C298.106 346.276 299.361 346.176 300.496 346.45Z" fill="#A9733D"/>
<path d="M298.388 344.303C298.257 344.285 298.158 344.271 298.027 344.252C297.22 344.025 296.453 343.523 295.735 342.917C295.438 342.651 295.148 342.329 294.94 341.908C294.507 340.951 294.718 339.47 295.37 338.668C296.07 337.761 296.987 337.445 297.831 337.174C299.159 336.804 300.507 336.997 301.677 337.724C302.411 338.22 303.114 338.936 303.483 340.108C303.551 340.342 303.618 340.575 303.619 340.799C303.613 341.078 303.549 341.292 303.444 341.557C303.154 342.411 302.633 343.008 302.11 343.381C301.587 343.754 301.021 343.953 300.464 344.097C299.742 344.217 299.079 344.402 298.388 344.303Z" fill="#A9733D"/>
<path d="M287.763 357.61C287.396 360.41 285.937 361.936 283.965 361.654C282.157 361.395 280.676 358.61 281.012 356.029C281.316 353.667 282.956 352.055 284.837 352.268C286.949 352.514 288.146 354.699 287.763 357.61Z" fill="#A9733D"/>
<path d="M279.72 334.843C275.318 338.144 271.414 342.302 274.715 346.704C278.015 351.106 284.259 351.998 288.661 348.698C293.063 345.398 293.956 339.154 290.656 334.752C287.355 330.35 284.122 331.543 279.72 334.843Z" fill="#A9733D"/>
<path d="M345.563 359.613C345.571 359.761 345.544 359.952 345.523 360.096C345.366 361.195 344.779 362.234 344.152 362.729C343.525 363.225 342.781 363.314 342.107 363.12C341.433 362.926 340.863 362.406 340.33 361.841C339.825 361.281 339.298 360.669 339.02 359.751C338.859 359.24 338.769 358.642 338.794 358.06C338.924 356.127 340.363 355.064 341.392 354.821C342.607 354.507 343.664 355.097 344.524 356.245C344.87 356.684 345.174 357.216 345.372 357.878C345.526 358.437 345.588 359.031 345.563 359.613Z" fill="#A9733D"/>
<path d="M348.289 349.757C349.422 350.017 350.493 350.707 351.402 351.715C351.705 352.051 351.973 352.431 352.063 353.029C352.154 353.823 351.816 354.75 351.362 355.271C350.381 356.399 348.785 356.513 347.753 356.365C346.485 356.232 345.357 355.534 344.411 354.374C343.27 352.943 343.614 350.943 345.163 350.14C346.204 349.605 347.299 349.518 348.289 349.757Z" fill="#A9733D"/>
<path d="M346.451 347.885C346.336 347.869 346.25 347.857 346.135 347.84C345.432 347.642 344.763 347.205 344.137 346.676C343.878 346.444 343.625 346.164 343.444 345.796C343.066 344.962 343.25 343.671 343.818 342.971C344.429 342.18 345.229 341.904 345.965 341.668C347.122 341.346 348.298 341.514 349.319 342.148C349.959 342.581 350.572 343.205 350.894 344.227C350.952 344.431 351.011 344.634 351.012 344.829C351.007 345.073 350.951 345.26 350.859 345.491C350.606 346.235 350.152 346.756 349.696 347.081C349.24 347.406 348.747 347.579 348.261 347.705C347.631 347.81 347.053 347.971 346.451 347.885Z" fill="#A9733D"/>
<path d="M337.185 359.489C336.864 361.931 335.592 363.262 333.872 363.016C332.295 362.79 331.004 360.361 331.297 358.11C331.562 356.05 332.992 354.644 334.633 354.83C336.474 355.045 337.518 356.95 337.185 359.489Z" fill="#A9733D"/>
<path d="M330.17 339.635C326.331 342.513 322.926 346.14 325.805 349.978C328.683 353.817 334.128 354.596 337.967 351.718C341.806 348.839 342.585 343.394 339.706 339.556C336.828 335.717 334.009 336.757 330.17 339.635Z" fill="#A9733D"/>
<path d="M325.82 398.721C325.828 398.862 325.802 399.045 325.782 399.182C325.632 400.233 325.071 401.225 324.472 401.699C323.873 402.173 323.162 402.258 322.517 402.073C321.873 401.887 321.329 401.39 320.819 400.851C320.337 400.315 319.833 399.731 319.567 398.853C319.413 398.365 319.327 397.793 319.351 397.237C319.475 395.39 320.851 394.374 321.834 394.142C322.996 393.841 324.005 394.405 324.827 395.502C325.158 395.922 325.449 396.43 325.638 397.063C325.785 397.597 325.844 398.165 325.82 398.721Z" fill="#A9733D"/>
<path d="M328.424 389.303C329.507 389.551 330.531 390.21 331.4 391.174C331.689 391.495 331.945 391.858 332.031 392.43C332.118 393.188 331.796 394.075 331.361 394.572C330.424 395.651 328.899 395.759 327.913 395.618C326.701 395.491 325.622 394.824 324.718 393.716C323.628 392.347 323.957 390.436 325.437 389.668C326.432 389.158 327.479 389.074 328.424 389.303Z" fill="#A9733D"/>
<path d="M326.669 387.514C326.559 387.498 326.477 387.486 326.368 387.471C325.696 387.281 325.057 386.864 324.458 386.358C324.21 386.136 323.969 385.869 323.795 385.518C323.434 384.72 323.611 383.486 324.154 382.818C324.737 382.062 325.501 381.798 326.205 381.572C327.311 381.264 328.434 381.425 329.41 382.031C330.022 382.444 330.607 383.041 330.915 384.018C330.971 384.212 331.027 384.407 331.028 384.593C331.023 384.826 330.969 385.005 330.882 385.225C330.641 385.937 330.206 386.434 329.77 386.745C329.334 387.056 328.863 387.221 328.399 387.341C327.797 387.442 327.244 387.596 326.669 387.514Z" fill="#A9733D"/>
<path d="M317.813 398.603C317.507 400.937 316.291 402.209 314.647 401.974C313.14 401.758 311.907 399.437 312.187 397.285C312.44 395.317 313.806 393.973 315.375 394.151C317.134 394.356 318.132 396.177 317.813 398.603Z" fill="#A9733D"/>
<path d="M311.11 379.63C307.441 382.38 304.187 385.846 306.938 389.514C309.689 393.183 314.893 393.927 318.561 391.176C322.23 388.426 322.974 383.222 320.224 379.554C317.473 375.885 314.779 376.879 311.11 379.63Z" fill="#A9733D"/>
<path d="M355.46 446.437C355.467 446.569 355.443 446.741 355.424 446.869C355.283 447.855 354.757 448.785 354.195 449.23C353.634 449.674 352.967 449.754 352.362 449.58C351.758 449.406 351.248 448.939 350.77 448.434C350.317 447.932 349.845 447.383 349.596 446.56C349.451 446.103 349.371 445.566 349.393 445.045C349.51 443.312 350.799 442.36 351.722 442.142C352.811 441.86 353.758 442.389 354.528 443.418C354.839 443.812 355.112 444.288 355.289 444.882C355.427 445.383 355.482 445.915 355.46 446.437Z" fill="#A9733D"/>
<path d="M357.902 437.604C358.918 437.836 359.878 438.455 360.693 439.358C360.964 439.659 361.204 440 361.285 440.536C361.366 441.247 361.064 442.079 360.657 442.545C359.778 443.557 358.348 443.658 357.423 443.526C356.286 443.407 355.274 442.781 354.427 441.742C353.404 440.459 353.713 438.666 355.101 437.946C356.034 437.468 357.015 437.389 357.902 437.604Z" fill="#A9733D"/>
<path d="M356.255 435.926C356.152 435.911 356.075 435.9 355.972 435.886C355.342 435.708 354.743 435.316 354.181 434.842C353.949 434.634 353.723 434.383 353.56 434.054C353.221 433.306 353.387 432.149 353.896 431.522C354.443 430.813 355.16 430.566 355.819 430.354C356.857 430.065 357.91 430.216 358.825 430.784C359.399 431.172 359.948 431.731 360.237 432.647C360.29 432.83 360.342 433.012 360.343 433.187C360.338 433.405 360.288 433.573 360.206 433.78C359.98 434.447 359.572 434.914 359.163 435.205C358.755 435.496 358.313 435.652 357.877 435.764C357.313 435.859 356.794 436.003 356.255 435.926Z" fill="#A9733D"/>
<path d="M347.952 446.325C347.665 448.515 346.524 449.707 344.983 449.487C343.569 449.285 342.413 447.108 342.675 445.09C342.913 443.243 344.194 441.984 345.665 442.15C347.315 442.342 348.251 444.05 347.952 446.325Z" fill="#A9733D"/>
<path d="M341.664 428.532C338.223 431.111 335.172 434.362 337.751 437.802C340.331 441.242 345.212 441.94 348.652 439.361C352.093 436.781 352.791 431.901 350.211 428.461C347.631 425.02 345.105 425.952 341.664 428.532Z" fill="#A9733D"/>
<path d="M378.785 409.284C378.792 409.416 378.768 409.587 378.749 409.716C378.608 410.702 378.082 411.632 377.52 412.077C376.959 412.521 376.292 412.601 375.688 412.427C375.083 412.253 374.573 411.786 374.095 411.281C373.642 410.779 373.17 410.23 372.921 409.407C372.777 408.949 372.696 408.413 372.718 407.892C372.835 406.159 374.125 405.207 375.047 404.989C376.136 404.707 377.083 405.236 377.853 406.264C378.164 406.659 378.437 407.135 378.614 407.729C378.752 408.23 378.807 408.762 378.785 409.284Z" fill="#A9733D"/>
<path d="M381.229 400.45C382.244 400.683 383.204 401.301 384.019 402.205C384.291 402.506 384.53 402.847 384.611 403.383C384.693 404.094 384.39 404.926 383.983 405.392C383.104 406.403 381.674 406.505 380.749 406.373C379.612 406.254 378.6 405.628 377.753 404.589C376.73 403.306 377.039 401.513 378.427 400.793C379.36 400.314 380.342 400.236 381.229 400.45Z" fill="#A9733D"/>
<path d="M379.581 398.772C379.478 398.758 379.401 398.747 379.298 398.732C378.668 398.554 378.069 398.163 377.507 397.689C377.275 397.481 377.049 397.23 376.886 396.9C376.547 396.152 376.713 394.995 377.222 394.368C377.769 393.659 378.486 393.412 379.146 393.2C380.183 392.911 381.237 393.062 382.152 393.63C382.725 394.018 383.275 394.578 383.563 395.494C383.616 395.676 383.668 395.858 383.669 396.033C383.664 396.251 383.614 396.419 383.532 396.626C383.306 397.293 382.898 397.76 382.489 398.051C382.081 398.343 381.639 398.498 381.203 398.611C380.639 398.705 380.121 398.85 379.581 398.772Z" fill="#A9733D"/>
<path d="M371.278 409.172C370.991 411.361 369.85 412.554 368.309 412.334C366.896 412.132 365.739 409.955 366.001 407.937C366.239 406.09 367.52 404.831 368.991 404.997C370.641 405.189 371.577 406.897 371.278 409.172Z" fill="#A9733D"/>
<path d="M364.99 391.379C361.55 393.958 358.498 397.208 361.078 400.649C363.657 404.089 368.538 404.787 371.978 402.207C375.419 399.628 376.117 394.748 373.537 391.307C370.957 387.867 368.431 388.799 364.99 391.379Z" fill="#A9733D"/>
<path d="M397.157 464.779C397.164 464.896 397.142 465.046 397.126 465.16C397.002 466.027 396.539 466.846 396.044 467.237C395.55 467.628 394.963 467.698 394.431 467.545C393.9 467.392 393.451 466.982 393.03 466.537C392.632 466.095 392.216 465.612 391.997 464.888C391.87 464.485 391.799 464.013 391.818 463.554C391.921 462.029 393.056 461.191 393.868 460.999C394.826 460.752 395.659 461.217 396.337 462.122C396.611 462.469 396.851 462.888 397.007 463.411C397.128 463.852 397.177 464.32 397.157 464.779Z" fill="#A9733D"/>
<path d="M399.306 457.006C400.2 457.21 401.045 457.755 401.762 458.55C402.001 458.815 402.212 459.114 402.283 459.586C402.355 460.212 402.088 460.944 401.73 461.354C400.956 462.244 399.698 462.334 398.884 462.217C397.884 462.113 396.993 461.562 396.247 460.647C395.348 459.518 395.619 457.941 396.84 457.307C397.662 456.886 398.526 456.817 399.306 457.006Z" fill="#A9733D"/>
<path d="M397.858 455.529C397.767 455.516 397.699 455.507 397.609 455.494C397.054 455.337 396.527 454.993 396.033 454.576C395.828 454.392 395.629 454.172 395.486 453.882C395.188 453.223 395.334 452.205 395.782 451.653C396.263 451.03 396.894 450.812 397.474 450.626C398.388 450.371 399.315 450.504 400.12 451.004C400.625 451.345 401.108 451.838 401.362 452.644C401.408 452.804 401.454 452.965 401.455 453.119C401.451 453.311 401.407 453.458 401.335 453.64C401.135 454.228 400.777 454.638 400.417 454.895C400.057 455.151 399.669 455.288 399.285 455.387C398.789 455.47 398.332 455.597 397.858 455.529Z" fill="#A9733D"/>
<path d="M390.549 464.681C390.296 466.607 389.293 467.657 387.936 467.463C386.693 467.285 385.674 465.369 385.905 463.594C386.115 461.969 387.242 460.86 388.536 461.007C389.989 461.176 390.812 462.679 390.549 464.681Z" fill="#A9733D"/>
<path d="M385.016 449.022C381.989 451.292 379.303 454.153 381.573 457.18C383.844 460.208 388.138 460.822 391.166 458.552C394.194 456.282 394.808 451.987 392.538 448.96C390.268 445.932 388.044 446.752 385.016 449.022Z" fill="#A9733D"/>
<path d="M406.649 505.586C406.654 505.676 406.637 505.793 406.625 505.88C406.529 506.55 406.171 507.182 405.789 507.484C405.408 507.786 404.954 507.841 404.544 507.722C404.133 507.604 403.786 507.287 403.461 506.943C403.154 506.602 402.833 506.229 402.663 505.67C402.565 505.359 402.51 504.994 402.525 504.64C402.605 503.462 403.481 502.815 404.108 502.667C404.848 502.475 405.492 502.835 406.016 503.534C406.227 503.802 406.412 504.126 406.533 504.529C406.627 504.87 406.664 505.232 406.649 505.586Z" fill="#A9733D"/>
<path d="M408.31 499.582C409 499.741 409.653 500.161 410.206 500.775C410.391 500.98 410.554 501.211 410.609 501.576C410.664 502.059 410.459 502.624 410.182 502.941C409.585 503.629 408.612 503.698 407.984 503.608C407.211 503.527 406.524 503.102 405.948 502.395C405.253 501.523 405.462 500.305 406.406 499.815C407.04 499.49 407.707 499.437 408.31 499.582Z" fill="#A9733D"/>
<path d="M407.19 498.442C407.12 498.432 407.068 498.425 406.998 498.415C406.57 498.294 406.162 498.028 405.781 497.706C405.623 497.564 405.469 497.393 405.358 497.17C405.128 496.661 405.241 495.875 405.587 495.449C405.958 494.967 406.446 494.799 406.894 494.655C407.599 494.458 408.315 494.561 408.937 494.947C409.327 495.211 409.7 495.591 409.896 496.214C409.932 496.338 409.968 496.462 409.969 496.581C409.965 496.729 409.931 496.843 409.875 496.983C409.722 497.437 409.445 497.754 409.167 497.952C408.889 498.15 408.589 498.256 408.293 498.332C407.909 498.396 407.557 498.494 407.19 498.442Z" fill="#A9733D"/>
<path d="M401.546 505.51C401.351 506.998 400.576 507.809 399.528 507.659C398.568 507.522 397.781 506.042 397.96 504.671C398.121 503.416 398.992 502.56 399.992 502.673C401.114 502.803 401.749 503.964 401.546 505.51Z" fill="#A9733D"/>
<path d="M397.272 493.417C394.934 495.17 392.859 497.379 394.613 499.717C396.366 502.056 399.683 502.53 402.022 500.777C404.36 499.024 404.834 495.707 403.081 493.368C401.328 491.03 399.61 491.664 397.272 493.417Z" fill="#A9733D"/>
<path d="M377.352 483.972C377.358 484.08 377.338 484.22 377.323 484.325C377.208 485.128 376.779 485.887 376.321 486.25C375.863 486.612 375.319 486.677 374.826 486.535C374.334 486.393 373.918 486.013 373.528 485.601C373.159 485.191 372.774 484.744 372.57 484.073C372.453 483.7 372.387 483.262 372.405 482.837C372.5 481.424 373.552 480.648 374.304 480.47C375.192 480.241 375.964 480.672 376.592 481.51C376.846 481.832 377.068 482.22 377.213 482.704C377.325 483.113 377.37 483.547 377.352 483.972Z" fill="#A9733D"/>
<path d="M379.343 476.77C380.171 476.96 380.954 477.464 381.618 478.201C381.84 478.446 382.035 478.724 382.101 479.161C382.167 479.741 381.921 480.419 381.589 480.799C380.872 481.624 379.706 481.707 378.952 481.599C378.025 481.502 377.2 480.992 376.509 480.144C375.675 479.098 375.927 477.636 377.058 477.049C377.82 476.659 378.62 476.595 379.343 476.77Z" fill="#A9733D"/>
<path d="M377.999 475.402C377.915 475.39 377.853 475.381 377.769 475.369C377.255 475.224 376.766 474.905 376.309 474.518C376.119 474.349 375.935 474.144 375.802 473.875C375.526 473.265 375.661 472.322 376.076 471.811C376.522 471.233 377.106 471.031 377.644 470.858C378.49 470.623 379.349 470.746 380.095 471.209C380.563 471.525 381.011 471.982 381.246 472.728C381.289 472.877 381.332 473.026 381.333 473.169C381.329 473.346 381.288 473.483 381.221 473.652C381.036 474.196 380.704 474.576 380.371 474.814C380.037 475.051 379.677 475.178 379.322 475.27C378.862 475.347 378.439 475.465 377.999 475.402Z" fill="#A9733D"/>
<path d="M371.228 483.881C370.995 485.666 370.065 486.639 368.808 486.459C367.655 486.294 366.712 484.519 366.926 482.874C367.12 481.368 368.165 480.341 369.364 480.477C370.71 480.634 371.472 482.026 371.228 483.881Z" fill="#A9733D"/>
<path d="M366.102 469.373C363.297 471.477 360.809 474.127 362.912 476.932C365.016 479.737 368.995 480.306 371.8 478.203C374.606 476.099 375.175 472.12 373.071 469.315C370.968 466.51 368.908 467.27 366.102 469.373Z" fill="#A9733D"/>
<path d="M390.803 521.83C390.808 521.906 390.794 522.004 390.783 522.077C390.703 522.639 390.402 523.17 390.082 523.424C389.761 523.678 389.381 523.723 389.036 523.624C388.691 523.525 388.4 523.258 388.127 522.97C387.868 522.683 387.599 522.37 387.457 521.901C387.374 521.64 387.328 521.333 387.341 521.036C387.408 520.047 388.144 519.504 388.67 519.379C389.292 519.218 389.832 519.52 390.272 520.107C390.449 520.332 390.605 520.604 390.706 520.943C390.785 521.229 390.816 521.533 390.803 521.83Z" fill="#A9733D"/>
<path d="M392.198 516.789C392.778 516.922 393.326 517.275 393.791 517.79C393.946 517.962 394.083 518.157 394.129 518.463C394.175 518.869 394.003 519.343 393.77 519.609C393.269 520.186 392.452 520.244 391.924 520.169C391.276 520.101 390.699 519.744 390.215 519.151C389.631 518.419 389.807 517.396 390.599 516.985C391.132 516.712 391.692 516.667 392.198 516.789Z" fill="#A9733D"/>
<path d="M391.258 515.832C391.199 515.823 391.155 515.817 391.096 515.809C390.737 515.707 390.395 515.484 390.074 515.213C389.942 515.095 389.813 514.951 389.72 514.763C389.526 514.336 389.621 513.676 389.911 513.318C390.224 512.914 390.633 512.773 391.009 512.652C391.601 512.487 392.202 512.573 392.725 512.897C393.052 513.119 393.366 513.438 393.53 513.961C393.56 514.065 393.59 514.169 393.591 514.269C393.588 514.393 393.559 514.489 393.513 514.607C393.383 514.988 393.151 515.254 392.917 515.42C392.684 515.587 392.432 515.675 392.184 515.74C391.862 515.793 391.566 515.876 391.258 515.832Z" fill="#A9733D"/>
<path d="M386.519 521.767C386.355 523.016 385.704 523.697 384.824 523.571C384.018 523.456 383.358 522.213 383.507 521.062C383.643 520.008 384.374 519.289 385.213 519.384C386.155 519.494 386.689 520.469 386.519 521.767Z" fill="#A9733D"/>
<path d="M382.931 511.612C380.968 513.084 379.226 514.939 380.699 516.902C382.171 518.866 384.956 519.264 386.919 517.792C388.883 516.32 389.281 513.535 387.809 511.571C386.337 509.608 384.895 510.14 382.931 511.612Z" fill="#A9733D"/>
</g>
</g>
<g opacity="0.3">
<path fill-rule="evenodd" clip-rule="evenodd" d="M1809 1565.9L1645 1576H1973L1809 1565.9Z" fill="#0062AF"/>
<path fill-rule="evenodd" clip-rule="evenodd" d="M1873.6 1513.35C1878.64 1514.06 1883.51 1515.68 1887.97 1518.15C1887.41 1516.75 1886.85 1515.34 1886.3 1513.98C1894.86 1520.7 1900.14 1528.94 1901.49 1539L1902.95 1528.36C1905.38 1541.35 1903.62 1552.13 1894.42 1559.02L1897.41 1558.7C1883.11 1578.86 1843.66 1579.37 1829.95 1554.91C1832.1 1560.15 1833.06 1567.8 1829.27 1570.58L1768.26 1572.99L1745.36 1572.36H1717.05C1713.9 1572.36 1712.65 1567.89 1715.59 1565.07L1728.29 1556.52C1731.68 1542.37 1731.6 1522.36 1723.86 1510.62C1735.57 1519.82 1735.84 1544.58 1733.67 1557.56C1732.48 1561.9 1728.25 1565.5 1723.91 1567.99C1728.58 1566.19 1732.68 1563.16 1735.78 1559.22C1738.38 1534.27 1735.78 1514.88 1720.64 1504.98C1720.74 1506.43 1720.84 1507.88 1720.95 1509.33C1716.58 1506.38 1712.84 1499.85 1711.48 1493.72C1711.7 1496.14 1711.93 1498.57 1712.16 1500.99C1707.85 1494.94 1705.24 1487.83 1704.61 1480.42C1704.25 1482.53 1703.9 1484.65 1703.56 1486.76C1701.74 1480.04 1701.01 1473.07 1701.39 1466.12L1699.94 1474.44C1696.75 1461.36 1702.55 1448.37 1709.09 1435.36C1716.66 1426.18 1720.29 1417.42 1705.14 1410.74C1698.21 1409.5 1695.53 1406.24 1695.94 1400.86H1699.68L1696.43 1397.12C1695.33 1393.77 1695.49 1387.41 1696.95 1387.03L1717.61 1391.7C1723.65 1387.83 1730.7 1385.84 1737.86 1385.98L1734.23 1383.58V1380.46L1728.52 1377.76C1736.79 1374.95 1741.74 1377.65 1744.19 1384.52C1748.83 1381.82 1752.22 1377.18 1754.37 1370.58C1758.93 1378.2 1758.67 1396.06 1758.7 1413.32C1759.64 1414.34 1760.82 1415.12 1762.14 1415.57C1760.86 1415.69 1759.58 1415.49 1758.4 1415C1759.38 1418.82 1761.19 1422.38 1763.71 1425.42L1759.71 1424.43C1760.77 1429.79 1763.57 1434.67 1767.67 1439.19L1763.51 1437C1765.06 1441.55 1767.92 1445.55 1771.73 1448.48C1813.17 1474.13 1828.51 1503.05 1834.39 1533.15C1839.76 1549.8 1876.62 1556.72 1877.55 1534.51C1875.5 1530.98 1873.46 1527.44 1871.42 1523.91L1878.16 1526.29C1877.29 1521.76 1875.72 1517.39 1873.49 1513.34" fill="#0062AF"/>
<path fill-rule="evenodd" clip-rule="evenodd" d="M1784.95 1533.96C1763.06 1540.19 1765.83 1555.16 1778.94 1570.13C1760.79 1558.14 1758.31 1535.64 1784.95 1533.96ZM1806.81 1536.97C1808.86 1547.98 1806.81 1558.99 1801.84 1570C1820.78 1568.68 1825.79 1551.55 1806.81 1536.97ZM1746.88 1573.45C1746.88 1567.91 1747.94 1566.85 1751.2 1562.31C1751.66 1550.32 1748.03 1539.65 1743.09 1529.41C1738.61 1520.12 1744.44 1505.03 1743.35 1493.76C1744.18 1493.48 1744.95 1493.04 1745.6 1492.45C1746.26 1491.87 1746.78 1491.15 1747.14 1490.35C1740.04 1491.88 1734.42 1490.3 1732.88 1480.13C1732.32 1478.06 1732.35 1476.65 1734.45 1475.8L1739.55 1474.36C1740.01 1471.98 1741.13 1468.65 1744.22 1467.23L1747.68 1466.71C1747.45 1464.19 1747.69 1461.65 1748.4 1459.23C1750.63 1460.34 1752.39 1462.22 1753.36 1464.52H1754.93C1754.93 1461.79 1755.88 1459.15 1757.61 1457.04C1764.82 1466.64 1770.81 1478.19 1773.48 1495.14L1798.44 1520.19C1799.83 1517.15 1802.22 1514.66 1805.21 1513.15C1812.25 1509.96 1814.06 1518.06 1809.98 1519.17C1806.12 1520.78 1804.27 1524.68 1806.84 1527.34C1823.82 1537.69 1835.87 1560.93 1816.44 1573.36L1746.88 1573.45Z" fill="white"/>
</g>
<defs>
<linearGradient id="paint0_linear_157_314" x1="2880" y1="1879.7" x2="2880" y2="3152" gradientUnits="userSpaceOnUse">
<stop stop-color="#F7FCFF" stop-opacity="0"/>
<stop offset="1" stop-color="#EFF7FF"/>
</linearGradient>
<linearGradient id="paint1_linear_157_314" x1="2880" y1="1879.7" x2="2880" y2="3152" gradientUnits="userSpaceOnUse">
<stop stop-color="#F7FCFF" stop-opacity="0"/>
<stop offset="1" stop-color="#EFF7FF"/>
</linearGradient>
</defs>
</svg>
