<svg width="1920" height="934" viewBox="0 0 1920 934" fill="none" xmlns="http://www.w3.org/2000/svg">
<rect width="1920" height="934" transform="matrix(1 0 0 -1 0 934)" fill="url(#paint0_linear_153_313)"/>
<mask id="mask0_153_313" style="mask-type:alpha" maskUnits="userSpaceOnUse" x="0" y="0" width="1920" height="934">
<rect width="1920" height="934" transform="matrix(-1 8.80672e-08 8.67831e-08 1 1920 0)" fill="#F7FCFF"/>
</mask>
<g mask="url(#mask0_153_313)">
<g opacity="0.2">
<path d="M1844.91 21.634C1844.83 21.8376 1844.78 22.1187 1844.75 22.3295C1844.47 23.9459 1844.83 25.6709 1845.48 26.6518C1846.14 27.6327 1847.14 28.0948 1848.18 28.128C1849.21 28.1612 1850.25 27.688 1851.25 27.1373C1852.22 26.5793 1853.24 25.9583 1854.04 24.7947C1854.5 24.1498 1854.9 23.3499 1855.13 22.5211C1855.82 19.7461 1854.28 17.6004 1852.94 16.792C1851.38 15.7996 1849.63 16.1497 1847.9 17.3721C1847.21 17.833 1846.54 18.4417 1845.97 19.2829C1845.5 19.998 1845.14 20.8051 1844.91 21.634Z" fill="#A9733D"/>
<path d="M1845.55 6.54994C1843.84 6.40089 1842.02 6.88434 1840.29 7.88869C1839.71 8.22348 1839.16 8.63578 1838.76 9.43567C1838.28 10.5094 1838.33 11.9657 1838.73 12.9031C1839.6 14.9331 1841.79 15.816 1843.31 16.0767C1845.15 16.4655 1847.05 15.9965 1848.91 14.7958C1851.16 13.3016 1851.58 10.3355 1849.77 8.50489C1848.55 7.28207 1847.05 6.66279 1845.55 6.54994Z" fill="#A9733D"/>
<path d="M1848.98 4.75293C1849.15 4.78189 1849.28 4.80361 1849.45 4.83257C1850.52 4.873 1851.66 4.562 1852.78 4.10319C1853.25 3.89445 1853.73 3.61541 1854.16 3.18133C1855.06 2.17983 1855.39 0.282101 1854.91 -0.958327C1854.41 -2.34657 1853.41 -3.09711 1852.48 -3.76288C1851 -4.74087 1849.28 -5.03772 1847.55 -4.60999C1846.46 -4.29175 1845.31 -3.69236 1844.4 -2.40247C1844.22 -2.14305 1844.05 -1.88362 1843.96 -1.60972C1843.86 -1.26552 1843.85 -0.977138 1843.87 -0.611225C1843.89 0.54956 1844.29 1.48712 1844.79 2.15077C1845.28 2.81443 1845.9 3.2817 1846.52 3.67869C1847.36 4.11188 1848.1 4.60088 1848.98 4.75293Z" fill="#A9733D"/>
<path d="M1856.74 25.2582C1856.08 28.8351 1857.27 31.2816 1859.8 31.716C1862.11 32.1143 1865.03 29.2869 1865.64 25.9911C1866.2 22.9764 1864.83 20.3531 1862.44 19.8702C1859.75 19.3365 1857.42 21.5407 1856.74 25.2582Z" fill="#A9733D"/>
<path d="M1875.6 0.543174C1879.69 6.32792 1882.83 12.9673 1877.04 17.0556C1871.26 21.1439 1863.25 19.7687 1859.16 13.9839C1855.08 8.19917 1856.45 0.195471 1862.24 -3.89284C1868.02 -7.98116 1871.51 -5.24157 1875.6 0.543174Z" fill="#A9733D"/>
<path d="M1894.09 61.4361C1894.01 61.6397 1893.97 61.9208 1893.93 62.1317C1893.65 63.7481 1894.01 65.4731 1894.66 66.454C1895.32 67.4349 1896.32 67.897 1897.36 67.9302C1898.39 67.9634 1899.43 67.4902 1900.44 66.9395C1901.4 66.3815 1902.42 65.7605 1903.22 64.5968C1903.68 63.952 1904.08 63.1521 1904.31 62.3232C1905 59.5483 1903.46 57.4025 1902.13 56.5941C1900.56 55.6017 1898.81 55.9519 1897.08 57.1743C1896.39 57.6352 1895.73 58.2438 1895.15 59.085C1894.68 59.8002 1894.32 60.6073 1894.09 61.4361Z" fill="#A9733D"/>
<path d="M1894.73 46.3517C1893.02 46.2026 1891.2 46.6861 1889.47 47.6904C1888.89 48.0252 1888.34 48.4375 1887.94 49.2374C1887.46 50.3112 1887.51 51.7674 1887.91 52.7049C1888.78 54.7348 1890.97 55.6177 1892.49 55.8784C1894.33 56.2672 1896.23 55.7983 1898.09 54.5976C1900.34 53.1034 1900.76 50.1372 1898.95 48.3066C1897.73 47.0838 1896.23 46.4645 1894.73 46.3517Z" fill="#A9733D"/>
<path d="M1898.16 44.5552C1898.33 44.5841 1898.46 44.6059 1898.63 44.6348C1899.7 44.6752 1900.84 44.3643 1901.96 43.9054C1902.43 43.6967 1902.91 43.4177 1903.34 42.9836C1904.25 41.9821 1904.57 40.0843 1904.09 38.8439C1903.59 37.4557 1902.59 36.7051 1901.67 36.0394C1900.19 35.0614 1898.46 34.7645 1896.74 35.1923C1895.64 35.5105 1894.5 36.1099 1893.58 37.3998C1893.4 37.6592 1893.23 37.9186 1893.14 38.1925C1893.04 38.5367 1893.03 38.8251 1893.05 39.191C1893.07 40.3518 1893.48 41.2894 1893.97 41.953C1894.46 42.6167 1895.08 43.0839 1895.7 43.4809C1896.54 43.9141 1897.28 44.4031 1898.16 44.5552Z" fill="#A9733D"/>
<path d="M1905.92 65.0602C1905.26 68.6371 1906.45 71.0836 1908.98 71.518C1911.29 71.9162 1914.21 69.0889 1914.82 65.7931C1915.38 62.7784 1914.01 60.1551 1911.62 59.6721C1908.93 59.1385 1906.6 61.3427 1905.92 65.0602Z" fill="#A9733D"/>
<path d="M1924.78 40.3459C1928.87 46.1306 1932.01 52.77 1926.22 56.8583C1920.44 60.9466 1912.43 59.5714 1908.34 53.7866C1904.26 48.0019 1905.63 39.9982 1911.42 35.9099C1917.2 31.8215 1920.69 34.5611 1924.78 40.3459Z" fill="#A9733D"/>
<path d="M1914.96 -6.88591C1914.3 -3.30898 1915.49 -0.862469 1918.02 -0.428057C1920.33 -0.0298453 1923.25 -2.85718 1923.86 -6.153C1924.42 -9.16772 1923.05 -11.791 1920.66 -12.2739C1917.97 -12.8076 1915.64 -10.6034 1914.96 -6.88591Z" fill="#A9733D"/>
<path d="M1832.18 87.4052C1832.11 87.5859 1832.07 87.8355 1832.03 88.0226C1831.79 89.4575 1832.1 90.9888 1832.68 91.8595C1833.27 92.7303 1834.16 93.1405 1835.08 93.17C1836 93.1995 1836.92 92.7794 1837.81 92.2905C1838.66 91.7952 1839.57 91.2439 1840.28 90.2109C1840.69 89.6385 1841.04 88.9284 1841.25 88.1926C1841.86 85.7293 1840.5 83.8245 1839.31 83.1069C1837.92 82.2259 1836.36 82.5367 1834.83 83.6219C1834.22 84.031 1833.63 84.5713 1833.11 85.3181C1832.7 85.9529 1832.38 86.6694 1832.18 87.4052Z" fill="#A9733D"/>
<path d="M1832.75 74.0147C1831.23 73.8824 1829.62 74.3116 1828.08 75.2033C1827.56 75.5006 1827.08 75.8666 1826.72 76.5768C1826.29 77.5301 1826.34 78.823 1826.69 79.6553C1827.46 81.4575 1829.41 82.2413 1830.75 82.4727C1832.39 82.8179 1834.08 82.4015 1835.73 81.3354C1837.73 80.0089 1838.1 77.3754 1836.49 75.7502C1835.41 74.6646 1834.08 74.1149 1832.75 74.0147Z" fill="#A9733D"/>
<path d="M1835.79 72.4197C1835.94 72.4454 1836.05 72.4647 1836.2 72.4904C1837.16 72.5263 1838.17 72.2502 1839.17 71.8429C1839.58 71.6576 1840.01 71.4099 1840.38 71.0246C1841.19 70.1356 1841.48 68.4509 1841.05 67.3498C1840.61 66.1174 1839.72 65.4512 1838.9 64.8602C1837.59 63.992 1836.05 63.7285 1834.52 64.1082C1833.55 64.3907 1832.54 64.9228 1831.72 66.0678C1831.57 66.2981 1831.41 66.5284 1831.33 66.7715C1831.24 67.0771 1831.24 67.3331 1831.26 67.6579C1831.27 68.6883 1831.63 69.5206 1832.07 70.1098C1832.51 70.6989 1833.05 71.1137 1833.61 71.4661C1834.35 71.8507 1835.01 72.2847 1835.79 72.4197Z" fill="#A9733D"/>
<path d="M1842.68 90.6223C1842.09 93.7976 1843.15 95.9694 1845.39 96.355C1847.45 96.7085 1850.04 94.1987 1850.58 91.273C1851.08 88.5968 1849.86 86.2681 1847.74 85.8393C1845.35 85.3656 1843.28 87.3223 1842.68 90.6223Z" fill="#A9733D"/>
<path d="M1859.42 68.6834C1863.05 73.8185 1865.84 79.7123 1860.7 83.3416C1855.56 86.9708 1848.46 85.75 1844.83 80.6148C1841.2 75.4797 1842.42 68.3747 1847.56 64.7455C1852.69 61.1162 1855.79 63.5482 1859.42 68.6834Z" fill="#A9733D"/>
<path d="M1776.33 64.7606C1776.26 64.9413 1776.22 65.1909 1776.18 65.3781C1775.94 66.8129 1776.25 68.3442 1776.83 69.215C1777.42 70.0857 1778.31 70.496 1779.23 70.5254C1780.15 70.5549 1781.07 70.1348 1781.96 69.646C1782.81 69.1506 1783.72 68.5994 1784.43 67.5664C1784.84 66.9939 1785.19 66.2839 1785.4 65.5481C1786.01 63.0848 1784.64 61.1799 1783.46 60.4623C1782.07 59.5814 1780.51 59.8922 1778.98 60.9773C1778.37 61.3864 1777.78 61.9267 1777.26 62.6735C1776.85 63.3083 1776.53 64.0248 1776.33 64.7606Z" fill="#A9733D"/>
<path d="M1776.89 51.3704C1775.38 51.2381 1773.76 51.6673 1772.22 52.5591C1771.71 52.8563 1771.22 53.2224 1770.87 53.9325C1770.44 54.8858 1770.48 56.1787 1770.84 57.011C1771.61 58.8132 1773.56 59.597 1774.9 59.8284C1776.54 60.1736 1778.23 59.7572 1779.87 58.6912C1781.87 57.3646 1782.25 54.7312 1780.64 53.106C1779.56 52.0203 1778.23 51.4706 1776.89 51.3704Z" fill="#A9733D"/>
<path d="M1779.94 49.775C1780.09 49.8007 1780.2 49.82 1780.35 49.8457C1781.31 49.8816 1782.32 49.6055 1783.31 49.1982C1783.73 49.0129 1784.16 48.7652 1784.53 48.3799C1785.34 47.4908 1785.63 45.8062 1785.2 44.705C1784.76 43.4727 1783.87 42.8064 1783.05 42.2154C1781.74 41.3472 1780.2 41.0837 1778.67 41.4634C1777.7 41.7459 1776.68 42.278 1775.87 43.4231C1775.72 43.6534 1775.56 43.8836 1775.48 44.1268C1775.39 44.4323 1775.38 44.6883 1775.41 45.0132C1775.42 46.0436 1775.78 46.8759 1776.22 47.465C1776.66 48.0541 1777.2 48.469 1777.76 48.8214C1778.5 49.2059 1779.16 49.64 1779.94 49.775Z" fill="#A9733D"/>
<path d="M1786.83 67.9782C1786.24 71.1535 1787.29 73.3252 1789.54 73.7109C1791.6 74.0644 1794.18 71.5545 1794.73 68.6288C1795.22 65.9526 1794.01 63.6239 1791.88 63.1952C1789.5 62.7214 1787.43 64.6781 1786.83 67.9782Z" fill="#A9733D"/>
<path d="M1803.57 46.0384C1807.2 51.1736 1809.98 57.0674 1804.85 60.6966C1799.71 64.3259 1792.61 63.1051 1788.98 57.9699C1785.35 52.8347 1786.57 45.7298 1791.71 42.1005C1796.84 38.4713 1799.94 40.9033 1803.57 46.0384Z" fill="#A9733D"/>
<path d="M1770.06 121.456C1769.99 121.632 1769.95 121.875 1769.92 122.058C1769.68 123.457 1769.99 124.95 1770.55 125.8C1771.12 126.649 1771.99 127.049 1772.89 127.078C1773.79 127.106 1774.68 126.697 1775.55 126.22C1776.39 125.737 1777.27 125.199 1777.97 124.192C1778.36 123.634 1778.71 122.941 1778.91 122.224C1779.51 119.821 1778.17 117.964 1777.02 117.264C1775.66 116.405 1774.14 116.708 1772.65 117.766C1772.05 118.165 1771.48 118.692 1770.97 119.42C1770.57 120.039 1770.26 120.738 1770.06 121.456Z" fill="#A9733D"/>
<path d="M1770.62 108.397C1769.14 108.268 1767.56 108.687 1766.06 109.556C1765.56 109.846 1765.08 110.203 1764.74 110.896C1764.32 111.825 1764.36 113.086 1764.71 113.898C1765.46 115.656 1767.36 116.42 1768.67 116.646C1770.27 116.982 1771.91 116.576 1773.52 115.537C1775.47 114.243 1775.84 111.675 1774.27 110.09C1773.21 109.031 1771.91 108.495 1770.62 108.397Z" fill="#A9733D"/>
<path d="M1773.59 106.842C1773.73 106.867 1773.84 106.886 1773.99 106.911C1774.92 106.946 1775.91 106.677 1776.88 106.279C1777.28 106.099 1777.7 105.857 1778.07 105.481C1778.85 104.614 1779.13 102.971 1778.72 101.898C1778.29 100.696 1777.42 100.046 1776.62 99.4696C1775.34 98.6229 1773.84 98.3659 1772.35 98.7362C1771.4 99.0117 1770.41 99.5306 1769.62 100.647C1769.47 100.872 1769.32 101.097 1769.24 101.334C1769.15 101.632 1769.14 101.881 1769.16 102.198C1769.18 103.203 1769.53 104.015 1769.96 104.589C1770.38 105.164 1770.91 105.568 1771.46 105.912C1772.18 106.287 1772.82 106.71 1773.59 106.842Z" fill="#A9733D"/>
<path d="M1780.3 124.594C1779.73 127.69 1780.76 129.808 1782.95 130.184C1784.95 130.529 1787.48 128.081 1788 125.228C1788.49 122.618 1787.3 120.347 1785.23 119.929C1782.91 119.467 1780.89 121.375 1780.3 124.594Z" fill="#A9733D"/>
<path d="M1796.63 103.197C1800.17 108.205 1802.88 113.953 1797.88 117.493C1792.87 121.032 1785.94 119.841 1782.4 114.833C1778.86 109.825 1780.05 102.896 1785.06 99.357C1790.07 95.8177 1793.09 98.1894 1796.63 103.197Z" fill="#A9733D"/>
<path d="M1716.24 101.009C1716.17 101.175 1716.13 101.406 1716.1 101.578C1715.87 102.902 1716.17 104.315 1716.7 105.118C1717.24 105.922 1718.06 106.3 1718.91 106.327C1719.76 106.355 1720.61 105.967 1721.43 105.516C1722.22 105.059 1723.05 104.55 1723.71 103.597C1724.09 103.069 1724.42 102.414 1724.6 101.735C1725.17 99.4624 1723.91 97.705 1722.82 97.0429C1721.53 96.2301 1720.1 96.5169 1718.68 97.5181C1718.12 97.8955 1717.57 98.394 1717.1 99.083C1716.71 99.6687 1716.42 100.33 1716.24 101.009Z" fill="#A9733D"/>
<path d="M1716.76 88.6541C1715.36 88.5321 1713.87 88.9281 1712.45 89.7508C1711.98 90.025 1711.53 90.3628 1711.2 91.018C1710.8 91.8975 1710.84 93.0903 1711.17 93.8582C1711.88 95.521 1713.68 96.2441 1714.92 96.4576C1716.43 96.7761 1717.99 96.3919 1719.51 95.4084C1721.35 94.1844 1721.7 91.7548 1720.21 90.2554C1719.21 89.2538 1717.99 88.7466 1716.76 88.6541Z" fill="#A9733D"/>
<path d="M1719.57 87.1828C1719.71 87.2065 1719.81 87.2243 1719.95 87.248C1720.83 87.2811 1721.76 87.0264 1722.68 86.6507C1723.07 86.4797 1723.46 86.2512 1723.81 85.8956C1724.55 85.0754 1724.82 83.5211 1724.42 82.5052C1724.02 81.3682 1723.2 80.7535 1722.44 80.2082C1721.23 79.4073 1719.81 79.1641 1718.4 79.5144C1717.5 79.7751 1716.57 80.266 1715.82 81.3224C1715.67 81.5349 1715.53 81.7474 1715.45 81.9717C1715.37 82.2536 1715.37 82.4898 1715.39 82.7895C1715.4 83.7402 1715.73 84.5081 1716.13 85.0516C1716.54 85.5951 1717.04 85.9778 1717.55 86.303C1718.24 86.6578 1718.84 87.0583 1719.57 87.1828Z" fill="#A9733D"/>
<path d="M1725.92 103.977C1725.38 106.907 1726.35 108.91 1728.42 109.266C1730.32 109.592 1732.71 107.277 1733.21 104.577C1733.67 102.108 1732.55 99.9598 1730.59 99.5642C1728.39 99.1272 1726.48 100.932 1725.92 103.977Z" fill="#A9733D"/>
<path d="M1741.37 83.7354C1744.72 88.4731 1747.29 93.9109 1742.55 97.2592C1737.81 100.608 1731.26 99.4813 1727.91 94.7435C1724.56 90.0057 1725.69 83.4506 1730.42 80.1022C1735.16 76.7538 1738.02 78.9976 1741.37 83.7354Z" fill="#A9733D"/>
<path d="M1714.26 158.627C1714.2 158.79 1714.16 159.015 1714.13 159.184C1713.91 160.477 1714.2 161.857 1714.72 162.642C1715.25 163.427 1716.05 163.797 1716.88 163.823C1717.71 163.85 1718.54 163.471 1719.34 163.031C1720.11 162.584 1720.93 162.087 1721.57 161.156C1721.94 160.64 1722.26 160 1722.44 159.337C1722.99 157.116 1721.76 155.4 1720.69 154.753C1719.44 153.959 1718.04 154.239 1716.66 155.217C1716.11 155.586 1715.57 156.073 1715.11 156.746C1714.73 157.318 1714.45 157.964 1714.26 158.627Z" fill="#A9733D"/>
<path d="M1714.78 146.558C1713.41 146.438 1711.95 146.825 1710.57 147.629C1710.1 147.897 1709.66 148.227 1709.35 148.867C1708.96 149.726 1709 150.892 1709.32 151.642C1710.01 153.266 1711.77 153.973 1712.98 154.181C1714.45 154.492 1715.98 154.117 1717.46 153.156C1719.26 151.961 1719.6 149.587 1718.15 148.122C1717.18 147.143 1715.98 146.648 1714.78 146.558Z" fill="#A9733D"/>
<path d="M1717.52 145.12C1717.66 145.143 1717.76 145.16 1717.89 145.184C1718.76 145.216 1719.67 144.967 1720.56 144.6C1720.94 144.433 1721.32 144.21 1721.66 143.862C1722.39 143.061 1722.65 141.543 1722.26 140.55C1721.87 139.439 1721.07 138.839 1720.32 138.306C1719.14 137.523 1717.76 137.286 1716.38 137.628C1715.5 137.883 1714.59 138.362 1713.85 139.394C1713.71 139.602 1713.57 139.81 1713.5 140.029C1713.42 140.304 1713.42 140.535 1713.43 140.828C1713.45 141.757 1713.77 142.507 1714.17 143.038C1714.56 143.569 1715.05 143.943 1715.55 144.26C1716.22 144.607 1716.81 144.998 1717.52 145.12Z" fill="#A9733D"/>
<path d="M1723.73 161.528C1723.2 164.39 1724.15 166.347 1726.17 166.695C1728.03 167.013 1730.36 164.751 1730.85 162.114C1731.3 159.702 1730.2 157.603 1728.29 157.216C1726.14 156.789 1724.28 158.553 1723.73 161.528Z" fill="#A9733D"/>
<path d="M1738.82 141.752C1742.09 146.38 1744.6 151.693 1739.97 154.964C1735.34 158.235 1728.94 157.135 1725.67 152.506C1722.4 147.878 1723.5 141.474 1728.13 138.202C1732.76 134.931 1735.55 137.123 1738.82 141.752Z" fill="#A9733D"/>
<path d="M1666.43 145.203C1666.37 145.345 1666.34 145.541 1666.31 145.688C1666.12 146.816 1666.37 148.02 1666.82 148.704C1667.28 149.389 1667.98 149.711 1668.7 149.734C1669.43 149.758 1670.15 149.427 1670.85 149.043C1671.52 148.654 1672.23 148.22 1672.8 147.408C1673.12 146.958 1673.39 146.4 1673.55 145.822C1674.04 143.885 1672.96 142.388 1672.03 141.824C1670.94 141.131 1669.72 141.376 1668.51 142.229C1668.03 142.55 1667.57 142.975 1667.16 143.562C1666.83 144.061 1666.59 144.624 1666.43 145.203Z" fill="#A9733D"/>
<path d="M1666.87 134.677C1665.68 134.573 1664.41 134.91 1663.2 135.611C1662.8 135.845 1662.41 136.133 1662.14 136.691C1661.8 137.44 1661.83 138.456 1662.11 139.11C1662.72 140.527 1664.25 141.143 1665.31 141.325C1666.59 141.596 1667.92 141.269 1669.21 140.431C1670.78 139.388 1671.08 137.319 1669.82 136.041C1668.96 135.188 1667.92 134.756 1666.87 134.677Z" fill="#A9733D"/>
<path d="M1669.27 133.423C1669.38 133.444 1669.47 133.459 1669.59 133.479C1670.34 133.507 1671.14 133.29 1671.92 132.97C1672.24 132.824 1672.58 132.63 1672.87 132.327C1673.51 131.628 1673.74 130.304 1673.4 129.438C1673.05 128.47 1672.36 127.946 1671.71 127.482C1670.68 126.799 1669.47 126.592 1668.27 126.89C1667.5 127.113 1666.71 127.531 1666.07 128.431C1665.95 128.612 1665.82 128.793 1665.76 128.984C1665.69 129.224 1665.68 129.425 1665.7 129.681C1665.71 130.491 1665.99 131.145 1666.34 131.608C1666.68 132.071 1667.11 132.397 1667.55 132.674C1668.13 132.976 1668.65 133.317 1669.27 133.423Z" fill="#A9733D"/>
<path d="M1674.68 147.732C1674.22 150.228 1675.05 151.935 1676.81 152.238C1678.43 152.516 1680.46 150.543 1680.89 148.243C1681.28 146.139 1680.32 144.309 1678.65 143.972C1676.78 143.599 1675.16 145.137 1674.68 147.732Z" fill="#A9733D"/>
<path d="M1687.84 130.486C1690.69 134.523 1692.88 139.156 1688.84 142.008C1684.81 144.861 1679.22 143.902 1676.37 139.865C1673.52 135.829 1674.48 130.244 1678.51 127.391C1682.55 124.538 1684.98 126.45 1687.84 130.486Z" fill="#A9733D"/>
<path d="M1673.41 189.793C1673.36 189.929 1673.32 190.117 1673.3 190.257C1673.11 191.335 1673.35 192.486 1673.79 193.14C1674.23 193.794 1674.9 194.102 1675.59 194.124C1676.28 194.146 1676.97 193.831 1677.64 193.463C1678.28 193.091 1678.96 192.677 1679.5 191.901C1679.8 191.471 1680.07 190.938 1680.22 190.385C1680.68 188.534 1679.66 187.103 1678.77 186.564C1677.72 185.902 1676.55 186.136 1675.4 186.951C1674.94 187.259 1674.5 187.665 1674.11 188.226C1673.8 188.702 1673.56 189.241 1673.41 189.793Z" fill="#A9733D"/>
<path d="M1673.83 179.735C1672.69 179.635 1671.48 179.958 1670.32 180.628C1669.94 180.851 1669.57 181.126 1669.31 181.659C1668.98 182.375 1669.02 183.347 1669.29 183.972C1669.86 185.326 1671.33 185.914 1672.34 186.088C1673.57 186.347 1674.83 186.035 1676.07 185.234C1677.57 184.237 1677.86 182.259 1676.65 181.038C1675.83 180.223 1674.83 179.81 1673.83 179.735Z" fill="#A9733D"/>
<path d="M1676.12 178.537C1676.23 178.556 1676.32 178.57 1676.43 178.59C1677.15 178.617 1677.91 178.409 1678.66 178.103C1678.97 177.964 1679.29 177.778 1679.57 177.489C1680.18 176.821 1680.4 175.555 1680.07 174.728C1679.74 173.803 1679.08 173.302 1678.46 172.858C1677.47 172.206 1676.32 172.008 1675.17 172.293C1674.44 172.505 1673.68 172.905 1673.07 173.765C1672.95 173.938 1672.83 174.111 1672.77 174.294C1672.7 174.523 1672.7 174.716 1672.72 174.96C1672.73 175.734 1673 176.359 1673.33 176.801C1673.65 177.244 1674.06 177.556 1674.48 177.82C1675.04 178.109 1675.53 178.435 1676.12 178.537Z" fill="#A9733D"/>
<path d="M1681.3 192.21C1680.86 194.596 1681.65 196.227 1683.33 196.517C1684.88 196.783 1686.82 194.897 1687.23 192.699C1687.6 190.689 1686.69 188.939 1685.1 188.617C1683.3 188.261 1681.75 189.731 1681.3 192.21Z" fill="#A9733D"/>
<path d="M1693.87 175.73C1696.6 179.587 1698.69 184.015 1694.83 186.741C1690.98 189.467 1685.64 188.55 1682.91 184.693C1680.19 180.835 1681.1 175.498 1684.96 172.771C1688.82 170.045 1691.15 171.872 1693.87 175.73Z" fill="#A9733D"/>
<path d="M1629.25 227.197C1629.2 227.324 1629.17 227.5 1629.15 227.632C1628.97 228.643 1629.2 229.721 1629.61 230.335C1630.02 230.948 1630.64 231.237 1631.29 231.258C1631.94 231.279 1632.59 230.983 1633.22 230.639C1633.82 230.29 1634.46 229.901 1634.96 229.173C1635.25 228.77 1635.5 228.27 1635.64 227.751C1636.07 226.016 1635.11 224.674 1634.27 224.168C1633.29 223.548 1632.2 223.767 1631.12 224.531C1630.69 224.819 1630.27 225.2 1629.91 225.726C1629.62 226.173 1629.39 226.678 1629.25 227.197Z" fill="#A9733D"/>
<path d="M1629.65 217.763C1628.58 217.67 1627.44 217.972 1626.36 218.6C1626 218.81 1625.65 219.068 1625.41 219.568C1625.1 220.239 1625.13 221.15 1625.39 221.737C1625.93 223.006 1627.3 223.558 1628.25 223.721C1629.4 223.964 1630.59 223.671 1631.75 222.92C1633.16 221.986 1633.42 220.131 1632.29 218.986C1631.52 218.221 1630.59 217.834 1629.65 217.763Z" fill="#A9733D"/>
<path d="M1631.8 216.64C1631.9 216.658 1631.98 216.671 1632.09 216.69C1632.76 216.715 1633.47 216.52 1634.17 216.233C1634.47 216.103 1634.77 215.928 1635.03 215.657C1635.6 215.031 1635.8 213.844 1635.5 213.068C1635.19 212.2 1634.57 211.731 1633.99 211.314C1633.06 210.703 1631.98 210.517 1630.9 210.785C1630.22 210.984 1629.5 211.358 1628.93 212.165C1628.82 212.327 1628.71 212.489 1628.65 212.661C1628.59 212.876 1628.59 213.056 1628.6 213.285C1628.61 214.011 1628.86 214.597 1629.17 215.012C1629.48 215.427 1629.86 215.72 1630.26 215.968C1630.78 216.239 1631.24 216.545 1631.8 216.64Z" fill="#A9733D"/>
<path d="M1636.65 229.463C1636.24 231.7 1636.98 233.23 1638.56 233.502C1640.01 233.751 1641.83 231.982 1642.21 229.921C1642.56 228.036 1641.7 226.395 1640.21 226.093C1638.53 225.759 1637.07 227.138 1636.65 229.463Z" fill="#A9733D"/>
<path d="M1648.44 214.007C1651 217.625 1652.96 221.777 1649.34 224.334C1645.73 226.89 1640.72 226.03 1638.16 222.413C1635.61 218.795 1636.47 213.789 1640.08 211.233C1643.7 208.676 1645.88 210.389 1648.44 214.007Z" fill="#A9733D"/>
<path d="M1618.11 183.381C1618.06 183.509 1618.03 183.684 1618.01 183.816C1617.83 184.827 1618.06 185.906 1618.47 186.52C1618.88 187.133 1619.5 187.422 1620.15 187.443C1620.8 187.464 1621.45 187.168 1622.08 186.823C1622.68 186.474 1623.32 186.086 1623.82 185.358C1624.11 184.955 1624.36 184.454 1624.5 183.936C1624.93 182.2 1623.97 180.858 1623.13 180.353C1622.16 179.732 1621.06 179.951 1619.98 180.716C1619.55 181.004 1619.13 181.385 1618.77 181.911C1618.48 182.358 1618.25 182.863 1618.11 183.381Z" fill="#A9733D"/>
<path d="M1618.51 173.947C1617.44 173.854 1616.3 174.157 1615.22 174.785C1614.86 174.994 1614.51 175.252 1614.27 175.752C1613.96 176.424 1613.99 177.335 1614.25 177.921C1614.79 179.19 1616.16 179.743 1617.11 179.906C1618.26 180.149 1619.45 179.856 1620.61 179.105C1622.02 178.17 1622.28 176.315 1621.15 175.17C1620.38 174.405 1619.45 174.018 1618.51 173.947Z" fill="#A9733D"/>
<path d="M1620.66 172.824C1620.76 172.842 1620.84 172.855 1620.95 172.873C1621.62 172.899 1622.33 172.704 1623.03 172.417C1623.33 172.287 1623.63 172.112 1623.89 171.841C1624.46 171.215 1624.66 170.028 1624.36 169.252C1624.05 168.384 1623.43 167.915 1622.85 167.498C1621.92 166.887 1620.84 166.701 1619.76 166.968C1619.08 167.167 1618.36 167.542 1617.79 168.349C1617.68 168.511 1617.57 168.673 1617.51 168.845C1617.45 169.06 1617.45 169.24 1617.46 169.469C1617.47 170.195 1617.72 170.781 1618.03 171.196C1618.34 171.611 1618.73 171.904 1619.12 172.152C1619.64 172.423 1620.1 172.729 1620.66 172.824Z" fill="#A9733D"/>
<path d="M1625.51 185.647C1625.09 187.885 1625.84 189.415 1627.42 189.686C1628.87 189.935 1630.69 188.167 1631.07 186.106C1631.42 184.22 1630.56 182.58 1629.07 182.278C1627.39 181.944 1625.93 183.322 1625.51 185.647Z" fill="#A9733D"/>
<path d="M1637.3 170.191C1639.86 173.809 1641.82 177.961 1638.2 180.518C1634.59 183.075 1629.58 182.215 1627.02 178.597C1624.47 174.979 1625.33 169.974 1628.94 167.417C1632.56 164.86 1634.74 166.574 1637.3 170.191Z" fill="#A9733D"/>
<path d="M1582.54 231.978C1582.5 232.09 1582.47 232.245 1582.45 232.361C1582.3 233.251 1582.49 234.2 1582.85 234.74C1583.21 235.28 1583.77 235.534 1584.34 235.552C1584.91 235.571 1585.48 235.31 1586.03 235.007C1586.56 234.7 1587.12 234.358 1587.56 233.718C1587.82 233.363 1588.04 232.922 1588.16 232.466C1588.54 230.939 1587.7 229.758 1586.96 229.313C1586.1 228.767 1585.13 228.96 1584.18 229.632C1583.81 229.886 1583.44 230.221 1583.12 230.684C1582.86 231.078 1582.67 231.522 1582.54 231.978Z" fill="#A9733D"/>
<path d="M1582.89 223.677C1581.95 223.595 1580.95 223.861 1580 224.413C1579.68 224.598 1579.38 224.825 1579.16 225.265C1578.89 225.856 1578.92 226.657 1579.14 227.173C1579.62 228.291 1580.82 228.777 1581.66 228.92C1582.67 229.134 1583.72 228.876 1584.74 228.215C1585.98 227.393 1586.21 225.76 1585.21 224.752C1584.54 224.079 1583.72 223.739 1582.89 223.677Z" fill="#A9733D"/>
<path d="M1584.78 222.688C1584.87 222.704 1584.94 222.716 1585.04 222.732C1585.63 222.754 1586.26 222.583 1586.87 222.33C1587.13 222.215 1587.4 222.062 1587.63 221.823C1588.13 221.272 1588.31 220.227 1588.04 219.545C1587.77 218.781 1587.22 218.368 1586.71 218.001C1585.89 217.463 1584.94 217.3 1583.99 217.535C1583.39 217.71 1582.76 218.04 1582.26 218.75C1582.16 218.893 1582.07 219.035 1582.02 219.186C1581.96 219.376 1581.96 219.534 1581.97 219.736C1581.98 220.375 1582.2 220.89 1582.47 221.256C1582.74 221.621 1583.08 221.878 1583.43 222.097C1583.89 222.335 1584.29 222.604 1584.78 222.688Z" fill="#A9733D"/>
<path d="M1589.05 233.973C1588.69 235.941 1589.34 237.288 1590.73 237.527C1592.01 237.746 1593.61 236.19 1593.95 234.376C1594.26 232.717 1593.5 231.273 1592.19 231.007C1590.71 230.713 1589.43 231.927 1589.05 233.973Z" fill="#A9733D"/>
<path d="M1599.43 220.371C1601.68 223.555 1603.41 227.209 1600.22 229.459C1597.04 231.709 1592.63 230.952 1590.38 227.768C1588.13 224.585 1588.89 220.18 1592.07 217.93C1595.26 215.68 1597.18 217.187 1599.43 220.371Z" fill="#A9733D"/>
<path d="M1560.32 268.983C1560.29 269.07 1560.27 269.189 1560.25 269.279C1560.13 269.966 1560.28 270.699 1560.56 271.116C1560.84 271.533 1561.27 271.73 1561.71 271.744C1562.15 271.758 1562.59 271.557 1563.02 271.323C1563.42 271.085 1563.86 270.821 1564.2 270.327C1564.4 270.053 1564.56 269.713 1564.66 269.36C1564.96 268.181 1564.3 267.269 1563.73 266.925C1563.07 266.503 1562.32 266.652 1561.59 267.172C1561.3 267.367 1561.01 267.626 1560.77 267.984C1560.57 268.288 1560.42 268.631 1560.32 268.983Z" fill="#A9733D"/>
<path d="M1560.59 262.572C1559.86 262.508 1559.09 262.714 1558.35 263.141C1558.11 263.283 1557.88 263.458 1557.71 263.798C1557.5 264.255 1557.52 264.874 1557.69 265.272C1558.06 266.135 1558.99 266.51 1559.64 266.621C1560.42 266.787 1561.23 266.587 1562.02 266.077C1562.98 265.442 1563.15 264.181 1562.39 263.403C1561.87 262.883 1561.23 262.62 1560.59 262.572Z" fill="#A9733D"/>
<path d="M1562.05 261.808C1562.12 261.82 1562.18 261.829 1562.25 261.842C1562.71 261.859 1563.19 261.727 1563.67 261.532C1563.87 261.443 1564.07 261.324 1564.25 261.14C1564.64 260.714 1564.78 259.908 1564.57 259.38C1564.36 258.79 1563.93 258.471 1563.54 258.188C1562.91 257.773 1562.18 257.646 1561.44 257.828C1560.98 257.964 1560.49 258.218 1560.1 258.767C1560.03 258.877 1559.95 258.987 1559.92 259.103C1559.87 259.25 1559.87 259.372 1559.88 259.528C1559.89 260.021 1560.06 260.42 1560.27 260.702C1560.48 260.984 1560.74 261.183 1561.01 261.351C1561.36 261.535 1561.68 261.743 1562.05 261.808Z" fill="#A9733D"/>
<path d="M1565.35 270.524C1565.07 272.044 1565.57 273.084 1566.65 273.269C1567.63 273.438 1568.87 272.236 1569.13 270.835C1569.37 269.554 1568.78 268.439 1567.77 268.234C1566.63 268.007 1565.64 268.944 1565.35 270.524Z" fill="#A9733D"/>
<path d="M1573.36 260.019C1575.1 262.478 1576.44 265.3 1573.98 267.038C1571.52 268.775 1568.12 268.191 1566.38 265.732C1564.64 263.273 1565.22 259.871 1567.68 258.133C1570.14 256.395 1571.62 257.56 1573.36 260.019Z" fill="#A9733D"/>
<path d="M1595.89 257.063C1595.85 257.166 1595.82 257.31 1595.8 257.417C1595.66 258.242 1595.84 259.121 1596.18 259.621C1596.51 260.122 1597.02 260.357 1597.55 260.374C1598.08 260.391 1598.61 260.15 1599.12 259.869C1599.61 259.584 1600.13 259.268 1600.54 258.674C1600.78 258.345 1600.98 257.938 1601.09 257.515C1601.45 256.1 1600.66 255.005 1599.98 254.593C1599.18 254.087 1598.29 254.266 1597.41 254.889C1597.06 255.124 1596.72 255.435 1596.42 255.864C1596.18 256.228 1596 256.64 1595.89 257.063Z" fill="#A9733D"/>
<path d="M1596.21 249.371C1595.34 249.295 1594.41 249.541 1593.53 250.053C1593.23 250.224 1592.95 250.434 1592.75 250.842C1592.5 251.39 1592.53 252.133 1592.74 252.611C1593.18 253.646 1594.29 254.096 1595.07 254.229C1596.01 254.427 1596.98 254.188 1597.92 253.576C1599.07 252.814 1599.29 251.301 1598.36 250.368C1597.74 249.744 1596.98 249.428 1596.21 249.371Z" fill="#A9733D"/>
<path d="M1597.96 248.455C1598.05 248.469 1598.11 248.48 1598.2 248.495C1598.75 248.516 1599.33 248.357 1599.9 248.123C1600.14 248.017 1600.38 247.875 1600.6 247.653C1601.06 247.143 1601.23 246.175 1600.98 245.542C1600.73 244.835 1600.22 244.452 1599.75 244.112C1598.99 243.614 1598.11 243.462 1597.23 243.68C1596.67 243.843 1596.09 244.148 1595.62 244.806C1595.54 244.938 1595.45 245.071 1595.4 245.21C1595.35 245.386 1595.34 245.533 1595.36 245.719C1595.37 246.311 1595.57 246.789 1595.82 247.128C1596.07 247.466 1596.39 247.704 1596.71 247.907C1597.13 248.128 1597.51 248.377 1597.96 248.455Z" fill="#A9733D"/>
<path d="M1601.92 258.911C1601.58 260.735 1602.19 261.982 1603.47 262.204C1604.66 262.407 1606.14 260.965 1606.45 259.284C1606.74 257.747 1606.04 256.409 1604.82 256.163C1603.45 255.891 1602.26 257.015 1601.92 258.911Z" fill="#A9733D"/>
<path d="M1611.53 246.308C1613.62 249.258 1615.22 252.644 1612.27 254.729C1609.32 256.813 1605.24 256.112 1603.15 253.162C1601.07 250.212 1601.77 246.131 1604.72 244.046C1607.67 241.961 1609.45 243.358 1611.53 246.308Z" fill="#A9733D"/>
<path d="M1570.72 289.923C1570.69 289.996 1570.67 290.096 1570.66 290.172C1570.56 290.749 1570.68 291.364 1570.92 291.714C1571.15 292.064 1571.51 292.229 1571.88 292.241C1572.25 292.253 1572.62 292.084 1572.98 291.888C1573.32 291.688 1573.69 291.467 1573.97 291.051C1574.14 290.821 1574.28 290.536 1574.36 290.24C1574.61 289.25 1574.06 288.484 1573.58 288.195C1573.02 287.841 1572.4 287.966 1571.78 288.402C1571.54 288.567 1571.3 288.784 1571.09 289.084C1570.92 289.339 1570.8 289.628 1570.72 289.923Z" fill="#A9733D"/>
<path d="M1570.94 284.54C1570.33 284.487 1569.69 284.659 1569.07 285.018C1568.86 285.137 1568.66 285.284 1568.52 285.57C1568.35 285.953 1568.37 286.473 1568.51 286.807C1568.82 287.532 1569.6 287.847 1570.14 287.94C1570.8 288.079 1571.48 287.911 1572.14 287.483C1572.95 286.95 1573.1 285.891 1572.45 285.237C1572.01 284.801 1571.48 284.58 1570.94 284.54Z" fill="#A9733D"/>
<path d="M1572.17 283.899C1572.23 283.909 1572.27 283.917 1572.33 283.927C1572.72 283.941 1573.13 283.83 1573.53 283.667C1573.69 283.592 1573.86 283.493 1574.02 283.338C1574.34 282.98 1574.46 282.303 1574.28 281.86C1574.11 281.365 1573.75 281.097 1573.42 280.859C1572.89 280.51 1572.27 280.404 1571.66 280.557C1571.27 280.671 1570.86 280.885 1570.53 281.345C1570.47 281.438 1570.41 281.53 1570.38 281.628C1570.34 281.751 1570.34 281.854 1570.35 281.984C1570.35 282.398 1570.5 282.733 1570.67 282.97C1570.85 283.207 1571.07 283.374 1571.29 283.515C1571.59 283.67 1571.85 283.844 1572.17 283.899Z" fill="#A9733D"/>
<path d="M1574.94 291.217C1574.7 292.494 1575.13 293.367 1576.03 293.522C1576.86 293.664 1577.9 292.655 1578.11 291.479C1578.31 290.403 1577.82 289.466 1576.97 289.294C1576.01 289.103 1575.18 289.89 1574.94 291.217Z" fill="#A9733D"/>
<path d="M1581.67 282.396C1583.13 284.461 1584.25 286.83 1582.18 288.289C1580.12 289.748 1577.26 289.258 1575.8 287.193C1574.34 285.128 1574.83 282.272 1576.9 280.813C1578.96 279.354 1580.21 280.331 1581.67 282.396Z" fill="#A9733D"/>
</g>
<path fill-rule="evenodd" clip-rule="evenodd" d="M203.008 75.0051C217.297 65.9353 231.35 64.2678 245.057 73.5236C229.333 73.781 217.382 92.8954 203.008 75.0051ZM264.608 69.3241C283.607 61.7151 300.559 62.8542 314.827 76.853C296.184 73.698 277.726 93.719 264.608 69.3241ZM229.888 103.189C243.424 93.5012 257.137 91.1431 271.063 99.4912C255.719 100.581 245.047 119.93 229.962 103.209L229.888 103.189ZM281.632 107.312C299.514 100.137 315.561 101.218 328.918 114.401C311.349 111.453 293.99 130.331 281.706 107.332L281.632 107.312ZM254.738 125.352C273.737 117.743 290.689 118.882 304.933 132.874C286.191 129.693 267.733 149.714 254.738 125.352ZM317.628 137.11C332.323 126.243 347.321 123.417 362.778 132.329C345.84 133.673 334.458 155.261 317.579 137.097L317.628 137.11ZM306.764 156.096C319.376 172.134 334.631 179.557 354.025 174.48C336.184 167.962 330.296 141.444 306.715 156.083L306.764 156.096ZM266.525 148.244C288.282 153.61 302.591 165.506 306.069 186.92C291.537 172.147 262.239 178.14 266.476 148.231L266.525 148.244ZM329.842 206.056C348.901 213.42 365.951 212.053 379.932 197.889C361.178 201.283 342.477 181.485 329.744 206.03L329.842 206.056ZM364.326 163.227C381.292 168.599 396.007 166.429 407.354 153.445C391.234 157.408 373.947 141.145 364.228 163.201L364.326 163.227ZM308.369 207.239C317.065 219.756 318.967 232.295 310.95 244.833C310.256 230.841 292.501 220.692 308.369 207.239ZM288.393 189.922C291.713 211.921 286.124 229.594 267.505 240.958C275.692 222.044 258.921 197.539 288.374 189.995L288.393 189.922ZM262.513 181.998C260.273 206.461 249.613 224.013 226.648 231.402C240.426 213.218 228.797 182.432 262.513 181.998ZM233.165 154.28C234.648 178.793 226.695 197.717 205.116 208.451C216.101 188.428 200.067 159.734 233.263 154.307L233.165 154.28ZM191.908 114.444C203.049 127.847 206.535 141.825 198.883 156.809C196.606 140.986 175.465 131.294 191.908 114.444ZM143.789 123.396C152.965 138.129 165.25 145.832 182.054 143.33C167.628 136.154 165.193 113.216 143.863 123.416L143.789 123.396ZM174.691 155.103C185.832 168.505 189.318 182.483 181.667 197.467C179.291 181.618 158.13 171.999 174.647 155.169L174.691 155.103ZM153.603 159.442C140.561 170.905 134.991 184.224 140.359 200.294C144.971 184.972 167.346 178.599 153.558 159.508L153.603 159.442ZM132.378 141.975C136.155 160.624 132.149 175.847 116.699 186.488C122.853 170.035 107.471 149.736 132.334 142.042L132.378 141.975ZM118.295 121.448C101.567 125.615 90.5372 134.794 87.9209 151.3C99.006 139.969 121.584 144.535 118.25 121.514L118.295 121.448ZM146.618 44.9282C161.608 37.0626 175.764 36.5711 188.645 46.9384C172.893 45.9355 159.407 64.0151 146.574 44.9948L146.618 44.9282Z" fill="#89A829"/>
<path d="M236.596 137.126C241.365 142.191 245.26 146.768 248.196 150.583C244.979 146.628 241.075 142.074 236.596 137.126C212.732 111.777 167.011 74.2219 110.389 58.9465C42.4547 40.6193 8.15703 27.1694 -0.5 22.7354V4.99939C14.1406 13.7482 56.8152 34.4703 110.389 47.3675C156.665 58.5077 208.197 105.751 236.596 137.126Z" fill="#D9D9D9"/>
<g opacity="0.2">
<path d="M900.23 922.335C899.883 922.318 899.433 922.384 899.096 922.434C896.513 922.816 894.079 924.209 892.921 925.688C891.762 927.167 891.562 928.917 892.026 930.501C892.49 932.084 893.72 933.416 895.053 934.664C896.375 935.845 897.82 937.076 899.981 937.72C901.184 938.092 902.592 938.297 903.96 938.232C908.503 937.904 910.984 934.508 911.544 932.086C912.268 929.225 910.869 926.748 908.161 924.74C907.123 923.93 905.87 923.221 904.31 922.764C902.995 922.408 901.597 922.27 900.23 922.335Z" fill="#A9733D"/>
<path d="M923.368 915.813C922.745 913.153 921.111 910.641 918.73 908.516C917.936 907.808 917.041 907.183 915.633 906.978C913.766 906.773 911.589 907.577 910.371 908.652C907.73 910.97 907.482 914.723 907.841 917.148C908.167 920.128 909.821 922.774 912.558 924.984C915.937 927.65 920.635 926.817 922.505 923.168C923.749 920.712 923.942 918.137 923.368 915.813Z" fill="#A9733D"/>
<path d="M927.794 920.114C927.834 920.384 927.864 920.586 927.904 920.855C928.378 922.506 929.413 924.073 930.663 925.54C931.212 926.147 931.874 926.737 932.74 927.16C934.706 928.039 937.739 927.59 939.377 926.246C941.229 924.802 941.868 922.918 942.415 921.185C943.16 918.46 942.751 915.698 941.249 913.305C940.224 911.805 938.749 910.372 936.343 909.626C935.864 909.491 935.385 909.355 934.925 909.354C934.354 909.37 933.914 909.504 933.373 909.722C931.625 910.325 930.407 911.4 929.648 912.476C928.889 913.551 928.487 914.712 928.197 915.856C927.957 917.337 927.585 918.7 927.794 920.114Z" fill="#A9733D"/>
<path d="M947.374 958.292C940.652 967.35 932.166 975.396 923.108 968.673C914.051 961.951 912.157 949.158 918.879 940.1C925.601 931.042 938.393 929.149 947.451 935.871C956.509 942.594 954.096 949.234 947.374 958.292Z" fill="#A9733D"/>
<path d="M1018.41 918.232C1018.06 918.321 1017.63 918.526 1017.31 918.679C1014.87 919.855 1012.88 921.986 1012.19 923.811C1011.5 925.635 1011.84 927.433 1012.79 928.861C1013.73 930.288 1015.37 931.231 1017.07 932.058C1018.75 932.822 1020.56 933.598 1022.9 933.57C1024.21 933.569 1025.67 933.338 1027.01 932.852C1031.41 931.126 1032.83 926.993 1032.64 924.417C1032.47 921.356 1030.32 919.33 1027.02 918.172C1025.74 917.689 1024.28 917.372 1022.59 917.399C1021.17 917.451 1019.74 917.746 1018.41 918.232Z" fill="#A9733D"/>
<path d="M1039.35 904.63C1037.91 902.182 1035.52 900.195 1032.5 898.82C1031.5 898.362 1030.42 898.019 1028.96 898.25C1027.04 898.621 1025.13 900.09 1024.25 901.532C1022.35 904.646 1023.26 908.445 1024.36 910.74C1025.6 913.596 1028.06 915.711 1031.46 917.059C1035.63 918.662 1040.03 916.388 1040.76 912.191C1041.24 909.372 1040.64 906.758 1039.35 904.63Z" fill="#A9733D"/>
<path d="M1045.07 907.532C1045.19 907.787 1045.28 907.978 1045.4 908.233C1046.38 909.725 1047.89 910.96 1049.59 912.03C1050.32 912.463 1051.16 912.845 1052.14 912.997C1054.37 913.263 1057.24 911.883 1058.45 910.045C1059.84 908.041 1059.89 905.975 1059.9 904.088C1059.8 901.154 1058.54 898.541 1056.32 896.63C1054.84 895.458 1052.93 894.49 1050.32 894.493C1049.8 894.506 1049.28 894.519 1048.83 894.66C1048.26 894.852 1047.87 895.12 1047.4 895.503C1045.85 896.64 1044.97 898.082 1044.55 899.383C1044.13 900.684 1044.09 901.96 1044.15 903.184C1044.37 904.727 1044.42 906.194 1045.07 907.532Z" fill="#A9733D"/>
<path d="M1024.86 937.65C1019.41 940.193 1017.25 944.136 1019.09 947.961C1020.77 951.467 1027.38 952.685 1032.41 950.346C1037.01 948.212 1039.23 943.848 1037.59 940.164C1035.73 936.033 1030.53 935.005 1024.86 937.65Z" fill="#A9733D"/>
<path d="M1076.26 939.369C1072.38 950.427 1066.44 961.026 1055.39 957.149C1044.33 953.271 1038.51 941.164 1042.38 930.106C1046.26 919.048 1058.37 913.227 1069.42 917.104C1080.48 920.981 1080.13 928.312 1076.26 939.369Z" fill="#A9733D"/>
<path d="M942.26 831.738C941.919 831.825 941.505 832.025 941.194 832.174C938.81 833.32 936.874 835.399 936.198 837.178C935.522 838.957 935.855 840.71 936.779 842.101C937.704 843.493 939.294 844.412 940.958 845.219C942.592 845.963 944.359 846.72 946.643 846.693C947.919 846.692 949.342 846.467 950.645 845.993C954.94 844.31 956.32 840.28 956.134 837.769C955.975 834.784 953.877 832.809 950.654 831.68C949.407 831.209 947.982 830.9 946.336 830.926C944.957 830.977 943.564 831.264 942.26 831.738Z" fill="#A9733D"/>
<path d="M962.682 818.476C961.28 816.089 958.944 814.152 956.003 812.811C955.023 812.365 953.968 812.03 952.545 812.255C950.678 812.617 948.814 814.049 947.959 815.455C946.101 818.491 946.989 822.196 948.064 824.433C949.275 827.218 951.671 829.279 954.982 830.595C959.052 832.158 963.345 829.94 964.057 825.848C964.522 823.1 963.935 820.551 962.682 818.476Z" fill="#A9733D"/>
<path d="M968.253 821.306C968.372 821.554 968.462 821.741 968.581 821.989C969.536 823.443 971.008 824.648 972.658 825.691C973.372 826.113 974.189 826.486 975.153 826.634C977.319 826.893 980.118 825.547 981.298 823.756C982.656 821.802 982.708 819.788 982.716 817.947C982.617 815.087 981.392 812.539 979.22 810.676C977.778 809.533 975.921 808.59 973.37 808.592C972.865 808.605 972.361 808.618 971.917 808.755C971.369 808.942 970.984 809.204 970.525 809.577C969.017 810.685 968.161 812.091 967.75 813.36C967.34 814.629 967.299 815.872 967.363 817.066C967.576 818.571 967.625 820.001 968.253 821.306Z" fill="#A9733D"/>
<path d="M948.555 850.671C943.239 853.15 941.132 856.995 942.925 860.723C944.568 864.142 951.009 865.329 955.91 863.049C960.397 860.968 962.562 856.714 960.963 853.121C959.154 849.094 954.078 848.091 948.555 850.671Z" fill="#A9733D"/>
<path d="M998.665 852.347C994.885 863.129 989.095 873.462 978.314 869.682C967.533 865.902 961.858 854.097 965.638 843.316C969.417 832.534 981.221 826.859 992.002 830.639C1002.78 834.419 1002.44 841.566 998.665 852.347Z" fill="#A9733D"/>
<path d="M838.998 859.566C838.679 859.648 838.29 859.834 837.999 859.975C835.765 861.049 833.951 862.997 833.317 864.664C832.683 866.331 832.995 867.974 833.861 869.279C834.728 870.583 836.218 871.444 837.778 872.2C839.309 872.898 840.966 873.608 843.106 873.582C844.302 873.581 845.635 873.37 846.857 872.926C850.883 871.349 852.176 867.572 852.001 865.218C851.852 862.421 849.886 860.57 846.866 859.512C845.697 859.07 844.361 858.78 842.818 858.805C841.526 858.852 840.22 859.122 838.998 859.566Z" fill="#A9733D"/>
<path d="M858.136 847.136C856.821 844.899 854.633 843.083 851.876 841.827C850.957 841.408 849.969 841.095 848.636 841.306C846.885 841.645 845.139 842.987 844.337 844.305C842.595 847.15 843.428 850.622 844.436 852.719C845.571 855.329 847.816 857.261 850.92 858.494C854.734 859.959 858.757 857.881 859.425 854.046C859.861 851.47 859.31 849.081 858.136 847.136Z" fill="#A9733D"/>
<path d="M863.359 849.789C863.471 850.022 863.555 850.196 863.667 850.429C864.562 851.792 865.942 852.921 867.488 853.899C868.157 854.295 868.923 854.643 869.827 854.783C871.857 855.025 874.48 853.764 875.586 852.085C876.858 850.254 876.907 848.366 876.915 846.641C876.822 843.961 875.674 841.573 873.639 839.826C872.286 838.755 870.546 837.871 868.155 837.873C867.682 837.886 867.21 837.898 866.793 838.026C866.28 838.201 865.919 838.447 865.489 838.797C864.075 839.835 863.274 841.153 862.888 842.342C862.503 843.531 862.466 844.697 862.525 845.815C862.725 847.225 862.771 848.566 863.359 849.789Z" fill="#A9733D"/>
<path d="M844.897 877.31C839.915 879.634 837.94 883.237 839.62 886.732C841.16 889.935 847.197 891.049 851.79 888.912C855.995 886.961 858.025 882.974 856.526 879.607C854.83 875.832 850.073 874.893 844.897 877.31Z" fill="#A9733D"/>
<path d="M891.861 878.882C888.319 888.987 882.892 898.672 872.788 895.129C862.684 891.586 857.364 880.522 860.907 870.418C864.45 860.313 875.512 854.994 885.617 858.536C895.721 862.079 895.404 868.778 891.861 878.882Z" fill="#A9733D"/>
<path d="M812.379 712.755C812.098 712.771 811.742 712.864 811.475 712.934C809.43 713.466 807.592 714.799 806.789 716.09C805.985 717.381 805.976 718.807 806.488 720.041C806.999 721.275 808.105 722.24 809.286 723.128C810.453 723.963 811.723 724.828 813.519 725.158C814.519 725.353 815.67 725.395 816.765 725.224C820.392 724.564 822.094 721.615 822.333 719.617C822.667 717.252 821.325 715.38 818.971 714C818.065 713.439 816.995 712.977 815.7 712.745C814.611 712.573 813.474 712.584 812.379 712.755Z" fill="#A9733D"/>
<path d="M830.432 705.491C829.699 703.404 828.165 701.526 826.064 700.023C825.364 699.522 824.588 699.097 823.438 699.055C821.917 699.052 820.235 699.889 819.349 700.86C817.425 702.956 817.552 705.998 818.052 707.918C818.574 710.288 820.136 712.273 822.531 713.813C825.483 715.664 829.191 714.585 830.378 711.485C831.165 709.401 831.096 707.312 830.432 705.491Z" fill="#A9733D"/>
<path d="M834.366 708.567C834.422 708.781 834.464 708.941 834.519 709.154C835.044 710.441 836.014 711.612 837.148 712.684C837.643 713.124 838.226 713.542 838.96 713.806C840.62 714.342 843.021 713.717 844.223 712.493C845.588 711.169 845.938 709.597 846.228 708.155C846.59 705.897 846.02 703.71 844.603 701.915C843.647 700.797 842.335 699.772 840.334 699.382C839.936 699.315 839.539 699.247 839.169 699.287C838.71 699.349 838.368 699.495 837.951 699.718C836.598 700.355 835.711 701.326 835.193 702.258C834.676 703.19 834.454 704.159 834.32 705.105C834.256 706.318 834.075 707.447 834.366 708.567Z" fill="#A9733D"/>
<path d="M814.406 728.571C809.856 729.699 807.613 732.39 808.446 735.59C809.21 738.524 814.079 740.445 818.273 739.41C822.112 738.467 824.464 735.463 823.761 732.399C822.961 728.963 819.134 727.397 814.406 728.571Z" fill="#A9733D"/>
<path d="M853.452 737.586C848.831 745.461 842.702 752.675 834.827 748.054C826.953 743.433 824.315 733.302 828.936 725.427C833.557 717.552 843.686 714.914 851.561 719.536C859.436 724.157 858.073 729.71 853.452 737.586Z" fill="#A9733D"/>
<path d="M791.767 791.658C791.487 791.674 791.131 791.767 790.864 791.837C788.818 792.369 786.981 793.702 786.177 794.993C785.374 796.285 785.365 797.71 785.876 798.944C786.388 800.178 787.494 801.143 788.675 802.031C789.842 802.866 791.112 803.731 792.907 804.061C793.908 804.256 795.059 804.298 796.154 804.127C799.781 803.467 801.483 800.518 801.722 798.52C802.056 796.155 800.714 794.283 798.36 792.903C797.454 792.342 796.384 791.88 795.089 791.648C793.999 791.476 792.862 791.487 791.767 791.658Z" fill="#A9733D"/>
<path d="M809.821 784.394C809.087 782.307 807.554 780.429 805.453 778.926C804.752 778.425 803.977 778 802.826 777.958C801.306 777.955 799.624 778.792 798.737 779.763C796.814 781.859 796.941 784.901 797.441 786.821C797.963 789.191 799.525 791.176 801.92 792.716C804.871 794.567 808.579 793.488 809.767 790.388C810.554 788.304 810.485 786.215 809.821 784.394Z" fill="#A9733D"/>
<path d="M813.756 787.471C813.812 787.684 813.853 787.844 813.909 788.058C814.434 789.345 815.404 790.516 816.538 791.588C817.032 792.028 817.616 792.446 818.35 792.71C820.009 793.246 822.411 792.621 823.612 791.397C824.977 790.073 825.328 788.501 825.617 787.059C825.979 784.801 825.41 782.614 823.993 780.819C823.037 779.701 821.725 778.676 819.723 778.286C819.326 778.219 818.928 778.151 818.559 778.191C818.1 778.253 817.758 778.399 817.341 778.622C815.987 779.259 815.1 780.23 814.583 781.162C814.066 782.094 813.843 783.063 813.71 784.009C813.645 785.222 813.464 786.351 813.756 787.471Z" fill="#A9733D"/>
<path d="M793.796 807.475C789.246 808.603 787.002 811.294 787.835 814.494C788.599 817.427 793.468 819.349 797.663 818.313C801.501 817.371 803.853 814.366 803.151 811.303C802.351 807.867 798.524 806.301 793.796 807.475Z" fill="#A9733D"/>
<path d="M832.84 816.49C828.219 824.365 822.09 831.58 814.215 826.958C806.34 822.337 803.703 812.207 808.323 804.331C812.944 796.456 823.074 793.819 830.949 798.44C838.824 803.061 837.46 808.615 832.84 816.49Z" fill="#A9733D"/>
<path d="M881.06 764.049C880.78 764.065 880.424 764.158 880.157 764.227C878.111 764.76 876.274 766.092 875.47 767.384C874.667 768.675 874.658 770.101 875.169 771.335C875.68 772.568 876.786 773.533 877.968 774.422C879.135 775.257 880.405 776.122 882.2 776.452C883.201 776.647 884.352 776.689 885.447 776.518C889.074 775.858 890.776 772.909 891.015 770.91C891.349 768.545 890.007 766.674 887.653 765.293C886.747 764.732 885.677 764.27 884.382 764.038C883.292 763.866 882.155 763.877 881.06 764.049Z" fill="#A9733D"/>
<path d="M899.115 756.785C898.381 754.698 896.848 752.819 894.747 751.316C894.046 750.815 893.271 750.391 892.12 750.348C890.6 750.346 888.918 751.182 888.031 752.154C886.108 754.249 886.235 757.291 886.735 759.211C887.257 761.581 888.818 763.566 891.214 765.107C894.165 766.958 897.873 765.878 899.061 762.779C899.848 760.694 899.779 758.605 899.115 756.785Z" fill="#A9733D"/>
<path d="M903.048 759.861C903.104 760.075 903.145 760.235 903.201 760.448C903.726 761.735 904.696 762.906 905.83 763.978C906.324 764.419 906.908 764.836 907.642 765.101C909.301 765.637 911.703 765.011 912.904 763.787C914.269 762.464 914.62 760.892 914.909 759.449C915.271 757.191 914.702 755.004 913.285 753.209C912.329 752.091 911.017 751.066 909.015 750.676C908.618 750.609 908.22 750.542 907.851 750.581C907.392 750.643 907.05 750.789 906.633 751.012C905.279 751.649 904.392 752.62 903.875 753.552C903.358 754.484 903.135 755.454 903.002 756.4C902.937 757.612 902.756 758.741 903.048 759.861Z" fill="#A9733D"/>
<path d="M883.088 779.865C878.538 780.993 876.294 783.684 877.127 786.884C877.891 789.817 882.76 791.738 886.955 790.703C890.793 789.761 893.145 786.756 892.443 783.693C891.643 780.257 887.816 778.69 883.088 779.865Z" fill="#A9733D"/>
<path d="M922.131 788.88C917.511 796.755 911.382 803.97 903.507 799.349C895.632 794.727 892.995 784.597 897.615 776.722C902.236 768.846 912.366 766.209 920.241 770.83C928.116 775.451 926.752 781.005 922.131 788.88Z" fill="#A9733D"/>
<path d="M728.374 732.747C728.125 732.761 727.809 732.843 727.572 732.905C725.756 733.378 724.125 734.561 723.412 735.707C722.699 736.854 722.691 738.119 723.145 739.215C723.599 740.31 724.58 741.166 725.629 741.955C726.665 742.696 727.793 743.464 729.386 743.757C730.275 743.93 731.296 743.968 732.268 743.815C735.488 743.23 736.999 740.612 737.211 738.838C737.508 736.738 736.316 735.077 734.227 733.852C733.422 733.353 732.473 732.944 731.323 732.737C730.356 732.585 729.347 732.595 728.374 732.747Z" fill="#A9733D"/>
<path d="M744.402 726.299C743.751 724.446 742.389 722.779 740.524 721.444C739.902 721 739.214 720.623 738.192 720.586C736.842 720.583 735.349 721.326 734.562 722.188C732.854 724.048 732.967 726.749 733.411 728.453C733.874 730.557 735.26 732.319 737.387 733.687C740.007 735.33 743.299 734.372 744.354 731.62C745.052 729.77 744.991 727.915 744.402 726.299Z" fill="#A9733D"/>
<path d="M747.892 729.029C747.942 729.219 747.979 729.361 748.028 729.55C748.494 730.693 749.355 731.732 750.362 732.684C750.801 733.075 751.319 733.445 751.97 733.68C753.443 734.156 755.575 733.601 756.642 732.514C757.854 731.339 758.165 729.944 758.422 728.664C758.743 726.659 758.237 724.718 756.979 723.124C756.131 722.132 754.966 721.222 753.19 720.876C752.837 720.816 752.484 720.756 752.156 720.791C751.749 720.846 751.445 720.976 751.075 721.174C749.873 721.739 749.086 722.602 748.626 723.429C748.167 724.256 747.97 725.117 747.851 725.956C747.794 727.033 747.633 728.035 747.892 729.029Z" fill="#A9733D"/>
<path d="M730.174 746.787C726.135 747.788 724.143 750.178 724.883 753.018C725.561 755.622 729.883 757.328 733.607 756.409C737.014 755.572 739.102 752.905 738.479 750.186C737.769 747.135 734.371 745.745 730.174 746.787Z" fill="#A9733D"/>
<path d="M764.835 754.79C760.733 761.781 755.292 768.185 748.302 764.083C741.311 759.98 738.97 750.988 743.072 743.997C747.174 737.006 756.166 734.664 763.156 738.767C770.147 742.869 768.937 747.799 764.835 754.79Z" fill="#A9733D"/>
<path d="M725.292 655.125C725.043 655.14 724.727 655.222 724.49 655.283C722.674 655.756 721.043 656.939 720.33 658.086C719.617 659.232 719.609 660.498 720.063 661.593C720.517 662.688 721.498 663.545 722.547 664.333C723.583 665.075 724.71 665.843 726.304 666.135C727.193 666.309 728.214 666.346 729.186 666.194C732.406 665.608 733.917 662.99 734.129 661.216C734.426 659.117 733.234 657.455 731.145 656.23C730.34 655.732 729.391 655.322 728.241 655.116C727.274 654.963 726.265 654.973 725.292 655.125Z" fill="#A9733D"/>
<path d="M741.319 648.677C740.668 646.824 739.306 645.157 737.441 643.823C736.819 643.378 736.131 643.001 735.109 642.964C733.759 642.961 732.266 643.704 731.479 644.566C729.771 646.426 729.884 649.127 730.328 650.831C730.791 652.935 732.177 654.697 734.304 656.065C736.924 657.708 740.216 656.75 741.271 653.998C741.969 652.148 741.908 650.293 741.319 648.677Z" fill="#A9733D"/>
<path d="M744.81 651.408C744.86 651.597 744.897 651.739 744.946 651.928C745.412 653.071 746.273 654.111 747.28 655.062C747.719 655.453 748.237 655.824 748.888 656.059C750.361 656.534 752.493 655.979 753.56 654.893C754.772 653.718 755.083 652.322 755.34 651.042C755.661 649.037 755.155 647.096 753.897 645.503C753.049 644.51 751.884 643.6 750.108 643.254C749.755 643.194 749.402 643.134 749.074 643.169C748.667 643.225 748.363 643.354 747.993 643.552C746.791 644.118 746.004 644.98 745.544 645.807C745.085 646.634 744.888 647.495 744.769 648.335C744.712 649.411 744.551 650.413 744.81 651.408Z" fill="#A9733D"/>
<path d="M727.092 669.165C723.053 670.167 721.061 672.556 721.801 675.396C722.479 678 726.801 679.706 730.525 678.787C733.932 677.95 736.02 675.283 735.397 672.564C734.687 669.513 731.289 668.123 727.092 669.165Z" fill="#A9733D"/>
<path d="M761.753 677.168C757.651 684.158 752.21 690.563 745.22 686.461C738.229 682.358 735.888 673.365 739.99 666.375C744.092 659.384 753.084 657.042 760.074 661.145C767.065 665.247 765.855 670.177 761.753 677.168Z" fill="#A9733D"/>
<path d="M655.384 677.891C655.141 677.905 654.833 677.985 654.602 678.045C652.831 678.507 651.241 679.66 650.545 680.778C649.849 681.896 649.842 683.131 650.284 684.199C650.727 685.267 651.684 686.102 652.707 686.871C653.717 687.594 654.817 688.343 656.371 688.629C657.237 688.797 658.234 688.834 659.182 688.686C662.322 688.114 663.795 685.561 664.002 683.831C664.291 681.784 663.13 680.164 661.092 678.969C660.307 678.483 659.381 678.083 658.26 677.882C657.317 677.733 656.332 677.743 655.384 677.891Z" fill="#A9733D"/>
<path d="M671.013 671.603C670.378 669.796 669.05 668.17 667.231 666.869C666.624 666.435 665.953 666.068 664.957 666.031C663.64 666.029 662.184 666.753 661.417 667.594C659.751 669.408 659.861 672.042 660.294 673.704C660.746 675.756 662.098 677.475 664.172 678.808C666.727 680.41 669.938 679.476 670.966 676.792C671.647 674.988 671.588 673.179 671.013 671.603Z" fill="#A9733D"/>
<path d="M674.418 674.266C674.467 674.451 674.503 674.589 674.551 674.774C675.005 675.888 675.845 676.902 676.827 677.83C677.255 678.211 677.76 678.573 678.395 678.802C679.832 679.266 681.911 678.724 682.951 677.665C684.133 676.519 684.436 675.158 684.687 673.91C685 671.954 684.507 670.061 683.28 668.507C682.453 667.54 681.317 666.652 679.585 666.314C679.24 666.256 678.896 666.198 678.576 666.232C678.179 666.286 677.883 666.412 677.522 666.605C676.35 667.157 675.582 667.998 675.134 668.804C674.687 669.611 674.494 670.45 674.378 671.269C674.323 672.319 674.166 673.297 674.418 674.266Z" fill="#A9733D"/>
<path d="M657.139 691.584C653.2 692.56 651.258 694.89 651.979 697.66C652.64 700.2 656.856 701.863 660.487 700.967C663.81 700.151 665.846 697.55 665.238 694.898C664.546 691.923 661.232 690.567 657.139 691.584Z" fill="#A9733D"/>
<path d="M690.941 699.388C686.94 706.206 681.634 712.452 674.817 708.451C668 704.451 665.716 695.68 669.716 688.863C673.717 682.045 682.487 679.761 689.304 683.762C696.121 687.763 694.941 692.571 690.941 699.388Z" fill="#A9733D"/>
<path d="M650.795 603.815C650.565 603.828 650.273 603.904 650.055 603.961C648.379 604.397 646.875 605.489 646.216 606.546C645.558 607.604 645.551 608.772 645.97 609.782C646.389 610.793 647.294 611.583 648.262 612.31C649.218 612.994 650.258 613.703 651.728 613.973C652.548 614.133 653.49 614.167 654.387 614.027C657.358 613.487 658.752 611.071 658.948 609.435C659.221 607.498 658.122 605.965 656.194 604.834C655.452 604.374 654.576 603.996 653.515 603.806C652.623 603.665 651.692 603.675 650.795 603.815Z" fill="#A9733D"/>
<path d="M665.581 597.865C664.98 596.156 663.724 594.617 662.003 593.386C661.429 592.976 660.794 592.628 659.852 592.594C658.607 592.592 657.229 593.277 656.503 594.072C654.927 595.789 655.031 598.28 655.44 599.853C655.868 601.794 657.147 603.42 659.109 604.681C661.527 606.197 664.564 605.313 665.537 602.774C666.181 601.067 666.125 599.356 665.581 597.865Z" fill="#A9733D"/>
<path d="M668.803 600.385C668.848 600.559 668.882 600.69 668.928 600.865C669.358 601.919 670.152 602.878 671.081 603.756C671.486 604.117 671.964 604.459 672.565 604.676C673.924 605.115 675.891 604.602 676.875 603.6C677.993 602.516 678.28 601.228 678.517 600.047C678.814 598.198 678.347 596.407 677.187 594.936C676.404 594.021 675.329 593.181 673.69 592.862C673.365 592.807 673.039 592.751 672.736 592.784C672.361 592.835 672.081 592.954 671.739 593.137C670.63 593.659 669.904 594.454 669.48 595.217C669.057 595.981 668.874 596.775 668.765 597.549C668.712 598.542 668.564 599.467 668.803 600.385Z" fill="#A9733D"/>
<path d="M652.456 616.768C648.73 617.692 646.892 619.896 647.575 622.517C648.2 624.92 652.188 626.493 655.623 625.645C658.767 624.873 660.694 622.413 660.118 619.904C659.463 617.09 656.329 615.807 652.456 616.768Z" fill="#A9733D"/>
<path d="M684.432 624.152C680.648 630.602 675.628 636.511 669.179 632.726C662.729 628.941 660.569 620.644 664.353 614.194C668.138 607.744 676.434 605.584 682.884 609.369C689.334 613.154 688.217 617.702 684.432 624.152Z" fill="#A9733D"/>
<path d="M582.084 632.114C581.859 632.127 581.575 632.201 581.361 632.256C579.724 632.683 578.254 633.749 577.611 634.782C576.968 635.815 576.961 636.956 577.37 637.943C577.779 638.931 578.664 639.703 579.609 640.414C580.543 641.082 581.559 641.774 582.996 642.038C583.797 642.194 584.717 642.228 585.594 642.091C588.496 641.563 589.857 639.203 590.049 637.604C590.316 635.712 589.242 634.214 587.359 633.11C586.634 632.66 585.778 632.291 584.741 632.105C583.87 631.968 582.96 631.977 582.084 632.114Z" fill="#A9733D"/>
<path d="M596.529 626.302C595.943 624.632 594.715 623.129 593.034 621.926C592.473 621.525 591.853 621.185 590.932 621.152C589.716 621.149 588.37 621.819 587.66 622.596C586.12 624.273 586.222 626.707 586.622 628.243C587.04 630.14 588.29 631.728 590.207 632.961C592.568 634.442 595.536 633.578 596.486 631.098C597.116 629.43 597.061 627.758 596.529 626.302Z" fill="#A9733D"/>
<path d="M599.677 628.763C599.721 628.933 599.755 629.061 599.799 629.232C600.219 630.262 600.995 631.199 601.903 632.057C602.299 632.409 602.766 632.743 603.353 632.955C604.68 633.384 606.602 632.883 607.563 631.904C608.656 630.845 608.936 629.587 609.168 628.433C609.457 626.626 609.002 624.876 607.868 623.44C607.103 622.546 606.053 621.725 604.452 621.413C604.134 621.359 603.816 621.305 603.52 621.337C603.153 621.387 602.879 621.504 602.546 621.682C601.462 622.192 600.753 622.969 600.339 623.715C599.925 624.46 599.747 625.236 599.64 625.993C599.588 626.963 599.444 627.867 599.677 628.763Z" fill="#A9733D"/>
<path d="M583.706 644.77C580.066 645.672 578.27 647.826 578.937 650.386C579.548 652.733 583.444 654.27 586.8 653.442C589.872 652.688 591.754 650.284 591.192 647.833C590.552 645.083 587.49 643.83 583.706 644.77Z" fill="#A9733D"/>
<path d="M614.947 651.983C611.25 658.284 606.346 664.057 600.045 660.36C593.744 656.662 591.633 648.556 595.331 642.255C599.028 635.953 607.133 633.843 613.434 637.54C619.735 641.238 618.645 645.682 614.947 651.983Z" fill="#A9733D"/>
<path d="M572.431 568.802C572.235 568.813 571.987 568.878 571.8 568.927C570.373 569.298 569.09 570.228 568.53 571.129C567.969 572.03 567.963 573.025 568.32 573.886C568.676 574.747 569.448 575.42 570.272 576.04C571.087 576.623 571.973 577.226 573.226 577.456C573.924 577.592 574.727 577.622 575.491 577.502C578.023 577.042 579.21 574.984 579.377 573.59C579.61 571.939 578.674 570.634 577.031 569.67C576.399 569.279 575.652 568.957 574.748 568.795C573.988 568.675 573.195 568.683 572.431 568.802Z" fill="#A9733D"/>
<path d="M585.028 563.733C584.516 562.277 583.446 560.966 581.98 559.918C581.491 559.568 580.95 559.272 580.147 559.243C579.086 559.241 577.913 559.824 577.294 560.502C575.951 561.964 576.04 564.087 576.389 565.427C576.753 567.08 577.843 568.465 579.514 569.54C581.574 570.832 584.161 570.078 584.99 567.916C585.539 566.461 585.491 565.004 585.028 563.733Z" fill="#A9733D"/>
<path d="M587.772 565.88C587.811 566.029 587.84 566.14 587.879 566.289C588.245 567.187 588.922 568.004 589.713 568.752C590.058 569.059 590.466 569.351 590.978 569.535C592.135 569.909 593.811 569.473 594.649 568.619C595.602 567.695 595.847 566.598 596.049 565.592C596.301 564.016 595.904 562.491 594.915 561.238C594.248 560.458 593.332 559.743 591.936 559.471C591.659 559.424 591.381 559.377 591.123 559.404C590.803 559.448 590.565 559.55 590.274 559.705C589.329 560.15 588.71 560.827 588.349 561.478C587.989 562.128 587.833 562.804 587.74 563.464C587.695 564.31 587.569 565.098 587.772 565.88Z" fill="#A9733D"/>
<path d="M573.846 579.838C570.671 580.625 569.105 582.503 569.687 584.736C570.22 586.783 573.618 588.123 576.544 587.401C579.223 586.743 580.864 584.647 580.374 582.509C579.816 580.111 577.146 579.019 573.846 579.838Z" fill="#A9733D"/>
<path d="M601.09 586.129C597.865 591.624 593.589 596.659 588.094 593.434C582.599 590.209 580.759 583.14 583.983 577.645C587.207 572.15 594.276 570.309 599.771 573.534C605.266 576.759 604.314 580.634 601.09 586.129Z" fill="#A9733D"/>
<path d="M523.778 600.694C523.59 600.705 523.353 600.767 523.175 600.813C521.811 601.169 520.585 602.057 520.05 602.918C519.514 603.779 519.508 604.73 519.849 605.553C520.19 606.376 520.927 607.019 521.715 607.611C522.493 608.168 523.34 608.745 524.538 608.965C525.205 609.095 525.972 609.123 526.702 609.009C529.121 608.569 530.256 606.602 530.416 605.27C530.639 603.693 529.744 602.445 528.174 601.524C527.57 601.15 526.856 600.842 525.993 600.687C525.266 600.573 524.508 600.58 523.778 600.694Z" fill="#A9733D"/>
<path d="M535.815 595.85C535.326 594.459 534.303 593.206 532.902 592.204C532.435 591.87 531.918 591.587 531.151 591.559C530.137 591.557 529.015 592.115 528.424 592.762C527.141 594.16 527.226 596.188 527.559 597.469C527.907 599.049 528.949 600.373 530.546 601.4C532.514 602.634 534.987 601.914 535.779 599.847C536.304 598.457 536.258 597.064 535.815 595.85Z" fill="#A9733D"/>
<path d="M538.439 597.901C538.476 598.043 538.504 598.15 538.541 598.292C538.891 599.151 539.538 599.931 540.294 600.646C540.624 600.94 541.013 601.218 541.502 601.395C542.609 601.752 544.21 601.335 545.011 600.519C545.921 599.636 546.155 598.588 546.348 597.626C546.589 596.121 546.21 594.662 545.265 593.465C544.627 592.72 543.753 592.036 542.418 591.776C542.153 591.731 541.888 591.687 541.641 591.713C541.336 591.754 541.108 591.852 540.829 592C539.927 592.425 539.335 593.073 538.99 593.694C538.645 594.316 538.497 594.962 538.408 595.593C538.365 596.401 538.244 597.154 538.439 597.901Z" fill="#A9733D"/>
<path d="M525.129 611.241C522.095 611.993 520.598 613.788 521.154 615.922C521.663 617.878 524.91 619.159 527.708 618.469C530.267 617.84 531.836 615.837 531.368 613.794C530.834 611.502 528.282 610.458 525.129 611.241Z" fill="#A9733D"/>
<path d="M551.165 617.253C548.083 622.505 543.996 627.316 538.745 624.234C533.493 621.152 531.735 614.397 534.816 609.145C537.897 603.894 544.653 602.135 549.904 605.217C555.155 608.298 554.246 612.002 551.165 617.253Z" fill="#A9733D"/>
<path d="M456.388 568.709C456.213 568.719 455.99 568.777 455.823 568.821C454.544 569.154 453.394 569.987 452.892 570.795C452.389 571.602 452.384 572.494 452.704 573.265C453.023 574.037 453.715 574.64 454.454 575.196C455.184 575.718 455.978 576.259 457.101 576.465C457.727 576.587 458.446 576.614 459.131 576.506C461.4 576.094 462.464 574.25 462.614 573C462.823 571.521 461.983 570.35 460.511 569.487C459.945 569.136 459.275 568.847 458.465 568.702C457.784 568.595 457.073 568.602 456.388 568.709Z" fill="#A9733D"/>
<path d="M467.678 564.167C467.22 562.862 466.26 561.687 464.947 560.747C464.509 560.433 464.024 560.168 463.304 560.142C462.353 560.14 461.301 560.663 460.747 561.271C459.543 562.581 459.623 564.484 459.936 565.684C460.262 567.166 461.239 568.408 462.737 569.371C464.583 570.529 466.902 569.853 467.645 567.915C468.137 566.611 468.094 565.305 467.678 564.167Z" fill="#A9733D"/>
<path d="M470.137 566.09C470.172 566.224 470.198 566.324 470.233 566.457C470.561 567.262 471.168 567.994 471.877 568.665C472.186 568.94 472.551 569.201 473.01 569.367C474.048 569.702 475.55 569.311 476.301 568.545C477.155 567.718 477.374 566.735 477.555 565.833C477.781 564.42 477.425 563.053 476.539 561.93C475.941 561.231 475.121 560.59 473.869 560.346C473.621 560.304 473.372 560.262 473.141 560.287C472.854 560.326 472.64 560.417 472.379 560.556C471.533 560.955 470.978 561.562 470.655 562.145C470.331 562.728 470.192 563.334 470.108 563.925C470.068 564.684 469.955 565.39 470.137 566.09Z" fill="#A9733D"/>
<path d="M457.655 578.6C454.81 579.306 453.406 580.989 453.927 582.99C454.405 584.824 457.45 586.026 460.074 585.378C462.474 584.789 463.945 582.91 463.506 580.994C463.006 578.845 460.612 577.866 457.655 578.6Z" fill="#A9733D"/>
<path d="M482.074 584.239C479.184 589.164 475.351 593.676 470.427 590.786C465.502 587.896 463.852 581.56 466.742 576.635C469.632 571.71 475.967 570.06 480.892 572.95C485.817 575.84 484.964 579.314 482.074 584.239Z" fill="#A9733D"/>
<path d="M501.929 532.382C501.754 532.392 501.531 532.45 501.364 532.494C500.085 532.827 498.935 533.66 498.433 534.468C497.93 535.275 497.925 536.167 498.245 536.939C498.564 537.71 499.256 538.313 499.995 538.869C500.725 539.391 501.519 539.932 502.642 540.138C503.268 540.26 503.987 540.287 504.672 540.18C506.941 539.767 508.005 537.923 508.155 536.673C508.364 535.194 507.524 534.024 506.052 533.16C505.486 532.809 504.816 532.521 504.006 532.375C503.325 532.268 502.614 532.275 501.929 532.382Z" fill="#A9733D"/>
<path d="M513.219 527.839C512.761 526.534 511.802 525.359 510.488 524.419C510.05 524.106 509.565 523.84 508.845 523.814C507.894 523.812 506.842 524.335 506.288 524.943C505.084 526.253 505.164 528.156 505.477 529.356C505.803 530.838 506.78 532.08 508.278 533.043C510.124 534.201 512.443 533.526 513.186 531.587C513.678 530.284 513.635 528.977 513.219 527.839Z" fill="#A9733D"/>
<path d="M515.68 529.763C515.715 529.896 515.741 529.996 515.776 530.13C516.104 530.935 516.711 531.667 517.42 532.337C517.729 532.613 518.094 532.874 518.553 533.039C519.591 533.374 521.093 532.983 521.844 532.218C522.698 531.39 522.917 530.407 523.098 529.505C523.324 528.093 522.968 526.726 522.082 525.603C521.484 524.904 520.664 524.263 519.412 524.019C519.164 523.977 518.915 523.935 518.684 523.959C518.397 523.998 518.183 524.09 517.922 524.229C517.076 524.627 516.521 525.235 516.198 525.818C515.874 526.4 515.735 527.006 515.651 527.598C515.611 528.356 515.498 529.062 515.68 529.763Z" fill="#A9733D"/>
<path d="M503.198 542.273C500.352 542.978 498.949 544.661 499.47 546.662C499.948 548.497 502.993 549.698 505.617 549.051C508.017 548.461 509.488 546.582 509.049 544.667C508.549 542.518 506.155 541.538 503.198 542.273Z" fill="#A9733D"/>
<path d="M527.615 547.911C524.725 552.836 520.892 557.348 515.968 554.458C511.043 551.568 509.393 545.233 512.283 540.308C515.173 535.382 521.508 533.733 526.433 536.623C531.358 539.513 530.505 542.986 527.615 547.911Z" fill="#A9733D"/>
<path d="M425.959 516.429C425.804 516.438 425.608 516.489 425.461 516.527C424.335 516.82 423.324 517.554 422.882 518.265C422.44 518.975 422.435 519.76 422.716 520.439C422.997 521.118 423.606 521.649 424.256 522.138C424.899 522.597 425.598 523.073 426.586 523.255C427.136 523.362 427.77 523.385 428.373 523.291C430.369 522.928 431.306 521.305 431.437 520.205C431.621 518.904 430.883 517.874 429.587 517.114C429.088 516.805 428.499 516.551 427.787 516.423C427.187 516.329 426.561 516.335 425.959 516.429Z" fill="#A9733D"/>
<path d="M435.896 512.432C435.492 511.283 434.648 510.25 433.492 509.422C433.106 509.147 432.68 508.913 432.046 508.89C431.209 508.889 430.284 509.349 429.796 509.883C428.737 511.037 428.807 512.711 429.082 513.768C429.369 515.072 430.229 516.164 431.547 517.012C433.172 518.031 435.212 517.436 435.866 515.731C436.299 514.584 436.261 513.434 435.896 512.432Z" fill="#A9733D"/>
<path d="M438.06 514.124C438.091 514.241 438.114 514.329 438.144 514.447C438.433 515.155 438.967 515.8 439.591 516.389C439.863 516.632 440.184 516.862 440.588 517.007C441.501 517.302 442.823 516.958 443.484 516.284C444.235 515.556 444.428 514.691 444.588 513.897C444.787 512.654 444.473 511.451 443.693 510.463C443.167 509.848 442.445 509.284 441.344 509.069C441.125 509.032 440.907 508.995 440.703 509.017C440.451 509.051 440.263 509.131 440.033 509.254C439.288 509.605 438.8 510.139 438.515 510.652C438.231 511.165 438.108 511.698 438.034 512.219C437.999 512.886 437.9 513.508 438.06 514.124Z" fill="#A9733D"/>
<path d="M427.076 525.134C424.571 525.755 423.337 527.236 423.795 528.997C424.215 530.611 426.895 531.669 429.204 531.099C431.317 530.58 432.611 528.927 432.225 527.241C431.784 525.35 429.678 524.488 427.076 525.134Z" fill="#A9733D"/>
<path d="M448.563 530.095C446.019 534.429 442.646 538.4 438.312 535.857C433.978 533.313 432.527 527.738 435.07 523.404C437.613 519.07 443.188 517.618 447.522 520.161C451.856 522.705 451.106 525.761 448.563 530.095Z" fill="#A9733D"/>
<path d="M370.696 509.998C370.577 510.004 370.426 510.044 370.312 510.073C369.443 510.3 368.662 510.866 368.32 511.415C367.979 511.964 367.975 512.57 368.192 513.095C368.409 513.619 368.88 514.029 369.382 514.407C369.878 514.762 370.418 515.129 371.181 515.269C371.606 515.352 372.095 515.37 372.561 515.297C374.103 515.017 374.826 513.763 374.928 512.914C375.07 511.909 374.499 511.113 373.499 510.527C373.114 510.288 372.659 510.092 372.108 509.993C371.645 509.92 371.162 509.925 370.696 509.998Z" fill="#A9733D"/>
<path d="M378.37 506.91C378.059 506.023 377.407 505.224 376.514 504.585C376.216 504.372 375.886 504.192 375.397 504.174C374.751 504.173 374.036 504.529 373.659 504.941C372.841 505.832 372.895 507.125 373.108 507.941C373.33 508.949 373.993 509.792 375.012 510.447C376.266 511.234 377.843 510.775 378.347 509.457C378.682 508.572 378.653 507.684 378.37 506.91Z" fill="#A9733D"/>
<path d="M380.042 508.218C380.066 508.308 380.084 508.376 380.107 508.467C380.33 509.014 380.743 509.512 381.225 509.967C381.435 510.154 381.683 510.332 381.995 510.444C382.7 510.672 383.721 510.406 384.232 509.886C384.812 509.324 384.961 508.655 385.084 508.042C385.238 507.083 384.996 506.153 384.393 505.39C383.987 504.915 383.429 504.479 382.579 504.313C382.41 504.285 382.241 504.256 382.084 504.273C381.889 504.3 381.743 504.362 381.566 504.456C380.991 504.727 380.614 505.14 380.394 505.536C380.174 505.932 380.079 506.344 380.023 506.746C379.995 507.262 379.918 507.741 380.042 508.218Z" fill="#A9733D"/>
<path d="M371.558 516.72C369.624 517.199 368.67 518.343 369.025 519.703C369.349 520.95 371.419 521.767 373.202 521.327C374.834 520.926 375.834 519.649 375.535 518.347C375.195 516.886 373.568 516.221 371.558 516.72Z" fill="#A9733D"/>
<path d="M388.154 520.552C386.19 523.9 383.585 526.966 380.238 525.002C376.891 523.038 375.769 518.732 377.734 515.384C379.698 512.037 384.004 510.916 387.351 512.88C390.698 514.844 390.119 517.205 388.154 520.552Z" fill="#A9733D"/>
<path d="M403.591 545.429C403.448 545.437 403.266 545.484 403.13 545.52C402.087 545.792 401.15 546.471 400.74 547.13C400.33 547.788 400.326 548.515 400.586 549.144C400.847 549.773 401.411 550.265 402.013 550.718C402.609 551.144 403.256 551.585 404.172 551.753C404.682 551.853 405.269 551.874 405.827 551.787C407.677 551.45 408.545 549.947 408.667 548.928C408.837 547.722 408.153 546.767 406.953 546.064C406.491 545.777 405.945 545.542 405.285 545.423C404.729 545.336 404.149 545.342 403.591 545.429Z" fill="#A9733D"/>
<path d="M412.798 541.725C412.424 540.661 411.642 539.703 410.571 538.937C410.213 538.682 409.818 538.465 409.231 538.444C408.456 538.442 407.598 538.869 407.146 539.364C406.165 540.433 406.23 541.984 406.485 542.963C406.751 544.171 407.547 545.184 408.769 545.969C410.274 546.913 412.165 546.362 412.77 544.782C413.172 543.719 413.137 542.654 412.798 541.725Z" fill="#A9733D"/>
<path d="M414.802 543.294C414.831 543.402 414.852 543.484 414.88 543.593C415.148 544.249 415.642 544.846 416.221 545.392C416.473 545.617 416.77 545.83 417.145 545.965C417.991 546.238 419.215 545.919 419.828 545.295C420.524 544.62 420.703 543.819 420.85 543.083C421.035 541.932 420.744 540.817 420.022 539.902C419.534 539.332 418.865 538.809 417.845 538.61C417.642 538.576 417.44 538.541 417.251 538.561C417.017 538.593 416.843 538.668 416.63 538.781C415.94 539.106 415.488 539.601 415.224 540.077C414.96 540.552 414.847 541.046 414.779 541.528C414.746 542.147 414.654 542.722 414.802 543.294Z" fill="#A9733D"/>
<path d="M404.625 553.494C402.305 554.069 401.161 555.442 401.586 557.073C401.975 558.569 404.458 559.549 406.597 559.021C408.555 558.54 409.754 557.008 409.396 555.446C408.988 553.694 407.036 552.895 404.625 553.494Z" fill="#A9733D"/>
<path d="M424.535 558.091C422.178 562.107 419.053 565.786 415.038 563.43C411.022 561.073 409.677 555.907 412.033 551.892C414.39 547.876 419.555 546.531 423.571 548.887C427.586 551.244 426.891 554.076 424.535 558.091Z" fill="#A9733D"/>
<path d="M351.628 533.331C351.528 533.337 351.401 533.37 351.306 533.395C350.576 533.585 349.92 534.061 349.633 534.521C349.346 534.982 349.343 535.491 349.526 535.932C349.708 536.372 350.103 536.716 350.525 537.033C350.941 537.331 351.394 537.64 352.035 537.758C352.392 537.827 352.803 537.842 353.194 537.781C354.489 537.546 355.096 536.493 355.181 535.78C355.301 534.936 354.822 534.268 353.981 533.775C353.658 533.575 353.276 533.41 352.814 533.327C352.425 533.266 352.019 533.27 351.628 533.331Z" fill="#A9733D"/>
<path d="M358.074 530.739C357.812 529.994 357.265 529.324 356.515 528.787C356.265 528.608 355.988 528.457 355.577 528.442C355.035 528.441 354.435 528.739 354.118 529.086C353.431 529.834 353.477 530.92 353.655 531.605C353.841 532.451 354.399 533.159 355.254 533.709C356.307 534.369 357.631 533.984 358.055 532.878C358.335 532.134 358.311 531.388 358.074 530.739Z" fill="#A9733D"/>
<path d="M359.477 531.836C359.497 531.913 359.511 531.97 359.531 532.046C359.719 532.505 360.065 532.923 360.47 533.306C360.646 533.463 360.854 533.612 361.116 533.706C361.708 533.898 362.566 533.674 362.994 533.238C363.481 532.765 363.607 532.204 363.71 531.689C363.839 530.883 363.636 530.103 363.13 529.462C362.789 529.064 362.321 528.698 361.606 528.558C361.465 528.534 361.323 528.51 361.191 528.524C361.027 528.547 360.905 528.599 360.756 528.678C360.273 528.906 359.957 529.252 359.772 529.585C359.587 529.918 359.508 530.263 359.46 530.601C359.437 531.034 359.373 531.437 359.477 531.836Z" fill="#A9733D"/>
<path d="M352.352 538.976C350.728 539.379 349.928 540.339 350.225 541.481C350.498 542.528 352.235 543.214 353.732 542.844C355.103 542.508 355.942 541.436 355.691 540.342C355.406 539.116 354.04 538.557 352.352 538.976Z" fill="#A9733D"/>
<path d="M366.288 542.194C364.639 545.004 362.451 547.579 359.641 545.93C356.83 544.281 355.889 540.665 357.538 537.854C359.187 535.044 362.803 534.102 365.613 535.752C368.424 537.401 367.937 539.383 366.288 542.194Z" fill="#A9733D"/>
</g>
</g>
<g opacity="0.3">
<path fill-rule="evenodd" clip-rule="evenodd" d="M1787.37 920.92L1575 934H1999.74L1787.37 920.92Z" fill="#0062AF"/>
<path fill-rule="evenodd" clip-rule="evenodd" d="M1871.02 852.871C1877.55 853.785 1883.85 855.891 1889.62 859.083C1888.91 857.279 1888.19 855.45 1887.47 853.682C1898.55 862.39 1905.39 873.059 1907.14 886.09L1909.03 872.308C1912.17 889.13 1909.9 903.094 1897.98 912.007L1901.86 911.596C1883.34 937.706 1832.26 938.36 1814.5 906.691C1817.28 913.473 1818.52 923.379 1813.61 926.976L1734.62 930.101L1704.96 929.289H1668.3C1664.23 929.289 1662.61 923.5 1666.4 919.843L1682.86 908.774C1687.25 890.45 1687.14 864.533 1677.11 849.334C1692.29 861.251 1692.63 893.308 1689.82 910.118C1688.29 915.737 1682.8 920.4 1677.19 923.622C1683.24 921.293 1688.54 917.373 1692.55 912.274C1695.91 879.962 1692.55 854.857 1672.94 842.031C1673.08 843.909 1673.21 845.786 1673.35 847.663C1667.7 843.848 1662.85 835.395 1661.08 827.45C1661.37 830.587 1661.66 833.736 1661.97 836.872C1656.38 829.027 1653.01 819.826 1652.18 810.229C1651.72 812.966 1651.27 815.703 1650.83 818.44C1648.48 809.737 1647.53 800.714 1648.03 791.711L1646.14 802.49C1642.02 785.547 1649.52 768.725 1657.99 751.879C1667.79 739.986 1672.5 728.651 1652.87 720.004C1643.9 718.393 1640.43 714.166 1640.96 707.202H1645.8L1641.59 702.358C1640.18 698.023 1640.38 689.787 1642.27 689.291L1669.03 695.346C1676.84 690.336 1685.97 687.757 1695.25 687.934L1690.55 684.834V680.789L1683.15 677.289C1693.86 673.656 1700.27 677.144 1703.45 686.045C1709.45 682.549 1713.84 676.534 1716.63 668C1722.53 677.858 1722.2 700.99 1722.24 723.334C1723.45 724.663 1724.98 725.667 1726.68 726.253C1725.04 726.403 1723.38 726.149 1721.85 725.514C1723.11 730.468 1725.46 735.077 1728.73 739.005L1723.54 737.722C1724.92 744.661 1728.53 750.983 1733.85 756.844L1728.46 753.998C1730.47 759.897 1734.18 765.071 1739.11 768.87C1792.77 802.09 1812.63 839.537 1820.25 878.509C1827.2 900.078 1874.93 909.028 1876.13 880.277C1873.49 875.699 1870.84 871.121 1868.2 866.544L1876.93 869.632C1875.81 863.758 1873.77 858.097 1870.88 852.858" fill="#0062AF"/>
<path fill-rule="evenodd" clip-rule="evenodd" d="M1756.23 879.563C1727.88 887.628 1731.47 907.018 1748.45 926.395C1724.94 910.869 1721.73 881.73 1756.23 879.563ZM1784.54 883.462C1787.18 897.717 1784.54 911.971 1778.09 926.225C1802.62 924.518 1809.12 902.343 1784.54 883.462ZM1706.93 930.694C1706.93 923.525 1708.31 922.156 1712.53 916.27C1713.12 900.744 1708.42 886.926 1702.02 873.665C1696.22 861.639 1703.77 842.104 1702.36 827.498C1703.44 827.143 1704.43 826.568 1705.27 825.81C1706.12 825.051 1706.8 824.125 1707.27 823.09C1698.07 825.064 1690.79 823.017 1688.81 809.853C1688.07 807.177 1688.12 805.348 1690.84 804.246L1697.44 802.381C1698.03 799.305 1699.48 794.993 1703.48 793.152L1707.97 792.474C1707.66 789.215 1707.98 785.927 1708.9 782.786C1711.79 784.228 1714.07 786.66 1715.32 789.64H1717.35C1717.36 786.106 1718.58 782.683 1720.82 779.952C1730.15 792.389 1737.92 807.346 1741.37 829.291L1773.69 861.736C1775.49 857.787 1778.59 854.571 1782.46 852.616C1791.57 848.486 1793.92 858.974 1788.63 860.403C1783.64 862.498 1781.25 867.549 1784.57 870.988C1806.56 884.395 1822.16 914.49 1797 930.585L1706.93 930.694Z" fill="white"/>
</g>
<defs>
<linearGradient id="paint0_linear_153_313" x1="960" y1="179.984" x2="960" y2="934" gradientUnits="userSpaceOnUse">
<stop stop-color="#F7FCFF" stop-opacity="0"/>
<stop offset="1" stop-color="#EFF7FF"/>
</linearGradient>
</defs>
</svg>
