<svg width="101" height="100" viewBox="0 0 101 100" fill="none" xmlns="http://www.w3.org/2000/svg">
<circle opacity="0.06" cx="50.998" cy="50.0005" r="50" fill="#CA0000"/>
<path opacity="0.06" d="M51 99.999C57.5661 99.999 64.0679 98.7057 70.1342 96.193C76.2004 93.6803 81.7124 89.9973 86.3553 85.3544C90.9983 80.7114 94.6812 75.1995 97.194 69.1332C99.7067 63.0669 101 56.5651 101 49.999C101 43.4329 99.7067 36.9311 97.194 30.8648C94.6812 24.7986 90.9983 19.2866 86.3553 14.6437C81.7124 10.0008 76.2004 6.31778 70.1342 3.80504C64.0679 1.29231 57.5661 -0.000979035 51 -0.000978748L51 49.999L51 99.999Z" fill="#CA0000"/>
<path fill-rule="evenodd" clip-rule="evenodd" d="M50.5581 27.4047C49.8163 28.2096 49.14 29.4152 48.783 30.5692C48.5261 31.3992 48.5636 32.7881 48.8677 33.7155C49.0955 34.4102 49.7862 35.6542 50.2871 36.2718L50.5211 36.5603L50.5285 34.9538C50.5337 33.8185 50.592 32.9651 50.7271 32.0443C50.9923 30.2382 51.0048 30.2382 51.27 32.0443C51.4053 32.9658 51.4634 33.8184 51.4687 34.9565C51.4771 36.7803 51.4139 36.7176 52.1603 35.6432C53.0213 34.4035 53.3856 33.3005 53.3791 31.9517C53.3752 31.1322 53.3375 30.9005 53.0955 30.2122C52.942 29.7755 52.6204 29.0939 52.3808 28.6976C51.9582 27.9984 51.1476 26.9998 51.0028 26.9998C50.9635 26.9998 50.7635 27.182 50.5581 27.4047ZM41.1358 33.7124C41.0261 34.7373 41.1214 35.7148 41.3878 36.2962C41.7977 37.1906 42.7367 38.0145 43.8127 38.4235C44.0388 38.5096 44.0292 38.479 43.5999 37.7496C43.1459 36.9782 42.3971 35.3011 42.4728 35.2254C42.5833 35.1149 43.8639 36.8832 44.3404 37.804L44.55 38.2092L44.6278 37.804C44.735 37.2467 44.633 36.1702 44.4201 35.6118C44.0449 34.6271 43.1856 33.824 41.986 33.3365C41.2203 33.0254 41.2088 33.0304 41.1358 33.7124ZM59.9357 33.3732C58.7106 33.9058 57.8165 34.7984 57.5196 35.7851C57.3437 36.3695 57.2736 37.309 57.369 37.804L57.4471 38.2092L57.6568 37.804C57.9948 37.1508 58.7867 35.9857 59.1885 35.5507C59.5026 35.2106 59.5514 35.183 59.5024 35.3731C59.3865 35.822 58.7584 37.1684 58.3538 37.8346C57.9521 38.4964 57.947 38.5138 58.1806 38.4251C59.2414 38.0217 60.1987 37.1926 60.5898 36.3384C60.8713 35.7234 60.9836 34.87 60.8945 34.0225C60.8555 33.6511 60.8211 33.2967 60.818 33.2347C60.8095 33.064 60.555 33.1039 59.9357 33.3732ZM32.8114 38.171C32.0336 38.2199 31.6001 38.2807 31.1719 38.4009C31.0316 38.4403 31.0385 38.5009 31.2506 39.0919C32.4462 42.4226 34.6005 43.9585 37.8703 43.8113C38.4492 43.7851 38.9706 43.7342 39.0292 43.698C39.0941 43.6579 38.859 43.4865 38.427 43.259C37.5939 42.8202 36.3186 42.0008 35.5581 41.416C34.8188 40.8476 34.0839 40.1866 34.2698 40.2575C34.3539 40.2895 34.7328 40.4258 35.1118 40.5604C36.0262 40.885 38.0942 41.9011 38.9208 42.4317C39.285 42.6656 39.5967 42.8434 39.6134 42.8266C39.6301 42.81 39.4638 42.4177 39.2439 41.9549C38.2734 39.9128 37.017 38.7728 35.2726 38.3517C34.3929 38.1393 33.8963 38.1028 32.8114 38.171ZM66.6197 38.3765C65.2504 38.7549 64.2485 39.5086 63.3802 40.8135C62.9557 41.4516 62.2766 42.846 62.3904 42.846C62.4107 42.846 62.7119 42.662 63.0595 42.437C63.8508 41.9253 65.9725 40.8844 66.8853 40.5604C67.2644 40.4258 67.6432 40.2907 67.7273 40.2601C67.8114 40.2295 67.5358 40.4989 67.1149 40.8587C66.2278 41.6172 64.5889 42.7281 63.5721 43.2603C62.7251 43.7037 62.7653 43.7395 64.1887 43.8097C67.3793 43.9674 69.5595 42.3989 70.7465 39.0919C70.9588 38.5005 70.9656 38.4401 70.8252 38.3991C69.7879 38.0965 67.6744 38.0852 66.6197 38.3765ZM50.4661 41.3221C49.358 41.5423 48.5411 42.571 48.5411 43.7463C48.5411 45.1627 49.586 46.2104 50.9986 46.2104C52.4111 46.2104 53.456 45.1627 53.456 43.7463C53.456 42.1606 52.0368 41.0101 50.4661 41.3221ZM58.8367 43.8487C56.6837 44.2057 54.2767 45.6304 51.8732 47.9705C51.2102 48.616 50.9615 48.8067 50.8682 48.7408C50.8 48.6927 50.3659 48.3469 49.9035 47.9723C46.7947 45.4544 43.9141 43.9842 41.86 43.8673L41.0496 43.8211L41.4548 44.0701C45.4977 46.5552 48.7828 52.5207 50.7218 60.8981C50.9973 62.0883 50.9985 62.0876 51.1832 60.673C51.5929 57.5358 52.7458 53.8929 54.1752 51.2193C55.7782 48.221 57.7537 45.9558 60.1615 44.3554L60.906 43.8605L60.5666 43.8044C60.1204 43.7307 59.4439 43.748 58.8367 43.8487ZM33.5985 48.6342C33.0314 48.8331 31.8828 49.5324 31.637 49.8284C31.5526 49.9302 31.5538 49.9889 31.6426 50.0957C31.8637 50.3622 33.075 51.1127 33.5477 51.2761C34.2018 51.5022 35.3186 51.5009 35.9176 51.2734C36.3228 51.1195 37.5833 50.3737 37.5833 50.2879C37.5833 50.2687 37.1073 50.2493 36.5254 50.2447C35.9435 50.2401 35.1838 50.195 34.8372 50.1444C34.4906 50.0938 34.1564 50.0516 34.0944 50.0506C34.0326 50.0496 33.9819 50.013 33.9819 49.9691C33.9819 49.8413 35.3524 49.6768 36.5129 49.6654C37.1016 49.6596 37.5833 49.6414 37.5833 49.6249C37.5833 49.5509 36.3269 48.8021 35.9626 48.6589C35.2867 48.3933 34.3146 48.3832 33.5985 48.6342ZM66.6197 48.4819C66.118 48.6054 65.5695 48.8535 65.0216 49.2051C64.6874 49.4196 64.4138 49.6106 64.4138 49.6297C64.4138 49.6489 64.8899 49.6682 65.4718 49.6728C66.0536 49.6774 66.8133 49.7226 67.1599 49.7732C67.5066 49.8238 67.8409 49.866 67.9027 49.867C67.9647 49.8679 68.0153 49.9046 68.0153 49.9484C68.0153 50.0763 66.6447 50.2408 65.4842 50.2522C64.8955 50.258 64.4138 50.2762 64.4138 50.2926C64.4138 50.3748 65.6868 51.1242 66.0795 51.2734C66.7249 51.5186 67.8862 51.4978 68.5762 51.2287C69.188 50.9902 70.4012 50.146 70.4012 49.9588C70.4012 49.7681 69.1793 48.9228 68.5762 48.6961C68.0786 48.5092 66.9924 48.3903 66.6197 48.4819ZM35.9213 56.2164C35.0186 56.4044 33.9427 56.9506 33.296 57.5494C32.4491 58.3335 31.6632 59.597 31.2295 60.8716C31.0421 61.4225 31.0373 61.4793 31.1749 61.5193C32.1612 61.8066 34.2368 61.8362 35.2343 61.577C37.0622 61.1024 38.2686 60.0149 39.2439 57.9627C39.4638 57.4999 39.6301 57.1076 39.6134 57.0909C39.5967 57.0742 39.285 57.2519 38.9208 57.4858C38.0942 58.0165 36.0262 59.0326 35.1118 59.3571C34.7328 59.4917 34.3539 59.6281 34.2698 59.6601C34.0838 59.7311 34.8192 59.0697 35.5581 58.5016C36.3388 57.9013 37.6102 57.0835 38.427 56.6561C38.8823 56.4178 39.0958 56.2607 39.0242 56.2164C38.8044 56.0807 36.5737 56.0807 35.9213 56.2164ZM63.5135 56.1412C62.8003 56.2535 62.8003 56.2533 63.5603 56.6535C64.402 57.0968 65.6754 57.9142 66.439 58.5015C66.9795 58.9172 67.8682 59.6826 67.8104 59.6826C67.7614 59.6826 66.3855 59.1715 65.9895 59.0061C65.2861 58.7124 63.6395 57.8526 63.038 57.465C62.7022 57.2487 62.4107 57.0716 62.3904 57.0716C62.2766 57.0716 62.9557 58.466 63.3802 59.104C64.2616 60.4286 65.3384 61.2237 66.7237 61.5726C67.7701 61.8364 69.8288 61.8092 70.8252 61.5184C70.9656 61.4775 70.9588 61.4171 70.7465 60.8257C69.6059 57.6482 67.4981 56.0466 64.5185 56.0934C64.0895 56.1002 63.6373 56.1217 63.5135 56.1412ZM43.3595 61.7078C41.6739 62.5156 40.8986 63.9541 41.1026 65.8951C41.1417 66.2665 41.1761 66.6261 41.1791 66.6941C41.187 66.8696 41.5869 66.7745 42.2969 66.4283C43.3956 65.8926 44.2085 65.0402 44.4744 64.1449C44.6539 63.5406 44.7241 62.6117 44.6281 62.1136L44.55 61.7084L44.343 62.1071C43.7731 63.2042 42.3485 65.0875 42.4991 64.5445C42.6436 64.0241 43.2153 62.7798 43.6168 62.1116C43.8543 61.7165 44.0412 61.3933 44.0322 61.3933C44.0232 61.3933 43.7205 61.5348 43.3595 61.7078ZM58.3817 62.1417C58.8096 62.8685 59.3855 64.1049 59.5012 64.5445C59.6421 65.0803 58.2395 63.2334 57.6549 62.1136L57.4434 61.7084L57.3591 62.2456C57.2505 62.9378 57.4054 63.9779 57.7103 64.604C57.9878 65.1738 58.4952 65.7079 59.1784 66.1494C59.6926 66.4818 60.6738 66.874 60.7644 66.7834C60.8742 66.6737 60.9613 65.1651 60.8887 64.6335C60.697 63.2318 59.6947 62.0682 58.1845 61.494C57.957 61.4075 57.9651 61.4337 58.3817 62.1417ZM50.1685 63.8026C49.6186 64.5237 49.1154 65.454 48.8662 66.2102C48.5636 67.1285 48.5266 68.52 48.783 69.3484C49.1483 70.5295 49.831 71.7333 50.6041 72.5598L51.0157 72.9998L51.4869 72.4594C52.1419 71.7083 52.7651 70.6436 53.0988 69.7054C53.3526 68.9917 53.3807 68.8109 53.3752 67.9209C53.3702 67.1023 53.3276 66.8041 53.1299 66.2021C52.8934 65.4825 52.1849 64.2192 51.6881 63.6317L51.4324 63.329L51.4788 64.0944C51.561 65.4459 51.2104 69.2264 51.0029 69.2264C50.7881 69.2264 50.4344 65.4126 50.5256 64.0814C50.5523 63.6923 50.5564 63.3741 50.5347 63.3741C50.5131 63.3741 50.3482 63.5669 50.1685 63.8026Z" fill="#295889"/>
</svg>
