<svg width="100" height="100" viewBox="0 0 100 100" fill="none" xmlns="http://www.w3.org/2000/svg">
<circle opacity="0.06" cx="50.001" cy="50.0002" r="50" fill="#CA0000"/>
<path opacity="0.06" d="M50 100C56.5661 100 63.0679 98.7067 69.1342 96.194C75.2004 93.6812 80.7124 89.9983 85.3553 85.3553C89.9983 80.7124 93.6812 75.2004 96.194 69.1342C98.7067 63.0679 100 56.5661 100 50C100 43.4339 98.7067 36.9321 96.194 30.8658C93.6812 24.7995 89.9983 19.2876 85.3553 14.6447C80.7124 10.0017 75.2004 6.31876 69.1342 3.80602C63.0679 1.29329 56.5661 -2.47258e-06 50 -2.18557e-06L50 50L50 100Z" fill="#CA0000"/>
<g clip-path="url(#clip0_164_374)">
<path fill-rule="evenodd" clip-rule="evenodd" d="M62.1026 28.3693C60.4268 30.0452 60.4253 30.05 61.3274 30.9894L61.9215 31.608L59.9857 33.5455C58.921 34.6111 58.05 35.5273 58.05 35.5816C58.05 35.7051 58.9343 36.5833 59.0586 36.5833C59.1091 36.5833 60.0242 35.7103 61.0921 34.6433L63.0339 32.7032L65.1653 34.8347L67.2968 36.9661L65.3337 38.9309L63.3707 40.8956L63.9208 41.4458L64.471 41.996L66.4315 40.0373L68.3919 38.0785L69.0106 38.6726C69.95 39.5747 69.9548 39.5732 71.6307 37.8974C72.8633 36.6648 73 36.4951 73 36.1975C73 35.8892 72.7004 35.5673 68.5666 31.4334C64.4327 27.2996 64.1108 27 63.8025 27C63.5049 27 63.3352 27.1367 62.1026 28.3693ZM52.1359 35.2693C50.4601 36.9452 50.4587 36.95 51.3608 37.8894L51.9549 38.5082L43.4588 47.0093C36.8747 53.5973 34.9191 55.6075 34.7688 55.9417C34.4877 56.5673 34.5075 57.3103 34.8222 57.9418L35.0736 58.4464L34.1035 59.4322C32.8799 60.6755 32.8658 60.7588 33.7258 61.6544L34.3181 62.2713L32.9591 63.6421C31.3646 65.2501 31.3315 65.3338 32.0001 66.0592L32.4002 66.4932L29.7001 69.1994C27.1833 71.7219 27 71.9287 27 72.2444C27 72.6842 27.3214 73 27.769 73C28.0672 73 28.3203 72.7745 30.8006 70.2999L33.5068 67.5998L33.9408 67.9999C34.6662 68.6685 34.7499 68.6354 36.3579 67.0409L37.7287 65.6819L38.3456 66.2742C39.2412 67.1342 39.3245 67.1201 40.5678 65.8965L41.5536 64.9264L42.0582 65.1778C42.6897 65.4925 43.4327 65.5123 44.0583 65.2312C44.3925 65.0809 46.4027 63.1253 52.9907 56.5412L61.4918 48.0451L62.1106 48.6392C63.05 49.5413 63.0548 49.5399 64.7307 47.8641C65.9638 46.631 66.1 46.4618 66.1 46.1639C66.1 45.854 65.721 45.454 60.1335 39.8665C54.546 34.279 54.146 33.9 53.8361 33.9C53.5382 33.9 53.369 34.0362 52.1359 35.2693ZM56.7563 43.2918L60.3972 46.9336L51.9166 55.4147C43.9064 63.4252 43.4172 63.8958 43.1007 63.8958C42.7882 63.8958 42.5418 63.6721 39.4349 60.5661C36.3253 57.4575 36.1042 57.2141 36.1042 56.9007C36.1042 56.5834 36.5679 56.1012 44.5613 48.1075C49.2126 43.4558 53.0402 39.65 53.067 39.65C53.0937 39.65 54.7539 41.2888 56.7563 43.2918ZM42.786 51.9885C40.421 54.3473 38.4209 56.4003 38.3414 56.551C38.2532 56.7181 38.2215 56.9228 38.26 57.0762C38.3301 57.3553 42.1793 61.2911 42.6957 61.6116C42.9148 61.7476 43.0891 61.7875 43.2707 61.743C43.5559 61.6733 55.893 49.4322 56.2436 48.871C56.4714 48.5065 56.4292 48.1879 56.1141 47.8943C55.9108 47.705 55.7931 47.7 51.4959 47.7H47.0862L42.786 51.9885ZM38.3562 61.6916L40.4628 63.7999L39.8644 64.3983L39.266 64.9967L37.1357 62.8664L35.0053 60.7361L35.5757 60.1597C35.8894 59.8427 36.1693 59.5833 36.1978 59.5833C36.2263 59.5833 37.1975 60.5321 38.3562 61.6916ZM36.0575 63.9929L36.6276 64.5691L35.6473 65.5494L34.667 66.5297L34.0692 65.9319L33.4715 65.3342L34.4267 64.3754C34.952 63.8481 35.4055 63.4167 35.4346 63.4167C35.4635 63.4167 35.7438 63.676 36.0575 63.9929Z" fill="#295889"/>
</g>
<defs>
<clipPath id="clip0_164_374">
<rect width="60" height="60" fill="white" transform="translate(20.001 20.0002)"/>
</clipPath>
</defs>
</svg>
