<svg width="101" height="100" viewBox="0 0 101 100" fill="none" xmlns="http://www.w3.org/2000/svg">
<circle opacity="0.06" cx="50.002" cy="50.0002" r="50" fill="#CA0000"/>
<path opacity="0.06" d="M50 100C56.5661 100 63.0679 98.7067 69.1342 96.194C75.2004 93.6812 80.7124 89.9983 85.3553 85.3553C89.9983 80.7124 93.6812 75.2004 96.194 69.1342C98.7067 63.0679 100 56.5661 100 50C100 43.4339 98.7067 36.9321 96.194 30.8658C93.6812 24.7995 89.9983 19.2876 85.3553 14.6447C80.7124 10.0017 75.2004 6.31876 69.1342 3.80602C63.0679 1.29329 56.5661 -2.47258e-06 50 -2.18557e-06L50 50L50 100Z" fill="#CA0000"/>
<g clip-path="url(#clip0_164_354)">
<path fill-rule="evenodd" clip-rule="evenodd" d="M65.6763 27.1606C65.4748 27.2518 65.2225 27.4229 65.1156 27.5406C64.8621 27.82 60.5346 35.077 60.2656 35.674C59.4145 37.5625 59.5986 39.899 60.7449 41.756C61.1975 42.489 62.2305 43.4885 62.9762 43.9147C63.3029 44.1013 63.8997 44.3626 64.3027 44.4952C64.9556 44.7103 65.1747 44.737 66.3173 44.74C67.7411 44.7438 68.2041 44.6478 69.3392 44.1137C70.5817 43.5289 71.5797 42.518 72.3356 41.0783C73.1896 39.4517 73.2201 37.3122 72.414 35.5803C72.0098 34.712 67.8385 27.7849 67.5252 27.4617C67.062 26.984 66.3294 26.8647 65.6763 27.1606ZM32.243 36.0561C32.0366 36.1508 31.7853 36.3443 31.6847 36.4859C31.3245 36.9932 27.629 43.2425 27.4588 43.6321C26.3254 46.2278 27.3462 49.3401 29.8263 50.8504C30.701 51.3831 31.6484 51.643 32.7557 51.6542C33.9009 51.6657 34.4637 51.544 35.4958 51.0616C37.0836 50.3197 38.3442 48.6505 38.6722 46.8562C38.884 45.6976 38.7036 44.4136 38.187 43.4018C38.059 43.1511 37.0643 41.4574 35.9766 39.6382C34.4699 37.118 33.9302 36.2885 33.7098 36.1549C33.2724 35.8894 32.6912 35.8503 32.243 36.0561ZM49.3629 38.6351C49.2045 38.7145 48.9909 38.8676 48.8882 38.9751C48.66 39.2142 39.6756 54.2148 39.0736 55.3618C38.2113 57.0047 37.7848 58.7796 37.7804 60.7441C37.7757 62.8351 38.2081 64.6132 39.1665 66.4449C41.8167 71.5092 47.5525 74.0235 53.2302 72.6097C57.8714 71.454 61.4375 67.5848 62.2913 62.7784C62.4656 61.7976 62.4636 59.7693 62.2874 58.7775C62.0936 57.6868 61.6566 56.3961 61.1423 55.3956C60.9008 54.926 58.6221 51.063 56.0786 46.8112C52.6179 41.0266 51.3701 39.0139 51.1213 38.8151C50.8474 38.5964 50.6885 38.5443 50.2199 38.52C49.8276 38.4997 49.5615 38.5355 49.3629 38.6351Z" fill="#295889"/>
</g>
<defs>
<clipPath id="clip0_164_354">
<rect width="60" height="60" fill="white" transform="translate(20 20)"/>
</clipPath>
</defs>
</svg>
