<svg width="101" height="100" viewBox="0 0 101 100" fill="none" xmlns="http://www.w3.org/2000/svg">
<circle opacity="0.06" cx="50" cy="50.0005" r="50" fill="#CA0000"/>
<path opacity="0.06" d="M50.0019 99.999C56.568 99.999 63.0698 98.7057 69.1361 96.193C75.2024 93.6803 80.7144 89.9973 85.3573 85.3544C90.0002 80.7114 93.6832 75.1995 96.1959 69.1332C98.7087 63.0669 100.002 56.5651 100.002 49.999C100.002 43.4329 98.7087 36.9311 96.1959 30.8648C93.6832 24.7986 90.0002 19.2866 85.3573 14.6437C80.7144 10.0008 75.2024 6.31778 69.1361 3.80504C63.0698 1.29231 56.568 -0.000979035 50.0019 -0.000978748L50.002 49.999L50.0019 99.999Z" fill="#CA0000"/>
<g clip-path="url(#clip0_164_293)">
<path fill-rule="evenodd" clip-rule="evenodd" d="M42.9995 27.1033C40.16 27.4622 37.4485 28.1692 36.7743 28.7263C36.5829 28.8843 35.8909 29.8173 35.2364 30.7994C34.5819 31.7815 33.8628 32.7614 33.6384 32.9769C33.0887 33.5049 32.4624 33.806 31.2862 34.1081L30.3011 34.3609V35.4575C30.3011 36.7621 30.145 37.2048 29.5448 37.6029C29.2234 37.8161 29.0638 37.8513 28.2729 37.8831C27.6405 37.9085 27.3685 37.9534 27.3685 38.032C27.3685 38.384 28.0086 39.3804 28.6446 40.0182C29.6646 41.0412 30.0723 41.2137 31.6902 41.307C33.6835 41.4221 35.8695 41.8363 37.7422 42.454C38.5676 42.7261 38.8539 42.9285 39.1013 43.4146C39.4005 44.0025 39.3408 44.4157 38.7822 45.6212C37.8023 47.7359 37.2671 49.672 37.0807 51.7758C36.8093 54.8403 37.7319 57.8012 39.7575 60.3659L40.3818 61.1563V66.3875C40.3818 72.3812 40.4282 72.0269 39.6022 72.3368C38.5052 72.7481 37.8331 73.1818 37.4441 73.7295L37.2534 73.9978L39.8028 73.996L42.3521 73.9941L42.627 73.5227C43.2308 72.4873 44.5565 71.4393 45.6947 71.0975L46.2256 70.9382L45.8107 70.3782C44.9377 69.2003 44.6008 68.1052 44.5987 66.4387C44.5963 64.5833 45.0198 63.1306 45.9841 61.6855C47.2532 59.7838 48.9863 58.7208 51.1498 58.5168C52.2761 58.4107 53.9521 58.7485 54.3682 59.1656C54.7804 59.5787 54.555 60.3906 53.9887 60.5331C53.8505 60.5678 53.5025 60.5139 53.1395 60.4015C52.7075 60.2677 52.2789 60.2115 51.6996 60.2125C50.135 60.2155 49.1025 60.6601 48.0455 61.7862C46.9022 63.0044 46.354 64.3248 46.2743 66.0522C46.2043 67.5702 46.4788 68.5502 47.2367 69.4865C47.5993 69.9346 48.4928 70.5544 48.9078 70.6458C49.5035 70.7769 49.7421 71.5545 49.333 72.0312C49.1381 72.2583 49.0426 72.2853 48.2069 72.3503C46.6118 72.4741 45.5692 72.8525 44.689 73.6271L44.2766 73.99L50.0301 73.9939C54.662 73.9971 55.8414 73.9736 56.0799 73.8737C56.6543 73.6331 57.1502 72.8492 57.1518 72.1795C57.1526 71.8408 57.5447 71.5172 57.9501 71.5206C58.3366 71.5238 58.5311 71.639 58.7062 71.9684C58.8565 72.2512 58.7693 73.0569 58.5294 73.6002L58.354 73.9978H59.1544C60.5422 73.9978 61.7867 73.5109 62.2464 72.788C62.5002 72.3888 62.5358 72.3764 63.659 72.3019C64.1378 72.2701 64.919 72.1797 65.3949 72.1009C68.8336 71.5319 71.6078 69.4427 72.695 66.6033C73.0969 65.5538 73.1045 63.871 72.7154 62.0794C72.6579 61.8142 72.5857 61.5972 72.5551 61.5972C72.5244 61.5972 72.3972 61.8556 72.2723 62.1713C71.749 63.4952 70.4156 65.0965 69.0904 65.9922C67.4185 67.1224 64.7069 68.0409 63.4318 67.909C62.8768 67.8516 62.5179 67.6872 62.0511 67.2763C61.5788 66.8606 61.3848 66.4094 61.178 65.2453C60.4448 61.1178 58.1078 55.5448 54.9783 50.4613C52.8894 47.068 51.4804 45.6464 49.3309 44.7637C48.1346 44.2725 47.9786 44.0129 47.7068 42.0604L47.6021 41.3082L46.6725 41.3599C45.2186 41.4406 43.6605 41.0736 42.9446 40.4817C42.7666 40.3345 42.4985 39.9926 42.349 39.7221L42.0771 39.2301V35.8465V32.4628L42.3343 32.2411C42.6757 31.9467 43.1192 31.9481 43.4384 32.2446L43.6809 32.4699L43.6811 35.5284C43.6812 39.1555 43.6685 39.0979 44.5432 39.4449C45.9641 40.0087 48.0506 39.6654 48.8142 38.742C49.3496 38.0948 49.5789 37.4865 49.6212 36.6017C49.7743 33.3907 48.5109 29.6158 46.7323 27.9702C45.7016 27.0166 44.9909 26.8515 42.9995 27.1033ZM57.0677 31.1549C56.7663 31.409 56.6883 31.8488 56.8805 32.2089C56.9327 32.3065 57.4618 32.6268 58.0564 32.9206C62.0879 34.9131 65.0902 38.1283 66.7238 42.2027C67.4605 44.0397 67.8221 45.6694 67.9689 47.8133C68.0593 49.1323 68.0643 49.1541 68.3356 49.4032C68.6452 49.6876 68.8659 49.7167 69.2408 49.5223C69.697 49.2859 69.7535 48.9806 69.6307 47.4161C69.1566 41.3736 66.0603 36.0478 61.093 32.7305C60.0178 32.0124 57.8837 30.9171 57.5601 30.9171C57.4444 30.9171 57.2228 31.0241 57.0677 31.1549ZM55.4639 34.1626C55.2866 34.3404 55.2278 34.4935 55.2278 34.7778C55.2278 35.252 55.4026 35.418 56.3276 35.823C59.1537 37.0603 61.7177 39.5307 63.1569 42.4032C64.011 44.1078 64.5333 46.1082 64.6399 48.0832C64.7047 49.2831 64.8296 49.5303 65.4189 49.6243C65.7146 49.6715 65.7959 49.6407 66.0508 49.3851L66.3435 49.0918L66.2918 47.8811C66.1996 45.7239 65.6911 43.7988 64.6618 41.7102C63.0972 38.5352 60.6961 36.1261 57.4984 34.5229C56.2617 33.9029 55.8039 33.8218 55.4639 34.1626ZM27.758 34.9862L27.002 35.1776V35.7111V36.2447H27.8267H28.6515V35.5099C28.6515 35.1057 28.6206 34.7794 28.5828 34.7849C28.5449 34.7903 28.1739 34.8809 27.758 34.9862ZM54.174 36.9745C53.6617 37.1847 53.4689 37.9213 53.8313 38.2844C53.9301 38.3835 54.3621 38.6205 54.7912 38.811C56.0609 39.3749 57.0936 40.1065 58.1604 41.1977C60.0613 43.1423 61.0665 45.3699 61.2711 48.0915C61.3478 49.1116 61.3594 49.1532 61.6355 49.4004C61.9562 49.6877 62.1756 49.7169 62.5509 49.5223C62.936 49.3227 63.0446 48.9637 62.9737 48.1237C62.7677 45.6816 62.1045 43.7093 60.8588 41.8337C59.4982 39.7852 57.3103 37.9738 55.2209 37.1662C54.4384 36.8638 54.4424 36.8644 54.174 36.9745ZM52.4631 40.0595C52.327 40.1336 52.1733 40.3299 52.1167 40.5018C51.9394 41.0403 52.2123 41.4503 52.891 41.6654C53.9478 42.0002 55.4644 43.0276 56.1541 43.8757C57.2582 45.2335 57.9771 47.1354 57.9771 48.6982C57.9771 49.2687 58.2834 49.6057 58.8019 49.6057C59.1154 49.6057 59.2314 49.5549 59.4196 49.3358C59.6414 49.0772 59.6491 49.0289 59.602 48.1897C59.4 44.5915 57.0605 41.4418 53.6279 40.1468C52.936 39.8858 52.8009 39.8756 52.4631 40.0595ZM51.0524 48.276C52.1216 49.3611 52.1358 49.3811 52.0816 49.7228C51.9812 50.3544 51.4086 50.6468 50.8473 50.353C50.5096 50.1762 48.9331 48.549 48.8261 48.2668C48.6172 47.7163 49.0165 47.1757 49.632 47.1757C49.9401 47.1757 50.0587 47.2676 51.0524 48.276Z" fill="#295889"/>
</g>
<defs>
<clipPath id="clip0_164_293">
<rect width="60" height="60" fill="white" transform="translate(20 19.999)"/>
</clipPath>
</defs>
</svg>
