<svg width="101" height="101" viewBox="0 0 101 101" fill="none" xmlns="http://www.w3.org/2000/svg">
<circle opacity="0.06" cx="50.002" cy="51.0002" r="50" fill="#CA0000"/>
<path opacity="0.06" d="M50.001 100.999C56.5671 100.999 63.0689 99.7055 69.1351 97.1928C75.2014 94.68 80.7134 90.997 85.3563 86.3541C89.9992 81.7112 93.6822 76.1992 96.195 70.1329C98.7077 64.0667 100.001 57.5649 100.001 50.9988C100.001 44.4327 98.7077 37.9309 96.195 31.8646C93.6822 25.7983 89.9992 20.2864 85.3563 15.6434C80.7134 11.0005 75.2014 7.31753 69.1351 4.8048C63.0689 2.29206 56.5671 0.998777 50.001 0.998777L50.001 50.9988L50.001 100.999Z" fill="#CA0000"/>
<g clip-path="url(#clip0_164_314)">
<path fill-rule="evenodd" clip-rule="evenodd" d="M48.7365 28.5283C46.0732 28.8655 43.6798 30.0312 41.8299 31.8918C37.8917 35.8533 37.3221 41.8843 40.4453 46.5536C41.0751 47.4951 42.6423 49.0421 43.5831 49.6508C45.6929 51.0159 47.5376 51.5663 50.0022 51.5663C51.4448 51.5663 52.2374 51.4535 53.4586 51.074C54.0207 50.8995 54.0541 50.8693 57.4485 47.4721L60.8716 44.0464L61.0922 43.2884C61.7732 40.949 61.7019 38.3955 60.8928 36.1565C59.5125 32.3369 56.2909 29.5506 52.2625 28.6927C51.602 28.552 49.3709 28.4479 48.7365 28.5283ZM51.7358 30.3808C53.9495 30.9942 55.7069 32.768 56.3426 35.0305C56.6 35.9468 56.6193 37.4458 56.385 38.3264C55.7436 40.7368 53.8486 42.6039 51.4714 43.1679L50.8159 43.3233V44.17V45.0167H51.7712C52.2966 45.0167 52.8086 45.0606 52.9089 45.1143C53.0094 45.1681 53.1496 45.3512 53.2206 45.5212C53.3326 45.7891 53.3326 45.8716 53.2206 46.1396C53.1496 46.3095 53.0094 46.4926 52.9089 46.5464C52.8086 46.6001 52.2966 46.6441 51.7712 46.6441H50.8159V48.0252C50.8159 49.5438 50.7733 49.6918 50.2771 49.8974C50.0561 49.9889 49.9484 49.9889 49.7274 49.8974C49.2311 49.6918 49.1886 49.5438 49.1886 48.0252V46.6441H48.2333C47.7079 46.6441 47.1959 46.6001 47.0956 46.5464C46.9951 46.4926 46.8549 46.3095 46.7838 46.1396C46.6719 45.8716 46.6719 45.7891 46.7838 45.5212C46.8549 45.3512 46.9951 45.1681 47.0956 45.1143C47.1959 45.0606 47.7079 45.0167 48.2333 45.0167H49.1886V44.17V43.3233L48.5331 43.1685C47.1773 42.8483 45.7805 41.9747 44.9237 40.9114C43.9329 39.6816 43.4598 38.3347 43.4598 36.7442C43.4598 34.9123 44.0735 33.4108 45.3475 32.1255C47.0791 30.3784 49.4202 29.7391 51.7358 30.3808ZM48.7365 31.9459C46.1937 32.651 44.6021 35.2201 45.1585 37.7212C45.3699 38.6713 45.7678 39.4181 46.4451 40.1361C47.942 41.723 50.2232 42.1228 52.247 41.1532C52.9696 40.807 54.0486 39.7166 54.4181 38.9592C55.3874 36.9726 55.0109 34.7531 53.4407 33.1975C52.855 32.6172 52.0626 32.1628 51.2673 31.9511C50.67 31.7922 49.3008 31.7894 48.7365 31.9459ZM37.1471 45.4468C36.2972 46.3378 36.1196 47.4308 36.6626 48.4284C36.8285 48.7333 38.3807 50.3474 41.689 53.6552L46.4753 58.4409L47.6513 57.2675L48.8275 56.094L46.9512 54.2079C45.3768 52.6254 44.9877 52.2817 44.5325 52.0725C41.7109 50.7759 39.2811 48.3576 38.011 45.5817C37.846 45.2212 37.6959 44.9263 37.6773 44.9263C37.6588 44.9263 37.4202 45.1605 37.1471 45.4468ZM55.8089 51.4605L49.2779 57.992L50.4543 59.1658L51.6306 60.3396L57.3663 54.6045C61.4097 50.5614 63.1768 48.7344 63.3554 48.4122C63.5745 48.017 63.6087 47.8568 63.6074 47.2317C63.6055 46.3707 63.4452 46.0083 62.7782 45.3572L62.3398 44.9292L55.8089 51.4605ZM46.4312 60.8382L44.8059 62.4653L45.9336 63.5957C46.5537 64.2174 47.1021 64.726 47.1521 64.726C47.2021 64.726 47.9654 64.0044 48.8484 63.1223L50.454 61.5186L49.3027 60.3648C48.6695 59.7302 48.1301 59.211 48.104 59.211C48.0779 59.211 47.3252 59.9432 46.4312 60.8382ZM37.8968 60.8007C36.8881 61.0719 36.6018 61.3035 33.7186 64.18C31.1233 66.7694 30.9298 66.9851 30.6044 67.6498C30.2985 68.2747 30.2528 68.4549 30.2185 69.1715C30.1436 70.7402 30.5441 71.5703 32.1185 73.1089C32.838 73.812 33.208 74.1003 33.6661 74.3147C34.8885 74.8867 36.1403 74.8829 37.3338 74.3034C37.8702 74.043 38.3492 73.5977 41.9332 70.0281C44.1336 67.8366 45.9338 65.9976 45.9338 65.9416C45.9338 65.8856 44.9269 64.8467 43.6962 63.6329C42.213 62.1701 41.3038 61.3432 40.9997 61.1804C40.0573 60.6758 38.8915 60.5332 37.8968 60.8007ZM59.9568 60.8007C58.9971 61.0587 58.6275 61.3457 56.3083 63.6329C55.0776 64.8467 54.0707 65.886 54.0707 65.9425C54.0707 65.999 55.871 67.8349 58.0713 70.0224C60.9577 72.8918 62.1997 74.067 62.5308 74.2419C63.7592 74.8909 65.116 74.9193 66.3664 74.3223C66.977 74.0307 68.6829 72.4164 69.1716 71.6676C69.6482 70.9375 69.8343 70.1815 69.786 69.1715C69.7517 68.4549 69.706 68.2747 69.4001 67.6498C69.0747 66.9851 68.8812 66.7694 66.2859 64.18C64.3373 62.236 63.3827 61.3474 63.0597 61.1769C62.1083 60.6747 60.9481 60.5341 59.9568 60.8007ZM52.3287 61.9926L51.1769 63.147L51.9701 63.9365C52.4064 64.3707 52.8038 64.726 52.8533 64.726C52.9028 64.726 53.4505 64.2175 54.0704 63.5962L55.1975 62.4663L54.3874 61.6523C53.9418 61.2046 53.5554 60.8384 53.5288 60.8384C53.5022 60.8384 52.9622 61.3578 52.3287 61.9926ZM39.6454 62.7835C40.5368 62.9302 41.4628 63.6685 41.9179 64.5953C42.1532 65.0747 42.1818 65.2257 42.1818 65.9917C42.1818 67.3417 42.0686 67.5195 39.6588 69.952C38.5602 71.061 37.4782 72.085 37.2545 72.2275C35.599 73.2817 33.3533 72.6494 32.4866 70.8853C32.2643 70.4327 32.2367 70.2769 32.2367 69.4725C32.2367 68.0573 32.3231 67.9224 34.8503 65.3864C37.0755 63.1534 37.4018 62.9108 38.4099 62.7389C38.8342 62.6666 38.9633 62.6713 39.6454 62.7835ZM62.2811 62.9391C62.9148 63.1723 63.4516 63.6359 65.514 65.7315C67.6388 67.8904 67.7678 68.1044 67.7678 69.4725C67.7678 70.2927 67.7432 70.4251 67.5032 70.899C66.8376 72.2135 65.3045 72.9863 63.9422 72.6941C62.9495 72.4812 62.7211 72.308 60.4796 70.0685C57.919 67.51 57.8227 67.3624 57.8227 65.9917C57.8227 65.2257 57.8513 65.0747 58.0866 64.5953C58.869 63.0018 60.5969 62.3195 62.2811 62.9391Z" fill="#295889"/>
</g>
<defs>
<clipPath id="clip0_164_314">
<rect width="60" height="60" fill="white" transform="translate(20.002 21.0002)"/>
</clipPath>
</defs>
</svg>
