<svg width="100" height="100" viewBox="0 0 100 100" fill="none" xmlns="http://www.w3.org/2000/svg">
<circle cx="50.001" cy="50" r="50" fill="#FCF0F0"/>
<path d="M50.001 100C63.2618 100 75.9795 94.7322 85.3563 85.3553C94.7331 75.9785 100.001 63.2608 100.001 50C100.001 36.7392 94.7331 24.0215 85.3563 14.6447C75.9795 5.26784 63.2618 3.96409e-07 50.001 -2.18557e-06L50.001 50L50.001 100Z" fill="#F9E2E2"/>
<g clip-path="url(#clip0_164_414)">
<path fill-rule="evenodd" clip-rule="evenodd" d="M48.5551 26.8852C47.3317 26.9549 46.6936 27.0619 45.3399 27.4245C44.5067 27.6477 42.9493 28.2149 42.6455 28.406C42.6 28.4346 42.6761 28.5782 42.8146 28.7252C43.1532 29.0847 43.1501 29.586 42.8074 29.8858C42.4939 30.16 42.0816 30.1539 41.6768 29.8691C41.4998 29.7445 41.0901 29.5687 40.7663 29.4783C40.2383 29.3309 39.7155 29.3138 35.6945 29.3133C31.5366 29.3127 31.1753 29.3254 30.7133 29.4865C29.3969 29.9458 28.3806 30.9651 28.0396 32.168C27.8656 32.7819 26.7967 41.3218 26.8612 41.5831C26.9439 41.9185 27.2707 42.1614 27.6394 42.1614C28.0887 42.1614 29.6039 41.6951 30.6806 41.2255C32.6443 40.3688 33.9954 39.4535 35.2704 38.1159C36.5357 36.7883 37.2495 35.6082 37.864 33.8277C38.021 33.3728 38.2114 32.931 38.2872 32.8459C38.6531 32.4346 39.4071 32.6209 39.5841 33.1662C39.6771 33.4529 39.6566 33.5918 39.412 34.3342C39.1324 35.1828 38.5381 36.4697 38.0862 37.205C37.2025 38.6431 35.7632 40.1367 34.3134 41.1206C33.4328 41.7182 33.4303 41.7209 33.4307 42.1018C33.4312 42.6931 33.679 44.1262 33.9805 45.2814C34.4528 47.0914 35.2481 48.9322 36.214 50.4508C36.4878 50.8814 36.7188 51.2422 36.7273 51.2525C36.7359 51.2628 37.1296 50.8873 37.6025 50.418C39.0884 48.9433 40.8889 47.884 43.4199 46.9955L44.7603 46.525L44.9685 46.0701C45.3585 45.2179 46.1847 44.6428 47.423 44.3616C48.1156 44.2043 51.0455 44.1939 51.6883 44.3465C53.0192 44.6623 53.8336 45.2156 54.2242 46.0691L54.4319 46.5229L55.7728 46.9964C58.3389 47.9027 60.1306 48.9583 61.5909 50.4245C62.0609 50.8964 62.4756 51.2508 62.5126 51.2121C62.7117 51.0034 63.6434 49.3861 64.0314 48.5759C64.8977 46.7671 65.6135 44.2052 65.7351 42.4785L65.7873 41.7364L64.8468 41.1037C63.6761 40.3163 62.1192 38.7555 61.3904 37.6388C60.7258 36.6203 60.1344 35.4065 59.7824 34.3381C59.4463 33.3176 59.4962 32.9757 60.0185 32.7236C60.6236 32.4316 60.9551 32.6923 61.2874 33.7213C62.422 37.2357 64.99 39.8147 68.9437 41.4109C69.9005 41.7972 71.1707 42.1614 71.5608 42.1614C71.9241 42.1614 72.2501 41.9153 72.3333 41.5783C72.3985 41.314 71.33 32.7901 71.1536 32.168C70.8225 31 69.8457 29.9938 68.5801 29.5168C68.1035 29.3373 67.8442 29.3233 64.3493 29.2883C59.4575 29.2394 58.0493 29.3663 57.4785 29.9077C57.0306 30.3326 56.3532 30.176 56.1678 29.6047C56.05 29.2415 56.1058 29.0363 56.4151 28.6955L56.6409 28.4469L56.1075 28.2064C53.8712 27.1986 51.2141 26.7338 48.5551 26.8852ZM41.4861 40.2852C42.7922 40.6608 43.9016 41.5539 44.441 42.6636C44.755 43.3099 44.7609 43.341 44.6301 43.6597C44.3997 44.2205 44.053 44.3045 43.2116 44.0035C42.6006 43.7849 41.3939 43.7619 40.6798 43.9551C39.9053 44.1648 39.152 44.5854 38.3762 45.2414C37.5438 45.9452 37.2841 46.0027 36.8649 45.5764C36.6786 45.3869 36.6002 45.2165 36.6002 45.0014C36.6002 44.7423 36.7013 44.5965 37.2631 44.0451C38.2663 43.0606 39.6216 42.4047 41.1285 42.1745L41.6267 42.0984L41.355 41.9851C40.9993 41.8368 40.2846 41.7009 39.8606 41.7009C38.9936 41.7009 38.7364 40.476 39.5307 40.1293C39.7833 40.0189 40.8585 40.1048 41.4861 40.2852ZM59.9386 40.3586C60.3977 40.9014 60.0368 41.7009 59.3326 41.7009C58.9086 41.7009 58.1939 41.8368 57.8382 41.9851L57.5665 42.0984L58.0646 42.1745C59.7116 42.4261 61.1456 43.1587 62.169 44.2713C62.678 44.8248 62.7406 45.2433 62.3707 45.6195C61.9784 46.0184 61.638 45.9356 60.817 45.2414C60.0412 44.5854 59.2879 44.1648 58.5134 43.9551C57.7993 43.7619 56.5926 43.7849 55.9816 44.0035C55.3438 44.2316 55.0651 44.232 54.7813 44.005C54.3959 43.6967 54.39 43.409 54.7534 42.6612C55.5209 41.0819 57.4698 39.9728 59.282 40.084C59.6359 40.1057 59.7732 40.1631 59.9386 40.3586ZM48.0154 45.9533C47.279 46.0602 46.7131 46.3115 46.5144 46.6201C46.3977 46.8013 46.3692 47.0012 46.3971 47.4466C46.4672 48.5658 47.3969 49.9386 48.469 50.5061C49.1703 50.8773 50.0229 50.8773 50.7242 50.5061C51.7963 49.9386 52.726 48.5658 52.7961 47.4466C52.8407 46.7325 52.6964 46.4576 52.1475 46.2124C51.3964 45.8769 49.4022 45.7518 48.0154 45.9533ZM44.1626 48.4661C41.9082 49.2098 40.121 50.2184 38.8057 51.4889C37.2879 52.9552 36.6002 54.5953 36.6002 56.7492C36.6002 58.4033 36.8917 59.3608 37.5678 59.9276C38.2795 60.5242 39.3616 60.7053 42.2606 60.7133C44.6812 60.7201 45.475 60.6139 46.7534 60.1125C47.4826 59.8266 48.672 59.0433 48.7694 58.7849C48.801 58.7014 48.8268 57.9093 48.8268 57.0246C48.8268 55.4396 48.83 55.4128 49.0491 55.1901C49.2025 55.034 49.3721 54.964 49.5966 54.964C49.8211 54.964 49.9907 55.034 50.1441 55.1901C50.3632 55.4128 50.3664 55.4396 50.3664 57.0246C50.3664 57.9093 50.3922 58.7014 50.4237 58.7849C50.5212 59.0433 51.7106 59.8266 52.4398 60.1125C53.7182 60.6139 54.512 60.7201 56.9326 60.7133C60.5415 60.7034 61.5864 60.4031 62.1837 59.2042C62.6892 58.1898 62.7389 55.8292 62.2836 54.4574C61.4902 52.0664 59.4022 50.1714 56.1174 48.8611C55.6691 48.6822 55.0934 48.4732 54.838 48.3964L54.3736 48.257L54.1306 48.8869C53.4379 50.6823 51.8364 52.1161 50.2062 52.4004C48.2157 52.7476 46.0506 51.2871 45.0926 48.9512C44.9426 48.5855 44.8146 48.2797 44.8082 48.2716C44.8018 48.2635 44.5112 48.351 44.1626 48.4661ZM42.6732 54.2299C42.7691 54.282 42.9114 54.4504 42.9894 54.6039C43.18 54.9787 43.0304 55.4643 42.6651 55.6563C42.296 55.8505 42.0877 55.8268 41.7695 55.5545C41.2014 55.0683 41.5391 54.1478 42.2893 54.1378C42.4046 54.1363 42.5774 54.1777 42.6732 54.2299ZM57.2782 54.2421C57.5803 54.4058 57.6963 54.6087 57.6995 54.9788C57.7017 55.2443 57.6431 55.3667 57.4237 55.5545C57.1059 55.8264 56.8972 55.8505 56.5303 55.6575C56.1767 55.4716 56.0376 55.0424 56.2016 54.6432C56.3976 54.166 56.8359 54.0027 57.2782 54.2421ZM39.5213 55.9757C40.1257 56.4592 39.7433 57.4508 38.9525 57.4508C38.6437 57.4508 38.2299 56.9648 38.2333 56.6059C38.2397 55.9213 38.9926 55.5528 39.5213 55.9757ZM60.5386 55.9C60.8345 56.0604 60.9567 56.265 60.9599 56.6059C60.9633 56.9648 60.5495 57.4508 60.2407 57.4508C59.9251 57.4508 59.5466 57.2013 59.4307 56.9167C59.1439 56.2126 59.8757 55.5411 60.5386 55.9ZM42.6732 57.5457C42.7691 57.5978 42.9114 57.7662 42.9894 57.9197C43.18 58.2945 43.0304 58.7801 42.6651 58.9721C42.296 59.1663 42.0877 59.1426 41.7695 58.8702C41.0399 58.246 41.8305 57.087 42.6732 57.5457ZM57.4627 57.6766C57.8177 58.0112 57.8001 58.5481 57.4237 58.8702C57.2705 59.0014 57.0647 59.1087 56.9664 59.1087C56.6294 59.1087 56.2712 58.8444 56.1651 58.5173C55.9039 57.7124 56.8502 57.0993 57.4627 57.6766ZM48.9626 60.7754C47.2954 61.955 44.9279 62.5038 41.9265 62.4064L40.6757 62.3658V63.8353V65.305L41.1143 64.8877C41.8463 64.1914 42.0049 64.1371 43.4178 64.0986L44.6656 64.0646L44.7913 63.7585C45.0782 63.0602 45.9668 63.0672 46.2556 63.77L46.3861 64.0877L47.5837 64.062L48.7815 64.0363L48.8268 63.4064C48.8788 62.6829 49.0815 62.4245 49.5966 62.4245C50.1117 62.4245 50.3144 62.6829 50.3664 63.4064L50.4117 64.0363L51.6095 64.062L52.8071 64.0877L52.9376 63.77C53.2264 63.0672 54.115 63.0602 54.4019 63.7585L54.5276 64.0646L55.7754 64.0986C57.1883 64.1371 57.3469 64.1914 58.0789 64.8877L58.5175 65.305V63.8353V62.3658L57.2667 62.4064C55.7916 62.4542 54.1543 62.3122 53.0895 62.0439C51.8485 61.7312 50.9629 61.3069 49.7777 60.4568C49.6129 60.3387 49.5395 60.3674 48.9626 60.7754ZM41.6478 66.7319C40.8869 67.508 40.6757 67.7783 40.6757 67.9753V68.2271H48.3664H56.0571L56.1552 67.762C56.2778 67.1806 56.4322 66.8755 56.7819 66.5231L57.0562 66.2468L56.8189 65.9935C56.5862 65.7451 56.561 65.7403 55.5118 65.7403C54.6396 65.7403 54.442 65.7648 54.442 65.8733C54.442 65.9465 54.3453 66.1206 54.2273 66.2601C54.0669 66.4497 53.9301 66.5139 53.6864 66.5139C53.3213 66.5139 52.9023 66.1904 52.9023 65.9084C52.9023 65.7536 52.8016 65.7403 51.6344 65.7403H50.3664V66.3229C50.3664 66.8269 50.3355 66.935 50.1376 67.1242C49.988 67.267 49.8004 67.3429 49.5966 67.3429C49.3928 67.3429 49.2052 67.267 49.0556 67.1242C48.8577 66.935 48.8268 66.8269 48.8268 66.3229V65.7403H47.5588C46.3916 65.7403 46.2909 65.7536 46.2909 65.9084C46.2909 66.1904 45.8719 66.5139 45.5068 66.5139C45.2631 66.5139 45.1263 66.4497 44.9659 66.2601C44.8479 66.1206 44.7512 65.9465 44.7512 65.8733C44.7512 65.7648 44.5542 65.7403 43.6855 65.7403H42.6198L41.6478 66.7319ZM66.0879 66.8526C65.959 67.0084 65.8534 67.195 65.8534 67.2671C65.8534 67.3757 65.5698 67.3981 64.2006 67.3981H62.5477V68.2271V69.056H64.1838H65.8199L65.9688 69.3736C66.2001 69.867 66.4426 69.9021 69.3856 69.8685C71.8875 69.8398 71.9779 69.8324 72.3306 69.6268C72.901 69.2941 73.1441 68.8598 73.1441 68.1733C73.1441 67.671 73.1094 67.5554 72.866 67.2455C72.3382 66.5739 72.3141 66.5695 69.1446 66.5694L66.3224 66.5692L66.0879 66.8526ZM58.0063 67.6164C57.6619 67.9177 57.6605 68.4107 58.0032 68.7592C58.2288 68.9887 58.3191 69.0127 59.0676 69.0423C60.0881 69.0827 60.471 69.0119 60.7465 68.7317C61.0429 68.4304 61.0402 67.9289 60.7405 67.6243C60.5282 67.4084 60.4673 67.3981 59.387 67.3981C58.3276 67.3981 58.2401 67.412 58.0063 67.6164ZM41.9431 70.4508C43.57 71.9934 45.9162 72.9135 48.7074 73.1036C51.9295 73.3231 54.4114 72.6305 56.7933 70.8474L57.3771 70.4103L57.0677 70.1477L56.7583 69.885L49.0566 69.889L41.355 69.8932L41.9431 70.4508Z" fill="#8D4A20"/>
</g>
<defs>
<clipPath id="clip0_164_414">
<rect width="60" height="60" fill="white" transform="translate(20.001 20)"/>
</clipPath>
</defs>
</svg>
