<svg width="100" height="100" viewBox="0 0 100 100" fill="none" xmlns="http://www.w3.org/2000/svg">
<circle opacity="0.06" cx="50.001" cy="50" r="50" fill="#CA0000"/>
<path opacity="0.06" d="M50.001 99.9999C56.5671 99.9999 63.0689 98.7066 69.1351 96.1939C75.2014 93.6811 80.7134 89.9981 85.3563 85.3552C89.9992 80.7123 93.6822 75.2003 96.195 69.134C98.7077 63.0678 100.001 56.566 100.001 49.9999C100.001 43.4338 98.7077 36.932 96.195 30.8657C93.6822 24.7994 89.9992 19.2875 85.3563 14.6445C80.7134 10.0016 75.2014 6.31863 69.1351 3.8059C63.0689 1.29316 56.5671 -0.000124543 50.001 -0.000124256L50.001 49.9999L50.001 99.9999Z" fill="#CA0000"/>
<g clip-path="url(#clip0_164_394)">
<path fill-rule="evenodd" clip-rule="evenodd" d="M66.5458 26.9196C66.4058 26.9664 66.1546 27.0785 65.9875 27.1688C65.8203 27.259 62.1437 30.9415 57.8173 35.3521L49.951 43.3712L53.5033 43.367L57.0558 43.3628L63.1967 37.2727C67.7353 32.7717 69.4039 31.0536 69.5915 30.6882C69.9131 30.0613 69.9427 28.9462 69.6526 28.3801C69.3924 27.8721 68.9004 27.3649 68.4271 27.1167C67.9897 26.887 66.9644 26.7797 66.5458 26.9196ZM65.6335 31.2239L66.3905 32.0001L65.8094 32.5919L65.2282 33.1838L64.4663 32.4129C64.0471 31.9889 63.7043 31.6077 63.7043 31.5659C63.7043 31.461 64.6918 30.4478 64.794 30.4478C64.8395 30.4478 65.2173 30.797 65.6335 31.2239ZM63.1975 33.7052L63.9544 34.4813L63.3733 35.0732L62.7922 35.6651L62.0302 34.8942C61.6111 34.4702 61.2682 34.076 61.2682 34.0182C61.2682 33.883 62.1993 32.9367 62.3365 32.9324C62.3938 32.9305 62.7812 33.2783 63.1975 33.7052ZM60.7614 36.1865L61.5183 36.9626L60.9372 37.5545L60.3561 38.1464L59.5941 37.3755C59.175 36.9515 58.8321 36.5573 58.8321 36.4995C58.8321 36.3643 59.7632 35.418 59.9004 35.4137C59.9577 35.4118 60.3451 35.7596 60.7614 36.1865ZM47.602 37.6944C46.8884 37.8159 45.8571 38.2091 45.1553 38.6271C44.3414 39.112 34.5592 49.0139 34.2486 49.6673C33.1833 51.9088 35.5324 54.3009 37.7297 53.2118C38.0498 53.0531 40.3144 50.8117 45.7378 45.286L53.2996 37.5815L50.7115 37.5936C49.2881 37.6002 47.8888 37.6456 47.602 37.6944ZM62.2832 40.4764L59.3904 43.363L62.6131 43.3671L65.8358 43.3712V44.1953V45.0195L57.6902 45.0482L49.5445 45.0771L49.037 45.3331C48.3888 45.6601 47.7807 46.2801 47.4631 46.9381C47.1204 47.6479 47.1115 48.9814 47.4449 49.681C47.7926 50.4107 48.2052 50.8508 48.9025 51.236L49.5445 51.5905L55.0475 51.6422C59.7638 51.6865 60.5708 51.716 60.6918 51.8489C60.7696 51.9342 61.3043 52.5391 61.8803 53.193C63.1832 54.6722 64.2038 55.614 65.3657 56.4094C67.4612 57.8438 69.8212 58.6973 72.6112 59.0297L73.1441 59.0932V48.3373V37.5815L69.1601 37.5856L65.1761 37.5897L62.2832 40.4764ZM58.3253 38.6678L59.0822 39.4439L58.5011 40.0358L57.92 40.6277L57.158 39.8568C56.7389 39.4328 56.396 39.0487 56.396 39.0034C56.396 38.9128 57.421 37.8917 57.5119 37.8917C57.543 37.8917 57.909 38.2409 58.3253 38.6678ZM55.8892 41.1491L56.6461 41.9252L56.065 42.5171L55.4839 43.109L54.7219 42.338C54.3028 41.9141 53.9599 41.5198 53.9599 41.462C53.9599 41.3269 54.891 40.3806 55.0282 40.3763C55.0855 40.3744 55.4729 40.7222 55.8892 41.1491ZM36.1714 57.4053L26.8584 66.8922V70.0175V73.1428L27.3405 73.0849C29.5994 72.8139 31.6914 72.0195 33.4561 70.7626C33.8861 70.4564 35.2666 69.1607 36.6281 67.7855L39.0389 65.3505V63.2926V61.2345L39.6732 60.5887C40.0222 60.2334 41.9841 58.2808 44.033 56.2495L47.7583 52.5562L47.1194 51.9474C46.171 51.0439 45.6725 49.9914 45.5492 48.6324L45.4843 47.9183L36.1714 57.4053ZM45.3092 51.8773C45.7126 52.2908 46.0426 52.673 46.0426 52.7266C46.0426 52.8618 45.1105 53.8133 44.9781 53.8133C44.9188 53.8133 44.5302 53.4646 44.1145 53.0384L43.3587 52.2634L43.9105 51.6944C44.214 51.3813 44.4879 51.1252 44.5191 51.1252C44.5503 51.1252 44.9059 51.4636 45.3092 51.8773ZM46.3028 56.3463C42.8924 59.7609 43.0074 59.6 43.1279 60.7889C43.2364 61.8595 43.957 62.7637 44.9385 63.0607C45.6076 63.263 45.869 63.2624 46.557 63.0568C47.0818 62.9001 47.2895 62.7083 50.8671 59.0764C52.9343 56.9778 54.6596 55.2607 54.701 55.2607C54.805 55.2607 55.787 56.2592 55.787 56.3651C55.787 56.4122 54.1625 58.1021 52.177 60.1204C50.1916 62.1388 48.4586 63.9763 48.326 64.2037C47.5217 65.5837 48.2834 67.5671 49.7913 68.0189C50.4808 68.2255 50.7379 68.2257 51.4292 68.0204C51.9546 67.8642 52.1574 67.677 55.738 64.0399C57.8046 61.9408 59.5327 60.2233 59.578 60.2233C59.6689 60.2233 60.6592 61.2592 60.6592 61.3543C60.6592 61.3867 59.0116 63.088 56.9981 65.1347C54.9846 67.1815 53.2385 69.0422 53.1179 69.2697C52.8089 69.853 52.8086 71.0606 53.1175 71.6546C53.4075 72.2125 54.0218 72.7646 54.605 72.9914C55.2044 73.2246 56.0214 73.1541 56.6118 72.8183C56.892 72.6589 58.0922 71.3775 60.1776 69.0112C61.9064 67.0494 63.4537 65.3164 63.6158 65.16L63.9105 64.8757H65.9808C68.2489 64.8757 69.1275 64.7592 70.1963 64.3169C71.0756 63.953 71.7587 63.4959 72.5097 62.7689L73.1441 62.1549V61.4539V60.753L72.662 60.6921C70.219 60.3838 69.0976 60.1024 67.3173 59.3512C64.7257 58.2578 62.7533 56.7272 60.3517 53.9456L59.7964 53.3025L54.5985 53.2736L49.4006 53.2447L46.3028 56.3463ZM42.8732 54.3586C43.2765 54.7721 43.6065 55.1543 43.6065 55.2079C43.6065 55.3431 42.6744 56.2946 42.5421 56.2946C42.4827 56.2946 42.0941 55.9459 41.6785 55.5197L40.9227 54.7447L41.4744 54.1757C41.7779 53.8626 42.0518 53.6065 42.083 53.6065C42.1142 53.6065 42.4698 53.9449 42.8732 54.3586ZM37.8943 63.8538C37.8532 63.9691 32.9097 68.3305 32.3904 68.7098C31.3332 69.4818 29.2704 70.562 28.8532 70.562C28.7447 70.562 28.2793 69.4222 28.2795 69.1568C28.2795 69.0946 28.5976 68.9168 28.9863 68.7614C30.5451 68.1385 31.3989 67.5061 34.7757 64.4734L36.8565 62.6047L37.3868 63.1974C37.6784 63.5234 37.9068 63.8188 37.8943 63.8538Z" fill="#295889"/>
</g>
<defs>
<clipPath id="clip0_164_394">
<rect width="60" height="60" fill="white" transform="translate(20.001 19.9999)"/>
</clipPath>
</defs>
</svg>
