<svg width="100" height="101" viewBox="0 0 100 101" fill="none" xmlns="http://www.w3.org/2000/svg">
<circle opacity="0.06" cx="50.001" cy="51.0002" r="50" fill="#CA0000"/>
<path opacity="0.06" d="M50 100.999C56.5661 100.999 63.0679 99.7055 69.1342 97.1928C75.2004 94.68 80.7124 90.997 85.3553 86.3541C89.9983 81.7112 93.6812 76.1992 96.194 70.1329C98.7067 64.0667 100 57.5649 100 50.9988C100 44.4327 98.7067 37.9309 96.194 31.8646C93.6812 25.7983 89.9983 20.2864 85.3553 15.6434C80.7124 11.0005 75.2004 7.31753 69.1342 4.8048C63.0679 2.29206 56.5661 0.998777 50 0.998777L50 50.9988L50 100.999Z" fill="#CA0000"/>
<g clip-path="url(#clip0_164_273)">
<path fill-rule="evenodd" clip-rule="evenodd" d="M47.2165 28.1578C44.3443 28.6011 41.503 29.8006 38.9849 31.6328C37.8665 32.4466 35.8376 34.53 34.965 35.7608C33.5844 37.7082 32.4933 40.1994 31.9844 42.5668C31.5808 44.4446 31.535 45.756 31.5346 55.4454L31.5342 64.8159H29.2666H26.999V69.4066V73.9973H49.999H72.999V69.4066V64.8159H70.7314H68.4638L68.4627 55.4994C68.4615 45.8603 68.411 44.4031 68.0146 42.5668C67.506 40.2113 66.3999 37.6856 65.0337 35.7608C64.1396 34.5009 62.1288 32.4453 60.9274 31.563C58.4893 29.7725 55.642 28.5981 52.6435 28.1459C51.2971 27.9429 48.5695 27.9489 47.2165 28.1578ZM52.2666 37.1635V39.4318H54.5882H56.9098V41.7542V44.0766H54.5882H52.2666V48.6673V53.258H49.999H47.7314V48.6673V44.0766H45.4098H43.0882V41.7542V39.4318H45.4098H47.7314V37.1635V34.8951H49.999H52.2666V37.1635Z" fill="#295889"/>
</g>
<defs>
<clipPath id="clip0_164_273">
<rect width="60" height="60" fill="white" transform="translate(20 20.9988)"/>
</clipPath>
</defs>
</svg>
