<svg width="1920" height="529" viewBox="0 0 1920 529" fill="none" xmlns="http://www.w3.org/2000/svg">
<rect width="1920" height="529" fill="#DEF1FF"/>
<path fill-rule="evenodd" clip-rule="evenodd" d="M182.5 525L249 529H116L182.5 525Z" fill="white"/>
<path fill-rule="evenodd" clip-rule="evenodd" d="M66.5 525L133 529H0L66.5 525Z" fill="#0062AF"/>
<path fill-rule="evenodd" clip-rule="evenodd" d="M40.386 503.379C38.3278 503.667 36.3397 504.332 34.5204 505.341C34.7453 504.771 34.974 504.193 35.1989 503.635C31.7077 506.385 29.5505 509.754 28.9978 513.869L28.4033 509.517C27.4123 514.829 28.1289 519.238 31.8868 522.053L30.6634 521.923C36.5023 530.168 52.6051 530.375 58.2039 520.374C57.3273 522.516 56.9348 525.644 58.4822 526.78L83.3853 527.767L92.7345 527.51H104.29C105.575 527.51 106.085 525.682 104.889 524.527L99.7015 521.032C98.318 515.246 98.3523 507.062 101.512 502.262C96.7287 506.025 96.622 516.148 97.5062 521.456C97.9903 523.231 99.7206 524.703 101.489 525.721C99.5824 524.985 97.9088 523.747 96.6449 522.137C95.5853 511.934 96.6449 504.006 102.827 499.956C102.785 500.549 102.743 501.141 102.697 501.734C104.481 500.53 106.009 497.86 106.566 495.351C106.474 496.342 106.383 497.336 106.287 498.327C108.047 495.849 109.111 492.944 109.371 489.913C109.516 490.777 109.658 491.642 109.798 492.506C110.539 489.758 110.838 486.908 110.682 484.066L111.276 487.469C112.576 482.119 110.209 476.807 107.541 471.487C104.45 467.732 102.968 464.152 109.154 461.422C111.982 460.913 113.075 459.578 112.908 457.379H111.383L112.71 455.85C113.155 454.481 113.091 451.88 112.496 451.723L104.062 453.635C101.597 452.053 98.7204 451.239 95.7949 451.295L97.2775 450.316V449.039L99.6101 447.933C96.2332 446.786 94.2132 447.887 93.2109 450.698C91.3179 449.594 89.9331 447.695 89.0565 445C87.1966 448.113 87.2995 455.418 87.2881 462.473C86.9045 462.893 86.4223 463.21 85.8855 463.395C86.405 463.443 86.9282 463.362 87.41 463.162C87.012 464.726 86.2711 466.182 85.2414 467.422L86.8765 467.017C86.442 469.208 85.3024 471.204 83.6254 473.055L85.3253 472.157C84.6909 474.02 83.5228 475.653 81.9675 476.853C65.0529 487.343 58.7909 499.168 56.3898 511.475C54.1982 518.286 39.1512 521.112 38.7739 512.033C39.6073 510.588 40.4407 509.142 41.2741 507.696L38.5223 508.672C38.8767 506.817 39.5198 505.029 40.428 503.375" fill="#0062AF"/>
<path fill-rule="evenodd" clip-rule="evenodd" d="M179.79 511.718C188.655 514.287 187.533 520.461 182.225 526.631C189.574 521.687 190.579 512.409 179.79 511.718ZM170.941 512.96C170.113 517.499 170.941 522.038 172.956 526.577C165.286 526.033 163.256 518.972 170.941 512.96ZM195.206 528C195.206 525.717 194.776 525.281 193.456 523.407C193.271 518.463 194.742 514.063 196.741 509.84C198.556 506.011 196.193 499.791 196.635 495.14C196.298 495.027 195.988 494.844 195.724 494.602C195.46 494.361 195.247 494.066 195.101 493.736C197.977 494.365 200.253 493.713 200.873 489.521C201.104 488.669 201.089 488.087 200.238 487.736L198.174 487.142C197.989 486.162 197.535 484.79 196.284 484.203L194.881 483.987C194.976 482.95 194.878 481.903 194.59 480.902C193.687 481.362 192.975 482.136 192.583 483.085H191.948C191.946 481.96 191.563 480.87 190.863 480C187.945 483.96 185.518 488.723 184.436 495.711L174.332 506.042C173.768 504.785 172.801 503.761 171.591 503.138C168.741 501.823 168.007 505.163 169.659 505.618C171.221 506.285 171.969 507.893 170.929 508.988C164.053 513.257 159.177 522.84 167.043 527.965L195.206 528Z" fill="white"/>
</svg>
