<svg width="723" height="800" viewBox="0 0 723 800" fill="none" xmlns="http://www.w3.org/2000/svg">
<path d="M1 7.99999C1 3.58171 4.58172 0 9 0H721V800H9.00002C4.58174 800 1 796.418 1 792V7.99999Z" fill="#103559"/>
<circle cx="514.91" cy="498.512" r="83.4883" fill="#0062AF"/>
<path d="M680.818 728.825C632.243 725.3 550.939 719.394 481.515 712.476C443.106 708.648 413.036 704.965 392.149 701.527C384.2 700.221 377.883 698.993 372.887 697.857L396.569 686.875C397.448 686.46 398.127 686.116 398.674 685.83C400.745 684.755 401.11 684.56 404.498 685.481L423.479 690.628C424.026 690.777 424.498 690.914 424.908 691.043C426.375 691.458 427.041 691.657 427.443 691.35C427.845 691.043 427.812 690.429 427.775 689.064C427.775 688.471 427.737 687.729 427.746 686.829L427.932 668.792C427.978 664.749 427.05 664.462 424.299 663.604C423.504 663.355 422.518 663.048 421.35 662.584L408.893 657.607C408.433 657.424 408.036 657.258 407.696 657.117C406.453 656.607 405.965 656.392 405.625 656.636C405.285 656.881 405.318 657.4 405.372 658.561C405.372 659.058 405.426 659.681 405.43 660.427L405.612 677.319C405.646 680.305 405.037 681.728 404.506 682.035C404.443 682.071 404.372 682.09 404.299 682.09C404.227 682.09 404.155 682.071 404.092 682.035C403.533 681.703 402.986 680.218 403.028 677.647L404.303 599.042C426.756 587.973 477.298 571.346 507.298 561.48C514.108 559.24 519.986 557.307 524.133 555.897L525.247 555.512C526.328 555.13 527.045 554.881 527.236 555.026C527.426 555.172 527.368 555.835 527.31 556.768C527.269 557.399 527.219 558.183 527.202 559.165L526.303 611.372C522.849 610.273 517.745 613.122 515.603 614.474C511.875 616.818 507.923 620.422 508.002 622.16L508.342 629.529C508.441 631.732 510.695 634 514.862 636.082C525.355 641.333 547.264 644.696 553.031 640.756C554.075 640.039 554.555 639.122 554.46 638.019C554.294 636.223 554.273 634.701 554.257 633.353C554.195 628.957 554.158 626.535 549.033 623.968L545.168 622.035C540.91 619.903 540.438 618.978 540.429 618.68C540.429 618.643 540.429 618.539 540.616 618.435C541.552 617.925 545.086 618.435 546.672 619.509L553.884 624.345C558.83 627.663 566.502 626.937 571.059 624.316C574.041 622.603 575.616 620.248 575.433 617.68L573.776 590.789C573.362 584.319 560.384 565.428 551.792 552.928C549.588 549.73 547.691 546.964 546.502 545.131C544.675 542.298 543.271 540.984 542.244 541.046C541.989 541.081 541.75 541.188 541.555 541.355C541.36 541.522 541.216 541.741 541.142 541.987C539.783 545.048 541.598 554.707 543.176 556.756L546.262 560.766C551.962 568.165 557.662 575.564 563.362 582.963C565.508 585.75 565.495 588.213 565.479 591.336C565.479 592.261 565.479 593.224 565.516 594.277L566.1 607.059C566.341 612.384 565.566 615.113 565.065 615.142C564.771 615.142 563.996 614.06 563.615 608.842L562.529 594.07C562.355 591.672 560.748 590.416 557.832 590.47C552.032 590.557 541.569 596.446 541.386 600.635L540.922 611.306C540.81 613.919 540.094 615.271 539.427 615.271C538.839 615.25 537.94 613.981 538.018 610.663L540.235 517.514C540.359 512.429 537.492 510.024 534.775 509.937H534.588C531.83 509.937 528.996 512.28 528.822 516.85L528.54 524.361C523.826 521.586 515.985 519.708 512.459 519.289C508.843 518.874 503.491 518.53 502.016 518.758C500.541 518.986 497.704 521.064 496.598 522.731C496.184 523.357 496.022 523.892 496.13 524.324C496.884 527.33 505.778 526.891 508.702 526.746H508.83C514.029 526.489 522.729 526.053 525.479 529.732C525.856 530.238 526.188 530.748 526.482 531.2C527.132 532.204 527.526 532.805 527.965 532.685C528.404 532.564 528.677 531.776 528.826 527.845L528.93 525.087C529.964 525.692 530.848 526.525 531.515 527.521C533.851 531.503 534.642 534.248 533.748 535.252C533.014 536.081 531.018 535.795 527.973 534.443C526.941 533.987 519.299 531.125 514.232 529.5C510.417 528.28 507.857 528.276 505.144 528.276C503.391 528.308 501.637 528.225 499.895 528.027C495.947 527.534 493.681 526.484 493.304 524.996C492.928 523.507 494.44 521.512 497.526 519.384C500.285 517.481 503.164 514.54 506.225 511.421C512.642 504.856 519.282 498.063 526.109 499.431C527.24 499.655 530.508 500.053 533.387 500.402C535.699 500.68 537.882 500.945 538.482 501.065C539.311 501.231 540.355 500.576 540.752 499.635C541.15 498.693 540.819 497.806 539.87 497.146C538.851 496.445 536.825 496.105 534.684 495.748C532.198 495.334 529.667 494.919 529.046 493.936C529.009 493.894 528.987 493.842 528.982 493.787C528.978 493.731 528.991 493.676 529.021 493.629C529.808 492.385 538.549 492.078 540.674 492.343C543.014 492.638 545.819 491.721 547.989 489.95C549.725 488.54 550.757 486.832 550.889 485.144C550.933 484.715 550.873 484.282 550.714 483.881C550.555 483.481 550.303 483.124 549.978 482.842C548.93 481.892 547.115 481.494 545.541 481.531C543.819 481.124 542.053 480.934 540.284 480.967C533.209 480.967 531.751 478.827 530.206 476.563C528.549 474.108 526.809 471.586 518.193 471.586C517.778 471.586 517.041 471.507 516.121 471.412H516.084C515.902 470.271 515.67 469.23 515.483 468.455C514.307 463.64 508.027 461.923 502.534 461.923H501.983C500.483 461.923 498.433 461.881 497.675 462.831C497.528 463.028 497.429 463.257 497.387 463.499C497.346 463.741 497.362 463.99 497.435 464.224C497.704 465.373 499.067 466.265 500.388 467.128C500.67 467.314 500.956 467.501 501.217 467.688C502.737 468.737 503.429 469.852 503.267 471.005C502.878 473.85 497.522 476.646 492.642 478.317C489.411 479.42 486.569 480.391 484.013 481.22C469.701 486.027 464.344 487.827 450.438 496.118C430.968 507.73 415.451 512.247 393.202 512.777L391.565 512.806C388.334 512.852 383.45 512.923 379.805 513.636C374.975 514.59 372.667 518.256 371.391 522.379C371.214 521.741 370.9 521.149 370.472 520.645C370.248 520.382 369.939 520.207 369.599 520.148C369.26 520.09 368.91 520.153 368.612 520.326C356.048 526.58 354.619 526.41 342.883 517.31L342.377 516.916C336.164 512.114 330.837 507.967 321.599 509.057C316.363 509.675 309.838 511.438 307.896 513.852C307.436 514.393 307.161 515.068 307.114 515.778C307.066 516.487 307.247 517.193 307.63 517.792C309.196 520.628 313.977 523.117 317.543 523.988C317.388 524.222 317.271 524.48 317.195 524.751C316.408 527.708 321.296 531.362 331.719 535.613C340.24 539.088 358.595 541.125 366.516 536.82C368.413 535.783 369.531 534.439 369.83 532.822C369.995 531.938 370.14 530.955 370.298 529.918C370.567 528.098 370.869 526.07 371.362 524.087C372.357 529.653 371.462 540.237 369.171 544.339C368.061 546.325 364.42 545.583 360.198 544.753C354.614 543.634 347.663 542.236 343.214 546.412C341.702 547.831 340.397 551.033 339.25 553.878C338.989 554.516 338.736 555.122 338.5 555.694C337.096 558.979 334.441 558.784 332.104 558.597C330.733 558.502 329.552 558.415 328.848 559.07C328.626 559.31 328.457 559.593 328.352 559.903C328.247 560.212 328.209 560.541 328.239 560.866C328.239 564.043 330.895 568.821 335.223 569.38C339.01 569.87 342.212 568.19 344.001 564.777C344.204 564.387 344.469 563.86 344.784 563.246C345.712 561.413 347.116 558.639 348.438 556.374C349.619 554.346 351.044 553.106 352.672 552.691C354.689 552.181 356.69 553.036 358.015 553.844C358.613 554.185 359.122 554.661 359.503 555.234C355.36 553.679 352.104 552.526 349.486 557.117C348.057 559.626 346.669 563.114 346.334 565.051C346.11 566.332 346.383 567.203 347.162 567.634C349.03 568.7 353.231 566.568 354.863 565.175C357.042 563.313 360.662 559.73 360.41 556.615C360.394 556.395 360.356 556.177 360.298 555.964C360.977 556.217 361.677 556.47 362.411 556.706C368.802 558.78 380.509 562.554 390.994 562.554C392.137 562.554 393.268 562.508 394.374 562.409C394.399 569.745 394.444 579.04 394.506 589.113L392.129 589.943C386.101 592.017 370.961 621.907 361.913 639.753C360.865 641.826 359.917 643.693 359.097 645.293C355.567 652.19 355.103 674.01 354.792 688.451L354.751 690.375C354.701 692.826 360.285 695.352 371.615 698.035L363.057 702.004C360.493 703.194 358.177 702.004 356.487 701.125C355.393 700.557 354.602 700.146 354.047 700.507C353.599 700.797 353.434 701.54 353.504 702.921C353.877 710.183 353.724 734.441 336.044 741.454C326.537 745.236 302.668 743.681 279.292 737.75C252.564 730.953 233.845 720.497 229.143 709.747C227.9 706.869 227.246 704.132 226.624 701.486C225.046 694.73 223.799 689.392 213.339 687.231C209.52 686.443 204.806 684.938 201.678 682.114C202.378 681.699 203.306 681.736 204.971 682.358L205.605 682.595C210.344 684.37 213.207 685.444 217.072 680.849C220.858 676.349 226.599 668.042 230.796 661.978L230.833 661.92C232.241 659.888 235.734 656.4 240.154 651.966C252.763 639.375 273.865 618.302 272.117 603.944C271.976 603.005 271.697 602.093 271.288 601.236L273.385 603.177C284.785 613.67 288.637 618.551 288.658 622.524C288.658 625.842 285.787 628.575 281.413 632.685C277.358 636.372 273.571 640.343 270.079 644.568C268.836 646.086 266.11 648.897 263.215 651.875C260.319 654.853 257.225 658.071 255.199 660.394C250.228 666.134 255.352 670.762 259.482 674.495C260.623 675.471 261.693 676.527 262.684 677.655C262.921 677.939 263.122 678.251 263.281 678.584C258.873 680.459 255.825 680.849 253.956 679.779C251.918 678.605 251.641 675.814 251.392 673.35C251.193 671.339 251.015 669.618 249.951 668.95C249.35 668.585 248.542 668.614 247.465 669.037C243.008 670.816 234.532 675.461 232.826 677.274C229.557 680.753 235.518 689.156 238.062 692.743L238.393 693.212C240.626 696.376 242.498 699.055 244.607 702.336C248.878 709.046 255.116 717.088 260.597 717.333C262.569 717.428 264.325 716.503 265.8 714.571C266.964 713.061 265.568 708.209 263.952 702.589C262.196 696.463 260.199 689.517 261.533 686.464C261.815 685.813 262.163 685.162 262.498 684.536C263.496 682.669 264.52 680.753 263.828 678.791L264.478 678.505C269.992 676.017 306.201 649.059 316.197 633.975C320.054 628.169 316.744 618.63 313.297 611.646C309.673 604.334 305.692 598.337 301.843 592.543C297.552 586.078 293.111 579.396 289.308 571.014C286.077 563.893 279.876 564.793 272.697 565.884H272.577C266.33 566.813 255.464 566.643 248.099 564.76C245.638 564.13 243.708 563.101 242.328 561.641C243.923 561.057 246.666 561.588 249.553 562.143C251.607 562.592 253.69 562.899 255.787 563.06L258.119 563.18C266.404 563.595 275.833 564.088 283.036 563.338C291.607 562.45 292.415 558.361 294.022 550.216C294.358 548.515 294.739 546.587 295.232 544.476C298.074 532.324 302.361 508.688 302.581 506.15C302.676 505.072 302.722 500.207 302.755 494.268C307.253 495.753 317.883 494.77 320.211 494.533C320.532 494.503 320.842 494.406 321.124 494.25C321.405 494.094 321.652 493.881 321.847 493.625C323.699 491.286 322.891 484.978 322.112 478.873C321.495 474.045 320.911 469.487 321.963 468.393C322.042 468.308 322.14 468.243 322.249 468.204C322.358 468.165 322.474 468.153 322.589 468.169L322.978 468.202C323.007 468.795 322.978 469.753 322.978 470.968V471.798C322.904 479.926 323.243 488.283 326.338 488.644C333.024 489.428 356.118 483.551 371.396 479.661C378.964 477.732 384.941 476.214 385.807 476.293C386.768 476.451 387.687 476.797 388.512 477.313C391.118 478.732 398.388 478.914 401.06 477.629C401.702 477.318 402.066 476.932 402.145 476.484C402.356 475.294 400.231 474.543 398.003 473.755C396.018 473.054 393.765 472.262 393.736 471.267C393.711 470.499 395.024 469.55 397.634 468.451C399.767 467.551 402.456 466.663 405.057 465.805C408.148 464.784 411.068 463.822 412.539 462.997C413.939 462.205 414.544 461.52 414.382 460.898C414.018 459.513 409.912 459.472 409.444 459.472C406.81 459.472 393.769 462.789 390.207 463.839C381.996 466.273 373.264 467.182 364.821 468.057L364.043 468.135C358.802 468.683 352.075 469.301 346.557 469.226C339.101 469.127 327.676 468.181 323.359 467.804C322.709 465.294 316.599 462.657 311.234 462.657H311.044C307.924 462.694 302.676 463.694 302.556 469.969C302.465 474.497 302.427 481.714 302.394 488.694C302.394 490.382 302.394 492.049 302.365 493.646C302.095 493.532 301.842 493.383 301.611 493.202C301.479 493.104 301.369 492.98 301.288 492.837C301.206 492.694 301.156 492.536 301.139 492.373C300.944 489.884 301.181 484.907 301.429 479.611C301.798 471.806 302.142 464.432 301.297 463.047C300.978 462.526 300.555 462.077 300.054 461.728V461.728C300.034 461.71 300.012 461.696 299.988 461.686V461.686C299.457 461.404 299.072 461.952 298.79 462.366C298.663 462.571 298.513 462.76 298.343 462.931L297.568 463.607C297.71 462.818 297.74 462.014 297.659 461.218C297.543 460.185 297.075 459.679 296.558 459.438C296.877 458.899 297.113 458.468 297.237 458.236C298.211 456.508 298.506 454.479 298.065 452.546C299.892 453.981 301.645 455.109 302.949 455.519C304.354 455.959 305.576 455.851 306.591 455.196C308.165 454.184 308.811 452.089 308.931 451.123C309.006 450.53 308.405 449.605 307.767 448.635C307.204 447.768 306.499 446.685 306.673 446.283C306.727 446.154 306.785 446.138 306.802 446.134C307.03 446.072 307.556 446.437 308.065 446.789C308.605 447.196 309.187 447.544 309.801 447.826C311.578 448.564 312.208 447.983 312.904 447.079C313.161 446.743 313.372 446.432 313.554 446.163C314.213 445.192 314.432 444.865 315.335 445.371C316.164 445.831 316.632 445.939 316.914 445.723C317.303 445.429 317.121 444.686 316.843 443.571C316.429 441.97 315.907 439.78 316.802 437.988C317.035 437.596 317.289 437.216 317.564 436.852C319.457 434.202 323.885 427.989 321.102 423.813C319.693 421.698 317.958 420.54 315.936 420.37C311.296 419.981 306.189 424.717 302.266 428.885C300.783 430.461 299.631 431.17 298.753 431.058C297.796 430.934 297.2 429.835 296.57 428.673L296.346 428.259C294.727 425.356 292.8 425.77 291.79 426.318C289.586 427.479 288.007 430.776 288.645 432.049C289.232 433.266 290.081 434.337 291.131 435.185C291.263 435.286 291.385 435.4 291.495 435.525C291.02 435.766 290.524 435.963 290.012 436.114C289.577 436.263 289.043 436.45 288.397 436.686C286.081 437.516 284.109 437.789 282.535 437.474C282.589 436.993 282.643 436.495 282.701 435.977C283.592 427.682 284.942 415.107 292.254 411.221C296.243 409.106 301.649 409.828 308.318 413.374C319.354 419.242 324.001 421.088 324.888 419.96C325.344 419.379 324.768 418.23 323.02 416.227C318.579 411.122 308.136 402.3 305.431 401.06C297.456 397.407 290.423 403.901 286.939 408.111C279.354 417.235 275.568 430.697 279.151 435.794C279.851 436.797 280.89 437.513 282.075 437.81C281.79 440.348 281.508 442.297 281.027 443.168C280.394 444.326 279.909 445.371 279.482 446.295C279.225 446.851 278.985 447.374 278.757 447.818C277.37 450.513 277.481 454.113 279.101 458.85C279.93 461.338 281.723 466.526 284.213 468.948C287.295 471.947 292.697 468.281 296.827 464.822C296.276 466.626 295.054 468.857 292.49 471.175C290.903 472.606 289.304 473.15 287.73 472.785C282.925 471.677 279.205 462.478 277.419 458.057C277.208 457.535 277.005 457.066 276.856 456.676C275.961 454.549 274.511 451.799 272.27 452.483C264.449 454.881 242.573 469.421 240.841 472.76C239.213 475.895 241.728 479.395 244.155 482.759C246.516 486.035 248.762 489.154 247.001 491.643C244.458 485.384 241.322 478.019 237.473 477.206C236.231 476.94 234.959 477.405 233.745 478.587C228.749 483.431 224.773 487.4 221.922 490.373C213.223 499.46 211.065 514.092 209.16 526.999C208.745 529.707 208.381 532.266 207.954 534.767C207.54 537.11 206.591 543.061 206.367 547.897C206.322 548.847 206.032 550.639 205.725 552.53C204.971 557.212 204.524 560.318 205.17 560.887C205.904 561.534 206.413 561.753 206.798 561.596C207.184 561.438 207.333 561.061 207.399 560.352C207.432 560.003 207.432 559.315 207.436 558.444C207.436 557.038 207.436 555.126 207.602 553.695C207.805 551.758 208.178 551.696 208.182 551.696C208.526 551.725 209.255 553.674 209.11 556.138C209.11 556.449 208.981 557.117 208.853 557.892C208.484 560.115 207.979 563.164 208.439 564.205C208.899 565.246 210.51 565.926 211.421 565.727C211.659 565.695 211.876 565.575 212.029 565.39C212.183 565.206 212.261 564.971 212.25 564.731C212.25 564.42 212.196 563.678 212.126 562.658C211.956 560.269 211.711 556.66 211.798 554.218C211.873 552.318 212.312 551.957 212.449 551.891C212.482 551.891 212.594 551.816 212.78 551.949C213.265 552.293 213.691 553.467 213.534 554.769C213.534 554.856 212.734 563.732 214.362 564.188C215.319 564.449 216.968 564.516 217.643 563.831C217.792 563.674 217.893 563.478 217.934 563.266C217.976 563.054 217.957 562.834 217.879 562.633L217.834 562.471C216.649 558.419 215.986 555.553 215.862 553.952C215.783 552.949 215.995 552.708 216.082 552.679C216.293 552.654 216.72 553.127 216.885 553.828C217.005 554.458 217.066 555.098 217.068 555.74C217.117 557.162 217.175 558.643 218.194 559.195C218.279 559.247 218.376 559.275 218.476 559.275C218.576 559.275 218.673 559.247 218.758 559.195C219.565 558.697 219.516 555.59 219.346 550.9C219.3 549.697 219.259 548.557 219.259 547.669C219.225 547.09 219.271 546.51 219.396 545.944C219.785 546.479 220.564 549.498 220.564 550.863C220.564 551.186 220.564 551.485 220.531 551.775C220.468 552.725 220.419 553.546 221.297 553.849C221.394 553.887 221.498 553.904 221.602 553.897C221.706 553.89 221.807 553.859 221.898 553.807C222.391 553.525 222.647 552.642 222.9 551.319C223.468 548.299 222.643 544.223 221.769 539.905C221.177 536.981 220.568 533.962 220.431 531.308C219.793 518.886 228.434 506.009 246.115 493.065C246.387 492.865 246.643 492.645 246.881 492.406L246.947 492.567C247.266 493.36 247.577 494.119 247.875 494.832C248.121 495.509 248.521 496.12 249.043 496.617C249.565 497.113 250.194 497.482 250.883 497.694C251.421 497.852 251.979 497.933 252.54 497.934C250.957 499.635 249.872 501.356 249.64 502.961C248.878 508.684 247.801 520.657 247.929 524.842C247.966 526.049 248.488 526.849 249.449 527.189C249.107 527.596 248.804 528.035 248.546 528.5C243.807 537.562 236.649 551.257 240.261 559.348C240.608 560.133 241.065 560.863 241.62 561.517C241.491 561.597 241.369 561.689 241.255 561.791C240.572 562.417 240.307 563.396 240.452 564.781C240.768 567.106 241.254 569.404 241.906 571.657C243.016 575.912 244.163 580.317 243.633 584.796C243.016 590.005 239.077 608.817 236.135 618.883C234.425 624.727 230.104 630.18 222.54 636.037C216.86 640.487 202.71 659.058 198.865 669.518C197.445 673.383 197.515 676.768 199.077 679.58C199.601 680.499 200.257 681.338 201.024 682.068C200.497 682.634 200.043 683.264 199.673 683.943C198.892 685.28 197.971 686.532 196.927 687.675C196.565 688.058 196.168 688.407 195.742 688.716C194.938 687.148 194.168 685.846 191.687 686.17C178.377 687.924 106.542 713.691 100.689 719.9C82.6151 739.106 20.0513 768.071 1.1077 763.016L1 763.431C2.71484 763.847 4.4759 764.042 6.24023 764.011C16.0952 764.011 32.1804 759.449 51.0246 751.154C72.6607 741.615 92.2754 729.497 100.987 720.253C103.448 717.648 120.076 710.448 143.352 701.917C165.635 693.747 185.535 687.472 191.74 686.655C193.969 686.36 194.599 687.484 195.398 689.027C194.153 689.837 192.863 690.575 191.533 691.238C188.045 693.071 184.437 694.97 183.472 698.085C182.971 699.715 183.244 701.486 184.301 703.497C187.706 709.905 198.273 722.26 204.872 725.387C208.186 726.955 214.686 727.693 216.981 725.242C218.29 723.848 218.149 721.692 216.566 718.834C215.63 717.146 214.81 715.89 214.151 714.882C212.192 711.879 211.38 710.635 211.703 704.874C211.956 700.37 212.337 693.564 209.897 691.955C209.106 691.433 208.078 691.478 206.848 692.092L206.537 692.245C205.021 693.009 203.132 693.958 200.933 693.407C197.793 692.619 196.769 690.806 195.924 689.16C196.393 688.825 196.828 688.446 197.225 688.028C198.287 686.856 199.223 685.576 200.017 684.208C200.37 683.55 200.81 682.943 201.326 682.404C204.528 685.307 209.346 686.875 213.248 687.679C223.447 689.786 224.669 695.008 226.214 701.623C226.84 704.285 227.482 707.039 228.753 709.955C231.305 715.798 237.569 721.381 247.395 726.544C255.912 731.027 266.902 735.042 279.167 738.157C294.002 741.918 309.043 743.921 320.522 743.921C327.187 743.921 332.655 743.245 336.176 741.848C354.109 734.71 354.275 710.241 353.898 702.908C353.836 701.743 353.956 701.054 354.25 700.864C354.606 700.636 355.381 701.034 356.28 701.498C358.044 702.415 360.464 703.663 363.21 702.39L372.253 698.197C391.872 702.73 428.094 707.607 481.486 712.928C550.914 719.821 632.218 725.723 680.818 729.24C701.215 730.72 715.959 731.79 721 732.301L721.041 731.886C715.971 731.392 701.232 730.318 680.818 728.825ZM528.412 527.832C528.275 531.399 528.035 532.224 527.857 532.291C527.695 532.291 527.19 531.536 526.825 530.976C526.531 530.52 526.196 530.006 525.811 529.487C523.81 526.812 519.249 526.169 514.075 526.169C512.364 526.169 510.587 526.24 508.81 526.327H508.681C501.067 526.7 496.979 525.995 496.532 524.22C496.504 523.767 496.652 523.321 496.946 522.976C498.068 521.28 500.836 519.372 502.082 519.181C503.329 518.99 508.495 519.243 512.414 519.712C516.676 520.222 524.166 522.2 528.528 524.838L528.412 527.832ZM369.875 529.852C369.722 530.889 369.573 531.872 369.411 532.755C369.13 534.244 368.082 535.492 366.296 536.488C359.184 540.366 341.122 539.034 331.876 535.244C319.619 530.242 317.315 526.99 317.543 525.141C317.592 524.763 317.735 524.404 317.958 524.096C318.757 524.292 319.581 524.36 320.402 524.299C331.454 522.984 337.063 521.781 337.071 520.72C337.071 520.334 336.59 520.098 335.497 519.948C331.665 519.43 320.658 520.297 317.792 523.648C314.32 522.855 309.507 520.404 307.978 517.609C307.282 516.365 307.357 515.179 308.202 514.129C310.074 511.803 316.487 510.094 321.632 509.484C330.704 508.414 335.716 512.317 342.108 517.261L342.609 517.655C354.54 526.899 356.006 527.073 368.769 520.724C368.988 520.591 369.248 520.542 369.5 520.584C369.752 520.627 369.981 520.759 370.145 520.956C370.653 521.605 370.995 522.368 371.143 523.179C370.585 525.375 370.161 527.604 369.875 529.852V529.852ZM318.272 523.735C319.59 522.354 322.626 521.246 326.996 520.641C332.249 519.894 336.474 520.226 336.673 520.699C336.644 520.827 335.94 522.026 320.373 523.876C319.669 523.931 318.962 523.884 318.272 523.735ZM323.376 471.851V471.022C323.376 469.836 323.397 468.894 323.376 468.289C327.763 468.675 339.088 469.608 346.508 469.707C352.054 469.782 358.79 469.164 364.038 468.617L364.817 468.534C373.28 467.658 382.029 466.75 390.277 464.303C393.827 463.254 406.797 459.953 409.399 459.953C411.47 459.953 413.744 460.347 413.955 461.068C414.013 461.296 413.881 461.815 412.298 462.698C410.861 463.507 407.961 464.465 404.892 465.477C402.282 466.34 399.581 467.227 397.435 468.135C394.573 469.338 393.255 470.363 393.293 471.345C393.33 472.61 395.521 473.382 397.849 474.195C399.743 474.862 401.892 475.617 401.743 476.459C401.689 476.77 401.4 477.056 400.886 477.289C398.351 478.533 391.184 478.334 388.715 476.986C387.473 476.31 386.644 475.99 385.849 475.916C384.917 475.825 379.221 477.284 371.3 479.296C356.048 483.19 332.978 489.055 326.367 488.279C323.227 487.914 323.322 476.667 323.376 471.851ZM302.775 488.768C302.809 481.788 302.846 474.572 302.937 470.047C303.049 464.121 308.045 463.175 311.015 463.142C316.33 463.072 322.096 465.713 322.879 467.829L322.614 467.804C322.437 467.782 322.259 467.802 322.092 467.863C321.925 467.923 321.774 468.022 321.653 468.152C320.46 469.396 321.031 473.834 321.686 478.977C322.423 484.712 323.256 491.215 321.508 493.418C321.347 493.631 321.144 493.808 320.91 493.938C320.677 494.067 320.419 494.146 320.153 494.168C313.881 494.815 306.098 495.052 302.755 493.878C302.755 492.231 302.763 490.51 302.775 488.768ZM245.858 492.767C228.066 505.81 219.367 518.795 220.013 531.366C220.15 534.049 220.767 537.085 221.359 540.025C222.225 544.301 223.041 548.341 222.49 551.277C222.366 551.92 222.113 553.251 221.691 553.492C221.651 553.513 221.607 553.523 221.562 553.523C221.517 553.523 221.473 553.513 221.434 553.492C220.874 553.293 220.879 552.812 220.937 551.833C220.937 551.551 220.974 551.232 220.974 550.896C220.974 549.651 220.17 545.919 219.532 545.55C219.483 545.521 219.427 545.506 219.371 545.506C219.314 545.506 219.258 545.521 219.209 545.55C219.031 545.653 218.841 545.915 218.841 547.711C218.841 548.602 218.882 549.743 218.927 550.954C219.035 553.944 219.201 558.46 218.538 558.871C218.517 558.871 218.484 558.904 218.389 558.85C217.56 558.398 217.523 557.046 217.478 555.744C217.473 555.074 217.408 554.407 217.283 553.749C217.101 552.978 216.566 552.198 216.011 552.285C215.696 552.335 215.34 552.675 215.444 554.002C215.572 555.632 216.239 558.527 217.432 562.604L217.478 562.765C217.532 562.897 217.549 563.04 217.525 563.181C217.502 563.321 217.439 563.451 217.345 563.558C216.815 564.093 215.336 564.043 214.47 563.802C213.604 563.562 213.642 557.382 213.94 554.836C214.114 553.363 213.604 552.049 213.012 551.626C212.906 551.542 212.78 551.489 212.646 551.473C212.512 551.457 212.376 551.478 212.254 551.534C211.736 551.792 211.425 552.721 211.376 554.218C211.28 556.681 211.533 560.306 211.703 562.703C211.773 563.682 211.827 564.453 211.827 564.752C211.839 564.895 211.794 565.036 211.703 565.146C211.611 565.256 211.481 565.326 211.338 565.341C210.84 565.386 210.34 565.289 209.894 565.062C209.448 564.834 209.076 564.485 208.82 564.055C208.406 563.126 208.94 559.908 209.234 557.979C209.371 557.15 209.478 556.515 209.499 556.184C209.623 554.031 209.085 551.377 208.194 551.302H208.153C207.656 551.302 207.324 552.078 207.163 553.67C207.01 555.118 207.005 557.05 206.997 558.46C206.997 559.29 206.997 560.003 206.96 560.335C206.914 560.833 206.794 561.165 206.62 561.214C206.446 561.264 206.14 561.214 205.419 560.58C204.893 560.119 205.626 555.603 206.111 552.6C206.421 550.697 206.711 548.893 206.757 547.922C206.976 543.119 207.933 537.176 208.335 534.841C208.749 532.353 209.164 529.777 209.545 527.065C211.442 514.208 213.592 499.655 222.196 490.664C225.042 487.694 229.014 483.729 234.006 478.885C235.137 477.795 236.235 477.376 237.366 477.616C241.04 478.392 244.275 486.093 246.678 492.016C246.432 492.295 246.157 492.546 245.858 492.767V492.767ZM200.841 693.78C203.19 694.369 205.154 693.365 206.732 692.59L207.043 692.432C208.145 691.885 209.01 691.831 209.677 692.275C211.918 693.751 211.546 700.412 211.297 704.82C210.966 710.718 211.856 712.086 213.812 715.077C214.47 716.084 215.286 717.333 216.214 719.008C217.701 721.687 217.871 723.682 216.691 724.931C214.52 727.249 208.252 726.498 205.058 724.985C198.969 722.081 188.414 710.303 184.682 703.273C183.667 701.361 183.402 699.698 183.853 698.18C184.764 695.223 188.294 693.369 191.724 691.574C193.05 690.91 194.339 690.175 195.585 689.371C196.434 691.014 197.561 692.959 200.841 693.78ZM262.125 684.374C261.786 685.008 261.433 685.664 261.144 686.331C259.752 689.521 261.769 696.542 263.546 702.734C265.066 708.018 266.5 713.007 265.464 714.347C264.076 716.155 262.44 717.034 260.609 716.947C255.303 716.711 249.163 708.769 244.951 702.145C242.85 698.827 240.974 696.156 238.737 692.992L238.405 692.523C235.92 689.015 230.096 680.807 233.128 677.572C234.652 675.955 242.917 671.318 247.627 669.439C248.054 669.253 248.512 669.148 248.977 669.128C249.243 669.12 249.505 669.186 249.735 669.319C250.626 669.862 250.8 671.583 250.978 673.408C251.235 675.971 251.525 678.874 253.745 680.156C255.721 681.292 258.898 680.911 263.434 678.986C264.052 680.77 263.111 682.532 262.125 684.374ZM279.495 435.558C276.007 430.581 279.781 417.389 287.262 408.376C289.971 405.112 294.876 400.418 300.654 400.418C302.247 400.423 303.818 400.776 305.261 401.45C307.941 402.694 318.297 411.437 322.713 416.509C324.784 418.894 324.702 419.549 324.565 419.715C323.537 421.013 312.224 415 308.509 413.026C301.707 409.409 296.172 408.687 292.055 410.873C284.549 414.863 283.186 427.55 282.283 435.948C282.229 436.446 282.179 436.931 282.125 437.395C281.057 437.117 280.124 436.466 279.495 435.558V435.558ZM284.503 468.654C282.088 466.302 280.36 461.189 279.491 458.7C277.937 454.159 277.834 450.567 279.126 448.013C279.362 447.56 279.607 447.03 279.863 446.474C280.278 445.557 280.766 444.516 281.396 443.376C281.906 442.447 282.196 440.473 282.486 437.91C283.956 438.196 285.92 438.046 288.534 437.08C289.18 436.844 289.71 436.665 290.145 436.508C291.491 436.039 291.856 435.911 291.91 435.599C291.964 435.288 291.744 435.185 291.392 434.874C290.386 434.062 289.574 433.036 289.014 431.871C288.517 430.876 289.913 427.778 291.98 426.691C293.505 425.886 294.88 426.5 295.973 428.466L296.197 428.881C296.848 430.084 297.523 431.328 298.683 431.477C299.722 431.614 300.949 430.884 302.552 429.179C306.417 425.078 311.425 420.416 315.89 420.793C317.779 420.951 319.416 422.038 320.75 424.049C323.372 427.989 319.059 434.036 317.22 436.62C316.921 437.018 316.644 437.434 316.392 437.864C315.431 439.792 315.977 442.069 316.392 443.732C316.574 444.479 316.806 445.325 316.611 445.458C316.582 445.458 316.383 445.57 315.485 445.068C314.242 444.375 313.828 445.018 313.161 445.993C312.982 446.258 312.775 446.561 312.523 446.889C311.91 447.689 311.454 448.133 309.913 447.507C309.328 447.232 308.773 446.899 308.256 446.511C307.589 446.047 307.059 445.682 306.644 445.798C306.549 445.824 306.462 445.872 306.39 445.94C306.318 446.007 306.263 446.09 306.23 446.184C305.969 446.785 306.644 447.842 307.361 448.925C307.9 449.754 308.513 450.7 308.459 451.144C308.368 451.865 307.804 453.952 306.305 454.918C305.402 455.503 304.292 455.594 302.991 455.196C301.582 454.752 299.714 453.504 297.804 451.952C296.885 448.966 294.49 446.507 292.664 444.985C289.205 442.082 288.857 442.277 288.67 442.376C288.612 442.406 288.565 442.454 288.535 442.513C288.506 442.572 288.497 442.639 288.509 442.704C288.604 443.774 293.132 448.697 297.432 452.181C297.732 453.161 297.83 454.192 297.721 455.212C297.611 456.231 297.296 457.218 296.794 458.111C296.574 458.526 296.334 458.941 296.077 459.355C295.987 459.334 295.896 459.319 295.804 459.31C293.409 459.036 289.213 462.031 288.5 464.075C288.369 464.343 288.342 464.65 288.424 464.936C288.506 465.223 288.691 465.469 288.944 465.626C289.18 465.772 289.445 465.867 289.721 465.902C289.997 465.938 290.277 465.915 290.543 465.834C292.668 465.27 294.979 461.956 296.259 459.849C296.531 459.986 296.76 460.196 296.921 460.455C297.082 460.714 297.168 461.012 297.171 461.317C297.262 462.249 297.196 463.19 296.976 464.1C292.962 467.58 287.465 471.536 284.503 468.654V468.654ZM297.22 451.442C293.268 448.124 289.321 443.757 288.985 442.787C289.25 442.882 290.066 443.326 292.44 445.308C294.08 446.681 296.21 448.838 297.224 451.442H297.22ZM295.891 459.758C294.287 462.375 292.187 465.004 290.476 465.456C290.266 465.524 290.043 465.545 289.823 465.517C289.604 465.49 289.393 465.415 289.205 465.299C288.853 465.079 288.761 464.73 288.935 464.237C289.561 462.433 293.273 459.729 295.518 459.729C295.617 459.729 295.708 459.729 295.799 459.729L295.891 459.758ZM240.655 559.199C237.138 551.29 244.242 537.703 248.94 528.716C249.211 528.219 249.533 527.752 249.901 527.322C250.029 527.349 250.159 527.367 250.29 527.376C253.443 527.65 258.691 524.473 259.097 522.499C259.279 521.632 258.936 521.313 258.617 521.197C257.051 520.637 252.237 524.054 249.768 526.866C248.869 526.613 248.401 525.937 248.368 524.85C248.24 520.682 249.317 508.746 250.075 503.035C250.29 501.426 251.45 499.676 253.124 497.942C256.715 497.723 261.247 495.205 264.723 492.895C271.723 488.213 271.45 487.458 271.351 487.176C271.251 486.894 270.994 486.84 270.551 486.89C268.157 487.151 258.24 492.169 252.97 497.54C252.314 497.575 251.656 497.501 251.023 497.32C250.395 497.124 249.82 496.784 249.344 496.329C248.867 495.874 248.502 495.315 248.277 494.695C247.979 493.982 247.672 493.223 247.353 492.431L247.208 492.082C249.437 489.328 246.939 485.861 244.516 482.502C242.159 479.23 239.723 475.845 241.235 472.938C242.747 470.031 264.056 455.432 272.415 452.869C273.877 452.421 275.174 453.678 276.496 456.826C276.661 457.215 276.848 457.68 277.059 458.203C279.014 463.03 282.647 472.021 287.659 473.179C289.374 473.573 291.102 472.996 292.792 471.47C295.692 468.836 296.935 466.298 297.411 464.336L297.742 464.05L298.6 463.304C298.797 463.111 298.971 462.895 299.118 462.661C299.495 462.113 299.627 462.01 299.809 462.126C300.26 462.444 300.642 462.851 300.932 463.32C301.711 464.594 301.346 472.594 301.002 479.653C300.754 484.949 300.518 489.955 300.712 492.464C300.734 492.681 300.8 492.892 300.907 493.083C301.014 493.273 301.159 493.44 301.334 493.571C301.642 493.814 301.986 494.008 302.353 494.148C302.316 500.149 302.27 505.072 302.175 506.15C301.955 508.68 297.676 532.278 294.838 544.413C294.341 546.529 293.96 548.461 293.625 550.17C292.009 558.361 291.272 562.102 283.003 562.96C275.833 563.703 266.433 563.222 258.148 562.799L255.816 562.678C253.739 562.519 251.675 562.215 249.64 561.77C246.487 561.16 243.708 560.625 242.038 561.355C241.473 560.709 241.007 559.982 240.655 559.199V559.199ZM250.224 526.953C252.709 524.174 257.312 521.147 258.48 521.591C258.571 521.62 258.84 521.719 258.699 522.42C258.327 524.208 253.256 527.235 250.332 526.982L250.224 526.953ZM253.575 497.507C257.933 493.227 265.22 489.158 268.902 487.794C269.495 487.531 270.126 487.365 270.771 487.304C270.832 487.3 270.894 487.309 270.953 487.329V487.329C270.953 487.412 270.924 488.262 264.491 492.567C261.21 494.749 256.984 497.121 253.575 497.507V497.507ZM199.462 679.38C197.962 676.676 197.896 673.408 199.271 669.663C203.02 659.465 217.287 640.698 222.83 636.401C230.468 630.492 234.843 624.971 236.57 619.037C239.52 608.954 243.463 590.105 244.081 584.879C244.619 580.317 243.41 575.684 242.345 571.608C241.694 569.368 241.207 567.083 240.887 564.773C240.758 563.529 240.978 562.666 241.558 562.131C241.671 562.032 241.795 561.946 241.927 561.874C243.364 563.425 245.394 564.545 247.995 565.192C255.41 567.087 266.346 567.265 272.631 566.324H272.755C280.058 565.237 285.824 564.379 288.911 571.214C292.73 579.624 297.175 586.322 301.479 592.78C305.319 598.586 309.296 604.55 312.904 611.858C316.309 618.738 319.581 628.119 315.832 633.776C305.891 648.794 269.789 675.664 264.288 678.153L263.654 678.435C263.484 678.063 263.267 677.714 263.008 677.398C262.001 676.256 260.915 675.187 259.76 674.196C255.555 670.397 250.791 666.092 255.51 660.659C257.527 658.341 260.572 655.21 263.513 652.186C266.454 649.163 269.159 646.38 270.402 644.854C273.883 640.647 277.658 636.693 281.698 633.021C286.152 628.837 289.097 626.07 289.076 622.554C289.056 618.448 285.17 613.487 273.67 602.903L270.771 600.224C267.718 594.513 260.257 587.367 255.315 583.456C251.007 580.06 250.833 580.263 250.651 580.479C250.468 580.694 250.178 581.034 258.902 589.52C262.751 593.253 267.038 597.309 270.41 600.452C271.053 601.556 271.489 602.767 271.699 604.027C273.426 618.182 252.411 639.168 239.855 651.722C235.419 656.151 231.918 659.652 230.489 661.717L230.452 661.771C226.26 667.83 220.51 676.125 216.749 680.612C213.074 684.983 210.473 684.005 205.746 682.234L205.112 681.997C203.19 681.284 202.134 681.305 201.347 681.844C200.6 681.121 199.964 680.291 199.462 679.38V679.38ZM269.718 599.216C261.599 591.631 252.482 582.793 251.181 580.927C252.542 581.794 253.847 582.747 255.087 583.78C259.942 587.608 266.438 593.97 269.698 599.216H269.718ZM403.902 598.802C399.995 600.738 396.946 602.505 395.008 604.044C394.975 599.067 394.946 594.14 394.917 589.379C397.952 588.337 401.013 587.262 404.1 586.156L403.902 598.802ZM404.515 558.834C401.735 560.625 398.38 561.571 394.751 561.94C394.751 558.307 394.73 555.176 394.751 552.691C394.751 548.299 395.658 545.363 397.311 544.418C397.689 544.201 398.118 544.088 398.554 544.09C399.225 544.114 399.878 544.316 400.447 544.675C402.518 545.919 404.689 549.129 404.631 552.687L404.515 558.834ZM404.929 559.062C405.842 558.46 406.69 557.765 407.46 556.988C408.5 555.922 409.846 554.276 411.404 552.372C413.976 549.228 417.178 545.322 420.057 542.833C425.558 538.093 431.917 538.271 439.941 538.47C447.05 538.657 455.898 538.885 466.747 535.679C472.397 534.02 474.407 535.127 476.527 536.314C476.846 536.492 477.165 536.666 477.497 536.836C482.099 539.171 491.254 538.657 500.111 538.163C508.781 537.678 516.966 537.218 520.628 539.316C522.16 540.243 523.569 541.357 524.825 542.634C525.16 542.949 525.479 543.252 525.79 543.526C524.627 544.178 523.389 544.683 522.103 545.031C492.397 554.267 461.776 565.196 432.166 575.763C423.052 579.011 413.74 582.337 404.482 585.601L404.929 559.062ZM395.028 670.186C395.028 672.633 394.453 673.553 394.076 673.558C393.707 673.558 393.144 672.695 393.098 670.837L392.601 649.196C392.522 645.94 390.712 645.248 389.183 645.248H389.138C382.207 645.314 366.632 659.299 366.615 662.978L366.52 684.129C366.52 687.032 365.778 689.002 365.103 689.384C365.05 689.419 364.987 689.438 364.923 689.438C364.859 689.438 364.796 689.419 364.743 689.384C364.283 689.106 363.823 687.754 363.914 684.789L364.672 656.081C364.813 650.652 381.946 624.038 391.151 609.738L393.376 606.279C393.72 605.775 394.128 605.318 394.589 604.919C394.755 632.569 394.987 661.414 395.037 670.186H395.028ZM404.1 585.742C401.021 586.823 397.954 587.898 394.9 588.968C394.842 578.932 394.796 569.671 394.772 562.367C398.376 562.006 401.727 561.086 404.527 559.344L404.1 585.742ZM526.424 627.879L526.697 611.978L526.834 612.044C528.246 612.803 528.992 614.433 529.054 616.888L529.315 627.389C529.398 630.707 528.578 633.266 527.77 633.747C527.718 633.783 527.655 633.802 527.592 633.802C527.528 633.802 527.466 633.783 527.414 633.747C526.892 633.461 526.357 631.752 526.424 627.879ZM545.516 481.954C547.762 482.568 548.416 483.53 548.598 484.028C548.714 484.409 548.708 484.817 548.58 485.194C548.452 485.571 548.209 485.899 547.886 486.131C547.407 486.519 546.819 486.75 546.204 486.793C545.589 486.835 544.975 486.686 544.448 486.367C543.953 486.057 543.556 485.612 543.303 485.085C543.05 484.558 542.951 483.97 543.018 483.389C543.075 483.036 543.247 482.712 543.508 482.468C543.769 482.224 544.104 482.074 544.46 482.041C544.809 481.986 545.162 481.957 545.516 481.954V481.954ZM514.033 479.628C511.461 480.436 506.842 478.968 504.999 477.243C504.141 476.438 503.702 475.547 503.756 474.734C503.81 473.921 504.286 473.282 505.164 472.66C506.515 471.719 508.648 471.445 510.815 471.445C512.451 471.469 514.086 471.578 515.711 471.773C516.167 474.916 516.279 478.91 514.017 479.628H514.033ZM354.552 564.839C352.701 566.415 348.848 568.128 347.319 567.253C346.731 566.917 346.528 566.195 346.719 565.104C347.046 563.205 348.409 559.775 349.822 557.299C351.114 555.035 352.556 554.259 354.229 554.259C355.77 554.259 357.506 554.91 359.511 555.665L359.755 555.761C359.864 556.038 359.931 556.33 359.954 556.627C360.19 559.667 356.255 563.383 354.552 564.839ZM394.32 552.691C394.32 555.18 394.32 558.332 394.32 561.977C383.135 562.964 369.527 558.572 362.46 556.291C361.632 556.022 360.803 555.723 360.041 555.433C359.635 554.604 358.984 553.919 358.177 553.471C356.18 552.252 354.221 551.837 352.514 552.268C350.807 552.7 349.266 554.015 348.024 556.146C346.702 558.423 345.294 561.198 344.362 563.035C344.047 563.649 343.782 564.175 343.579 564.561C341.876 567.817 338.827 569.414 335.219 568.949C331.18 568.422 328.591 563.798 328.591 560.845C328.564 560.577 328.592 560.306 328.674 560.049C328.756 559.792 328.89 559.555 329.068 559.352C329.639 558.817 330.725 558.9 332.009 558.991C334.366 559.165 337.299 559.381 338.819 555.823C339.059 555.263 339.308 554.645 339.569 554.002C340.704 551.215 341.988 548.059 343.438 546.703C347.738 542.667 354.577 544.04 360.07 545.143C364.444 546.023 368.227 546.802 369.482 544.534C371.806 540.386 372.928 528.695 371.553 523.146C372.758 518.886 374.971 515.017 379.838 514.055C383.446 513.341 388.309 513.275 391.524 513.225C392.141 513.225 392.696 513.225 393.181 513.196C415.509 512.661 431.076 508.132 450.62 496.478C464.489 488.209 469.833 486.413 484.117 481.618C486.672 480.76 489.502 479.806 492.745 478.715C495.169 477.886 503.126 474.887 503.648 471.072C503.831 469.745 503.085 468.488 501.424 467.339C501.15 467.148 500.865 466.962 500.595 466.775C499.353 465.946 498.052 465.116 497.82 464.121C497.762 463.947 497.746 463.762 497.774 463.581C497.803 463.4 497.873 463.228 497.981 463.08C498.615 462.288 500.55 462.313 501.962 462.329H502.517C504.361 462.329 513.623 462.628 515.065 468.55C515.218 469.176 515.446 470.209 515.637 471.362C512.41 471.018 507.443 470.574 504.916 472.333C503.926 473.021 503.396 473.821 503.329 474.709C503.263 475.596 503.744 476.658 504.7 477.55C506.66 479.387 511.399 480.893 514.141 480.038C516.627 479.246 516.627 475.207 516.134 471.843C517.016 471.939 517.716 472.013 518.159 472.013C526.569 472.013 528.234 474.456 529.845 476.82C531.382 479.076 532.969 481.407 540.264 481.407C541.596 481.393 542.928 481.49 544.245 481.697C543.829 481.764 543.445 481.96 543.147 482.258C542.85 482.556 542.654 482.94 542.588 483.356C542.505 484.021 542.615 484.696 542.904 485.301C543.192 485.906 543.647 486.415 544.216 486.769C544.818 487.129 545.517 487.295 546.216 487.246C546.916 487.196 547.584 486.933 548.13 486.492C548.519 486.206 548.808 485.805 548.957 485.346C549.105 484.887 549.106 484.392 548.959 483.933C548.685 483.17 547.994 482.543 546.937 482.066C547.929 482.173 548.87 482.56 549.65 483.182C549.928 483.423 550.143 483.727 550.277 484.068C550.412 484.409 550.463 484.778 550.425 485.144C550.297 486.72 549.319 488.325 547.67 489.664C545.599 491.365 542.898 492.244 540.665 491.966C538.955 491.75 529.634 491.821 528.615 493.443C528.542 493.555 528.506 493.688 528.51 493.822C528.515 493.956 528.56 494.085 528.64 494.193C529.361 495.321 531.883 495.74 534.555 496.188C536.56 496.524 538.636 496.872 539.576 497.519C540.636 498.253 540.496 499.075 540.313 499.502C539.994 500.261 539.153 500.817 538.507 500.688C537.861 500.559 535.802 500.311 533.379 500.016C530.504 499.672 527.248 499.278 526.129 499.054C519.087 497.644 512.376 504.516 505.885 511.16C502.853 514.262 499.99 517.19 497.261 519.073C494.025 521.304 492.468 523.453 492.874 525.12C493.28 526.787 495.62 527.944 499.812 528.467C501.572 528.668 503.344 528.752 505.115 528.72C507.795 528.72 510.326 528.72 514.075 529.923C519.021 531.511 526.78 534.41 527.774 534.85C531.088 536.326 533.159 536.558 534.029 535.559C535.342 534.087 533.565 530.275 531.846 527.339C531.279 526.372 530.243 525.472 528.917 524.643L529.207 516.896C529.373 512.516 532.107 510.306 534.696 510.38C537.215 510.459 539.87 512.732 539.754 517.534L537.538 610.68C537.455 614.093 538.416 615.681 539.348 615.715H539.381C540.425 615.715 541.171 614.01 541.287 611.356L541.751 600.68C541.917 596.948 551.655 591.005 557.786 590.913H557.931C560.52 590.913 561.912 591.992 562.074 594.132L563.155 608.905C563.337 611.393 563.826 615.586 565.011 615.586H565.044C566.109 615.524 566.701 612.019 566.469 607.067L565.885 594.289C565.839 593.244 565.843 592.286 565.848 591.386C565.848 588.184 565.877 585.659 563.644 582.76L546.548 560.563L543.458 556.553C541.962 554.612 540.193 545.094 541.473 542.207C541.672 541.759 541.921 541.531 542.231 541.506C542.84 541.465 543.975 542.099 546.113 545.405C547.302 547.246 549.203 550.012 551.403 553.214C559.452 564.918 572.919 584.51 573.316 590.864L574.973 617.755C575.127 620.152 573.644 622.371 570.806 624.005C566.361 626.56 558.884 627.273 554.066 624.047L546.858 619.211C545.255 618.137 541.498 617.502 540.371 618.116C540.249 618.167 540.145 618.253 540.072 618.363C539.998 618.472 539.958 618.602 539.957 618.734C539.957 619.563 541.614 620.787 544.928 622.466L548.793 624.399C553.689 626.85 553.723 629.044 553.764 633.42C553.764 634.772 553.805 636.302 553.967 638.114C554.05 639.056 553.631 639.848 552.724 640.47C547.463 644.066 526.291 641.432 514.978 635.771C510.951 633.76 508.764 631.624 508.686 629.55L508.346 622.18C508.284 620.807 511.743 617.39 515.753 614.86C519.137 612.724 522.236 611.592 524.539 611.592C525.111 611.585 525.68 611.671 526.225 611.845L525.947 627.908C525.885 631.454 526.312 633.677 527.14 634.158C527.257 634.231 527.392 634.27 527.53 634.27C527.667 634.27 527.802 634.231 527.919 634.158C528.835 633.614 529.758 631.072 529.667 627.431L529.406 616.93C529.34 614.317 528.52 612.567 526.966 611.733C526.859 611.679 526.755 611.625 526.643 611.58L527.542 559.228C527.542 558.253 527.608 557.473 527.65 556.851C527.729 555.607 527.766 555.018 527.414 554.749C527.062 554.479 526.457 554.674 525.036 555.163L523.926 555.549C519.783 556.959 513.901 558.892 507.095 561.131C477.19 570.969 426.901 587.508 404.233 598.648L404.44 586.065C413.748 582.785 423.119 579.429 432.273 576.174C461.88 565.606 492.493 554.682 522.194 545.45C523.557 545.086 524.866 544.543 526.088 543.837C526.741 544.45 527.544 544.88 528.416 545.081C530.019 545.363 532.381 544.418 533.569 543.007C533.927 542.64 534.178 542.181 534.293 541.681C534.409 541.181 534.385 540.658 534.224 540.171C533.503 538.097 530.715 536.359 529.253 536.608C529.002 536.636 528.772 536.76 528.611 536.954C528.45 537.148 528.37 537.397 528.387 537.649C528.387 540.602 527.65 542.211 526.121 543.289C525.79 542.999 525.45 542.676 525.086 542.331C523.805 541.037 522.369 539.908 520.811 538.968C517.041 536.811 508.797 537.272 500.065 537.761C491.262 538.255 482.161 538.765 477.658 536.48C477.331 536.314 477.016 536.139 476.706 535.961C474.601 534.792 472.426 533.576 466.606 535.298C455.836 538.487 447.008 538.255 439.929 538.068C431.789 537.856 425.364 537.686 419.742 542.535C416.843 545.023 413.624 548.967 411.043 552.123C409.49 554.019 408.143 555.657 407.12 556.71C406.441 557.405 405.696 558.031 404.896 558.581L404.991 552.716C405.053 549.005 402.775 545.633 400.604 544.343C399.337 543.592 398.073 543.513 397.05 544.086C395.836 544.778 394.332 546.864 394.332 552.691H394.32ZM526.49 543.567C528.002 542.443 528.843 540.751 528.843 537.645C528.833 537.569 528.839 537.491 528.86 537.418C528.882 537.344 528.918 537.275 528.967 537.216C529.016 537.157 529.076 537.109 529.145 537.074C529.213 537.039 529.288 537.019 529.365 537.015C530.554 536.811 533.192 538.329 533.884 540.303C534.014 540.723 534.029 541.171 533.927 541.598C533.825 542.026 533.61 542.418 533.304 542.734C532.215 544.015 529.99 544.915 528.536 544.658C527.774 544.469 527.073 544.086 526.502 543.547L526.49 543.567ZM372.236 697.72C358.492 694.539 355.107 692.055 355.14 690.367L355.182 688.442C355.488 674.043 355.952 652.278 359.44 645.468C360.269 643.867 361.213 641.992 362.261 639.927C370.687 623.296 386.371 592.377 392.24 590.304L394.482 589.524C394.511 594.347 394.54 599.341 394.573 604.38C393.977 604.856 393.453 605.414 393.015 606.039L390.791 609.498C380.915 624.843 364.391 650.511 364.246 656.052L363.504 684.776C363.43 687.526 363.802 689.288 364.544 689.753C364.661 689.825 364.796 689.864 364.933 689.864C365.071 689.864 365.206 689.825 365.323 689.753C366.267 689.222 366.938 686.912 366.951 684.137L367.046 662.986C367.046 661.373 370.712 657.117 375.555 653.082C381.089 648.47 386.172 645.7 389.158 645.671H389.187C391.147 645.671 392.129 646.832 392.187 649.217L392.688 670.862C392.733 672.736 393.293 673.989 394.08 673.989C394.908 673.989 395.463 672.488 395.443 670.198C395.376 661.389 395.157 632.333 394.979 604.579C396.834 603.04 399.892 601.261 403.864 599.266L402.593 677.651C402.551 680.098 403.04 681.919 403.864 682.404C403.99 682.477 404.133 682.515 404.279 682.515C404.424 682.515 404.567 682.477 404.693 682.404C405.546 681.906 406.035 680.011 406.006 677.323L405.824 660.431C405.824 659.676 405.786 659.054 405.766 658.552C405.724 657.723 405.695 657.084 405.84 656.981C405.985 656.877 406.669 657.155 407.497 657.507C407.841 657.652 408.239 657.818 408.703 658.001L421.159 662.978C422.344 663.446 423.338 663.757 424.138 664.006C426.805 664.836 427.522 665.064 427.481 668.796L427.294 686.833C427.294 687.741 427.294 688.492 427.323 689.085C427.352 690.193 427.373 690.856 427.153 691.03C426.934 691.205 426.192 691.001 424.987 690.653C424.573 690.533 424.1 690.396 423.549 690.238L404.569 685.091C401.027 684.129 400.583 684.361 398.442 685.477C397.899 685.759 397.228 686.107 396.371 686.51L372.236 697.72Z" stroke="white" stroke-width="2" stroke-linecap="round" stroke-linejoin="round"/>
<path fill-rule="evenodd" clip-rule="evenodd" d="M102.641 331.964C109.777 327.434 116.796 326.601 123.642 331.224C115.788 331.352 109.82 340.899 102.641 331.964ZM133.407 329.127C142.896 325.326 151.362 325.895 158.488 332.887C149.177 331.311 139.958 341.31 133.407 329.127ZM116.066 346.04C122.826 341.202 129.675 340.024 136.63 344.193C128.967 344.737 123.637 354.401 116.103 346.05L116.066 346.04ZM141.909 348.1C150.84 344.516 158.854 345.056 165.526 351.64C156.751 350.168 148.081 359.596 141.946 348.109L141.909 348.1ZM128.477 357.109C137.966 353.309 146.432 353.878 153.546 360.866C144.186 359.277 134.967 369.277 128.477 357.109ZM159.887 362.982C167.226 357.554 174.717 356.143 182.437 360.594C173.977 361.265 168.292 372.047 159.862 362.975L159.887 362.982ZM154.461 372.464C160.76 380.474 168.379 384.181 178.065 381.646C169.155 378.391 166.214 365.146 154.437 372.458L154.461 372.464ZM134.364 368.543C145.23 371.223 152.377 377.164 154.114 387.859C146.856 380.48 132.223 383.474 134.339 368.536L134.364 368.543ZM165.987 397.416C175.506 401.094 184.022 400.411 191.004 393.338C181.637 395.032 172.297 385.145 165.938 397.403L165.987 397.416ZM183.21 376.026C191.683 378.709 199.033 377.625 204.7 371.14C196.649 373.119 188.015 364.997 183.161 376.013L183.21 376.026ZM155.263 398.007C159.605 404.259 160.555 410.521 156.551 416.783C156.205 409.795 147.337 404.726 155.263 398.007ZM145.286 389.358C146.944 400.345 144.152 409.172 134.853 414.848C138.942 405.401 130.566 393.163 145.276 389.395L145.286 389.358ZM132.36 385.401C131.242 397.618 125.917 406.385 114.447 410.075C121.329 400.993 115.521 385.618 132.36 385.401ZM117.702 371.557C118.443 383.8 114.471 393.252 103.693 398.613C109.18 388.612 101.172 374.281 117.751 371.57L117.702 371.557ZM97.097 351.662C102.661 358.355 104.402 365.336 100.581 372.82C99.4431 364.918 88.8846 360.077 97.097 351.662ZM73.0645 356.132C77.6473 363.491 83.7829 367.338 92.1756 366.088C84.9702 362.504 83.7543 351.048 73.1012 356.142L73.0645 356.132ZM88.4982 371.968C94.0622 378.662 95.8035 385.643 91.9819 393.127C90.7953 385.211 80.2269 380.407 88.4761 372.001L88.4982 371.968ZM77.9656 374.135C71.4521 379.86 68.6699 386.513 71.351 394.539C73.6545 386.886 84.8293 383.703 77.9435 374.168L77.9656 374.135ZM67.3651 365.412C69.2516 374.726 67.2507 382.329 59.5342 387.643C62.6077 379.426 54.9254 369.288 67.343 365.445L67.3651 365.412ZM60.3313 355.159C51.9769 357.241 46.468 361.825 45.1613 370.069C50.6976 364.409 61.9739 366.69 60.3092 355.193L60.3313 355.159ZM74.4771 316.942C81.9639 313.014 89.0341 312.768 95.4673 317.946C87.6 317.445 80.8643 326.475 74.455 316.975L74.4771 316.942Z" fill="#89A829"/>
<path d="M119.416 362.99C121.797 365.519 123.743 367.805 125.209 369.711C123.603 367.735 121.653 365.461 119.416 362.99C107.497 350.33 84.6623 331.573 56.3829 323.944C22.4534 314.79 5.32369 308.073 1 305.858V297C8.31212 301.37 29.6257 311.719 56.3829 318.16C79.495 323.724 105.232 347.32 119.416 362.99Z" fill="#D9D9D9"/>
</svg>
