<svg width="256" height="26" viewBox="0 0 256 26" fill="none" xmlns="http://www.w3.org/2000/svg">
<rect y="11.375" width="96" height="1.625" fill="white"/>
<rect x="160" y="11.375" width="96" height="1.625" fill="white"/>
<path fill-rule="evenodd" clip-rule="evenodd" d="M122.158 0H127.448C127.992 0.00161475 128.512 0.22158 128.897 0.611932C129.281 1.00228 129.498 1.53136 129.501 2.08381V8.22167H135.536C136.08 8.22329 136.601 8.44368 136.986 8.83469C137.37 9.22571 137.587 9.75557 137.588 10.3085V15.6884C137.587 16.2414 137.37 16.7712 136.986 17.1622C136.601 17.5533 136.08 17.7736 135.536 17.7753H129.501V23.9131C129.499 24.4661 129.282 24.996 128.898 25.387C128.513 25.778 127.992 25.9984 127.448 26H122.158C121.614 25.9984 121.093 25.778 120.709 25.387C120.324 24.996 120.108 24.4661 120.106 23.9131V17.7753H114.052C113.508 17.7736 112.987 17.5533 112.603 17.1622C112.218 16.7712 112.002 16.2414 112 15.6884V10.3208C112.002 9.76785 112.218 9.23798 112.603 8.84696C112.987 8.45595 113.508 8.23557 114.052 8.23395H120.088V2.09608C120.09 1.54364 120.307 1.01456 120.692 0.62421C121.076 0.233858 121.597 0.0138931 122.14 0.0122784" fill="#CA0000"/>
<path d="M112.009 12.9421H116.153L117.215 11.5672L117.818 10.7815L118.413 11.5702L119.454 12.9421H121.262H121.624L121.856 13.2397L122.134 13.5988L123.987 6.79806L125.442 6.76123L127.442 12.9421H128.553L130.014 10.4777L130.653 9.40051L131.311 10.4685L132.829 12.9421H137.597V14.4919H132.407H131.987L131.764 14.1267L130.678 12.3559L129.633 14.1175L129.41 14.4919H128.981H126.893H126.344L126.169 13.9579L124.781 9.66751L123.199 15.4739L122.801 16.9378L121.871 15.744L120.897 14.4919H119.083H118.712L118.482 14.188L117.806 13.2981L117.118 14.1911L116.889 14.4919H116.521H112.009V12.9421Z" fill="white"/>
</svg>
