<svg width="140" height="14" viewBox="0 0 140 14" fill="none" xmlns="http://www.w3.org/2000/svg">
<rect y="7" width="53" height="1" fill="#CCE0EF"/>
<rect x="87" y="7" width="53" height="1" fill="#CCE0EF"/>
<path fill-rule="evenodd" clip-rule="evenodd" d="M68.5577 0H71.4522C71.7494 0.00086948 72.0342 0.119312 72.2446 0.329502C72.4549 0.539692 72.5736 0.824581 72.575 1.12205V4.42705H75.8772C76.1747 4.42793 76.4598 4.5466 76.6702 4.75714C76.8806 4.96769 76.9991 5.253 77 5.55075V8.44759C76.9991 8.74535 76.8806 9.03066 76.6702 9.2412C76.4598 9.45175 76.1747 9.57042 75.8772 9.57129H72.575V12.8763C72.5741 13.1741 72.4555 13.4594 72.2451 13.6699C72.0348 13.8805 71.7497 13.9991 71.4522 14H68.5577C68.2602 13.9991 67.9751 13.8805 67.7648 13.6699C67.5544 13.4594 67.4358 13.1741 67.435 12.8763V9.57129H64.1228C63.8253 9.57042 63.5402 9.45175 63.3298 9.2412C63.1194 9.03066 63.0009 8.74535 63 8.44759V5.55736C63.0009 5.25961 63.1194 4.9743 63.3298 4.76375C63.5402 4.5532 63.8253 4.43454 64.1228 4.43366H67.425V1.12866C67.4264 0.83119 67.5451 0.546303 67.7554 0.336113C67.9658 0.125924 68.2506 0.0074809 68.5478 0.00661142" fill="#CA0000"/>
<path d="M63 7.64415H65.267L65.8482 6.83353L66.1784 6.37033L66.5037 6.83534L67.0734 7.64415H68.0624H68.2605L68.3877 7.81966L68.5396 8.03136L69.5534 4.02171L70.3492 4L71.4439 7.64415H72.0515L72.8507 6.19119L73.2007 5.55609L73.5607 6.18577L74.3912 7.64415H77V8.5579H74.16H73.9305L73.8083 8.34258L73.2139 7.29855L72.6426 8.33715L72.5205 8.5579H72.286H71.1434H70.8429L70.7471 8.24306L69.9876 5.71351L69.1224 9.13691L68.9045 10L68.3959 9.29614L67.8626 8.5579H66.8703H66.6672L66.5417 8.37877L66.1718 7.85404L65.7954 8.38058L65.6699 8.5579H65.4684H63V7.64415Z" fill="white"/>
</svg>
