<svg width="256" height="26" viewBox="0 0 256 26" fill="none" xmlns="http://www.w3.org/2000/svg">
<rect opacity="0.2" x="0.000244141" y="12.1877" width="96" height="1.6256" fill="#0062AF"/>
<rect opacity="0.2" x="160" y="12.1877" width="96" height="1.6256" fill="#0062AF"/>
<path fill-rule="evenodd" clip-rule="evenodd" d="M122.363 0.00012207H127.653C128.197 0.00173682 128.717 0.221702 129.102 0.612054C129.486 1.00241 129.703 1.53149 129.706 2.08393V8.22179H135.742C136.286 8.22341 136.807 8.4438 137.192 8.83481C137.576 9.22583 137.793 9.75569 137.794 10.3087V15.6885C137.793 16.2415 137.576 16.7713 137.192 17.1624C136.807 17.5534 136.286 17.7738 135.742 17.7754H129.706V23.9132C129.704 24.4662 129.487 24.9961 129.103 25.3871C128.718 25.7781 128.197 25.9985 127.653 26.0001H122.363C121.819 25.9985 121.298 25.7781 120.913 25.3871C120.528 24.9961 120.312 24.4662 120.31 23.9132V17.7754H114.256C113.712 17.7738 113.191 17.5534 112.806 17.1624C112.422 16.7713 112.205 16.2415 112.203 15.6885V10.3209C112.205 9.76797 112.422 9.2381 112.806 8.84709C113.191 8.45607 113.712 8.23569 114.256 8.23407H120.292V2.0962C120.294 1.54376 120.512 1.01468 120.896 0.624332C121.28 0.23398 121.801 0.0140152 122.344 0.0124004" fill="#CA0000"/>
<path d="M112.212 12.9417H116.356L117.419 11.5668L118.022 10.7812L118.617 11.5699L119.658 12.9417H121.466H121.828L122.061 13.2394L122.338 13.5984L124.191 6.79769L125.646 6.76086L127.647 12.9417H128.758L130.219 10.4773L130.859 9.40015L131.517 10.4681L133.035 12.9417H137.803V14.4915H132.612H132.193L131.969 14.1263L130.883 12.3555L129.838 14.1171L129.615 14.4915H129.187H127.098H126.549L126.374 13.9575L124.985 9.66714L123.404 15.4736L123.005 16.9374L122.076 15.7436L121.101 14.4915H119.287H118.916L118.686 14.1877L118.01 13.2977L117.322 14.1908L117.093 14.4915H116.725H112.212V12.9417Z" fill="white"/>
</svg>
