<svg width="1920" height="873" viewBox="0 0 1920 873" fill="none" xmlns="http://www.w3.org/2000/svg">
<mask id="mask0_165_743" style="mask-type:alpha" maskUnits="userSpaceOnUse" x="0" y="0" width="1920" height="874">
<rect width="1920" height="873" transform="matrix(-1 -8.74228e-08 -8.74228e-08 1 1920 0.00012207)" fill="#F7FCFF"/>
</mask>
<g mask="url(#mask0_165_743)">
<g opacity="0.2">
<path d="M1823.78 227.165C1823.54 227.63 1823.36 228.287 1823.22 228.78C1822.17 232.558 1822.59 236.749 1823.91 239.242C1825.23 241.736 1827.51 243.08 1829.97 243.411C1832.42 243.742 1835 242.869 1837.53 241.803C1839.96 240.71 1842.53 239.481 1844.73 236.909C1845.98 235.486 1847.12 233.68 1847.87 231.763C1850.19 225.33 1847.05 219.85 1844.07 217.601C1840.59 214.859 1836.33 215.265 1831.92 217.753C1830.18 218.682 1828.44 219.967 1826.86 221.828C1825.57 223.415 1824.52 225.249 1823.78 227.165Z" fill="#A9733D"/>
<path d="M1828.97 191.432C1824.94 190.661 1820.5 191.368 1816.12 193.336C1814.67 193.991 1813.26 194.839 1812.12 196.645C1810.7 199.081 1810.47 202.559 1811.2 204.887C1812.77 209.928 1817.77 212.562 1821.31 213.552C1825.6 214.925 1830.24 214.273 1834.95 211.868C1840.67 208.861 1842.4 201.907 1838.53 197.111C1835.93 193.904 1832.51 192.065 1828.97 191.432Z" fill="#A9733D"/>
<path d="M1837.58 187.99C1837.97 188.1 1838.27 188.182 1838.66 188.292C1841.21 188.651 1844 188.188 1846.77 187.37C1847.94 186.987 1849.16 186.441 1850.26 185.511C1852.67 183.35 1853.91 178.915 1853.07 175.847C1852.22 172.423 1850.02 170.394 1847.98 168.584C1844.7 165.897 1840.66 164.77 1836.46 165.368C1833.77 165.858 1830.9 167.005 1828.41 169.851C1827.93 170.426 1827.45 171 1827.17 171.63C1826.84 172.424 1826.76 173.108 1826.73 173.984C1826.49 176.75 1827.22 179.079 1828.23 180.778C1829.24 182.477 1830.59 183.738 1831.98 184.835C1833.87 186.069 1835.51 187.413 1837.58 187.99Z" fill="#A9733D"/>
<path d="M1851.04 238.668C1848.6 247.018 1850.82 253.128 1856.73 254.777C1862.15 256.289 1869.78 250.272 1872.03 242.579C1874.1 235.543 1871.47 228.967 1865.91 227.236C1859.65 225.313 1853.57 229.989 1851.04 238.668Z" fill="#A9733D"/>
<path d="M1901.92 184.459C1910.24 199.218 1916.1 215.779 1901.34 224.098C1886.58 232.416 1867.87 227.195 1859.55 212.436C1851.23 197.677 1856.45 178.969 1871.21 170.651C1885.97 162.332 1893.6 169.7 1901.92 184.459Z" fill="#A9733D"/>
<path d="M1890.38 62.5158C1890.29 63.0502 1890.31 63.7586 1890.32 64.2898C1890.44 68.3629 1892.15 72.3896 1894.23 74.4559C1896.31 76.5223 1898.99 77.1534 1901.53 76.7251C1904.06 76.2968 1906.35 74.6351 1908.53 72.7993C1910.6 70.9666 1912.78 68.9538 1914.17 65.723C1914.97 63.9274 1915.54 61.7838 1915.69 59.6525C1916.02 52.5535 1911.21 48.0852 1907.56 46.7735C1903.26 45.1262 1899.17 46.8404 1895.56 50.6674C1894.11 52.1273 1892.79 53.9384 1891.79 56.2714C1891 58.2441 1890.53 60.3846 1890.38 62.5158Z" fill="#A9733D"/>
<path d="M1884.52 25.4668C1880.28 25.9445 1876.09 28.0161 1872.36 31.3148C1871.12 32.4144 1869.98 33.688 1869.41 35.8316C1868.75 38.6867 1869.59 42.2068 1871.04 44.2917C1874.14 48.8095 1879.91 49.8824 1883.74 49.7712C1888.41 49.8123 1892.82 47.7346 1896.74 43.8984C1901.49 39.152 1901.06 31.7205 1895.75 28.153C1892.18 25.7756 1888.22 25.0045 1884.52 25.4668Z" fill="#A9733D"/>
<path d="M1891.99 19.3997C1892.42 19.3874 1892.74 19.3781 1893.16 19.3657C1895.8 18.9343 1898.42 17.6175 1900.93 15.9496C1901.97 15.2103 1903 14.294 1903.82 13.0296C1905.54 10.1437 1905.4 5.36234 1903.62 2.57835C1901.72 -0.556734 1898.92 -1.89314 1896.33 -3.05862C1892.25 -4.71213 1887.89 -4.58548 1883.91 -2.69722C1881.4 -1.38346 1878.91 0.63865 1877.31 4.22984C1877.01 4.94746 1876.71 5.66508 1876.63 6.37652C1876.55 7.26505 1876.67 7.97032 1876.91 8.84959C1877.53 11.6676 1878.97 13.7525 1880.5 15.1259C1882.02 16.4994 1883.75 17.3354 1885.47 17.9943C1887.72 18.6378 1889.76 19.4646 1891.99 19.3997Z" fill="#A9733D"/>
<path d="M1954.74 -3.9365C1967.54 8.14085 1978.45 22.7661 1966.37 35.5672C1954.3 48.3683 1934.13 48.955 1921.32 36.8777C1908.52 24.8003 1907.94 4.63236 1920.01 -8.16873C1932.09 -20.9698 1941.94 -16.0138 1954.74 -3.9365Z" fill="#A9733D"/>
<path d="M1725.16 114.128C1725.08 114.649 1725.1 115.34 1725.11 115.858C1725.23 119.829 1726.9 123.755 1728.92 125.77C1730.95 127.785 1733.56 128.4 1736.03 127.982C1738.51 127.565 1740.74 125.944 1742.86 124.155C1744.88 122.368 1747 120.405 1748.36 117.255C1749.14 115.504 1749.7 113.414 1749.85 111.336C1750.16 104.415 1745.48 100.058 1741.92 98.7794C1737.73 97.1733 1733.73 98.8447 1730.22 102.576C1728.81 103.999 1727.51 105.765 1726.54 108.04C1725.77 109.963 1725.31 112.05 1725.16 114.128Z" fill="#A9733D"/>
<path d="M1719.45 78.0047C1715.32 78.4705 1711.23 80.4903 1707.6 83.7066C1706.38 84.7787 1705.28 86.0205 1704.72 88.1105C1704.07 90.8941 1704.9 94.3263 1706.31 96.3591C1709.34 100.764 1714.96 101.81 1718.69 101.701C1723.25 101.742 1727.54 99.7159 1731.37 95.9755C1736 91.3478 1735.58 84.1021 1730.41 80.6237C1726.92 78.3059 1723.06 77.554 1719.45 78.0047Z" fill="#A9733D"/>
<path d="M1726.74 72.0902C1727.15 72.0781 1727.46 72.0691 1727.88 72.0571C1730.46 71.6364 1733.01 70.3525 1735.45 68.7263C1736.46 68.0055 1737.47 67.1121 1738.27 65.8794C1739.95 63.0656 1739.81 58.4038 1738.07 55.6894C1736.22 52.6327 1733.49 51.3297 1730.97 50.1933C1726.99 48.5811 1722.74 48.7046 1718.86 50.5457C1716.41 51.8266 1713.98 53.7982 1712.42 57.2996C1712.13 57.9992 1711.84 58.6989 1711.76 59.3926C1711.68 60.2589 1711.8 60.9465 1712.04 61.8038C1712.63 64.5513 1714.04 66.5841 1715.53 67.9232C1717.02 69.2624 1718.7 70.0775 1720.38 70.7199C1722.57 71.3473 1724.56 72.1534 1726.74 72.0902Z" fill="#A9733D"/>
<path d="M1754.99 117.063C1755.14 125.872 1759.13 131.113 1765.34 130.932C1771.03 130.767 1776.6 122.656 1776.47 114.537C1776.35 107.11 1771.84 101.539 1765.93 101.538C1759.3 101.558 1754.82 107.909 1754.99 117.063Z" fill="#A9733D"/>
<path d="M1787.91 49.3373C1800.4 61.1127 1811.04 75.3724 1799.26 87.8534C1787.48 100.334 1767.82 100.907 1755.34 89.1311C1742.86 77.3557 1742.28 57.692 1754.06 45.2109C1765.83 32.7298 1775.43 37.5619 1787.91 49.3373Z" fill="#A9733D"/>
<path d="M1700.23 272.812C1700.15 273.3 1700.17 273.947 1700.18 274.433C1700.29 278.155 1701.85 281.834 1703.75 283.722C1705.65 285.611 1708.1 286.187 1710.42 285.796C1712.74 285.405 1714.83 283.886 1716.82 282.209C1718.71 280.534 1720.7 278.695 1721.97 275.742C1722.7 274.101 1723.23 272.143 1723.37 270.195C1723.66 263.708 1719.27 259.625 1715.93 258.426C1712 256.921 1708.26 258.487 1704.97 261.984C1703.65 263.319 1702.43 264.974 1701.52 267.105C1700.8 268.908 1700.37 270.864 1700.23 272.812Z" fill="#A9733D"/>
<path d="M1694.88 238.956C1691 239.393 1687.17 241.286 1683.77 244.3C1682.63 245.305 1681.6 246.469 1681.07 248.427C1680.47 251.036 1681.24 254.253 1682.56 256.158C1685.4 260.287 1690.67 261.267 1694.16 261.165C1698.44 261.203 1702.46 259.304 1706.05 255.799C1710.39 251.462 1710 244.671 1705.14 241.411C1701.88 239.238 1698.26 238.534 1694.88 238.956Z" fill="#A9733D"/>
<path d="M1701.71 233.412C1702.1 233.401 1702.39 233.393 1702.77 233.381C1705.19 232.987 1707.58 231.784 1709.87 230.26C1710.82 229.584 1711.77 228.747 1712.51 227.591C1714.09 224.954 1713.96 220.585 1712.33 218.041C1710.6 215.176 1708.04 213.955 1705.67 212.89C1701.94 211.379 1697.96 211.495 1694.32 213.22C1692.03 214.421 1689.75 216.268 1688.29 219.55C1688.02 220.206 1687.75 220.862 1687.67 221.512C1687.59 222.324 1687.71 222.968 1687.93 223.772C1688.49 226.347 1689.81 228.252 1691.2 229.507C1692.6 230.762 1694.17 231.526 1695.75 232.128C1697.8 232.716 1699.67 233.472 1701.71 233.412Z" fill="#A9733D"/>
<path d="M1728.18 275.563C1728.33 283.819 1732.06 288.731 1737.89 288.561C1743.22 288.406 1748.44 280.804 1748.31 273.196C1748.21 266.234 1743.98 261.013 1738.44 261.012C1732.23 261.031 1728.03 266.983 1728.18 275.563Z" fill="#A9733D"/>
<path d="M1759.04 212.089C1770.74 223.125 1780.71 236.49 1769.68 248.187C1758.64 259.885 1740.21 260.421 1728.51 249.385C1716.81 238.349 1716.28 219.919 1727.31 208.222C1738.35 196.524 1747.35 201.053 1759.04 212.089Z" fill="#A9733D"/>
<path d="M1482.54 219.606C1482.39 220.001 1482.3 220.545 1482.23 220.954C1481.71 224.086 1482.42 227.422 1483.7 229.313C1484.98 231.205 1486.93 232.088 1488.93 232.141C1490.94 232.194 1492.94 231.266 1494.88 230.189C1496.74 229.098 1498.7 227.884 1500.25 225.622C1501.13 224.368 1501.89 222.815 1502.33 221.208C1503.64 215.828 1500.63 211.691 1498.04 210.141C1494.99 208.238 1491.61 208.935 1488.27 211.321C1486.95 212.221 1485.66 213.407 1484.55 215.042C1483.65 216.432 1482.97 217.998 1482.54 219.606Z" fill="#A9733D"/>
<path d="M1483.61 190.396C1480.29 190.127 1476.78 191.083 1473.43 193.047C1472.32 193.702 1471.26 194.506 1470.5 196.059C1469.57 198.143 1469.69 200.962 1470.48 202.772C1472.18 206.692 1476.43 208.377 1479.37 208.865C1482.94 209.597 1486.62 208.668 1490.19 206.322C1494.54 203.404 1495.32 197.657 1491.8 194.134C1489.42 191.78 1486.51 190.598 1483.61 190.396Z" fill="#A9733D"/>
<path d="M1490.23 186.879C1490.56 186.933 1490.8 186.973 1491.13 187.028C1493.22 187.094 1495.42 186.479 1497.58 185.578C1498.49 185.169 1499.41 184.623 1500.23 183.778C1501.98 181.829 1502.59 178.151 1501.64 175.755C1500.66 173.073 1498.72 171.632 1496.91 170.353C1494.04 168.476 1490.69 167.921 1487.36 168.768C1485.24 169.397 1483.03 170.57 1481.28 173.077C1480.94 173.582 1480.6 174.086 1480.43 174.617C1480.24 175.285 1480.23 175.843 1480.28 176.551C1480.33 178.798 1481.12 180.609 1482.08 181.888C1483.04 183.167 1484.24 184.065 1485.45 184.827C1487.08 185.656 1488.52 186.594 1490.23 186.879Z" fill="#A9733D"/>
<path d="M1505.48 226.489C1504.24 233.421 1506.56 238.144 1511.46 238.957C1515.96 239.702 1521.57 234.196 1522.71 227.808C1523.76 221.965 1521.08 216.902 1516.45 215.994C1511.24 214.991 1506.75 219.285 1505.48 226.489Z" fill="#A9733D"/>
<path d="M1541.71 178.43C1549.69 189.583 1555.84 202.402 1544.69 210.381C1533.53 218.361 1518.02 215.788 1510.04 204.635C1502.06 193.482 1504.63 177.972 1515.79 169.992C1526.94 162.012 1533.73 167.277 1541.71 178.43Z" fill="#A9733D"/>
<path d="M1578.2 296.109C1578.05 296.504 1577.96 297.049 1577.89 297.457C1577.37 300.59 1578.07 303.925 1579.35 305.817C1580.64 307.709 1582.59 308.592 1584.59 308.645C1586.6 308.697 1588.6 307.77 1590.54 306.692C1592.4 305.601 1594.36 304.387 1595.91 302.126C1596.79 300.872 1597.55 299.319 1597.98 297.712C1599.3 292.332 1596.29 288.195 1593.69 286.645C1590.65 284.741 1587.27 285.439 1583.93 287.825C1582.61 288.725 1581.32 289.91 1580.21 291.546C1579.31 292.935 1578.63 294.502 1578.2 296.109Z" fill="#A9733D"/>
<path d="M1579.26 266.899C1575.95 266.63 1572.44 267.586 1569.09 269.55C1567.98 270.204 1566.92 271.009 1566.16 272.562C1565.23 274.646 1565.35 277.465 1566.14 279.275C1567.84 283.195 1572.09 284.88 1575.03 285.367C1578.6 286.1 1582.28 285.17 1585.85 282.825C1590.2 279.907 1590.98 274.16 1587.46 270.636C1585.08 268.283 1582.17 267.101 1579.26 266.899Z" fill="#A9733D"/>
<path d="M1585.89 263.382C1586.22 263.437 1586.46 263.477 1586.79 263.531C1588.88 263.598 1591.08 262.983 1593.24 262.082C1594.15 261.673 1595.07 261.127 1595.89 260.282C1597.64 258.333 1598.25 254.655 1597.3 252.259C1596.32 249.577 1594.38 248.135 1592.57 246.857C1589.7 244.98 1586.35 244.425 1583.02 245.272C1580.9 245.901 1578.69 247.074 1576.94 249.581C1576.6 250.085 1576.26 250.59 1576.09 251.121C1575.9 251.788 1575.89 252.347 1575.94 253.055C1575.99 255.302 1576.78 257.113 1577.74 258.392C1578.7 259.671 1579.9 260.569 1581.11 261.33C1582.74 262.16 1584.18 263.098 1585.89 263.382Z" fill="#A9733D"/>
<path d="M1601.14 302.992C1599.9 309.925 1602.22 314.648 1607.12 315.46C1611.62 316.205 1617.23 310.699 1618.37 304.311C1619.42 298.469 1616.74 293.406 1612.11 292.497C1606.9 291.494 1602.41 295.788 1601.14 302.992Z" fill="#A9733D"/>
<path d="M1637.37 254.935C1645.35 266.088 1651.5 278.906 1640.35 286.886C1629.19 294.866 1613.68 292.293 1605.7 281.14C1597.72 269.987 1600.29 254.476 1611.45 246.497C1622.6 238.517 1629.39 243.782 1637.37 254.935Z" fill="#A9733D"/>
<path d="M1594.89 156.722C1594.74 157.117 1594.65 157.662 1594.58 158.071C1594.06 161.203 1594.77 164.539 1596.05 166.43C1597.33 168.322 1599.28 169.205 1601.29 169.258C1603.29 169.311 1605.29 168.383 1607.23 167.305C1609.09 166.214 1611.05 165.001 1612.6 162.739C1613.48 161.485 1614.24 159.932 1614.68 158.325C1615.99 152.945 1612.98 148.808 1610.39 147.258C1607.35 145.355 1603.96 146.052 1600.63 148.438C1599.3 149.338 1598.02 150.524 1596.91 152.159C1596 153.549 1595.33 155.115 1594.89 156.722Z" fill="#A9733D"/>
<path d="M1595.96 127.513C1592.65 127.243 1589.13 128.2 1585.79 130.164C1584.67 130.818 1583.62 131.623 1582.85 133.176C1581.92 135.26 1582.04 138.079 1582.83 139.889C1584.53 143.809 1588.78 145.494 1591.72 145.981C1595.29 146.714 1598.97 145.784 1602.55 143.439C1606.89 140.521 1607.68 134.774 1604.15 131.25C1601.77 128.897 1598.86 127.714 1595.96 127.513Z" fill="#A9733D"/>
<path d="M1602.58 123.996C1602.91 124.05 1603.16 124.091 1603.48 124.145C1605.57 124.211 1607.77 123.596 1609.93 122.695C1610.84 122.286 1611.77 121.74 1612.58 120.895C1614.33 118.946 1614.94 115.269 1614 112.873C1613.01 110.191 1611.07 108.749 1609.27 107.47C1606.39 105.593 1603.04 105.038 1599.71 105.886C1597.6 106.514 1595.39 107.687 1593.63 110.195C1593.29 110.699 1592.96 111.203 1592.79 111.734C1592.59 112.402 1592.58 112.96 1592.63 113.668C1592.68 115.915 1593.47 117.726 1594.43 119.005C1595.4 120.284 1596.59 121.182 1597.81 121.944C1599.43 122.773 1600.87 123.711 1602.58 123.996Z" fill="#A9733D"/>
<path d="M1617.83 163.606C1616.6 170.538 1618.92 175.261 1623.82 176.074C1628.31 176.819 1633.92 171.313 1635.06 164.925C1636.12 159.082 1633.43 154.019 1628.8 153.111C1623.6 152.108 1619.11 156.401 1617.83 163.606Z" fill="#A9733D"/>
<path d="M1654.06 115.548C1662.04 126.701 1668.2 139.519 1657.04 147.499C1645.89 155.479 1630.38 152.906 1622.4 141.753C1614.42 130.6 1616.99 115.089 1628.14 107.11C1639.3 99.13 1646.08 104.395 1654.06 115.548Z" fill="#A9733D"/>
<path d="M1458.62 347.079C1458.49 347.43 1458.41 347.913 1458.35 348.276C1457.89 351.057 1458.52 354.018 1459.65 355.697C1460.79 357.376 1462.52 358.16 1464.3 358.207C1466.08 358.254 1467.86 357.43 1469.58 356.474C1471.23 355.505 1472.97 354.428 1474.35 352.42C1475.13 351.307 1475.8 349.928 1476.19 348.502C1477.35 343.726 1474.69 340.054 1472.38 338.678C1469.68 336.988 1466.67 337.607 1463.72 339.725C1462.54 340.524 1461.4 341.576 1460.41 343.028C1459.61 344.262 1459.01 345.652 1458.62 347.079Z" fill="#A9733D"/>
<path d="M1459.57 321.149C1456.63 320.91 1453.51 321.759 1450.54 323.503C1449.55 324.084 1448.61 324.798 1447.94 326.177C1447.11 328.027 1447.22 330.53 1447.92 332.137C1449.43 335.617 1453.2 337.113 1455.81 337.546C1458.98 338.196 1462.25 337.371 1465.42 335.288C1469.28 332.698 1469.97 327.595 1466.84 324.467C1464.73 322.377 1462.15 321.328 1459.57 321.149Z" fill="#A9733D"/>
<path d="M1465.45 318.027C1465.74 318.075 1465.96 318.111 1466.25 318.159C1468.1 318.218 1470.06 317.672 1471.98 316.873C1472.78 316.509 1473.61 316.025 1474.33 315.275C1475.88 313.545 1476.42 310.28 1475.58 308.153C1474.71 305.772 1472.99 304.492 1471.39 303.357C1468.83 301.691 1465.86 301.198 1462.9 301.951C1461.02 302.508 1459.06 303.55 1457.5 305.776C1457.21 306.223 1456.91 306.671 1456.76 307.143C1456.58 307.735 1456.57 308.231 1456.62 308.859C1456.66 310.854 1457.36 312.461 1458.22 313.597C1459.07 314.733 1460.13 315.529 1461.21 316.206C1462.65 316.942 1463.93 317.775 1465.45 318.027Z" fill="#A9733D"/>
<path d="M1478.99 353.19C1477.89 359.343 1479.95 363.536 1484.3 364.257C1488.29 364.919 1493.27 360.031 1494.29 354.36C1495.22 349.174 1492.84 344.679 1488.73 343.873C1484.11 342.983 1480.12 346.794 1478.99 353.19Z" fill="#A9733D"/>
<path d="M1511.15 310.529C1518.24 320.429 1523.7 331.808 1513.8 338.892C1503.9 345.976 1490.13 343.692 1483.04 333.791C1475.96 323.89 1478.24 310.122 1488.14 303.038C1498.04 295.954 1504.07 300.628 1511.15 310.529Z" fill="#A9733D"/>
<path d="M1350.24 303.866C1350.11 304.217 1350.03 304.701 1349.97 305.063C1349.51 307.844 1350.13 310.805 1351.27 312.484C1352.41 314.163 1354.14 314.948 1355.92 314.994C1357.7 315.041 1359.48 314.218 1361.2 313.261C1362.85 312.293 1364.59 311.215 1365.97 309.207C1366.75 308.095 1367.42 306.716 1367.81 305.289C1368.97 300.513 1366.3 296.841 1364 295.465C1361.3 293.775 1358.29 294.394 1355.34 296.512C1354.16 297.311 1353.02 298.364 1352.03 299.815C1351.23 301.049 1350.63 302.44 1350.24 303.866Z" fill="#A9733D"/>
<path d="M1351.19 277.937C1348.25 277.698 1345.13 278.547 1342.16 280.291C1341.17 280.872 1340.23 281.586 1339.56 282.965C1338.73 284.815 1338.83 287.318 1339.54 288.925C1341.04 292.405 1344.82 293.901 1347.43 294.334C1350.6 294.984 1353.86 294.159 1357.04 292.076C1360.9 289.486 1361.59 284.383 1358.46 281.255C1356.35 279.165 1353.77 278.116 1351.19 277.937Z" fill="#A9733D"/>
<path d="M1357.07 274.814C1357.36 274.862 1357.58 274.898 1357.87 274.946C1359.72 275.005 1361.67 274.459 1363.59 273.66C1364.4 273.296 1365.23 272.812 1365.95 272.062C1367.5 270.332 1368.04 267.067 1367.2 264.94C1366.33 262.559 1364.61 261.279 1363.01 260.144C1360.45 258.478 1357.48 257.985 1354.52 258.738C1352.64 259.295 1350.68 260.337 1349.12 262.563C1348.82 263.01 1348.53 263.458 1348.37 263.93C1348.2 264.522 1348.19 265.018 1348.24 265.646C1348.28 267.641 1348.98 269.248 1349.84 270.384C1350.69 271.52 1351.75 272.317 1352.83 272.993C1354.27 273.729 1355.55 274.562 1357.07 274.814Z" fill="#A9733D"/>
<path d="M1370.61 309.978C1369.51 316.132 1371.57 320.324 1375.92 321.046C1379.91 321.707 1384.89 316.819 1385.9 311.149C1386.84 305.962 1384.46 301.467 1380.34 300.661C1375.72 299.771 1371.74 303.582 1370.61 309.978Z" fill="#A9733D"/>
<path d="M1402.77 267.315C1409.85 277.216 1415.31 288.595 1405.41 295.679C1395.51 302.762 1381.74 300.479 1374.66 290.578C1367.57 280.677 1369.86 266.908 1379.76 259.825C1389.66 252.741 1395.68 257.415 1402.77 267.315Z" fill="#A9733D"/>
<path d="M1338.75 413.696C1338.62 414.038 1338.54 414.51 1338.48 414.863C1338.03 417.575 1338.64 420.463 1339.75 422.101C1340.86 423.738 1342.55 424.503 1344.29 424.549C1346.02 424.594 1347.75 423.791 1349.43 422.858C1351.04 421.914 1352.74 420.863 1354.09 418.905C1354.85 417.82 1355.51 416.475 1355.88 415.084C1357.02 410.426 1354.41 406.845 1352.17 405.503C1349.53 403.855 1346.6 404.459 1343.72 406.524C1342.57 407.303 1341.46 408.33 1340.49 409.745C1339.71 410.949 1339.13 412.305 1338.75 413.696Z" fill="#A9733D"/>
<path d="M1339.68 388.409C1336.81 388.176 1333.77 389.004 1330.87 390.705C1329.9 391.271 1328.99 391.968 1328.33 393.312C1327.52 395.117 1327.63 397.558 1328.31 399.125C1329.78 402.519 1333.46 403.978 1336.01 404.4C1339.1 405.034 1342.28 404.229 1345.38 402.198C1349.14 399.672 1349.82 394.696 1346.77 391.645C1344.71 389.607 1342.19 388.584 1339.68 388.409Z" fill="#A9733D"/>
<path d="M1345.41 385.365C1345.69 385.412 1345.91 385.447 1346.19 385.494C1347.99 385.551 1349.9 385.019 1351.77 384.239C1352.56 383.885 1353.36 383.412 1354.06 382.681C1355.58 380.993 1356.11 377.81 1355.29 375.735C1354.44 373.413 1352.76 372.165 1351.2 371.058C1348.71 369.434 1345.81 368.953 1342.93 369.687C1341.09 370.231 1339.18 371.246 1337.66 373.417C1337.37 373.853 1337.08 374.29 1336.93 374.75C1336.76 375.328 1336.75 375.811 1336.8 376.424C1336.84 378.37 1337.52 379.937 1338.35 381.044C1339.19 382.152 1340.22 382.929 1341.27 383.588C1342.68 384.306 1343.93 385.119 1345.41 385.365Z" fill="#A9733D"/>
<path d="M1358.61 419.656C1357.54 425.658 1359.55 429.747 1363.79 430.45C1367.68 431.095 1372.54 426.328 1373.53 420.798C1374.44 415.74 1372.12 411.357 1368.11 410.571C1363.6 409.702 1359.72 413.419 1358.61 419.656Z" fill="#A9733D"/>
<path d="M1389.98 378.051C1396.89 387.707 1402.21 398.804 1392.56 405.712C1382.9 412.62 1369.47 410.393 1362.56 400.737C1355.65 391.082 1357.88 377.654 1367.54 370.746C1377.19 363.838 1383.07 368.395 1389.98 378.051Z" fill="#A9733D"/>
<path d="M1234.31 374.715C1234.19 375.039 1234.12 375.485 1234.06 375.82C1233.64 378.385 1234.21 381.117 1235.26 382.666C1236.31 384.216 1237.91 384.939 1239.55 384.982C1241.19 385.025 1242.83 384.266 1244.42 383.383C1245.94 382.49 1247.55 381.496 1248.82 379.643C1249.54 378.616 1250.16 377.344 1250.52 376.028C1251.59 371.622 1249.13 368.234 1247.01 366.964C1244.52 365.405 1241.74 365.976 1239.01 367.93C1237.93 368.668 1236.87 369.639 1235.96 370.978C1235.22 372.116 1234.67 373.399 1234.31 374.715Z" fill="#A9733D"/>
<path d="M1235.19 350.792C1232.47 350.571 1229.6 351.355 1226.86 352.963C1225.94 353.499 1225.08 354.158 1224.45 355.43C1223.69 357.138 1223.79 359.446 1224.43 360.929C1225.83 364.14 1229.31 365.52 1231.72 365.92C1234.64 366.519 1237.65 365.758 1240.58 363.837C1244.14 361.447 1244.78 356.739 1241.9 353.853C1239.95 351.925 1237.56 350.957 1235.19 350.792Z" fill="#A9733D"/>
<path d="M1240.61 347.912C1240.88 347.956 1241.08 347.989 1241.35 348.034C1243.06 348.088 1244.86 347.584 1246.63 346.847C1247.37 346.511 1248.13 346.065 1248.8 345.372C1250.23 343.776 1250.73 340.764 1249.96 338.802C1249.15 336.605 1247.56 335.424 1246.09 334.377C1243.73 332.84 1240.99 332.385 1238.26 333.079C1236.53 333.594 1234.72 334.555 1233.28 336.608C1233 337.021 1232.73 337.434 1232.59 337.869C1232.43 338.416 1232.42 338.873 1232.46 339.453C1232.5 341.294 1233.15 342.777 1233.94 343.824C1234.73 344.872 1235.7 345.607 1236.7 346.231C1238.03 346.91 1239.21 347.679 1240.61 347.912Z" fill="#A9733D"/>
<path d="M1253.1 380.354C1252.09 386.031 1253.99 389.9 1258 390.565C1261.68 391.175 1266.28 386.665 1267.21 381.434C1268.08 376.649 1265.88 372.502 1262.08 371.758C1257.82 370.937 1254.15 374.453 1253.1 380.354Z" fill="#A9733D"/>
<path d="M1282.77 340.993C1289.31 350.128 1294.35 360.626 1285.22 367.162C1276.08 373.697 1263.38 371.59 1256.84 362.455C1250.3 353.321 1252.41 340.618 1261.55 334.082C1270.68 327.547 1276.24 331.858 1282.77 340.993Z" fill="#A9733D"/>
<path d="M1231.14 486.284C1231.02 486.6 1230.95 487.036 1230.9 487.363C1230.48 489.87 1231.05 492.539 1232.07 494.052C1233.1 495.566 1234.66 496.273 1236.26 496.315C1237.87 496.357 1239.47 495.615 1241.02 494.752C1242.51 493.879 1244.08 492.908 1245.32 491.099C1246.02 490.095 1246.63 488.853 1246.98 487.567C1248.03 483.262 1245.62 479.952 1243.54 478.712C1241.11 477.188 1238.4 477.747 1235.73 479.656C1234.67 480.376 1233.64 481.325 1232.76 482.633C1232.03 483.745 1231.49 484.998 1231.14 486.284Z" fill="#A9733D"/>
<path d="M1232 462.913C1229.35 462.697 1226.54 463.462 1223.86 465.034C1222.97 465.558 1222.12 466.202 1221.51 467.444C1220.77 469.112 1220.86 471.368 1221.49 472.817C1222.85 475.954 1226.26 477.302 1228.61 477.692C1231.47 478.278 1234.41 477.534 1237.27 475.657C1240.75 473.322 1241.38 468.723 1238.55 465.903C1236.65 464.02 1234.32 463.074 1232 462.913Z" fill="#A9733D"/>
<path d="M1237.3 460.098C1237.56 460.142 1237.76 460.174 1238.02 460.218C1239.69 460.271 1241.45 459.779 1243.18 459.058C1243.9 458.73 1244.65 458.294 1245.3 457.617C1246.7 456.058 1247.19 453.115 1246.43 451.198C1245.64 449.052 1244.09 447.898 1242.65 446.875C1240.35 445.374 1237.67 444.929 1235 445.607C1233.31 446.11 1231.54 447.049 1230.13 449.055C1229.87 449.459 1229.6 449.862 1229.46 450.287C1229.3 450.821 1229.3 451.268 1229.34 451.835C1229.38 453.633 1230.01 455.082 1230.78 456.105C1231.55 457.129 1232.5 457.847 1233.48 458.456C1234.78 459.12 1235.93 459.871 1237.3 460.098Z" fill="#A9733D"/>
<path d="M1249.5 491.794C1248.51 497.34 1250.37 501.12 1254.29 501.77C1257.88 502.366 1262.37 497.96 1263.29 492.849C1264.13 488.174 1261.98 484.123 1258.28 483.396C1254.11 482.593 1250.52 486.029 1249.5 491.794Z" fill="#A9733D"/>
<path d="M1278.49 453.339C1284.88 462.263 1289.8 472.52 1280.88 478.905C1271.95 485.29 1259.54 483.231 1253.15 474.307C1246.77 465.383 1248.83 452.972 1257.75 446.587C1266.68 440.202 1272.11 444.415 1278.49 453.339Z" fill="#A9733D"/>
<path d="M1138.38 460.833C1138.27 461.108 1138.21 461.488 1138.16 461.774C1137.8 463.959 1138.29 466.287 1139.19 467.607C1140.08 468.927 1141.44 469.543 1142.84 469.58C1144.24 469.617 1145.64 468.97 1146.99 468.218C1148.29 467.456 1149.66 466.609 1150.74 465.031C1151.35 464.156 1151.88 463.072 1152.19 461.951C1153.1 458.197 1151 455.31 1149.19 454.228C1147.07 452.9 1144.71 453.387 1142.38 455.052C1141.46 455.68 1140.56 456.507 1139.78 457.648C1139.16 458.618 1138.68 459.711 1138.38 460.833Z" fill="#A9733D"/>
<path d="M1139.12 440.45C1136.81 440.262 1134.36 440.929 1132.03 442.3C1131.25 442.757 1130.51 443.318 1129.98 444.402C1129.33 445.856 1129.41 447.823 1129.96 449.086C1131.15 451.822 1134.12 452.998 1136.17 453.338C1138.66 453.849 1141.22 453.2 1143.72 451.563C1146.75 449.527 1147.3 445.517 1144.84 443.058C1143.18 441.415 1141.15 440.591 1139.12 440.45Z" fill="#A9733D"/>
<path d="M1143.75 437.996C1143.97 438.034 1144.14 438.062 1144.37 438.1C1145.83 438.146 1147.36 437.717 1148.87 437.089C1149.51 436.803 1150.15 436.422 1150.72 435.833C1151.94 434.473 1152.37 431.907 1151.71 430.235C1151.02 428.364 1149.67 427.358 1148.41 426.466C1146.4 425.156 1144.07 424.769 1141.74 425.36C1140.27 425.798 1138.72 426.617 1137.5 428.366C1137.26 428.718 1137.03 429.07 1136.91 429.441C1136.77 429.907 1136.77 430.296 1136.8 430.79C1136.84 432.358 1137.39 433.621 1138.06 434.514C1138.73 435.407 1139.56 436.033 1140.41 436.564C1141.55 437.143 1142.55 437.798 1143.75 437.996Z" fill="#A9733D"/>
<path d="M1154.39 465.636C1153.53 470.473 1155.14 473.769 1158.56 474.336C1161.7 474.856 1165.61 471.013 1166.41 466.556C1167.15 462.479 1165.27 458.945 1162.04 458.312C1158.41 457.612 1155.28 460.608 1154.39 465.636Z" fill="#A9733D"/>
<path d="M1179.67 432.102C1185.24 439.884 1189.53 448.829 1181.75 454.397C1173.96 459.965 1163.14 458.17 1157.57 450.387C1152 442.605 1153.8 431.782 1161.58 426.214C1169.36 420.646 1174.1 424.319 1179.67 432.102Z" fill="#A9733D"/>
<path d="M1152.4 547.08C1152.3 547.343 1152.24 547.707 1152.19 547.979C1151.85 550.068 1152.32 552.293 1153.17 553.554C1154.02 554.816 1155.33 555.405 1156.66 555.44C1158 555.475 1159.33 554.856 1160.63 554.138C1161.87 553.41 1163.18 552.601 1164.21 551.092C1164.8 550.256 1165.3 549.22 1165.59 548.149C1166.47 544.561 1164.46 541.802 1162.73 540.768C1160.7 539.499 1158.45 539.964 1156.22 541.555C1155.34 542.155 1154.48 542.946 1153.74 544.037C1153.14 544.963 1152.69 546.008 1152.4 547.08Z" fill="#A9733D"/>
<path d="M1153.11 527.602C1150.9 527.423 1148.56 528.06 1146.33 529.37C1145.58 529.807 1144.88 530.343 1144.37 531.379C1143.75 532.769 1143.83 534.648 1144.36 535.856C1145.49 538.47 1148.32 539.594 1150.28 539.919C1152.66 540.407 1155.12 539.787 1157.5 538.223C1160.4 536.277 1160.92 532.444 1158.57 530.094C1156.98 528.525 1155.05 527.737 1153.11 527.602Z" fill="#A9733D"/>
<path d="M1157.53 525.257C1157.74 525.293 1157.91 525.32 1158.13 525.356C1159.52 525.4 1160.98 524.99 1162.43 524.39C1163.03 524.117 1163.65 523.753 1164.19 523.189C1165.36 521.89 1165.77 519.437 1165.13 517.84C1164.48 516.051 1163.18 515.09 1161.98 514.237C1160.06 512.986 1157.83 512.616 1155.61 513.181C1154.2 513.6 1152.73 514.382 1151.56 516.054C1151.33 516.39 1151.11 516.726 1150.99 517.081C1150.86 517.526 1150.86 517.898 1150.89 518.37C1150.92 519.869 1151.45 521.076 1152.09 521.929C1152.73 522.782 1153.53 523.381 1154.34 523.888C1155.42 524.441 1156.38 525.067 1157.53 525.257Z" fill="#A9733D"/>
<path d="M1167.7 551.671C1166.87 556.294 1168.42 559.443 1171.69 559.985C1174.68 560.482 1178.43 556.81 1179.19 552.55C1179.89 548.654 1178.1 545.277 1175.01 544.672C1171.54 544.003 1168.55 546.866 1167.7 551.671Z" fill="#A9733D"/>
<path d="M1191.86 519.624C1197.18 527.061 1201.28 535.609 1193.84 540.93C1186.41 546.252 1176.06 544.536 1170.74 537.098C1165.42 529.661 1167.13 519.318 1174.57 513.997C1182.01 508.675 1186.53 512.186 1191.86 519.624Z" fill="#A9733D"/>
<path d="M1067.33 619.987C1067.23 620.234 1067.18 620.574 1067.13 620.83C1066.81 622.789 1067.25 624.875 1068.05 626.058C1068.85 627.241 1070.07 627.794 1071.33 627.827C1072.58 627.86 1073.83 627.279 1075.04 626.606C1076.21 625.923 1077.43 625.164 1078.4 623.749C1078.95 622.965 1079.43 621.994 1079.7 620.989C1080.52 617.624 1078.64 615.037 1077.02 614.067C1075.12 612.877 1073 613.313 1070.91 614.805C1070.09 615.368 1069.28 616.11 1068.59 617.133C1068.02 618.002 1067.6 618.982 1067.33 619.987Z" fill="#A9733D"/>
<path d="M1067.99 601.719C1065.92 601.551 1063.73 602.149 1061.63 603.377C1060.94 603.786 1060.27 604.29 1059.8 605.261C1059.22 606.564 1059.29 608.327 1059.78 609.46C1060.85 611.911 1063.51 612.965 1065.34 613.27C1067.58 613.728 1069.88 613.146 1072.12 611.68C1074.83 609.855 1075.32 606.26 1073.12 604.056C1071.63 602.584 1069.81 601.845 1067.99 601.719Z" fill="#A9733D"/>
<path d="M1072.14 599.52C1072.34 599.554 1072.5 599.58 1072.7 599.613C1074.01 599.655 1075.38 599.27 1076.73 598.707C1077.3 598.451 1077.88 598.11 1078.39 597.581C1079.48 596.362 1079.87 594.063 1079.27 592.564C1078.66 590.887 1077.45 589.985 1076.32 589.186C1074.52 588.012 1072.43 587.665 1070.34 588.195C1069.02 588.588 1067.64 589.322 1066.54 590.89C1066.33 591.205 1066.12 591.52 1066.01 591.852C1065.89 592.27 1065.88 592.619 1065.92 593.062C1065.95 594.467 1066.44 595.599 1067.04 596.399C1067.64 597.199 1068.39 597.761 1069.15 598.237C1070.17 598.756 1071.07 599.342 1072.14 599.52Z" fill="#A9733D"/>
<path d="M1081.67 624.291C1080.9 628.627 1082.35 631.581 1085.42 632.089C1088.23 632.555 1091.74 629.111 1092.45 625.116C1093.11 621.462 1091.43 618.295 1088.53 617.727C1085.28 617.1 1082.47 619.785 1081.67 624.291Z" fill="#A9733D"/>
<path d="M1104.33 594.236C1109.32 601.211 1113.17 609.228 1106.2 614.218C1099.22 619.209 1089.52 617.6 1084.53 610.625C1079.54 603.65 1081.15 593.95 1088.12 588.959C1095.1 583.969 1099.34 587.261 1104.33 594.236Z" fill="#A9733D"/>
<path d="M1045.32 535.302C1045.23 535.549 1045.17 535.89 1045.13 536.146C1044.8 538.105 1045.24 540.191 1046.04 541.374C1046.85 542.557 1048.07 543.109 1049.32 543.142C1050.57 543.175 1051.82 542.595 1053.04 541.921C1054.2 541.239 1055.43 540.48 1056.4 539.065C1056.95 538.281 1057.42 537.31 1057.69 536.304C1058.51 532.94 1056.64 530.352 1055.01 529.383C1053.11 528.192 1050.99 528.629 1048.91 530.121C1048.08 530.684 1047.27 531.426 1046.58 532.448C1046.02 533.317 1045.59 534.297 1045.32 535.302Z" fill="#A9733D"/>
<path d="M1045.99 517.034C1043.92 516.866 1041.72 517.464 1039.63 518.692C1038.93 519.102 1038.27 519.605 1037.79 520.576C1037.21 521.88 1037.28 523.642 1037.78 524.775C1038.84 527.226 1041.5 528.28 1043.34 528.585C1045.57 529.043 1047.87 528.462 1050.11 526.995C1052.82 525.17 1053.31 521.575 1051.11 519.371C1049.62 517.899 1047.8 517.16 1045.99 517.034Z" fill="#A9733D"/>
<path d="M1050.13 514.835C1050.33 514.868 1050.49 514.894 1050.69 514.928C1052 514.969 1053.37 514.585 1054.73 514.021C1055.29 513.765 1055.87 513.424 1056.38 512.896C1057.48 511.677 1057.86 509.377 1057.27 507.879C1056.65 506.201 1055.44 505.3 1054.31 504.5C1052.51 503.327 1050.42 502.979 1048.34 503.509C1047.01 503.902 1045.63 504.636 1044.53 506.204C1044.32 506.519 1044.11 506.835 1044 507.167C1043.88 507.584 1043.88 507.933 1043.91 508.376C1043.94 509.781 1044.43 510.914 1045.03 511.714C1045.64 512.514 1046.38 513.075 1047.14 513.551C1048.16 514.07 1049.06 514.657 1050.13 514.835Z" fill="#A9733D"/>
<path d="M1059.66 539.607C1058.89 543.942 1060.34 546.896 1063.41 547.404C1066.22 547.87 1069.73 544.426 1070.44 540.431C1071.1 536.777 1069.42 533.611 1066.53 533.043C1063.27 532.415 1060.46 535.101 1059.66 539.607Z" fill="#A9733D"/>
<path d="M1082.32 509.552C1087.32 516.527 1091.16 524.543 1084.19 529.534C1077.21 534.524 1067.51 532.915 1062.52 525.94C1057.53 518.965 1059.14 509.265 1066.11 504.275C1073.09 499.284 1077.33 502.577 1082.32 509.552Z" fill="#A9733D"/>
<path d="M977 629.783C976.917 630.001 976.868 630.3 976.83 630.525C976.545 632.249 976.933 634.085 977.637 635.126C978.342 636.167 979.416 636.654 980.519 636.682C981.623 636.711 982.723 636.201 983.791 635.608C984.815 635.007 985.895 634.339 986.748 633.094C987.232 632.404 987.651 631.55 987.89 630.665C988.612 627.704 986.957 625.427 985.529 624.574C983.856 623.526 981.991 623.91 980.157 625.223C979.428 625.719 978.72 626.371 978.109 627.271C977.613 628.036 977.239 628.898 977 629.783Z" fill="#A9733D"/>
<path d="M977.59 613.707C975.767 613.559 973.833 614.086 971.991 615.167C971.377 615.527 970.796 615.97 970.377 616.824C969.864 617.972 969.93 619.523 970.365 620.519C971.3 622.677 973.64 623.604 975.258 623.872C977.222 624.275 979.247 623.764 981.216 622.473C983.606 620.867 984.038 617.704 982.097 615.764C980.788 614.469 979.188 613.818 977.59 613.707Z" fill="#A9733D"/>
<path d="M981.234 611.772C981.414 611.802 981.549 611.824 981.729 611.854C982.877 611.89 984.087 611.552 985.278 611.056C985.777 610.831 986.289 610.531 986.735 610.066C987.698 608.993 988.034 606.969 987.514 605.651C986.973 604.175 985.904 603.381 984.913 602.678C983.329 601.645 981.487 601.339 979.655 601.805C978.489 602.151 977.274 602.797 976.306 604.177C976.122 604.454 975.937 604.732 975.842 605.024C975.735 605.391 975.73 605.699 975.758 606.088C975.784 607.325 976.219 608.321 976.749 609.026C977.278 609.73 977.935 610.224 978.605 610.643C979.499 611.099 980.29 611.615 981.234 611.772Z" fill="#A9733D"/>
<path d="M989.627 633.571C988.948 637.387 990.225 639.986 992.922 640.434C995.393 640.844 998.482 637.813 999.111 634.297C999.691 631.081 998.213 628.295 995.664 627.795C992.8 627.243 990.33 629.606 989.627 633.571Z" fill="#A9733D"/>
<path d="M1009.57 607.123C1013.96 613.261 1017.34 620.316 1011.21 624.708C1005.07 629.099 996.53 627.683 992.138 621.545C987.746 615.407 989.162 606.871 995.3 602.479C1001.44 598.087 1005.17 600.985 1009.57 607.123Z" fill="#A9733D"/>
<path d="M934.401 701.673C934.338 701.841 934.299 702.073 934.27 702.246C934.05 703.578 934.349 704.996 934.894 705.8C935.438 706.604 936.267 706.979 937.12 707.002C937.972 707.024 938.822 706.63 939.647 706.172C940.437 705.708 941.271 705.192 941.93 704.23C942.304 703.698 942.627 703.037 942.812 702.354C943.37 700.067 942.092 698.309 940.989 697.65C939.696 696.841 938.256 697.137 936.84 698.151C936.277 698.534 935.73 699.038 935.258 699.733C934.875 700.324 934.586 700.99 934.401 701.673Z" fill="#A9733D"/>
<path d="M934.855 689.257C933.447 689.143 931.953 689.549 930.531 690.384C930.057 690.662 929.608 691.004 929.284 691.664C928.887 692.55 928.938 693.749 929.274 694.518C929.997 696.184 931.804 696.901 933.053 697.108C934.571 697.419 936.134 697.024 937.655 696.027C939.501 694.787 939.835 692.344 938.336 690.846C937.325 689.845 936.089 689.343 934.855 689.257Z" fill="#A9733D"/>
<path d="M937.671 687.762C937.81 687.785 937.914 687.803 938.053 687.826C938.94 687.854 939.875 687.592 940.795 687.209C941.18 687.035 941.575 686.804 941.92 686.444C942.664 685.616 942.923 684.053 942.521 683.034C942.104 681.894 941.278 681.282 940.512 680.738C939.289 679.941 937.866 679.705 936.451 680.065C935.551 680.332 934.613 680.83 933.865 681.896C933.723 682.111 933.58 682.325 933.507 682.551C933.424 682.834 933.421 683.072 933.442 683.373C933.462 684.328 933.798 685.097 934.207 685.641C934.616 686.185 935.124 686.566 935.641 686.89C936.331 687.243 936.942 687.641 937.671 687.762Z" fill="#A9733D"/>
<path d="M944.151 704.599C943.626 707.546 944.613 709.554 946.695 709.899C948.604 710.216 950.99 707.875 951.476 705.16C951.923 702.676 950.782 700.524 948.813 700.138C946.602 699.712 944.694 701.537 944.151 704.599Z" fill="#A9733D"/>
<path d="M959.552 684.172C962.944 688.912 965.56 694.361 960.819 697.753C956.078 701.145 949.485 700.051 946.092 695.311C942.7 690.57 943.793 683.977 948.534 680.585C953.275 677.193 956.16 679.431 959.552 684.172Z" fill="#A9733D"/>
<path d="M1003.12 678.196C1003.04 678.397 1003 678.675 1002.96 678.883C1002.7 680.481 1003.06 682.182 1003.71 683.146C1004.36 684.111 1005.36 684.562 1006.38 684.588C1007.4 684.615 1008.42 684.142 1009.41 683.593C1010.36 683.036 1011.36 682.417 1012.15 681.264C1012.6 680.625 1012.99 679.833 1013.21 679.013C1013.88 676.269 1012.34 674.16 1011.02 673.369C1009.47 672.399 1007.74 672.754 1006.04 673.971C1005.37 674.43 1004.71 675.035 1004.15 675.869C1003.69 676.577 1003.34 677.376 1003.12 678.196Z" fill="#A9733D"/>
<path d="M1003.66 663.301C1001.97 663.164 1000.18 663.652 998.476 664.653C997.907 664.987 997.369 665.397 996.981 666.189C996.505 667.252 996.566 668.689 996.969 669.613C997.836 671.612 1000 672.471 1001.5 672.72C1003.32 673.093 1005.2 672.619 1007.02 671.423C1009.24 669.935 1009.64 667.004 1007.84 665.207C1006.63 664.007 1005.14 663.404 1003.66 663.301Z" fill="#A9733D"/>
<path d="M1007.04 661.508C1007.21 661.536 1007.33 661.556 1007.5 661.584C1008.56 661.618 1009.68 661.304 1010.79 660.845C1011.25 660.636 1011.72 660.358 1012.14 659.927C1013.03 658.933 1013.34 657.058 1012.86 655.836C1012.36 654.469 1011.37 653.733 1010.45 653.081C1008.98 652.125 1007.28 651.841 1005.58 652.273C1004.5 652.594 1003.37 653.192 1002.48 654.471C1002.3 654.728 1002.13 654.985 1002.05 655.256C1001.95 655.596 1001.94 655.881 1001.97 656.242C1001.99 657.388 1002.39 658.311 1002.89 658.963C1003.38 659.615 1003.98 660.073 1004.6 660.462C1005.43 660.884 1006.17 661.363 1007.04 661.508Z" fill="#A9733D"/>
<path d="M1014.82 681.706C1014.19 685.241 1015.37 687.65 1017.87 688.064C1020.16 688.444 1023.02 685.636 1023.6 682.378C1024.14 679.399 1022.77 676.817 1020.41 676.354C1017.76 675.842 1015.47 678.032 1014.82 681.706Z" fill="#A9733D"/>
<path d="M1033.29 657.201C1037.36 662.888 1040.5 669.424 1034.81 673.494C1029.12 677.563 1021.21 676.251 1017.14 670.563C1013.07 664.876 1014.39 656.967 1020.07 652.898C1025.76 648.829 1029.22 651.513 1033.29 657.201Z" fill="#A9733D"/>
<path d="M954.76 742.096C954.707 742.237 954.674 742.431 954.65 742.577C954.465 743.695 954.717 744.885 955.174 745.561C955.631 746.236 956.327 746.551 957.042 746.57C957.758 746.589 958.472 746.257 959.164 745.873C959.828 745.483 960.529 745.05 961.082 744.243C961.395 743.795 961.667 743.241 961.822 742.667C962.29 740.747 961.217 739.271 960.291 738.717C959.206 738.038 957.997 738.287 956.808 739.139C956.335 739.46 955.876 739.883 955.479 740.467C955.157 740.963 954.915 741.522 954.76 742.096Z" fill="#A9733D"/>
<path d="M955.141 731.67C953.96 731.574 952.705 731.915 951.511 732.616C951.113 732.85 950.736 733.137 950.464 733.691C950.131 734.435 950.174 735.441 950.456 736.088C951.063 737.487 952.58 738.088 953.629 738.262C954.903 738.523 956.216 738.192 957.493 737.355C959.043 736.313 959.323 734.262 958.064 733.004C957.216 732.164 956.178 731.742 955.141 731.67Z" fill="#A9733D"/>
<path d="M957.505 730.415C957.622 730.435 957.709 730.449 957.826 730.469C958.571 730.492 959.356 730.273 960.128 729.951C960.451 729.805 960.783 729.61 961.073 729.309C961.697 728.613 961.915 727.301 961.577 726.446C961.227 725.489 960.534 724.974 959.891 724.518C958.864 723.848 957.669 723.65 956.481 723.952C955.725 724.176 954.937 724.595 954.309 725.49C954.19 725.67 954.07 725.85 954.009 726.039C953.939 726.278 953.936 726.477 953.954 726.73C953.971 727.532 954.253 728.178 954.597 728.634C954.94 729.091 955.366 729.411 955.8 729.683C956.38 729.979 956.893 730.314 957.505 730.415Z" fill="#A9733D"/>
<path d="M962.947 744.553C962.507 747.027 963.335 748.713 965.084 749.003C966.686 749.268 968.689 747.303 969.097 745.023C969.473 742.938 968.515 741.131 966.862 740.807C965.005 740.449 963.403 741.981 962.947 744.553Z" fill="#A9733D"/>
<path d="M975.879 727.4C978.728 731.38 980.924 735.955 976.943 738.803C972.962 741.651 967.426 740.733 964.578 736.753C961.73 732.772 962.648 727.236 966.629 724.388C970.609 721.54 973.031 723.419 975.879 727.4Z" fill="#A9733D"/>
</g>
<path fill-rule="evenodd" clip-rule="evenodd" d="M204.008 70.0052C218.297 60.9354 232.35 59.2679 246.057 68.5236C230.333 68.7811 218.382 87.8954 204.008 70.0052ZM265.608 64.3242C284.607 56.7151 301.559 57.8543 315.827 71.853C297.184 68.698 278.726 88.719 265.608 64.3242ZM230.888 98.1891C244.424 88.5013 258.137 86.1431 272.063 94.4913C256.719 95.5807 246.047 114.93 230.962 98.2087L230.888 98.1891ZM282.632 102.312C300.514 95.1373 316.561 96.2185 329.918 109.401C312.349 106.453 294.99 125.331 282.706 102.332L282.632 102.312ZM255.738 120.352C274.737 112.743 291.689 113.882 305.933 127.874C287.191 124.693 268.733 144.714 255.738 120.352ZM318.628 132.11C333.323 121.243 348.321 118.417 363.778 127.329C346.84 128.673 335.458 150.262 318.579 132.097L318.628 132.11ZM307.764 151.096C320.376 167.134 335.631 174.557 355.025 169.48C337.184 162.962 331.296 136.444 307.715 151.083L307.764 151.096ZM267.525 143.244C289.282 148.61 303.591 160.506 307.069 181.92C292.537 167.147 263.239 173.14 267.476 143.231L267.525 143.244ZM330.842 201.056C349.901 208.42 366.951 207.053 380.932 192.89C362.178 196.283 343.477 176.486 330.744 201.03L330.842 201.056ZM365.326 158.227C382.292 163.599 397.007 161.429 408.354 148.445C392.234 152.408 374.947 136.145 365.228 158.201L365.326 158.227ZM309.369 202.239C318.065 214.756 319.967 227.295 311.95 239.833C311.256 225.841 293.501 215.692 309.369 202.239ZM289.393 184.922C292.713 206.921 287.124 224.594 268.505 235.958C276.692 217.044 259.921 192.54 289.374 184.995L289.393 184.922ZM263.513 176.998C261.273 201.461 250.613 219.013 227.648 226.403C241.426 208.218 229.797 177.432 263.513 176.998ZM234.165 149.281C235.648 173.793 227.695 192.717 206.116 203.451C217.101 183.428 201.067 154.734 234.263 149.307L234.165 149.281ZM192.908 109.444C204.049 122.847 207.535 136.825 199.883 151.809C197.606 135.986 176.465 126.294 192.908 109.444ZM144.789 118.396C153.965 133.129 166.25 140.833 183.054 138.33C168.628 131.154 166.193 108.216 144.863 118.416L144.789 118.396ZM175.691 150.103C186.832 163.505 190.318 177.483 182.667 192.467C180.291 176.618 159.13 167 175.647 150.169L175.691 150.103ZM154.603 154.442C141.561 165.905 135.991 179.224 141.359 195.294C145.971 179.972 168.346 173.599 154.558 154.508L154.603 154.442ZM133.378 136.975C137.155 155.624 133.149 170.847 117.699 181.488C123.853 165.035 108.471 144.736 133.334 137.042L133.378 136.975ZM119.295 116.448C102.567 120.615 91.5372 129.794 88.9209 146.3C100.006 134.969 122.584 139.535 119.25 116.514L119.295 116.448ZM147.618 39.9283C162.608 32.0627 176.764 31.5712 189.645 41.9385C173.893 40.9355 160.407 59.0152 147.574 39.9948L147.618 39.9283Z" fill="#89A829"/>
<path d="M237.596 132.126C242.365 137.191 246.26 141.768 249.196 145.583C245.979 141.628 242.075 137.074 237.596 132.126C213.732 106.778 168.011 69.2219 111.389 53.9466C43.4547 35.6193 9.15703 22.1695 0.5 17.7355V-0.000549316C15.1406 8.74831 57.8152 29.4703 111.389 42.3675C157.665 53.5077 209.197 100.751 237.596 132.126Z" fill="#D9D9D9"/>
</g>
<g opacity="0.3">
<path fill-rule="evenodd" clip-rule="evenodd" d="M1825.5 863.854L1677 873H1974L1825.5 863.854Z" fill="#0062AF"/>
<path fill-rule="evenodd" clip-rule="evenodd" d="M1883.99 816.27C1888.56 816.91 1892.97 818.382 1897 820.615C1896.5 819.353 1895.99 818.074 1895.5 816.838C1903.24 822.926 1908.02 830.387 1909.25 839.499L1910.57 829.862C1912.77 841.625 1911.18 851.389 1902.84 857.622L1905.56 857.334C1892.6 875.592 1856.89 876.049 1844.47 853.904C1846.41 858.646 1847.28 865.573 1843.85 868.089L1788.61 870.273L1767.87 869.706H1742.24C1739.39 869.706 1738.26 865.658 1740.91 863.101L1752.42 855.36C1755.49 842.548 1755.41 824.425 1748.4 813.798C1759.01 822.13 1759.25 844.546 1757.29 856.3C1756.21 860.23 1752.38 863.49 1748.45 865.743C1752.68 864.115 1756.4 861.373 1759.2 857.808C1761.55 835.214 1759.2 817.659 1745.49 808.691C1745.58 810.004 1745.67 811.316 1745.77 812.629C1741.82 809.961 1738.43 804.05 1737.19 798.495C1737.4 800.688 1737.6 802.89 1737.81 805.084C1733.91 799.598 1731.55 793.164 1730.97 786.453C1730.65 788.367 1730.33 790.281 1730.02 792.195C1728.38 786.109 1727.72 779.8 1728.06 773.505L1726.74 781.042C1723.86 769.194 1729.11 757.432 1735.03 745.652C1741.89 737.336 1745.17 729.41 1731.45 723.363C1725.18 722.237 1722.75 719.282 1723.13 714.412H1726.51L1723.57 711.025C1722.58 707.993 1722.72 702.235 1724.04 701.887L1742.75 706.122C1748.21 702.618 1754.6 700.815 1761.08 700.939L1757.8 698.771V695.943L1752.62 693.495C1760.11 690.955 1764.59 693.394 1766.82 699.618C1771.02 697.173 1774.09 692.967 1776.03 687C1780.16 693.893 1779.93 710.068 1779.95 725.692C1780.8 726.622 1781.87 727.323 1783.07 727.733C1781.91 727.838 1780.75 727.661 1779.68 727.216C1780.57 730.68 1782.21 733.903 1784.49 736.65L1780.87 735.753C1781.83 740.605 1784.36 745.026 1788.08 749.124L1784.31 747.134C1785.71 751.259 1788.31 754.877 1791.76 757.533C1829.27 780.762 1843.17 806.947 1848.49 834.198C1853.35 849.28 1886.73 855.538 1887.57 835.434C1885.72 832.233 1883.87 829.032 1882.02 825.831L1888.12 827.991C1887.34 823.883 1885.91 819.925 1883.9 816.262" fill="#0062AF"/>
<path fill-rule="evenodd" clip-rule="evenodd" d="M1803.73 834.935C1783.9 840.575 1786.41 854.133 1798.28 867.682C1781.85 856.826 1779.6 836.451 1803.73 834.935ZM1823.52 837.661C1825.37 847.629 1823.52 857.596 1819.01 867.563C1836.17 866.369 1840.7 850.864 1823.52 837.661ZM1769.25 870.688C1769.25 865.675 1770.21 864.718 1773.17 860.602C1773.58 849.746 1770.29 840.083 1765.82 830.811C1761.76 822.401 1767.04 808.742 1766.06 798.529C1766.81 798.281 1767.5 797.879 1768.09 797.348C1768.68 796.817 1769.16 796.17 1769.49 795.446C1763.05 796.827 1757.96 795.396 1756.58 786.19C1756.06 784.319 1756.1 783.04 1758 782.27L1762.61 780.965C1763.03 778.814 1764.04 775.8 1766.84 774.513L1769.98 774.038C1769.77 771.759 1769.99 769.46 1770.63 767.264C1772.65 768.272 1774.24 769.972 1775.12 772.057H1776.54C1776.54 769.586 1777.4 767.192 1778.96 765.282C1785.49 773.979 1790.92 784.438 1793.34 799.782L1815.93 822.469C1817.2 819.708 1819.36 817.459 1822.06 816.092C1828.44 813.205 1830.08 820.538 1826.38 821.538C1822.89 823.003 1821.22 826.534 1823.54 828.939C1838.92 838.314 1849.83 859.358 1832.23 870.612L1769.25 870.688Z" fill="white"/>
</g>
</svg>
