<svg width="1920" height="1638" viewBox="0 0 1920 1638" fill="none" xmlns="http://www.w3.org/2000/svg">
<rect width="1920" height="1638" fill="#EEF6FF"/>
<mask id="mask0_316_1482" style="mask-type:alpha" maskUnits="userSpaceOnUse" x="0" y="-1" width="1920" height="1639">
<rect y="-0.000366211" width="1920" height="1638" fill="#EEF6FF"/>
</mask>
<g mask="url(#mask0_316_1482)">
<g opacity="0.2">
<path d="M65.2687 176.7C65.3207 177.016 65.3063 177.435 65.2956 177.749C65.2131 180.158 64.1887 182.534 62.9526 183.75C61.7164 184.966 60.1323 185.331 58.6324 185.07C57.1325 184.809 55.7833 183.819 54.5006 182.727C53.2805 181.637 52.0013 180.44 51.1868 178.524C50.7203 177.46 50.3866 176.19 50.304 174.929C50.1335 170.73 52.9897 168.102 55.1534 167.337C57.701 166.376 60.1177 167.402 62.2401 169.677C63.0905 170.544 63.871 171.62 64.4523 173.003C64.9152 174.172 65.1861 175.439 65.2687 176.7Z" fill="#A9733D"/>
<path d="M68.8472 154.805C71.3518 155.101 73.8241 156.339 76.0201 158.301C76.7521 158.955 77.4177 159.712 77.7514 160.981C78.1336 162.672 77.6223 164.751 76.763 165.98C74.9115 168.643 71.4955 169.26 69.235 169.182C66.4685 169.192 63.8706 167.95 61.5598 165.669C58.7645 162.848 59.0407 158.453 62.1929 156.36C64.3153 154.965 66.6566 154.52 68.8472 154.805Z" fill="#A9733D"/>
<path d="M64.444 151.194C64.1929 151.185 64.0045 151.179 63.7533 151.17C62.1906 150.907 60.6459 150.12 59.1712 149.126C58.5576 148.686 57.9476 148.141 57.4703 147.39C56.4602 145.678 56.5571 142.851 57.6191 141.21C58.7512 139.361 60.4125 138.579 61.9447 137.898C64.3667 136.932 66.9412 137.02 69.2915 138.149C70.7734 138.934 72.241 140.138 73.174 142.266C73.348 142.692 73.5221 143.117 73.5705 143.538C73.6154 144.064 73.5382 144.481 73.3947 145C73.0233 146.665 72.164 147.894 71.2562 148.701C70.3484 149.509 69.3258 149.998 68.3067 150.383C66.9737 150.756 65.7627 151.239 64.444 151.194Z" fill="#A9733D"/>
<path d="M47.1673 178.387C47.0472 183.73 44.6127 186.897 40.845 186.768C37.3914 186.649 34.04 181.712 34.1457 176.788C34.2372 172.282 36.9929 168.917 40.5757 168.935C44.5981 168.968 47.2946 172.834 47.1673 178.387Z" fill="#A9733D"/>
<path d="M27.4035 137.201C19.7951 144.305 13.2973 152.922 20.4019 160.53C27.5064 168.138 39.4336 168.547 47.0421 161.442C54.6505 154.338 55.059 142.412 47.9544 134.804C40.8499 127.196 35.012 130.097 27.4035 137.201Z" fill="#A9733D"/>
<path d="M56.7663 67.9066C56.7204 68.2365 56.5771 68.6476 56.4696 68.9559C55.6453 71.3199 53.8965 73.3616 52.2955 74.1868C50.6945 75.0119 49.0104 74.8859 47.6029 74.1646C46.1955 73.4434 45.1622 72.0456 44.2263 70.5666C43.3521 69.109 42.4521 67.5272 42.2344 65.3763C42.0997 64.1765 42.16 62.8142 42.4668 61.5379C43.5922 57.3191 47.2358 55.5922 49.6179 55.5005C52.4415 55.3321 54.5225 57.0952 55.9269 60.0057C56.503 61.1287 56.9458 62.4359 57.0962 63.9869C57.1951 65.2894 57.0731 66.6303 56.7663 67.9066Z" fill="#A9733D"/>
<path d="M67.0655 47.2894C69.459 48.3544 71.5299 50.3445 73.1035 52.9681C73.6281 53.8427 74.0551 54.7985 73.9948 56.1608C73.8528 57.9557 72.7046 59.861 71.4734 60.815C68.8159 62.8858 65.237 62.4449 63.0184 61.6714C60.2708 60.8288 58.0766 58.7957 56.4872 55.8208C54.5841 52.16 56.2126 47.8861 59.985 46.7806C62.5206 46.0507 64.9801 46.3318 67.0655 47.2894Z" fill="#A9733D"/>
<path d="M63.8113 42.3499C63.5648 42.264 63.3799 42.1995 63.1333 42.1135C61.6643 41.3708 60.3744 40.1142 59.2178 38.6734C58.7449 38.0474 58.3078 37.3186 58.0656 36.4273C57.5913 34.4175 58.5589 31.6424 60.1184 30.3416C61.8113 28.8568 63.7003 28.5932 65.4303 28.3894C68.1307 28.1781 70.6575 29.0591 72.6411 30.9034C73.8693 32.1385 74.9542 33.7848 75.2235 36.1843C75.265 36.6599 75.3066 37.1355 75.2248 37.5681C75.1073 38.1035 74.9023 38.4931 74.5998 38.9641C73.7183 40.5012 72.487 41.4552 71.3375 41.9767C70.188 42.4981 69.0227 42.6682 67.8932 42.7356C66.4557 42.6955 65.1055 42.8011 63.8113 42.3499Z" fill="#A9733D"/>
<path d="M38.2896 64.0017C36.5235 69.2651 33.1321 71.6564 29.4343 70.3671C26.0447 69.1854 24.242 63.2541 25.8648 58.4018C27.3442 53.9607 31.1154 51.4713 34.6641 52.5933C38.6443 53.8657 40.1274 58.5327 38.2896 64.0017Z" fill="#A9733D"/>
<path d="M31.3793 17.0521C21.6417 21.7546 12.5396 28.3 17.2424 38.0371C21.9452 47.7741 33.6514 51.8554 43.389 47.1529C53.1266 42.4504 57.2082 30.7449 52.5054 21.0079C47.8026 11.2708 41.117 12.3496 31.3793 17.0521Z" fill="#A9733D"/>
<path d="M143.983 128.757C143.938 129.079 143.799 129.48 143.694 129.78C142.89 132.085 141.185 134.076 139.624 134.88C138.063 135.685 136.421 135.562 135.049 134.859C133.677 134.156 132.669 132.793 131.757 131.351C130.904 129.93 130.027 128.387 129.814 126.29C129.683 125.12 129.742 123.792 130.041 122.548C131.138 118.434 134.691 116.751 137.013 116.661C139.766 116.497 141.795 118.216 143.165 121.054C143.726 122.149 144.158 123.423 144.305 124.936C144.401 126.205 144.282 127.513 143.983 128.757Z" fill="#A9733D"/>
<path d="M154.025 108.655C156.359 109.694 158.378 111.634 159.912 114.192C160.423 115.045 160.84 115.977 160.781 117.305C160.643 119.055 159.523 120.913 158.323 121.843C155.732 123.862 152.242 123.432 150.079 122.678C147.4 121.856 145.261 119.874 143.711 116.973C141.856 113.404 143.443 109.237 147.122 108.159C149.594 107.447 151.992 107.722 154.025 108.655Z" fill="#A9733D"/>
<path d="M150.851 103.84C150.611 103.756 150.431 103.693 150.19 103.609C148.758 102.885 147.5 101.66 146.373 100.255C145.911 99.6449 145.485 98.9343 145.249 98.0652C144.787 96.1056 145.73 93.3999 147.251 92.1317C148.901 90.684 150.743 90.427 152.43 90.2283C155.063 90.0222 157.526 90.8812 159.46 92.6794C160.658 93.8837 161.716 95.4888 161.978 97.8283C162.019 98.292 162.059 98.7557 161.979 99.1775C161.865 99.6995 161.665 100.079 161.37 100.539C160.511 102.037 159.31 102.967 158.189 103.476C157.068 103.984 155.932 104.15 154.831 104.216C153.429 104.177 152.113 104.28 150.851 103.84Z" fill="#A9733D"/>
<path d="M125.969 124.95C124.247 130.082 120.94 132.413 117.335 131.156C114.03 130.004 112.272 124.221 113.855 119.49C115.297 115.16 118.974 112.733 122.434 113.827C126.315 115.067 127.761 119.618 125.969 124.95Z" fill="#A9733D"/>
<path d="M119.231 79.1743C109.737 83.7592 100.862 90.141 105.447 99.6346C110.032 109.128 121.446 113.107 130.94 108.523C140.434 103.938 144.414 92.5247 139.829 83.0311C135.243 73.5375 128.725 74.5894 119.231 79.1743Z" fill="#A9733D"/>
<path d="M129.183 226.335C129.141 226.636 129.01 227.012 128.912 227.293C128.159 229.454 126.561 231.319 125.098 232.073C123.635 232.827 122.096 232.712 120.809 232.053C119.523 231.394 118.579 230.117 117.724 228.765C116.925 227.433 116.103 225.988 115.904 224.022C115.781 222.926 115.836 221.681 116.116 220.515C117.145 216.66 120.474 215.082 122.651 214.998C125.231 214.844 127.133 216.455 128.416 219.115C128.942 220.141 129.347 221.335 129.484 222.753C129.575 223.943 129.463 225.168 129.183 226.335Z" fill="#A9733D"/>
<path d="M138.594 207.494C140.781 208.468 142.674 210.286 144.112 212.684C144.591 213.483 144.981 214.356 144.926 215.601C144.797 217.241 143.747 218.982 142.622 219.854C140.194 221.746 136.923 221.343 134.896 220.637C132.385 219.867 130.38 218.009 128.928 215.29C127.189 211.945 128.677 208.04 132.124 207.029C134.441 206.362 136.689 206.619 138.594 207.494Z" fill="#A9733D"/>
<path d="M135.619 202.981C135.394 202.902 135.225 202.844 135 202.765C133.657 202.086 132.479 200.938 131.422 199.621C130.99 199.049 130.59 198.383 130.369 197.569C129.936 195.732 130.82 193.196 132.245 192.008C133.792 190.651 135.518 190.41 137.099 190.224C139.566 190.031 141.875 190.836 143.688 192.521C144.81 193.65 145.802 195.154 146.048 197.347C146.086 197.781 146.124 198.216 146.049 198.611C145.942 199.101 145.754 199.457 145.478 199.887C144.672 201.292 143.547 202.163 142.497 202.64C141.446 203.116 140.382 203.272 139.35 203.333C138.036 203.297 136.802 203.393 135.619 202.981Z" fill="#A9733D"/>
<path d="M112.299 222.767C110.685 227.576 107.586 229.761 104.207 228.583C101.11 227.503 99.4625 222.083 100.945 217.649C102.297 213.591 105.743 211.316 108.986 212.341C112.623 213.504 113.979 217.769 112.299 222.767Z" fill="#A9733D"/>
<path d="M105.983 179.864C97.085 184.162 88.7675 190.143 93.0649 199.04C97.3623 207.938 108.059 211.668 116.958 207.37C125.856 203.073 129.586 192.377 125.288 183.479C120.991 174.581 114.881 175.567 105.983 179.864Z" fill="#A9733D"/>
<path d="M266.568 235.508C266.582 235.768 266.534 236.103 266.498 236.355C266.222 238.287 265.19 240.11 264.09 240.981C262.989 241.851 261.682 242.007 260.498 241.667C259.314 241.326 258.314 240.412 257.377 239.421C256.49 238.437 255.565 237.362 255.076 235.75C254.793 234.853 254.635 233.802 254.679 232.78C254.907 229.386 257.435 227.519 259.243 227.092C261.377 226.541 263.232 227.577 264.742 229.592C265.351 230.365 265.885 231.298 266.233 232.462C266.503 233.443 266.611 234.486 266.568 235.508Z" fill="#A9733D"/>
<path d="M271.355 218.2C273.345 218.656 275.226 219.867 276.823 221.638C277.355 222.228 277.825 222.895 277.983 223.946C278.143 225.339 277.55 226.968 276.752 227.882C275.03 229.864 272.227 230.063 270.415 229.804C268.187 229.571 266.205 228.345 264.544 226.308C262.54 223.794 263.145 220.282 265.864 218.871C267.694 217.933 269.617 217.78 271.355 218.2Z" fill="#A9733D"/>
<path d="M268.126 214.911C267.925 214.883 267.774 214.861 267.572 214.832C266.338 214.484 265.163 213.717 264.063 212.788C263.607 212.38 263.164 211.888 262.845 211.243C262.181 209.777 262.506 207.509 263.503 206.281C264.575 204.892 265.98 204.407 267.273 203.992C269.306 203.426 271.37 203.721 273.164 204.834C274.288 205.595 275.364 206.692 275.929 208.486C276.032 208.844 276.135 209.201 276.138 209.544C276.128 209.971 276.03 210.3 275.869 210.706C275.425 212.013 274.626 212.927 273.825 213.498C273.025 214.069 272.159 214.374 271.305 214.595C270.2 214.78 269.183 215.063 268.126 214.911Z" fill="#A9733D"/>
<path d="M251.855 235.29C251.293 239.579 249.058 241.916 246.037 241.484C243.268 241.088 241.001 236.822 241.515 232.869C241.981 229.251 244.491 226.783 247.373 227.109C250.607 227.486 252.441 230.832 251.855 235.29Z" fill="#A9733D"/>
<path d="M239.536 200.423C232.794 205.477 226.814 211.846 231.869 218.588C236.924 225.329 246.488 226.696 253.229 221.642C259.971 216.587 261.339 207.024 256.284 200.283C251.229 193.542 246.278 195.368 239.536 200.423Z" fill="#A9733D"/>
<path d="M196.355 262.598C196.369 262.857 196.321 263.193 196.285 263.445C196.009 265.376 194.978 267.199 193.877 268.07C192.776 268.941 191.469 269.097 190.285 268.756C189.101 268.415 188.101 267.501 187.164 266.51C186.277 265.527 185.352 264.452 184.863 262.84C184.58 261.942 184.422 260.892 184.466 259.87C184.694 256.475 187.222 254.609 189.03 254.182C191.164 253.63 193.019 254.666 194.529 256.682C195.138 257.454 195.672 258.387 196.02 259.551C196.291 260.532 196.398 261.576 196.355 262.598Z" fill="#A9733D"/>
<path d="M201.142 245.288C203.132 245.744 205.013 246.956 206.61 248.726C207.142 249.316 207.612 249.983 207.77 251.034C207.93 252.428 207.337 254.057 206.539 254.971C204.817 256.953 202.014 257.152 200.202 256.892C197.974 256.66 195.992 255.434 194.331 253.397C192.327 250.883 192.932 247.37 195.651 245.96C197.481 245.022 199.404 244.868 201.142 245.288Z" fill="#A9733D"/>
<path d="M197.912 242C197.711 241.972 197.56 241.95 197.358 241.921C196.124 241.573 194.949 240.806 193.849 239.877C193.393 239.469 192.95 238.977 192.631 238.332C191.967 236.866 192.292 234.598 193.289 233.37C194.361 231.981 195.767 231.496 197.059 231.081C199.092 230.515 201.157 230.81 202.95 231.923C204.074 232.684 205.15 233.781 205.716 235.575C205.819 235.933 205.922 236.29 205.924 236.633C205.914 237.06 205.816 237.389 205.655 237.795C205.211 239.102 204.413 240.016 203.612 240.587C202.811 241.158 201.945 241.463 201.091 241.684C199.986 241.869 198.969 242.152 197.912 242Z" fill="#A9733D"/>
<path d="M181.64 262.379C181.078 266.668 178.843 269.005 175.822 268.573C173.053 268.177 170.786 263.911 171.3 259.958C171.766 256.34 174.277 253.872 177.158 254.198C180.393 254.575 182.226 257.921 181.64 262.379Z" fill="#A9733D"/>
<path d="M169.322 227.512C162.58 232.567 156.601 238.936 161.656 245.677C166.71 252.419 176.274 253.786 183.015 248.731C189.757 243.677 191.125 234.114 186.07 227.373C181.015 220.631 176.064 222.458 169.322 227.512Z" fill="#A9733D"/>
<path d="M212.404 177.85C212.418 178.11 212.37 178.445 212.334 178.697C212.058 180.629 211.026 182.452 209.926 183.323C208.825 184.193 207.518 184.349 206.334 184.009C205.15 183.668 204.15 182.754 203.213 181.763C202.326 180.779 201.401 179.705 200.912 178.092C200.629 177.195 200.471 176.144 200.515 175.122C200.743 171.728 203.271 169.861 205.079 169.434C207.213 168.883 209.068 169.919 210.578 171.934C211.187 172.707 211.721 173.64 212.069 174.804C212.339 175.785 212.447 176.828 212.404 177.85Z" fill="#A9733D"/>
<path d="M217.192 160.542C219.181 160.998 221.063 162.209 222.66 163.98C223.192 164.57 223.662 165.237 223.82 166.288C223.98 167.682 223.387 169.31 222.589 170.224C220.867 172.206 218.064 172.405 216.251 172.146C214.024 171.913 212.042 170.687 210.381 168.65C208.377 166.136 208.982 162.624 211.701 161.213C213.531 160.275 215.453 160.122 217.192 160.542Z" fill="#A9733D"/>
<path d="M213.962 157.254C213.761 157.225 213.61 157.203 213.408 157.174C212.173 156.826 210.999 156.059 209.899 155.13C209.443 154.722 209 154.23 208.681 153.585C208.017 152.119 208.341 149.851 209.339 148.623C210.411 147.234 211.816 146.749 213.109 146.334C215.142 145.768 217.206 146.063 218.999 147.176C220.124 147.937 221.2 149.034 221.765 150.828C221.868 151.186 221.971 151.543 221.974 151.886C221.964 152.313 221.866 152.642 221.705 153.048C221.261 154.355 220.462 155.269 219.661 155.84C218.86 156.411 217.995 156.716 217.141 156.937C216.036 157.122 215.019 157.405 213.962 157.254Z" fill="#A9733D"/>
<path d="M197.691 177.632C197.129 181.922 194.894 184.258 191.873 183.826C189.104 183.43 186.836 179.165 187.35 175.211C187.816 171.593 190.327 169.125 193.209 169.451C196.443 169.828 198.277 173.175 197.691 177.632Z" fill="#A9733D"/>
<path d="M185.371 142.765C178.629 147.82 172.649 154.188 177.704 160.93C182.759 167.671 192.322 169.039 199.064 163.984C205.806 158.929 207.174 149.367 202.119 142.625C197.064 135.884 192.113 137.71 185.371 142.765Z" fill="#A9733D"/>
<path d="M256.954 314.614C256.967 314.844 256.924 315.142 256.892 315.366C256.647 317.08 255.731 318.699 254.754 319.472C253.777 320.245 252.617 320.383 251.566 320.081C250.514 319.778 249.627 318.967 248.795 318.087C248.008 317.214 247.187 316.26 246.753 314.829C246.502 314.032 246.361 313.099 246.4 312.192C246.603 309.179 248.847 307.522 250.451 307.143C252.346 306.653 253.993 307.573 255.333 309.362C255.874 310.048 256.348 310.876 256.657 311.909C256.897 312.78 256.992 313.707 256.954 314.614Z" fill="#A9733D"/>
<path d="M261.203 299.248C262.97 299.653 264.64 300.729 266.057 302.301C266.529 302.824 266.946 303.417 267.087 304.35C267.229 305.587 266.703 307.033 265.994 307.845C264.465 309.604 261.977 309.781 260.368 309.551C258.391 309.344 256.631 308.256 255.157 306.447C253.378 304.215 253.915 301.097 256.329 299.845C257.953 299.012 259.66 298.875 261.203 299.248Z" fill="#A9733D"/>
<path d="M258.337 296.33C258.158 296.304 258.024 296.285 257.845 296.26C256.749 295.951 255.706 295.269 254.729 294.445C254.325 294.083 253.932 293.646 253.649 293.073C253.059 291.772 253.347 289.759 254.233 288.669C255.185 287.435 256.432 287.005 257.579 286.637C259.384 286.134 261.217 286.396 262.808 287.384C263.806 288.06 264.762 289.033 265.264 290.626C265.355 290.944 265.447 291.261 265.449 291.565C265.44 291.945 265.353 292.236 265.21 292.596C264.816 293.757 264.107 294.569 263.396 295.075C262.685 295.582 261.917 295.853 261.159 296.049C260.178 296.213 259.275 296.464 258.337 296.33Z" fill="#A9733D"/>
<path d="M243.892 314.42C243.393 318.228 241.409 320.302 238.727 319.918C236.269 319.567 234.257 315.78 234.713 312.271C235.127 309.059 237.356 306.868 239.914 307.158C242.785 307.492 244.412 310.463 243.892 314.42Z" fill="#A9733D"/>
<path d="M232.956 283.469C226.971 287.956 221.663 293.609 226.15 299.594C230.638 305.578 239.127 306.792 245.112 302.305C251.097 297.818 252.311 289.329 247.823 283.345C243.336 277.36 238.941 278.982 232.956 283.469Z" fill="#A9733D"/>
<path d="M328.451 309.385C328.464 309.615 328.421 309.913 328.389 310.137C328.144 311.851 327.228 313.47 326.251 314.243C325.274 315.016 324.114 315.154 323.063 314.852C322.012 314.549 321.124 313.738 320.292 312.858C319.505 311.985 318.684 311.031 318.25 309.6C317.999 308.803 317.859 307.87 317.897 306.963C318.1 303.95 320.344 302.293 321.948 301.914C323.843 301.424 325.49 302.344 326.83 304.133C327.371 304.819 327.845 305.647 328.154 306.68C328.394 307.551 328.49 308.478 328.451 309.385Z" fill="#A9733D"/>
<path d="M332.701 294.02C334.468 294.424 336.138 295.5 337.555 297.072C338.028 297.596 338.445 298.188 338.585 299.121C338.727 300.358 338.201 301.805 337.492 302.616C335.963 304.375 333.475 304.552 331.866 304.322C329.889 304.115 328.129 303.027 326.655 301.219C324.876 298.986 325.413 295.868 327.827 294.616C329.451 293.783 331.158 293.647 332.701 294.02Z" fill="#A9733D"/>
<path d="M329.835 291.101C329.656 291.075 329.522 291.056 329.343 291.03C328.247 290.721 327.204 290.04 326.228 289.216C325.823 288.854 325.43 288.417 325.147 287.844C324.557 286.543 324.845 284.53 325.731 283.439C326.683 282.206 327.93 281.776 329.077 281.407C330.882 280.905 332.715 281.167 334.306 282.155C335.304 282.83 336.26 283.804 336.762 285.397C336.853 285.714 336.945 286.032 336.947 286.336C336.938 286.715 336.851 287.007 336.708 287.367C336.314 288.528 335.605 289.339 334.894 289.846C334.183 290.353 333.415 290.624 332.657 290.82C331.676 290.984 330.773 291.235 329.835 291.101Z" fill="#A9733D"/>
<path d="M315.39 309.191C314.891 312.999 312.907 315.073 310.225 314.69C307.767 314.338 305.755 310.552 306.211 307.042C306.625 303.831 308.854 301.639 311.412 301.929C314.283 302.264 315.91 305.234 315.39 309.191Z" fill="#A9733D"/>
<path d="M304.455 278.239C298.47 282.727 293.162 288.38 297.649 294.365C302.137 300.349 310.626 301.563 316.611 297.076C322.596 292.589 323.81 284.1 319.322 278.116C314.835 272.131 310.44 273.752 304.455 278.239Z" fill="#A9733D"/>
<path d="M314.831 375.853C314.843 376.077 314.802 376.368 314.771 376.586C314.531 378.258 313.639 379.836 312.686 380.59C311.733 381.344 310.601 381.479 309.576 381.184C308.551 380.889 307.686 380.097 306.874 379.24C306.106 378.388 305.305 377.458 304.882 376.062C304.638 375.285 304.501 374.375 304.538 373.491C304.736 370.552 306.924 368.936 308.489 368.566C310.337 368.089 311.943 368.986 313.25 370.731C313.777 371.4 314.24 372.208 314.541 373.215C314.775 374.064 314.868 374.968 314.831 375.853Z" fill="#A9733D"/>
<path d="M318.974 360.868C320.697 361.263 322.326 362.312 323.708 363.845C324.169 364.356 324.576 364.933 324.712 365.843C324.851 367.05 324.338 368.46 323.647 369.251C322.156 370.967 319.729 371.139 318.16 370.915C316.232 370.714 314.516 369.652 313.078 367.889C311.343 365.712 311.867 362.671 314.221 361.449C315.805 360.637 317.47 360.504 318.974 360.868Z" fill="#A9733D"/>
<path d="M316.18 358.022C316.005 357.997 315.875 357.978 315.7 357.953C314.631 357.652 313.615 356.987 312.662 356.183C312.268 355.83 311.884 355.404 311.608 354.846C311.033 353.577 311.314 351.614 312.178 350.55C313.106 349.347 314.322 348.928 315.441 348.569C317.201 348.078 318.988 348.334 320.541 349.298C321.514 349.956 322.446 350.906 322.935 352.459C323.024 352.769 323.114 353.078 323.116 353.375C323.107 353.745 323.022 354.03 322.883 354.381C322.499 355.513 321.807 356.304 321.114 356.798C320.421 357.293 319.671 357.557 318.932 357.748C317.975 357.908 317.095 358.153 316.18 358.022Z" fill="#A9733D"/>
<path d="M302.093 375.664C301.607 379.377 299.672 381.4 297.057 381.026C294.659 380.683 292.697 376.99 293.142 373.568C293.545 370.436 295.719 368.299 298.213 368.581C301.013 368.907 302.601 371.805 302.093 375.664Z" fill="#A9733D"/>
<path d="M291.428 345.479C285.591 349.854 280.415 355.368 284.791 361.204C289.167 367.04 297.446 368.224 303.283 363.848C309.119 359.472 310.303 351.194 305.927 345.358C301.551 339.521 297.265 341.103 291.428 345.479Z" fill="#A9733D"/>
<path d="M383.233 372.372C383.245 372.584 383.206 372.859 383.176 373.065C382.95 374.647 382.105 376.14 381.204 376.853C380.302 377.567 379.232 377.694 378.262 377.415C377.292 377.136 376.474 376.388 375.706 375.576C374.98 374.77 374.222 373.89 373.822 372.57C373.59 371.835 373.461 370.974 373.496 370.137C373.683 367.357 375.753 365.828 377.234 365.479C378.982 365.027 380.502 365.876 381.738 367.526C382.237 368.159 382.675 368.923 382.959 369.876C383.181 370.68 383.269 371.535 383.233 372.372Z" fill="#A9733D"/>
<path d="M387.155 358.195C388.784 358.569 390.325 359.561 391.633 361.011C392.069 361.495 392.453 362.041 392.583 362.902C392.714 364.043 392.229 365.378 391.575 366.126C390.164 367.749 387.869 367.913 386.384 367.7C384.56 367.51 382.936 366.505 381.576 364.837C379.935 362.778 380.431 359.901 382.658 358.745C384.156 357.977 385.731 357.851 387.155 358.195Z" fill="#A9733D"/>
<path d="M384.509 355.503C384.344 355.479 384.221 355.461 384.056 355.438C383.045 355.153 382.083 354.524 381.181 353.764C380.808 353.43 380.445 353.027 380.184 352.498C379.641 351.297 379.906 349.44 380.723 348.434C381.601 347.297 382.752 346.9 383.811 346.56C385.476 346.096 387.167 346.338 388.635 347.249C389.556 347.872 390.437 348.771 390.9 350.24C390.985 350.533 391.069 350.826 391.071 351.107C391.063 351.457 390.983 351.726 390.851 352.058C390.487 353.129 389.833 353.878 389.177 354.345C388.521 354.813 387.812 355.063 387.113 355.243C386.208 355.395 385.375 355.627 384.509 355.503Z" fill="#A9733D"/>
<path d="M371.183 372.193C370.722 375.706 368.892 377.62 366.418 377.266C364.15 376.942 362.293 373.448 362.714 370.21C363.096 367.247 365.152 365.226 367.512 365.493C370.161 365.801 371.663 368.542 371.183 372.193Z" fill="#A9733D"/>
<path d="M361.094 343.637C355.572 347.776 350.675 352.993 354.815 358.514C358.955 364.035 366.787 365.155 372.309 361.015C377.83 356.876 378.95 349.044 374.81 343.522C370.67 338.001 366.615 339.497 361.094 343.637Z" fill="#A9733D"/>
<path d="M364.415 438.316C364.427 438.523 364.388 438.792 364.359 438.993C364.138 440.539 363.313 441.998 362.432 442.694C361.552 443.391 360.506 443.516 359.559 443.243C358.611 442.971 357.811 442.239 357.061 441.446C356.352 440.659 355.611 439.799 355.22 438.509C354.994 437.791 354.868 436.951 354.902 436.133C355.085 433.417 357.107 431.923 358.554 431.582C360.262 431.14 361.746 431.97 362.954 433.582C363.442 434.2 363.869 434.947 364.147 435.878C364.364 436.663 364.45 437.498 364.415 438.316Z" fill="#A9733D"/>
<path d="M368.246 424.466C369.838 424.831 371.344 425.801 372.621 427.218C373.047 427.69 373.423 428.224 373.55 429.064C373.678 430.18 373.204 431.483 372.565 432.215C371.187 433.801 368.944 433.96 367.494 433.753C365.712 433.566 364.125 432.585 362.796 430.955C361.193 428.943 361.677 426.133 363.853 425.004C365.317 424.253 366.855 424.13 368.246 424.466Z" fill="#A9733D"/>
<path d="M365.662 421.835C365.501 421.812 365.38 421.795 365.219 421.772C364.231 421.493 363.291 420.879 362.411 420.136C362.047 419.81 361.692 419.416 361.437 418.9C360.906 417.727 361.165 415.912 361.963 414.93C362.821 413.818 363.945 413.43 364.98 413.098C366.607 412.645 368.258 412.881 369.693 413.772C370.593 414.381 371.454 415.258 371.906 416.694C371.989 416.98 372.071 417.266 372.073 417.541C372.065 417.882 371.986 418.145 371.858 418.47C371.503 419.516 370.864 420.248 370.223 420.705C369.582 421.161 368.889 421.405 368.206 421.582C367.322 421.73 366.508 421.956 365.662 421.835Z" fill="#A9733D"/>
<path d="M352.642 438.141C352.192 441.574 350.404 443.443 347.987 443.098C345.771 442.781 343.957 439.368 344.368 436.204C344.741 433.31 346.75 431.334 349.056 431.596C351.644 431.897 353.111 434.575 352.642 438.141Z" fill="#A9733D"/>
<path d="M342.785 410.242C337.391 414.287 332.606 419.383 336.651 424.777C340.696 430.171 348.348 431.265 353.742 427.221C359.137 423.176 360.231 415.525 356.186 410.131C352.141 404.736 348.18 406.198 342.785 410.242Z" fill="#A9733D"/>
<path d="M423.472 440.597C423.482 440.778 423.449 441.012 423.424 441.188C423.231 442.536 422.511 443.808 421.743 444.416C420.975 445.023 420.063 445.132 419.237 444.894C418.411 444.657 417.713 444.019 417.059 443.327C416.441 442.641 415.795 441.891 415.454 440.766C415.257 440.14 415.147 439.407 415.177 438.693C415.336 436.324 417.1 435.022 418.361 434.724C419.85 434.339 421.145 435.062 422.199 436.469C422.623 437.008 422.996 437.659 423.239 438.471C423.427 439.156 423.503 439.884 423.472 440.597Z" fill="#A9733D"/>
<path d="M426.813 428.519C428.202 428.837 429.515 429.682 430.628 430.918C431 431.33 431.328 431.795 431.438 432.528C431.55 433.501 431.136 434.638 430.579 435.275C429.377 436.658 427.422 436.797 426.157 436.616C424.603 436.454 423.22 435.598 422.061 434.177C420.663 432.423 421.085 429.972 422.982 428.987C424.259 428.333 425.6 428.226 426.813 428.519Z" fill="#A9733D"/>
<path d="M424.56 426.225C424.42 426.205 424.314 426.19 424.174 426.169C423.312 425.927 422.493 425.391 421.725 424.743C421.407 424.458 421.098 424.115 420.876 423.665C420.412 422.642 420.639 421.06 421.335 420.203C422.083 419.234 423.063 418.895 423.965 418.606C425.384 418.211 426.824 418.417 428.075 419.194C428.86 419.724 429.611 420.489 430.005 421.742C430.077 421.991 430.149 422.24 430.15 422.48C430.144 422.778 430.075 423.007 429.963 423.29C429.653 424.202 429.096 424.84 428.537 425.239C427.978 425.637 427.374 425.85 426.779 426.004C426.007 426.133 425.298 426.33 424.56 426.225Z" fill="#A9733D"/>
<path d="M413.206 440.444C412.814 443.437 411.254 445.068 409.146 444.767C407.214 444.49 405.632 441.514 405.991 438.755C406.316 436.23 408.068 434.508 410.079 434.735C412.336 434.998 413.615 437.334 413.206 440.444Z" fill="#A9733D"/>
<path d="M404.61 416.115C399.905 419.642 395.733 424.086 399.26 428.79C402.787 433.494 409.46 434.448 414.165 430.921C418.869 427.394 419.823 420.721 416.296 416.017C412.769 411.313 409.314 412.588 404.61 416.115Z" fill="#A9733D"/>
<path d="M399.278 488.522C399.288 488.695 399.256 488.919 399.232 489.087C399.048 490.375 398.36 491.591 397.626 492.172C396.892 492.753 396.021 492.857 395.231 492.629C394.441 492.402 393.775 491.793 393.15 491.132C392.558 490.476 391.941 489.759 391.616 488.684C391.427 488.086 391.322 487.385 391.351 486.703C391.503 484.439 393.189 483.195 394.394 482.91C395.817 482.542 397.054 483.233 398.061 484.577C398.467 485.092 398.823 485.715 399.055 486.491C399.236 487.145 399.307 487.841 399.278 488.522Z" fill="#A9733D"/>
<path d="M402.47 476.98C403.797 477.284 405.052 478.092 406.116 479.273C406.471 479.667 406.784 480.111 406.89 480.812C406.997 481.742 406.602 482.828 406.069 483.438C404.921 484.759 403.052 484.892 401.843 484.719C400.358 484.564 399.036 483.746 397.928 482.388C396.592 480.711 396.996 478.369 398.809 477.428C400.029 476.803 401.311 476.7 402.47 476.98Z" fill="#A9733D"/>
<path d="M400.318 474.788C400.184 474.769 400.083 474.754 399.949 474.735C399.126 474.503 398.342 473.991 397.609 473.372C397.305 473.1 397.009 472.772 396.797 472.342C396.354 471.364 396.57 469.852 397.236 469.033C397.95 468.107 398.887 467.784 399.749 467.507C401.105 467.129 402.481 467.326 403.677 468.068C404.427 468.576 405.144 469.307 405.521 470.503C405.59 470.742 405.659 470.98 405.66 471.209C405.654 471.494 405.588 471.713 405.481 471.983C405.185 472.855 404.653 473.465 404.119 473.846C403.584 474.226 403.007 474.43 402.438 474.577C401.701 474.7 401.023 474.889 400.318 474.788Z" fill="#A9733D"/>
<path d="M389.466 488.377C389.091 491.238 387.601 492.796 385.587 492.508C383.74 492.244 382.229 489.399 382.571 486.763C382.882 484.35 384.556 482.704 386.478 482.921C388.635 483.172 389.857 485.404 389.466 488.377Z" fill="#A9733D"/>
<path d="M381.252 465.126C376.756 468.497 372.768 472.744 376.139 477.24C379.51 481.735 385.887 482.647 390.383 479.276C394.879 475.906 395.791 469.529 392.42 465.033C389.049 460.538 385.747 461.756 381.252 465.126Z" fill="#A9733D"/>
<path d="M435.602 546.996C435.611 547.158 435.581 547.368 435.558 547.526C435.386 548.734 434.741 549.874 434.052 550.419C433.364 550.963 432.547 551.061 431.806 550.848C431.066 550.635 430.44 550.063 429.854 549.443C429.3 548.828 428.721 548.156 428.416 547.147C428.239 546.586 428.14 545.929 428.167 545.29C428.31 543.167 429.891 541.999 431.021 541.732C432.356 541.387 433.516 542.036 434.46 543.296C434.841 543.779 435.175 544.363 435.393 545.091C435.562 545.704 435.629 546.357 435.602 546.996Z" fill="#A9733D"/>
<path d="M438.595 536.171C439.84 536.456 441.017 537.214 442.015 538.321C442.348 538.69 442.641 539.107 442.74 539.765C442.841 540.636 442.47 541.655 441.971 542.227C440.894 543.466 439.141 543.591 438.007 543.429C436.615 543.283 435.375 542.516 434.336 541.242C433.083 539.67 433.461 537.473 435.162 536.591C436.306 536.004 437.509 535.908 438.595 536.171Z" fill="#A9733D"/>
<path d="M436.576 534.115C436.45 534.097 436.356 534.084 436.23 534.066C435.458 533.848 434.723 533.368 434.035 532.787C433.75 532.532 433.473 532.225 433.273 531.821C432.858 530.904 433.061 529.486 433.685 528.718C434.355 527.849 435.234 527.546 436.042 527.287C437.314 526.933 438.605 527.117 439.726 527.814C440.429 528.289 441.102 528.975 441.456 530.097C441.52 530.321 441.585 530.544 441.586 530.759C441.58 531.026 441.519 531.232 441.418 531.485C441.14 532.303 440.641 532.875 440.14 533.232C439.639 533.589 439.098 533.779 438.564 533.917C437.873 534.033 437.237 534.21 436.576 534.115Z" fill="#A9733D"/>
<path d="M426.4 546.859C426.049 549.542 424.651 551.003 422.762 550.733C421.03 550.486 419.612 547.818 419.934 545.345C420.225 543.083 421.796 541.539 423.598 541.743C425.62 541.978 426.767 544.072 426.4 546.859Z" fill="#A9733D"/>
<path d="M418.696 525.054C414.479 528.215 410.739 532.198 413.901 536.414C417.062 540.63 423.043 541.485 427.259 538.324C431.476 535.163 432.331 529.183 429.169 524.967C426.008 520.751 422.912 521.893 418.696 525.054Z" fill="#A9733D"/>
<path d="M464.186 501.466C464.195 501.628 464.165 501.838 464.142 501.996C463.97 503.204 463.325 504.344 462.636 504.889C461.948 505.433 461.131 505.531 460.39 505.318C459.649 505.105 459.024 504.533 458.438 503.913C457.884 503.298 457.305 502.626 457 501.618C456.823 501.057 456.724 500.399 456.751 499.76C456.894 497.637 458.475 496.47 459.605 496.203C460.94 495.858 462.1 496.506 463.044 497.766C463.425 498.249 463.759 498.833 463.977 499.561C464.146 500.174 464.213 500.827 464.186 501.466Z" fill="#A9733D"/>
<path d="M467.18 490.641C468.425 490.926 469.602 491.684 470.6 492.791C470.933 493.161 471.226 493.578 471.325 494.235C471.425 495.107 471.055 496.125 470.555 496.697C469.479 497.936 467.726 498.061 466.592 497.899C465.2 497.753 463.96 496.987 462.921 495.713C461.668 494.14 462.046 491.944 463.747 491.061C464.891 490.475 466.093 490.379 467.18 490.641Z" fill="#A9733D"/>
<path d="M465.161 488.585C465.035 488.567 464.941 488.553 464.815 488.535C464.042 488.318 463.308 487.838 462.62 487.257C462.335 487.002 462.058 486.694 461.858 486.291C461.443 485.374 461.646 483.956 462.27 483.188C462.94 482.319 463.819 482.016 464.627 481.756C465.899 481.402 467.19 481.587 468.311 482.283C469.014 482.759 469.687 483.445 470.041 484.567C470.105 484.79 470.17 485.014 470.171 485.229C470.165 485.496 470.103 485.701 470.003 485.955C469.725 486.772 469.226 487.344 468.725 487.701C468.224 488.058 467.683 488.249 467.149 488.387C466.458 488.502 465.822 488.679 465.161 488.585Z" fill="#A9733D"/>
<path d="M454.985 501.33C454.634 504.012 453.236 505.474 451.347 505.204C449.615 504.956 448.197 502.288 448.519 499.816C448.81 497.553 450.38 496.009 452.183 496.213C454.205 496.449 455.352 498.542 454.985 501.33Z" fill="#A9733D"/>
<path d="M447.28 479.524C443.064 482.685 439.324 486.668 442.486 490.884C445.647 495.1 451.628 495.956 455.844 492.794C460.061 489.633 460.916 483.653 457.754 479.437C454.593 475.221 451.497 476.363 447.28 479.524Z" fill="#A9733D"/>
<path d="M486.7 569.474C486.708 569.617 486.681 569.801 486.661 569.94C486.509 571.003 485.942 572.007 485.336 572.486C484.73 572.965 484.011 573.051 483.359 572.863C482.708 572.676 482.157 572.173 481.642 571.627C481.154 571.086 480.644 570.495 480.376 569.607C480.22 569.113 480.133 568.535 480.157 567.973C480.283 566.104 481.674 565.077 482.669 564.842C483.843 564.538 484.864 565.109 485.695 566.218C486.03 566.643 486.324 567.157 486.515 567.797C486.664 568.337 486.724 568.911 486.7 569.474Z" fill="#A9733D"/>
<path d="M489.333 559.948C490.428 560.199 491.464 560.865 492.343 561.84C492.635 562.165 492.894 562.532 492.981 563.11C493.069 563.877 492.743 564.774 492.303 565.277C491.356 566.368 489.813 566.477 488.816 566.335C487.59 566.206 486.499 565.532 485.585 564.411C484.482 563.027 484.815 561.094 486.312 560.317C487.319 559.801 488.377 559.717 489.333 559.948Z" fill="#A9733D"/>
<path d="M487.558 558.138C487.447 558.123 487.364 558.111 487.253 558.095C486.573 557.903 485.927 557.481 485.321 556.97C485.071 556.745 484.827 556.475 484.651 556.119C484.286 555.313 484.465 554.065 485.014 553.389C485.604 552.624 486.377 552.358 487.088 552.129C488.207 551.818 489.343 551.98 490.33 552.593C490.949 553.011 491.541 553.615 491.852 554.602C491.909 554.799 491.965 554.996 491.967 555.185C491.961 555.42 491.907 555.601 491.819 555.824C491.574 556.543 491.135 557.047 490.694 557.361C490.253 557.675 489.777 557.843 489.307 557.964C488.699 558.066 488.139 558.222 487.558 558.138Z" fill="#A9733D"/>
<path d="M478.601 569.353C478.292 571.714 477.061 573 475.399 572.763C473.875 572.545 472.628 570.197 472.91 568.021C473.167 566.03 474.549 564.671 476.135 564.851C477.915 565.058 478.923 566.9 478.601 569.353Z" fill="#A9733D"/>
<path d="M471.822 550.164C468.111 552.946 464.82 556.451 467.602 560.162C470.384 563.872 475.647 564.624 479.358 561.843C483.068 559.061 483.821 553.798 481.039 550.088C478.257 546.377 475.532 547.383 471.822 550.164Z" fill="#A9733D"/>
<path d="M498.332 619.481C498.338 619.591 498.318 619.734 498.302 619.841C498.185 620.662 497.747 621.437 497.279 621.807C496.811 622.178 496.255 622.244 495.752 622.099C495.249 621.954 494.824 621.566 494.426 621.144C494.049 620.726 493.655 620.269 493.448 619.584C493.327 619.203 493.26 618.756 493.279 618.322C493.376 616.879 494.45 616.085 495.219 615.904C496.126 615.669 496.914 616.11 497.556 616.966C497.815 617.295 498.042 617.691 498.19 618.186C498.305 618.603 498.35 619.047 498.332 619.481Z" fill="#A9733D"/>
<path d="M500.367 612.124C501.213 612.318 502.013 612.833 502.691 613.585C502.918 613.836 503.117 614.12 503.184 614.566C503.253 615.159 503.001 615.851 502.661 616.24C501.929 617.082 500.738 617.167 499.968 617.057C499.021 616.958 498.178 616.437 497.472 615.571C496.621 614.502 496.878 613.009 498.034 612.409C498.811 612.011 499.629 611.945 500.367 612.124Z" fill="#A9733D"/>
<path d="M498.995 610.726C498.909 610.714 498.845 610.705 498.759 610.693C498.235 610.545 497.735 610.218 497.268 609.824C497.074 609.65 496.886 609.441 496.75 609.167C496.468 608.544 496.606 607.58 497.03 607.058C497.486 606.468 498.083 606.262 498.632 606.085C499.496 605.845 500.374 605.97 501.136 606.443C501.614 606.767 502.071 607.233 502.311 607.995C502.355 608.147 502.399 608.299 502.4 608.445C502.396 608.627 502.354 608.766 502.286 608.939C502.097 609.495 501.758 609.883 501.417 610.126C501.077 610.368 500.709 610.498 500.346 610.592C499.876 610.67 499.444 610.791 498.995 610.726Z" fill="#A9733D"/>
<path d="M492.078 619.388C491.839 621.212 490.889 622.205 489.605 622.022C488.428 621.853 487.465 620.04 487.683 618.359C487.881 616.822 488.949 615.772 490.174 615.911C491.548 616.071 492.328 617.494 492.078 619.388Z" fill="#A9733D"/>
<path d="M486.841 604.568C483.976 606.717 481.434 609.424 483.582 612.289C485.731 615.155 489.796 615.736 492.662 613.588C495.527 611.439 496.109 607.374 493.96 604.509C491.811 601.643 489.707 602.42 486.841 604.568Z" fill="#A9733D"/>
<path d="M462.429 592.994C462.436 593.126 462.412 593.298 462.393 593.426C462.253 594.411 461.727 595.341 461.165 595.785C460.604 596.229 459.938 596.309 459.334 596.135C458.73 595.961 458.22 595.495 457.743 594.99C457.29 594.488 456.819 593.94 456.569 593.118C456.425 592.66 456.345 592.124 456.367 591.603C456.483 589.872 457.772 588.92 458.694 588.703C459.782 588.421 460.728 588.95 461.498 589.977C461.809 590.371 462.081 590.847 462.258 591.441C462.396 591.941 462.451 592.473 462.429 592.994Z" fill="#A9733D"/>
<path d="M464.869 584.168C465.884 584.401 466.843 585.018 467.657 585.921C467.929 586.222 468.168 586.562 468.249 587.098C468.331 587.809 468.028 588.64 467.621 589.106C466.743 590.116 465.314 590.218 464.39 590.086C463.254 589.967 462.243 589.342 461.396 588.303C460.375 587.021 460.683 585.23 462.07 584.511C463.003 584.032 463.983 583.954 464.869 584.168Z" fill="#A9733D"/>
<path d="M463.223 582.492C463.12 582.477 463.043 582.466 462.94 582.451C462.311 582.274 461.712 581.882 461.151 581.409C460.919 581.201 460.692 580.95 460.53 580.621C460.191 579.873 460.357 578.717 460.866 578.091C461.412 577.383 462.129 577.135 462.788 576.924C463.824 576.635 464.877 576.786 465.791 577.353C466.365 577.741 466.913 578.3 467.202 579.215C467.254 579.398 467.307 579.58 467.308 579.755C467.303 579.973 467.253 580.14 467.171 580.347C466.944 581.014 466.537 581.48 466.129 581.771C465.72 582.062 465.279 582.218 464.844 582.33C464.28 582.424 463.762 582.569 463.223 582.492Z" fill="#A9733D"/>
<path d="M454.925 592.883C454.639 595.07 453.499 596.262 451.959 596.042C450.547 595.84 449.391 593.664 449.653 591.648C449.89 589.803 451.171 588.544 452.64 588.711C454.289 588.903 455.224 590.61 454.925 592.883Z" fill="#A9733D"/>
<path d="M448.643 575.104C445.205 577.681 442.156 580.929 444.734 584.367C447.311 587.804 452.188 588.502 455.626 585.924C459.064 583.346 459.761 578.47 457.183 575.032C454.606 571.595 452.081 572.526 448.643 575.104Z" fill="#A9733D"/>
<path d="M478.914 639.388C478.919 639.48 478.902 639.6 478.889 639.69C478.791 640.379 478.423 641.03 478.03 641.341C477.637 641.652 477.171 641.707 476.748 641.586C476.325 641.464 475.969 641.138 475.634 640.784C475.318 640.433 474.988 640.05 474.813 639.474C474.712 639.154 474.656 638.779 474.671 638.414C474.753 637.203 475.655 636.536 476.3 636.384C477.062 636.187 477.724 636.557 478.263 637.276C478.48 637.552 478.671 637.885 478.795 638.3C478.891 638.651 478.93 639.023 478.914 639.388Z" fill="#A9733D"/>
<path d="M480.623 633.21C481.334 633.373 482.005 633.805 482.575 634.437C482.765 634.648 482.932 634.886 482.989 635.261C483.046 635.758 482.835 636.34 482.55 636.666C481.935 637.373 480.935 637.444 480.288 637.352C479.493 637.269 478.785 636.831 478.193 636.104C477.478 635.207 477.694 633.953 478.664 633.45C479.317 633.115 480.003 633.06 480.623 633.21Z" fill="#A9733D"/>
<path d="M479.471 632.037C479.399 632.027 479.345 632.019 479.273 632.009C478.833 631.885 478.413 631.611 478.021 631.279C477.858 631.134 477.7 630.958 477.586 630.728C477.349 630.205 477.465 629.395 477.821 628.957C478.204 628.461 478.705 628.288 479.166 628.14C479.892 627.938 480.629 628.043 481.269 628.441C481.67 628.712 482.054 629.103 482.256 629.744C482.292 629.872 482.329 629.999 482.33 630.122C482.327 630.274 482.292 630.391 482.234 630.536C482.076 631.003 481.791 631.329 481.505 631.533C481.219 631.736 480.91 631.845 480.605 631.924C480.211 631.99 479.848 632.091 479.471 632.037Z" fill="#A9733D"/>
<path d="M473.663 639.31C473.463 640.841 472.665 641.675 471.587 641.521C470.599 641.38 469.789 639.857 469.973 638.446C470.139 637.155 471.035 636.274 472.064 636.39C473.218 636.525 473.872 637.719 473.663 639.31Z" fill="#A9733D"/>
<path d="M469.267 626.866C466.861 628.67 464.726 630.943 466.531 633.349C468.335 635.755 471.748 636.243 474.154 634.439C476.56 632.635 477.048 629.222 475.244 626.816C473.44 624.41 471.673 625.062 469.267 626.866Z" fill="#A9733D"/>
</g>
</g>
</svg>
