<svg width="71" height="70" viewBox="0 0 71 70" fill="none" xmlns="http://www.w3.org/2000/svg">
<circle opacity="0.06" cx="35.8533" cy="35" r="35" fill="#CA0000"/>
<path opacity="0.06" d="M35.8533 70C45.1358 70 54.0382 66.3125 60.602 59.7487C67.1658 53.185 70.8533 44.2826 70.8533 35C70.8533 25.7174 67.1658 16.815 60.602 10.2513C54.0382 3.68749 45.1359 2.77486e-07 35.8533 -1.5299e-06L35.8533 35L35.8533 70Z" fill="#CA0000"/>
<g clip-path="url(#clip0_20_328)">
<path d="M25.7189 35.9896C26.2205 36.39 26.8058 37.2085 27.2018 37.1249C30.1281 36.5221 31.3118 38.7179 33.0279 40.8432C34.0048 37.4549 34.8805 34.4143 35.897 30.8719C36.5086 32.6453 36.8695 34.0226 37.4635 35.2943C37.8068 36.0336 38.524 37.1381 39.0741 37.1381C40.601 37.1381 42.5372 38.1194 43.5493 35.9676C43.7605 35.5232 44.0993 35.1403 44.535 34.5067C46.7616 39.5583 51.2412 36.0996 54.4315 37.5253C54.7791 40.7992 53.811 41.9037 50.4887 41.9169C48.0069 41.9301 45.5207 41.9213 42.7132 41.9213C42.7132 44.7112 42.722 47.325 42.7088 49.9345C42.6956 52.7727 41.8859 53.5956 39.0565 53.622C36.8563 53.644 34.6561 53.6572 32.4603 53.6176C30.0797 53.5736 29.1336 52.6275 29.1028 50.2733C29.0676 47.5759 29.094 44.8828 29.094 41.9213C26.4229 41.9213 23.9543 41.9301 21.4857 41.9213C18.115 41.9081 17.1821 40.9357 17.2965 37.5121C19.9896 36.4384 23.2899 38.5418 25.7189 35.9896Z" fill="#0062AF"/>
<path d="M44.3106 29.9124C43.5053 31.2369 42.8497 32.4558 42.0444 33.5691C41.666 34.0971 41.0059 34.4228 40.4734 34.8408C40.1126 34.348 39.6154 33.8991 39.413 33.3491C38.7045 31.4305 38.1676 29.4459 37.4152 27.5449C37.1776 26.9509 36.3899 26.1104 35.9674 26.172C35.3382 26.26 34.5065 26.9509 34.2953 27.5625C33.4504 30.04 32.8124 32.5834 32.1611 34.8716C29.2392 35.382 27.1446 34.4536 25.7673 31.3953C23.9324 35.6373 20.6893 35.096 17.2174 34.6868C17.2174 33.6131 17.1645 32.535 17.2262 31.4701C17.3538 29.3139 18.3703 28.3194 20.5749 28.2842C23.3383 28.2358 26.1062 28.271 29.0896 28.271C29.0896 25.3007 29.0676 22.6077 29.094 19.9103C29.1204 17.49 30.1237 16.4559 32.5659 16.3987C34.8365 16.3459 37.1116 16.3371 39.3778 16.4075C41.7584 16.4823 42.6692 17.446 42.6957 19.8134C42.7265 22.5153 42.7045 25.2171 42.7045 28.2666C44.9839 28.2666 47.0917 28.3678 49.1818 28.2446C53.9431 27.963 55.1972 28.9795 54.3171 34.8496C52.3281 34.8496 50.0135 35.4569 48.3458 34.678C46.7396 33.9211 45.7803 31.7429 44.3106 29.9124Z" fill="#0062AF"/>
</g>
<defs>
<clipPath id="clip0_20_328">
<rect width="45" height="45" fill="white" transform="translate(13.3872 12.5)"/>
</clipPath>
</defs>
</svg>
