<svg width="71" height="70" viewBox="0 0 71 70" fill="none" xmlns="http://www.w3.org/2000/svg">
<circle cx="35.8533" cy="35.0001" r="35" fill="#FCF0F0"/>
<path d="M35.8533 70C45.1358 70 54.0382 66.3125 60.602 59.7487C67.1658 53.185 70.8533 44.2826 70.8533 35C70.8533 25.7174 67.1658 16.815 60.602 10.2513C54.0382 3.68749 45.1359 2.77486e-07 35.8533 -1.5299e-06L35.8533 35L35.8533 70Z" fill="#F9E2E2"/>
<g clip-path="url(#clip0_20_318)">
<path fill-rule="evenodd" clip-rule="evenodd" d="M23.9729 16.4613C22.0378 16.8785 20.5527 18.7265 20.5527 20.7172C20.5527 23.0736 22.5633 25.0842 24.9197 25.0842C26.929 25.0842 28.767 23.5927 29.1797 21.6275C29.4908 20.1452 29.0667 18.7338 27.985 17.6519C26.9005 16.5676 25.4614 16.1405 23.9729 16.4613ZM34.8967 16.4613C32.9616 16.8785 31.4765 18.7265 31.4765 20.7172C31.4765 22.7266 32.968 24.5646 34.9331 24.9772C36.6952 25.3472 38.536 24.5974 39.5358 23.1025C40.0531 22.3292 40.2494 21.6729 40.2494 20.7172C40.2494 20.1035 40.2144 19.8455 40.0717 19.41C39.3748 17.2818 37.1011 15.9862 34.8967 16.4613ZM45.8933 16.4613C43.9582 16.8785 42.4731 18.7265 42.4731 20.7172C42.4731 23.0736 44.4837 25.0842 46.8401 25.0842C48.8494 25.0842 50.6874 23.5927 51.1001 21.6275C51.4112 20.1452 50.9871 18.7338 49.9054 17.6519C48.8209 16.5676 47.3818 16.1405 45.8933 16.4613ZM20.695 26.4243C19.59 27.1676 18.6372 28.2495 18.0431 29.4354C17.4399 30.6392 17.2002 31.6731 17.2002 33.0707V33.8986H21.6333H26.0664L26.1863 33.243C26.4218 31.9561 27.001 30.5526 27.7788 29.3845C27.9792 29.0835 28.5524 28.4307 29.0525 27.9337L29.9617 27.0302L29.7894 26.8946C29.6945 26.82 29.3965 26.6101 29.1272 26.4283L28.6375 26.0976L28.1441 26.3902C26.2067 27.5388 23.7269 27.5543 21.7717 26.4299C21.4621 26.252 21.1996 26.1063 21.1883 26.1063C21.1769 26.1063 20.9549 26.2494 20.695 26.4243ZM42.644 26.4178C42.3988 26.5869 42.1079 26.7936 41.9973 26.8769L41.7963 27.0285L42.7064 27.9329C43.207 28.4303 43.7805 29.0835 43.981 29.3845C44.7587 30.5526 45.338 31.9561 45.5734 33.243L45.6934 33.8986H50.0998H54.5062L54.4676 32.788C54.4373 31.9194 54.3876 31.5187 54.2396 30.9492C54.0302 30.1435 53.567 29.1213 53.0939 28.4207C52.6857 27.8162 51.6558 26.8032 51.051 26.4113L50.5665 26.0972L49.9959 26.4253C48.036 27.5526 45.5561 27.5406 43.623 26.3945C43.3557 26.236 43.1263 26.1072 43.1132 26.1083C43.1002 26.1094 42.889 26.2487 42.644 26.4178ZM34.5803 27.3829C31.3794 27.9888 28.8724 30.5013 28.315 33.6619L28.2733 33.8986H35.8866C43.1025 33.8986 43.498 33.892 43.464 33.7712C43.4443 33.701 43.407 33.529 43.3812 33.3888C43.2924 32.9066 43.032 32.186 42.7231 31.5682C41.7245 29.5701 39.8748 28.0793 37.7005 27.52C36.7742 27.2817 35.4275 27.2225 34.5803 27.3829ZM17.2002 36.7047C17.2002 37.0648 17.242 37.426 17.2995 37.5638C17.4946 38.0308 17.7304 38.144 20.143 38.9294L22.4325 39.6748L22.7332 40.4208L23.0339 41.1666L22.0182 43.1972C20.8497 45.533 20.7854 45.7025 20.9143 46.1057C21.0461 46.5179 24.2348 49.7235 24.6836 49.8948C25.1181 50.0608 25.2342 50.0183 27.6373 48.8163L29.6678 47.8005L30.4137 48.1012L31.1596 48.402L31.905 50.6915C32.6904 53.1041 32.8037 53.3398 33.2706 53.5349C33.6152 53.6789 38.1446 53.6789 38.4891 53.5349C38.9561 53.3398 39.0693 53.1041 39.8547 50.6915L40.6001 48.402L41.3461 48.1012L42.0919 47.8005L44.1225 48.8163C46.4583 49.9848 46.6278 50.0491 47.031 49.9202C47.4432 49.7883 50.6488 46.5996 50.8201 46.1509C50.9861 45.7163 50.9436 45.6002 49.7416 43.1972L48.7258 41.1666L49.0247 40.4253L49.3236 39.684L51.5792 38.9334C53.9497 38.1446 54.1946 38.0252 54.3874 37.5638C54.4449 37.426 54.4867 37.0648 54.4867 36.7047V36.0834H50.0538H45.6208L45.5709 36.4657C45.1575 39.6383 42.8164 42.6649 39.7369 44.0079C36.0818 45.6021 31.7502 44.7709 28.9445 41.9371C27.5383 40.5168 26.5114 38.5137 26.2141 36.6113L26.1316 36.0834H21.6659H17.2002V36.7047ZM28.3425 36.2174C28.3425 36.4677 28.6241 37.4541 28.8519 38.0011C29.4983 39.5539 30.9181 41.0618 32.4421 41.8138C35.7417 43.442 39.5918 42.566 41.9042 39.661C42.4181 39.0153 43.0637 37.7208 43.2685 36.9254C43.5043 36.0091 43.5864 36.0834 42.3387 36.0834H41.2601L41.1679 36.443C41.0342 36.9645 40.6263 37.7784 40.2597 38.2548C39.4896 39.2554 38.4674 39.937 37.2229 40.2795C36.5597 40.462 35.1049 40.4599 34.4598 40.2754C32.6694 39.7635 31.2314 38.4076 30.6945 36.7251L30.4908 36.0869L29.4166 36.0851C28.4215 36.0835 28.3425 36.0932 28.3425 36.2174ZM32.7855 36.138C32.7859 36.1681 32.8878 36.3699 33.012 36.5864C33.6985 37.7835 35.0454 38.4346 36.3667 38.208C37.0537 38.0903 37.7197 37.7546 38.1815 37.2936C38.51 36.9657 38.9723 36.2917 38.9743 36.138C38.9747 36.1079 37.5822 36.0834 35.8799 36.0834C34.1776 36.0834 32.7851 36.1079 32.7855 36.138Z" fill="#8D4A20"/>
</g>
<defs>
<clipPath id="clip0_20_318">
<rect width="45" height="45" fill="white" transform="translate(13.3533 12.5)"/>
</clipPath>
</defs>
</svg>
