<svg width="99" height="99" viewBox="0 0 99 99" fill="none" xmlns="http://www.w3.org/2000/svg">
<circle opacity="0.06" cx="49.5" cy="49.5" r="49.5" fill="#CA0000"/>
<path opacity="0.06" d="M49.5 99C62.6282 99 75.2187 93.7848 84.5018 84.5018C93.7848 75.2187 99 62.6282 99 49.5C99 36.3718 93.7848 23.7813 84.5018 14.4982C75.2187 5.21517 62.6282 8.58162e-07 49.5 -1.5299e-06L49.5 49.5L49.5 99Z" fill="#CA0000"/>
<g clip-path="url(#clip0_8_77)">
<path d="M39.6001 26.3411V31.6446H34.2965V42.2518C34.2965 48.1122 39.0432 52.8589 44.9036 52.8589C50.7641 52.8589 55.5108 48.1122 55.5108 42.2518V31.6446H50.2072V26.3411H58.1626C59.6264 26.3411 60.8144 27.5291 60.8144 28.9929V42.2518C60.8144 50.1355 55.0812 56.6775 47.5554 57.9424V62.1402C47.5554 67.2661 51.7108 71.4214 56.8367 71.4214C60.8064 71.4214 64.1954 68.9287 65.5213 65.4204C62.7449 64.182 60.8144 61.3977 60.8144 58.1625C60.8144 53.7685 64.3757 50.2071 68.7697 50.2071C73.1637 50.2071 76.7251 53.7685 76.7251 58.1625C76.7251 61.7981 74.2854 64.8636 70.9548 65.8129C69.3266 72.0897 63.6226 76.725 56.8367 76.725C48.7805 76.725 42.2518 70.1963 42.2518 62.1402V57.9424C34.7261 56.6801 28.9929 50.1355 28.9929 42.2518V28.9929C28.9929 27.5291 30.1809 26.3411 31.6447 26.3411H39.6001Z" fill="#0062AF"/>
</g>
<defs>
<clipPath id="clip0_8_77">
<rect width="63.6429" height="63.6429" fill="white" transform="translate(18.3857 18.3857)"/>
</clipPath>
</defs>
</svg>
