<svg width="99" height="99" viewBox="0 0 99 99" fill="none" xmlns="http://www.w3.org/2000/svg">
<circle opacity="0.06" cx="49.5" cy="49.5" r="49.5" fill="#CA0000"/>
<path opacity="0.06" d="M49.5 99C62.6282 99 75.2187 93.7848 84.5018 84.5018C93.7848 75.2187 99 62.6282 99 49.5C99 36.3718 93.7848 23.7813 84.5018 14.4982C75.2187 5.21517 62.6282 8.58162e-07 49.5 -1.5299e-06L49.5 49.5L49.5 99Z" fill="#CA0000"/>
<g clip-path="url(#clip0_8_183)">
<path fill-rule="evenodd" clip-rule="evenodd" d="M48.7542 23.8728C45.6955 24.2573 42.9468 25.5863 40.8224 27.7078C36.2995 32.2245 35.6454 39.1009 39.2322 44.4247C39.9555 45.4981 41.7554 47.2619 42.8358 47.956C45.2587 49.5124 47.3773 50.14 50.2078 50.14C51.8645 50.14 52.7748 50.0113 54.1772 49.5787C54.8227 49.3796 54.8611 49.3452 58.7593 45.4719L62.6906 41.566L62.9439 40.7018C63.7261 38.0344 63.6441 35.1231 62.715 32.5702C61.1298 28.2152 57.4299 25.0384 52.8035 24.0602C52.045 23.8998 49.4827 23.7812 48.7542 23.8728ZM52.1987 25.9849C54.741 26.6844 56.7593 28.7067 57.4893 31.2864C57.7849 32.3311 57.8071 34.0402 57.538 35.0442C56.8014 37.7925 54.6251 39.9213 51.895 40.5644L51.1423 40.7416V41.7069V42.6723H52.2393C52.8427 42.6723 53.4307 42.7224 53.5459 42.7836C53.6613 42.8449 53.8223 43.0537 53.9039 43.2475C54.0325 43.553 54.0325 43.647 53.9039 43.9526C53.8223 44.1464 53.6613 44.3551 53.5459 44.4164C53.4307 44.4777 52.8427 44.5278 52.2393 44.5278H51.1423V46.1025C51.1423 47.8339 51.0934 48.0027 50.5234 48.2371C50.2697 48.3414 50.1459 48.3414 49.8921 48.2371C49.3222 48.0027 49.2733 47.8339 49.2733 46.1025V44.5278H48.1762C47.5729 44.5278 46.9849 44.4777 46.8696 44.4164C46.7543 44.3551 46.5933 44.1464 46.5116 43.9526C46.3831 43.647 46.3831 43.553 46.5116 43.2475C46.5933 43.0537 46.7543 42.8449 46.8696 42.7836C46.9849 42.7224 47.5729 42.6723 48.1762 42.6723H49.2733V41.7069V40.7416L48.5205 40.5651C46.9635 40.2 45.3593 39.204 44.3754 37.9915C43.2376 36.5894 42.6942 35.0537 42.6942 33.2403C42.6942 31.1516 43.399 29.4396 44.8621 27.9742C46.8507 25.9823 49.5393 25.2533 52.1987 25.9849ZM48.7542 27.7694C45.8339 28.5733 44.006 31.5026 44.6451 34.3543C44.8878 35.4375 45.3448 36.289 46.1226 37.1076C47.8417 38.9169 50.4616 39.3728 52.7858 38.2673C53.6156 37.8726 54.8548 36.6293 55.2792 35.7658C56.3923 33.5008 55.9599 30.9701 54.1567 29.1965C53.484 28.5348 52.574 28.0167 51.6606 27.7754C50.9747 27.5942 49.4023 27.591 48.7542 27.7694ZM35.4445 43.1626C34.4684 44.1786 34.2644 45.4248 34.888 46.5622C35.0786 46.9099 36.8611 48.7502 40.6605 52.5217L46.1573 57.9781L47.5079 56.6402L48.8586 55.3022L46.7038 53.1518C44.8957 51.3475 44.4488 50.9557 43.9261 50.7171C40.6856 49.2387 37.8952 46.4815 36.4366 43.3165C36.2471 42.9055 36.0747 42.5692 36.0533 42.5692C36.0321 42.5692 35.7581 42.8363 35.4445 43.1626ZM56.8764 50.0194L49.3759 57.4663L50.7269 58.8046L52.0779 60.1429L58.665 53.6039C63.3086 48.9942 65.3379 46.9111 65.5431 46.5437C65.7947 46.0932 65.834 45.9105 65.8325 45.1978C65.8303 44.216 65.6462 43.8029 64.8802 43.0605L64.3768 42.5725L56.8764 50.0194ZM46.1067 60.7114L44.2401 62.5666L45.5352 63.8554C46.2474 64.5642 46.8771 65.1442 46.9345 65.1442C46.992 65.1442 47.8686 64.3214 48.8827 63.3157L50.7266 61.4872L49.4045 60.1717C48.6772 59.4482 48.0578 58.8562 48.0278 58.8562C47.9978 58.8562 47.1334 59.691 46.1067 60.7114ZM36.3054 60.6687C35.147 60.9779 34.8182 61.242 31.507 64.5217C28.5265 67.474 28.3042 67.7199 27.9305 68.4778C27.5792 69.1903 27.5267 69.3957 27.4874 70.2128C27.4013 72.0013 27.8612 72.9478 29.6693 74.7021C30.4957 75.5037 30.9206 75.8325 31.4467 76.0769C32.8506 76.7291 34.2882 76.7247 35.6589 76.064C36.2748 75.7671 36.825 75.2594 40.9409 71.1894C43.468 68.6907 45.5354 66.594 45.5354 66.5301C45.5354 66.4663 44.3791 65.2818 42.9656 63.8978C41.2623 62.2301 40.2182 61.2873 39.8689 61.1016C38.7866 60.5263 37.4478 60.3636 36.3054 60.6687ZM61.64 60.6687C60.5379 60.9629 60.1134 61.29 57.4499 63.8978C56.0365 65.2818 54.8801 66.4667 54.8801 66.5312C54.8801 66.5956 56.9477 68.6889 59.4746 71.1829C62.7895 74.4546 64.2158 75.7944 64.5961 75.9939C66.0068 76.7338 67.5651 76.7663 69.0011 76.0855C69.7023 75.7531 71.6614 73.9126 72.2227 73.0587C72.77 72.2263 72.9837 71.3644 72.9282 70.2128C72.8889 69.3957 72.8363 69.1903 72.4851 68.4778C72.1114 67.7199 71.8891 67.474 68.9085 64.5217C66.6708 62.3052 65.5744 61.292 65.2035 61.0976C64.1109 60.5251 62.7784 60.3647 61.64 60.6687ZM52.8795 62.0277L51.5569 63.3439L52.4678 64.244C52.9688 64.7391 53.4252 65.1442 53.4821 65.1442C53.5389 65.1442 54.1679 64.5644 54.8798 63.856L56.1743 62.5677L55.2439 61.6397C54.7321 61.1292 54.2884 60.7117 54.2578 60.7117C54.2273 60.7117 53.6071 61.3039 52.8795 62.0277ZM38.3135 62.9294C39.3373 63.0967 40.4007 63.9384 40.9234 64.9951C41.1937 65.5418 41.2265 65.7139 41.2265 66.5873C41.2265 68.1266 41.0965 68.3292 38.329 71.1026C37.0672 72.3671 35.8247 73.5347 35.5677 73.6971C33.6665 74.899 31.0875 74.1782 30.0921 72.1668C29.8368 71.6507 29.8052 71.4731 29.8052 70.556C29.8052 68.9424 29.9043 68.7885 32.8067 65.8971C35.3621 63.3512 35.737 63.0745 36.8947 62.8785C37.382 62.7961 37.5302 62.8014 38.3135 62.9294ZM64.3093 63.1069C65.0371 63.3727 65.6536 63.9013 68.0221 66.2907C70.4624 68.7522 70.6104 68.9962 70.6104 70.556C70.6104 71.4912 70.5822 71.6421 70.3066 72.1824C69.5422 73.6811 67.7816 74.5623 66.2169 74.2291C65.0769 73.9864 64.8146 73.789 62.2405 71.2355C59.2997 68.3184 59.1891 68.1501 59.1891 66.5873C59.1891 65.7139 59.2219 65.5418 59.4922 64.9951C60.3907 63.1783 62.3751 62.4003 64.3093 63.1069Z" fill="#0062AF"/>
</g>
<defs>
<clipPath id="clip0_8_183">
<rect width="63.6429" height="63.6429" fill="white" transform="translate(18.3857 18.3857)"/>
</clipPath>
</defs>
</svg>
