<svg width="71" height="70" viewBox="0 0 71 70" fill="none" xmlns="http://www.w3.org/2000/svg">
<ellipse opacity="0.06" cx="35.8176" cy="34.7592" rx="34.9644" ry="34.7592" fill="#CA0000"/>
<path opacity="0.06" d="M35.8889 70C45.162 70 54.0554 66.3379 60.6124 59.8193C67.1695 53.3007 70.8533 44.4596 70.8533 35.2409C70.8533 26.0222 67.1695 17.181 60.6124 10.6624C54.0554 4.14381 45.162 0.48169 35.8889 0.481688L35.8889 35.2409L35.8889 70Z" fill="#CA0000"/>
<g clip-path="url(#clip0_20_339)">
<path fill-rule="evenodd" clip-rule="evenodd" d="M31.2828 16.7903C27.6357 17.1619 24.5834 18.5409 22.0572 20.9582C20.1334 22.7992 18.9186 24.789 18.1728 27.3209C17.4552 29.7572 17.4934 32.4404 18.2833 35.0745C18.8031 36.808 19.8028 38.6155 21.0589 40.0927L21.5981 40.7267H24.2364H26.8748L27.5195 39.4424L28.1641 38.1582L27.9922 38.0477C27.6034 37.7978 27.1339 37.2938 26.9259 36.9033C26.4897 36.0841 26.4719 35.9405 26.4719 33.2234C26.4719 31.8417 26.5048 30.574 26.5464 30.3564C26.9522 28.2288 29.3733 27.052 31.2452 28.0725L31.6837 28.3116L34.891 25.8309L38.0982 23.3503L41.0139 23.3213C43.8266 23.2934 43.9476 23.2864 44.4398 23.1245C46.2061 22.5431 47.5014 21.3126 48.0799 19.6663C48.3194 18.9851 48.4112 18.3812 48.4118 17.4838L48.4124 16.7411L39.9752 16.7527C35.3347 16.7591 31.4231 16.776 31.2828 16.7903ZM35.9298 27.7879L32.9775 30.0665L33.0152 31.0488L33.0529 32.031H31.9492H30.8455V31.3759C30.8455 30.8625 30.8137 30.6591 30.6987 30.4349C30.5337 30.1134 30.1138 29.8571 29.7521 29.8571C29.3904 29.8571 28.9705 30.1134 28.8054 30.4349C28.6672 30.7045 28.6587 30.8585 28.6587 33.118C28.6587 35.3774 28.6672 35.5315 28.8054 35.801C28.9705 36.1226 29.3904 36.3789 29.7521 36.3789C30.1138 36.3789 30.5337 36.1226 30.6987 35.801C30.7794 35.6438 30.8455 35.4649 30.8455 35.4035C30.8455 35.308 31.003 35.2919 31.9388 35.2919C33.182 35.2919 33.1036 35.2402 32.9502 35.9586C32.7058 37.1028 31.8301 38.0286 30.6098 38.433C30.5332 38.4584 30.0455 39.3461 29.3711 40.6877L28.2589 42.9006H25.6878H23.1168L23.3405 43.3411C23.6616 43.9735 24.036 45.1464 24.1699 45.9388C24.2642 46.4975 24.2852 47.2725 24.2852 50.196V53.7703H31.9388H39.5925V51.5963V49.4224H41.3684C42.3451 49.4224 43.3208 49.3891 43.5366 49.3484C44.8457 49.1016 45.903 48.0506 46.1512 46.7491C46.1922 46.5346 46.2256 45.67 46.2256 44.8277V43.2963L44.7678 42.5745C43.966 42.1776 43.31 41.8352 43.31 41.8137C43.31 41.7922 43.966 41.4498 44.7678 41.0528L46.2256 40.3311V39.2419V38.1526L48.7769 36.8861C50.18 36.1896 51.3281 35.6031 51.3281 35.583C51.3281 35.5628 50.1794 34.404 48.7755 33.0079L46.2229 30.4696L46.1541 29.7104C46.0409 28.4626 45.7891 27.3516 45.339 26.1151L45.1185 25.5092H42.0003H38.8822L35.9298 27.7879ZM51.1641 37.5787C50.0115 38.1546 49.0684 38.6579 49.0684 38.6972C49.0684 38.816 49.9726 40.5818 50.0334 40.5818C50.1625 40.5818 54.3166 38.4739 54.3166 38.4084C54.3166 38.2661 53.4063 36.5239 53.334 36.5277C53.2931 36.5299 52.3167 37.0028 51.1641 37.5787ZM50.5992 43.9876V45.0746H52.7859H54.9727V43.9876V42.9006H52.7859H50.5992V43.9876ZM49.5226 48.2999C49.2728 48.7986 49.0684 49.2386 49.0684 49.278C49.0684 49.3435 53.2225 51.4514 53.3517 51.4514C53.4125 51.4514 54.3166 49.6856 54.3166 49.5668C54.3166 49.5013 50.1625 47.3934 50.0334 47.3934C50.0023 47.3934 49.7725 47.8014 49.5226 48.2999Z" fill="#0062AF"/>
</g>
<defs>
<clipPath id="clip0_20_339">
<rect width="44.9542" height="44.6904" fill="white" transform="translate(13.8401 12.9105)"/>
</clipPath>
</defs>
</svg>
