<svg width="99" height="99" viewBox="0 0 99 99" fill="none" xmlns="http://www.w3.org/2000/svg">
<circle opacity="0.06" cx="49.5" cy="49.5" r="49.5" fill="#CA0000"/>
<path opacity="0.06" d="M49.5 99C62.6282 99 75.2187 93.7848 84.5018 84.5018C93.7848 75.2187 99 62.6282 99 49.5C99 36.3718 93.7848 23.7813 84.5018 14.4982C75.2187 5.21517 62.6282 8.58162e-07 49.5 -1.5299e-06L49.5 49.5L49.5 99Z" fill="#CA0000"/>
<g clip-path="url(#clip0_8_59)">
<path fill-rule="evenodd" clip-rule="evenodd" d="M48.6732 25.6889C47.3755 25.7628 46.6987 25.8763 45.2628 26.2609C44.379 26.4977 42.727 27.0994 42.4047 27.302C42.3565 27.3324 42.4372 27.4847 42.5841 27.6406C42.9433 28.0219 42.94 28.5537 42.5765 28.8717C42.244 29.1625 41.8066 29.1561 41.3773 28.854C41.1895 28.7218 40.7549 28.5353 40.4115 28.4394C39.8514 28.2831 39.2969 28.265 35.0318 28.2644C30.6215 28.2638 30.2382 28.2772 29.7481 28.4482C28.3518 28.9353 27.2738 30.0165 26.9121 31.2924C26.7275 31.9436 25.5938 41.0021 25.6621 41.2792C25.7499 41.6349 26.0966 41.8926 26.4875 41.8926C26.9642 41.8926 28.5714 41.398 29.7134 40.8999C31.7964 39.9912 33.2295 39.0203 34.5819 37.6014C35.924 36.1933 36.6811 34.9415 37.3329 33.0529C37.4995 32.5704 37.7014 32.1018 37.7818 32.0115C38.17 31.5753 38.9698 31.7728 39.1575 32.3513C39.2562 32.6553 39.2344 32.8027 38.975 33.5902C38.6784 34.4903 38.048 35.8553 37.5687 36.6353C36.6313 38.1606 35.1046 39.745 33.5668 40.7886C32.6327 41.4225 32.6301 41.4254 32.6305 41.8294C32.6311 42.4566 32.8939 43.9766 33.2137 45.2021C33.7147 47.1219 34.5583 49.0745 35.5828 50.6853C35.8732 51.142 36.1183 51.5247 36.1273 51.5357C36.1363 51.5466 36.554 51.1483 37.0556 50.6505C38.6317 49.0862 40.5415 47.9626 43.2262 47.0202L44.648 46.5212L44.8688 46.0386C45.2825 45.1346 46.1588 44.5246 47.4723 44.2264C48.207 44.0595 51.3148 44.0485 51.9967 44.2103C53.4083 44.5453 54.2722 45.1322 54.6865 46.0376L54.9068 46.5189L56.3291 47.0212C59.051 47.9824 60.9515 49.1021 62.5004 50.6574C62.999 51.158 63.4389 51.5338 63.4781 51.4928C63.6892 51.2714 64.6776 49.5559 65.0891 48.6966C66.008 46.7779 66.7673 44.0605 66.8962 42.2289L66.9516 41.4418L65.954 40.7707C64.7123 39.9355 63.0608 38.2799 62.2877 37.0954C61.5828 36.0151 60.9555 34.7276 60.5822 33.5943C60.2256 32.5118 60.2786 32.1491 60.8325 31.8817C61.4744 31.572 61.826 31.8485 62.1785 32.9401C63.382 36.6678 66.1059 39.4034 70.2997 41.0965C71.3146 41.5063 72.6618 41.8926 73.0757 41.8926C73.461 41.8926 73.8068 41.6315 73.895 41.274C73.9642 40.9938 72.8308 31.9523 72.6438 31.2924C72.2925 30.0535 71.2565 28.9862 69.9139 28.4803C69.4084 28.2899 69.1334 28.2751 65.4263 28.2379C60.2375 28.1861 58.7438 28.3207 58.1384 28.895C57.6632 29.3456 56.9447 29.1795 56.7481 28.5735C56.6231 28.1883 56.6823 27.9706 57.0103 27.6092L57.2499 27.3454L56.6841 27.0903C54.312 26.0213 51.4937 25.5283 48.6732 25.6889ZM41.175 39.9025C42.5604 40.3009 43.7372 41.2482 44.3093 42.4253C44.6424 43.1109 44.6487 43.1438 44.5098 43.4818C44.2654 44.0767 43.8977 44.1658 43.0053 43.8465C42.3572 43.6147 41.0772 43.5903 40.3197 43.7952C39.4983 44.0176 38.6992 44.4638 37.8763 45.1596C36.9933 45.9062 36.7179 45.9671 36.2732 45.5149C36.0756 45.3139 35.9924 45.1332 35.9924 44.9051C35.9924 44.6301 36.0996 44.4756 36.6956 43.8907C37.7598 42.8464 39.1973 42.1507 40.7957 41.9064L41.3241 41.8257L41.0359 41.7056C40.6586 41.5483 39.9005 41.4041 39.4508 41.4041C38.5312 41.4041 38.2583 40.1048 39.1008 39.7371C39.3688 39.62 40.5093 39.7111 41.175 39.9025ZM60.7478 39.9803C61.2348 40.5561 60.8519 41.4041 60.105 41.4041C59.6553 41.4041 58.8972 41.5483 58.5199 41.7056L58.2317 41.8257L58.7601 41.9064C60.5071 42.1734 62.0281 42.9504 63.1136 44.1306C63.6535 44.7177 63.72 45.1616 63.3276 45.5606C62.9115 45.9837 62.5504 45.8959 61.6795 45.1596C60.8566 44.4638 60.0576 44.0176 59.2361 43.7952C58.4786 43.5903 57.1986 43.6147 56.5506 43.8465C55.8741 44.0885 55.5785 44.0889 55.2774 43.8481C54.8686 43.5211 54.8623 43.216 55.2478 42.4228C56.0619 40.7476 58.1291 39.5711 60.0513 39.689C60.4267 39.7121 60.5724 39.7729 60.7478 39.9803ZM48.1007 45.9147C47.3196 46.0281 46.7194 46.2947 46.5086 46.622C46.3848 46.8142 46.3546 47.0263 46.3842 47.4987C46.4585 48.6858 47.4447 50.142 48.5819 50.7439C49.3257 51.1376 50.2301 51.1376 50.9739 50.7439C52.1112 50.142 53.0973 48.6858 53.1716 47.4987C53.219 46.7412 53.0659 46.4496 52.4837 46.1896C51.6869 45.8337 49.5718 45.701 48.1007 45.9147ZM44.0139 48.58C41.6228 49.3689 39.727 50.4387 38.3318 51.7864C36.7219 53.3417 35.9924 55.0814 35.9924 57.366C35.9924 59.1206 36.3017 60.1362 37.0188 60.7374C37.7737 61.3702 38.9215 61.5624 41.9966 61.5709C44.5641 61.578 45.406 61.4654 46.7621 60.9335C47.5355 60.6303 48.7972 59.7995 48.9005 59.5254C48.934 59.4368 48.9614 58.5966 48.9614 57.6582C48.9614 55.977 48.9648 55.9485 49.1972 55.7123C49.3599 55.5467 49.5398 55.4725 49.7779 55.4725C50.0161 55.4725 50.1959 55.5467 50.3586 55.7123C50.591 55.9485 50.5945 55.977 50.5945 57.6582C50.5945 58.5966 50.6219 59.4368 50.6553 59.5254C50.7586 59.7995 52.0203 60.6303 52.7937 60.9335C54.1498 61.4654 54.9917 61.578 57.5593 61.5709C61.3873 61.5604 62.4956 61.2419 63.1293 59.9701C63.6654 58.8941 63.7182 56.3902 63.2352 54.9351C62.3936 52.399 60.1789 50.3889 56.6947 48.9991C56.2191 48.8093 55.6085 48.5876 55.3375 48.5062L54.8449 48.3583L54.5872 49.0264C53.8525 50.9308 52.1537 52.4517 50.4245 52.7533C48.3132 53.1215 46.0166 51.5724 45.0005 49.0946C44.8414 48.7067 44.7056 48.3824 44.6988 48.3738C44.692 48.3652 44.3838 48.458 44.0139 48.58ZM42.4341 54.6938C42.5359 54.7491 42.6868 54.9277 42.7696 55.0906C42.9717 55.4881 42.813 56.0031 42.4256 56.2068C42.034 56.4128 41.8132 56.3877 41.4756 56.0988C40.873 55.5832 41.2312 54.6068 42.0269 54.5961C42.1492 54.5946 42.3325 54.6384 42.4341 54.6938ZM57.9259 54.7068C58.2463 54.8804 58.3694 55.0956 58.3728 55.4882C58.3752 55.7698 58.3129 55.8997 58.0802 56.0988C57.7431 56.3873 57.5218 56.4128 57.1326 56.2081C56.7575 56.0109 56.6099 55.5556 56.7839 55.1322C56.9918 54.626 57.4568 54.4528 57.9259 54.7068ZM39.0908 56.5456C39.732 57.0585 39.3264 58.1103 38.4876 58.1103C38.16 58.1103 37.7211 57.5947 37.7247 57.2141C37.7315 56.4879 38.5301 56.097 39.0908 56.5456ZM61.3842 56.4654C61.6981 56.6354 61.8278 56.8525 61.8311 57.2141C61.8347 57.5947 61.3959 58.1103 61.0683 58.1103C60.7335 58.1103 60.332 57.8456 60.2091 57.5437C59.9049 56.7969 60.6811 56.0846 61.3842 56.4654ZM42.4341 58.2109C42.5359 58.2662 42.6868 58.4448 42.7696 58.6077C42.9717 59.0052 42.813 59.5202 42.4256 59.7239C42.034 59.9299 41.8132 59.9048 41.4756 59.6159C40.7017 58.9537 41.5403 57.7244 42.4341 58.2109ZM58.1216 58.3498C58.4981 58.7047 58.4795 59.2742 58.0802 59.6159C57.9177 59.755 57.6994 59.8688 57.5952 59.8688C57.2377 59.8688 56.8578 59.5884 56.7452 59.2415C56.4681 58.3877 57.4719 57.7375 58.1216 58.3498ZM49.1055 61.6368C47.337 62.888 44.8258 63.47 41.6422 63.3668L40.3154 63.3237V64.8824V66.4413L40.7807 65.9987C41.5571 65.2601 41.7253 65.2025 43.224 65.1617L44.5475 65.1256L44.6808 64.801C44.9852 64.0602 45.9278 64.0676 46.234 64.8132L46.3725 65.1501L47.6428 65.1229L48.9133 65.0956L48.9614 64.4275C49.0165 63.6601 49.2315 63.3859 49.7779 63.3859C50.3243 63.3859 50.5393 63.6601 50.5945 64.4275L50.6425 65.0956L51.913 65.1229L53.1834 65.1501L53.3218 64.8132C53.6281 64.0676 54.5707 64.0602 54.875 64.801L55.0083 65.1256L56.3318 65.1617C57.8306 65.2025 57.9988 65.2601 58.7752 65.9987L59.2404 66.4413V64.8824V63.3237L57.9137 63.3668C56.349 63.4175 54.6123 63.2668 53.4829 62.9822C52.1665 62.6506 51.2272 62.2005 49.97 61.2988C49.7952 61.1735 49.7173 61.204 49.1055 61.6368ZM41.3465 67.9548C40.5394 68.7781 40.3154 69.0648 40.3154 69.2737V69.5408H48.473H56.6307L56.7347 69.0475C56.8648 68.4308 57.0285 68.1072 57.3995 67.7334L57.6904 67.4403L57.4387 67.1717C57.1919 66.9082 57.1652 66.903 56.0523 66.903C55.1271 66.903 54.9174 66.9291 54.9174 67.0441C54.9174 67.1218 54.8149 67.3064 54.6898 67.4544C54.5196 67.6556 54.3745 67.7237 54.116 67.7237C53.7287 67.7237 53.2843 67.3805 53.2843 67.0814C53.2843 66.9172 53.1775 66.903 51.9394 66.903H50.5945V67.521C50.5945 68.0556 50.5617 68.1703 50.3517 68.371C50.1931 68.5224 49.9941 68.6029 49.7779 68.6029C49.5618 68.6029 49.3627 68.5224 49.2041 68.371C48.9941 68.1703 48.9614 68.0556 48.9614 67.521V66.903H47.6164C46.3783 66.903 46.2715 66.9172 46.2715 67.0814C46.2715 67.3805 45.8271 67.7237 45.4399 67.7237C45.1813 67.7237 45.0362 67.6556 44.8661 67.4544C44.7409 67.3064 44.6384 67.1218 44.6384 67.0441C44.6384 66.9291 44.4293 66.903 43.508 66.903H42.3776L41.3465 67.9548ZM67.2705 68.0829C67.1337 68.2482 67.0218 68.446 67.0218 68.5225C67.0218 68.6377 66.7209 68.6616 65.2686 68.6616H63.5154V69.5408V70.4201H65.2508H66.9862L67.1442 70.757C67.3895 71.2803 67.6467 71.3176 70.7684 71.2819C73.4222 71.2515 73.5181 71.2436 73.8921 71.0255C74.4973 70.6727 74.7551 70.212 74.7551 69.4838C74.7551 68.9509 74.7183 68.8283 74.4601 68.4997C73.9002 67.7873 73.8747 67.7826 70.5127 67.7825L67.5192 67.7823L67.2705 68.0829ZM58.6982 68.8931C58.3329 69.2127 58.3314 69.7355 58.695 70.1052C58.9342 70.3487 59.03 70.3742 59.8239 70.4056C60.9064 70.4484 61.3126 70.3733 61.6048 70.0761C61.9191 69.7565 61.9163 69.2246 61.5984 68.9014C61.3732 68.6724 61.3086 68.6616 60.1628 68.6616C59.039 68.6616 58.9462 68.6762 58.6982 68.8931ZM41.6598 71.8995C43.3854 73.5358 45.8741 74.5118 48.8347 74.7134C52.2525 74.9462 54.8851 74.2116 57.4115 72.3202L58.0308 71.8566L57.7026 71.578L57.3744 71.2994L49.2052 71.3037L41.0359 71.3081L41.6598 71.8995Z" fill="#0062AF"/>
</g>
<defs>
<clipPath id="clip0_8_59">
<rect width="63.6429" height="63.6429" fill="white" transform="translate(18.3857 18.3857)"/>
</clipPath>
</defs>
</svg>
