<svg width="99" height="99" viewBox="0 0 99 99" fill="none" xmlns="http://www.w3.org/2000/svg">
<circle opacity="0.06" cx="49.5" cy="49.5" r="49.5" fill="#CA0000"/>
<path opacity="0.06" d="M49.5 99C62.6282 99 75.2187 93.7848 84.5018 84.5018C93.7848 75.2187 99 62.6282 99 49.5C99 36.3718 93.7848 23.7813 84.5018 14.4982C75.2187 5.21517 62.6282 8.58162e-07 49.5 -1.5299e-06L49.5 49.5L49.5 99Z" fill="#CA0000"/>
<g clip-path="url(#clip0_8_192)">
<path fill-rule="evenodd" clip-rule="evenodd" d="M45.7092 24.1301L45.4118 24.4193V29.7864V35.1533H49.2885H53.1651V29.7864V24.4193L52.8677 24.1301L52.5704 23.8408H49.2885H46.0065L45.7092 24.1301ZM50.2576 26.6689V27.6116H49.2885H48.3193V26.6689V25.7262H49.2885H50.2576V26.6689ZM43.4735 38.9241V40.8095H49.2885H55.1035V38.9241V37.0387H49.2885H43.4735V38.9241ZM37.8076 44.8477L35.5968 47.0005L37.2935 47.5475C38.2265 47.8485 39.0131 48.0582 39.0414 48.0138C39.1249 47.8822 41.0506 42.8606 41.0506 42.7741C41.0506 42.7307 40.8183 42.695 40.5345 42.695C40.0266 42.695 39.983 42.7294 37.8076 44.8477ZM42.1096 45.4445C41.5271 46.9568 41.0506 48.2295 41.0506 48.2726C41.0506 48.3158 44.7576 48.3512 49.2885 48.3512C53.8193 48.3512 57.5264 48.3158 57.5264 48.2726C57.5264 48.2295 57.0498 46.9568 56.4673 45.4445L55.4083 42.695H49.2885H43.1687L42.1096 45.4445ZM57.5264 42.7741C57.5264 42.8606 59.452 47.8822 59.5356 48.0138C59.5638 48.0582 60.3504 47.8485 61.2835 47.5475L62.9801 47.0005L60.7693 44.8477C58.5939 42.7294 58.5503 42.695 58.0425 42.695C57.7586 42.695 57.5264 42.7307 57.5264 42.7741ZM34.751 59.4266V70.1308L36.0533 70.4267C36.7695 70.5894 37.5464 70.7571 37.7796 70.7993C38.0128 70.8415 38.2993 70.9021 38.4162 70.9342C38.6181 70.9895 38.6274 70.4558 38.598 60.4775L38.5671 49.9625L36.659 49.3426L34.751 48.7225V59.4266ZM61.8876 49.3528L60.0099 49.9617L59.979 60.4661L59.948 70.9705L60.3424 70.896C61.3449 70.7065 63.725 70.171 63.7733 70.1239C63.8029 70.0951 63.8134 65.2728 63.7963 59.4077L63.7654 48.7439L61.8876 49.3528ZM40.566 60.7677V71.2988L41.626 71.4284C44.5484 71.7858 45.721 71.8504 49.2885 71.8504C52.856 71.8504 54.0285 71.7858 56.9509 71.4284L58.011 71.2988V60.7677V50.2366H49.2885H40.566V60.7677ZM50.2576 58.721V59.6637H49.2885H48.3193V58.721V57.7783H49.2885H50.2576V58.721ZM52.196 62.4918V63.4345H49.2885H46.381V62.4918V61.5491H49.2885H52.196V62.4918ZM34.751 73.618C34.751 75.3423 34.8693 75.7315 35.5464 76.2339L36.0041 76.5735H49.3005C62.5406 76.5735 62.5981 76.5724 62.9313 76.3305C63.6954 75.7756 63.762 75.5814 63.8051 73.7814L63.8449 72.1251L63.5023 72.1835C63.3138 72.2156 62.3419 72.4056 61.3425 72.6059C57.2007 73.4353 53.9741 73.739 49.2885 73.7399C44.5267 73.741 41.4617 73.4526 37.2345 72.6059C36.235 72.4056 35.2673 72.2162 35.0841 72.1848L34.751 72.1278V73.618Z" fill="#0062AF"/>
</g>
<defs>
<clipPath id="clip0_8_192">
<rect width="63.6429" height="63.6429" fill="white" transform="translate(18.3857 18.3857)"/>
</clipPath>
</defs>
</svg>
