<svg width="99" height="99" viewBox="0 0 99 99" fill="none" xmlns="http://www.w3.org/2000/svg">
<circle cx="49.5002" cy="49.5002" r="49.5002" fill="#FCF0F0"/>
<path d="M49.5002 99.0005C56.0007 99.0005 62.4375 97.7201 68.4432 95.2325C74.4488 92.7449 79.9057 89.0987 84.5022 84.5022C89.0987 79.9057 92.7449 74.4488 95.2325 68.4432C97.7201 62.4375 99.0005 56.0007 99.0005 49.5002C99.0005 42.9998 97.7201 36.563 95.2325 30.5573C92.7449 24.5517 89.0987 19.0948 84.5022 14.4983C79.9057 9.90176 74.4488 6.2556 68.4432 3.76798C62.4375 1.28036 56.0007 -2.84144e-07 49.5002 0L49.5002 49.5002L49.5002 99.0005Z" fill="#F9E2E2"/>
<g clip-path="url(#clip0_8_32)">
<path d="M36.8282 52.1724C37.4883 52.6993 38.2583 53.7762 38.7794 53.6662C42.6296 52.873 44.187 55.7621 46.445 58.5585C47.7303 54.1004 48.8825 50.0997 50.2199 45.439C51.0247 47.7722 51.4994 49.5844 52.281 51.2577C52.7326 52.2303 53.6764 53.6836 54.4001 53.6836C56.4091 53.6836 58.9566 54.9747 60.2883 52.1435C60.5662 51.5587 61.012 51.055 61.5852 50.2213C64.5148 56.8679 70.4087 52.3172 74.6063 54.193C75.0637 58.5006 73.7899 59.9538 69.4187 59.9712C66.1533 59.9886 62.8821 59.977 59.1882 59.977C59.1882 63.6477 59.1998 67.0868 59.1824 70.5201C59.165 74.2545 58.0997 75.3372 54.3769 75.3719C51.4821 75.4009 48.5872 75.4182 45.6981 75.3661C42.5659 75.3082 41.3211 74.0634 41.2805 70.9659C41.2342 67.4168 41.269 63.8735 41.269 59.977C37.7546 59.977 34.5065 59.9886 31.2585 59.977C26.8236 59.9596 25.5961 58.6801 25.7467 54.1757C29.29 52.763 33.6323 55.5305 36.8282 52.1724Z" fill="#8D4A20"/>
<path d="M61.2899 44.1764C60.2304 45.9191 59.3677 47.5228 58.3082 48.9876C57.8103 49.6824 56.9418 50.1108 56.2412 50.6609C55.7665 50.0124 55.1122 49.4219 54.8459 48.6981C53.9138 46.1738 53.2074 43.5626 52.2174 41.0615C51.9047 40.2799 50.8684 39.174 50.3125 39.2551C49.4846 39.3709 48.3903 40.2799 48.1124 41.0846C47.0008 44.3443 46.1613 47.6907 45.3044 50.7014C41.46 51.373 38.7041 50.1514 36.8919 46.1275C34.4776 51.7088 30.2106 50.9967 25.6425 50.4582C25.6425 49.0455 25.573 47.627 25.654 46.2259C25.8219 43.389 27.1594 42.0805 30.06 42.0342C33.696 41.9705 37.3377 42.0168 41.2632 42.0168C41.2632 38.1087 41.2342 34.5654 41.269 31.0163C41.3037 27.8319 42.6238 26.4713 45.8371 26.3961C48.8246 26.3266 51.8179 26.315 54.7996 26.4076C57.9318 26.5061 59.1303 27.774 59.1651 30.8889C59.2056 34.4438 59.1766 37.9987 59.1766 42.011C62.1757 42.011 64.949 42.1442 67.6991 41.982C73.9636 41.6115 75.6137 42.9489 74.4558 50.6724C71.8388 50.6724 68.7934 51.4714 66.5991 50.4466C64.4858 49.4508 63.2237 46.5849 61.2899 44.1764Z" fill="#8D4A20"/>
</g>
<defs>
<clipPath id="clip0_8_32">
<rect width="63.6432" height="63.6432" fill="white" transform="translate(18.3857 18.3857)"/>
</clipPath>
</defs>
</svg>
