<svg width="71" height="70" viewBox="0 0 71 70" fill="none" xmlns="http://www.w3.org/2000/svg">
<ellipse opacity="0.06" cx="35.8176" cy="34.7591" rx="34.9643" ry="34.7591" fill="#CA0000"/>
<path opacity="0.06" d="M35.8889 70C45.1621 70 54.0554 66.3379 60.6125 59.8193C67.1695 53.3007 70.8533 44.4596 70.8533 35.2409C70.8533 26.0222 67.1695 17.1811 60.6125 10.6625C54.0554 4.14392 45.1621 0.481812 35.8889 0.48181L35.8889 35.2409L35.8889 70Z" fill="#CA0000"/>
<g clip-path="url(#clip0_20_348)">
<path fill-rule="evenodd" clip-rule="evenodd" d="M33.7022 17.8608C32.3272 18.1561 31.0942 19.2523 30.5925 20.6257L30.4152 21.1109L30.382 24.7631C30.3459 28.7281 30.3578 28.6064 29.9733 28.9549C29.6087 29.2853 29.709 29.2766 25.8333 29.3118L22.1811 29.345L21.6959 29.5223C20.3068 30.0298 19.2206 31.2628 18.9272 32.6652C18.7909 33.317 18.7909 36.197 18.9272 36.8487C19.2206 38.2512 20.3068 39.4842 21.6959 39.9916L22.1811 40.1689L25.8333 40.2021C29.7983 40.2382 29.6766 40.2263 30.0251 40.6108C30.3554 40.9754 30.3467 40.8751 30.382 44.7508L30.4152 48.403L30.5925 48.8883C31.0977 50.2712 32.3391 51.3647 33.7354 51.6569C34.3872 51.7932 37.2671 51.7932 37.9189 51.6569C39.2037 51.388 40.3978 50.4152 40.9347 49.1999C41.2277 48.5366 41.2703 48.1734 41.2713 46.3266L41.2723 44.5821L41.0213 44.7102C40.4985 44.9768 40.0328 45.0651 39.2886 45.0387C38.6664 45.0166 38.5308 44.9891 38.1431 44.8066C37.0185 44.2774 36.462 43.2774 36.4675 41.7958C36.4722 40.5385 36.8265 39.6873 37.8244 38.5356C38.1536 38.1557 38.7185 37.3816 39.0797 36.8155C39.852 35.6051 40.2598 35.1276 40.8442 34.7497L41.2723 34.4729V33.7197V32.9666L40.824 33.2143C40.3863 33.4563 40.3595 33.4621 39.6772 33.4621C39.0183 33.4621 38.9527 33.4494 38.5246 33.2386C36.9099 32.4437 36.0151 30.0666 36.5634 28.0284C36.8689 26.8923 37.5976 26.077 38.5717 25.7812C38.9915 25.6537 39.0991 25.6453 39.5274 25.707C40.0804 25.7867 40.5868 26.0129 40.9955 26.3627L41.2791 26.6055L41.2591 23.8582L41.2391 21.1109L41.0618 20.6257C40.5543 19.2367 39.3213 18.1505 37.9189 17.857C37.286 17.7246 34.3239 17.7272 33.7022 17.8608ZM38.9563 26.9214C37.7084 27.216 37.1929 29.4813 38.0209 31.0322C38.4668 31.8676 39.021 32.3 39.6454 32.3C40.5808 32.3 41.1921 31.4556 41.2557 30.0755C41.2785 29.5842 41.2572 29.2991 41.1741 28.9798C40.9124 27.9743 40.2747 27.1574 39.5936 26.9551C39.408 26.9 39.239 26.8579 39.2183 26.8616C39.1975 26.8654 39.0796 26.8923 38.9563 26.9214ZM46.6557 26.9322C46.1256 27.0845 45.6967 27.5039 45.3428 28.2162C45.0528 28.7999 44.9592 29.2058 44.9602 29.8763C44.9622 31.2848 45.6354 32.3 46.5676 32.3C47.2936 32.3 47.9831 31.6561 48.3686 30.6183C48.9313 29.1031 48.4295 27.2718 47.3649 26.9557C46.9828 26.8423 46.9706 26.8419 46.6557 26.9322ZM23.4811 30.7012C23.6886 30.9088 23.7288 31.1456 23.5979 31.3913C23.4791 31.6144 23.3473 31.6836 22.953 31.7299C22.4719 31.7865 22.0917 31.9621 21.8 32.2625C21.493 32.5785 21.3587 32.867 21.2791 33.3809C21.2283 33.7089 21.1741 33.8318 21.0164 33.9767C20.7927 34.1823 20.6327 34.2034 20.361 34.0629C20.0733 33.9141 19.9903 33.64 20.0762 33.1218C20.2739 31.929 21.1658 30.9185 22.2773 30.6284C22.9547 30.4515 23.2491 30.4693 23.4811 30.7012ZM26.5088 30.6661C26.6564 30.7931 26.6936 30.8812 26.6936 31.1047C26.6936 31.3283 26.6564 31.4164 26.5088 31.5434C26.3493 31.6806 26.2556 31.7024 25.8252 31.7024C25.5509 31.7024 25.2662 31.6701 25.1925 31.6307C24.982 31.518 24.8587 31.1583 24.9453 30.9096C25.0469 30.6185 25.2847 30.5129 25.8462 30.5098C26.2566 30.5075 26.35 30.5295 26.5088 30.6661ZM34.6664 31.9738C35.4628 32.1211 36.152 32.5998 36.6446 33.3477C37.0548 33.9707 37.2296 34.4777 37.271 35.1644C37.3702 36.8088 36.2683 37.9922 34.8717 37.7411C33.5656 37.5064 32.5713 36.4683 32.2677 35.0226C32.0212 33.8491 32.4512 32.6708 33.2933 32.2125C33.5775 32.0578 33.7433 32.0045 34.2378 31.9089C34.2585 31.9048 34.4514 31.9341 34.6664 31.9738ZM33.8629 33.2885C33.2374 33.6699 33.2711 34.9701 33.9288 35.8315C34.2751 36.285 34.6386 36.5039 35.1008 36.5373C35.4747 36.5644 35.503 36.5553 35.7204 36.3379C36.1304 35.9279 36.1886 35.2593 35.8837 34.4625C35.5192 33.5099 34.485 32.9091 33.8629 33.2885ZM51.3755 33.2875C51.0252 33.4742 50.5841 33.9492 50.3855 34.3534C50.1362 34.8612 50.0923 35.6717 50.293 36.065C50.4724 36.4166 50.69 36.5499 51.0848 36.5499C52.3759 36.5499 53.3619 34.2829 52.462 33.3831C52.2724 33.1934 52.1981 33.1637 51.9202 33.1661C51.7431 33.1676 51.4979 33.2222 51.3755 33.2875ZM42.2928 35.4538C42.0689 35.5024 41.7878 35.5929 41.6681 35.6548C41.3051 35.8425 40.8389 36.3276 40.4699 36.9018C39.5731 38.2971 39.2554 38.7457 38.8148 39.2393C38.0044 40.1471 37.6864 40.8591 37.6864 41.7663C37.6864 42.7915 37.9503 43.3335 38.6166 43.6773C38.9536 43.8513 39.0242 43.8632 39.5458 43.8346C40.1771 43.8 40.3155 43.7514 40.9592 43.3387C41.2071 43.1798 41.6105 42.9708 41.8557 42.8744C42.2433 42.7218 42.4013 42.6985 43.0652 42.6956C43.9561 42.6917 44.3718 42.8002 45.0138 43.2039C45.7688 43.6787 46.1072 43.8092 46.6674 43.8416C47.2916 43.8777 47.6503 43.7625 47.9989 43.414C48.3113 43.1016 48.4277 42.8414 48.5192 42.251C48.6753 41.2433 48.3497 40.3081 47.5148 39.3667C47.0113 38.799 46.5658 38.1828 45.8552 37.0715C45.6067 36.6827 45.2776 36.2389 45.1239 36.0853C44.4953 35.4567 43.4014 35.2126 42.2928 35.4538Z" fill="#0062AF"/>
</g>
<defs>
<clipPath id="clip0_20_348">
<rect width="44.9541" height="44.6948" fill="white" transform="translate(13.3403 12.4117)"/>
</clipPath>
</defs>
</svg>
