<svg width="99" height="99" viewBox="0 0 99 99" fill="none" xmlns="http://www.w3.org/2000/svg">
<ellipse opacity="0.06" cx="49.5" cy="49.5" rx="49.5" ry="49.5" fill="#CA0000"/>
<path opacity="0.06" d="M49.5 98.9999C62.6282 98.9999 75.2187 93.7847 84.5018 84.5017C93.7848 75.2187 99 62.6282 99 49.5C99 36.3717 93.7848 23.7812 84.5018 14.4982C75.2187 5.21516 62.6282 8.5816e-07 49.5 -1.5299e-06L49.5 49.4999L49.5 98.9999Z" fill="#CA0000"/>
<g clip-path="url(#clip0_8_24)">
<path fill-rule="evenodd" clip-rule="evenodd" d="M67.7561 25.7255C67.6077 25.7752 67.3412 25.8941 67.164 25.9898C66.9866 26.0856 63.0868 29.9916 58.4977 34.67L50.1538 43.1759L53.9218 43.1714L57.69 43.1671L64.2038 36.7072C69.0179 31.933 70.7878 30.1106 70.9868 29.7229C71.328 29.058 71.3593 27.8752 71.0516 27.2746C70.7756 26.7359 70.2538 26.1979 69.7517 25.9345C69.2877 25.691 68.2001 25.5772 67.7561 25.7255ZM66.7885 30.2912L67.5914 31.1144L66.975 31.7423L66.3586 32.3701L65.5504 31.5523C65.1058 31.1026 64.7421 30.6982 64.7421 30.6539C64.7421 30.5426 65.7896 29.4679 65.898 29.4679C65.9463 29.4679 66.347 29.8384 66.7885 30.2912ZM64.2045 32.9231L65.0074 33.7464L64.391 34.3742L63.7746 35.002L62.9664 34.1843C62.5218 33.7345 62.1581 33.3164 62.1581 33.2551C62.1581 33.1117 63.1457 32.108 63.2913 32.1034C63.352 32.1014 63.763 32.4703 64.2045 32.9231ZM61.6205 35.5551L62.4234 36.3783L61.807 37.0061L61.1906 37.634L60.3824 36.8162C59.9378 36.3665 59.5741 35.9483 59.5741 35.887C59.5741 35.7437 60.5617 34.7399 60.7073 34.7353C60.768 34.7333 61.179 35.1023 61.6205 35.5551ZM47.6622 37.1545C46.9053 37.2834 45.8113 37.7004 45.0669 38.1438C44.2037 38.6581 33.8275 49.1612 33.4981 49.8543C32.3681 52.2319 34.8598 54.7692 37.1905 53.614C37.5301 53.4457 39.9322 51.0681 45.6848 45.207L53.7058 37.0348L50.9605 37.0476C49.4507 37.0546 47.9664 37.1027 47.6622 37.1545ZM63.2348 40.1053L60.1663 43.1673L63.5847 43.1716L67.0031 43.1759V44.0501V44.9243L58.3629 44.9548L49.7226 44.9854L49.1843 45.2569C48.4967 45.6038 47.8517 46.2615 47.5148 46.9594C47.1513 47.7123 47.142 49.1268 47.4956 49.8689C47.8644 50.6429 48.3021 51.1097 49.0416 51.5182L49.7226 51.8942L55.5598 51.9491C60.5624 51.9961 61.4184 52.0274 61.5468 52.1684C61.6293 52.2589 62.1964 52.9004 62.8075 53.594C64.1895 55.1631 65.2719 56.162 66.5044 57.0057C68.7272 58.5273 71.2304 59.4326 74.1898 59.7851L74.7551 59.8525V48.4436V37.0348L70.5292 37.0391L66.3033 37.0434L63.2348 40.1053ZM59.0365 38.187L59.8394 39.0102L59.223 39.6381L58.6066 40.2659L57.7984 39.4481C57.3538 38.9984 56.9901 38.591 56.9901 38.543C56.9901 38.4469 58.0773 37.3637 58.1738 37.3637C58.2068 37.3637 58.595 37.7342 59.0365 38.187ZM56.4525 40.8189L57.2554 41.6422L56.639 42.27L56.0226 42.8978L55.2144 42.0801C54.7698 41.6303 54.4061 41.2122 54.4061 41.1509C54.4061 41.0076 55.3938 40.0038 55.5393 39.9992C55.6 39.9972 56.011 40.3661 56.4525 40.8189ZM35.5376 58.0621L25.6592 68.125V71.44V74.7551L26.1706 74.6936C28.5666 74.4062 30.7856 73.5635 32.6575 72.2304C33.1136 71.9055 34.5778 70.5312 36.0221 69.0725L38.5792 66.4897V64.3068V62.1238L39.2521 61.4388C39.6222 61.0619 41.7032 58.9907 43.8766 56.8361L47.828 52.9186L47.1503 52.2728C46.1443 51.3144 45.6156 50.1981 45.4848 48.7565L45.416 47.9991L35.5376 58.0621ZM45.2303 52.1985C45.6581 52.6371 46.0081 53.0425 46.0081 53.0993C46.0081 53.2428 45.0194 54.252 44.879 54.252C44.8161 54.252 44.4039 53.8821 43.963 53.4301L43.1613 52.608L43.7466 52.0045C44.0685 51.6724 44.359 51.4008 44.3922 51.4008C44.4252 51.4008 44.8024 51.7597 45.2303 52.1985ZM46.2841 56.9388C42.6667 60.5607 42.7887 60.39 42.9165 61.6512C43.0316 62.7867 43.7959 63.7459 44.8369 64.0608C45.5467 64.2754 45.824 64.2748 46.5538 64.0568C47.1104 63.8905 47.3307 63.6871 51.1255 59.8347C53.3183 57.6086 55.1483 55.7873 55.1922 55.7873C55.3026 55.7873 56.3441 56.8465 56.3441 56.9588C56.3441 57.0088 54.621 58.8012 52.515 60.9421C50.409 63.0829 48.5708 65.032 48.4302 65.2733C47.5771 66.7371 48.385 68.8409 49.9845 69.3201C50.7158 69.5392 50.9885 69.5394 51.7218 69.3216C52.2791 69.156 52.4942 68.9574 56.2922 65.0996C58.4842 62.8729 60.3172 61.0512 60.3654 61.0512C60.4617 61.0512 61.5121 62.15 61.5121 62.2508C61.5121 62.2853 59.7646 64.0898 57.6288 66.2608C55.493 68.4318 53.6409 70.4056 53.513 70.6468C53.1852 71.2655 53.185 72.5464 53.5126 73.1765C53.8202 73.7683 54.4718 74.3539 55.0904 74.5945C55.7262 74.8418 56.5928 74.7671 57.219 74.4109C57.5163 74.2418 58.7893 72.8826 61.0013 70.3727C62.8351 68.2918 64.4763 66.4535 64.6482 66.2877L64.9609 65.9861H67.1569C69.5627 65.9861 70.4946 65.8625 71.6284 65.3934C72.561 65.0073 73.2856 64.5225 74.0822 63.7514L74.7551 63.1001V62.3565V61.613L74.2437 61.5484C71.6524 61.2214 70.4629 60.923 68.5745 60.1262C65.8256 58.9664 63.7334 57.3428 61.186 54.3924L60.597 53.7102L55.0835 53.6796L49.57 53.6489L46.2841 56.9388ZM42.6463 54.8304C43.0741 55.269 43.4241 55.6745 43.4241 55.7313C43.4241 55.8747 42.4354 56.884 42.295 56.884C42.2321 56.884 41.8199 56.5141 41.379 56.062L40.5773 55.24L41.1626 54.6364C41.4845 54.3043 41.775 54.0327 41.8082 54.0327C41.8412 54.0327 42.2184 54.3916 42.6463 54.8304ZM37.3651 64.9022C37.3215 65.0244 32.0779 69.6506 31.527 70.053C30.4057 70.8718 28.2177 72.0176 27.775 72.0176C27.6601 72.0176 27.1664 70.8086 27.1665 70.5271C27.1665 70.4612 27.5039 70.2725 27.9163 70.1077C29.5697 69.447 30.4753 68.7762 34.0572 65.5594L36.2643 63.5772L36.8268 64.2059C37.1361 64.5517 37.3784 64.865 37.3651 64.9022Z" fill="#0062AF"/>
</g>
<defs>
<clipPath id="clip0_8_24">
<rect width="63.6428" height="63.6428" fill="white" transform="translate(18.3857 18.3857)"/>
</clipPath>
</defs>
</svg>
