<svg width="45" height="45" viewBox="0 0 45 45" fill="none" xmlns="http://www.w3.org/2000/svg">
<circle cx="22.4421" cy="22.9653" r="22" fill="#0062AF"/>
<path fill-rule="evenodd" clip-rule="evenodd" d="M17.9071 12.0313C19.0801 11.9773 19.4541 11.9653 22.4421 11.9653C25.4301 11.9653 25.8041 11.9783 26.9761 12.0313C28.1481 12.0843 28.9481 12.2713 29.6481 12.5423C30.3811 12.8193 31.0461 13.2523 31.5961 13.8123C32.1561 14.3613 32.5881 15.0253 32.8641 15.7593C33.1361 16.4593 33.3221 17.2593 33.3761 18.4293C33.4301 19.6043 33.4421 19.9783 33.4421 22.9653C33.4421 25.9533 33.4291 26.3273 33.3761 27.5003C33.3231 28.6703 33.1361 29.4703 32.8641 30.1703C32.5881 30.9044 32.1554 31.5695 31.5961 32.1193C31.0461 32.6793 30.3811 33.1113 29.6481 33.3873C28.9481 33.6593 28.1481 33.8453 26.9781 33.8993C25.8041 33.9533 25.4301 33.9653 22.4421 33.9653C19.4541 33.9653 19.0801 33.9523 17.9071 33.8993C16.7371 33.8463 15.9371 33.6593 15.2371 33.3873C14.5031 33.1113 13.838 32.6786 13.2881 32.1193C12.7285 31.57 12.2955 30.9052 12.0191 30.1713C11.7481 29.4713 11.5621 28.6713 11.5081 27.5013C11.4541 26.3263 11.4421 25.9523 11.4421 22.9653C11.4421 19.9773 11.4551 19.6033 11.5081 18.4313C11.5611 17.2593 11.7481 16.4593 12.0191 15.7593C12.2959 15.0254 12.7293 14.3606 13.2891 13.8113C13.8382 13.2518 14.5026 12.8188 15.2361 12.5423C15.9361 12.2713 16.7361 12.0853 17.9061 12.0313H17.9071ZM26.8871 14.0113C25.7271 13.9583 25.3791 13.9473 22.4421 13.9473C19.5051 13.9473 19.1571 13.9583 17.9971 14.0113C16.9241 14.0603 16.3421 14.2393 15.9541 14.3903C15.4411 14.5903 15.0741 14.8273 14.6891 15.2123C14.3242 15.5674 14.0433 15.9996 13.8671 16.4773C13.7161 16.8653 13.5371 17.4473 13.4881 18.5203C13.4351 19.6803 13.4241 20.0283 13.4241 22.9653C13.4241 25.9023 13.4351 26.2503 13.4881 27.4103C13.5371 28.4833 13.7161 29.0653 13.8671 29.4533C14.0431 29.9303 14.3241 30.3633 14.6891 30.7183C15.0441 31.0833 15.4771 31.3643 15.9541 31.5403C16.3421 31.6913 16.9241 31.8703 17.9971 31.9193C19.1571 31.9723 19.5041 31.9833 22.4421 31.9833C25.3801 31.9833 25.7271 31.9723 26.8871 31.9193C27.9601 31.8703 28.5421 31.6913 28.9301 31.5403C29.4431 31.3403 29.8101 31.1033 30.1951 30.7183C30.5601 30.3633 30.8411 29.9303 31.0171 29.4533C31.1681 29.0653 31.3471 28.4833 31.3961 27.4103C31.4491 26.2503 31.4601 25.9023 31.4601 22.9653C31.4601 20.0283 31.4491 19.6803 31.3961 18.5203C31.3471 17.4473 31.1681 16.8653 31.0171 16.4773C30.8171 15.9643 30.5801 15.5973 30.1951 15.2123C29.8401 14.8474 29.4078 14.5665 28.9301 14.3903C28.5421 14.2393 27.9601 14.0603 26.8871 14.0113ZM21.0371 26.3563C21.8218 26.683 22.6955 26.727 23.5091 26.4811C24.3226 26.2351 25.0255 25.7142 25.4977 25.0076C25.97 24.3009 26.1822 23.4522 26.0982 22.6064C26.0142 21.7607 25.6391 20.9703 25.0371 20.3703C24.6534 19.9868 24.1894 19.6931 23.6785 19.5105C23.1676 19.3278 22.6226 19.2607 22.0826 19.3139C21.5427 19.3672 21.0213 19.5395 20.5559 19.8185C20.0906 20.0974 19.6929 20.4761 19.3914 20.9272C19.09 21.3783 18.8923 21.8906 18.8127 22.4273C18.733 22.964 18.7733 23.5116 18.9307 24.0308C19.0881 24.5501 19.3586 25.0279 19.7229 25.4301C20.0871 25.8322 20.536 26.1485 21.0371 26.3563ZM18.4441 18.9673C18.9692 18.4423 19.5925 18.0258 20.2784 17.7417C20.9644 17.4576 21.6996 17.3113 22.4421 17.3113C23.1846 17.3113 23.9199 17.4576 24.6058 17.7417C25.2918 18.0258 25.9151 18.4423 26.4401 18.9673C26.9652 19.4924 27.3816 20.1157 27.6658 20.8016C27.9499 21.4876 28.0962 22.2228 28.0962 22.9653C28.0962 23.7078 27.9499 24.4431 27.6658 25.129C27.3816 25.815 26.9652 26.4383 26.4401 26.9633C25.3798 28.0237 23.9417 28.6194 22.4421 28.6194C20.9426 28.6194 19.5045 28.0237 18.4441 26.9633C17.3838 25.903 16.7881 24.4649 16.7881 22.9653C16.7881 21.4658 17.3838 20.0277 18.4441 18.9673ZM29.3501 18.1533C29.4802 18.0306 29.5844 17.883 29.6564 17.7193C29.7285 17.5556 29.7669 17.3791 29.7696 17.2003C29.7722 17.0214 29.7389 16.8439 29.6716 16.6781C29.6044 16.5124 29.5046 16.3618 29.3781 16.2354C29.2516 16.1089 29.1011 16.0091 28.9353 15.9418C28.7696 15.8746 28.592 15.8413 28.4132 15.8439C28.2344 15.8465 28.0579 15.885 27.8942 15.957C27.7305 16.0291 27.5829 16.1332 27.4601 16.2633C27.2214 16.5164 27.0908 16.8525 27.0958 17.2003C27.1009 17.5481 27.2413 17.8802 27.4873 18.1262C27.7333 18.3721 28.0654 18.5126 28.4132 18.5176C28.761 18.5227 29.0971 18.392 29.3501 18.1533Z" fill="white"/>
</svg>
