<svg width="45" height="45" viewBox="0 0 45 45" fill="none" xmlns="http://www.w3.org/2000/svg">
<circle cx="22.4421" cy="22.9653" r="22" fill="#0062AF"/>
<path d="M27.8801 16.7682C26.9215 16.768 26.0012 17.1623 25.3171 17.8661C24.633 18.57 24.2399 19.5272 24.2224 20.5318L24.1871 22.6139C24.185 22.7256 24.1604 22.8357 24.1149 22.9368C24.0694 23.038 24.004 23.1279 23.923 23.2006C23.8421 23.2734 23.7473 23.3274 23.645 23.3591C23.5427 23.3908 23.4352 23.3995 23.3294 23.3846L21.3606 23.1043C18.7699 22.7342 16.2877 21.4836 13.9064 19.4041C13.1522 23.7798 14.6253 26.8111 18.1733 29.1496L20.3768 30.6011C20.4815 30.6701 20.5684 30.7649 20.6301 30.8772C20.6918 30.9895 20.7262 31.116 20.7304 31.2455C20.7347 31.3751 20.7086 31.5037 20.6544 31.6202C20.6002 31.7367 20.5196 31.8375 20.4197 31.9138L18.4117 33.4512C19.6061 33.5292 20.74 33.4737 21.6809 33.2781C27.6317 32.0328 31.5883 27.3398 31.5883 19.5985C31.5883 18.9666 30.3119 16.7682 27.8801 16.7682ZM21.6999 20.4829C21.7219 19.2086 22.1021 17.9694 22.7928 16.9205C23.4836 15.8716 24.4542 15.0596 25.5832 14.5861C26.7122 14.1126 27.9494 13.9988 29.1398 14.2588C30.3303 14.5188 31.4211 15.141 32.2757 16.0477C33.1725 16.0411 33.9355 16.279 35.642 15.195C35.2195 17.363 35.0114 18.3043 34.1108 19.5985C34.1108 29.7009 28.1866 34.6132 22.1754 35.8704C18.0535 36.7323 12.0599 35.3165 10.342 33.4367C11.2174 33.3653 14.7742 32.9648 16.8301 31.3877C15.0908 30.186 8.1676 25.9161 12.717 14.4362C14.8524 17.0497 17.018 18.8291 19.2126 19.773C20.6732 20.4009 21.0314 20.3877 21.7011 20.4842L21.6999 20.4829Z" fill="white"/>
</svg>
