<svg width="30" height="31" viewBox="0 0 30 31" fill="none" xmlns="http://www.w3.org/2000/svg">
<path fill-rule="evenodd" clip-rule="evenodd" d="M15 28.625C18.481 28.625 21.8194 27.2422 24.2808 24.7808C26.7422 22.3194 28.125 18.981 28.125 15.5C28.125 12.019 26.7422 8.68064 24.2808 6.21922C21.8194 3.75781 18.481 2.375 15 2.375C11.519 2.375 8.18064 3.75781 5.71922 6.21922C3.25781 8.68064 1.875 12.019 1.875 15.5C1.875 18.981 3.25781 22.3194 5.71922 24.7808C8.18064 27.2422 11.519 28.625 15 28.625ZM15 0.499999C18.9782 0.499999 22.7936 2.08035 25.6066 4.8934C28.4196 7.70644 30 11.5218 30 15.5C30 19.4782 28.4196 23.2936 25.6066 26.1066C22.7936 28.9196 18.9782 30.5 15 30.5C11.0218 30.5 7.20644 28.9196 4.3934 26.1066C1.58035 23.2936 -4.81776e-07 19.4782 -6.55671e-07 15.5C-8.29566e-07 11.5218 1.58035 7.70644 4.3934 4.8934C7.20644 2.08035 11.0218 0.5 15 0.499999ZM8.4375 14.5625C8.18886 14.5625 7.9504 14.6613 7.77459 14.8371C7.59877 15.0129 7.5 15.2514 7.5 15.5C7.5 15.7486 7.59877 15.9871 7.77459 16.1629C7.9504 16.3387 8.18886 16.4375 8.4375 16.4375L19.2994 16.4375L15.2737 20.4612C15.0977 20.6373 14.9988 20.876 14.9988 21.125C14.9988 21.374 15.0977 21.6127 15.2737 21.7887C15.4498 21.9648 15.6885 22.0637 15.9375 22.0637C16.1865 22.0637 16.4252 21.9648 16.6012 21.7887L22.2262 16.1637C22.3136 16.0767 22.3828 15.9732 22.4301 15.8593C22.4773 15.7454 22.5017 15.6233 22.5017 15.5C22.5017 15.3767 22.4773 15.2546 22.4301 15.1407C22.3828 15.0268 22.3136 14.9233 22.2262 14.8362L16.6012 9.21125C16.4252 9.03521 16.1865 8.93631 15.9375 8.93631C15.6885 8.93631 15.4498 9.03521 15.2737 9.21125C15.0977 9.38729 14.9988 9.62604 14.9988 9.875C14.9988 10.124 15.0977 10.3627 15.2737 10.5387L19.2994 14.5625L8.4375 14.5625Z" fill="#0062AF"/>
</svg>
